<svg width="643" height="644" viewBox="0 0 643 644" fill="none" xmlns="http://www.w3.org/2000/svg">
<path d="M53 643.5L15 620L621 624L619.5 11.9998L643 31.4998V643.5H53Z" fill="#CBCBCB"/>
<path d="M35.7707 22.8568C35.6918 21.2019 34.2862 19.9242 32.6312 20.0032C30.9762 20.0821 29.6986 21.4877 29.7775 23.1427L32.7741 22.9998L35.7707 22.8568ZM32.7789 23.0996L35.7788 23.1189L35.7794 23.0378L35.7755 22.9567L32.7789 23.0996ZM32.7698 24.5084L29.7699 24.4891L32.7698 24.5084ZM33.0188 53.2983L36.0168 53.1884L33.0188 53.2983ZM34.3284 92.9897L37.3267 92.8896L34.3284 92.9897ZM34.3757 94.4066L37.374 94.3064L34.3757 94.4066ZM35.4386 113.213L38.4292 112.975L35.4386 113.213ZM35.495 113.921L38.4855 113.682L35.495 113.921ZM35.0146 133.426L32.0422 133.02L35.0146 133.426ZM34.9178 134.134L37.8902 134.54L34.9178 134.134ZM34.8211 134.842L31.8487 134.436L34.8211 134.842ZM34.5885 153.663L37.5699 153.329L34.5885 153.663ZM34.747 155.08L31.7655 155.413L34.747 155.08ZM34.6518 173.884L37.6296 174.248L34.6518 173.884ZM34.5654 174.591L31.5876 174.227L34.5654 174.591ZM33.5838 194.803L36.5829 194.728L33.5838 194.803ZM33.1446 214.318L30.1527 214.097L33.1446 214.318ZM33.0925 215.025L30.1006 214.805L33.0925 215.025ZM33.0404 215.732L36.0323 215.953L33.0404 215.732ZM33.7305 234.554L30.7623 234.989L33.7305 234.554ZM33.8346 235.264L36.8028 234.828L33.8346 235.264ZM33.9386 235.973L30.9703 236.408L33.9386 235.973ZM33.5014 256.192L30.5431 255.693L33.5014 256.192ZM33.1301 274.993L30.1546 275.375L33.1301 274.993ZM33.2212 275.702L36.1968 275.32L33.2212 275.702ZM33.3123 276.411L30.3367 276.794L33.3123 276.411ZM33.5064 295.229L36.489 295.551L33.5064 295.229ZM33.3534 296.643L30.3708 296.321L33.3534 296.643ZM31.9083 315.44L28.9114 315.303L31.9083 315.44ZM31.876 316.147L34.8729 316.284L31.876 316.147ZM31.8437 316.855L28.8468 316.718L31.8437 316.855ZM32.0947 335.66L35.0869 335.443L32.0947 335.66ZM32.1459 336.368L29.1538 336.584L32.1459 336.368ZM32.1972 337.076L35.1893 336.859L32.1972 337.076ZM33.0033 355.9L36.0031 355.86L33.0033 355.9ZM33.0128 356.609L30.0131 356.649L33.0128 356.609ZM33.0223 357.318L36.022 357.278L33.0223 357.318ZM33.2734 376.116L36.2732 376.076L33.2734 376.116ZM33.2829 376.822L30.2831 376.862L33.2829 376.822ZM33.2923 377.528L36.292 377.488L33.2923 377.528ZM32.2474 397.047L29.2672 396.703L32.2474 397.047ZM32.0533 416.574L35.0372 416.264L32.0533 416.574ZM32.1268 417.281L29.1429 417.591L32.1268 417.281ZM32.2003 417.987L35.1842 417.677L32.2003 417.987ZM33.3958 436.749L36.395 436.679L33.3958 436.749ZM33.4123 437.455L30.4132 437.525L33.4123 437.455ZM33.4289 438.16L36.428 438.09L33.4289 438.16ZM32.6718 456.996L35.656 457.304L32.6718 456.996ZM32.5983 457.708L29.6142 457.401L32.5983 457.708ZM32.5248 458.421L35.509 458.729L32.5248 458.421ZM32.8764 477.261L29.906 477.681L32.8764 477.261ZM32.9763 477.967L35.9467 477.546L32.9763 477.967ZM33.0763 478.673L30.1059 479.093L33.0763 478.673ZM34.6189 497.442L31.6197 497.51L34.6189 497.442ZM34.635 498.149L37.6343 498.08L34.635 498.149ZM34.2386 517.658L31.2452 517.459L34.2386 517.658ZM33.8095 537.882L30.8109 537.976L33.8095 537.882ZM33.8315 538.589L36.8301 538.496L33.8315 538.589ZM33.8535 539.297L36.8521 539.203L33.8535 539.297ZM35.048 558.102L32.0617 558.388L35.048 558.102ZM35.1838 559.518L38.1701 559.232L35.1838 559.518ZM35.0208 578.295L32.04 577.957L35.0208 578.295ZM34.9407 579.001L37.9215 579.339L34.9407 579.001ZM34.8606 579.706L31.8798 579.367L34.8606 579.706ZM34.034 594.634L37.0312 594.505L34.034 594.634ZM34.0519 595.052L31.0546 595.181L34.0519 595.052ZM34.0698 595.471L37.0671 595.342L34.0698 595.471ZM33.541 601.03L33.1508 604.005L33.3451 604.03L33.541 604.03L33.541 601.03ZM32.78 600.931L33.1702 597.956L29.9735 597.537L29.7851 600.755L32.78 600.931ZM29.7793 600.855C29.6824 602.509 30.9448 603.928 32.5988 604.025C34.2528 604.122 35.6722 602.86 35.769 601.206L32.7741 601.03L29.7793 600.855ZM32.7741 22.9998L29.7775 23.1427L29.7823 23.2426L32.7789 23.0996L35.7755 22.9567L35.7707 22.8568L32.7741 22.9998ZM32.7789 23.0996L29.779 23.0804L29.7699 24.4891L32.7698 24.5084L35.7698 24.5277L35.7788 23.1189L32.7789 23.0996ZM32.7698 24.5084L29.7699 24.4891C29.6896 36.9766 29.7636 46.3909 29.995 52.7031L32.993 52.5932L35.991 52.4833C35.7644 46.3049 35.6896 36.9959 35.7698 24.5277L32.7698 24.5084ZM32.993 52.5932L29.995 52.7031L30.0208 53.4082L33.0188 53.2983L36.0168 53.1884L35.991 52.4833L32.993 52.5932ZM33.0188 53.2983L30.0208 53.4082L30.0467 54.1134L33.0447 54.0034L36.0427 53.8935L36.0168 53.1884L33.0188 53.2983ZM33.0447 54.0034L30.0467 54.1134C30.2754 60.353 30.4867 66.602 30.6806 72.8603L33.6791 72.7674L36.6777 72.6745C36.4835 66.4049 36.2718 60.1446 36.0427 53.8935L33.0447 54.0034ZM33.6791 72.7674L30.6806 72.8603L30.7025 73.5675L33.701 73.4746L36.6996 73.3818L36.6777 72.6745L33.6791 72.7674ZM33.701 73.4746L30.7025 73.5675L30.7244 74.2747L33.7229 74.1819L36.7215 74.089L36.6996 73.3818L33.701 73.4746ZM33.7229 74.1819L30.7244 74.2747C30.9185 80.5411 31.1203 86.8128 31.33 93.0899L34.3284 92.9897L37.3267 92.8896C37.1172 86.6174 36.9154 80.3505 36.7215 74.089L33.7229 74.1819ZM34.3284 92.9897L31.33 93.0899L31.3537 93.7983L34.352 93.6982L37.3503 93.598L37.3267 92.8896L34.3284 92.9897ZM34.352 93.6982L31.3537 93.7983L31.3774 94.5067L34.3757 94.4066L37.374 94.3064L37.3503 93.598L34.352 93.6982ZM34.3757 94.4066L31.3774 94.5067C31.5885 100.827 31.9454 107.143 32.4481 113.452L35.4386 113.213L38.4292 112.975C37.9338 106.758 37.5821 100.535 37.374 94.3064L34.3757 94.4066ZM35.4386 113.213L32.4481 113.452L32.5045 114.159L35.495 113.921L38.4855 113.682L38.4292 112.975L35.4386 113.213ZM35.495 113.921L32.5045 114.159L32.5608 114.866L35.5513 114.628L38.5418 114.39L38.4855 113.682L35.495 113.921ZM35.5513 114.628L32.5608 114.866C33.0426 120.913 32.8701 126.963 32.0422 133.02L35.0146 133.426L37.9869 133.833C38.8728 127.352 39.0581 120.869 38.5418 114.39L35.5513 114.628ZM35.0146 133.426L32.0422 133.02L31.9455 133.728L34.9178 134.134L37.8902 134.54L37.9869 133.833L35.0146 133.426ZM34.9178 134.134L31.9455 133.728L31.8487 134.436L34.8211 134.842L37.7935 135.248L37.8902 134.54L34.9178 134.134ZM34.8211 134.842L31.8487 134.436C30.9584 140.95 30.8777 147.472 31.6071 153.996L34.5885 153.663L37.5699 153.329C36.8957 147.298 36.97 141.273 37.7935 135.248L34.8211 134.842ZM34.5885 153.663L31.6071 153.996L31.6863 154.705L34.6677 154.371L37.6492 154.038L37.5699 153.329L34.5885 153.663ZM34.6677 154.371L31.6863 154.705L31.7655 155.413L34.747 155.08L37.7284 154.747L37.6492 154.038L34.6677 154.371ZM34.747 155.08L31.7655 155.413C32.4415 161.46 32.4109 167.494 31.674 173.52L34.6518 173.884L37.6296 174.248C38.4233 167.758 38.4561 161.256 37.7284 154.747L34.747 155.08ZM34.6518 173.884L31.674 173.52L31.5876 174.227L34.5654 174.591L37.5432 174.955L37.6296 174.248L34.6518 173.884ZM34.5654 174.591L31.5876 174.227L31.5012 174.933L34.479 175.297L37.4568 175.661L37.5432 174.955L34.5654 174.591ZM34.479 175.297L31.5012 174.933C30.7182 181.336 30.4067 187.748 30.567 194.169L33.5661 194.094L36.5652 194.019C36.4122 187.893 36.7093 181.774 37.4568 175.661L34.479 175.297ZM33.5661 194.094L30.567 194.169L30.5847 194.878L33.5838 194.803L36.5829 194.728L36.5652 194.019L33.5661 194.094ZM33.5838 194.803L30.5847 194.878L30.6024 195.586L33.6015 195.511L36.6005 195.436L36.5829 194.728L33.5838 194.803ZM33.6015 195.511L30.6024 195.586C30.7566 201.761 30.6067 207.931 30.1527 214.097L33.1446 214.318L36.1365 214.538C36.6049 208.175 36.7596 201.808 36.6005 195.436L33.6015 195.511ZM33.1446 214.318L30.1527 214.097L30.1006 214.805L33.0925 215.025L36.0844 215.245L36.1365 214.538L33.1446 214.318ZM33.0925 215.025L30.1006 214.805L30.0485 215.512L33.0404 215.732L36.0323 215.953L36.0844 215.245L33.0925 215.025ZM33.0404 215.732L30.0485 215.512C29.571 221.998 29.8095 228.491 30.7623 234.989L33.7305 234.554L36.6988 234.119C35.809 228.05 35.5874 221.996 36.0323 215.953L33.0404 215.732ZM33.7305 234.554L30.7623 234.989L30.8663 235.699L33.8346 235.264L36.8028 234.828L36.6988 234.119L33.7305 234.554ZM33.8346 235.264L30.8663 235.699L30.9703 236.408L33.9386 235.973L36.9068 235.538L36.8028 234.828L33.8346 235.264ZM33.9386 235.973L30.9703 236.408C31.8462 242.382 31.7831 248.336 30.7811 254.281L33.7394 254.78L36.6977 255.278C37.8039 248.715 37.8735 242.131 36.9068 235.538L33.9386 235.973ZM33.7394 254.78L30.7811 254.281L30.6621 254.987L33.6204 255.486L36.5787 255.984L36.6977 255.278L33.7394 254.78ZM33.6204 255.486L30.6621 254.987L30.5431 255.693L33.5014 256.192L36.4597 256.69L36.5787 255.984L33.6204 255.486ZM33.5014 256.192L30.5431 255.693C29.4401 262.238 29.3104 268.802 30.1546 275.375L33.1301 274.993L36.1057 274.611C35.3368 268.624 35.4546 262.654 36.4597 256.69L33.5014 256.192ZM33.1301 274.993L30.1546 275.375L30.2457 276.085L33.2212 275.702L36.1968 275.32L36.1057 274.611L33.1301 274.993ZM33.2212 275.702L30.2457 276.085L30.3367 276.794L33.3123 276.411L36.2878 276.029L36.1968 275.32L33.2212 275.702ZM33.3123 276.411L30.3367 276.794C31.1134 282.841 31.1755 288.877 30.5237 294.906L33.5064 295.229L36.489 295.551C37.1916 289.051 37.1243 282.542 36.2878 276.029L33.3123 276.411ZM33.5064 295.229L30.5237 294.906L30.4473 295.614L33.4299 295.936L36.4125 296.259L36.489 295.551L33.5064 295.229ZM33.4299 295.936L30.4473 295.614L30.3708 296.321L33.3534 296.643L36.3361 296.966L36.4125 296.259L33.4299 295.936ZM33.3534 296.643L30.3708 296.321C29.687 302.647 29.2005 308.974 28.9114 315.303L31.9083 315.44L34.9052 315.577C35.1886 309.373 35.6655 303.169 36.3361 296.966L33.3534 296.643ZM31.9083 315.44L28.9114 315.303L28.8791 316.01L31.876 316.147L34.8729 316.284L34.9052 315.577L31.9083 315.44ZM31.876 316.147L28.8791 316.01L28.8468 316.718L31.8437 316.855L34.8405 316.991L34.8729 316.284L31.876 316.147ZM31.8437 316.855L28.8468 316.718C28.5552 323.102 28.6404 329.488 29.1026 335.876L32.0947 335.66L35.0869 335.443C34.6418 329.29 34.5597 323.139 34.8405 316.991L31.8437 316.855ZM32.0947 335.66L29.1026 335.876L29.1538 336.584L32.1459 336.368L35.1381 336.151L35.0869 335.443L32.0947 335.66ZM32.1459 336.368L29.1538 336.584L29.205 337.292L32.1972 337.076L35.1893 336.859L35.1381 336.151L32.1459 336.368ZM32.1972 337.076L29.205 337.292C29.6544 343.504 29.9206 349.72 30.0036 355.94L33.0033 355.9L36.0031 355.86C35.9185 349.522 35.6472 343.189 35.1893 336.859L32.1972 337.076ZM33.0033 355.9L30.0036 355.94L30.0131 356.649L33.0128 356.609L36.0125 356.569L36.0031 355.86L33.0033 355.9ZM33.0128 356.609L30.0131 356.649L30.0225 357.358L33.0223 357.318L36.022 357.278L36.0125 356.569L33.0128 356.609ZM33.0223 357.318L30.0225 357.358C30.1064 363.636 30.1901 369.902 30.2737 376.156L33.2734 376.116L36.2732 376.076C36.1896 369.822 36.1058 363.556 36.022 357.278L33.0223 357.318ZM33.2734 376.116L30.2737 376.156L30.2831 376.862L33.2829 376.822L36.2826 376.782L36.2732 376.076L33.2734 376.116ZM33.2829 376.822L30.2831 376.862L30.2926 377.568L33.2923 377.528L36.292 377.488L36.2826 376.782L33.2829 376.822ZM33.2923 377.528L30.2926 377.568C30.3744 383.692 30.0602 389.834 29.3491 395.994L32.3293 396.338L35.3095 396.682C36.0497 390.27 36.3774 383.872 36.292 377.488L33.2923 377.528ZM32.3293 396.338L29.3491 395.994L29.2672 396.703L32.2474 397.047L35.2276 397.391L35.3095 396.682L32.3293 396.338ZM32.2474 397.047L29.2672 396.703L29.1852 397.413L32.1654 397.757L35.1456 398.101L35.2276 397.391L32.2474 397.047ZM32.1654 397.757L29.1852 397.413C28.4347 403.915 28.3958 410.407 29.0694 416.884L32.0533 416.574L35.0372 416.264C34.4091 410.224 34.445 404.171 35.1456 398.101L32.1654 397.757ZM32.0533 416.574L29.0694 416.884L29.1429 417.591L32.1268 417.281L35.1107 416.97L35.0372 416.264L32.0533 416.574ZM32.1268 417.281L29.1429 417.591L29.2164 418.298L32.2003 417.987L35.1842 417.677L35.1107 416.97L32.1268 417.281ZM32.2003 417.987L29.2164 418.298C29.859 424.477 30.2524 430.651 30.3967 436.819L33.3958 436.749L36.395 436.679C36.247 430.349 35.8433 424.015 35.1842 417.677L32.2003 417.987ZM33.3958 436.749L30.3967 436.819L30.4132 437.525L33.4123 437.455L36.4115 437.385L36.395 436.679L33.3958 436.749ZM33.4123 437.455L30.4132 437.525L30.4297 438.23L33.4289 438.16L36.428 438.09L36.4115 437.385L33.4123 437.455ZM33.4289 438.16L30.4297 438.23C30.5728 444.352 30.3257 450.504 29.6876 456.688L32.6718 456.996L35.656 457.304C36.3196 450.872 36.5772 444.467 36.428 438.09L33.4289 438.16ZM32.6718 456.996L29.6876 456.688L29.6142 457.401L32.5983 457.708L35.5825 458.016L35.656 457.304L32.6718 456.996ZM32.5983 457.708L29.6142 457.401L29.5407 458.113L32.5248 458.421L35.509 458.729L35.5825 458.016L32.5983 457.708ZM32.5248 458.421L29.5407 458.113C28.8649 464.662 28.9865 471.187 29.906 477.681L32.8764 477.261L35.8468 476.84C34.9958 470.831 34.883 464.795 35.509 458.729L32.5248 458.421ZM32.8764 477.261L29.906 477.681L30.006 478.387L32.9763 477.967L35.9467 477.546L35.8468 476.84L32.8764 477.261ZM32.9763 477.967L30.006 478.387L30.1059 479.093L33.0763 478.673L36.0467 478.252L35.9467 477.546L32.9763 477.967ZM33.0763 478.673L30.1059 479.093C30.9748 485.229 31.4792 491.368 31.6197 497.51L34.6189 497.442L37.6181 497.373C37.4722 490.994 36.9483 484.62 36.0467 478.252L33.0763 478.673ZM34.6189 497.442L31.6197 497.51L31.6358 498.217L34.635 498.149L37.6343 498.08L37.6181 497.373L34.6189 497.442ZM34.635 498.149L31.6358 498.217L31.652 498.924L34.6512 498.856L37.6504 498.787L37.6343 498.08L34.635 498.149ZM34.6512 498.856L31.652 498.924C31.7931 505.095 31.6575 511.273 31.2452 517.459L34.2386 517.658L37.2319 517.858C37.6561 511.495 37.7956 505.138 37.6504 498.787L34.6512 498.856ZM34.2386 517.658L31.2452 517.459L31.198 518.167L34.1913 518.366L37.1847 518.566L37.2319 517.858L34.2386 517.658ZM34.1913 518.366L31.198 518.167L31.1508 518.875L34.1441 519.075L37.1375 519.274L37.1847 518.566L34.1913 518.366ZM34.1441 519.075L31.1508 518.875C30.726 525.246 30.6127 531.613 30.8109 537.976L33.8095 537.882L36.808 537.789C36.6159 531.623 36.7257 525.451 37.1375 519.274L34.1441 519.075ZM33.8095 537.882L30.8109 537.976L30.833 538.683L33.8315 538.589L36.8301 538.496L36.808 537.789L33.8095 537.882ZM33.8315 538.589L30.833 538.683L30.855 539.39L33.8535 539.297L36.8521 539.203L36.8301 538.496L33.8315 538.589ZM33.8535 539.297L30.855 539.39C31.0522 545.719 31.4544 552.052 32.0617 558.388L35.048 558.102L38.0343 557.816C37.4393 551.607 37.0452 545.403 36.8521 539.203L33.8535 539.297ZM35.048 558.102L32.0617 558.388L32.1296 559.096L35.1159 558.81L38.1022 558.524L38.0343 557.816L35.048 558.102ZM35.1159 558.81L32.1296 559.096L32.1975 559.804L35.1838 559.518L38.1701 559.232L38.1022 558.524L35.1159 558.81ZM35.1838 559.518L32.1975 559.804C32.7787 565.869 32.7262 571.919 32.04 577.957L35.0208 578.295L38.0017 578.634C38.7351 572.18 38.7911 565.712 38.1701 559.232L35.1838 559.518ZM35.0208 578.295L32.04 577.957L31.9599 578.662L34.9407 579.001L37.9215 579.339L38.0017 578.634L35.0208 578.295ZM34.9407 579.001L31.9599 578.662L31.8798 579.367L34.8606 579.706L37.8414 580.044L37.9215 579.339L34.9407 579.001ZM34.8606 579.706L31.8798 579.367C31.1626 585.677 30.8683 590.83 31.0367 594.762L34.034 594.634L37.0312 594.505C36.8822 591.025 37.1389 586.226 37.8414 580.044L34.8606 579.706ZM34.034 594.634L31.0367 594.762L31.0546 595.181L34.0519 595.052L37.0491 594.924L37.0312 594.505L34.034 594.634ZM34.0519 595.052L31.0546 595.181L31.0726 595.599L34.0698 595.471L37.0671 595.342L37.0491 594.924L34.0519 595.052ZM34.0698 595.471L31.0726 595.599C31.1507 597.424 31.1432 598.657 31.081 599.385C31.0471 599.781 31.0114 599.834 31.0533 599.712C31.0709 599.66 31.1773 599.345 31.4781 598.994C31.8258 598.587 32.5422 598.03 33.5947 598.03L33.5947 601.03L33.5947 604.03C34.766 604.03 35.5914 603.416 36.0381 602.893C36.438 602.426 36.6335 601.937 36.7304 601.654C36.9307 601.068 37.0138 600.426 37.0592 599.896C37.1553 598.771 37.1476 597.224 37.0671 595.342L34.0698 595.471ZM33.5947 601.03L33.5947 598.03L33.541 598.03L33.541 601.03L33.541 604.03L33.5947 604.03L33.5947 601.03ZM33.541 601.03L33.9312 598.056L33.1702 597.956L32.78 600.931L32.3898 603.905L33.1508 604.005L33.541 601.03ZM32.78 600.931L29.7851 600.755L29.7793 600.855L32.7741 601.03L35.769 601.206L35.7749 601.106L32.78 600.931Z" fill="black"/>
<path d="M605.009 22.8674C604.936 21.2122 603.535 19.9296 601.88 20.0027C600.225 20.0758 598.942 21.4768 599.015 23.1321L602.012 22.9998L605.009 22.8674ZM602.016 23.0997L605.016 23.1353L605.017 23.0513L605.014 22.9673L602.016 23.0997ZM602.25 52.6535L605.246 52.5027L602.25 52.6535ZM603.327 72.8462L600.332 73.0165L603.327 72.8462ZM603.368 73.5527L606.363 73.3824L603.368 73.5527ZM604.571 93.0281L607.565 92.8272L604.571 93.0281ZM604.619 93.7343L601.626 93.9352L604.619 93.7343ZM604.666 94.4405L607.66 94.2395L604.666 94.4405ZM606.402 113.186L609.381 112.834L606.402 113.186ZM606.485 113.891L603.505 114.243L606.485 113.891ZM606.568 114.596L609.547 114.244L606.568 114.596ZM606.763 133.4L603.777 133.112L606.763 133.4ZM606.694 134.111L609.68 134.399L606.694 134.111ZM606.626 134.821L603.639 134.533L606.626 134.821ZM607.135 153.624L610.101 153.174V153.174L607.135 153.624ZM607.349 155.033L610.315 154.584V154.584L607.349 155.033ZM607.964 173.821L604.975 173.566L607.964 173.821ZM607.611 194.762L610.606 194.592L607.611 194.762ZM607.734 214.261L604.738 214.118L607.734 214.261ZM607.701 214.969L610.697 215.113L607.701 214.969ZM607.667 215.677L604.67 215.533L607.667 215.677ZM609.001 235.893L611.961 235.404L609.001 235.893ZM609.061 254.681L612.024 255.152L609.061 254.681ZM608.949 255.388L605.986 254.917L608.949 255.388ZM608.837 256.095L611.799 256.566L608.837 256.095ZM608.555 274.905L605.579 275.287L608.555 274.905ZM608.737 276.323L611.713 275.941L608.737 276.323ZM608.839 295.12L605.86 294.768L608.839 295.12ZM608.755 295.826L605.776 295.474L608.755 295.826ZM608.672 296.532L611.651 296.884L608.672 296.532ZM606.943 315.291L603.95 315.093V315.093L606.943 315.291ZM606.897 315.997L609.89 316.195L606.897 315.997ZM606.85 316.703L603.857 316.505L606.85 316.703ZM606.671 336.236L609.669 336.105L606.671 336.236ZM606.945 356.532L609.945 356.582L606.945 356.532ZM606.933 357.243L603.934 357.193L606.933 357.243ZM606.611 376.079L603.612 376.026L606.611 376.079ZM604.066 416.41L601.073 416.616L604.066 416.41ZM604.163 417.825L607.156 417.62L604.163 417.825ZM604.656 436.632L601.656 436.583L604.656 436.632ZM603.075 456.828L600.108 456.383L603.075 456.828ZM602.969 457.534L605.936 457.978L602.969 457.534ZM602.863 458.239L599.896 457.794L602.863 458.239ZM602.503 477.725L605.488 477.417L602.503 477.725ZM602.577 478.433L599.593 478.742L602.577 478.433ZM603.482 498.646L600.482 498.628L603.482 498.646ZM602.59 517.436L599.602 517.171L602.59 517.436ZM602.528 518.143L599.539 517.878L602.528 518.143ZM602.465 518.851L605.453 519.116L602.465 518.851ZM601.807 538.346L604.806 538.294L601.807 538.346ZM601.819 539.053L598.819 539.105L601.819 539.053ZM602.913 557.875L605.899 557.58L602.913 557.875ZM603.053 559.294L600.068 559.589L603.053 559.294ZM603.365 578.122L600.372 577.925L603.365 578.122ZM603.272 579.537L606.266 579.734L603.272 579.537ZM603.068 594.112L600.078 594.352L603.068 594.112ZM603.099 594.502L606.09 594.262L603.099 594.502ZM603.131 594.891L600.14 595.131L603.131 594.891ZM602.833 600.057L602.79 603.057L602.833 600.057ZM602.779 600.057L602.349 603.026L602.541 603.053L602.736 603.056L602.779 600.057ZM602.013 599.946L602.444 596.977L599.057 596.486L599.014 599.907L602.013 599.946ZM599.012 600.007C598.991 601.664 600.317 603.024 601.974 603.045C603.631 603.066 604.991 601.74 605.012 600.084L602.012 600.046L599.012 600.007ZM602.012 22.9998L599.015 23.1321L599.019 23.232L602.016 23.0997L605.014 22.9673L605.009 22.8674L602.012 22.9998ZM602.016 23.0997L599.017 23.0641L599 24.4754L602 24.511L605 24.5466L605.016 23.1353L602.016 23.0997ZM602 24.511L599 24.4754C598.851 36.9898 598.934 46.4466 599.254 52.8043L602.25 52.6535L605.246 52.5027C604.936 46.338 604.851 37.033 605 24.5466L602 24.511ZM602.25 52.6535L599.254 52.8043L599.289 53.5112L602.285 53.3604L605.282 53.2096L605.246 52.5027L602.25 52.6535ZM602.285 53.3604L599.289 53.5112L599.325 54.2181L602.321 54.0673L605.317 53.9166L605.282 53.2096L602.285 53.3604ZM602.321 54.0673L599.325 54.2181C599.64 60.4859 599.976 66.752 600.332 73.0165L603.327 72.8462L606.323 72.6758C605.967 66.4244 605.632 60.1713 605.317 53.9166L602.321 54.0673ZM603.327 72.8462L600.332 73.0165L600.372 73.723L603.368 73.5527L606.363 73.3824L606.323 72.6758L603.327 72.8462ZM603.368 73.5527L600.372 73.723L600.413 74.4296L603.408 74.2593L606.403 74.0889L606.363 73.3824L603.368 73.5527ZM603.408 74.2593L600.413 74.4296C600.769 80.6978 601.158 86.9643 601.578 93.2291L604.571 93.0281L607.565 92.8272C607.146 86.5828 606.758 80.3367 606.403 74.0889L603.408 74.2593ZM604.571 93.0281L601.578 93.2291L601.626 93.9352L604.619 93.7343L607.612 93.5334L607.565 92.8272L604.571 93.0281ZM604.619 93.7343L601.626 93.9352L601.673 94.6414L604.666 94.4405L607.66 94.2395L607.612 93.5334L604.619 93.7343ZM604.666 94.4405L601.673 94.6414C602.096 100.947 602.679 107.245 603.422 113.538L606.402 113.186L609.381 112.834C608.65 106.642 608.076 100.444 607.66 94.2395L604.666 94.4405ZM606.402 113.186L603.422 113.538L603.505 114.243L606.485 113.891L609.464 113.539L609.381 112.834L606.402 113.186ZM606.485 113.891L603.505 114.243L603.589 114.947L606.568 114.596L609.547 114.244L609.464 113.539L606.485 113.891ZM606.568 114.596L603.589 114.947C604.3 120.976 604.363 127.03 603.777 133.112L606.763 133.4L609.749 133.688C610.376 127.183 610.309 120.7 609.547 114.244L606.568 114.596ZM606.763 133.4L603.777 133.112L603.708 133.823L606.694 134.111L609.68 134.399L609.749 133.688L606.763 133.4ZM606.694 134.111L603.708 133.823L603.639 134.533L606.626 134.821L609.612 135.109L609.68 134.399L606.694 134.111ZM606.626 134.821L603.639 134.533C603.009 141.073 603.185 147.588 604.169 154.074L607.135 153.624L610.101 153.174C609.191 147.177 609.028 141.158 609.612 135.109L606.626 134.821ZM607.135 153.624L604.169 154.074L604.276 154.779L607.242 154.329L610.208 153.879L610.101 153.174L607.135 153.624ZM607.242 154.329L604.276 154.779L604.383 155.483L607.349 155.033L610.315 154.584L610.208 153.879L607.242 154.329ZM607.349 155.033L604.383 155.483C605.294 161.492 605.491 167.518 604.975 173.566L607.964 173.821L610.953 174.077C611.51 167.557 611.297 161.058 610.315 154.584L607.349 155.033ZM607.964 173.821L604.975 173.566L604.914 174.275L607.903 174.531L610.892 174.786L610.953 174.077L607.964 173.821ZM607.903 174.531L604.914 174.275L604.853 174.985L607.842 175.24L610.831 175.496L610.892 174.786L607.903 174.531ZM607.842 175.24L604.853 174.985C604.304 181.41 604.212 187.824 604.576 194.226L607.571 194.055L610.566 193.885C610.218 187.768 610.307 181.639 610.831 175.496L607.842 175.24ZM607.571 194.055L604.576 194.226L604.616 194.932L607.611 194.762L610.606 194.592L610.566 193.885L607.571 194.055ZM607.611 194.762L604.616 194.932L604.656 195.639L607.651 195.469L610.647 195.298L610.606 194.592L607.611 194.762ZM607.651 195.469L604.656 195.639C605.006 201.794 605.034 207.953 604.738 214.118L607.734 214.261L610.731 214.405C611.037 208.032 611.009 201.663 610.647 195.298L607.651 195.469ZM607.734 214.261L604.738 214.118L604.704 214.825L607.701 214.969L610.697 215.113L610.731 214.405L607.734 214.261ZM607.701 214.969L604.704 214.825L604.67 215.533L607.667 215.677L610.663 215.821L610.697 215.113L607.701 214.969ZM607.667 215.677L604.67 215.533C604.359 222.016 604.739 228.495 605.808 234.967L608.768 234.478L611.728 233.989C610.727 227.93 610.373 221.875 610.663 215.821L607.667 215.677ZM608.768 234.478L605.808 234.967L605.925 235.674L608.884 235.185L611.844 234.696L611.728 233.989L608.768 234.478ZM608.884 235.185L605.925 235.674L606.041 236.381L609.001 235.893L611.961 235.404L611.844 234.696L608.884 235.185ZM609.001 235.893L606.041 236.381C607.024 242.33 607.043 248.268 606.098 254.21L609.061 254.681L612.024 255.152C613.069 248.573 613.048 241.986 611.961 235.404L609.001 235.893ZM609.061 254.681L606.098 254.21L605.986 254.917L608.949 255.388L611.912 255.859L612.024 255.152L609.061 254.681ZM608.949 255.388L605.986 254.917L605.874 255.624L608.837 256.095L611.799 256.566L611.912 255.859L608.949 255.388ZM608.837 256.095L605.874 255.624C604.834 262.167 604.736 268.724 605.579 275.287L608.555 274.905L611.53 274.523C610.76 268.527 610.849 262.544 611.799 256.566L608.837 256.095ZM608.555 274.905L605.579 275.287L605.67 275.996L608.646 275.614L611.622 275.232L611.53 274.523L608.555 274.905ZM608.646 275.614L605.67 275.996L605.762 276.705L608.737 276.323L611.713 275.941L611.622 275.232L608.646 275.614ZM608.737 276.323L605.762 276.705C606.537 282.742 606.57 288.761 605.86 294.768L608.839 295.12L611.818 295.472C612.586 288.975 612.551 282.462 611.713 275.941L608.737 276.323ZM608.839 295.12L605.86 294.768L605.776 295.474L608.755 295.826L611.735 296.178L611.818 295.472L608.839 295.12ZM608.755 295.826L605.776 295.474L605.693 296.179L608.672 296.532L611.651 296.884L611.735 296.178L608.755 295.826ZM608.672 296.532L605.693 296.179C604.948 302.482 604.367 308.787 603.95 315.093L606.943 315.291L609.937 315.489C610.347 309.286 610.918 303.084 611.651 296.884L608.672 296.532ZM606.943 315.291L603.95 315.093L603.903 315.799L606.897 315.997L609.89 316.195L609.937 315.489L606.943 315.291ZM606.897 315.997L603.903 315.799L603.857 316.505L606.85 316.703L609.844 316.901L609.89 316.195L606.897 315.997ZM606.85 316.703L603.857 316.505C603.436 322.87 603.365 329.253 603.643 335.655L606.64 335.525L609.638 335.395C609.369 329.21 609.437 323.046 609.844 316.901L606.85 316.703ZM606.64 335.525L603.643 335.655L603.674 336.366L606.671 336.236L609.669 336.105L609.638 335.395L606.64 335.525ZM606.671 336.236L603.674 336.366L603.705 337.076L606.702 336.946L609.699 336.816L609.669 336.105L606.671 336.236ZM606.702 336.946L603.705 337.076C603.976 343.31 604.06 349.542 603.957 355.773L606.957 355.822L609.956 355.872C610.061 349.521 609.976 343.169 609.699 336.816L606.702 336.946ZM606.957 355.822L603.957 355.773L603.945 356.483L606.945 356.532L609.945 356.582L609.956 355.872L606.957 355.822ZM606.945 356.532L603.945 356.483L603.934 357.193L606.933 357.243L609.933 357.292L609.945 356.582L606.945 356.532ZM606.933 357.243L603.934 357.193C603.83 363.483 603.722 369.76 603.612 376.026L606.611 376.079L609.611 376.132C609.722 369.864 609.829 363.584 609.933 357.292L606.933 357.243ZM606.611 376.079L603.612 376.026L603.599 376.734L606.599 376.787L609.598 376.84L609.611 376.132L606.611 376.079ZM606.599 376.787L603.599 376.734L603.587 377.441L606.586 377.494L609.586 377.547L609.598 376.84L606.599 376.787ZM606.586 377.494L603.587 377.441C603.479 383.577 602.969 389.698 602.059 395.806L605.026 396.249L607.993 396.691C608.942 390.327 609.473 383.945 609.586 377.547L606.586 377.494ZM605.026 396.249L602.059 395.806L601.954 396.51L604.921 396.953L607.888 397.395L607.993 396.691L605.026 396.249ZM604.921 396.953L601.954 396.51L601.849 397.214L604.816 397.657L607.783 398.099L607.888 397.395L604.921 396.953ZM604.816 397.657L601.849 397.214C600.887 403.664 600.628 410.132 601.073 416.616L604.066 416.41L607.059 416.205C606.644 410.156 606.885 404.122 607.783 398.099L604.816 397.657ZM604.066 416.41L601.073 416.616L601.122 417.323L604.115 417.118L607.108 416.913L607.059 416.205L604.066 416.41ZM604.115 417.118L601.122 417.323L601.17 418.031L604.163 417.825L607.156 417.62L607.108 416.913L604.115 417.118ZM604.163 417.825L601.17 418.031C601.594 424.213 601.756 430.397 601.656 436.583L604.656 436.632L607.655 436.68C607.758 430.324 607.592 423.971 607.156 417.62L604.163 417.825ZM604.656 436.632L601.656 436.583L601.644 437.291L604.644 437.34L607.644 437.388L607.655 436.68L604.656 436.632ZM604.644 437.34L601.644 437.291L601.633 437.999L604.633 438.048L607.632 438.097L607.644 437.388L604.644 437.34ZM604.633 438.048L601.633 437.999C601.533 444.137 601.025 450.265 600.108 456.383L603.075 456.828L606.042 457.273C606.998 450.894 607.528 444.501 607.632 438.097L604.633 438.048ZM603.075 456.828L600.108 456.383L600.002 457.089L602.969 457.534L605.936 457.978L606.042 457.273L603.075 456.828ZM602.969 457.534L600.002 457.089L599.896 457.794L602.863 458.239L605.83 458.684L605.936 457.978L602.969 457.534ZM602.863 458.239L599.896 457.794C598.922 464.292 598.772 470.805 599.446 477.326L602.43 477.017L605.414 476.709C604.792 470.691 604.931 464.684 605.83 458.684L602.863 458.239ZM602.43 477.017L599.446 477.326L599.519 478.034L602.503 477.725L605.488 477.417L605.414 476.709L602.43 477.017ZM602.503 477.725L599.519 478.034L599.593 478.742L602.577 478.433L605.561 478.125L605.488 477.417L602.503 477.725ZM602.577 478.433L599.593 478.742C600.229 484.904 600.529 491.061 600.491 497.214L603.491 497.232L606.491 497.25C606.53 490.878 606.22 484.503 605.561 478.125L602.577 478.433ZM603.491 497.232L600.491 497.214L600.487 497.921L603.487 497.939L606.487 497.958L606.491 497.25L603.491 497.232ZM603.487 497.939L600.487 497.921L600.482 498.628L603.482 498.646L606.482 498.665L606.487 497.958L603.487 497.939ZM603.482 498.646L600.482 498.628C600.445 504.808 600.151 510.989 599.602 517.171L602.59 517.436L605.579 517.701C606.142 511.356 606.443 505.01 606.482 498.665L603.482 498.646ZM602.59 517.436L599.602 517.171L599.539 517.878L602.528 518.143L605.516 518.409L605.579 517.701L602.59 517.436ZM602.528 518.143L599.539 517.878L599.477 518.585L602.465 518.851L605.453 519.116L605.516 518.409L602.528 518.143ZM602.465 518.851L599.477 518.585C598.911 524.954 598.684 531.323 598.795 537.691L601.794 537.639L604.794 537.587C604.687 531.431 604.906 525.275 605.453 519.116L602.465 518.851ZM601.794 537.639L598.795 537.691L598.807 538.398L601.807 538.346L604.806 538.294L604.794 537.587L601.794 537.639ZM601.807 538.346L598.807 538.398L598.819 539.105L601.819 539.053L604.819 539.001L604.806 538.294L601.807 538.346ZM601.819 539.053L598.819 539.105C598.93 545.449 599.3 551.803 599.928 558.169L602.913 557.875L605.899 557.58C605.286 551.374 604.926 545.181 604.819 539.001L601.819 539.053ZM602.913 557.875L599.928 558.169L599.998 558.879L602.983 558.584L605.969 558.29L605.899 557.58L602.913 557.875ZM602.983 558.584L599.998 558.879L600.068 559.589L603.053 559.294L606.039 558.999L605.969 558.29L602.983 558.584ZM603.053 559.294L600.068 559.589C600.672 565.712 600.773 571.824 600.372 577.925L603.365 578.122L606.359 578.319C606.782 571.888 606.675 565.448 606.039 558.999L603.053 559.294ZM603.365 578.122L600.372 577.925L600.325 578.632L603.319 578.829L606.312 579.026L606.359 578.319L603.365 578.122ZM603.319 578.829L600.325 578.632L600.279 579.34L603.272 579.537L606.266 579.734L606.312 579.026L603.319 578.829ZM603.272 579.537L600.279 579.34C599.863 585.654 599.784 590.683 600.078 594.352L603.068 594.112L606.059 593.872C605.799 590.639 605.856 585.951 606.266 579.734L603.272 579.537ZM603.068 594.112L600.078 594.352L600.109 594.741L603.099 594.502L606.09 594.262L606.059 593.872L603.068 594.112ZM603.099 594.502L600.109 594.741L600.14 595.131L603.131 594.891L606.121 594.651L606.09 594.262L603.099 594.502ZM603.131 594.891L600.14 595.131C600.276 596.827 600.306 597.951 600.269 598.598C600.248 598.957 600.216 598.957 600.274 598.785C600.301 598.705 600.421 598.353 600.759 597.976C601.163 597.526 601.893 597.044 602.875 597.058L602.833 600.057L602.79 603.057C603.891 603.073 604.728 602.538 605.227 601.981C605.66 601.498 605.865 600.986 605.963 600.691C606.165 600.09 606.23 599.446 606.259 598.944C606.321 597.868 606.262 596.406 606.121 594.651L603.131 594.891ZM602.833 600.057L602.875 597.058L602.822 597.057L602.779 600.057L602.736 603.056L602.79 603.057L602.833 600.057ZM602.779 600.057L603.209 597.088L602.444 596.977L602.013 599.946L601.583 602.915L602.349 603.026L602.779 600.057ZM602.013 599.946L599.014 599.907L599.012 600.007L602.012 600.046L605.012 600.084L605.013 599.984L602.013 599.946Z" fill="black"/>
<path d="M602.11 26.5106C603.766 26.4561 605.065 25.0696 605.01 23.4137C604.956 21.7577 603.569 20.4594 601.913 20.5138L602.012 23.5122L602.11 26.5106ZM601.912 23.5155L601.847 26.5147L601.929 26.5165L602.011 26.5138L601.912 23.5155ZM551.502 23.8568L551.576 26.8559V26.8559L551.502 23.8568ZM550.796 23.8741L550.87 26.8732V26.8732L550.796 23.8741ZM531.3 24.4017L531.389 27.4004L531.3 24.4017ZM511.778 25.4322L512.01 28.4231L511.778 25.4322ZM511.07 25.4873L510.837 22.4963L511.07 25.4873ZM510.362 25.5423L510.594 28.5333L510.362 25.5423ZM491.555 24.9872L491.962 22.0149L491.555 24.9872ZM471.33 24.5701L470.994 21.5891L471.33 24.5701ZM470.622 24.6501L470.959 27.6311L470.622 24.6501ZM469.914 24.7302L470.251 27.7112L469.914 24.7302ZM451.104 24.6662L451.461 21.6876L451.104 24.6662ZM450.396 24.5814L450.039 27.56L450.396 24.5814ZM449.689 24.4965L450.046 21.5179L449.689 24.4965ZM430.885 23.6326L430.969 26.6314L430.885 23.6326ZM410.666 23.2786L410.457 26.2713L410.666 23.2786ZM409.959 23.2292L410.168 20.2365L409.959 23.2292ZM409.251 23.1797L409.461 20.187L409.251 23.1797ZM390.431 23.9444L389.983 20.9779L390.431 23.9444ZM389.722 24.0514L390.17 27.0178L389.722 24.0514ZM389.013 24.1584L388.565 21.192L389.013 24.1584ZM370.203 24.0425L370.688 21.0819L370.203 24.0425ZM368.79 23.811L368.305 26.7716L368.79 23.811ZM349.987 23.5296L349.59 20.5559L349.987 23.5296ZM349.278 23.6241L349.675 26.5978L349.278 23.6241ZM348.569 23.7187L348.173 20.7451L348.569 23.7187ZM329.752 24.0074L330.059 21.0232L329.752 24.0074ZM329.045 23.9346L328.738 26.9189L329.045 23.9346ZM328.337 23.8618L328.644 20.8776L328.337 23.8618ZM309.546 22.5146L309.667 19.517L309.546 22.5146ZM308.839 22.486L308.718 25.4835L308.839 22.486ZM308.133 22.4574L308.254 19.4598V19.4598L308.133 22.4574ZM289.318 22.8082L289.55 25.7993L289.318 22.8082ZM287.899 22.9182L287.667 19.9272L287.899 22.9182ZM268.378 23.8392L268.435 26.8386L268.378 23.8392ZM267.672 23.8525L267.728 26.852L267.672 23.8525ZM248.868 24.2074L248.925 27.2068L248.868 24.2074ZM228.616 23.3804L228.943 20.3982L228.616 23.3804ZM208.388 23.2378L208.057 20.2561L208.388 23.2378ZM206.974 23.395L207.306 26.3766L206.974 23.395ZM188.19 24.705L188.275 27.7038L188.19 24.705ZM187.483 24.725L187.398 21.7262L187.483 24.725ZM186.776 24.745L186.861 27.7438L186.776 24.745ZM167.965 23.93L168.306 20.9495L167.965 23.93ZM166.547 23.7673L166.888 20.7868L166.547 23.7673ZM147.738 23.8785L148.116 26.8546L147.738 23.8785ZM146.325 24.0579L145.947 21.0818L146.325 24.0579ZM127.56 25.3231L127.583 28.323L127.56 25.3231ZM126.854 25.3286L126.877 28.3285L126.854 25.3286ZM107.364 24.6355L107.119 27.6254L107.364 24.6355ZM105.948 24.5193L106.193 21.5293L105.948 24.5193ZM87.1423 23.9024L87.1918 26.902L87.1423 23.9024ZM86.4349 23.9141L86.3854 20.9145L86.4349 23.9141ZM85.7275 23.9258L85.777 26.9254L85.7275 23.9258ZM66.9005 24.8997L67.16 27.8884L66.9005 24.8997ZM66.1907 24.9613L65.9312 21.9726L66.1907 24.9613ZM65.481 25.0229L65.7405 28.0117L65.481 25.0229ZM46.6767 25.0296L46.9356 22.0408L46.6767 25.0296ZM45.971 24.9685L45.7122 27.9573L45.971 24.9685ZM45.2654 24.9074L45.5243 21.9186L45.2654 24.9074ZM32.6862 23.8242L32.9391 20.8348L32.6862 23.8242ZM32.445 23.8037L32.187 26.7926L32.192 26.7931L32.445 23.8037ZM29.0999 23.5149L29.358 20.526L29.2696 20.5184L29.1809 20.516L29.0999 23.5149ZM29.0809 20.5133C27.4247 20.4686 26.0458 21.7749 26.001 23.4312C25.9563 25.0874 27.2627 26.4664 28.9189 26.5111L28.9999 23.5122L29.0809 20.5133ZM602.012 23.5122L601.913 20.5138L601.814 20.5171L601.912 23.5155L602.011 26.5138L602.11 26.5106L602.012 23.5122ZM601.912 23.5155L601.977 20.5162L600.569 20.4855L600.504 23.4848L600.438 26.4841L601.847 26.5147L601.912 23.5155ZM600.504 23.4848L600.569 20.4855C588.086 20.2135 578.659 20.1589 572.32 20.3263L572.4 23.3253L572.479 26.3242C578.668 26.1608 587.977 26.2126 600.438 26.4841L600.504 23.4848ZM572.4 23.3253L572.32 20.3263L571.613 20.345L571.692 23.344L571.771 26.3429L572.479 26.3242L572.4 23.3253ZM571.692 23.344L571.613 20.345L570.906 20.3637L570.985 23.3626L571.064 26.3616L571.771 26.3429L571.692 23.344ZM570.985 23.3626L570.906 20.3637C564.644 20.529 558.387 20.688 552.135 20.8405L552.209 23.8396L552.282 26.8387C558.538 26.6861 564.798 26.5271 571.064 26.3616L570.985 23.3626ZM552.209 23.8396L552.135 20.8405L551.429 20.8577L551.502 23.8568L551.576 26.8559L552.282 26.8387L552.209 23.8396ZM551.502 23.8568L551.429 20.8577L550.723 20.875L550.796 23.8741L550.87 26.8732L551.576 26.8559L551.502 23.8568ZM550.796 23.8741L550.723 20.875C544.464 21.0277 538.196 21.1967 531.919 21.3821L532.008 24.3808L532.097 27.3795C538.363 27.1944 544.621 27.0256 550.87 26.8732L550.796 23.8741ZM532.008 24.3808L531.919 21.3821L531.211 21.403L531.3 24.4017L531.389 27.4004L532.097 27.3795L532.008 24.3808ZM531.3 24.4017L531.211 21.403L530.503 21.4239L530.592 24.4226L530.68 27.4213L531.389 27.4004L531.3 24.4017ZM530.592 24.4226L530.503 21.4239C524.183 21.6106 517.864 21.9497 511.545 22.4412L511.778 25.4322L512.01 28.4231C518.234 27.9391 524.457 27.6051 530.68 27.4213L530.592 24.4226ZM511.778 25.4322L511.545 22.4412L510.837 22.4963L511.07 25.4873L511.302 28.4782L512.01 28.4231L511.778 25.4322ZM511.07 25.4873L510.837 22.4963L510.129 22.5514L510.362 25.5423L510.594 28.5333L511.302 28.4782L511.07 25.4873ZM510.362 25.5423L510.129 22.5514C504.072 23.0225 498.018 22.8439 491.962 22.0149L491.555 24.9872L491.148 27.9594C497.626 28.8462 504.109 29.0378 510.594 28.5333L510.362 25.5423ZM491.555 24.9872L491.962 22.0149L491.255 21.918L490.848 24.8903L490.441 27.8626L491.148 27.9594L491.555 24.9872ZM490.848 24.8903L491.255 21.918L490.547 21.8212L490.14 24.7934L489.733 27.7657L490.441 27.8626L490.848 24.8903ZM490.14 24.7934L490.547 21.8212C484.035 20.9296 477.515 20.8521 470.994 21.5891L471.33 24.5701L471.667 27.5511C477.693 26.8701 483.713 26.9415 489.733 27.7657L490.14 24.7934ZM471.33 24.5701L470.994 21.5891L470.285 21.6691L470.622 24.6501L470.959 27.6311L471.667 27.5511L471.33 24.5701ZM470.622 24.6501L470.285 21.6691L469.577 21.7492L469.914 24.7302L470.251 27.7112L470.959 27.6311L470.622 24.6501ZM469.914 24.7302L469.577 21.7492C463.534 22.4321 457.497 22.4116 451.461 21.6876L451.104 24.6662L450.746 27.6449C457.244 28.4242 463.747 28.4463 470.251 27.7112L469.914 24.7302ZM451.104 24.6662L451.461 21.6876L450.753 21.6027L450.396 24.5814L450.039 27.56L450.746 27.6449L451.104 24.6662ZM450.396 24.5814L450.753 21.6027L450.046 21.5179L449.689 24.4965L449.331 27.4752L450.039 27.56L450.396 24.5814ZM449.689 24.4965L450.046 21.5179C443.634 20.7488 437.218 20.454 430.801 20.6338L430.885 23.6326L430.969 26.6314C437.09 26.4599 443.21 26.741 449.331 27.4752L449.689 24.4965ZM430.885 23.6326L430.801 20.6338L430.093 20.6536L430.177 23.6524L430.261 26.6512L430.969 26.6314L430.885 23.6326ZM430.177 23.6524L430.093 20.6536L429.385 20.6734L429.469 23.6722L429.553 26.6711L430.261 26.6512L430.177 23.6524ZM429.469 23.6722L429.385 20.6734C423.214 20.8463 417.045 20.7172 410.876 20.2859L410.666 23.2786L410.457 26.2713C416.821 26.7162 423.187 26.8495 429.553 26.6711L429.469 23.6722ZM410.666 23.2786L410.876 20.2859L410.168 20.2365L409.959 23.2292L409.75 26.2219L410.457 26.2713L410.666 23.2786ZM409.959 23.2292L410.168 20.2365L409.461 20.187L409.251 23.1797L409.042 26.1724L409.75 26.2219L409.959 23.2292ZM409.251 23.1797L409.461 20.187C402.973 19.7334 396.479 19.9977 389.983 20.9779L390.431 23.9444L390.879 26.9108C396.944 25.9954 402.998 25.7498 409.042 26.1724L409.251 23.1797ZM390.431 23.9444L389.983 20.9779L389.274 21.085L389.722 24.0514L390.17 27.0178L390.879 26.9108L390.431 23.9444ZM389.722 24.0514L389.274 21.085L388.565 21.192L389.013 24.1584L389.461 27.1248L390.17 27.0178L389.722 24.0514ZM389.013 24.1584L388.565 21.192C382.593 22.0932 376.638 22.0564 370.688 21.0819L370.203 24.0425L369.718 27.003C376.287 28.0788 382.871 28.1192 389.461 27.1248L389.013 24.1584ZM370.203 24.0425L370.688 21.0819L369.982 20.9662L369.497 23.9267L369.012 26.8873L369.718 27.003L370.203 24.0425ZM369.497 23.9267L369.982 20.9662L369.275 20.8504L368.79 23.811L368.305 26.7716L369.012 26.8873L369.497 23.9267ZM368.79 23.811L369.275 20.8504C362.725 19.7777 356.16 19.6793 349.59 20.5559L349.987 23.5296L350.383 26.5032C356.366 25.7049 362.337 25.7941 368.305 26.7716L368.79 23.811ZM349.987 23.5296L349.59 20.5559L348.881 20.6505L349.278 23.6241L349.675 26.5978L350.383 26.5032L349.987 23.5296ZM349.278 23.6241L348.881 20.6505L348.173 20.7451L348.569 23.7187L348.966 26.6923L349.675 26.5978L349.278 23.6241ZM348.569 23.7187L348.173 20.7451C342.129 21.5516 336.092 21.644 330.059 21.0232L329.752 24.0074L329.445 26.9917C335.949 27.6609 342.458 27.5608 348.966 26.6923L348.569 23.7187ZM329.752 24.0074L330.059 21.0232L329.352 20.9504L329.045 23.9346L328.738 26.9189L329.445 26.9917L329.752 24.0074ZM329.045 23.9346L329.352 20.9504L328.644 20.8776L328.337 23.8618L328.03 26.846L328.738 26.9189L329.045 23.9346ZM328.337 23.8618L328.644 20.8776C322.314 20.2262 315.989 19.7727 309.667 19.517L309.546 22.5146L309.425 25.5121C315.621 25.7627 321.823 26.2074 328.03 26.846L328.337 23.8618ZM309.546 22.5146L309.667 19.517L308.961 19.4884L308.839 22.486L308.718 25.4835L309.425 25.5121L309.546 22.5146ZM308.839 22.486L308.961 19.4884L308.254 19.4598L308.133 22.4574L308.012 25.4549L308.718 25.4835L308.839 22.486ZM308.133 22.4574L308.254 19.4598C301.877 19.2019 295.487 19.3211 289.086 19.8172L289.318 22.8082L289.55 25.7993C295.717 25.3213 301.871 25.2066 308.012 25.4549L308.133 22.4574ZM289.318 22.8082L289.086 19.8172L288.376 19.8722L288.608 22.8632L288.84 25.8543L289.55 25.7993L289.318 22.8082ZM288.608 22.8632L288.376 19.8722L287.667 19.9272L287.899 22.9182L288.131 25.9093L288.84 25.8543L288.608 22.8632ZM287.899 22.9182L287.667 19.9272C281.44 20.4098 275.228 20.7095 269.028 20.8264L269.085 23.8258L269.141 26.8253C275.458 26.7062 281.788 26.4008 288.131 25.9093L287.899 22.9182ZM269.085 23.8258L269.028 20.8264L268.322 20.8397L268.378 23.8392L268.435 26.8386L269.141 26.8253L269.085 23.8258ZM268.378 23.8392L268.322 20.8397L267.615 20.853L267.672 23.8525L267.728 26.852L268.435 26.8386L268.378 23.8392ZM267.672 23.8525L267.615 20.853C261.357 20.971 255.089 21.0893 248.811 21.2079L248.868 24.2074L248.925 27.2068C255.202 27.0882 261.47 26.97 267.728 26.852L267.672 23.8525ZM248.868 24.2074L248.811 21.2079L248.102 21.2213L248.159 24.2207L248.216 27.2202L248.925 27.2068L248.868 24.2074ZM248.159 24.2207L248.102 21.2213L247.394 21.2347L247.45 24.2341L247.507 27.2336L248.216 27.2202L248.159 24.2207ZM247.45 24.2341L247.394 21.2347C241.245 21.3508 235.095 21.0721 228.943 20.3982L228.616 23.3804L228.289 26.3625C234.694 27.0641 241.1 27.3546 247.507 27.2336L247.45 24.2341ZM228.616 23.3804L228.943 20.3982L228.234 20.3206L227.907 23.3027L227.581 26.2849L228.289 26.3625L228.616 23.3804ZM227.907 23.3027L228.234 20.3206L227.525 20.2429L227.198 23.2251L226.872 26.2072L227.581 26.2849L227.907 23.3027ZM227.198 23.2251L227.525 20.2429C221.029 19.5313 214.538 19.5355 208.057 20.2561L208.388 23.2378L208.72 26.2194C214.762 25.5476 220.812 25.5434 226.872 26.2072L227.198 23.2251ZM208.388 23.2378L208.057 20.2561L207.35 20.3347L207.681 23.3164L208.013 26.298L208.72 26.2194L208.388 23.2378ZM207.681 23.3164L207.35 20.3347L206.643 20.4133L206.974 23.395L207.306 26.3766L208.013 26.298L207.681 23.3164ZM206.974 23.395L206.643 20.4133C200.463 21.1005 194.284 21.5314 188.105 21.7062L188.19 24.705L188.275 27.7038C194.619 27.5243 200.963 27.0819 207.306 26.3766L206.974 23.395ZM188.19 24.705L188.105 21.7062L187.398 21.7262L187.483 24.725L187.568 27.7238L188.275 27.7038L188.19 24.705ZM187.483 24.725L187.398 21.7262L186.691 21.7462L186.776 24.745L186.861 27.7438L187.568 27.7238L187.483 24.725ZM186.776 24.745L186.691 21.7462C180.574 21.9192 174.446 21.6539 168.306 20.9495L167.965 23.93L167.623 26.9104C174.043 27.647 180.456 27.925 186.861 27.7438L186.776 24.745ZM167.965 23.93L168.306 20.9495L167.597 20.8682L167.256 23.8486L166.914 26.8291L167.623 26.9104L167.965 23.93ZM167.256 23.8486L167.597 20.8682L166.888 20.7868L166.547 23.7673L166.205 26.7477L166.914 26.8291L167.256 23.8486ZM166.547 23.7673L166.888 20.7868C160.37 20.039 153.859 20.0774 147.36 20.9024L147.738 23.8785L148.116 26.8546C154.136 26.0904 160.163 26.0547 166.205 26.7477L166.547 23.7673ZM147.738 23.8785L147.36 20.9024L146.653 20.9921L147.031 23.9682L147.409 26.9443L148.116 26.8546L147.738 23.8785ZM147.031 23.9682L146.653 20.9921L145.947 21.0818L146.325 24.0579L146.702 27.034L147.409 26.9443L147.031 23.9682ZM146.325 24.0579L145.947 21.0818C139.804 21.8616 133.668 22.2753 127.536 22.3232L127.56 25.3231L127.583 28.323C133.954 28.2732 140.327 27.8434 146.702 27.034L146.325 24.0579ZM127.56 25.3231L127.536 22.3232L126.83 22.3287L126.854 25.3286L126.877 28.3285L127.583 28.323L127.56 25.3231ZM126.854 25.3286L126.83 22.3287L126.125 22.3342L126.148 25.3341L126.172 28.334L126.877 28.3285L126.854 25.3286ZM126.148 25.3341L126.125 22.3342C119.964 22.3824 113.792 22.1529 107.609 21.6455L107.364 24.6355L107.119 27.6254C113.479 28.1473 119.83 28.3836 126.172 28.334L126.148 25.3341ZM107.364 24.6355L107.609 21.6455L106.901 21.5874L106.656 24.5774L106.411 27.5673L107.119 27.6254L107.364 24.6355ZM106.656 24.5774L106.901 21.5874L106.193 21.5293L105.948 24.5193L105.703 27.5092L106.411 27.5673L106.656 24.5774ZM105.948 24.5193L106.193 21.5293C99.8239 21.0067 93.4569 20.7978 87.0927 20.9028L87.1423 23.9024L87.1918 26.902C93.3583 26.8003 99.5285 27.0026 105.703 27.5092L105.948 24.5193ZM87.1423 23.9024L87.0927 20.9028L86.3854 20.9145L86.4349 23.9141L86.4844 26.9137L87.1918 26.902L87.1423 23.9024ZM86.4349 23.9141L86.3854 20.9145L85.678 20.9262L85.7275 23.9258L85.777 26.9254L86.4844 26.9137L86.4349 23.9141ZM85.7275 23.9258L85.678 20.9262C79.342 21.0308 72.9963 21.359 66.6409 21.9109L66.9005 24.8997L67.16 27.8884C73.3766 27.3486 79.5822 27.0276 85.777 26.9254L85.7275 23.9258ZM66.9005 24.8997L66.6409 21.9109L65.9312 21.9726L66.1907 24.9613L66.4503 27.9501L67.16 27.8884L66.9005 24.8997ZM66.1907 24.9613L65.9312 21.9726L65.2215 22.0342L65.481 25.0229L65.7405 28.0117L66.4503 27.9501L66.1907 24.9613ZM65.481 25.0229L65.2215 22.0342C59.1069 22.5652 53.0123 22.5672 46.9356 22.0408L46.6767 25.0296L46.4178 28.0184C52.8415 28.5749 59.283 28.5724 65.7405 28.0117L65.481 25.0229ZM46.6767 25.0296L46.9356 22.0408L46.2299 21.9797L45.971 24.9685L45.7122 27.9573L46.4178 28.0184L46.6767 25.0296ZM45.971 24.9685L46.2299 21.9797L45.5243 21.9186L45.2654 24.9074L45.0065 27.8962L45.7122 27.9573L45.971 24.9685ZM45.2654 24.9074L45.5243 21.9186C39.2745 21.3772 35.0786 21.0159 32.9391 20.8348L32.6862 23.8242L32.4332 26.8135C34.5657 26.9939 38.7559 27.3548 45.0065 27.8962L45.2654 24.9074ZM32.6862 23.8242L32.9391 20.8348L32.698 20.8144L32.445 23.8037L32.192 26.7931L32.4332 26.8135L32.6862 23.8242ZM32.445 23.8037L32.7031 20.8149L29.358 20.526L29.0999 23.5149L28.8418 26.5038L32.187 26.7926L32.445 23.8037ZM29.0999 23.5149L29.1809 20.516L29.0809 20.5133L28.9999 23.5122L28.9189 26.5111L29.0189 26.5138L29.0999 23.5149Z" fill="black"/>
<path d="M606.3 601.615C607.949 601.452 609.153 599.983 608.991 598.334C608.828 596.686 607.359 595.481 605.71 595.644L606.005 598.629L606.3 601.615ZM605.906 598.639L606.045 601.636L606.123 601.632L606.2 601.624L605.906 598.639ZM604.5 598.705L604.64 601.701L604.5 598.705ZM575.755 600.254L575.957 603.247L575.755 600.254ZM556.319 601.377L556.461 604.373L556.319 601.377ZM554.909 601.443L555.051 604.44L554.909 601.443ZM534.722 602.32L534.841 605.318L534.722 602.32ZM515.914 603.44L516.15 606.431L515.914 603.44ZM515.206 603.496L514.969 600.505L515.206 603.496ZM514.498 603.552L514.735 606.543L514.498 603.552ZM495.698 602.956L496.121 599.986L495.698 602.956ZM494.991 602.855L494.567 605.825L494.991 602.855ZM494.283 602.754L494.707 599.784L494.283 602.754ZM475.469 602.376L475.774 605.361L475.469 602.376ZM474.052 602.521L473.747 599.536L474.052 602.521ZM435.046 600.857L435.077 603.857L435.046 600.857ZM433.63 600.871L433.661 603.871L433.63 600.871ZM414.843 600.128L415.111 597.14L414.843 600.128ZM393.177 600.569L393.563 603.544L393.177 600.569ZM372.965 599.797L373.512 596.848L372.965 599.797ZM354.171 599.121L354.506 602.102L354.171 599.121ZM353.461 599.201L353.126 596.219L353.461 599.201ZM352.75 599.281L353.085 602.262L352.75 599.281ZM333.933 599.189L333.567 602.167L333.933 599.189ZM332.521 599.016L332.886 596.038L332.521 599.016ZM313.746 597.321L313.92 594.326L313.746 597.321ZM313.039 597.28L312.866 600.275L313.039 597.28ZM312.332 597.239L312.505 594.244L312.332 597.239ZM293.518 597.294L293.328 594.3L293.518 597.294ZM292.809 597.339L293 600.333L292.809 597.339ZM292.1 597.384L291.91 594.39L292.1 597.384ZM273.277 598.071L273.306 601.071L273.277 598.071ZM253.053 598.327L253.102 601.327L253.053 598.327ZM252.345 598.339L252.296 595.339L252.345 598.339ZM251.637 598.35L251.686 601.35L251.637 598.35ZM232.829 597.54L233.135 594.555L232.829 597.54ZM232.121 597.467L231.815 600.451L232.121 597.467ZM231.414 597.394L231.72 594.41L231.414 597.394ZM212.659 597.677L213.056 600.65L212.659 597.677ZM211.955 597.77L211.559 594.797L211.955 597.77ZM211.251 597.864L210.855 594.89L211.251 597.864ZM192.527 599.771L192.737 602.763L192.527 599.771ZM191.116 599.87L190.905 596.877L191.116 599.87ZM172.275 599.833L172.055 602.825L172.275 599.833ZM171.563 599.78L171.783 596.789L171.563 599.78ZM170.85 599.728L170.63 602.72L170.85 599.728ZM152.053 600.531L152.529 603.493L152.053 600.531ZM151.351 600.644L150.875 597.682L151.351 600.644ZM150.649 600.757L151.125 603.719L150.649 600.757ZM131.893 602.55L131.987 605.549L131.893 602.55ZM111.642 602.214L111.428 605.206L111.642 602.214ZM110.934 602.163L111.148 599.171L110.934 602.163ZM110.226 602.112L110.012 605.105L110.226 602.112ZM91.4412 601.526L91.4692 604.526L91.4412 601.526ZM90.0294 601.54L90.0013 598.54L90.0294 601.54ZM71.1999 602.136L71.0386 599.14L71.1999 602.136ZM70.4885 602.174L70.6499 605.17L70.4885 602.174ZM69.7772 602.213L69.6158 599.217L69.7772 602.213ZM51.0082 601.312L51.4568 598.346L51.0082 601.312ZM49.6054 601.1L49.1568 604.067L49.6054 601.1ZM35.5027 599.91L35.3655 596.913L35.5027 599.91ZM35.1426 599.927L35.2798 602.923L35.1426 599.927ZM34.7825 599.943L34.6453 596.946L34.7825 599.943ZM29.9982 599.395L27.0238 599.005L26.9982 599.199L26.9982 599.395L29.9982 599.395ZM30.0979 598.636L33.0724 599.027L33.4829 595.902L30.3413 595.646L30.0979 598.636ZM30.2416 595.638C28.5903 595.504 27.1426 596.734 27.0081 598.385C26.8737 600.036 28.1035 601.484 29.7548 601.618L29.9982 598.628L30.2416 595.638ZM606.005 598.629L605.71 595.644L605.611 595.653L605.906 598.639L606.2 601.624L606.3 601.615L606.005 598.629ZM605.906 598.639L605.766 595.642L604.36 595.708L604.5 598.705L604.64 601.701L606.045 601.636L605.906 598.639ZM604.5 598.705L604.36 595.708C591.905 596.289 582.533 596.79 576.258 597.213L576.46 600.206L576.662 603.2C582.872 602.781 592.194 602.282 604.64 601.701L604.5 598.705ZM576.46 600.206L576.258 597.213L575.553 597.261L575.755 600.254L575.957 603.247L576.662 603.2L576.46 600.206ZM575.755 600.254L575.553 597.261L574.849 597.308L575.05 600.301L575.252 603.295L575.957 603.247L575.755 600.254ZM575.05 600.301L574.849 597.308C568.626 597.728 562.402 598.085 556.177 598.38L556.319 601.377L556.461 604.373C562.726 604.076 568.989 603.717 575.252 603.295L575.05 600.301ZM556.319 601.377L556.177 598.38L555.472 598.413L555.614 601.41L555.756 604.407L556.461 604.373L556.319 601.377ZM555.614 601.41L555.472 598.413L554.767 598.447L554.909 601.443L555.051 604.44L555.756 604.407L555.614 601.41ZM554.909 601.443L554.767 598.447C548.529 598.742 542.28 599.016 536.017 599.266L536.137 602.264L536.257 605.261C542.534 605.01 548.799 604.736 555.051 604.44L554.909 601.443ZM536.137 602.264L536.017 599.266L535.309 599.294L535.429 602.292L535.549 605.29L536.257 605.261L536.137 602.264ZM535.429 602.292L535.309 599.294L534.602 599.323L534.722 602.32L534.841 605.318L535.549 605.29L535.429 602.292ZM534.722 602.32L534.602 599.323C528.293 599.575 521.985 599.951 515.677 600.449L515.914 603.44L516.15 606.431C522.38 605.938 528.611 605.567 534.841 605.318L534.722 602.32ZM515.914 603.44L515.677 600.449L514.969 600.505L515.206 603.496L515.442 606.487L516.15 606.431L515.914 603.44ZM515.206 603.496L514.969 600.505L514.262 600.561L514.498 603.552L514.735 606.543L515.442 606.487L515.206 603.496ZM514.498 603.552L514.262 600.561C508.214 601.04 502.169 600.848 496.121 599.986L495.698 602.956L495.274 605.926C501.756 606.85 508.244 607.056 514.735 606.543L514.498 603.552ZM495.698 602.956L496.121 599.986L495.414 599.885L494.991 602.855L494.567 605.825L495.274 605.926L495.698 602.956ZM494.991 602.855L495.414 599.885L494.707 599.784L494.283 602.754L493.86 605.724L494.567 605.825L494.991 602.855ZM494.283 602.754L494.707 599.784C488.202 598.857 481.686 598.726 475.165 599.392L475.469 602.376L475.774 605.361C481.809 604.744 487.836 604.865 493.86 605.724L494.283 602.754ZM475.469 602.376L475.165 599.392L474.456 599.464L474.761 602.448L475.065 605.433L475.774 605.361L475.469 602.376ZM474.761 602.448L474.456 599.464L473.747 599.536L474.052 602.521L474.357 605.505L475.065 605.433L474.761 602.448ZM474.052 602.521L473.747 599.536C467.704 600.153 461.673 600.056 455.649 599.243L455.248 602.216L454.847 605.189C461.339 606.065 467.844 606.17 474.357 605.505L474.052 602.521ZM455.248 602.216L455.649 599.243L454.943 599.148L454.542 602.121L454.141 605.094L454.847 605.189L455.248 602.216ZM454.542 602.121L454.943 599.148L454.236 599.052L453.835 602.025L453.434 604.998L454.141 605.094L454.542 602.121ZM453.835 602.025L454.236 599.052C447.836 598.189 441.429 597.79 435.014 597.857L435.046 600.857L435.077 603.857C441.2 603.793 447.319 604.174 453.434 604.998L453.835 602.025ZM435.046 600.857L435.014 597.857L434.307 597.864L434.338 600.864L434.369 603.864L435.077 603.857L435.046 600.857ZM434.338 600.864L434.307 597.864L433.599 597.872L433.63 600.871L433.661 603.871L434.369 603.864L434.338 600.864ZM433.63 600.871L433.599 597.872C427.43 597.936 421.268 597.692 415.111 597.14L414.843 600.128L414.575 603.116C420.93 603.685 427.292 603.937 433.661 603.871L433.63 600.871ZM414.843 600.128L415.111 597.14L414.405 597.076L414.137 600.064L413.869 603.052L414.575 603.116L414.843 600.128ZM414.137 600.064L414.405 597.076L413.699 597.013L413.431 600.001L413.163 602.989L413.869 603.052L414.137 600.064ZM413.431 600.001L413.699 597.013C407.223 596.432 400.726 596.565 394.213 597.41L394.599 600.385L394.985 603.36C401.07 602.571 407.127 602.448 413.163 602.989L413.431 600.001ZM394.599 600.385L394.213 597.41L393.502 597.502L393.888 600.477L394.274 603.452L394.985 603.36L394.599 600.385ZM393.888 600.477L393.502 597.502L392.791 597.594L393.177 600.569L393.563 603.544L394.274 603.452L393.888 600.477ZM393.177 600.569L392.791 597.594C386.803 598.371 380.85 598.209 374.92 597.109L374.373 600.059L373.826 603.008C380.371 604.223 386.954 604.402 393.563 603.544L393.177 600.569ZM374.373 600.059L374.92 597.109L374.216 596.978L373.669 599.928L373.121 602.877L373.826 603.008L374.373 600.059ZM373.669 599.928L374.216 596.978L373.512 596.848L372.965 599.797L372.417 602.747L373.121 602.877L373.669 599.928ZM372.965 599.797L373.512 596.848C366.984 595.636 360.423 595.4 353.836 596.14L354.171 599.121L354.506 602.102C360.503 601.429 366.47 601.643 372.417 602.747L372.965 599.797ZM354.171 599.121L353.836 596.14L353.126 596.219L353.461 599.201L353.796 602.182L354.506 602.102L354.171 599.121ZM353.461 599.201L353.126 596.219L352.416 596.299L352.75 599.281L353.085 602.262L353.796 602.182L353.461 599.201ZM352.75 599.281L352.416 596.299C346.356 596.98 340.318 596.951 334.298 596.212L333.933 599.189L333.567 602.167C340.055 602.963 346.562 602.995 353.085 602.262L352.75 599.281ZM333.933 599.189L334.298 596.212L333.592 596.125L333.227 599.103L332.861 602.08L333.567 602.167L333.933 599.189ZM333.227 599.103L333.592 596.125L332.886 596.038L332.521 599.016L332.155 601.994L332.861 602.08L333.227 599.103ZM332.521 599.016L332.886 596.038C326.569 595.263 320.247 594.692 313.92 594.326L313.746 597.321L313.573 600.316C319.771 600.675 325.965 601.234 332.155 601.994L332.521 599.016ZM313.746 597.321L313.92 594.326L313.213 594.285L313.039 597.28L312.866 600.275L313.573 600.316L313.746 597.321ZM313.039 597.28L313.213 594.285L312.505 594.244L312.332 597.239L312.159 600.234L312.866 600.275L313.039 597.28ZM312.332 597.239L312.505 594.244C306.121 593.875 299.729 593.893 293.328 594.3L293.518 597.294L293.708 600.288C299.868 599.897 306.018 599.879 312.159 600.234L312.332 597.239ZM293.518 597.294L293.328 594.3L292.619 594.345L292.809 597.339L293 600.333L293.708 600.288L293.518 597.294ZM292.809 597.339L292.619 594.345L291.91 594.39L292.1 597.384L292.29 600.378L293 600.333L292.809 597.339ZM292.1 597.384L291.91 594.39C285.684 594.785 279.464 595.012 273.249 595.071L273.277 598.071L273.306 601.071C279.629 601.011 285.957 600.78 292.29 600.378L292.1 597.384ZM273.277 598.071L273.249 595.071L272.541 595.078L272.57 598.078L272.598 601.077L273.306 601.071L273.277 598.071ZM272.57 598.078L272.541 595.078L271.833 595.084L271.862 598.084L271.89 601.084L272.598 601.077L272.57 598.078ZM271.862 598.084L271.833 595.084C265.558 595.144 259.281 595.225 253.004 595.328L253.053 598.327L253.102 601.327C259.365 601.224 265.628 601.144 271.89 601.084L271.862 598.084ZM253.053 598.327L253.004 595.328L252.296 595.339L252.345 598.339L252.394 601.338L253.102 601.327L253.053 598.327ZM252.345 598.339L252.296 595.339L251.588 595.351L251.637 598.35L251.686 601.35L252.394 601.338L252.345 598.339ZM251.637 598.35L251.588 595.351C245.436 595.451 239.286 595.186 233.135 594.555L232.829 597.54L232.523 600.524C238.908 601.179 245.296 601.454 251.686 601.35L251.637 598.35ZM232.829 597.54L233.135 594.555L232.427 594.483L232.121 597.467L231.815 600.451L232.523 600.524L232.829 597.54ZM232.121 597.467L232.427 594.483L231.72 594.41L231.414 597.394L231.107 600.379L231.815 600.451L232.121 597.467ZM231.414 597.394L231.72 594.41C225.219 593.743 218.731 593.841 212.263 594.703L212.659 597.677L213.056 600.65C219.057 599.85 225.073 599.76 231.107 600.379L231.414 597.394ZM212.659 597.677L212.263 594.703L211.559 594.797L211.955 597.77L212.352 600.744L213.056 600.65L212.659 597.677ZM211.955 597.77L211.559 594.797L210.855 594.89L211.251 597.864L211.648 600.838L212.352 600.744L211.955 597.77ZM211.251 597.864L210.855 594.89C204.681 595.713 198.502 596.343 192.316 596.778L192.527 599.771L192.737 602.763C199.048 602.319 205.351 601.677 211.648 600.838L211.251 597.864ZM192.527 599.771L192.316 596.778L191.61 596.828L191.821 599.82L192.032 602.813L192.737 602.763L192.527 599.771ZM191.821 599.82L191.61 596.828L190.905 596.877L191.116 599.87L191.326 602.863L192.032 602.813L191.821 599.82ZM191.116 599.87L190.905 596.877C184.802 597.307 178.666 597.295 172.496 596.841L172.275 599.833L172.055 602.825C178.509 603.3 184.933 603.313 191.326 602.863L191.116 599.87ZM172.275 599.833L172.496 596.841L171.783 596.789L171.563 599.78L171.343 602.772L172.055 602.825L172.275 599.833ZM171.563 599.78L171.783 596.789L171.07 596.736L170.85 599.728L170.63 602.72L171.343 602.772L171.563 599.78ZM170.85 599.728L171.07 596.736C164.527 596.255 158.027 596.532 151.577 597.569L152.053 600.531L152.529 603.493C158.517 602.53 164.549 602.272 170.63 602.72L170.85 599.728ZM152.053 600.531L151.577 597.569L150.875 597.682L151.351 600.644L151.827 603.606L152.529 603.493L152.053 600.531ZM151.351 600.644L150.875 597.682L150.172 597.795L150.649 600.757L151.125 603.719L151.827 603.606L151.351 600.644ZM150.649 600.757L150.172 597.795C144.08 598.775 137.956 599.36 131.8 599.551L131.893 602.55L131.987 605.549C138.399 605.349 144.779 604.739 151.125 603.719L150.649 600.757ZM131.893 602.55L131.8 599.551L131.091 599.574L131.184 602.572L131.277 605.571L131.987 605.549L131.893 602.55ZM131.184 602.572L131.091 599.574L130.381 599.596L130.474 602.594L130.568 605.593L131.277 605.571L131.184 602.572ZM130.474 602.594L130.381 599.596C124.199 599.788 118.025 599.663 111.856 599.221L111.642 602.214L111.428 605.206C117.801 605.662 124.181 605.791 130.568 605.593L130.474 602.594ZM111.642 602.214L111.856 599.221L111.148 599.171L110.934 602.163L110.72 605.155L111.428 605.206L111.642 602.214ZM110.934 602.163L111.148 599.171L110.44 599.12L110.226 602.112L110.012 605.105L110.72 605.155L110.934 602.163ZM110.226 602.112L110.44 599.12C104.089 598.665 97.7469 598.467 91.4132 598.526L91.4412 601.526L91.4692 604.526C97.6404 604.469 103.821 604.661 110.012 605.105L110.226 602.112ZM91.4412 601.526L91.4132 598.526L90.7073 598.533L90.7353 601.533L90.7632 604.533L91.4692 604.526L91.4412 601.526ZM90.7353 601.533L90.7073 598.533L90.0013 598.54L90.0294 601.54L90.0573 604.539L90.7632 604.533L90.7353 601.533ZM90.0294 601.54L90.0013 598.54C83.704 598.598 77.383 598.799 71.0386 599.14L71.1999 602.136L71.3613 605.132C77.6177 604.795 83.8497 604.597 90.0573 604.539L90.0294 601.54ZM71.1999 602.136L71.0386 599.14L70.3272 599.179L70.4885 602.174L70.6499 605.17L71.3613 605.132L71.1999 602.136ZM70.4885 602.174L70.3272 599.179L69.6158 599.217L69.7772 602.213L69.9385 605.208L70.6499 605.17L70.4885 602.174ZM69.7772 602.213L69.6158 599.217C63.5183 599.545 57.4664 599.255 51.4568 598.346L51.0082 601.312L50.5595 604.279C56.9744 605.249 63.4352 605.559 69.9385 605.208L69.7772 602.213ZM51.0082 601.312L51.4568 598.346L50.7554 598.24L50.3068 601.206L49.8582 604.173L50.5595 604.279L51.0082 601.312ZM50.3068 601.206L50.7554 598.24L50.054 598.134L49.6054 601.1L49.1568 604.067L49.8582 604.173L50.3068 601.206ZM49.6054 601.1L50.054 598.134C43.796 597.188 38.8585 596.753 35.3655 596.913L35.5027 599.91L35.64 602.907C38.5261 602.775 42.9904 603.134 49.1568 604.067L49.6054 601.1ZM35.5027 599.91L35.3655 596.913L35.0054 596.93L35.1426 599.927L35.2798 602.923L35.64 602.907L35.5027 599.91ZM35.1426 599.927L35.0054 596.93L34.6453 596.946L34.7825 599.943L34.9197 602.94L35.2798 602.923L35.1426 599.927ZM34.7825 599.943L34.6453 596.946C33.0839 597.018 32.0698 597.004 31.5025 596.945C31.1857 596.912 31.2202 596.885 31.4149 596.963C31.5125 597.002 31.8459 597.144 32.1919 597.489C32.5942 597.89 32.9982 598.566 32.9982 599.449L29.9982 599.449L26.9982 599.449C26.9982 601.583 28.8201 602.387 29.1797 602.531C29.773 602.769 30.4055 602.864 30.8861 602.913C31.9136 603.019 33.2917 603.014 34.9197 602.94L34.7825 599.943ZM29.9982 599.449L32.9982 599.449L32.9982 599.395L29.9982 599.395L26.9982 599.395L26.9982 599.449L29.9982 599.449ZM29.9982 599.395L32.9727 599.786L33.0724 599.027L30.0979 598.636L27.1235 598.246L27.0238 599.005L29.9982 599.395ZM30.0979 598.636L30.3413 595.646L30.2416 595.638L29.9982 598.628L29.7548 601.618L29.8545 601.627L30.0979 598.636Z" fill="black"/>
<g filter="url(#filter0_i_48_144)">
<path d="M21.21 539.116C22.0174 545.553 22.2741 551.992 21.9796 558.432L21.9151 559.848C21.6324 566.028 21.6251 572.211 21.8946 578.399L21.9571 579.817C22.2411 586.339 21.7314 592.824 20.4297 599.265L20.1465 600.666C18.9255 606.708 18.2737 612.514 18.1827 618.087L18.1612 619.39C18.1282 621.411 18.1193 623.051 18.1309 624.324L19.128 624.1L18.8926 628.174C18.7982 629.801 17.4227 631.049 15.8028 630.997L15.792 631L15.4278 631C13.9377 630.999 13.1358 629.997 12.9102 629.67C12.6436 629.283 12.5207 628.918 12.4717 628.761C12.3612 628.409 12.3107 628.058 12.2823 627.831C12.2192 627.326 12.1821 626.67 12.1592 625.927C12.1126 624.411 12.1148 622.188 12.1622 619.292L12.1837 617.989C12.2812 612.017 12.978 605.845 14.2647 599.477L14.5479 598.077C15.754 592.109 16.2247 586.11 15.962 580.078L15.9317 579.37L15.9005 578.661C15.6232 572.294 15.6301 565.932 15.921 559.574L15.9854 558.159C16.2643 552.062 16.0221 545.964 15.2569 539.863L15.0792 538.447C14.2832 532.102 13.7359 525.758 13.4376 519.416L13.3712 518.001C13.0717 511.633 13.1031 505.266 13.4659 498.901L13.546 497.487C13.8979 491.312 13.9847 485.135 13.8048 478.956L13.7637 477.541C13.5844 471.381 13.0818 465.217 12.2559 459.049L12.1602 458.341L12.0655 457.633C11.192 451.111 11.1552 444.586 11.9542 438.066L12.0411 437.358L12.127 436.651C12.8789 430.516 13.2226 424.377 13.1573 418.234L13.1417 416.817C13.0759 410.626 12.7466 404.442 12.1524 398.265L12.0157 396.851C11.3926 390.374 11.4721 383.889 12.252 377.4L12.4219 375.983C13.1608 369.836 13.4966 363.697 13.4298 357.563L13.4141 356.148C13.3459 349.884 13.2727 343.62 13.1944 337.354L13.1768 335.939C13.0993 329.732 12.8355 323.519 12.3848 317.3L12.3331 316.592L12.2823 315.883C11.8189 309.49 11.7291 303.098 12.0138 296.711L12.0763 295.295C12.3584 288.962 12.8365 282.636 13.5089 276.316L13.6593 274.903C14.3 268.881 14.2253 262.848 13.4347 256.8L13.2491 255.382C12.3898 248.809 12.5031 242.244 13.588 235.696L13.8223 234.283C14.8078 228.335 14.8535 222.382 13.9591 216.412L13.7462 214.994C12.7732 208.5 12.5134 202.008 12.9688 195.523L13.0684 194.109C13.5014 187.944 13.6297 181.773 13.4532 175.597L13.4122 174.18C13.2286 167.758 13.5169 161.341 14.2755 154.93L14.3595 154.222L14.4425 153.515C15.1566 147.481 15.1644 141.449 14.4649 135.416L14.3009 134.001C13.5459 127.489 13.6004 120.971 14.4649 114.452L14.5587 113.744L14.6534 113.035C15.4573 106.973 15.6062 100.916 15.1007 94.8591L14.9815 93.4421C14.4541 87.124 14.0733 80.817 13.839 74.5212L13.8126 73.8151L13.7872 73.11C13.5544 66.8574 13.3296 60.588 13.1144 54.3024L13.0909 53.5925L13.0665 52.8835C12.8515 46.6058 12.6216 40.343 12.377 34.0954L12.3497 33.3893L12.3214 32.6833C12.0739 26.3607 11.9892 16.9523 12.0626 4.48797L12.0704 3.15593L12.0694 3.14519C11.9891 1.49039 13.2653 0.0840419 14.92 0.00359044C16.5749 -0.0767015 17.9823 1.19932 18.0626 2.85418L18.0675 2.95379L18.0714 3.03582L18.0704 3.11687L18.0626 4.52312C17.9893 16.9669 18.0755 26.2661 18.3175 32.4489L18.3722 33.86C18.6171 40.1176 18.8473 46.3908 19.0626 52.6784L19.1114 54.0964C19.3265 60.3761 19.5498 66.6397 19.7823 72.8864L19.8351 74.2975C20.066 80.5008 20.4412 86.7161 20.961 92.943L21.0206 93.6511L21.0792 94.36C21.6208 100.848 21.4609 107.337 20.6007 113.824L20.4132 115.241C19.6135 121.271 19.5631 127.292 20.2608 133.31L20.4249 134.724C21.1782 141.221 21.1704 147.722 20.4015 154.22L20.2335 155.635C19.5091 161.757 19.2351 167.881 19.4102 174.008L19.4308 174.717L19.4503 175.425C19.6325 181.799 19.5006 188.167 19.0538 194.529L18.9542 195.944C18.5298 201.986 18.771 208.039 19.6798 214.104L19.8927 215.522C20.8799 222.112 20.8294 228.696 19.7413 235.263L19.5069 236.676C18.5182 242.643 18.4155 248.616 19.1983 254.604L19.3839 256.022C20.2354 262.535 20.3162 269.042 19.6251 275.538L19.4747 276.951C18.8153 283.149 18.3471 289.352 18.0704 295.561L18.0079 296.977C17.7337 303.131 17.8201 309.288 18.2667 315.45L18.3175 316.158L18.3692 316.867C18.8285 323.204 19.0978 329.537 19.1768 335.864L19.1944 337.279C19.2727 343.548 19.3458 349.816 19.4141 356.083L19.4298 357.498C19.4995 363.895 19.1488 370.296 18.379 376.7L18.2091 378.117C17.4804 384.179 17.4067 390.231 17.9884 396.277L18.0567 396.984L18.1241 397.691C18.7346 404.037 19.0741 410.391 19.1417 416.753L19.1573 418.17C19.2254 424.579 18.867 430.983 18.0831 437.381L17.9092 438.796C17.1725 444.808 17.207 450.819 18.0128 456.837L18.2022 458.253C19.0555 464.625 19.5753 470.996 19.7608 477.366L19.8018 478.781C19.9867 485.132 19.8989 491.481 19.5372 497.829L19.4962 498.536L19.4561 499.243C19.1052 505.4 19.0746 511.559 19.3643 517.719L19.4307 519.133C19.7216 525.319 20.2556 531.508 21.0323 537.7L21.21 539.116Z" fill="black"/>
</g>
<g filter="url(#filter1_i_48_144)">
<path d="M630.908 217.371C632.024 223.946 632.075 230.533 631.061 237.117L630.843 238.532C629.921 244.515 629.862 250.499 630.664 256.49L630.853 257.907C631.726 264.424 631.797 270.936 631.066 277.437L630.908 278.85C630.211 285.054 629.677 291.259 629.306 297.463L629.264 298.169L629.221 298.876C628.853 305.024 628.818 311.186 629.114 317.36L629.147 318.07L629.182 318.779C629.486 325.128 629.576 331.482 629.452 337.841L629.425 339.261C629.302 345.554 629.171 351.843 629.032 358.129L629.001 359.548C628.86 365.962 628.297 372.338 627.314 378.674L627.098 380.075C626.168 386.066 625.889 392.104 626.261 398.19L626.305 398.901L626.348 399.613C626.738 405.999 626.853 412.365 626.692 418.711L626.674 419.417L626.656 420.124C626.494 426.518 625.899 432.905 624.87 439.283L624.756 439.988L624.643 440.693C623.675 446.692 623.466 452.702 624.017 458.726L624.082 459.435L624.146 460.143C624.729 466.525 624.973 472.901 624.876 479.272L624.854 480.686C624.758 487.027 624.417 493.366 623.833 499.702L623.768 500.409L623.703 501.116C623.136 507.265 622.912 513.416 623.031 519.567L623.059 520.982C623.178 527.161 623.559 533.341 624.2 539.521L624.347 540.935C625.014 547.362 625.153 553.792 624.766 560.222L624.724 560.929L624.681 561.637C624.309 567.801 624.255 573.969 624.519 580.139L624.58 581.555C624.858 588.039 624.457 594.507 623.381 600.956L623.264 601.661L623.145 602.366C622.127 608.47 621.707 613.83 621.854 618.467L621.872 619.018L621.889 619.569C621.938 621.109 621.994 622.382 622.053 623.396L623.051 623.184L623.001 626.94L623 627.04C622.978 628.697 621.617 630.022 619.96 630C619.928 629.999 619.896 629.997 619.864 629.996L619.855 629.998L619.517 629.993L619.486 629.993C618.256 629.975 617.498 629.261 617.202 628.915C616.895 628.556 616.735 628.205 616.665 628.037C616.515 627.678 616.437 627.327 616.395 627.116C616.302 626.645 616.234 626.055 616.179 625.419C616.064 624.112 615.97 622.213 615.892 619.76L615.857 618.657C615.695 613.53 616.162 607.764 617.227 601.379L617.345 600.674L617.463 599.969C618.471 593.927 618.844 587.876 618.585 581.812L618.524 580.395C618.251 574.019 618.307 567.646 618.691 561.276L618.734 560.568L618.776 559.861C619.144 553.758 619.012 547.657 618.379 541.555L618.232 540.14C617.574 533.793 617.182 527.445 617.059 521.097L617.032 519.683C616.909 513.308 617.141 506.936 617.728 500.565L617.794 499.858L617.858 499.151C618.428 492.967 618.761 486.782 618.854 480.595L618.876 479.18C618.969 473.024 618.734 466.86 618.171 460.689L618.042 459.272C617.446 452.745 617.671 446.232 618.719 439.738L618.833 439.033L618.946 438.328C619.932 432.213 620.503 426.094 620.658 419.971L620.676 419.265L620.694 418.558C620.851 412.387 620.739 406.194 620.359 399.979L620.315 399.267L620.272 398.556C619.874 392.043 620.172 385.574 621.168 379.155L621.277 378.455L621.386 377.754C622.328 371.679 622.867 365.567 623.003 359.416L623.034 357.997C623.173 351.716 623.303 345.432 623.426 339.143L623.439 338.433L623.454 337.723C623.576 331.5 623.487 325.281 623.188 319.066L623.154 318.357L623.121 317.648C622.814 311.259 622.851 304.882 623.231 298.517L623.273 297.811L623.316 297.104C623.694 290.795 624.236 284.487 624.945 278.179L625.025 277.473L625.104 276.767C625.78 270.757 625.715 264.737 624.907 258.703L624.718 257.286C623.84 250.726 623.905 244.167 624.913 237.619L625.022 236.911L625.131 236.204C626.047 230.256 626.001 224.317 624.993 218.375L624.753 216.962C623.656 210.496 623.25 204.019 623.536 197.535L623.599 196.119C623.87 189.954 623.82 183.794 623.449 177.64L623.407 176.933L623.364 176.227C622.978 169.826 623.05 163.411 623.58 156.984L623.697 155.565C624.196 149.515 623.982 143.489 623.056 137.484L622.839 136.076C621.838 129.593 621.646 123.078 622.263 116.537L622.329 115.826L622.396 115.116C622.97 109.032 622.894 102.977 622.171 96.949L622.087 96.2449L622.002 95.5398C621.247 89.2485 620.654 82.9507 620.22 76.6472L620.122 75.2351C619.691 68.9722 619.292 62.7079 618.926 56.4422L618.844 55.0291C618.478 48.7668 618.132 42.5021 617.807 36.2351L617.77 35.5281L617.733 34.822C617.404 28.4653 617.307 19.0042 617.435 6.48122L617.449 5.157L617.447 5.13649C617.372 3.48166 618.652 2.07861 620.307 2.0027C621.962 1.92697 623.366 3.20793 623.441 4.86306L623.445 4.96267L623.449 5.04665L623.448 5.13063L623.435 6.54274C623.307 19.0376 623.406 28.3464 623.726 34.5105L623.763 35.2175L623.799 35.9246C624.123 42.1784 624.468 48.4303 624.833 54.6795L624.875 55.3855L624.916 56.0916C625.281 62.337 625.679 68.5815 626.108 74.824L626.156 75.53L626.205 76.2351C626.632 82.4371 627.217 88.634 627.96 94.825L628.044 95.53L628.129 96.2341C628.903 102.689 628.983 109.172 628.37 115.678L628.303 116.389L628.236 117.1C627.666 123.15 627.844 129.168 628.769 135.161L628.985 136.569C629.984 143.04 630.214 149.538 629.677 156.058L629.619 156.768L629.56 157.477C629.054 163.621 628.985 169.751 629.353 175.866L629.396 176.572L629.438 177.279C629.822 183.642 629.874 190.01 629.593 196.384L629.53 197.799C629.263 203.853 629.642 209.906 630.669 215.958L630.789 216.665L630.908 217.371Z" fill="black"/>
</g>
<g filter="url(#filter2_i_48_144)">
<path d="M91.7939 16.3377C85.3731 17.0614 78.9378 17.2395 72.4902 16.8709L71.7813 16.8299L71.0723 16.7898C64.8875 16.4361 58.7112 16.3728 52.5439 16.6013L51.1299 16.6541C44.6449 16.8943 38.1729 16.4151 31.7188 15.2175L30.3105 14.9558C24.2139 13.8246 18.9059 13.3325 14.3633 13.4422L13.8213 13.4558L13.2783 13.4685C11.8288 13.5035 10.621 13.547 9.64648 13.5945L9.87891 14.6238L6.02051 14.5222L5.9209 14.5193C4.26466 14.4755 2.95734 13.0974 3.00098 11.4412C3.0011 11.4364 3.0018 11.4313 3.00195 11.4265L3 11.4177L3 11.0515C3 9.82759 3.69428 9.05642 4.05567 8.74098C4.41989 8.42311 4.77953 8.259 4.9502 8.18727C5.31454 8.03417 5.66961 7.95735 5.87891 7.91676C6.34778 7.82585 6.93366 7.76228 7.56055 7.71168C8.84898 7.6077 10.7192 7.52874 13.1338 7.47047L13.6758 7.4568L14.2188 7.44411C19.2844 7.32187 25.0209 7.87206 31.4043 9.05641L32.8135 9.31813C38.8394 10.4362 44.8699 10.8817 50.9082 10.658L51.6152 10.6316L52.3223 10.6062C58.6783 10.3707 65.0429 10.4352 71.415 10.7996L72.123 10.8396L72.832 10.8806C78.9412 11.23 85.0377 11.0616 91.1221 10.3758L91.8281 10.2957L92.5342 10.2166C98.8649 9.50299 105.209 9.03987 111.565 8.82692L112.273 8.80251L112.982 8.77907C119.364 8.56529 125.744 8.68266 132.122 9.13161L133.539 9.23122C139.728 9.66689 145.907 9.83607 152.073 9.73806L152.779 9.72732L153.485 9.7156C159.622 9.61805 165.758 9.16301 171.895 8.35036L172.6 8.25759L173.306 8.16384C179.806 7.303 186.328 7.2641 192.867 8.04666L194.288 8.21658C200.449 8.95396 206.598 9.28352 212.734 9.20486L213.442 9.19509L214.149 9.1863C220.333 9.10703 226.514 8.76328 232.69 8.15408L233.396 8.08377L234.103 8.01443C240.58 7.37563 247.064 7.43782 253.553 8.19998L254.97 8.36599C261.116 9.08796 267.256 9.40652 273.391 9.32107L274.098 9.31033L274.806 9.30057C281.07 9.21331 287.336 9.12083 293.602 9.02225L294.31 9.01053L295.017 8.99979C301.224 8.90213 307.439 8.61785 313.66 8.14627L315.078 8.03885C321.475 7.55398 327.864 7.4429 334.246 7.70584L334.953 7.73514L335.661 7.76346C341.987 8.02412 348.312 8.48106 354.635 9.1326L355.342 9.20487L356.049 9.27811C362.075 9.89906 368.109 9.80533 374.156 8.99588L375.574 8.80643C382.146 7.92668 388.713 8.01995 395.264 9.08671L396.677 9.31718C402.627 10.2862 408.583 10.3165 414.554 9.408L415.263 9.2996L415.972 9.19218C422.466 8.20399 428.959 7.93076 435.447 8.37479L436.155 8.42362L436.862 8.47147C443.031 8.8937 449.201 9.01375 455.371 8.83085L456.078 8.80937L456.786 8.78886C463.202 8.59865 469.617 8.88233 476.028 9.64042L477.443 9.80839C483.479 10.522 489.517 10.5321 495.564 9.83867L496.273 9.75761L496.982 9.67558C503.507 8.92746 510.026 8.99397 516.534 9.8748L517.947 10.0662C523.997 10.8851 530.052 11.0543 536.114 10.574L536.823 10.5174L537.531 10.4617C543.856 9.96066 550.175 9.61306 556.487 9.41875L557.194 9.39726L557.901 9.3748C564.171 9.18181 570.446 9.00685 576.726 8.84941L578.143 8.81426C584.415 8.657 590.676 8.49595 596.925 8.33184L598.336 8.29473C604.664 8.12854 614.084 8.19577 626.563 8.49102L627.88 8.52227L627.906 8.52129C629.562 8.46966 630.947 9.77055 630.999 11.4266C631.051 13.0825 629.75 14.4666 628.094 14.5184L627.993 14.5223L627.911 14.5242L626.422 14.4891C613.965 14.1943 604.667 14.1307 598.494 14.2928L597.083 14.3299C590.831 14.4941 584.568 14.655 578.293 14.8123L576.876 14.8475C570.608 15.0046 564.344 15.1792 558.086 15.3719L557.379 15.3943L556.672 15.4158C550.456 15.6071 544.234 15.9497 538.006 16.4432L537.297 16.4988L536.588 16.5555C530.098 17.0696 523.615 16.8885 517.143 16.0125L515.729 15.8211C509.715 15.007 503.695 14.9451 497.665 15.6365L496.957 15.7185L496.248 15.7996C489.74 16.5458 483.235 16.5346 476.738 15.7664L476.031 15.6834L475.324 15.5994C469.204 14.8757 463.083 14.6045 456.964 14.7859L456.257 14.8074L455.549 14.8279C449.183 15.0166 442.817 14.8934 436.453 14.4578L435.745 14.409L435.038 14.3611C428.993 13.9474 422.939 14.2009 416.874 15.1238L416.165 15.2312L415.456 15.3396C408.867 16.3422 402.282 16.3088 395.713 15.2391L394.299 15.0086C388.33 14.0366 382.357 13.9514 376.37 14.7527L375.661 14.8474L374.952 14.9432C368.44 15.8148 361.933 15.9155 355.435 15.2459L354.728 15.1736L354.02 15.1004C347.819 14.4614 341.617 14.0142 335.414 13.7586L333.999 13.7C327.852 13.4467 321.696 13.554 315.531 14.0213L314.113 14.1287C307.773 14.6093 301.439 14.8993 295.111 14.9988L294.403 15.0105L293.696 15.0213C287.427 15.1199 281.157 15.2133 274.889 15.3006L273.474 15.3201C267.075 15.4092 260.674 15.0772 254.27 14.325L252.853 14.159C246.79 13.4469 240.738 13.3888 234.692 13.9851L233.985 14.0554L233.279 14.1248C226.934 14.7507 220.582 15.1048 214.227 15.1863L212.811 15.2039C206.408 15.2859 199.995 14.943 193.575 14.1746L192.865 14.0896L192.154 14.0037C186.112 13.2805 180.093 13.3175 174.093 14.1121L173.388 14.2049L172.682 14.2986C166.317 15.1414 159.95 15.6134 153.58 15.7146L152.874 15.7263L152.168 15.7371C145.828 15.8378 139.478 15.6643 133.118 15.2166L131.701 15.117C125.53 14.6826 119.357 14.5693 113.184 14.7761L111.766 14.823C105.567 15.0307 99.3805 15.4825 93.2061 16.1785L92.5 16.2586L91.7939 16.3377Z" fill="black"/>
</g>
<g filter="url(#filter3_i_48_144)">
<path d="M534.796 628.51C528.301 629.055 521.812 628.877 515.333 627.975L513.92 627.778C507.901 626.94 501.872 626.837 495.827 627.467L494.408 627.616C487.888 628.296 481.38 628.202 474.893 627.335L474.188 627.241L473.482 627.146C467.371 626.329 461.254 625.954 455.128 626.019L454.42 626.026L453.712 626.034C447.341 626.102 440.978 625.849 434.622 625.275L433.915 625.211L433.209 625.147C427.173 624.602 421.113 624.718 415.027 625.498L413.604 625.679C406.992 626.526 400.409 626.333 393.866 625.101L393.163 624.968L392.459 624.837C386.515 623.717 380.545 623.483 374.54 624.134L373.118 624.289C366.587 624.997 360.08 624.938 353.601 624.109L352.896 624.018L352.191 623.928C346.009 623.138 339.82 622.542 333.624 622.143L332.917 622.098L332.211 622.052C326.071 621.657 319.916 621.629 313.746 621.967L312.326 622.046C305.982 622.394 299.648 622.563 293.325 622.553L291.91 622.551C285.648 622.541 279.384 622.541 273.118 622.55L271.702 622.552C265.309 622.562 258.917 622.173 252.528 621.385L251.112 621.212C245.068 620.467 239.027 620.403 232.988 621.022L231.574 621.167C225.24 621.816 218.911 622.236 212.587 622.426L211.176 622.469C204.812 622.661 198.415 622.495 191.987 621.97L191.275 621.913L190.561 621.854C184.506 621.36 178.51 621.666 172.565 622.769L171.163 623.029C164.836 624.203 158.484 624.984 152.109 625.372L150.696 625.458C144.349 625.843 137.984 625.926 131.603 625.706L130.894 625.68L130.184 625.656C123.99 625.442 117.812 625.514 111.65 625.873L110.237 625.955C104.046 626.315 97.8527 626.875 91.6574 627.635L90.9504 627.722L90.2443 627.808C83.7993 628.599 77.3456 628.78 70.8869 628.35L70.1789 628.302L69.4709 628.255C63.2685 627.843 57.0609 627.64 50.8478 627.646L50.1389 627.646L49.4299 627.647C42.8938 627.654 36.4271 626.835 30.0363 625.193L29.342 625.014L28.6476 624.837C22.6695 623.301 17.1501 622.454 12.0793 622.272L10.8771 622.229C9.19302 622.169 7.79796 622.134 6.68378 622.121L6.91913 623.176L2.73749 622.809C1.14172 622.669 -0.0516724 621.303 0.00213744 619.721L0.000184314 619.713L0.000184362 619.351C0.00029584 617.959 0.881923 617.159 1.26288 616.88C1.66057 616.59 2.0409 616.457 2.20624 616.404C2.57325 616.286 2.93149 616.237 3.1496 616.212C3.63898 616.154 4.26276 616.128 4.95136 616.118C6.36142 616.096 8.41965 616.137 11.092 616.233L12.2941 616.276C17.8691 616.476 23.8217 617.402 30.1408 619.025L30.8351 619.203L31.5295 619.381C37.4358 620.899 43.399 621.653 49.424 621.647L50.133 621.646L50.842 621.646C57.1899 621.64 63.5324 621.847 69.8693 622.269L71.2853 622.363C77.3663 622.768 83.4421 622.598 89.5139 621.853L90.9269 621.679C97.2484 620.904 103.569 620.333 109.889 619.965L111.301 619.883C117.649 619.514 124.012 619.44 130.391 619.66L131.81 619.709C138.001 619.922 144.175 619.842 150.332 619.468L151.744 619.382C157.873 619.01 163.981 618.259 170.068 617.13L171.47 616.87C177.939 615.669 184.468 615.337 191.049 615.874L191.762 615.932L192.476 615.99C198.684 616.496 204.857 616.657 210.995 616.472L212.406 616.429C218.585 616.243 224.771 615.832 230.963 615.198L232.377 615.053C238.865 614.389 245.356 614.457 251.846 615.256L253.261 615.43C259.406 616.188 265.55 616.562 271.694 616.552L273.109 616.55C279.38 616.541 285.651 616.541 291.92 616.551L293.334 616.553C299.543 616.563 305.765 616.397 311.997 616.054L313.417 615.976C319.824 615.624 326.218 615.654 332.597 616.065L333.303 616.111L334.01 616.156C340.332 616.563 346.646 617.171 352.952 617.977L354.362 618.157C360.371 618.925 366.406 618.982 372.472 618.324L373.894 618.17C380.485 617.455 387.047 617.712 393.57 618.94L394.274 619.072L394.977 619.205C400.9 620.32 406.852 620.495 412.841 619.728L413.553 619.637L414.264 619.546C420.778 618.711 427.274 618.587 433.749 619.172L434.455 619.235L435.161 619.299C441.317 619.856 447.479 620.101 453.649 620.035L455.064 620.019C461.478 619.951 467.883 620.344 474.277 621.199L475.689 621.388C481.705 622.193 487.736 622.279 493.785 621.648L495.205 621.5C501.732 620.819 508.248 620.931 514.747 621.836L515.453 621.934L516.16 622.032C522.201 622.872 528.244 623.039 534.294 622.532L535.711 622.413C542.021 621.884 548.325 621.473 554.623 621.181L555.33 621.149L556.037 621.116C562.289 620.826 568.54 620.508 574.79 620.162L576.203 620.084C582.441 619.738 588.661 619.324 594.863 618.844L595.567 618.791L596.269 618.736C602.523 618.252 611.878 617.646 624.321 616.92L625.647 616.842L625.671 616.839C627.318 616.658 628.8 617.845 628.982 619.492C629.163 621.139 627.976 622.622 626.329 622.803L626.23 622.814L626.153 622.823L626.075 622.828L624.671 622.91C612.236 623.636 602.928 624.239 596.733 624.718L596.029 624.772L595.326 624.827C589.08 625.31 582.816 625.726 576.535 626.074L575.829 626.113L575.122 626.153C568.854 626.5 562.585 626.819 556.315 627.11L555.608 627.142L554.901 627.175C548.677 627.464 542.448 627.869 536.212 628.392L535.504 628.452L534.796 628.51Z" fill="black"/>
</g>
<defs>
<filter id="filter0_i_48_144" x="11.3813" y="0" width="10.7163" height="635" filterUnits="userSpaceOnUse" color-interpolation-filters="sRGB">
<feFlood flood-opacity="0" result="BackgroundImageFix"/>
<feBlend mode="normal" in="SourceGraphic" in2="BackgroundImageFix" result="shape"/>
<feColorMatrix in="SourceAlpha" type="matrix" values="0 0 0 0 0 0 0 0 0 0 0 0 0 0 0 0 0 0 127 0" result="hardAlpha"/>
<feOffset dy="4"/>
<feGaussianBlur stdDeviation="2"/>
<feComposite in2="hardAlpha" operator="arithmetic" k2="-1" k3="1"/>
<feColorMatrix type="matrix" values="0 0 0 0 0 0 0 0 0 0 0 0 0 0 0 0 0 0 0.25 0"/>
<feBlend mode="normal" in2="shape" result="effect1_innerShadow_48_144"/>
</filter>
<filter id="filter1_i_48_144" x="615.826" y="1.99951" width="15.9595" height="632.001" filterUnits="userSpaceOnUse" color-interpolation-filters="sRGB">
<feFlood flood-opacity="0" result="BackgroundImageFix"/>
<feBlend mode="normal" in="SourceGraphic" in2="BackgroundImageFix" result="shape"/>
<feColorMatrix in="SourceAlpha" type="matrix" values="0 0 0 0 0 0 0 0 0 0 0 0 0 0 0 0 0 0 127 0" result="hardAlpha"/>
<feOffset dy="4"/>
<feGaussianBlur stdDeviation="2"/>
<feComposite in2="hardAlpha" operator="arithmetic" k2="-1" k3="1"/>
<feColorMatrix type="matrix" values="0 0 0 0 0 0 0 0 0 0 0 0 0 0 0 0 0 0 0.25 0"/>
<feBlend mode="normal" in2="shape" result="effect1_innerShadow_48_144"/>
</filter>
<filter id="filter2_i_48_144" x="3" y="7.42749" width="628" height="13.6299" filterUnits="userSpaceOnUse" color-interpolation-filters="sRGB">
<feFlood flood-opacity="0" result="BackgroundImageFix"/>
<feBlend mode="normal" in="SourceGraphic" in2="BackgroundImageFix" result="shape"/>
<feColorMatrix in="SourceAlpha" type="matrix" values="0 0 0 0 0 0 0 0 0 0 0 0 0 0 0 0 0 0 127 0" result="hardAlpha"/>
<feOffset dy="4"/>
<feGaussianBlur stdDeviation="2"/>
<feComposite in2="hardAlpha" operator="arithmetic" k2="-1" k3="1"/>
<feColorMatrix type="matrix" values="0 0 0 0 0 0 0 0 0 0 0 0 0 0 0 0 0 0 0.25 0"/>
<feBlend mode="normal" in2="shape" result="effect1_innerShadow_48_144"/>
</filter>
<filter id="filter3_i_48_144" x="0.000244141" y="614.601" width="629" height="18.2173" filterUnits="userSpaceOnUse" color-interpolation-filters="sRGB">
<feFlood flood-opacity="0" result="BackgroundImageFix"/>
<feBlend mode="normal" in="SourceGraphic" in2="BackgroundImageFix" result="shape"/>
<feColorMatrix in="SourceAlpha" type="matrix" values="0 0 0 0 0 0 0 0 0 0 0 0 0 0 0 0 0 0 127 0" result="hardAlpha"/>
<feOffset dy="4"/>
<feGaussianBlur stdDeviation="2"/>
<feComposite in2="hardAlpha" operator="arithmetic" k2="-1" k3="1"/>
<feColorMatrix type="matrix" values="0 0 0 0 0 0 0 0 0 0 0 0 0 0 0 0 0 0 0.25 0"/>
<feBlend mode="normal" in2="shape" result="effect1_innerShadow_48_144"/>
</filter>
</defs>
</svg>
