<svg width="112" height="157" viewBox="0 0 112 157" fill="none" xmlns="http://www.w3.org/2000/svg">
<path d="M74.3156 3.83502C74.2244 1.62777 72.3612 -0.0876803 70.1539 0.00346708C67.9467 0.0946145 66.2312 1.95784 66.3224 4.1651L70.319 4.00006L74.3156 3.83502ZM70.3231 4.09998L74.3206 3.95842L74.3202 3.94668L74.3197 3.93494L70.3231 4.09998ZM72.643 26.8436L76.5366 25.927L72.643 26.8436ZM75.2197 87.9093L79.2149 88.1033L75.2197 87.9093ZM73.9031 103.257L69.933 102.769L73.9031 103.257ZM75.2232 118.495L71.3918 119.644L75.2232 118.495ZM74.7915 145.758L70.7934 145.881L74.7915 145.758ZM75.6357 150.029L75.8007 154.026L76.0797 154.015L76.3544 153.964L75.6357 150.029ZM76.3438 149.9L80.3404 149.735L80.1506 145.139L75.6252 145.965L76.3438 149.9ZM76.348 150L73.8829 153.15L77.5605 156.028L79.8393 151.952L76.348 150ZM6.46514 90.2376C4.72535 88.8762 2.21133 89.183 0.849937 90.9228C-0.511457 92.6626 -0.2047 95.1766 1.5351 96.538L4.00012 93.3878L6.46514 90.2376ZM4.07888 93.4494L6.65905 90.3929L6.60234 90.345L6.5439 90.2993L4.07888 93.4494ZM21.493 108.225L24.0962 105.188L21.493 108.225ZM57.7787 136.238L54.5799 138.64L57.7787 136.238ZM68.8582 146.874L71.1092 143.568L68.8582 146.874ZM75.7677 150.592L78.6233 153.393L78.7929 153.22L78.9404 153.028L75.7677 150.592ZM76.2692 149.938L78.7342 146.788L75.555 144.3L73.0965 147.502L76.2692 149.938ZM111.491 95.3399C112.57 93.4116 111.88 90.9745 109.952 89.8965C108.024 88.8184 105.587 89.5076 104.509 91.4358L108 93.3878L111.491 95.3399ZM107.951 93.4751L104.46 91.5231L104.354 91.713L104.269 91.9133L107.951 93.4751ZM87.0554 125.443L90.5184 127.445L87.0554 125.443ZM81.5473 139.869L77.6371 139.026L81.5473 139.869ZM78.1056 148.84L80.2318 152.228L80.2704 152.204L80.3085 152.179L78.1056 148.84ZM76.3968 149.913L74.2705 146.525L73.4044 147.068L72.9054 147.961L76.3968 149.913ZM70.319 4.00006L66.3224 4.1651L66.3265 4.26501L70.3231 4.09998L74.3197 3.93494L74.3156 3.83502L70.319 4.00006ZM70.3231 4.09998L66.3256 4.24153C66.686 14.4197 67.4685 22.3188 68.7494 27.7602L72.643 26.8436L76.5366 25.927C75.4406 21.2712 74.6764 14.0079 74.3206 3.95842L70.3231 4.09998ZM72.643 26.8436L68.7494 27.7602C69.7703 32.0969 69.623 36.4875 68.2605 41.0043L72.0901 42.1595L75.9196 43.3147C77.6714 37.5075 77.8926 31.6875 76.5366 25.927L72.643 26.8436ZM72.0901 42.1595L68.2605 41.0043C66.522 46.7678 66.2069 52.545 67.3629 58.2766L71.2839 57.4858L75.205 56.695C74.3216 52.3154 74.544 47.8751 75.9196 43.3147L72.0901 42.1595ZM71.2839 57.4858L67.3629 58.2766C68.3778 63.3088 69.3462 68.3427 70.2679 73.3785L74.2026 72.6583L78.1372 71.9381C77.2068 66.855 76.2294 61.774 75.205 56.695L71.2839 57.4858ZM74.2026 72.6583L70.2679 73.3785C71.1392 78.1383 71.4574 82.9152 71.2244 87.7153L75.2197 87.9093L79.2149 88.1033C79.4779 82.6876 79.1181 77.2972 78.1372 71.9381L74.2026 72.6583ZM75.2197 87.9093L71.2244 87.7153C70.9812 92.7241 70.5508 97.7418 69.933 102.769L73.9031 103.257L77.8733 103.745C78.5148 98.5242 78.9621 93.3104 79.2149 88.1033L75.2197 87.9093ZM73.9031 103.257L69.933 102.769C69.2346 108.452 69.7261 114.089 71.3918 119.644L75.2232 118.495L79.0547 117.346C77.7009 112.831 77.3124 108.309 77.8733 103.745L73.9031 103.257ZM75.2232 118.495L71.3918 119.644C72.7208 124.077 72.9671 128.522 72.1394 133.031L76.0737 133.753L80.008 134.475C81.0659 128.711 80.7451 122.984 79.0547 117.346L75.2232 118.495ZM76.0737 133.753L72.1394 133.031C71.1799 138.259 70.6924 142.589 70.7934 145.881L74.7915 145.758L78.7896 145.636C78.7147 143.194 79.082 139.52 80.008 134.475L76.0737 133.753ZM74.7915 145.758L70.7934 145.881C70.839 147.366 70.9378 148.706 71.1445 149.752C71.2398 150.235 71.4147 150.966 71.7942 151.67C72.0893 152.218 73.2931 154.13 75.8007 154.026L75.6357 150.029L75.4707 146.033C76.5182 145.99 77.3849 146.381 77.9657 146.846C78.4789 147.256 78.7372 147.691 78.8375 147.877C79.028 148.23 79.0379 148.43 78.9926 148.201C78.9179 147.823 78.8321 147.018 78.7896 145.636L74.7915 145.758ZM75.6357 150.029L76.3544 153.964L77.0625 153.835L76.3438 149.9L75.6252 145.965L74.9171 146.095L75.6357 150.029ZM76.3438 149.9L72.3472 150.065L72.3514 150.165L76.348 150L80.3445 149.835L80.3404 149.735L76.3438 149.9ZM4.00012 93.3878L1.5351 96.538L1.61385 96.5996L4.07888 93.4494L6.5439 90.2993L6.46514 90.2376L4.00012 93.3878ZM4.07888 93.4494L1.49871 96.506C9.23542 103.037 15.0307 107.954 18.8898 111.262L21.493 108.225L24.0962 105.188C20.2134 101.86 14.3993 96.9267 6.65905 90.3929L4.07888 93.4494ZM21.493 108.225L18.8898 111.262C22.9374 114.732 27.2694 117.836 31.8832 120.573L33.9244 117.133L35.9656 113.693C31.7461 111.19 27.7905 108.355 24.0962 105.188L21.493 108.225ZM33.9244 117.133L31.8832 120.573C36.2074 123.139 40.4047 125.865 44.4755 128.751L46.7889 125.488L49.1023 122.225C44.8536 119.213 40.4746 116.369 35.9656 113.693L33.9244 117.133ZM46.7889 125.488L44.4755 128.751C48.2857 131.452 51.6532 134.742 54.5799 138.64L57.7787 136.238L60.9775 133.837C57.5706 129.299 53.6115 125.422 49.1023 122.225L46.7889 125.488ZM57.7787 136.238L54.5799 138.64C58.0019 143.198 62.0121 147.052 66.6072 150.181L68.8582 146.874L71.1092 143.568C67.2653 140.951 63.8892 137.715 60.9775 133.837L57.7787 136.238ZM68.8582 146.874L66.6072 150.181C68.7457 151.636 70.5149 152.759 71.8551 153.48C72.4991 153.827 73.2191 154.177 73.9198 154.397C74.2557 154.503 74.8107 154.652 75.468 154.662C76.0637 154.672 77.4651 154.573 78.6233 153.393L75.7677 150.592L72.9122 147.79C73.9737 146.708 75.2185 146.657 75.5977 146.663C75.8406 146.667 76.0235 146.697 76.1227 146.717C76.227 146.737 76.2946 146.758 76.3168 146.765C76.3451 146.774 76.153 146.708 75.6454 146.435C74.6824 145.917 73.1903 144.984 71.1092 143.568L68.8582 146.874ZM75.7677 150.592L78.9404 153.028L79.4419 152.374L76.2692 149.938L73.0965 147.502L72.595 148.156L75.7677 150.592ZM76.2692 149.938L73.8042 153.089L73.8829 153.15L76.348 150L78.813 146.85L78.7342 146.788L76.2692 149.938ZM108 93.3878L104.509 91.4358L104.46 91.5231L107.951 93.4751L111.443 95.4271L111.491 95.3399L108 93.3878ZM107.951 93.4751L104.269 91.9133C100.343 101.171 96.7404 107.165 93.5827 110.375L96.4343 113.18L99.286 115.985C103.535 111.666 107.61 104.523 111.634 95.0369L107.951 93.4751ZM96.4343 113.18L93.5827 110.375C89.6513 114.372 86.317 118.728 83.5924 123.441L87.0554 125.443L90.5184 127.445C92.8926 123.338 95.8109 119.518 99.286 115.985L96.4343 113.18ZM87.0554 125.443L83.5924 123.441C80.8251 128.228 78.8436 133.43 77.6371 139.026L81.5473 139.869L85.4574 140.712C86.4964 135.893 88.1869 131.478 90.5184 127.445L87.0554 125.443ZM81.5473 139.869L77.6371 139.026C77.0947 141.542 76.578 143.366 76.1102 144.585C75.8764 145.194 75.6905 145.558 75.5743 145.746C75.4332 145.976 75.5095 145.761 75.9026 145.502L78.1056 148.84L80.3085 152.179C81.2875 151.533 81.9466 150.655 82.3852 149.943C82.8488 149.191 83.2395 148.336 83.5794 147.45C84.2588 145.68 84.8771 143.404 85.4574 140.712L81.5473 139.869ZM78.1056 148.84L75.9793 145.452L74.2705 146.525L76.3968 149.913L78.523 153.301L80.2318 152.228L78.1056 148.84ZM76.3968 149.913L72.9054 147.961L72.8566 148.048L76.348 150L79.8393 151.952L79.8881 151.865L76.3968 149.913Z" fill="black"/>
</svg>
