<svg width="171" height="171" viewBox="-18.5 -18.5 171 171" fill="none" xmlns="http://www.w3.org/2000/svg">
<path d="M125.66 9.27025C127.316 9.20197 128.602 7.8046 128.534 6.14916C128.466 4.49371 127.068 3.20706 125.413 3.27535L125.537 6.2728L125.66 9.27025ZM125.437 6.27692L125.398 9.27668L125.479 9.27771L125.56 9.27438L125.437 6.27692ZM124.028 6.259L124.066 3.25925L124.028 6.259ZM94.4971 6.36912L94.5937 9.36757L94.4971 6.36912ZM75.701 6.99388L75.8037 9.99212L75.701 6.99388ZM55.491 7.80818L55.6326 10.8048L55.491 7.80818ZM15.108 9.02659L14.6623 11.9933L15.108 9.02659ZM13.6957 8.8144L14.1414 5.8477L13.6957 8.8144ZM3.70296 8.04297L1.53617 5.96813L3.70296 8.04297ZM3.65697 8.091L1.49018 6.01615L1.40433 6.10581L1.32617 6.20226L3.65697 8.091ZM3.09997 8.77838L3.06215 11.7781L4.51562 11.7965L5.43077 10.6671L3.09997 8.77838ZM3.03779 5.77736C1.38107 5.75647 0.0210954 7.08258 0.000213654 8.73931C-0.0206757 10.396 1.30543 11.756 2.96216 11.7769L2.99998 8.77712L3.03779 5.77736ZM125.537 6.2728L125.413 3.27535L125.313 3.27947L125.437 6.27692L125.56 9.27438L125.66 9.27025L125.537 6.2728ZM125.437 6.27692L125.475 3.27717L124.066 3.25925L124.028 6.259L123.99 9.25876L125.398 9.27668L125.437 6.27692ZM124.028 6.259L124.066 3.25925C111.576 3.10038 102.149 3.1211 95.8151 3.32511L95.9117 6.32356L96.0082 9.322C102.203 9.12248 111.52 9.10016 123.99 9.25876L124.028 6.259ZM95.9117 6.32356L95.8151 3.32511L95.1078 3.3479L95.2044 6.34634L95.301 9.34479L96.0082 9.322L95.9117 6.32356ZM95.2044 6.34634L95.1078 3.3479L94.4005 3.37068L94.4971 6.36912L94.5937 9.36757L95.301 9.34479L95.2044 6.34634ZM94.4971 6.36912L94.4005 3.37068C88.1341 3.57252 81.8666 3.78084 75.5982 3.99564L75.701 6.99388L75.8037 9.99212C82.068 9.77746 88.3313 9.56927 94.5937 9.36757L94.4971 6.36912ZM75.701 6.99388L75.5982 3.99564L74.8907 4.01988L74.9935 7.01812L75.0962 10.0164L75.8037 9.99212L75.701 6.99388ZM74.9935 7.01812L74.8907 4.01988L74.1832 4.04412L74.286 7.04237L74.3887 10.0406L75.0962 10.0164L74.9935 7.01812ZM74.286 7.04237L74.1832 4.04412C67.9039 4.2593 61.626 4.5151 55.3495 4.81152L55.491 7.80818L55.6326 10.8048C61.8832 10.5096 68.1353 10.2549 74.3887 10.0406L74.286 7.04237ZM55.491 7.80818L55.3495 4.81152L54.6423 4.84491L54.7839 7.84157L54.9254 10.8382L55.6326 10.8048L55.491 7.80818ZM54.7839 7.84157L54.6423 4.84491L53.9352 4.87831L54.0767 7.87497L54.2182 10.8716L54.9254 10.8382L54.7839 7.84157ZM54.0767 7.87497L53.9352 4.87831C47.6141 5.17684 41.2955 5.65729 34.9793 6.31965L35.2922 9.30329L35.6051 12.2869C41.8077 11.6365 48.012 11.1647 54.2182 10.8716L54.0767 7.87497ZM35.2922 9.30329L34.9793 6.31965L34.2726 6.39376L34.5855 9.3774L34.8984 12.361L35.6051 12.2869L35.2922 9.30329ZM34.5855 9.3774L34.2726 6.39376L33.5659 6.46787L33.8788 9.45151L34.1917 12.4351L34.8984 12.361L34.5855 9.3774ZM33.8788 9.45151L33.5659 6.46787C27.5604 7.09765 21.5584 6.96203 15.5537 6.05989L15.108 9.02659L14.6623 11.9933C21.1667 12.9705 27.6785 13.1182 34.1917 12.4351L33.8788 9.45151ZM15.108 9.02659L15.5537 6.05989L14.8476 5.95379L14.4019 8.9205L13.9562 11.8872L14.6623 11.9933L15.108 9.02659ZM14.4019 8.9205L14.8476 5.95379L14.1414 5.8477L13.6957 8.8144L13.25 11.7811L13.9562 11.8872L14.4019 8.9205ZM13.6957 8.8144L14.1414 5.8477C10.9938 5.37479 8.51247 5.06271 6.73757 4.92569C5.86167 4.85807 5.07021 4.82575 4.42176 4.85494C4.10416 4.86923 3.72145 4.90194 3.33752 4.98788C3.08788 5.04375 2.23487 5.23846 1.53617 5.96813L3.70296 8.04297L5.86977 10.1178C5.53193 10.4706 5.19019 10.6431 5.02196 10.7171C4.83938 10.7974 4.70055 10.8313 4.64801 10.843C4.54863 10.8653 4.54185 10.8556 4.69153 10.8489C4.97764 10.836 5.4862 10.8469 6.27575 10.9079C7.83178 11.028 10.1432 11.3143 13.25 11.7811L13.6957 8.8144ZM3.70296 8.04297L1.53617 5.96813L1.49018 6.01615L3.65697 8.091L5.82378 10.1659L5.86977 10.1178L3.70296 8.04297ZM3.65697 8.091L1.32617 6.20226L0.769165 6.88964L3.09997 8.77838L5.43077 10.6671L5.98778 9.97975L3.65697 8.091ZM3.09997 8.77838L3.13778 5.77862L3.03779 5.77736L2.99998 8.77712L2.96216 11.7769L3.06215 11.7781L3.09997 8.77838Z" fill="black"/>
<path d="M130.862 124.996C132.517 124.911 133.789 123.5 133.703 121.845C133.618 120.191 132.207 118.919 130.553 119.004L130.707 122L130.862 124.996ZM130.607 122.005L130.593 125.005L130.678 125.006L130.762 125.001L130.607 122.005ZM129.197 121.999L129.211 118.999L129.197 121.999ZM100.367 122.438L100.524 125.434L100.367 122.438ZM60.7073 123.338L60.7385 120.338L60.7073 123.338ZM59.2914 123.324L59.3226 120.324L59.2914 123.324ZM40.4885 123.813L40.6755 126.807L40.4885 123.813ZM39.7813 123.857L39.5943 120.863L39.7813 123.857ZM39.074 123.901L39.261 126.895L39.074 123.901ZM20.2845 123.194L20.6939 120.222L20.2845 123.194ZM18.8706 122.999L18.4612 125.971L18.8706 122.999ZM8.32574 122.338L9.77054 124.968L8.32574 122.338ZM8.23901 122.386L6.7942 119.757L6.74609 119.783L6.69897 119.812L8.23901 122.386ZM7.10002 123.067L7.08627 126.067L7.92245 126.071L8.64006 125.642L7.10002 123.067ZM7.01378 120.067C5.35694 120.059 4.00765 121.396 4.00005 123.053C3.99246 124.71 5.32944 126.059 6.98627 126.067L7.00002 123.067L7.01378 120.067ZM130.707 122L130.553 119.004L130.453 119.009L130.607 122.005L130.762 125.001L130.862 124.996L130.707 122ZM130.607 122.005L130.622 119.005L129.211 118.999L129.197 121.999L129.183 124.999L130.593 125.005L130.607 122.005ZM129.197 121.999L129.211 118.999C116.702 118.94 107.258 119.073 100.916 119.405L101.073 122.401L101.23 125.397C107.394 125.075 116.699 124.94 129.183 124.999L129.197 121.999ZM101.073 122.401L100.916 119.405L100.21 119.442L100.367 122.438L100.524 125.434L101.23 125.397L101.073 122.401ZM100.367 122.438L100.21 119.442L99.5045 119.479L99.6613 122.475L99.8181 125.471L100.524 125.434L100.367 122.438ZM99.6613 122.475L99.5045 119.479C93.2805 119.805 87.0568 120.04 80.8336 120.185L80.9035 123.185L80.9734 126.184C87.2547 126.037 93.5363 125.8 99.8181 125.471L99.6613 122.475ZM80.9035 123.185L80.8336 120.185L80.1277 120.202L80.1976 123.201L80.2675 126.2L80.9734 126.184L80.9035 123.185ZM80.1976 123.201L80.1277 120.202L79.4218 120.218L79.4917 123.218L79.5616 126.217L80.2675 126.2L80.1976 123.201ZM79.4917 123.218L79.4218 120.218C73.2033 120.363 66.9755 120.403 60.7385 120.338L60.7073 123.338L60.6761 126.338C66.9804 126.404 73.2755 126.363 79.5616 126.217L79.4917 123.218ZM60.7073 123.338L60.7385 120.338L60.0305 120.331L59.9993 123.331L59.9681 126.331L60.6761 126.338L60.7073 123.338ZM59.9993 123.331L60.0305 120.331L59.3226 120.324L59.2914 123.324L59.2602 126.323L59.9681 126.331L59.9993 123.331ZM59.2914 123.324L59.3226 120.324C52.9791 120.258 46.6387 120.423 40.3016 120.818L40.4885 123.813L40.6755 126.807C46.8676 126.42 53.0624 126.259 59.2602 126.323L59.2914 123.324ZM40.4885 123.813L40.3016 120.818L39.5943 120.863L39.7813 123.857L39.9682 126.851L40.6755 126.807L40.4885 123.813ZM39.7813 123.857L39.5943 120.863L38.887 120.907L39.074 123.901L39.261 126.895L39.9682 126.851L39.7813 123.857ZM39.074 123.901L38.887 120.907C32.8228 121.285 26.7595 121.058 20.6939 120.222L20.2845 123.194L19.8751 126.166C26.333 127.055 32.7959 127.299 39.261 126.895L39.074 123.901ZM20.2845 123.194L20.6939 120.222L19.9869 120.125L19.5775 123.097L19.1681 126.068L19.8751 126.166L20.2845 123.194ZM19.5775 123.097L19.9869 120.125L19.28 120.027L18.8706 122.999L18.4612 125.971L19.1681 126.068L19.5775 123.097ZM18.8706 122.999L19.28 120.027C16.1234 119.592 13.5935 119.31 11.7257 119.193C10.7973 119.135 9.96751 119.113 9.27561 119.146C8.92986 119.162 8.56547 119.194 8.21175 119.258C7.89776 119.314 7.39159 119.429 6.88093 119.709L8.32574 122.338L9.77054 124.968C9.59239 125.066 9.45047 125.114 9.38382 125.134C9.34625 125.146 9.31789 125.153 9.30081 125.157C9.28353 125.161 9.27396 125.163 9.27336 125.163C9.27263 125.163 9.27844 125.162 9.2916 125.16C9.30469 125.158 9.32343 125.156 9.34839 125.154C9.39902 125.149 9.46812 125.143 9.55814 125.139C9.93703 125.121 10.5214 125.129 11.3505 125.181C12.9975 125.284 15.3561 125.543 18.4612 125.971L18.8706 122.999ZM8.32574 122.338L6.88093 119.709L6.7942 119.757L8.23901 122.386L9.68381 125.015L9.77054 124.968L8.32574 122.338ZM8.23901 122.386L6.69897 119.812L5.55998 120.493L7.10002 123.067L8.64006 125.642L9.77905 124.961L8.23901 122.386ZM7.10002 123.067L7.11378 120.067L7.01378 120.067L7.00002 123.067L6.98627 126.067L7.08627 126.067L7.10002 123.067Z" fill="black"/>
<path d="M121.126 129.793C121.175 131.449 122.557 132.753 124.213 132.704C125.869 132.655 127.172 131.273 127.123 129.617L124.125 129.705L121.126 129.793ZM124.122 129.605L121.123 129.53L121.121 129.612L121.123 129.693L124.122 129.605ZM123.863 79.8636L120.864 79.9479L123.863 79.8636ZM123.154 58.9396L120.156 59.0597V59.0597L123.154 58.9396ZM121.831 39.4392L124.817 39.1476L121.831 39.4392ZM121.762 38.7322L118.777 39.0238L121.762 38.7322ZM121.693 38.0253L124.679 37.7337L121.693 38.0253ZM122.06 19.2491L119.088 18.8424L122.06 19.2491ZM122.157 18.5427L125.129 18.9494L122.157 18.5427ZM122.253 17.8364L119.281 17.4297L122.253 17.8364ZM122.96 5.91695L125.885 5.25073L122.96 5.91695ZM122.917 5.72612L125.842 5.0599L125.839 5.04735L125.836 5.03483L122.917 5.72612ZM122.295 3.09989L119.295 3.07083L119.291 3.43591L119.375 3.79118L122.295 3.09989ZM125.295 3.02897C125.312 1.37219 123.981 0.0160984 122.325 4.58361e-05C120.668 -0.0160067 119.312 1.31406 119.296 2.97083L122.296 2.9999L125.295 3.02897ZM124.125 129.705L127.123 129.617L127.12 129.517L124.122 129.605L121.123 129.693L121.126 129.793L124.125 129.705ZM124.122 129.605L127.121 129.681L127.156 128.271L124.157 128.196L121.158 128.12L121.123 129.53L124.122 129.605ZM124.157 128.196L127.156 128.271C127.47 115.777 127.551 106.343 127.394 100.001L124.395 100.075L121.396 100.15C121.549 106.336 121.472 115.649 121.158 128.12L124.157 128.196ZM124.395 100.075L127.394 100.001L127.377 99.2938L124.377 99.3681L121.378 99.4424L121.396 100.15L124.395 100.075ZM124.377 99.3681L127.377 99.2938L127.359 98.5865L124.36 98.6608L121.361 98.7351L121.378 99.4424L124.377 99.3681ZM124.36 98.6608L127.359 98.5865C127.204 92.3189 127.038 86.0498 126.862 79.7794L123.863 79.8636L120.864 79.9479C121.04 86.2117 121.206 92.4741 121.361 98.7351L124.36 98.6608ZM123.863 79.8636L126.862 79.7794L126.842 79.0718L123.843 79.156L120.844 79.2403L120.864 79.9479L123.863 79.8636ZM123.843 79.156L126.842 79.0718L126.822 78.3642L123.823 78.4485L120.824 78.5327L120.844 79.2403L123.843 79.156ZM123.823 78.4485L126.822 78.3642C126.646 72.0851 126.432 65.806 126.18 59.527L123.182 59.6471L120.185 59.7673C120.435 66.0224 120.649 72.2776 120.824 78.5327L123.823 78.4485ZM123.182 59.6471L126.18 59.527L126.151 58.8194L123.154 58.9396L120.156 59.0597L120.185 59.7673L123.182 59.6471ZM123.154 58.9396L126.151 58.8194L126.123 58.1118L123.126 58.232L120.128 58.3521L120.156 59.0597L123.154 58.9396ZM123.126 58.232L126.123 58.1118C125.87 51.7873 125.434 45.4659 124.817 39.1476L121.831 39.4392L118.846 39.7307C119.452 45.9353 119.879 52.1425 120.128 58.3521L123.126 58.232ZM121.831 39.4392L124.817 39.1476L124.748 38.4406L121.762 38.7322L118.777 39.0238L118.846 39.7307L121.831 39.4392ZM121.762 38.7322L124.748 38.4406L124.679 37.7337L121.693 38.0253L118.708 38.3169L118.777 39.0238L121.762 38.7322ZM121.693 38.0253L124.679 37.7337C124.091 31.7056 124.208 25.6812 125.033 19.6557L122.06 19.2491L119.088 18.8424C118.2 25.329 118.073 31.8221 118.708 38.3169L121.693 38.0253ZM122.06 19.2491L125.033 19.6557L125.129 18.9494L122.157 18.5427L119.185 18.136L119.088 18.8424L122.06 19.2491ZM122.157 18.5427L125.129 18.9494L125.226 18.2431L122.253 17.8364L119.281 17.4297L119.185 18.136L122.157 18.5427ZM122.253 17.8364L125.226 18.2431C125.659 15.0774 125.943 12.4361 126.067 10.342C126.185 8.34233 126.181 6.54952 125.885 5.25073L122.96 5.91695L120.035 6.58318C120.124 6.97464 120.194 8.01354 120.077 9.987C119.966 11.8661 119.704 14.3393 119.281 17.4297L122.253 17.8364ZM122.96 5.91695L125.885 5.25073L125.842 5.0599L122.917 5.72612L119.991 6.39234L120.035 6.58318L122.96 5.91695ZM122.917 5.72612L125.836 5.03483L125.214 2.4086L122.295 3.09989L119.375 3.79118L119.997 6.41741L122.917 5.72612ZM122.295 3.09989L125.295 3.12896L125.295 3.02897L122.296 2.9999L119.296 2.97083L119.295 3.07083L122.295 3.09989Z" fill="black"/>
<path d="M9.1247 131.129C9.19577 132.784 10.5953 134.068 12.2506 133.997C13.9059 133.926 15.1902 132.527 15.1192 130.871L12.1219 131L9.1247 131.129ZM12.1177 130.9L9.11784 130.867L9.11695 130.948L9.12042 131.029L12.1177 130.9ZM12.0244 101.373L9.0261 101.473L9.0261 101.473L12.0244 101.373ZM11.9771 99.9591L8.97876 100.059H8.97876L11.9771 99.9591ZM11.3082 80.4603L8.31002 80.5655L11.3082 80.4603ZM10.5115 60.954L13.5082 60.813L10.5115 60.954ZM10.4782 60.2465L7.48151 60.3875L10.4782 60.2465ZM8.99794 40.7642L6.01502 41.0839L8.99794 40.7642ZM8.92231 40.0586L11.9052 39.7389L8.92231 40.0586ZM8.84669 39.3529L5.86377 39.6726L8.84669 39.3529ZM9.10107 20.5863L12.0745 20.9849L9.10107 20.5863ZM9.19584 19.8794L6.22244 19.4808L9.19584 19.8794ZM9.29061 19.1725L12.264 19.5712L9.29061 19.1725ZM10.0311 6.62788L7.07086 7.11478L10.0311 6.62788ZM9.99205 6.39055L12.9523 5.90365L12.951 5.89582L12.9497 5.888L9.99205 6.39055ZM9.43293 3.09999L6.43324 3.05666L6.42927 3.33153L6.47532 3.60254L9.43293 3.09999ZM12.4341 3.04333C12.458 1.38664 11.1344 0.0242466 9.4777 0.000305266C7.82102 -0.0236208 6.45861 1.29999 6.43468 2.95668L9.43437 3L12.4341 3.04333ZM12.1219 131L15.1192 130.871L15.1149 130.771L12.1177 130.9L9.12042 131.029L9.1247 131.129L12.1219 131ZM12.1177 130.9L15.1175 130.933L15.133 129.524L12.1331 129.491L9.13332 129.458L9.11784 130.867L12.1177 130.9ZM12.1331 129.491L15.133 129.524C15.2702 117.03 15.2347 107.603 15.0227 101.273L12.0244 101.373L9.0261 101.473C9.23342 107.666 9.27037 116.984 9.13332 129.458L12.1331 129.491ZM12.0244 101.373L15.0227 101.273L14.9991 100.566L12.0008 100.666L9.00243 100.766L9.0261 101.473L12.0244 101.373ZM12.0008 100.666L14.9991 100.566L14.9754 99.8587L11.9771 99.9591L8.97876 100.059L9.00243 100.766L12.0008 100.666ZM11.9771 99.9591L14.9754 99.8587C14.7657 93.5958 14.551 87.3305 14.3311 81.0627L11.333 81.1678L8.33483 81.273C8.55454 87.5376 8.76918 93.7998 8.97876 100.059L11.9771 99.9591ZM11.333 81.1678L14.3311 81.0627L14.3063 80.3552L11.3082 80.4603L8.31002 80.5655L8.33483 81.273L11.333 81.1678ZM11.3082 80.4603L14.3063 80.3552L14.2815 79.6477L11.2834 79.7529L8.28521 79.858L8.31002 80.5655L11.3082 80.4603ZM11.2834 79.7529L14.2815 79.6477C14.0613 73.3695 13.8036 67.0913 13.5082 60.813L10.5115 60.954L7.5148 61.095C7.80906 67.3494 8.06586 73.6038 8.28521 79.858L11.2834 79.7529ZM10.5115 60.954L13.5082 60.813L13.4749 60.1055L10.4782 60.2465L7.48151 60.3875L7.5148 61.095L10.5115 60.954ZM10.4782 60.2465L13.4749 60.1055L13.4416 59.398L10.4449 59.539L7.44822 59.68L7.48151 60.3875L10.4782 60.2465ZM10.4449 59.539L13.4416 59.398C13.144 53.0718 12.657 46.754 11.9809 40.4446L8.99794 40.7642L6.01502 41.0839C6.67849 47.2748 7.15621 53.4734 7.44822 59.68L10.4449 59.539ZM8.99794 40.7642L11.9809 40.4446L11.9052 39.7389L8.92231 40.0586L5.93939 40.3783L6.01502 41.0839L8.99794 40.7642ZM8.92231 40.0586L11.9052 39.7389L11.8296 39.0332L8.84669 39.3529L5.86377 39.6726L5.93939 40.3783L8.92231 40.0586ZM8.84669 39.3529L11.8296 39.0332C11.1855 33.0233 11.2668 27.0089 12.0745 20.9849L9.10107 20.5863L6.12767 20.1876C5.25648 26.6856 5.16821 33.1823 5.86377 39.6726L8.84669 39.3529ZM9.10107 20.5863L12.0745 20.9849L12.1692 20.2781L9.19584 19.8794L6.22244 19.4808L6.12767 20.1876L9.10107 20.5863ZM9.19584 19.8794L12.1692 20.2781L12.264 19.5712L9.29061 19.1725L6.31721 18.7739L6.22244 19.4808L9.19584 19.8794ZM9.29061 19.1725L12.264 19.5712C13.0934 13.3849 13.4217 8.75755 12.9913 6.14098L10.0311 6.62788L7.07086 7.11478C7.33201 8.7025 7.16663 12.4383 6.31721 18.7739L9.29061 19.1725ZM10.0311 6.62788L12.9913 6.14098L12.9523 5.90365L9.99205 6.39055L7.03182 6.87745L7.07086 7.11478L10.0311 6.62788ZM9.99205 6.39055L12.9497 5.888L12.3905 2.59744L9.43293 3.09999L6.47532 3.60254L7.03444 6.8931L9.99205 6.39055ZM9.43293 3.09999L12.4326 3.14332L12.4341 3.04333L9.43437 3L6.43468 2.95668L6.43324 3.05666L9.43293 3.09999Z" fill="black"/>
</svg>
