<svg width="171" height="171" viewBox="-18.5 -18.5 171 171" fill="none" xmlns="http://www.w3.org/2000/svg">
<path d="M9.26441 8.23019C9.13562 6.57835 7.69214 5.34367 6.0403 5.47246C4.38846 5.60124 3.15378 7.04473 3.28256 8.69657L6.27349 8.46338L9.26441 8.23019ZM6.28126 8.56308L9.28061 8.5008L9.27884 8.41523L9.27218 8.32989L6.28126 8.56308ZM7.54138 38.0812L10.5293 37.8126L7.54138 38.0812ZM7.66809 39.491L10.656 39.2224L7.66809 39.491ZM9.4155 58.9228L12.4034 58.6539L9.4155 58.9228ZM11.0241 78.3587L14.0157 78.1343L11.0241 78.3587ZM11.13 79.7691L8.13838 79.9936L11.13 79.7691ZM10.3452 118.636L7.44765 117.859L10.3452 118.636ZM10.1595 119.329L13.057 120.106L10.1595 119.329ZM9.97372 120.021L7.07619 119.244L9.97372 120.021ZM8.09748 130.047L10.5393 128.304L8.09748 130.047ZM8.14199 130.109L5.70014 131.852L5.75769 131.933L5.82043 132.009L8.14199 130.109ZM8.78986 130.901L11.768 131.262L11.9223 129.991L11.1114 129.001L8.78986 130.901ZM5.79968 130.638C5.59997 132.283 6.77142 133.778 8.4162 133.978C10.061 134.178 11.5562 133.006 11.7559 131.362L8.77781 131L5.79968 130.638ZM6.27349 8.46338L3.28256 8.69657L3.29033 8.79626L6.28126 8.56308L9.27218 8.32989L9.26441 8.23019L6.27349 8.46338ZM6.28126 8.56308L3.28191 8.62535L3.3112 10.0361L6.31055 9.97381L9.3099 9.91154L9.28061 8.5008L6.28126 8.56308ZM6.31055 9.97381L3.3112 10.0361C3.57094 22.5467 3.98271 31.9999 4.55343 38.3498L7.54138 38.0812L10.5293 37.8126C9.97779 31.6761 9.569 22.3911 9.3099 9.91154L6.31055 9.97381ZM7.54138 38.0812L4.55343 38.3498L4.61678 39.0546L7.60473 38.7861L10.5927 38.5175L10.5293 37.8126L7.54138 38.0812ZM7.60473 38.7861L4.61678 39.0546L4.68013 39.7595L7.66809 39.491L10.656 39.2224L10.5927 38.5175L7.60473 38.7861ZM7.66809 39.491L4.68013 39.7595C5.24127 46.0028 5.80261 52.2452 6.36416 58.4869L9.3521 58.2181L12.34 57.9492C11.7785 51.7078 11.2172 45.4655 10.656 39.2224L7.66809 39.491ZM9.3521 58.2181L6.36416 58.4869L6.42756 59.1916L9.4155 58.9228L12.4034 58.6539L12.34 57.9492L9.3521 58.2181ZM9.4155 58.9228L6.42756 59.1916L6.49096 59.8963L9.4789 59.6274L12.4668 59.3586L12.4034 58.6539L9.4155 58.9228ZM9.4789 59.6274L6.49096 59.8963C7.05118 66.123 7.56504 72.352 8.03256 78.5832L11.0241 78.3587L14.0157 78.1343C13.546 71.8735 13.0297 65.6149 12.4668 59.3586L9.4789 59.6274ZM11.0241 78.3587L8.03256 78.5832L8.08547 79.2884L11.0771 79.0639L14.0687 78.8395L14.0157 78.1343L11.0241 78.3587ZM11.0771 79.0639L8.08547 79.2884L8.13838 79.9936L11.13 79.7691L14.1216 79.5447L14.0687 78.8395L11.0771 79.0639ZM11.13 79.7691L8.13838 79.9936C8.605 86.2128 8.98955 92.4559 9.29201 98.7227L12.2885 98.5781L15.285 98.4335C14.98 92.1137 14.5922 85.8174 14.1216 79.5447L11.13 79.7691ZM12.2885 98.5781L9.29201 98.7227L9.32631 99.4333L12.3228 99.2887L15.3193 99.144L15.285 98.4335L12.2885 98.5781ZM12.3228 99.2887L9.32631 99.4333L9.3606 100.144L12.3571 99.9992L15.3536 99.8546L15.3193 99.144L12.3228 99.2887ZM12.3571 99.9992L9.3606 100.144C9.64924 106.124 9.01272 112.026 7.44765 117.859L10.3452 118.636L13.2427 119.414C14.9677 112.984 15.6725 106.461 15.3536 99.8546L12.3571 99.9992ZM10.3452 118.636L7.44765 117.859L7.26192 118.551L10.1595 119.329L13.057 120.106L13.2427 119.414L10.3452 118.636ZM10.1595 119.329L7.26192 118.551L7.07619 119.244L9.97372 120.021L12.8713 120.798L13.057 120.106L10.1595 119.329ZM9.97372 120.021L7.07619 119.244C6.24762 122.332 5.65627 124.788 5.32208 126.574C5.15687 127.457 5.03814 128.26 4.99828 128.932C4.97859 129.263 4.97231 129.65 5.01592 130.041C5.04921 130.34 5.15077 131.082 5.65563 131.79L8.09748 130.047L10.5393 128.304C10.7666 128.622 10.8679 128.91 10.9121 129.059C10.9592 129.218 10.9742 129.334 10.979 129.377C10.9878 129.455 10.9785 129.442 10.9877 129.287C11.0057 128.985 11.0722 128.466 11.2197 127.678C11.5109 126.122 12.0548 123.842 12.8713 120.798L9.97372 120.021ZM8.09748 130.047L5.65563 131.79L5.70014 131.852L8.14199 130.109L10.5838 128.366L10.5393 128.304L8.09748 130.047ZM8.14199 130.109L5.82043 132.009L6.4683 132.801L8.78986 130.901L11.1114 129.001L10.4636 128.209L8.14199 130.109ZM8.78986 130.901L5.81174 130.539L5.79968 130.638L8.77781 131L11.7559 131.362L11.768 131.262L8.78986 130.901Z" fill="black"/>
<path d="M128.91 2.99444C128.907 1.33759 127.561 -0.00306581 125.904 5.20893e-06C124.247 0.00307599 122.907 1.34871 122.91 3.00556L125.91 3L128.91 2.99444ZM125.91 3.1L128.907 3.24518L128.91 3.16985L128.91 3.09444L125.91 3.1ZM125.842 4.50619L122.845 4.36101V4.36101L125.842 4.50619ZM124.516 33.9774L121.518 33.8605L124.516 33.9774ZM123.121 73.6845L120.121 73.6689L123.121 73.6845ZM124.716 93.059L127.67 92.5324L124.716 93.059ZM126.106 113.857L123.11 113.707L126.106 113.857ZM126.24 125.269L123.57 126.636L126.24 125.269ZM126.288 125.363L123.618 126.73L123.637 126.766L123.656 126.802L126.288 125.363ZM126.969 126.608L129.96 126.378L129.911 125.735L129.601 125.168L126.969 126.608ZM123.986 126.937C124.112 128.589 125.554 129.825 127.206 129.699C128.858 129.572 130.095 128.13 129.968 126.478L126.977 126.707L123.986 126.937ZM125.91 3L122.91 3.00556L122.91 3.10556L125.91 3.1L128.91 3.09444L128.91 2.99444L125.91 3ZM125.91 3.1L122.914 2.95482L122.845 4.36101L125.842 4.50619L128.838 4.65137L128.907 3.24518L125.91 3.1ZM125.842 4.50619L122.845 4.36101C122.242 16.818 121.818 26.1826 121.574 32.4489L124.571 32.5657L127.569 32.6826C127.812 26.4457 128.235 17.104 128.838 4.65137L125.842 4.50619ZM124.571 32.5657L121.574 32.4489L121.546 33.1547L124.544 33.2715L127.541 33.3884L127.569 32.6826L124.571 32.5657ZM124.544 33.2715L121.546 33.1547L121.518 33.8605L124.516 33.9774L127.514 34.0942L127.541 33.3884L124.544 33.2715ZM124.516 33.9774L121.518 33.8605C121.275 40.1027 121.002 46.35 120.7 52.6026L123.696 52.7475L126.693 52.8924C126.996 46.6212 127.27 40.3551 127.514 34.0942L124.516 33.9774ZM123.696 52.7475L120.7 52.6026L120.666 53.3095L123.662 53.4545L126.659 53.5994L126.693 52.8924L123.696 52.7475ZM123.662 53.4545L120.666 53.3095L120.632 54.0165L123.628 54.1614L126.625 54.3064L126.659 53.5994L123.662 53.4545ZM123.628 54.1614L120.632 54.0165C120.327 60.3215 120.158 66.6359 120.125 72.9597L123.125 72.9754L126.125 72.9911C126.157 66.7533 126.324 60.5251 126.625 54.3064L123.628 54.1614ZM123.125 72.9754L120.125 72.9597L120.121 73.6689L123.121 73.6845L126.121 73.7002L126.125 72.9911L123.125 72.9754ZM123.121 73.6845L120.121 73.6689L120.117 74.378L123.117 74.3936L126.117 74.4093L126.121 73.7002L123.121 73.6845ZM123.117 74.3936L120.117 74.378C120.084 80.8399 120.632 87.2432 121.763 93.5855L124.716 93.059L127.67 92.5324C126.603 86.5492 126.085 80.5089 126.117 74.4093L123.117 74.3936ZM124.716 93.059L121.763 93.5855L121.887 94.2813L124.84 93.7548L127.794 93.2282L127.67 92.5324L124.716 93.059ZM124.84 93.7548L121.887 94.2813L122.011 94.9771L124.964 94.4505L127.918 93.924L127.794 93.2282L124.84 93.7548ZM124.964 94.4505L122.011 94.9771C123.069 100.915 123.448 106.92 123.145 112.996L126.142 113.145L129.138 113.294C129.463 106.77 129.056 100.311 127.918 93.924L124.964 94.4505ZM126.142 113.145L123.145 112.996L123.11 113.707L126.106 113.857L129.102 114.006L129.138 113.294L126.142 113.145ZM126.106 113.857L123.11 113.707L123.074 114.419L126.071 114.568L129.067 114.717L129.102 114.006L126.106 113.857ZM126.071 114.568L123.074 114.419C122.916 117.593 122.848 120.135 122.878 122.016C122.893 122.952 122.933 123.777 123.008 124.459C123.068 125.01 123.187 125.888 123.57 126.636L126.24 125.269L128.911 123.902C129.08 124.233 129.032 124.352 128.972 123.803C128.926 123.385 128.891 122.768 128.877 121.921C128.851 120.234 128.911 117.843 129.067 114.717L126.071 114.568ZM126.24 125.269L123.57 126.636L123.618 126.73L126.288 125.363L128.959 123.996L128.911 123.902L126.24 125.269ZM126.288 125.363L123.656 126.802L124.337 128.047L126.969 126.608L129.601 125.168L128.921 123.923L126.288 125.363ZM126.969 126.608L123.978 126.837L123.986 126.937L126.977 126.707L129.968 126.478L129.96 126.378L126.969 126.608Z" fill="black"/>
<path d="M129.743 15.0294C131.4 15.0089 132.726 13.6493 132.706 11.9925C132.685 10.3358 131.326 9.00937 129.669 9.02985L129.706 12.0296L129.743 15.0294ZM129.606 12.0309L129.488 15.0285L129.565 15.0316L129.643 15.0306L129.606 12.0309ZM100.119 11.0628L100.175 8.06331L100.119 11.0628ZM99.4126 11.0496L99.3565 14.0491L99.4126 11.0496ZM98.7063 11.0364L98.7624 8.03689L98.7063 11.0364ZM78.5273 10.4024L78.6546 7.40511L78.5273 10.4024ZM59.0545 9.41526L59.2292 6.42035L59.0545 9.41526ZM58.3482 9.37405L58.5229 6.37915L58.3482 9.37405ZM38.1623 8.75119L38.1833 5.75127L38.1623 8.75119ZM19.3477 9.25465L19.167 6.2601L19.3477 9.25465ZM18.6383 9.29748L18.819 12.292L18.6383 9.29748ZM17.9288 9.3403L17.748 6.34576L17.9288 9.3403ZM5.75192 11.884L4.0026 9.44677L3.99003 9.4558L3.97755 9.46495L5.75192 11.884ZM3.09697 13.8314L3.91425 16.7179L4.43497 16.5705L4.87135 16.2504L3.09697 13.8314ZM2.18347 10.9721C0.58928 11.4235 -0.337143 13.0817 0.114227 14.6759C0.565597 16.2701 2.22385 17.1965 3.81804 16.7452L3.00076 13.8586L2.18347 10.9721ZM129.706 12.0296L129.669 9.02985L129.569 9.03109L129.606 12.0309L129.643 15.0306L129.743 15.0294L129.706 12.0296ZM129.606 12.0309L129.724 9.03319L128.317 8.97771L128.199 11.9754L128.081 14.9731L129.488 15.0285L129.606 12.0309ZM128.199 11.9754L128.317 8.97771C115.848 8.48613 106.463 8.18091 100.175 8.06331L100.119 11.0628L100.063 14.0623C106.286 14.1787 115.621 14.4818 128.081 14.9731L128.199 11.9754ZM100.119 11.0628L100.175 8.06331L99.4687 8.0501L99.4126 11.0496L99.3565 14.0491L100.063 14.0623L100.119 11.0628ZM99.4126 11.0496L99.4687 8.0501L98.7624 8.03689L98.7063 11.0364L98.6502 14.0358L99.3565 14.0491L99.4126 11.0496ZM98.7063 11.0364L98.7624 8.03689C92.5303 7.92033 86.2986 7.72973 80.067 7.46509L79.9397 10.4624L79.8125 13.4597C86.0914 13.7263 92.3706 13.9184 98.6502 14.0358L98.7063 11.0364ZM79.9397 10.4624L80.067 7.46509L79.3608 7.4351L79.2335 10.4324L79.1062 13.4297L79.8125 13.4597L79.9397 10.4624ZM79.2335 10.4324L79.3608 7.4351L78.6546 7.40511L78.5273 10.4024L78.4 13.3997L79.1062 13.4297L79.2335 10.4324ZM78.5273 10.4024L78.6546 7.40511C72.4152 7.14013 66.1755 6.82561 59.9355 6.46156L59.7608 9.45647L59.5861 12.4514C65.8576 12.8173 72.1289 13.1334 78.4 13.3997L78.5273 10.4024ZM59.7608 9.45647L59.9355 6.46156L59.2292 6.42035L59.0545 9.41526L58.8798 12.4102L59.5861 12.4514L59.7608 9.45647ZM59.0545 9.41526L59.2292 6.42035L58.5229 6.37915L58.3482 9.37405L58.1735 12.369L58.8798 12.4102L59.0545 9.41526ZM58.3482 9.37405L58.5229 6.37915C52.216 6.01119 45.9072 5.80518 39.5966 5.76113L39.5757 8.76106L39.5548 11.761C45.7626 11.8043 51.9689 12.007 58.1735 12.369L58.3482 9.37405ZM39.5757 8.76106L39.5966 5.76113L38.8899 5.7562L38.869 8.75613L38.8481 11.7561L39.5548 11.761L39.5757 8.76106ZM38.869 8.75613L38.8899 5.7562L38.1833 5.75127L38.1623 8.75119L38.1414 11.7511L38.8481 11.7561L38.869 8.75613ZM38.1623 8.75119L38.1833 5.75127C31.8564 5.70711 25.5176 5.87675 19.167 6.2601L19.3477 9.25465L19.5285 12.2492C25.7456 11.8739 31.9498 11.7079 38.1414 11.7511L38.1623 8.75119ZM19.3477 9.25465L19.167 6.2601L18.4575 6.30293L18.6383 9.29748L18.819 12.292L19.5285 12.2492L19.3477 9.25465ZM18.6383 9.29748L18.4575 6.30293L17.748 6.34576L17.9288 9.3403L18.1096 12.3349L18.819 12.292L18.6383 9.29748ZM17.9288 9.3403L17.748 6.34576C14.534 6.53977 11.8139 6.84638 9.62949 7.28482C7.53429 7.70536 5.58624 8.31011 4.19518 9.30855L5.9445 11.7457L7.69382 14.1829C8.00849 13.9571 8.91068 13.5488 10.8102 13.1675C12.6206 12.8041 15.0398 12.5202 18.1096 12.3349L17.9288 9.3403ZM5.9445 11.7457L4.19518 9.30855L4.0026 9.44677L5.75192 11.884L7.50124 14.3212L7.69382 14.1829L5.9445 11.7457ZM5.75192 11.884L3.97755 9.46495L1.3226 11.4124L3.09697 13.8314L4.87135 16.2504L7.52629 14.303L5.75192 11.884ZM3.09697 13.8314L2.27969 10.9449L2.18347 10.9721L3.00076 13.8586L3.81804 16.7452L3.91425 16.7179L3.09697 13.8314Z" fill="black"/>
<path d="M131.129 119.949C132.785 119.877 134.069 118.478 133.998 116.823C133.927 115.167 132.527 113.883 130.872 113.954L131.001 116.951L131.129 119.949ZM130.901 116.956L130.868 119.955L130.949 119.956L131.029 119.953L130.901 116.956ZM101.374 117.049L101.474 120.047L101.474 120.047L101.374 117.049ZM99.9598 117.096L100.06 120.094V120.094L99.9598 117.096ZM80.4611 117.765L80.5662 120.763L80.4611 117.765ZM60.9547 118.562L60.8137 115.565L60.9547 118.562ZM60.2472 118.595L60.3882 121.592L60.2472 118.595ZM40.765 120.075L41.0846 123.058L40.765 120.075ZM40.0593 120.151L39.7396 117.168L40.0593 120.151ZM39.3537 120.227L39.6733 123.209L39.3537 120.227ZM20.587 119.972L20.9857 116.999L20.587 119.972ZM19.8801 119.877L19.4815 122.851L19.8801 119.877ZM19.1733 119.783L19.5719 116.809L19.1733 119.783ZM6.62862 119.042L7.11552 122.002L6.62862 119.042ZM6.39128 119.081L5.90438 116.121L5.89655 116.122L5.88873 116.124L6.39128 119.081ZM3.10072 119.64L3.0574 122.64L3.33226 122.644L3.60327 122.598L3.10072 119.64ZM3.04406 116.639C1.38738 116.615 0.0249789 117.939 0.00103767 119.596C-0.0228884 121.252 1.30072 122.615 2.95741 122.639L3.00073 119.639L3.04406 116.639ZM131.001 116.951L130.872 113.954L130.772 113.958L130.901 116.956L131.029 119.953L131.129 119.949L131.001 116.951ZM130.901 116.956L130.934 113.956L129.524 113.94L129.491 116.94L129.458 119.94L130.868 119.955L130.901 116.956ZM129.491 116.94L129.524 113.94C117.03 113.803 107.604 113.839 101.273 114.051L101.374 117.049L101.474 120.047C107.666 119.84 116.985 119.803 129.458 119.94L129.491 116.94ZM101.374 117.049L101.273 114.051L100.566 114.074L100.667 117.072L100.767 120.071L101.474 120.047L101.374 117.049ZM100.667 117.072L100.566 114.074L99.8594 114.098L99.9598 117.096L100.06 120.094L100.767 120.071L100.667 117.072ZM99.9598 117.096L99.8594 114.098C93.5965 114.308 87.3312 114.522 81.0634 114.742L81.1686 117.74L81.2737 120.738C87.5383 120.519 93.8005 120.304 100.06 120.094L99.9598 117.096ZM81.1686 117.74L81.0634 114.742L80.3559 114.767L80.4611 117.765L80.5662 120.763L81.2737 120.738L81.1686 117.74ZM80.4611 117.765L80.3559 114.767L79.6485 114.792L79.7536 117.79L79.8588 120.788L80.5662 120.763L80.4611 117.765ZM79.7536 117.79L79.6485 114.792C73.3703 115.012 67.092 115.27 60.8137 115.565L60.9547 118.562L61.0957 121.558C67.3501 121.264 73.6045 121.007 79.8588 120.788L79.7536 117.79ZM60.9547 118.562L60.8137 115.565L60.1062 115.598L60.2472 118.595L60.3882 121.592L61.0957 121.558L60.9547 118.562ZM60.2472 118.595L60.1062 115.598L59.3987 115.632L59.5397 118.628L59.6807 121.625L60.3882 121.592L60.2472 118.595ZM59.5397 118.628L59.3987 115.632C53.0726 115.929 46.7547 116.416 40.4453 117.092L40.765 120.075L41.0846 123.058C47.2755 122.395 53.4742 121.917 59.6807 121.625L59.5397 118.628ZM40.765 120.075L40.4453 117.092L39.7396 117.168L40.0593 120.151L40.379 123.134L41.0846 123.058L40.765 120.075ZM40.0593 120.151L39.7396 117.168L39.034 117.244L39.3537 120.227L39.6733 123.209L40.379 123.134L40.0593 120.151ZM39.3537 120.227L39.034 117.244C33.024 117.888 27.0096 117.806 20.9857 116.999L20.587 119.972L20.1884 122.946C26.6863 123.817 33.1831 123.905 39.6733 123.209L39.3537 120.227ZM20.587 119.972L20.9857 116.999L20.2788 116.904L19.8801 119.877L19.4815 122.851L20.1884 122.946L20.587 119.972ZM19.8801 119.877L20.2788 116.904L19.5719 116.809L19.1733 119.783L18.7746 122.756L19.4815 122.851L19.8801 119.877ZM19.1733 119.783L19.5719 116.809C13.3856 115.98 8.75829 115.652 6.14172 116.082L6.62862 119.042L7.11552 122.002C8.70323 121.741 12.439 121.907 18.7746 122.756L19.1733 119.783ZM6.62862 119.042L6.14172 116.082L5.90438 116.121L6.39128 119.081L6.87818 122.041L7.11552 122.002L6.62862 119.042ZM6.39128 119.081L5.88873 116.124L2.59818 116.683L3.10072 119.64L3.60327 122.598L6.89383 122.039L6.39128 119.081ZM3.10072 119.64L3.14405 116.641L3.04406 116.639L3.00073 119.639L2.95741 122.639L3.0574 122.64L3.10072 119.64Z" fill="black"/>
</svg>
