<svg width="361" height="171" viewBox="0 0 361 171" fill="none" xmlns="http://www.w3.org/2000/svg">
<path d="M14.9959 9.84293C14.909 8.18836 13.4973 6.91749 11.8427 7.00437C10.1882 7.09125 8.9173 8.50298 9.00418 10.1576L12.0001 10.0002L14.9959 9.84293ZM12.0053 10.1001L15.0053 10.0861L15.0049 10.0144L15.0012 9.94279L12.0053 10.1001ZM12.077 39.562L9.07706 39.555L12.077 39.562ZM12.0754 40.2686L15.0754 40.2756L12.0754 40.2686ZM12.0738 40.9751L15.0737 40.9821L12.0738 40.9751ZM11.8853 59.7613L8.8858 59.7082L11.8853 59.7613ZM11.8603 61.1763L14.8598 61.2294L11.8603 61.1763ZM12.1722 100.21L9.17892 100.412L12.1722 100.21ZM12.2197 100.918L15.213 100.717L12.2197 100.918ZM12.123 120.456L9.13313 120.21L12.123 120.456ZM12.0646 121.166L15.0545 121.412L12.0646 121.166ZM12.0063 121.876L9.01635 121.63L12.0063 121.876ZM12.5557 140.675L15.5261 140.255L12.5557 140.675ZM12.6554 141.38L9.685 141.801L12.6554 141.38ZM12.7552 142.086L15.7256 141.665L12.7552 142.086ZM12.5264 159.147L15.4671 159.741L12.5264 159.147ZM12.4095 159.727L9.46883 159.133L12.4095 159.727ZM12.2925 160.306L15.2331 160.9L12.2925 160.306ZM11.3693 168L11.3693 171L11.6037 171L11.8353 170.964L11.3693 168ZM12.0046 167.9L15.0015 168.036L15.168 164.366L11.5386 164.937L12.0046 167.9ZM9.00313 167.864C8.92804 169.519 10.2089 170.922 11.8641 170.997C13.5192 171.072 14.9219 169.791 14.997 168.136L12.0001 168L9.00313 167.864ZM12.0001 10.0002L9.00418 10.1576L9.00943 10.2574L12.0053 10.1001L15.0012 9.94279L14.9959 9.84293L12.0001 10.0002ZM12.0053 10.1001L9.00533 10.1141L9.01188 11.5193L12.0119 11.5054L15.0118 11.4914L15.0053 10.0861L12.0053 10.1001ZM12.0119 11.5054L9.01188 11.5193C9.06992 23.9642 9.09161 33.3079 9.07706 39.555L12.077 39.562L15.077 39.569C15.0916 33.3002 15.0699 23.9394 15.0118 11.4914L12.0119 11.5054ZM12.077 39.562L9.07706 39.555L9.07541 40.2616L12.0754 40.2686L15.0754 40.2756L15.077 39.569L12.077 39.562ZM12.0754 40.2686L9.07541 40.2616L9.07376 40.9681L12.0738 40.9751L15.0737 40.9821L15.0754 40.2756L12.0754 40.2686ZM12.0738 40.9751L9.07376 40.9681C9.05922 47.2107 8.99657 53.4574 8.8858 59.7082L11.8853 59.7613L14.8849 59.8145C14.9962 53.533 15.0591 47.2555 15.0737 40.9821L12.0738 40.9751ZM11.8853 59.7613L8.8858 59.7082L8.87327 60.4157L11.8728 60.4688L14.8723 60.522L14.8849 59.8145L11.8853 59.7613ZM11.8728 60.4688L8.87327 60.4157L8.86073 61.1231L11.8603 61.1763L14.8598 61.2294L14.8723 60.522L11.8728 60.4688ZM11.8603 61.1763L8.86073 61.1231C8.74951 67.3995 8.67013 73.6793 8.62259 79.9626L11.6225 79.9853L14.6224 80.008C14.6698 73.745 14.7489 67.4855 14.8598 61.2294L11.8603 61.1763ZM11.6225 79.9853L8.62259 79.9626L8.61723 80.6709L11.6171 80.6936L14.6171 80.7163L14.6224 80.008L11.6225 79.9853ZM11.6171 80.6936L8.61723 80.6709L8.61187 81.3792L11.6118 81.4018L14.6117 81.4245L14.6171 80.7163L11.6171 80.6936ZM11.6118 81.4018L8.61187 81.3792C8.56384 87.7271 8.75286 94.0713 9.17892 100.412L12.1722 100.21L15.1654 100.009C14.7494 93.8178 14.5648 87.623 14.6117 81.4245L11.6118 81.4018ZM12.1722 100.21L9.17892 100.412L9.22646 101.119L12.2197 100.918L15.213 100.717L15.1654 100.009L12.1722 100.21ZM12.2197 100.918L9.22646 101.119L9.274 101.826L12.2672 101.625L15.2605 101.424L15.213 100.717L12.2197 100.918ZM12.2672 101.625L9.274 101.826C9.685 107.943 9.63815 114.07 9.13313 120.21L12.123 120.456L15.1129 120.702C15.6423 114.266 15.6916 107.84 15.2605 101.424L12.2672 101.625ZM12.123 120.456L9.13313 120.21L9.07474 120.92L12.0646 121.166L15.0545 121.412L15.1129 120.702L12.123 120.456ZM12.0646 121.166L9.07474 120.92L9.01635 121.63L12.0063 121.876L14.9962 122.122L15.0545 121.412L12.0646 121.166ZM12.0063 121.876L9.01635 121.63C8.48089 128.14 8.67055 134.63 9.58525 141.096L12.5557 140.675L15.5261 140.255C14.6738 134.231 14.4972 128.188 14.9962 122.122L12.0063 121.876ZM12.5557 140.675L9.58525 141.096L9.685 141.801L12.6554 141.38L15.6258 140.96L15.5261 140.255L12.5557 140.675ZM12.6554 141.38L9.685 141.801L9.78474 142.506L12.7552 142.086L15.7256 141.665L15.6258 140.96L12.6554 141.38ZM12.7552 142.086L9.78474 142.506C10.63 148.481 10.5421 153.818 9.58579 158.554L12.5264 159.147L15.4671 159.741C16.5827 154.217 16.6473 148.18 15.7256 141.665L12.7552 142.086ZM12.5264 159.147L9.58579 158.554L9.46883 159.133L12.4095 159.727L15.3501 160.32L15.4671 159.741L12.5264 159.147ZM12.4095 159.727L9.46883 159.133L9.35187 159.712L12.2925 160.306L15.2331 160.9L15.3501 160.32L12.4095 159.727ZM12.2925 160.306L9.35187 159.712C8.83084 162.292 8.47281 164.305 8.29711 165.702C8.21252 166.375 8.15178 167.042 8.1667 167.6C8.17313 167.84 8.19607 168.317 8.3645 168.825C8.46568 169.13 9.17387 171 11.3251 171L11.3251 168L11.3251 165C13.3787 165 14.0114 166.791 14.0594 166.936C14.1746 167.283 14.1667 167.519 14.1646 167.439C14.1623 167.356 14.1736 167.06 14.2503 166.451C14.397 165.284 14.7182 163.449 15.2331 160.9L12.2925 160.306ZM11.3251 168L11.3251 171L11.3693 171L11.3693 168L11.3693 165L11.3251 165L11.3251 168ZM11.3693 168L11.8353 170.964L12.4706 170.864L12.0046 167.9L11.5386 164.937L10.9033 165.037L11.3693 168ZM12.0046 167.9L9.00767 167.764L9.00313 167.864L12.0001 168L14.997 168.136L15.0015 168.036L12.0046 167.9Z" fill="black"/>
<path d="M343.982 2.67319C343.802 1.02621 342.32 -0.162503 340.673 0.018125C339.026 0.198753 337.837 1.68032 338.018 3.3273L341 3.00024L343.982 2.67319ZM341.011 3.09965L344.007 2.94338L344.002 2.85779L343.993 2.77259L341.011 3.09965ZM343.155 32.5635L340.176 32.9129L343.155 32.5635ZM343.238 33.2659L346.217 32.9165L343.238 33.2659ZM345.236 52.6417L348.224 52.3787L345.236 52.6417ZM345.298 53.3449L342.309 53.6078L345.298 53.3449ZM345.36 54.0481L348.348 53.7851L345.36 54.0481ZM346.398 73.4732L349.397 73.4089L346.398 73.4732ZM346.592 93.6982L343.592 93.6917L346.592 93.6982ZM344.865 113.168L347.816 113.708L344.865 113.168ZM344.736 113.87L341.785 113.331L344.736 113.87ZM344.608 114.573L347.559 115.112L344.608 114.573ZM343.997 133.313L346.977 132.967L343.997 133.313ZM344.162 134.73L341.182 135.077L344.162 134.73ZM343.965 152.802L346.932 153.245L343.965 152.802ZM343.874 153.408L340.907 152.966L343.874 153.408ZM343.26 161.479L343.353 158.481L343.26 161.479ZM343.304 161.481L343.21 164.479L343.447 164.486L343.682 164.457L343.304 161.481ZM343.936 161.4L346.935 161.44L346.981 157.989L343.557 158.424L343.936 161.4ZM340.934 161.461C340.913 163.117 342.238 164.478 343.895 164.5C345.551 164.522 346.912 163.196 346.934 161.54L343.934 161.5L340.934 161.461ZM341 3.00024L338.018 3.3273L338.029 3.4267L341.011 3.09965L343.993 2.77259L343.982 2.67319L341 3.00024ZM341.011 3.09965L338.015 3.25591L338.089 4.66522L341.084 4.50895L344.08 4.35269L344.007 2.94338L341.011 3.09965ZM341.084 4.50895L338.089 4.66522C338.74 17.1621 339.434 26.5925 340.176 32.9129L343.155 32.5635L346.135 32.2141C345.417 26.0933 344.731 16.8206 344.08 4.35269L341.084 4.50895ZM343.155 32.5635L340.176 32.9129L340.258 33.6152L343.238 33.2659L346.217 32.9165L346.135 32.2141L343.155 32.5635ZM343.238 33.2659L340.258 33.6152L340.34 34.3176L343.32 33.9682L346.299 33.6188L346.217 32.9165L343.238 33.2659ZM343.32 33.9682L340.34 34.3176C341.066 40.5095 341.702 46.7051 342.247 52.9046L345.236 52.6417L348.224 52.3787C347.674 46.1215 347.032 39.8682 346.299 33.6188L343.32 33.9682ZM345.236 52.6417L342.247 52.9046L342.309 53.6078L345.298 53.3449L348.286 53.0819L348.224 52.3787L345.236 52.6417ZM345.298 53.3449L342.309 53.6078L342.371 54.311L345.36 54.0481L348.348 53.7851L348.286 53.0819L345.298 53.3449ZM345.36 54.0481L342.371 54.311C342.913 60.4732 343.251 66.6468 343.383 72.8317L346.383 72.7674L349.382 72.7031C349.246 66.3856 348.902 60.0795 348.348 53.7851L345.36 54.0481ZM346.383 72.7674L343.383 72.8317L343.398 73.5375L346.398 73.4732L349.397 73.4089L349.382 72.7031L346.383 72.7674ZM346.398 73.4732L343.398 73.5375L343.414 74.2433L346.413 74.179L349.412 74.1147L349.397 73.4089L346.398 73.4732ZM346.413 74.179L343.414 74.2433C343.547 80.4708 343.607 86.7169 343.594 92.9818L346.594 92.9883L349.594 92.9947C349.607 86.683 349.547 80.3896 349.412 74.1147L346.413 74.179ZM346.594 92.9883L343.594 92.9818L343.592 93.6917L346.592 93.6982L349.592 93.7047L349.594 92.9947L346.594 92.9883ZM346.592 93.6982L343.592 93.6917L343.591 94.4017L346.591 94.4082L349.59 94.4147L349.592 93.7047L346.592 93.6982ZM346.591 94.4082L343.591 94.4017C343.577 100.51 343.019 106.585 341.914 112.629L344.865 113.168L347.816 113.708C348.985 107.314 349.577 100.883 349.59 94.4147L346.591 94.4082ZM344.865 113.168L341.914 112.629L341.785 113.331L344.736 113.87L347.687 114.41L347.816 113.708L344.865 113.168ZM344.736 113.87L341.785 113.331L341.657 114.033L344.608 114.573L347.559 115.112L347.687 114.41L344.736 113.87ZM344.608 114.573L341.657 114.033C340.466 120.544 340.253 127.089 341.017 133.66L343.997 133.313L346.977 132.967C346.282 126.987 346.475 121.038 347.559 115.112L344.608 114.573ZM343.997 133.313L341.017 133.66L341.099 134.368L344.079 134.022L347.059 133.675L346.977 132.967L343.997 133.313ZM344.079 134.022L341.099 134.368L341.182 135.077L344.162 134.73L347.142 134.384L347.059 133.675L344.079 134.022ZM344.162 134.73L341.182 135.077C341.886 141.132 341.844 146.685 341.088 151.754L344.055 152.196L347.022 152.639C347.868 146.97 347.897 140.88 347.142 134.384L344.162 134.73ZM344.055 152.196L341.088 151.754L340.998 152.36L343.965 152.802L346.932 153.245L347.022 152.639L344.055 152.196ZM343.965 152.802L340.998 152.36L340.907 152.966L343.874 153.408L346.841 153.851L346.932 153.245L343.965 152.802ZM343.874 153.408L340.907 152.966C340.505 155.665 340.24 157.767 340.129 159.225C340.075 159.929 340.047 160.611 340.085 161.174C340.102 161.422 340.145 161.876 340.314 162.352C340.386 162.557 341.058 164.412 343.166 164.478L343.26 161.479L343.353 158.481C345.363 158.543 345.956 160.312 345.968 160.346C346.077 160.652 346.077 160.852 346.071 160.762C346.063 160.649 346.063 160.32 346.111 159.68C346.205 158.447 346.443 156.52 346.841 153.851L343.874 153.408ZM343.26 161.479L343.166 164.478L343.21 164.479L343.304 161.481L343.397 158.482L343.353 158.481L343.26 161.479ZM343.304 161.481L343.682 164.457L344.314 164.376L343.936 161.4L343.557 158.424L342.925 158.505L343.304 161.481ZM343.936 161.4L340.936 161.361L340.934 161.461L343.934 161.5L346.934 161.54L346.935 161.44L343.936 161.4Z" fill="black"/>
<path d="M351.491 17.5691C353.148 17.5405 354.467 16.1743 354.439 14.5177C354.41 12.8611 353.044 11.5414 351.387 11.57L351.439 14.5696L351.491 17.5691ZM351.339 14.5713L351.224 17.5691L351.308 17.5723L351.391 17.5709L351.339 14.5713ZM349.932 14.5174L350.047 11.5196L349.932 14.5174ZM321.123 13.9965L321.181 16.996L321.123 13.9965ZM261.175 16.1632L261.432 19.1522L261.175 16.1632ZM240.951 15.9033L241.327 12.9269L240.951 15.9033ZM220.724 15.7223L221.1 18.6987L220.724 15.7223ZM219.31 15.9006L218.935 12.9241L219.31 15.9006ZM200.501 16.0947L200.814 13.1112L200.501 16.0947ZM199.083 15.9457L198.77 18.9292L199.083 15.9457ZM180.266 15.3698L180.398 18.3669L180.266 15.3698ZM179.558 15.401L179.69 18.3981L179.558 15.401ZM160.043 15.3515L159.885 18.3474L160.043 15.3515ZM159.335 15.3143L159.492 12.3184L159.335 15.3143ZM158.627 15.277L158.469 18.2729L158.627 15.277ZM139.829 16.3774L140.332 19.335L139.829 16.3774ZM139.122 16.4975L138.62 13.5398L139.122 16.4975ZM138.415 16.6175L138.918 19.5752L138.415 16.6175ZM119.607 16.862L119.181 19.8316L119.607 16.862ZM118.898 16.7604L119.324 13.7908L118.898 16.7604ZM118.189 16.6587L117.763 19.6283L118.189 16.6587ZM99.3949 16.7618L98.9354 13.7972L99.3949 16.7618ZM97.9831 16.9806L98.4426 19.9452L97.9831 16.9806ZM79.1772 17.6338L79.431 14.6445L79.1772 17.6338ZM77.758 17.5133L77.5041 20.5025L77.758 17.5133ZM58.2389 16.4282L58.3235 13.4294L58.2389 16.4282ZM57.5325 16.4083L57.448 19.4071L57.5325 16.4083ZM38.736 16.9061L38.4938 13.9159L38.736 16.9061ZM37.3193 17.0209L37.5615 20.0111L37.3193 17.0209ZM18.5117 17.8675L18.5386 20.8674L18.5117 17.8675ZM17.8045 17.8739L17.7776 14.874V14.874L17.8045 17.8739ZM17.0973 17.8802L17.1241 20.8801L17.0973 17.8802ZM5.51511 17.4755L6.16986 14.5478L5.51511 17.4755ZM5.35056 17.4387L4.66977 20.3604L4.68277 20.3634L4.6958 20.3664L5.35056 17.4387ZM3.10001 16.9143L3.78082 13.9925L3.46365 13.9186L3.13803 13.9145L3.10001 16.9143ZM3.03806 13.9132C1.38135 13.8922 0.0212714 15.2182 0.000244266 16.875C-0.0207523 18.5317 1.30524 19.8918 2.96197 19.9128L3 16.913L3.03806 13.9132ZM351.439 14.5696L351.387 11.57L351.287 11.5718L351.339 14.5713L351.391 17.5709L351.491 17.5691L351.439 14.5696ZM351.339 14.5713L351.454 11.5735L350.047 11.5196L349.932 14.5174L349.817 17.5152L351.224 17.5691L351.339 14.5713ZM349.932 14.5174L350.047 11.5196C337.572 11.0415 328.135 10.8605 321.773 10.9834L321.831 13.9828L321.889 16.9823C328.072 16.8628 337.369 17.0381 349.817 17.5152L349.932 14.5174ZM321.831 13.9828L321.773 10.9834L321.065 10.9971L321.123 13.9965L321.181 16.996L321.889 16.9823L321.831 13.9828ZM321.123 13.9965L321.065 10.9971L320.357 11.0108L320.415 14.0102L320.473 17.0096L321.181 16.996L321.123 13.9965ZM320.415 14.0102L320.357 11.0108C314.08 11.1321 307.807 11.2675 301.538 11.417L301.61 14.4161L301.681 17.4153C307.941 17.266 314.204 17.1308 320.473 17.0096L320.415 14.0102ZM301.61 14.4161L301.538 11.417L300.831 11.4339L300.903 14.433L300.974 17.4321L301.681 17.4153L301.61 14.4161ZM300.903 14.433L300.831 11.4339L300.124 11.4507L300.195 14.4499L300.267 17.449L300.974 17.4321L300.903 14.433ZM300.195 14.4499L300.124 11.4507C293.85 11.6004 287.573 11.7813 281.291 11.9936L281.393 14.9919L281.494 17.9902C287.755 17.7786 294.013 17.5982 300.267 17.449L300.195 14.4499ZM281.393 14.9919L281.291 11.9936L280.583 12.0175L280.685 15.0158L280.786 18.0141L281.494 17.9902L281.393 14.9919ZM280.685 15.0158L280.583 12.0175L279.875 12.0414L279.977 15.0397L280.078 18.038L280.786 18.0141L280.685 15.0158ZM279.977 15.0397L279.875 12.0414C273.552 12.2551 267.234 12.6327 260.919 13.1741L261.175 16.1632L261.432 19.1522C267.643 18.6196 273.859 18.2482 280.078 18.038L279.977 15.0397ZM261.175 16.1632L260.919 13.1741L260.212 13.2348L260.468 16.2238L260.724 19.2128L261.432 19.1522L261.175 16.1632ZM260.468 16.2238L260.212 13.2348L259.505 13.2954L259.761 16.2844L260.017 19.2735L260.724 19.2128L260.468 16.2238ZM259.761 16.2844L259.505 13.2954C253.453 13.8143 247.395 13.6918 241.327 12.9269L240.951 15.9033L240.576 18.8798C247.061 19.6971 253.543 19.8287 260.017 19.2735L259.761 16.2844ZM240.951 15.9033L241.327 12.9269L240.618 12.8376L240.243 15.814L239.868 18.7905L240.576 18.8798L240.951 15.9033ZM240.243 15.814L240.618 12.8376L239.909 12.7482L239.534 15.7247L239.159 18.7011L239.868 18.7905L240.243 15.814ZM239.534 15.7247L239.909 12.7482C233.384 11.9258 226.862 11.9249 220.349 12.7458L220.724 15.7223L221.1 18.6987C227.113 17.9407 233.131 17.9414 239.159 18.7011L239.534 15.7247ZM220.724 15.7223L220.349 12.7458L219.642 12.835L220.017 15.8114L220.392 18.7879L221.1 18.6987L220.724 15.7223ZM220.017 15.8114L219.642 12.835L218.935 12.9241L219.31 15.9006L219.685 18.877L220.392 18.7879L220.017 15.8114ZM219.31 15.9006L218.935 12.9241C212.9 13.6848 206.861 13.7471 200.814 13.1112L200.501 16.0947L200.187 19.0783C206.692 19.7624 213.193 19.6953 219.685 18.877L219.31 15.9006ZM200.501 16.0947L200.814 13.1112L200.106 13.0367L199.792 16.0202L199.478 19.0037L200.187 19.0783L200.501 16.0947ZM199.792 16.0202L200.106 13.0367L199.397 12.9621L199.083 15.9457L198.77 18.9292L199.478 19.0037L199.792 16.0202ZM199.083 15.9457L199.397 12.9621C192.974 12.2866 186.552 12.09 180.134 12.3727L180.266 15.3698L180.398 18.3669C186.517 18.0973 192.64 18.2846 198.77 18.9292L199.083 15.9457ZM180.266 15.3698L180.134 12.3727L179.426 12.4039L179.558 15.401L179.69 18.3981L180.398 18.3669L180.266 15.3698ZM179.558 15.401L179.426 12.4039L178.718 12.4351L178.85 15.4322L178.982 18.4292L179.69 18.3981L179.558 15.401ZM178.85 15.4322L178.718 12.4351C172.546 12.7069 166.374 12.6805 160.2 12.3557L160.043 15.3515L159.885 18.3474C166.251 18.6824 172.617 18.7096 178.982 18.4292L178.85 15.4322ZM160.043 15.3515L160.2 12.3557L159.492 12.3184L159.335 15.3143L159.177 18.3101L159.885 18.3474L160.043 15.3515ZM159.335 15.3143L159.492 12.3184L158.785 12.2812L158.627 15.277L158.469 18.2729L159.177 18.3101L159.335 15.3143ZM158.627 15.277L158.785 12.2812C152.292 11.9395 145.804 12.3197 139.327 13.4197L139.829 16.3774L140.332 19.335C146.378 18.3082 152.423 17.9548 158.469 18.2729L158.627 15.277ZM139.829 16.3774L139.327 13.4197L138.62 13.5398L139.122 16.4975L139.625 19.4551L140.332 19.335L139.829 16.3774ZM139.122 16.4975L138.62 13.5398L137.913 13.6599L138.415 16.6175L138.918 19.5752L139.625 19.4551L139.122 16.4975ZM138.415 16.6175L137.913 13.6599C131.958 14.6713 126.001 14.7486 120.033 13.8924L119.607 16.862L119.181 19.8316C125.767 20.7764 132.349 20.6907 138.918 19.5752L138.415 16.6175ZM119.607 16.862L120.033 13.8924L119.324 13.7908L118.898 16.7604L118.472 19.73L119.181 19.8316L119.607 16.862ZM118.898 16.7604L119.324 13.7908L118.615 13.6891L118.189 16.6587L117.763 19.6283L118.472 19.73L118.898 16.7604ZM118.189 16.6587L118.615 13.6891C112.045 12.7466 105.482 12.7825 98.9354 13.7972L99.3949 16.7618L99.8544 19.7264C105.813 18.8028 111.779 18.7699 117.763 19.6283L118.189 16.6587ZM99.3949 16.7618L98.9354 13.7972L98.2295 13.9066L98.689 16.8712L99.1485 19.8358L99.8544 19.7264L99.3949 16.7618ZM98.689 16.8712L98.2295 13.9066L97.5236 14.016L97.9831 16.9806L98.4426 19.9452L99.1485 19.8358L98.689 16.8712ZM97.9831 16.9806L97.5236 14.016C91.5066 14.9487 85.4774 15.158 79.431 14.6445L79.1772 17.6338L78.9234 20.623C85.4471 21.177 91.9552 20.9508 98.4426 19.9452L97.9831 16.9806ZM79.1772 17.6338L79.431 14.6445L78.7214 14.5843L78.4676 17.5735L78.2137 20.5628L78.9234 20.623L79.1772 17.6338ZM78.4676 17.5735L78.7214 14.5843L78.0118 14.524L77.758 17.5133L77.5041 20.5025L78.2137 20.5628L78.4676 17.5735ZM77.758 17.5133L78.0118 14.524C71.6709 13.9856 65.3436 13.6273 59.0299 13.4493L58.9453 16.4481L58.8608 19.4469C65.0606 19.6217 71.275 19.9736 77.5041 20.5025L77.758 17.5133ZM58.9453 16.4481L59.0299 13.4493L58.3235 13.4294L58.2389 16.4282L58.1544 19.427L58.8608 19.4469L58.9453 16.4481ZM58.2389 16.4282L58.3235 13.4294L57.6171 13.4095L57.5325 16.4083L57.448 19.4071L58.1544 19.427L58.2389 16.4282ZM57.5325 16.4083L57.6171 13.4095C51.2507 13.23 44.8761 13.3989 38.4938 13.9159L38.736 16.9061L38.9783 19.8964C45.1444 19.3968 51.3008 19.2338 57.448 19.4071L57.5325 16.4083ZM38.736 16.9061L38.4938 13.9159L37.7854 13.9733L38.0276 16.9635L38.2699 19.9537L38.9783 19.8964L38.736 16.9061ZM38.0276 16.9635L37.7854 13.9733L37.077 14.0307L37.3193 17.0209L37.5615 20.0111L38.2699 19.9537L38.0276 16.9635ZM37.3193 17.0209L37.077 14.0307C30.8741 14.5333 24.6767 14.8122 18.4849 14.8677L18.5117 17.8675L18.5386 20.8674C24.8749 20.8107 31.2159 20.5252 37.5615 20.0111L37.3193 17.0209ZM18.5117 17.8675L18.4849 14.8677L17.7776 14.874L17.8045 17.8739L17.8314 20.8738L18.5386 20.8674L18.5117 17.8675ZM17.8045 17.8739L17.7776 14.874L17.0704 14.8803L17.0973 17.8802L17.1241 20.8801L17.8314 20.8738L17.8045 17.8739ZM17.0973 17.8802L17.0704 14.8803C13.959 14.9082 11.4766 14.8882 9.60843 14.8229C7.66205 14.7549 6.5925 14.6423 6.16986 14.5478L5.51511 17.4755L4.86035 20.4032C5.89505 20.6346 7.48453 20.7524 9.39886 20.8193C11.3914 20.8889 13.9715 20.9083 17.1241 20.8801L17.0973 17.8802ZM5.51511 17.4755L6.16986 14.5478L6.00531 14.511L5.35056 17.4387L4.6958 20.3664L4.86035 20.4032L5.51511 17.4755ZM5.35056 17.4387L6.03137 14.5169L3.78082 13.9925L3.10001 16.9143L2.41919 19.836L4.66977 20.3604L5.35056 17.4387ZM3.10001 16.9143L3.13803 13.9145L3.03806 13.9132L3 16.913L2.96197 19.9128L3.06195 19.914L3.10001 16.9143Z" fill="black"/>
<path d="M357.559 155.443C359.215 155.411 360.532 154.042 360.499 152.385C360.467 150.729 359.098 149.412 357.441 149.444L357.5 152.444L357.559 155.443ZM357.4 152.446L357.294 155.444L357.377 155.447L357.459 155.445L357.4 152.446ZM327.892 151.873L327.936 154.873L327.892 151.873ZM307.675 152.167L307.719 155.167L307.675 152.167ZM306.262 152.188L306.306 155.187L306.262 152.188ZM267.226 153.451L267.442 156.443L267.226 153.451ZM247.009 152.913L246.591 155.884L247.009 152.913ZM246.302 152.814L246.719 149.843L246.302 152.814ZM226.786 152.442L226.454 149.46L226.786 152.442ZM226.077 152.521L226.409 155.502L226.077 152.521ZM225.368 152.6L225.037 149.618L225.368 152.6ZM205.147 152.354L205.503 149.375L205.147 152.354ZM185.635 151.538L185.726 154.536L185.635 151.538ZM166.11 151.239L165.917 154.232L166.11 151.239ZM165.402 151.193L165.596 148.199L165.402 151.193ZM164.694 151.147L164.888 148.153L164.694 151.147ZM145.884 152.045L146.359 155.008L145.884 152.045ZM145.176 152.159L144.702 149.196L145.176 152.159ZM144.468 152.272L144.943 155.234L144.468 152.272ZM125.661 152.379L126.102 149.412L125.661 152.379ZM124.953 152.274L124.512 155.241L124.953 152.274ZM124.245 152.169L124.687 149.201L124.245 152.169ZM105.448 152.252L104.98 149.288L105.448 152.252ZM104.741 152.363L105.208 155.326L104.741 152.363ZM104.034 152.475L103.566 149.511L104.034 152.475ZM64.9874 152.102L64.9138 155.101L64.9874 152.102ZM64.28 152.085L64.3536 149.086L64.28 152.085ZM63.5727 152.067L63.4991 155.066L63.5727 152.067ZM44.0723 152.677L44.3209 155.667V155.667L44.0723 152.677ZM43.3651 152.736L43.6137 155.725L43.3651 152.736ZM8.74619 153.74L8.8009 156.74L8.74619 153.74ZM3.00003 153.144L0.0302735 152.719L3.05622e-05 152.931L3.04955e-05 153.144L3.00003 153.144ZM3.10001 152.445L6.06976 152.87L6.55075 149.509L3.15552 149.446L3.10001 152.445ZM3.05551 149.444C1.39896 149.413 0.0311897 150.732 0.000549531 152.388C-0.0300906 154.045 1.28796 155.412 2.94455 155.443L3.00003 152.444L3.05551 149.444ZM357.5 152.444L357.441 149.444L357.341 149.446L357.4 152.446L357.459 155.445L357.559 155.443L357.5 152.444ZM357.4 152.446L357.506 149.448L356.099 149.398L355.993 152.396L355.888 155.394L357.294 155.444L357.4 152.446ZM355.993 152.396L356.099 149.398C343.627 148.959 334.2 148.782 327.849 148.874L327.892 151.873L327.936 154.873C334.132 154.784 343.439 154.956 355.888 155.394L355.993 152.396ZM327.892 151.873L327.849 148.874L327.141 148.884L327.184 151.884L327.227 154.883L327.936 154.873L327.892 151.873ZM327.184 151.884L327.141 148.884L326.432 148.894L326.476 151.894L326.519 154.894L327.227 154.883L327.184 151.884ZM326.476 151.894L326.432 148.894C320.159 148.985 313.892 149.076 307.631 149.167L307.675 152.167L307.719 155.167C313.979 155.075 320.246 154.984 326.519 154.894L326.476 151.894ZM307.675 152.167L307.631 149.167L306.925 149.178L306.969 152.177L307.013 155.177L307.719 155.167L307.675 152.167ZM306.969 152.177L306.925 149.178L306.218 149.188L306.262 152.188L306.306 155.187L307.013 155.177L306.969 152.177ZM306.262 152.188L306.218 149.188C299.95 149.28 293.676 149.395 287.394 149.533L287.46 152.532L287.526 155.532C293.793 155.394 300.053 155.279 306.306 155.187L306.262 152.188ZM287.46 152.532L287.394 149.533L286.686 149.549L286.752 152.548L286.818 155.547L287.526 155.532L287.46 152.532ZM286.752 152.548L286.686 149.549L285.977 149.564L286.043 152.564L286.109 155.563L286.818 155.547L286.752 152.548ZM286.043 152.564L285.977 149.564C279.653 149.703 273.33 150.002 267.01 150.459L267.226 153.451L267.442 156.443C273.663 155.993 279.885 155.7 286.109 155.563L286.043 152.564ZM267.226 153.451L267.01 150.459L266.302 150.51L266.518 153.502L266.734 156.494L267.442 156.443L267.226 153.451ZM266.518 153.502L266.302 150.51L265.594 150.561L265.81 153.553L266.026 156.545L266.734 156.494L266.518 153.502ZM265.81 153.553L265.594 150.561C259.536 150.999 253.481 150.793 247.426 149.942L247.009 152.913L246.591 155.884C253.064 156.793 259.543 157.014 266.026 156.545L265.81 153.553ZM247.009 152.913L247.426 149.942L246.719 149.843L246.302 152.814L245.884 155.785L246.591 155.884L247.009 152.913ZM246.302 152.814L246.719 149.843L246.012 149.744L245.594 152.714L245.177 155.685L245.884 155.785L246.302 152.814ZM245.594 152.714L246.012 149.744C239.5 148.829 232.979 148.734 226.454 149.46L226.786 152.442L227.117 155.423C233.143 154.753 239.161 154.84 245.177 155.685L245.594 152.714ZM226.786 152.442L226.454 149.46L225.745 149.539L226.077 152.521L226.409 155.502L227.117 155.423L226.786 152.442ZM226.077 152.521L225.745 149.539L225.037 149.618L225.368 152.6L225.7 155.581L226.409 155.502L226.077 152.521ZM225.368 152.6L225.037 149.618C218.99 150.291 212.952 150.266 206.918 149.544L206.561 152.523L206.204 155.502C212.696 156.279 219.196 156.305 225.7 155.581L225.368 152.6ZM206.561 152.523L206.918 149.544L206.211 149.46L205.854 152.438L205.497 155.417L206.204 155.502L206.561 152.523ZM205.854 152.438L206.211 149.46L205.503 149.375L205.147 152.354L204.79 155.332L205.497 155.417L205.854 152.438ZM205.147 152.354L205.503 149.375C199.093 148.608 192.675 148.322 186.251 148.518L186.343 151.516L186.434 154.515C192.557 154.328 198.675 154.6 204.79 155.332L205.147 152.354ZM186.343 151.516L186.251 148.518L185.543 148.539L185.635 151.538L185.726 154.536L186.434 154.515L186.343 151.516ZM185.635 151.538L185.543 148.539L184.835 148.561L184.926 151.559L185.018 154.558L185.726 154.536L185.635 151.538ZM184.926 151.559L184.835 148.561C178.657 148.749 172.48 148.644 166.304 148.245L166.11 151.239L165.917 154.232C172.283 154.644 178.65 154.752 185.018 154.558L184.926 151.559ZM166.11 151.239L166.304 148.245L165.596 148.199L165.402 151.193L165.209 154.187L165.917 154.232L166.11 151.239ZM165.402 151.193L165.596 148.199L164.888 148.153L164.694 151.147L164.501 154.141L165.209 154.187L165.402 151.193ZM164.694 151.147L164.888 148.153C158.391 147.734 151.897 148.044 145.41 149.083L145.884 152.045L146.359 155.008C152.409 154.039 158.455 153.75 164.501 154.141L164.694 151.147ZM145.884 152.045L145.41 149.083L144.702 149.196L145.176 152.159L145.651 155.121L146.359 155.008L145.884 152.045ZM145.176 152.159L144.702 149.196L143.994 149.31L144.468 152.272L144.943 155.234L145.651 155.121L145.176 152.159ZM144.468 152.272L143.994 149.31C138.028 150.265 132.067 150.299 126.102 149.412L125.661 152.379L125.22 155.346C131.793 156.324 138.371 156.287 144.943 155.234L144.468 152.272ZM125.661 152.379L126.102 149.412L125.395 149.307L124.953 152.274L124.512 155.241L125.22 155.346L125.661 152.379ZM124.953 152.274L125.395 149.307L124.687 149.201L124.245 152.169L123.804 155.136L124.512 155.241L124.953 152.274ZM124.245 152.169L124.687 149.201C118.116 148.224 111.544 148.253 104.98 149.288L105.448 152.252L105.915 155.215C111.877 154.274 117.836 154.248 123.804 155.136L124.245 152.169ZM105.448 152.252L104.98 149.288L104.273 149.4L104.741 152.363L105.208 155.326L105.915 155.215L105.448 152.252ZM104.741 152.363L104.273 149.4L103.566 149.511L104.034 152.475L104.501 155.438L105.208 155.326L104.741 152.363ZM104.034 152.475L103.566 149.511C97.5359 150.463 91.5025 150.695 85.4612 150.211L85.2214 153.201L84.9816 156.192C91.498 156.714 98.0062 156.463 104.501 155.438L104.034 152.475ZM85.2214 153.201L85.4612 150.211L84.7522 150.154L84.5125 153.144L84.2727 156.135L84.9816 156.192L85.2214 153.201ZM84.5125 153.144L84.7522 150.154L84.0433 150.097L83.8036 153.088L83.5638 156.078L84.2727 156.135L84.5125 153.144ZM83.8036 153.088L84.0433 150.097C77.7094 149.589 71.3819 149.258 65.0609 149.103L64.9874 152.102L64.9138 155.101C71.1233 155.253 77.3399 155.579 83.5638 156.078L83.8036 153.088ZM64.9874 152.102L65.0609 149.103L64.3536 149.086L64.28 152.085L64.2065 155.084L64.9138 155.101L64.9874 152.102ZM64.28 152.085L64.3536 149.086L63.6462 149.068L63.5727 152.067L63.4991 155.066L64.2065 155.084L64.28 152.085ZM63.5727 152.067L63.6462 149.068C57.2732 148.912 50.9013 149.099 44.5309 149.628L44.7795 152.618L45.0281 155.608C51.1848 155.096 57.3417 154.915 63.4991 155.066L63.5727 152.067ZM44.7795 152.618L44.5309 149.628L43.8238 149.687L44.0723 152.677L44.3209 155.667L45.0281 155.608L44.7795 152.618ZM44.0723 152.677L43.8238 149.687L43.1166 149.746L43.3651 152.736L43.6137 155.725L44.3209 155.667L44.0723 152.677ZM43.3651 152.736L43.1166 149.746C36.929 150.26 30.7381 150.538 24.5436 150.578L24.5632 153.578L24.5828 156.578C30.9305 156.537 37.2742 156.252 43.6137 155.725L43.3651 152.736ZM24.5632 153.578L24.5436 150.578L23.8356 150.583L23.8552 153.583L23.8748 156.583L24.5828 156.578L24.5632 153.578ZM23.8552 153.583L23.8356 150.583L23.1276 150.588L23.1472 153.588L23.1667 156.587L23.8748 156.583L23.8552 153.583ZM23.1472 153.588L23.1276 150.588C16.853 150.629 12.0388 150.679 8.6915 150.741L8.74619 153.74L8.8009 156.74C12.1127 156.679 16.8991 156.628 23.1667 156.587L23.1472 153.588ZM8.74619 153.74L8.6915 150.741L8.31555 150.747L8.37027 153.747L8.42499 156.746L8.8009 156.74L8.74619 153.74ZM8.37027 153.747L8.31555 150.747L7.93964 150.754L7.99435 153.754L8.04907 156.753L8.42499 156.746L8.37027 153.747ZM7.99435 153.754L7.93964 150.754C6.30441 150.784 5.21481 150.749 4.58319 150.678C4.23645 150.639 4.21799 150.609 4.36099 150.662C4.42477 150.686 4.73666 150.803 5.0788 151.109C5.46906 151.458 6.00003 152.165 6.00003 153.193L3.00003 153.193L3.04801e-05 153.193C3.01246e-05 154.33 0.583038 155.138 1.07733 155.58C1.52353 155.979 1.99145 156.182 2.26337 156.283C2.82254 156.492 3.42837 156.586 3.91403 156.64C4.9472 156.756 6.35474 156.784 8.04907 156.753L7.99435 153.754ZM3.00003 153.193L6.00003 153.193L6.00003 153.144L3.00003 153.144L3.04955e-05 153.144L3.04801e-05 153.193L3.00003 153.193ZM3.00003 153.144L5.96979 153.569L6.06976 152.87L3.10001 152.445L0.130249 152.021L0.0302735 152.719L3.00003 153.144ZM3.10001 152.445L3.15552 149.446L3.05551 149.444L3.00003 152.444L2.94455 155.443L3.04452 155.445L3.10001 152.445Z" fill="black"/>
</svg>
