<svg width="171" height="171" viewBox="-18.5 -18.5 171 171" fill="none" xmlns="http://www.w3.org/2000/svg">
<path d="M9.27025 8.33973C9.20197 6.68429 7.8046 5.39764 6.14916 5.46593C4.49371 5.53422 3.20706 6.93158 3.27535 8.58702L6.2728 8.46338L9.27025 8.33973ZM6.27692 8.56329L9.27668 8.60145L9.27771 8.52052L9.27438 8.43965L6.27692 8.56329ZM6.259 9.97228L3.25925 9.93412L6.259 9.97228ZM6.36912 39.5028L9.36757 39.4062L6.36912 39.5028ZM6.99388 58.299L9.99212 58.1962L6.99388 58.299ZM7.80818 78.5089L10.8048 78.3674L7.80818 78.5089ZM9.0266 118.892L11.9933 119.338L9.0266 118.892ZM8.81441 120.304L5.84771 119.858L8.81441 120.304ZM8.04298 130.297L5.96813 132.464L8.04298 130.297ZM8.09101 130.343L6.01616 132.51L6.10582 132.596L6.20226 132.674L8.09101 130.343ZM8.77839 130.9L11.7781 130.938L11.7965 129.484L10.6671 128.569L8.77839 130.9ZM5.77736 130.962C5.75648 132.619 7.08259 133.979 8.73931 134C10.396 134.021 11.756 132.695 11.7769 131.038L8.77713 131L5.77736 130.962ZM6.2728 8.46338L3.27535 8.58702L3.27947 8.68694L6.27692 8.56329L9.27438 8.43965L9.27025 8.33973L6.2728 8.46338ZM6.27692 8.56329L3.27717 8.52514L3.25925 9.93412L6.259 9.97228L9.25876 10.0104L9.27668 8.60145L6.27692 8.56329ZM6.259 9.97228L3.25925 9.93412C3.10038 22.4239 3.1211 31.8507 3.32512 38.1848L6.32356 38.0883L9.32201 37.9917C9.12248 31.797 9.10016 22.4798 9.25876 10.0104L6.259 9.97228ZM6.32356 38.0883L3.32512 38.1848L3.3479 38.8921L6.34634 38.7955L9.34479 38.699L9.32201 37.9917L6.32356 38.0883ZM6.34634 38.7955L3.3479 38.8921L3.37068 39.5994L6.36912 39.5028L9.36757 39.4062L9.34479 38.699L6.34634 38.7955ZM6.36912 39.5028L3.37068 39.5994C3.57252 45.8659 3.78084 52.1333 3.99564 58.4017L6.99388 58.299L9.99212 58.1962C9.77746 51.9319 9.56927 45.6686 9.36757 39.4062L6.36912 39.5028ZM6.99388 58.299L3.99564 58.4017L4.01988 59.1092L7.01812 59.0065L10.0164 58.9037L9.99212 58.1962L6.99388 58.299ZM7.01812 59.0065L4.01988 59.1092L4.04413 59.8167L7.04237 59.714L10.0406 59.6112L10.0164 58.9037L7.01812 59.0065ZM7.04237 59.714L4.04413 59.8167C4.2593 66.096 4.5151 72.3739 4.81152 78.6504L7.80818 78.5089L10.8048 78.3674C10.5096 72.1167 10.2549 65.8647 10.0406 59.6112L7.04237 59.714ZM7.80818 78.5089L4.81152 78.6504L4.84492 79.3576L7.84158 79.2161L10.8382 79.0746L10.8048 78.3674L7.80818 78.5089ZM7.84158 79.2161L4.84492 79.3576L4.87832 80.0648L7.87498 79.9233L10.8716 79.7817L10.8382 79.0746L7.84158 79.2161ZM7.87498 79.9233L4.87832 80.0648C5.17684 86.3858 5.6573 92.7045 6.31965 99.0206L9.30329 98.7077L12.2869 98.3948C11.6365 92.1922 11.1647 85.9879 10.8716 79.7817L7.87498 79.9233ZM9.30329 98.7077L6.31965 99.0206L6.39376 99.7273L9.3774 99.4144L12.361 99.1015L12.2869 98.3948L9.30329 98.7077ZM9.3774 99.4144L6.39376 99.7273L6.46787 100.434L9.45151 100.121L12.4352 99.8082L12.361 99.1015L9.3774 99.4144ZM9.45151 100.121L6.46787 100.434C7.09766 106.44 6.96203 112.442 6.05989 118.446L9.0266 118.892L11.9933 119.338C12.9705 112.833 13.1182 106.321 12.4352 99.8082L9.45151 100.121ZM9.0266 118.892L6.05989 118.446L5.9538 119.152L8.9205 119.598L11.8872 120.044L11.9933 119.338L9.0266 118.892ZM8.9205 119.598L5.9538 119.152L5.84771 119.858L8.81441 120.304L11.7811 120.75L11.8872 120.044L8.9205 119.598ZM8.81441 120.304L5.84771 119.858C5.3748 123.006 5.06271 125.487 4.92569 127.262C4.85807 128.138 4.82576 128.93 4.85494 129.578C4.86924 129.896 4.90195 130.278 4.98788 130.662C5.04376 130.912 5.23847 131.765 5.96813 132.464L8.04298 130.297L10.1178 128.13C10.4706 128.468 10.6431 128.81 10.7171 128.978C10.7974 129.161 10.8313 129.299 10.843 129.352C10.8653 129.451 10.8556 129.458 10.8489 129.308C10.836 129.022 10.8469 128.514 10.9079 127.724C11.028 126.168 11.3143 123.857 11.7811 120.75L8.81441 120.304ZM8.04298 130.297L5.96813 132.464L6.01616 132.51L8.09101 130.343L10.1659 128.176L10.1178 128.13L8.04298 130.297ZM8.09101 130.343L6.20226 132.674L6.88964 133.231L8.77839 130.9L10.6671 128.569L9.97975 128.012L8.09101 130.343ZM8.77839 130.9L5.77862 130.862L5.77736 130.962L8.77713 131L11.7769 131.038L11.7781 130.938L8.77839 130.9Z" fill="black"/>
<path d="M128.905 2.8454C128.82 1.19074 127.409 -0.0813985 125.755 0.00398628C124.1 0.0893711 122.828 1.49995 122.913 3.1546L125.909 3L128.905 2.8454ZM125.914 3.09987L128.914 3.11398L128.915 3.02956L128.91 2.94526L125.914 3.09987ZM125.908 4.51071L122.908 4.4966L125.908 4.51071ZM126.347 33.3401L129.343 33.1833L126.347 33.3401ZM127.247 73L124.248 72.9688L127.247 73ZM127.233 74.416L124.233 74.3848L127.233 74.416ZM127.722 93.2188L130.716 93.0318L127.722 93.2188ZM127.766 93.9261L124.772 94.1131L127.766 93.9261ZM127.81 94.6334L130.804 94.4464L127.81 94.6334ZM127.103 113.423L124.131 113.013L127.103 113.423ZM126.908 114.837L129.88 115.246L126.908 114.837ZM126.248 125.382L128.877 123.937L126.248 125.382ZM126.295 125.468L123.666 126.913L123.693 126.961L123.721 127.008L126.295 125.468ZM126.977 126.607L129.977 126.621L129.98 125.785L129.551 125.067L126.977 126.607ZM123.976 126.694C123.969 128.35 125.306 129.7 126.962 129.707C128.619 129.715 129.968 128.378 129.976 126.721L126.976 126.707L123.976 126.694ZM125.909 3L122.913 3.1546L122.918 3.25447L125.914 3.09987L128.91 2.94526L128.905 2.8454L125.909 3ZM125.914 3.09987L122.914 3.08576L122.908 4.4966L125.908 4.51071L128.908 4.52481L128.914 3.11398L125.914 3.09987ZM125.908 4.51071L122.908 4.4966C122.849 17.0054 122.983 26.4495 123.315 32.7909L126.31 32.6341L129.306 32.4773C128.984 26.3129 128.849 17.008 128.908 4.52481L125.908 4.51071ZM126.31 32.6341L123.315 32.7909L123.351 33.4969L126.347 33.3401L129.343 33.1833L129.306 32.4773L126.31 32.6341ZM126.347 33.3401L123.351 33.4969L123.388 34.2028L126.384 34.046L129.38 33.8893L129.343 33.1833L126.347 33.3401ZM126.384 34.046L123.388 34.2028C123.714 40.4269 123.95 46.6505 124.095 52.8738L127.094 52.8039L130.093 52.7339C129.947 46.4527 129.709 40.1711 129.38 33.8893L126.384 34.046ZM127.094 52.8039L124.095 52.8738L124.111 53.5797L127.11 53.5098L130.109 53.4398L130.093 52.7339L127.094 52.8039ZM127.11 53.5098L124.111 53.5797L124.128 54.2856L127.127 54.2157L130.126 54.1458L130.109 53.4398L127.11 53.5098ZM127.127 54.2157L124.128 54.2856C124.272 60.5041 124.312 66.7318 124.248 72.9688L127.247 73L130.247 73.0312C130.313 66.727 130.272 60.4318 130.126 54.1458L127.127 54.2157ZM127.247 73L124.248 72.9688L124.24 73.6768L127.24 73.708L130.24 73.7392L130.247 73.0312L127.247 73ZM127.24 73.708L124.24 73.6768L124.233 74.3848L127.233 74.416L130.233 74.4472L130.24 73.7392L127.24 73.708ZM127.233 74.416L124.233 74.3848C124.167 80.7282 124.332 87.0686 124.728 93.4058L127.722 93.2188L130.716 93.0318C130.329 86.8398 130.168 80.645 130.233 74.4472L127.233 74.416ZM127.722 93.2188L124.728 93.4058L124.772 94.1131L127.766 93.9261L130.76 93.7391L130.716 93.0318L127.722 93.2188ZM127.766 93.9261L124.772 94.1131L124.816 94.8204L127.81 94.6334L130.804 94.4464L130.76 93.7391L127.766 93.9261ZM127.81 94.6334L124.816 94.8204C125.195 100.885 124.967 106.948 124.131 113.013L127.103 113.423L130.075 113.832C130.965 107.374 131.208 100.911 130.804 94.4464L127.81 94.6334ZM127.103 113.423L124.131 113.013L124.034 113.72L127.006 114.13L129.978 114.539L130.075 113.832L127.103 113.423ZM127.006 114.13L124.034 113.72L123.936 114.427L126.908 114.837L129.88 115.246L129.978 114.539L127.006 114.13ZM126.908 114.837L123.936 114.427C123.501 117.584 123.219 120.114 123.102 121.982C123.044 122.91 123.022 123.74 123.055 124.432C123.071 124.777 123.103 125.142 123.167 125.496C123.223 125.81 123.338 126.316 123.618 126.826L126.248 125.382L128.877 123.937C128.975 124.115 129.023 124.257 129.043 124.324C129.055 124.361 129.062 124.389 129.066 124.407C129.07 124.424 129.072 124.433 129.072 124.434C129.072 124.435 129.071 124.429 129.069 124.416C129.068 124.403 129.065 124.384 129.063 124.359C129.058 124.308 129.052 124.239 129.048 124.149C129.03 123.77 129.038 123.186 129.09 122.357C129.193 120.71 129.452 118.351 129.88 115.246L126.908 114.837ZM126.248 125.382L123.618 126.826L123.666 126.913L126.295 125.468L128.924 124.024L128.877 123.937L126.248 125.382ZM126.295 125.468L123.721 127.008L124.402 128.147L126.977 126.607L129.551 125.067L128.87 123.928L126.295 125.468ZM126.977 126.607L123.977 126.594L123.976 126.694L126.976 126.707L129.976 126.721L129.977 126.621L126.977 126.607Z" fill="black"/>
<path d="M129.793 15.0284C131.45 14.9797 132.753 13.5976 132.704 11.9414C132.655 10.2853 131.273 8.98225 129.617 9.03097L129.705 12.0297L129.793 15.0284ZM129.605 12.0326L129.53 15.0317L129.612 15.0337L129.693 15.0313L129.605 12.0326ZM79.8637 12.2913L79.948 15.2901L79.8637 12.2913ZM58.9397 13.0004L59.0598 15.998V15.998L58.9397 13.0004ZM39.4393 14.3228L39.1477 11.337L39.4393 14.3228ZM38.7323 14.3918L39.0239 17.3776L38.7323 14.3918ZM38.0254 14.4609L37.7338 11.4751L38.0254 14.4609ZM19.2492 14.0941L18.8425 17.0664L19.2492 14.0941ZM18.5428 13.9975L18.9495 11.0251L18.5428 13.9975ZM17.8365 13.9008L17.4298 16.8731L17.8365 13.9008ZM5.91708 13.1943L5.25086 10.2692L5.91708 13.1943ZM5.72624 13.2378L5.06002 10.3127L5.04747 10.3155L5.03495 10.3185L5.72624 13.2378ZM3.10001 13.8597L3.07095 16.8595L3.43603 16.8631L3.79131 16.7789L3.10001 13.8597ZM3.02909 10.8588C1.37231 10.8428 0.0162204 12.1728 0.000167892 13.8296C-0.0158846 15.4864 1.31418 16.8425 2.97095 16.8585L3.00002 13.8587L3.02909 10.8588ZM129.705 12.0297L129.617 9.03097L129.517 9.03391L129.605 12.0326L129.693 15.0313L129.793 15.0284L129.705 12.0297ZM129.605 12.0326L129.681 9.03356L128.271 8.99814L128.196 11.9972L128.121 14.9962L129.53 15.0317L129.605 12.0326ZM128.196 11.9972L128.271 8.99814C115.777 8.6841 106.343 8.60315 100.001 8.76026L100.075 11.7593L100.15 14.7584C106.337 14.6052 115.649 14.6828 128.121 14.9962L128.196 11.9972ZM100.075 11.7593L100.001 8.76026L99.2939 8.77778L99.3682 11.7769L99.4425 14.7759L100.15 14.7584L100.075 11.7593ZM99.3682 11.7769L99.2939 8.77778L98.5866 8.79531L98.6609 11.7944L98.7352 14.7935L99.4425 14.7759L99.3682 11.7769ZM98.6609 11.7944L98.5866 8.79531C92.319 8.95058 86.0499 9.11631 79.7795 9.2925L79.8637 12.2913L79.948 15.2901C86.2118 15.1141 92.4742 14.9486 98.7352 14.7935L98.6609 11.7944ZM79.8637 12.2913L79.7795 9.2925L79.0719 9.31239L79.1562 12.3112L79.2404 15.31L79.948 15.2901L79.8637 12.2913ZM79.1562 12.3112L79.0719 9.31239L78.3643 9.33227L78.4486 12.3311L78.5329 15.3299L79.2404 15.31L79.1562 12.3112ZM78.4486 12.3311L78.3643 9.33227C72.0852 9.5087 65.8062 9.72277 59.5271 9.97447L59.6473 12.9721L59.7674 15.9697C66.0226 15.7189 72.2777 15.5057 78.5329 15.3299L78.4486 12.3311ZM59.6473 12.9721L59.5271 9.97447L58.8195 10.0028L58.9397 13.0004L59.0598 15.998L59.7674 15.9697L59.6473 12.9721ZM58.9397 13.0004L58.8195 10.0028L58.1119 10.0312L58.2321 13.0288L58.3523 16.0264L59.0598 15.998L58.9397 13.0004ZM58.2321 13.0288L58.1119 10.0312C51.7874 10.2847 45.466 10.72 39.1477 11.337L39.4393 14.3228L39.7309 17.3086C45.9355 16.7027 52.1426 16.2753 58.3523 16.0264L58.2321 13.0288ZM39.4393 14.3228L39.1477 11.337L38.4408 11.406L38.7323 14.3918L39.0239 17.3776L39.7309 17.3086L39.4393 14.3228ZM38.7323 14.3918L38.4408 11.406L37.7338 11.4751L38.0254 14.4609L38.317 17.4467L39.0239 17.3776L38.7323 14.3918ZM38.0254 14.4609L37.7338 11.4751C31.7057 12.0638 25.6813 11.9462 19.6559 11.1218L19.2492 14.0941L18.8425 17.0664C25.3291 17.9539 31.8222 18.0809 38.317 17.4467L38.0254 14.4609ZM19.2492 14.0941L19.6559 11.1218L18.9495 11.0251L18.5428 13.9975L18.1362 16.9698L18.8425 17.0664L19.2492 14.0941ZM18.5428 13.9975L18.9495 11.0251L18.2432 10.9285L17.8365 13.9008L17.4298 16.8731L18.1362 16.9698L18.5428 13.9975ZM17.8365 13.9008L18.2432 10.9285C15.0776 10.4954 12.4362 10.2116 10.3421 10.0874C8.34245 9.96892 6.54965 9.97339 5.25086 10.2692L5.91708 13.1943L6.5833 16.1194C6.97476 16.0302 8.01366 15.96 9.98712 16.0769C11.8662 16.1883 14.3394 16.4503 17.4298 16.8731L17.8365 13.9008ZM5.91708 13.1943L5.25086 10.2692L5.06002 10.3127L5.72624 13.2378L6.39246 16.1629L6.5833 16.1194L5.91708 13.1943ZM5.72624 13.2378L5.03495 10.3185L2.40872 10.9404L3.10001 13.8597L3.79131 16.7789L6.41753 16.157L5.72624 13.2378ZM3.10001 13.8597L3.12908 10.8598L3.02909 10.8588L3.00002 13.8587L2.97095 16.8585L3.07095 16.8595L3.10001 13.8597Z" fill="black"/>
<path d="M131.129 119.949C132.784 119.877 134.068 118.478 133.997 116.823C133.926 115.167 132.527 113.883 130.871 113.954L131 116.951L131.129 119.949ZM130.9 116.956L130.867 119.955L130.948 119.956L131.029 119.953L130.9 116.956ZM101.373 117.049L101.473 120.047L101.473 120.047L101.373 117.049ZM99.9591 117.096L100.06 120.094V120.094L99.9591 117.096ZM80.4604 117.765L80.5656 120.763L80.4604 117.765ZM60.954 118.562L60.8131 115.565L60.954 118.562ZM60.2466 118.595L60.3875 121.592L60.2466 118.595ZM40.7643 120.075L41.084 123.058L40.7643 120.075ZM40.0586 120.151L39.739 117.168L40.0586 120.151ZM39.353 120.227L39.6727 123.209L39.353 120.227ZM20.5864 119.972L20.985 116.999L20.5864 119.972ZM19.8795 119.877L19.4808 122.851L19.8795 119.877ZM19.1726 119.783L19.5712 116.809L19.1726 119.783ZM6.62795 119.042L7.11484 122.002L6.62795 119.042ZM6.39061 119.081L5.90371 116.121L5.89588 116.122L5.88806 116.124L6.39061 119.081ZM3.10005 119.64L3.05672 122.64L3.33159 122.644L3.6026 122.598L3.10005 119.64ZM3.04339 116.639C1.3867 116.615 0.0243076 117.939 0.000366281 119.596C-0.0235597 121.252 1.30005 122.615 2.95674 122.639L3.00006 119.639L3.04339 116.639ZM131 116.951L130.871 113.954L130.771 113.958L130.9 116.956L131.029 119.953L131.129 119.949L131 116.951ZM130.9 116.956L130.933 113.956L129.524 113.94L129.491 116.94L129.458 119.94L130.867 119.955L130.9 116.956ZM129.491 116.94L129.524 113.94C117.03 113.803 107.603 113.839 101.273 114.051L101.373 117.049L101.473 120.047C107.666 119.84 116.984 119.803 129.458 119.94L129.491 116.94ZM101.373 117.049L101.273 114.051L100.566 114.074L100.666 117.072L100.766 120.071L101.473 120.047L101.373 117.049ZM100.666 117.072L100.566 114.074L99.8588 114.098L99.9591 117.096L100.06 120.094L100.766 120.071L100.666 117.072ZM99.9591 117.096L99.8588 114.098C93.5959 114.308 87.3305 114.522 81.0627 114.742L81.1679 117.74L81.273 120.738C87.5377 120.519 93.7998 120.304 100.06 120.094L99.9591 117.096ZM81.1679 117.74L81.0627 114.742L80.3553 114.767L80.4604 117.765L80.5656 120.763L81.273 120.738L81.1679 117.74ZM80.4604 117.765L80.3553 114.767L79.6478 114.792L79.7529 117.79L79.8581 120.788L80.5656 120.763L80.4604 117.765ZM79.7529 117.79L79.6478 114.792C73.3696 115.012 67.0914 115.27 60.8131 115.565L60.954 118.562L61.095 121.558C67.3495 121.264 73.6038 121.007 79.8581 120.788L79.7529 117.79ZM60.954 118.562L60.8131 115.565L60.1056 115.598L60.2466 118.595L60.3875 121.592L61.095 121.558L60.954 118.562ZM60.2466 118.595L60.1056 115.598L59.3981 115.632L59.5391 118.628L59.68 121.625L60.3875 121.592L60.2466 118.595ZM59.5391 118.628L59.3981 115.632C53.0719 115.929 46.754 116.416 40.4446 117.092L40.7643 120.075L41.084 123.058C47.2748 122.395 53.4735 121.917 59.68 121.625L59.5391 118.628ZM40.7643 120.075L40.4446 117.092L39.739 117.168L40.0586 120.151L40.3783 123.134L41.084 123.058L40.7643 120.075ZM40.0586 120.151L39.739 117.168L39.0333 117.244L39.353 120.227L39.6727 123.209L40.3783 123.134L40.0586 120.151ZM39.353 120.227L39.0333 117.244C33.0233 117.888 27.0089 117.806 20.985 116.999L20.5864 119.972L20.1877 122.946C26.6857 123.817 33.1824 123.905 39.6727 123.209L39.353 120.227ZM20.5864 119.972L20.985 116.999L20.2781 116.904L19.8795 119.877L19.4808 122.851L20.1877 122.946L20.5864 119.972ZM19.8795 119.877L20.2781 116.904L19.5712 116.809L19.1726 119.783L18.7739 122.756L19.4808 122.851L19.8795 119.877ZM19.1726 119.783L19.5712 116.809C13.3849 115.98 8.75761 115.652 6.14105 116.082L6.62795 119.042L7.11484 122.002C8.70256 121.741 12.4383 121.907 18.7739 122.756L19.1726 119.783ZM6.62795 119.042L6.14105 116.082L5.90371 116.121L6.39061 119.081L6.87751 122.041L7.11484 122.002L6.62795 119.042ZM6.39061 119.081L5.88806 116.124L2.5975 116.683L3.10005 119.64L3.6026 122.598L6.89316 122.039L6.39061 119.081ZM3.10005 119.64L3.14338 116.641L3.04339 116.639L3.00006 119.639L2.95674 122.639L3.05672 122.64L3.10005 119.64Z" fill="black"/>
</svg>
