<svg width="358" height="170" viewBox="0 0 358 170" fill="none" xmlns="http://www.w3.org/2000/svg">
<path d="M14.9866 9.71635C14.8298 8.06694 13.3656 6.85692 11.7162 7.01371C10.0668 7.17049 8.85676 8.63471 9.01355 10.2841L12.0001 10.0002L14.9866 9.71635ZM12.0095 10.0998L15.0068 9.97103L15.0034 9.89333L14.9961 9.81591L12.0095 10.0998ZM13.5715 40.2704L16.5643 40.0629L13.5715 40.2704ZM13.6204 40.976L10.6276 41.1835L13.6204 40.976ZM14.8583 59.733L17.8524 59.5453L14.8583 59.733ZM16.1877 79.9131L19.1804 79.7049L16.1877 79.9131ZM16.2368 80.6195L13.244 80.8277L16.2368 80.6195ZM16.2859 81.3259L19.2787 81.1177L16.2859 81.3259ZM18.1209 100.061L21.0972 99.6851L18.1209 100.061ZM18.2988 101.469L15.3225 101.845L18.2988 101.469ZM18.8217 120.273L21.8144 120.482L18.8217 120.273ZM18.7721 120.985L15.7793 120.776L18.7721 120.985ZM19.4169 140.521L16.4478 140.95L19.4169 140.521ZM19.5188 141.226L22.488 140.797L19.5188 141.226ZM19.6207 141.932L16.6516 142.361L19.6207 141.932ZM19.4172 158.602L22.3512 159.228L19.4172 158.602ZM19.1828 159.701L16.2488 159.075L19.1828 159.701ZM18.2562 167L18.2562 170L18.4907 170L18.7223 169.964L18.2562 167ZM18.8914 166.9L21.8885 167.033L22.0504 163.367L18.4253 163.937L18.8914 166.9ZM15.8899 166.868C15.8168 168.523 17.0993 169.924 18.7546 169.997C20.4098 170.07 21.8109 168.788 21.8841 167.133L18.887 167L15.8899 166.868ZM12.0001 10.0002L9.01355 10.2841L9.02301 10.3837L12.0095 10.0998L14.9961 9.81591L14.9866 9.71635L12.0001 10.0002ZM12.0095 10.0998L9.01231 10.2286L9.07273 11.6349L12.07 11.5061L15.0672 11.3774L15.0068 9.97103L12.0095 10.0998ZM12.07 11.5061L9.07273 11.6349C9.60813 24.097 10.0937 33.4819 10.5297 39.7723L13.5225 39.5648L16.5154 39.3573C16.0849 33.1484 15.6021 23.8275 15.0672 11.3774L12.07 11.5061ZM13.5225 39.5648L10.5297 39.7723L10.5786 40.4779L13.5715 40.2704L16.5643 40.0629L16.5154 39.3573L13.5225 39.5648ZM13.5715 40.2704L10.5786 40.4779L10.6276 41.1835L13.6204 40.976L16.6132 40.7685L16.5643 40.0629L13.5715 40.2704ZM13.6204 40.976L10.6276 41.1835C11.0603 47.4265 11.4725 53.6722 11.8642 59.9206L14.8583 59.733L17.8524 59.5453C17.46 53.2837 17.0469 47.0248 16.6132 40.7685L13.6204 40.976ZM14.8583 59.733L11.8642 59.9206L11.9084 60.6268L14.9025 60.4392L17.8967 60.2515L17.8524 59.5453L14.8583 59.733ZM14.9025 60.4392L11.9084 60.6268L11.9527 61.333L14.9468 61.1454L17.9409 60.9577L17.8967 60.2515L14.9025 60.4392ZM14.9468 61.1454L11.9527 61.333C12.3451 67.5949 12.7592 73.8576 13.1949 80.1213L16.1877 79.9131L19.1804 79.7049C18.7457 73.4549 18.3325 67.2059 17.9409 60.9577L14.9468 61.1454ZM16.1877 79.9131L13.1949 80.1213L13.244 80.8277L16.2368 80.6195L19.2296 80.4113L19.1804 79.7049L16.1877 79.9131ZM16.2368 80.6195L13.244 80.8277L13.2932 81.5341L16.2859 81.3259L19.2787 81.1177L19.2296 80.4113L16.2368 80.6195ZM16.2859 81.3259L13.2932 81.5341C13.7323 87.8472 14.3495 94.1484 15.1446 100.438L18.1209 100.061L21.0972 99.6851C20.3162 93.5074 19.71 87.3183 19.2787 81.1177L16.2859 81.3259ZM18.1209 100.061L15.1446 100.438L15.2336 101.141L18.2099 100.765L21.1862 100.389L21.0972 99.6851L18.1209 100.061ZM18.2099 100.765L15.2336 101.141L15.3225 101.845L18.2988 101.469L21.2752 101.093L21.1862 100.389L18.2099 100.765ZM18.2988 101.469L15.3225 101.845C16.086 107.884 16.255 113.956 15.829 120.065L18.8217 120.273L21.8144 120.482C22.2675 113.985 22.0879 107.521 21.2752 101.093L18.2988 101.469ZM18.8217 120.273L15.829 120.065L15.7793 120.776L18.7721 120.985L21.7648 121.194L21.8144 120.482L18.8217 120.273ZM18.7721 120.985L15.7793 120.776L15.7297 121.488L18.7225 121.697L21.7152 121.905L21.7648 121.194L18.7721 120.985ZM18.7225 121.697L15.7297 121.488C15.2754 128.003 15.5147 134.492 16.4478 140.95L19.4169 140.521L22.3861 140.092C21.5141 134.056 21.2905 127.995 21.7152 121.905L18.7225 121.697ZM19.4169 140.521L16.4478 140.95L16.5497 141.655L19.5188 141.226L22.488 140.797L22.3861 140.092L19.4169 140.521ZM19.5188 141.226L16.5497 141.655L16.6516 142.361L19.6207 141.932L22.5899 141.503L22.488 140.797L19.5188 141.226ZM19.6207 141.932L16.6516 142.361C17.5164 148.347 17.4306 153.535 16.4832 157.976L19.4172 158.602L22.3512 159.228C23.4802 153.936 23.5301 148.011 22.5899 141.503L19.6207 141.932ZM19.4172 158.602L16.4832 157.976L16.366 158.525L19.3 159.151L22.2339 159.777L22.3512 159.228L19.4172 158.602ZM19.3 159.151L16.366 158.525L16.2488 159.075L19.1828 159.701L22.1167 160.327L22.2339 159.777L19.3 159.151ZM19.1828 159.701L16.2488 159.075C15.7263 161.524 15.3655 163.442 15.1876 164.78C15.1023 165.421 15.0385 166.073 15.0539 166.627C15.0605 166.865 15.0843 167.353 15.2666 167.875C15.4034 168.267 16.15 170 18.2121 170L18.2121 167L18.2121 164C20.1763 164 20.8475 165.658 20.9312 165.897C21.0061 166.112 21.0317 166.277 21.0405 166.343C21.0459 166.383 21.0486 166.413 21.0499 166.431C21.0513 166.449 21.0516 166.459 21.0516 166.461C21.0517 166.463 21.0511 166.443 21.0528 166.397C21.0544 166.352 21.0579 166.291 21.0642 166.211C21.077 166.05 21.0996 165.839 21.1353 165.571C21.281 164.475 21.601 162.744 22.1167 160.327L19.1828 159.701ZM18.2121 167L18.2121 170L18.2562 170L18.2562 167L18.2562 164L18.2121 164L18.2121 167ZM18.2562 167L18.7223 169.964L19.3575 169.864L18.8914 166.9L18.4253 163.937L17.7901 164.037L18.2562 167ZM18.8914 166.9L15.8943 166.768L15.8899 166.868L18.887 167L21.8841 167.133L21.8885 167.033L18.8914 166.9Z" fill="black"/>
<path d="M343.982 2.67319C343.802 1.02621 342.32 -0.162503 340.673 0.018125C339.026 0.198753 337.837 1.68032 338.018 3.3273L341 3.00024L343.982 2.67319ZM341.011 3.09965L344.007 2.94338L344.002 2.85779L343.993 2.77259L341.011 3.09965ZM343.155 32.5635L340.176 32.9129L343.155 32.5635ZM343.238 33.2659L346.217 32.9165L343.238 33.2659ZM345.236 52.6417L348.224 52.3787L345.236 52.6417ZM345.298 53.3449L342.309 53.6078L345.298 53.3449ZM345.36 54.0481L348.348 53.7851L345.36 54.0481ZM346.398 73.4732L349.397 73.4089L346.398 73.4732ZM346.592 93.6982L343.592 93.6917L346.592 93.6982ZM344.865 113.168L347.816 113.708L344.865 113.168ZM344.736 113.87L341.785 113.331L344.736 113.87ZM344.608 114.573L347.559 115.112L344.608 114.573ZM343.997 133.313L346.977 132.967L343.997 133.313ZM344.162 134.73L341.182 135.077L344.162 134.73ZM343.965 152.802L346.932 153.245L343.965 152.802ZM343.874 153.408L340.907 152.966L343.874 153.408ZM343.26 161.479L343.353 158.481L343.26 161.479ZM343.304 161.481L343.21 164.479L343.447 164.486L343.682 164.457L343.304 161.481ZM343.936 161.4L346.935 161.44L346.981 157.989L343.557 158.424L343.936 161.4ZM340.935 161.461C340.913 163.117 342.238 164.478 343.895 164.5C345.551 164.522 346.912 163.196 346.934 161.54L343.934 161.5L340.935 161.461ZM341 3.00024L338.018 3.3273L338.029 3.4267L341.011 3.09965L343.993 2.77259L343.982 2.67319L341 3.00024ZM341.011 3.09965L338.015 3.25591L338.089 4.66522L341.084 4.50895L344.08 4.35269L344.007 2.94338L341.011 3.09965ZM341.084 4.50895L338.089 4.66522C338.74 17.1621 339.435 26.5925 340.176 32.9129L343.155 32.5635L346.135 32.2141C345.417 26.0933 344.731 16.8206 344.08 4.35269L341.084 4.50895ZM343.155 32.5635L340.176 32.9129L340.258 33.6152L343.238 33.2659L346.217 32.9165L346.135 32.2141L343.155 32.5635ZM343.238 33.2659L340.258 33.6152L340.34 34.3176L343.32 33.9682L346.299 33.6188L346.217 32.9165L343.238 33.2659ZM343.32 33.9682L340.34 34.3176C341.066 40.5095 341.702 46.7051 342.247 52.9046L345.236 52.6417L348.224 52.3787C347.674 46.1215 347.032 39.8682 346.299 33.6188L343.32 33.9682ZM345.236 52.6417L342.247 52.9046L342.309 53.6078L345.298 53.3449L348.286 53.0819L348.224 52.3787L345.236 52.6417ZM345.298 53.3449L342.309 53.6078L342.371 54.311L345.36 54.0481L348.348 53.7851L348.286 53.0819L345.298 53.3449ZM345.36 54.0481L342.371 54.311C342.913 60.4732 343.251 66.6468 343.383 72.8317L346.383 72.7674L349.382 72.7031C349.247 66.3856 348.902 60.0795 348.348 53.7851L345.36 54.0481ZM346.383 72.7674L343.383 72.8317L343.398 73.5375L346.398 73.4732L349.397 73.4089L349.382 72.7031L346.383 72.7674ZM346.398 73.4732L343.398 73.5375L343.414 74.2433L346.413 74.179L349.412 74.1147L349.397 73.4089L346.398 73.4732ZM346.413 74.179L343.414 74.2433C343.547 80.4708 343.607 86.7169 343.594 92.9818L346.594 92.9883L349.594 92.9947C349.607 86.683 349.547 80.3896 349.412 74.1147L346.413 74.179ZM346.594 92.9883L343.594 92.9818L343.592 93.6917L346.592 93.6982L349.592 93.7047L349.594 92.9947L346.594 92.9883ZM346.592 93.6982L343.592 93.6917L343.591 94.4017L346.591 94.4082L349.591 94.4147L349.592 93.7047L346.592 93.6982ZM346.591 94.4082L343.591 94.4017C343.577 100.51 343.019 106.585 341.914 112.629L344.865 113.168L347.816 113.708C348.985 107.314 349.577 100.883 349.591 94.4147L346.591 94.4082ZM344.865 113.168L341.914 112.629L341.785 113.331L344.736 113.87L347.687 114.41L347.816 113.708L344.865 113.168ZM344.736 113.87L341.785 113.331L341.657 114.033L344.608 114.573L347.559 115.112L347.687 114.41L344.736 113.87ZM344.608 114.573L341.657 114.033C340.466 120.544 340.253 127.089 341.017 133.66L343.997 133.313L346.977 132.967C346.282 126.987 346.475 121.038 347.559 115.112L344.608 114.573ZM343.997 133.313L341.017 133.66L341.099 134.368L344.079 134.022L347.059 133.675L346.977 132.967L343.997 133.313ZM344.079 134.022L341.099 134.368L341.182 135.077L344.162 134.73L347.142 134.384L347.059 133.675L344.079 134.022ZM344.162 134.73L341.182 135.077C341.886 141.132 341.844 146.685 341.088 151.754L344.055 152.196L347.022 152.639C347.868 146.97 347.897 140.88 347.142 134.384L344.162 134.73ZM344.055 152.196L341.088 151.754L340.998 152.36L343.965 152.802L346.932 153.245L347.022 152.639L344.055 152.196ZM343.965 152.802L340.998 152.36L340.907 152.966L343.874 153.408L346.842 153.851L346.932 153.245L343.965 152.802ZM343.874 153.408L340.907 152.966C340.505 155.665 340.24 157.767 340.129 159.225C340.075 159.929 340.047 160.611 340.085 161.174C340.102 161.422 340.145 161.876 340.314 162.352C340.386 162.557 341.058 164.412 343.166 164.478L343.26 161.479L343.353 158.481C345.363 158.543 345.956 160.312 345.968 160.346C346.077 160.652 346.077 160.852 346.071 160.762C346.063 160.649 346.063 160.32 346.112 159.68C346.205 158.447 346.443 156.52 346.842 153.851L343.874 153.408ZM343.26 161.479L343.166 164.478L343.21 164.479L343.304 161.481L343.397 158.482L343.353 158.481L343.26 161.479ZM343.304 161.481L343.682 164.457L344.314 164.376L343.936 161.4L343.557 158.424L342.925 158.505L343.304 161.481ZM343.936 161.4L340.936 161.361L340.935 161.461L343.934 161.5L346.934 161.54L346.935 161.44L343.936 161.4Z" fill="black"/>
<path d="M351.491 17.5691C353.148 17.5405 354.468 16.1743 354.439 14.5177C354.41 12.8611 353.044 11.5414 351.387 11.57L351.439 14.5696L351.491 17.5691ZM351.339 14.5713L351.224 17.5691L351.308 17.5723L351.391 17.5709L351.339 14.5713ZM349.932 14.5174L350.047 11.5196L349.932 14.5174ZM321.123 13.9965L321.181 16.996L321.123 13.9965ZM261.175 16.1632L261.432 19.1522L261.175 16.1632ZM240.951 15.9033L241.327 12.9269L240.951 15.9033ZM220.724 15.7223L221.1 18.6987L220.724 15.7223ZM219.31 15.9006L218.935 12.9241L219.31 15.9006ZM200.501 16.0947L200.814 13.1112L200.501 16.0947ZM199.083 15.9457L198.77 18.9292L199.083 15.9457ZM180.266 15.3698L180.398 18.3669L180.266 15.3698ZM179.558 15.401L179.69 18.3981L179.558 15.401ZM160.043 15.3515L159.885 18.3474L160.043 15.3515ZM159.335 15.3143L159.493 12.3184L159.335 15.3143ZM158.627 15.277L158.469 18.2729L158.627 15.277ZM139.829 16.3774L140.332 19.335L139.829 16.3774ZM139.122 16.4975L138.62 13.5398L139.122 16.4975ZM138.415 16.6175L138.918 19.5752L138.415 16.6175ZM119.607 16.862L119.181 19.8316L119.607 16.862ZM118.898 16.7604L119.324 13.7908L118.898 16.7604ZM118.189 16.6587L117.763 19.6283L118.189 16.6587ZM99.3949 16.7618L98.9354 13.7972L99.3949 16.7618ZM97.9831 16.9806L98.4427 19.9452L97.9831 16.9806ZM79.1772 17.6338L79.4311 14.6445L79.1772 17.6338ZM77.758 17.5133L77.5042 20.5025L77.758 17.5133ZM58.239 16.4282L58.3235 13.4294L58.239 16.4282ZM57.5326 16.4083L57.448 19.4071L57.5326 16.4083ZM38.7361 16.9061L38.4938 13.9159L38.7361 16.9061ZM37.3193 17.0209L37.5616 20.0111L37.3193 17.0209ZM18.5117 17.8675L18.5386 20.8674L18.5117 17.8675ZM17.8045 17.8739L17.7776 14.874V14.874L17.8045 17.8739ZM17.0973 17.8802L17.1241 20.8801L17.0973 17.8802ZM5.51514 17.4755L6.16989 14.5478L5.51514 17.4755ZM5.35059 17.4387L4.6698 20.3604L4.6828 20.3634L4.69583 20.3664L5.35059 17.4387ZM3.10004 16.9143L3.78085 13.9925L3.46369 13.9186L3.13806 13.9145L3.10004 16.9143ZM3.03809 13.9132C1.38138 13.8922 0.0213019 15.2182 0.000274784 16.875C-0.0207218 18.5317 1.30527 19.8918 2.962 19.9128L3.00003 16.913L3.03809 13.9132ZM351.439 14.5696L351.387 11.57L351.287 11.5718L351.339 14.5713L351.391 17.5709L351.491 17.5691L351.439 14.5696ZM351.339 14.5713L351.454 11.5735L350.047 11.5196L349.932 14.5174L349.817 17.5152L351.224 17.5691L351.339 14.5713ZM349.932 14.5174L350.047 11.5196C337.572 11.0415 328.135 10.8605 321.773 10.9834L321.831 13.9828L321.889 16.9823C328.072 16.8628 337.369 17.0381 349.817 17.5152L349.932 14.5174ZM321.831 13.9828L321.773 10.9834L321.065 10.9971L321.123 13.9965L321.181 16.996L321.889 16.9823L321.831 13.9828ZM321.123 13.9965L321.065 10.9971L320.357 11.0108L320.415 14.0102L320.473 17.0096L321.181 16.996L321.123 13.9965ZM320.415 14.0102L320.357 11.0108C314.08 11.1321 307.807 11.2675 301.538 11.417L301.61 14.4161L301.681 17.4153C307.941 17.266 314.205 17.1308 320.473 17.0096L320.415 14.0102ZM301.61 14.4161L301.538 11.417L300.831 11.4339L300.903 14.433L300.974 17.4321L301.681 17.4153L301.61 14.4161ZM300.903 14.433L300.831 11.4339L300.124 11.4507L300.195 14.4499L300.267 17.449L300.974 17.4321L300.903 14.433ZM300.195 14.4499L300.124 11.4507C293.85 11.6004 287.573 11.7813 281.292 11.9936L281.393 14.9919L281.494 17.9902C287.755 17.7786 294.013 17.5982 300.267 17.449L300.195 14.4499ZM281.393 14.9919L281.292 11.9936L280.583 12.0175L280.685 15.0158L280.786 18.0141L281.494 17.9902L281.393 14.9919ZM280.685 15.0158L280.583 12.0175L279.875 12.0414L279.977 15.0397L280.078 18.038L280.786 18.0141L280.685 15.0158ZM279.977 15.0397L279.875 12.0414C273.552 12.2551 267.234 12.6327 260.919 13.1741L261.175 16.1632L261.432 19.1522C267.643 18.6196 273.859 18.2482 280.078 18.038L279.977 15.0397ZM261.175 16.1632L260.919 13.1741L260.212 13.2348L260.468 16.2238L260.725 19.2128L261.432 19.1522L261.175 16.1632ZM260.468 16.2238L260.212 13.2348L259.505 13.2954L259.761 16.2844L260.017 19.2735L260.725 19.2128L260.468 16.2238ZM259.761 16.2844L259.505 13.2954C253.453 13.8143 247.395 13.6918 241.327 12.9269L240.951 15.9033L240.576 18.8798C247.061 19.6971 253.543 19.8287 260.017 19.2735L259.761 16.2844ZM240.951 15.9033L241.327 12.9269L240.618 12.8376L240.243 15.814L239.868 18.7905L240.576 18.8798L240.951 15.9033ZM240.243 15.814L240.618 12.8376L239.909 12.7482L239.534 15.7247L239.159 18.7011L239.868 18.7905L240.243 15.814ZM239.534 15.7247L239.909 12.7482C233.384 11.9258 226.862 11.9249 220.349 12.7458L220.724 15.7223L221.1 18.6987C227.113 17.9407 233.131 17.9414 239.159 18.7011L239.534 15.7247ZM220.724 15.7223L220.349 12.7458L219.642 12.835L220.017 15.8114L220.392 18.7879L221.1 18.6987L220.724 15.7223ZM220.017 15.8114L219.642 12.835L218.935 12.9241L219.31 15.9006L219.685 18.877L220.392 18.7879L220.017 15.8114ZM219.31 15.9006L218.935 12.9241C212.9 13.6848 206.861 13.7471 200.814 13.1112L200.501 16.0947L200.187 19.0783C206.692 19.7624 213.193 19.6953 219.685 18.877L219.31 15.9006ZM200.501 16.0947L200.814 13.1112L200.106 13.0367L199.792 16.0202L199.478 19.0037L200.187 19.0783L200.501 16.0947ZM199.792 16.0202L200.106 13.0367L199.397 12.9621L199.083 15.9457L198.77 18.9292L199.478 19.0037L199.792 16.0202ZM199.083 15.9457L199.397 12.9621C192.974 12.2866 186.552 12.09 180.134 12.3727L180.266 15.3698L180.398 18.3669C186.517 18.0973 192.641 18.2846 198.77 18.9292L199.083 15.9457ZM180.266 15.3698L180.134 12.3727L179.426 12.4039L179.558 15.401L179.69 18.3981L180.398 18.3669L180.266 15.3698ZM179.558 15.401L179.426 12.4039L178.718 12.4351L178.85 15.4322L178.982 18.4292L179.69 18.3981L179.558 15.401ZM178.85 15.4322L178.718 12.4351C172.546 12.7069 166.374 12.6805 160.2 12.3557L160.043 15.3515L159.885 18.3474C166.251 18.6824 172.617 18.7096 178.982 18.4292L178.85 15.4322ZM160.043 15.3515L160.2 12.3557L159.493 12.3184L159.335 15.3143L159.177 18.3101L159.885 18.3474L160.043 15.3515ZM159.335 15.3143L159.493 12.3184L158.785 12.2812L158.627 15.277L158.469 18.2729L159.177 18.3101L159.335 15.3143ZM158.627 15.277L158.785 12.2812C152.292 11.9395 145.804 12.3197 139.327 13.4197L139.829 16.3774L140.332 19.335C146.378 18.3082 152.423 17.9548 158.469 18.2729L158.627 15.277ZM139.829 16.3774L139.327 13.4197L138.62 13.5398L139.122 16.4975L139.625 19.4551L140.332 19.335L139.829 16.3774ZM139.122 16.4975L138.62 13.5398L137.913 13.6599L138.415 16.6175L138.918 19.5752L139.625 19.4551L139.122 16.4975ZM138.415 16.6175L137.913 13.6599C131.958 14.6713 126.001 14.7486 120.033 13.8924L119.607 16.862L119.181 19.8316C125.767 20.7764 132.349 20.6907 138.918 19.5752L138.415 16.6175ZM119.607 16.862L120.033 13.8924L119.324 13.7908L118.898 16.7604L118.472 19.73L119.181 19.8316L119.607 16.862ZM118.898 16.7604L119.324 13.7908L118.615 13.6891L118.189 16.6587L117.763 19.6283L118.472 19.73L118.898 16.7604ZM118.189 16.6587L118.615 13.6891C112.045 12.7466 105.482 12.7825 98.9354 13.7972L99.3949 16.7618L99.8545 19.7264C105.813 18.8028 111.779 18.7699 117.763 19.6283L118.189 16.6587ZM99.3949 16.7618L98.9354 13.7972L98.2295 13.9066L98.689 16.8712L99.1486 19.8358L99.8545 19.7264L99.3949 16.7618ZM98.689 16.8712L98.2295 13.9066L97.5236 14.016L97.9831 16.9806L98.4427 19.9452L99.1486 19.8358L98.689 16.8712ZM97.9831 16.9806L97.5236 14.016C91.5066 14.9487 85.4774 15.158 79.4311 14.6445L79.1772 17.6338L78.9234 20.623C85.4471 21.177 91.9552 20.9508 98.4427 19.9452L97.9831 16.9806ZM79.1772 17.6338L79.4311 14.6445L78.7214 14.5843L78.4676 17.5735L78.2138 20.5628L78.9234 20.623L79.1772 17.6338ZM78.4676 17.5735L78.7214 14.5843L78.0118 14.524L77.758 17.5133L77.5042 20.5025L78.2138 20.5628L78.4676 17.5735ZM77.758 17.5133L78.0118 14.524C71.6709 13.9856 65.3436 13.6273 59.0299 13.4493L58.9454 16.4481L58.8608 19.4469C65.0606 19.6217 71.2751 19.9736 77.5042 20.5025L77.758 17.5133ZM58.9454 16.4481L59.0299 13.4493L58.3235 13.4294L58.239 16.4282L58.1544 19.427L58.8608 19.4469L58.9454 16.4481ZM58.239 16.4282L58.3235 13.4294L57.6171 13.4095L57.5326 16.4083L57.448 19.4071L58.1544 19.427L58.239 16.4282ZM57.5326 16.4083L57.6171 13.4095C51.2507 13.23 44.8761 13.3989 38.4938 13.9159L38.7361 16.9061L38.9783 19.8964C45.1445 19.3968 51.3009 19.2338 57.448 19.4071L57.5326 16.4083ZM38.7361 16.9061L38.4938 13.9159L37.7854 13.9733L38.0277 16.9635L38.2699 19.9537L38.9783 19.8964L38.7361 16.9061ZM38.0277 16.9635L37.7854 13.9733L37.077 14.0307L37.3193 17.0209L37.5616 20.0111L38.2699 19.9537L38.0277 16.9635ZM37.3193 17.0209L37.077 14.0307C30.8741 14.5333 24.6768 14.8122 18.4849 14.8677L18.5117 17.8675L18.5386 20.8674C24.875 20.8107 31.216 20.5252 37.5616 20.0111L37.3193 17.0209ZM18.5117 17.8675L18.4849 14.8677L17.7776 14.874L17.8045 17.8739L17.8314 20.8738L18.5386 20.8674L18.5117 17.8675ZM17.8045 17.8739L17.7776 14.874L17.0704 14.8803L17.0973 17.8802L17.1241 20.8801L17.8314 20.8738L17.8045 17.8739ZM17.0973 17.8802L17.0704 14.8803C13.959 14.9082 11.4766 14.8882 9.60846 14.8229C7.66208 14.7549 6.59253 14.6423 6.16989 14.5478L5.51514 17.4755L4.86038 20.4032C5.89508 20.6346 7.48456 20.7524 9.39889 20.8193C11.3915 20.8889 13.9715 20.9083 17.1241 20.8801L17.0973 17.8802ZM5.51514 17.4755L6.16989 14.5478L6.00534 14.511L5.35059 17.4387L4.69583 20.3664L4.86038 20.4032L5.51514 17.4755ZM5.35059 17.4387L6.0314 14.5169L3.78085 13.9925L3.10004 16.9143L2.41922 19.836L4.6698 20.3604L5.35059 17.4387ZM3.10004 16.9143L3.13806 13.9145L3.03809 13.9132L3.00003 16.913L2.962 19.9128L3.06198 19.914L3.10004 16.9143Z" fill="black"/>
<path d="M355.076 151.999C356.732 151.958 358.041 150.581 357.999 148.925C357.957 147.268 356.581 145.959 354.924 146.001L355 149L355.076 151.999ZM354.9 149.003L354.81 152.001L354.893 152.004L354.976 152.002L354.9 149.003ZM323.97 148.672L324.046 151.671L323.97 148.672ZM304.464 149.203L304.55 152.202V152.202L304.464 149.203ZM284.958 149.854L285.072 152.852L284.958 149.854ZM284.249 149.881L284.135 146.883L284.249 149.881ZM283.541 149.908L283.656 152.906L283.541 149.908ZM264.743 151.108L264.475 148.12L264.743 151.108ZM263.329 151.235L263.597 154.223V154.223L263.329 151.235ZM244.522 150.923L244.157 153.901L244.522 150.923ZM243.813 150.836L244.177 147.858L243.813 150.836ZM243.104 150.749L242.739 153.727L243.104 150.749ZM224.293 150.811L224.678 153.786L224.293 150.811ZM223.586 150.902L223.201 147.927L223.586 150.902ZM222.879 150.993L223.264 153.969L222.879 150.993ZM204.073 151.248L204.378 148.264L204.073 151.248ZM202.656 151.103L202.352 154.088L202.656 151.103ZM183.837 150.587L183.696 147.59L183.837 150.587ZM183.129 150.62L183.271 153.617L183.129 150.62ZM182.421 150.653L182.28 147.657V147.657L182.421 150.653ZM163.612 150.632L163.76 147.636L163.612 150.632ZM162.197 150.562L162.345 147.566L162.197 150.562ZM143.396 151.724L142.884 148.768L143.396 151.724ZM141.982 151.969L142.494 154.925V154.925L141.982 151.969ZM123.16 152.282L123.575 149.311L123.16 152.282ZM122.451 152.183L122.866 149.212L122.451 152.183ZM121.742 152.084L121.327 155.055L121.742 152.084ZM102.936 152.268L102.463 149.306L102.936 152.268ZM102.23 152.381L102.703 155.344L102.23 152.381ZM101.524 152.494L101.05 149.532L101.524 152.494ZM82.7472 153.233L82.5051 156.223L82.7472 153.233ZM81.3328 153.118L81.5749 150.128L81.3328 153.118ZM62.5292 152.119L62.6051 149.12L62.5292 152.119ZM61.1129 152.083L61.1888 149.084L61.1129 152.083ZM42.3076 152.613L42.0633 149.623L42.3076 152.613ZM40.8929 152.729L41.1372 155.719L40.8929 152.729ZM21.3782 153.542L21.3918 156.542L21.3782 153.542ZM7.41953 153.056L7.00772 156.028L7.41953 153.056ZM7.1304 153.016L6.7099 155.987L6.71857 155.988L7.1304 153.016ZM3.10004 152.446L3.52054 149.475L3.33893 149.449L3.15552 149.446L3.10004 152.446ZM3.05554 149.444C1.39896 149.414 0.0312202 150.732 0.000549508 152.388C-0.0300907 154.045 1.28799 155.413 2.94455 155.443L3.00006 152.444L3.05554 149.444ZM355 149L354.924 146.001L354.824 146.004L354.9 149.003L354.976 152.002L355.076 151.999L355 149ZM354.9 149.003L354.991 146.004L353.583 145.962L353.493 148.96L353.402 151.959L354.81 152.001L354.9 149.003ZM353.493 148.96L353.583 145.962C341.105 145.585 331.668 145.474 325.31 145.636L325.386 148.635L325.462 151.635C331.648 151.477 340.95 151.583 353.402 151.959L353.493 148.96ZM325.386 148.635L325.31 145.636L324.601 145.655L324.678 148.654L324.754 151.653L325.462 151.635L325.386 148.635ZM324.678 148.654L324.601 145.655L323.893 145.673L323.97 148.672L324.046 151.671L324.754 151.653L324.678 148.654ZM323.97 148.672L323.893 145.673C317.617 145.833 311.348 146.003 305.084 146.184L305.171 149.183L305.257 152.182C311.514 152.001 317.777 151.83 324.046 151.671L323.97 148.672ZM305.171 149.183L305.084 146.184L304.377 146.205L304.464 149.203L304.55 152.202L305.257 152.182L305.171 149.183ZM304.464 149.203L304.377 146.205L303.67 146.225L303.757 149.224L303.844 152.222L304.55 152.202L304.464 149.203ZM303.757 149.224L303.67 146.225C297.401 146.406 291.125 146.617 284.843 146.856L284.958 149.854L285.072 152.852C291.335 152.613 297.592 152.403 303.844 152.222L303.757 149.224ZM284.958 149.854L284.843 146.856L284.135 146.883L284.249 149.881L284.364 152.879L285.072 152.852L284.958 149.854ZM284.249 149.881L284.135 146.883L283.427 146.91L283.541 149.908L283.656 152.906L284.364 152.879L284.249 149.881ZM283.541 149.908L283.427 146.91C277.103 147.151 270.786 147.554 264.475 148.12L264.743 151.108L265.011 154.096C271.219 153.54 277.434 153.143 283.656 152.906L283.541 149.908ZM264.743 151.108L264.475 148.12L263.768 148.183L264.036 151.172L264.304 154.16L265.011 154.096L264.743 151.108ZM264.036 151.172L263.768 148.183L263.062 148.247L263.329 151.235L263.597 154.223L264.304 154.16L264.036 151.172ZM263.329 151.235L263.062 148.247C257.014 148.789 250.957 148.689 244.886 147.945L244.522 150.923L244.157 153.901C250.644 154.695 257.126 154.803 263.597 154.223L263.329 151.235ZM244.522 150.923L244.886 147.945L244.177 147.858L243.813 150.836L243.448 153.814L244.157 153.901L244.522 150.923ZM243.813 150.836L244.177 147.858L243.468 147.771L243.104 150.749L242.739 153.727L243.448 153.814L243.813 150.836ZM243.104 150.749L243.468 147.771C236.941 146.972 230.419 146.993 223.908 147.835L224.293 150.811L224.678 153.786C230.69 153.008 236.709 152.988 242.739 153.727L243.104 150.749ZM224.293 150.811L223.908 147.835L223.201 147.927L223.586 150.902L223.971 153.877L224.678 153.786L224.293 150.811ZM223.586 150.902L223.201 147.927L222.494 148.018L222.879 150.993L223.264 153.969L223.971 153.877L223.586 150.902ZM222.879 150.993L222.494 148.018C216.461 148.799 210.424 148.88 204.378 148.264L204.073 151.248L203.769 154.233C210.274 154.896 216.774 154.808 223.264 153.969L222.879 150.993ZM204.073 151.248L204.378 148.264L203.669 148.191L203.365 151.176L203.06 154.16L203.769 154.233L204.073 151.248ZM203.365 151.176L203.669 148.191L202.961 148.119L202.656 151.103L202.352 154.088L203.06 154.16L203.365 151.176ZM202.656 151.103L202.961 148.119C196.538 147.464 190.116 147.287 183.696 147.59L183.837 150.587L183.979 153.583C190.099 153.295 196.223 153.463 202.352 154.088L202.656 151.103ZM183.837 150.587L183.696 147.59L182.988 147.623L183.129 150.62L183.271 153.617L183.979 153.583L183.837 150.587ZM183.129 150.62L182.988 147.623L182.28 147.657L182.421 150.653L182.563 153.65L183.271 153.617L183.129 150.62ZM182.421 150.653L182.28 147.657C176.106 147.948 169.933 147.941 163.76 147.636L163.612 150.632L163.464 153.628C169.83 153.943 176.196 153.95 182.563 153.65L182.421 150.653ZM163.612 150.632L163.76 147.636L163.053 147.601L162.904 150.597L162.756 153.593L163.464 153.628L163.612 150.632ZM162.904 150.597L163.053 147.601L162.345 147.566L162.197 150.562L162.048 153.558L162.756 153.593L162.904 150.597ZM162.197 150.562L162.345 147.566C155.852 147.245 149.364 147.646 142.884 148.768L143.396 151.724L143.908 154.68C149.958 153.633 156.003 153.259 162.048 153.558L162.197 150.562ZM143.396 151.724L142.884 148.768L142.177 148.891L142.689 151.847L143.201 154.803L143.908 154.68L143.396 151.724ZM142.689 151.847L142.177 148.891L141.47 149.013L141.982 151.969L142.494 154.925L143.201 154.803L142.689 151.847ZM141.982 151.969L141.47 149.013C135.511 150.045 129.55 150.144 123.575 149.311L123.16 152.282L122.746 155.253C129.338 156.172 135.924 156.063 142.494 154.925L141.982 151.969ZM123.16 152.282L123.575 149.311L122.866 149.212L122.451 152.183L122.037 155.154L122.746 155.253L123.16 152.282ZM122.451 152.183L122.866 149.212L122.156 149.113L121.742 152.084L121.327 155.055L122.037 155.154L122.451 152.183ZM121.742 152.084L122.156 149.113C115.579 148.195 109.011 148.259 102.463 149.306L102.936 152.268L103.409 155.231C109.369 154.278 115.338 154.22 121.327 155.055L121.742 152.084ZM102.936 152.268L102.463 149.306L101.757 149.419L102.23 152.381L102.703 155.344L103.409 155.231L102.936 152.268ZM102.23 152.381L101.757 149.419L101.05 149.532L101.524 152.494L101.997 155.456L102.703 155.344L102.23 152.381ZM101.524 152.494L101.05 149.532C95.0311 150.494 89.0124 150.73 82.9893 150.242L82.7472 153.233L82.5051 156.223C89.0095 156.749 95.5086 156.493 101.997 155.456L101.524 152.494ZM82.7472 153.233L82.9893 150.242L82.2821 150.185L82.04 153.175L81.7979 156.165L82.5051 156.223L82.7472 153.233ZM82.04 153.175L82.2821 150.185L81.5749 150.128L81.3328 153.118L81.0907 156.108L81.7979 156.165L82.04 153.175ZM81.3328 153.118L81.5749 150.128C75.2559 149.616 68.9326 149.28 62.6051 149.12L62.5292 152.119L62.4532 155.118C68.6697 155.276 74.8822 155.606 81.0907 156.108L81.3328 153.118ZM62.5292 152.119L62.6051 149.12L61.897 149.102L61.821 152.101L61.7451 155.1L62.4532 155.118L62.5292 152.119ZM61.821 152.101L61.897 149.102L61.1888 149.084L61.1129 152.083L61.037 155.082L61.7451 155.1L61.821 152.101ZM61.1129 152.083L61.1888 149.084C54.8098 148.923 48.4345 149.102 42.0633 149.623L42.3076 152.613L42.5519 155.603C48.7104 155.1 54.872 154.926 61.037 155.082L61.1129 152.083ZM42.3076 152.613L42.0633 149.623L41.356 149.681L41.6003 152.671L41.8445 155.661L42.5519 155.603L42.3076 152.613ZM41.6003 152.671L41.356 149.681L40.6487 149.738L40.8929 152.729L41.1372 155.719L41.8445 155.661L41.6003 152.671ZM40.8929 152.729L40.6487 149.738C34.4603 150.244 28.2684 150.511 22.0727 150.539L22.0864 153.539L22.1001 156.539C28.45 156.51 34.7958 156.237 41.1372 155.719L40.8929 152.729ZM22.0864 153.539L22.0727 150.539L21.3645 150.542L21.3782 153.542L21.3918 156.542L22.1001 156.539L22.0864 153.539ZM21.3782 153.542L21.3645 150.542L20.6563 150.546L20.67 153.546L20.6836 156.546L21.3918 156.542L21.3782 153.542ZM20.67 153.546L20.6563 150.546C14.3822 150.574 10.1579 150.407 7.83133 150.085L7.41953 153.056L7.00772 156.028C9.80276 156.415 14.4121 156.574 20.6836 156.546L20.67 153.546ZM7.41953 153.056L7.83133 150.085L7.54221 150.045L7.1304 153.016L6.71857 155.988L7.00772 156.028L7.41953 153.056ZM7.1304 153.016L7.55087 150.046L3.52054 149.475L3.10004 152.446L2.67953 155.416L6.7099 155.986L7.1304 153.016ZM3.10004 152.446L3.15552 149.446L3.05554 149.444L3.00006 152.444L2.94455 155.443L3.04455 155.445L3.10004 152.446Z" fill="black"/>
</svg>
