<svg width="232" height="311" viewBox="0 0 232 311" fill="none" xmlns="http://www.w3.org/2000/svg">
<g filter="url(#filter0_i_49_145)">
<path d="M4.6521 99.4688C4.6521 46.4494 47.6328 3.46875 100.652 3.46875H130.652C183.671 3.46875 226.652 46.4494 226.652 99.4687V306.469H4.6521V99.4688Z" fill="#ECECEC"/>
</g>
<path d="M110.762 3.10431L110.654 0.10626V0.10626L110.762 3.10431ZM130.211 3.85845L129.854 6.83715L130.211 3.85845ZM150.27 6.35344L149.884 9.32853L150.27 6.35344ZM150.971 6.44437L151.357 3.46929L150.971 6.44437ZM169.756 11.354L168.613 14.128L169.756 11.354ZM170.416 11.6257L171.558 8.85171L170.416 11.6257ZM171.076 11.8975L172.218 9.12347L171.076 11.8975ZM187.067 21.6274L189.006 19.3386L187.067 21.6274ZM187.61 22.088L185.671 24.3769L187.61 22.088ZM188.154 22.5486L190.093 20.2597L188.154 22.5486ZM201.574 35.7027L199.323 37.6859L201.574 35.7027ZM202.507 36.7617L204.758 34.7785L202.507 36.7617ZM213.861 51.7187L216.375 50.0822L213.861 51.7187ZM214.637 52.9113L212.123 54.5478L214.637 52.9113ZM222.404 69.9418L225.288 69.1151L222.404 69.9418ZM222.601 70.6274L219.717 71.4541L222.601 70.6274ZM222.797 71.313L225.681 70.4863L222.797 71.313ZM225.313 89.8259L228.313 89.8564L225.313 89.8259ZM225.298 91.2416L222.298 91.2111L225.298 91.2416ZM226.548 110.049L229.517 109.624L226.548 110.049ZM226.649 110.756L223.679 111.181L226.649 110.756ZM226.75 111.464L229.72 111.039L226.75 111.464ZM227.661 130.269L230.658 130.407L227.661 130.269ZM227.629 130.976L224.632 130.838L227.629 130.976ZM227.596 131.684L230.593 131.822L227.596 131.684ZM227.698 150.489L224.703 150.659L227.698 150.489ZM227.738 151.196L224.743 151.367L227.738 151.196ZM227.779 151.904L230.774 151.733L227.779 151.904ZM227.315 170.709L230.298 171.025L227.315 170.709ZM227.165 172.124L224.181 171.807L227.165 172.124ZM226.434 190.929L229.433 190.843L226.434 190.929ZM226.455 191.636L223.456 191.722L226.455 191.636ZM226.475 192.344L229.474 192.258L226.475 192.344ZM227.007 211.149L230.006 211.064L227.007 211.149ZM227.047 212.564L224.048 212.648L227.047 212.564ZM227.818 231.369L230.814 231.207V231.207L227.818 231.369ZM227.857 232.076L224.861 232.238L227.857 232.076ZM227.895 232.784L230.891 232.622L227.895 232.784ZM226.956 251.589L229.921 252.045L226.956 251.589ZM226.847 252.296L223.882 251.84L226.847 252.296ZM226.738 253.004L229.703 253.46L226.738 253.004ZM226.727 271.809L223.762 272.262L226.727 271.809ZM226.944 273.224L229.909 272.771L226.944 273.224ZM227.609 292.029L230.599 292.274L227.609 292.029ZM227.551 292.736L224.561 292.491L227.551 292.736ZM227.492 293.444L230.482 293.689L227.492 293.444ZM218.971 305.005L218.166 302.115L218.971 305.005ZM218.388 305.167L219.193 308.057L218.388 305.167ZM217.804 305.33L216.999 302.44L217.804 305.33ZM200.652 306.317L201.023 303.34L200.652 306.317ZM199.237 306.14L198.866 309.117L199.237 306.14ZM180.432 306.487L180.911 309.449V309.449L180.432 306.487ZM179.725 306.602L179.246 303.64L179.725 306.602ZM179.017 306.716L179.495 309.678L179.017 306.716ZM160.212 307.808L160.076 310.804L160.212 307.808ZM159.505 307.775L159.641 304.779L159.505 307.775ZM158.797 307.743L158.661 310.74L158.797 307.743ZM139.992 307.14L140.048 304.14L139.992 307.14ZM139.285 307.127L139.341 304.127L139.285 307.127ZM138.577 307.113L138.521 310.113L138.577 307.113ZM119.772 307.074L119.816 310.073L119.772 307.074ZM118.357 307.094L118.313 304.094L118.357 307.094ZM99.5523 306.213L99.2296 309.196L99.5523 306.213ZM98.8446 306.137L99.1672 303.154L98.8446 306.137ZM98.1369 306.06L98.4595 303.077L98.1369 306.06ZM79.3323 305.791L79.0943 302.8L79.3323 305.791ZM78.6245 305.847L78.3866 302.857L78.6245 305.847ZM77.9169 305.904L78.1548 308.894L77.9169 305.904ZM59.1123 306.714L59.1322 309.714L59.1123 306.714ZM58.4046 306.719L58.3846 303.719L58.4046 306.719ZM57.6969 306.724L57.7168 309.724L57.6969 306.724ZM38.8923 305.859L39.1865 302.874V302.874L38.8923 305.859ZM37.4769 305.72L37.1826 308.706V308.706L37.4769 305.72ZM18.6723 306.023L18.2831 303.049L18.6723 306.023ZM17.2569 306.209L17.6461 309.183L17.2569 306.209ZM6.31542 299.075L9.26588 298.532L6.31542 299.075ZM6.08372 297.815L3.13326 298.358L6.08372 297.815ZM5.01168 280.049L8.00799 280.198L5.01168 280.049ZM5.04684 279.341L2.05054 279.192L5.04684 279.341ZM5.082 278.634L8.07831 278.782L5.082 278.634ZM4.88767 259.829L1.89507 260.039L4.88767 259.829ZM4.83789 259.121L7.83049 258.911L4.83789 259.121ZM4.7881 258.414L1.7955 258.624L4.7881 258.414ZM4.07134 239.609L1.07139 239.627L4.07134 239.609ZM5.11763 219.389L2.13831 219.037L5.11763 219.389ZM4.69116 197.754L7.65464 197.287L4.69116 197.754ZM4.55825 178.949L1.5886 178.523L4.55825 178.949ZM5.88276 158.021L2.88351 158.088L5.88276 158.021ZM4.22022 137.094L1.24632 137.488L4.22022 137.094ZM3.00296 117.581L0.0029726 117.572L3.00296 117.581ZM4.81623 96.7313L1.85669 96.2402L4.81623 96.7313ZM8.06484 78.2018L5.11482 77.6565L8.06484 78.2018ZM14.0144 59.1212L16.7297 60.3967L14.0144 59.1212ZM14.315 58.4812L11.5997 57.2057L14.315 58.4812ZM14.6156 57.8413L11.9003 56.5657L14.6156 57.8413ZM24.4925 42.0364L26.8288 43.9183L24.4925 42.0364ZM24.9353 41.4866L22.5991 39.6047L24.9353 41.4866ZM25.3781 40.9369L27.7144 42.8189L25.3781 40.9369ZM39.555 26.809L41.4612 29.1255L39.555 26.809ZM55.059 16.6951L53.7085 14.0163L55.059 16.6951ZM55.6834 16.3803L57.0339 19.0592L55.6834 16.3803ZM56.3077 16.0655L54.9572 13.3867L56.3077 16.0655ZM73.2915 8.20968L74.4599 10.9728L73.2915 8.20968ZM74.5994 7.65663L73.4311 4.8935L74.5994 7.65663ZM91.9699 3.63957L91.8514 0.641911L91.9699 3.63957ZM110.762 3.10431L110.87 6.10237L111.578 6.07685L111.47 3.0788L111.362 0.0807488L110.654 0.10626L110.762 3.10431ZM111.47 3.0788L111.578 6.07685C117.691 5.8565 123.782 6.10992 129.854 6.83715L130.211 3.85845L130.567 0.879737C124.187 0.115545 117.785 -0.150796 111.362 0.0807488L111.47 3.0788ZM130.211 3.85845L129.854 6.83715L130.557 6.92135L130.914 3.94264L131.27 0.963931L130.567 0.879737L130.211 3.85845ZM130.914 3.94264L130.557 6.92135L131.26 7.00554L131.616 4.02683L131.973 1.04812L131.27 0.963931L130.914 3.94264ZM131.616 4.02683L131.26 7.00554C137.476 7.7501 143.684 8.52443 149.884 9.32853L150.27 6.35344L150.656 3.37836C144.436 2.57174 138.209 1.795 131.973 1.04812L131.616 4.02683ZM150.27 6.35344L149.884 9.32853L150.585 9.41946L150.971 6.44437L151.357 3.46929L150.656 3.37836L150.27 6.35344ZM150.971 6.44437L150.585 9.41946L151.286 9.51038L151.672 6.5353L152.058 3.56021L151.357 3.46929L150.971 6.44437ZM151.672 6.5353L151.286 9.51038C157.234 10.2817 163.008 11.8197 168.613 14.128L169.756 11.354L170.898 8.57994C164.812 6.07405 158.53 4.3996 152.058 3.56021L151.672 6.5353ZM169.756 11.354L168.613 14.128L169.273 14.3998L170.416 11.6257L171.558 8.85171L170.898 8.57994L169.756 11.354ZM170.416 11.6257L169.273 14.3998L169.933 14.6715L171.076 11.8975L172.218 9.12347L171.558 8.85171L170.416 11.6257ZM171.076 11.8975L169.933 14.6715C175.49 16.9597 180.552 20.0395 185.127 23.9163L187.067 21.6274L189.006 19.3386C183.952 15.0564 178.353 11.6495 172.218 9.12347L171.076 11.8975ZM187.067 21.6274L185.127 23.9163L185.671 24.3769L187.61 22.088L189.55 19.7991L189.006 19.3386L187.067 21.6274ZM187.61 22.088L185.671 24.3769L186.215 24.8375L188.154 22.5486L190.093 20.2597L189.55 19.7991L187.61 22.088ZM188.154 22.5486L186.215 24.8375C190.919 28.8238 195.288 33.1064 199.323 37.6859L201.574 35.7027L203.825 33.7195C199.596 28.9193 195.018 24.4326 190.093 20.2597L188.154 22.5486ZM201.574 35.7027L199.323 37.6859L199.789 38.2154L202.04 36.2322L204.291 34.249L203.825 33.7195L201.574 35.7027ZM202.04 36.2322L199.789 38.2154L200.256 38.7449L202.507 36.7617L204.758 34.7785L204.291 34.249L202.04 36.2322ZM202.507 36.7617L200.256 38.7449C204.291 43.3248 207.988 48.1944 211.347 53.3552L213.861 51.7187L216.375 50.0822C212.859 44.6799 208.987 39.5783 204.758 34.7785L202.507 36.7617ZM213.861 51.7187L211.347 53.3552L211.735 53.9515L214.249 52.315L216.763 50.6785L216.375 50.0822L213.861 51.7187ZM214.249 52.315L211.735 53.9515L212.123 54.5478L214.637 52.9113L217.151 51.2748L216.763 50.6785L214.249 52.315ZM214.637 52.9113L212.123 54.5478C215.397 59.5786 217.862 64.9824 219.52 70.7685L222.404 69.9418L225.288 69.1151C223.465 62.7569 220.752 56.807 217.151 51.2748L214.637 52.9113ZM222.404 69.9418L219.52 70.7685L219.717 71.4541L222.601 70.6274L225.485 69.8007L225.288 69.1151L222.404 69.9418ZM222.601 70.6274L219.717 71.4541L219.913 72.1396L222.797 71.313L225.681 70.4863L225.485 69.8007L222.601 70.6274ZM222.797 71.313L219.913 72.1396C221.575 77.9353 222.374 83.8176 222.313 89.7954L225.313 89.8259L228.313 89.8564C228.379 83.2946 227.501 76.835 225.681 70.4863L222.797 71.313ZM225.313 89.8259L222.313 89.7954L222.306 90.5033L225.306 90.5338L228.305 90.5642L228.313 89.8564L225.313 89.8259ZM225.306 90.5338L222.306 90.5033L222.298 91.2111L225.298 91.2416L228.298 91.2721L228.305 90.5642L225.306 90.5338ZM225.298 91.2416L222.298 91.2111C222.233 97.6347 222.66 104.056 223.578 110.473L226.548 110.049L229.517 109.624C228.642 103.505 228.236 97.3881 228.298 91.2721L225.298 91.2416ZM226.548 110.049L223.578 110.473L223.679 111.181L226.649 110.756L229.618 110.332L229.517 109.624L226.548 110.049ZM226.649 110.756L223.679 111.181L223.78 111.889L226.75 111.464L229.72 111.039L229.618 110.332L226.649 110.756ZM226.75 111.464L223.78 111.889C224.65 117.972 224.945 124.052 224.665 130.13L227.661 130.269L230.658 130.407C230.956 123.949 230.643 117.492 229.72 111.039L226.75 111.464ZM227.661 130.269L224.665 130.13L224.632 130.838L227.629 130.976L230.626 131.114L230.658 130.407L227.661 130.269ZM227.629 130.976L224.632 130.838L224.599 131.546L227.596 131.684L230.593 131.822L230.626 131.114L227.629 130.976ZM227.596 131.684L224.599 131.546C224.306 137.917 224.34 144.288 224.703 150.659L227.698 150.489L230.693 150.318C230.342 144.153 230.309 137.987 230.593 131.822L227.596 131.684ZM227.698 150.489L224.703 150.659L224.743 151.367L227.738 151.196L230.733 151.026L230.693 150.318L227.698 150.489ZM227.738 151.196L224.743 151.367L224.783 152.074L227.779 151.904L230.774 151.733L230.733 151.026L227.738 151.196ZM227.779 151.904L224.783 152.074C225.131 158.18 224.98 164.285 224.332 170.392L227.315 170.709L230.298 171.025C230.981 164.596 231.14 158.165 230.774 151.733L227.779 151.904ZM227.315 170.709L224.332 170.392L224.257 171.099L227.24 171.416L230.223 171.733L230.298 171.025L227.315 170.709ZM227.24 171.416L224.257 171.099L224.181 171.807L227.165 172.124L230.148 172.441L230.223 171.733L227.24 171.416ZM227.165 172.124L224.181 171.807C223.501 178.208 223.253 184.611 223.436 191.014L226.434 190.929L229.433 190.843C229.258 184.71 229.496 178.576 230.148 172.441L227.165 172.124ZM226.434 190.929L223.436 191.014L223.456 191.722L226.455 191.636L229.453 191.551L229.433 190.843L226.434 190.929ZM226.455 191.636L223.456 191.722L223.476 192.43L226.475 192.344L229.474 192.258L229.453 191.551L226.455 191.636ZM226.475 192.344L223.476 192.43C223.655 198.697 223.832 204.965 224.008 211.233L227.007 211.149L230.006 211.064C229.83 204.796 229.652 198.527 229.474 192.258L226.475 192.344ZM227.007 211.149L224.008 211.233L224.028 211.94L227.027 211.856L230.025 211.772L230.006 211.064L227.007 211.149ZM227.027 211.856L224.028 211.94L224.048 212.648L227.047 212.564L230.045 212.48L230.025 211.772L227.027 211.856ZM227.047 212.564L224.048 212.648C224.224 218.942 224.483 225.236 224.823 231.531L227.818 231.369L230.814 231.207C230.477 224.964 230.22 218.722 230.045 212.48L227.047 212.564ZM227.818 231.369L224.823 231.531L224.861 232.238L227.857 232.076L230.852 231.914L230.814 231.207L227.818 231.369ZM227.857 232.076L224.861 232.238L224.899 232.946L227.895 232.784L230.891 232.622L230.852 231.914L227.857 232.076ZM227.895 232.784L224.899 232.946C225.227 239.005 224.925 245.066 223.991 251.132L226.956 251.589L229.921 252.045C230.917 245.574 231.241 239.099 230.891 232.622L227.895 232.784ZM226.956 251.589L223.991 251.132L223.882 251.84L226.847 252.296L229.812 252.753L229.921 252.045L226.956 251.589ZM226.847 252.296L223.882 251.84L223.773 252.548L226.738 253.004L229.703 253.46L229.812 252.753L226.847 252.296ZM226.738 253.004L223.773 252.548C222.762 259.117 222.758 265.692 223.762 272.262L226.727 271.809L229.693 271.355C228.781 265.389 228.785 259.427 229.703 253.46L226.738 253.004ZM226.727 271.809L223.762 272.262L223.87 272.969L226.835 272.516L229.801 272.063L229.693 271.355L226.727 271.809ZM226.835 272.516L223.87 272.969L223.978 273.677L226.944 273.224L229.909 272.771L229.801 272.063L226.835 272.516ZM226.944 273.224L223.978 273.677C224.901 279.716 225.114 285.75 224.619 291.783L227.609 292.029L230.599 292.274C231.132 285.771 230.902 279.268 229.909 272.771L226.944 273.224ZM227.609 292.029L224.619 291.783L224.561 292.491L227.551 292.736L230.54 292.982L230.599 292.274L227.609 292.029ZM227.551 292.736L224.561 292.491L224.502 293.199L227.492 293.444L230.482 293.689L230.54 292.982L227.551 292.736ZM227.492 293.444L224.502 293.199C224.277 295.948 223.563 297.897 222.561 299.255C221.587 300.578 220.186 301.552 218.166 302.115L218.971 305.005L219.776 307.895C222.923 307.018 225.526 305.346 227.391 302.815C229.23 300.32 230.194 297.208 230.482 293.689L227.492 293.444ZM218.971 305.005L218.166 302.115L217.583 302.277L218.388 305.167L219.193 308.057L219.776 307.895L218.971 305.005ZM218.388 305.167L217.583 302.277L216.999 302.44L217.804 305.33L218.609 308.22L219.193 308.057L218.388 305.167ZM217.804 305.33L216.999 302.44C212.277 303.755 206.966 304.08 201.023 303.34L200.652 306.317L200.281 309.294C206.874 310.115 212.999 309.782 218.609 308.22L217.804 305.33ZM200.652 306.317L201.023 303.34L200.316 303.251L199.945 306.228L199.574 309.205L200.281 309.294L200.652 306.317ZM199.945 306.228L200.316 303.251L199.608 303.163L199.237 306.14L198.866 309.117L199.574 309.205L199.945 306.228ZM199.237 306.14L199.608 303.163C193.056 302.347 186.502 302.468 179.954 303.526L180.432 306.487L180.911 309.449C186.899 308.482 192.882 308.371 198.866 309.117L199.237 306.14ZM180.432 306.487L179.954 303.526L179.246 303.64L179.725 306.602L180.203 309.563L180.911 309.449L180.432 306.487ZM179.725 306.602L179.246 303.64L178.538 303.755L179.017 306.716L179.495 309.678L180.203 309.563L179.725 306.602ZM179.017 306.716L178.538 303.755C172.471 304.735 166.409 305.086 160.349 304.811L160.212 307.808L160.076 310.804C166.552 311.099 173.026 310.723 179.495 309.678L179.017 306.716ZM160.212 307.808L160.349 304.811L159.641 304.779L159.505 307.775L159.368 310.772L160.076 310.804L160.212 307.808ZM159.505 307.775L159.641 304.779L158.933 304.746L158.797 307.743L158.661 310.74L159.368 310.772L159.505 307.775ZM158.797 307.743L158.933 304.746C152.638 304.46 146.343 304.258 140.048 304.14L139.992 307.14L139.936 310.139C146.178 310.256 152.419 310.456 158.661 310.74L158.797 307.743ZM139.992 307.14L140.048 304.14L139.341 304.127L139.285 307.127L139.228 310.126L139.936 310.139L139.992 307.14ZM139.285 307.127L139.341 304.127L138.633 304.114L138.577 307.113L138.521 310.113L139.228 310.126L139.285 307.127ZM138.577 307.113L138.633 304.114C132.332 303.996 126.03 303.983 119.729 304.074L119.772 307.074L119.816 310.073C126.051 309.983 132.286 309.996 138.521 310.113L138.577 307.113ZM119.772 307.074L119.729 304.074L119.021 304.084L119.065 307.084L119.108 310.084L119.816 310.073L119.772 307.074ZM119.065 307.084L119.021 304.084L118.313 304.094L118.357 307.094L118.4 310.094L119.108 310.084L119.065 307.084ZM118.357 307.094L118.313 304.094C112.168 304.183 106.022 303.896 99.8749 303.231L99.5523 306.213L99.2296 309.196C105.619 309.887 112.009 310.186 118.4 310.094L118.357 307.094ZM99.5523 306.213L99.8749 303.231L99.1672 303.154L98.8446 306.137L98.5219 309.119L99.2296 309.196L99.5523 306.213ZM98.8446 306.137L99.1672 303.154L98.4595 303.077L98.1369 306.06L97.8142 309.043L98.5219 309.119L98.8446 306.137ZM98.1369 306.06L98.4595 303.077C92.0056 302.379 85.5497 302.287 79.0943 302.8L79.3323 305.791L79.5702 308.782C85.6512 308.298 91.7317 308.385 97.8142 309.043L98.1369 306.06ZM79.3323 305.791L79.0943 302.8L78.3866 302.857L78.6245 305.847L78.8625 308.838L79.5702 308.782L79.3323 305.791ZM78.6245 305.847L78.3866 302.857L77.6789 302.913L77.9169 305.904L78.1548 308.894L78.8625 308.838L78.6245 305.847ZM77.9169 305.904L77.6789 302.913C71.483 303.406 65.2875 303.673 59.0923 303.714L59.1123 306.714L59.1322 309.714C65.4734 309.672 71.8143 309.399 78.1548 308.894L77.9169 305.904ZM59.1123 306.714L59.0923 303.714L58.3846 303.719L58.4046 306.719L58.4245 309.719L59.1322 309.714L59.1123 306.714ZM58.4046 306.719L58.3846 303.719L57.6769 303.724L57.6969 306.724L57.7168 309.724L58.4245 309.719L58.4046 306.719ZM57.6969 306.724L57.6769 303.724C51.5141 303.765 45.3508 303.482 39.1865 302.874L38.8923 305.859L38.598 308.845C44.9701 309.473 51.3432 309.766 57.7168 309.724L57.6969 306.724ZM38.8923 305.859L39.1865 302.874L38.4788 302.804L38.1846 305.79L37.8903 308.775L38.598 308.845L38.8923 305.859ZM38.1846 305.79L38.4788 302.804L37.7711 302.734L37.4769 305.72L37.1826 308.706L37.8903 308.775L38.1846 305.79ZM37.4769 305.72L37.7711 302.734C31.2746 302.094 24.7771 302.199 18.2831 303.049L18.6723 306.023L19.0615 308.998C25.1038 308.208 31.1427 308.11 37.1826 308.706L37.4769 305.72ZM18.6723 306.023L18.2831 303.049L17.5754 303.141L17.9646 306.116L18.3538 309.091L19.0615 308.998L18.6723 306.023ZM17.9646 306.116L17.5754 303.141L16.8677 303.234L17.2569 306.209L17.6461 309.183L18.3538 309.091L17.9646 306.116ZM17.2569 306.209L16.8677 303.234C14.1291 303.592 12.4628 303.182 11.4589 302.527C10.5159 301.912 9.67734 300.768 9.26588 298.532L6.31542 299.075L3.36496 299.618C3.97959 302.958 5.47769 305.79 8.18182 307.553C10.825 309.277 14.1164 309.645 17.6461 309.183L17.2569 306.209ZM6.31542 299.075L9.26588 298.532L9.15003 297.902L6.19957 298.445L3.24911 298.988L3.36496 299.618L6.31542 299.075ZM6.19957 298.445L9.15003 297.902L9.03418 297.273L6.08372 297.815L3.13326 298.358L3.24911 298.988L6.19957 298.445ZM6.08372 297.815L9.03418 297.273C8.05424 291.947 7.70688 286.259 8.00799 280.198L5.01168 280.049L2.01538 279.9C1.69368 286.376 2.061 292.531 3.13326 298.358L6.08372 297.815ZM5.01168 280.049L8.00799 280.198L8.04315 279.49L5.04684 279.341L2.05054 279.192L2.01538 279.9L5.01168 280.049ZM5.04684 279.341L8.04315 279.49L8.07831 278.782L5.082 278.634L2.0857 278.485L2.05054 279.192L5.04684 279.341ZM5.082 278.634L8.07831 278.782C8.39567 272.394 8.32964 266.006 7.88028 259.618L4.88767 259.829L1.89507 260.039C2.32762 266.188 2.39115 272.336 2.0857 278.485L5.082 278.634ZM4.88767 259.829L7.88028 259.618L7.83049 258.911L4.83789 259.121L1.84529 259.332L1.89507 260.039L4.88767 259.829ZM4.83789 259.121L7.83049 258.911L7.78071 258.203L4.7881 258.414L1.7955 258.624L1.84529 259.332L4.83789 259.121ZM4.7881 258.414L7.78071 258.203C7.34426 251.999 7.10779 245.795 7.07129 239.591L4.07134 239.609L1.07139 239.627C1.10866 245.959 1.35004 252.292 1.7955 258.624L4.7881 258.414ZM4.07134 239.609L7.07129 239.591L7.06713 238.884L4.06718 238.901L1.06723 238.919L1.07139 239.627L4.07134 239.609ZM4.06718 238.901L7.06713 238.884L7.06296 238.176L4.06301 238.194L1.06307 238.211L1.06723 238.919L4.06718 238.901ZM4.06301 238.194L7.06296 238.176C7.02681 232.032 7.37135 225.887 8.09694 219.741L5.11763 219.389L2.13831 219.037C1.38399 225.427 1.02545 231.819 1.06307 238.211L4.06301 238.194ZM5.11763 219.389L8.09694 219.741L8.18048 219.033L5.20117 218.681L2.22186 218.33L2.13831 219.037L5.11763 219.389ZM5.20117 218.681L8.18048 219.033L8.26403 218.325L5.28471 217.974L2.3054 217.622L2.22186 218.33L5.20117 218.681ZM5.28471 217.974L8.26403 218.325C9.0363 211.783 8.90701 205.24 7.87752 198.702L4.91404 199.169L1.95056 199.636C2.89522 205.634 3.01305 211.627 2.3054 217.622L5.28471 217.974ZM4.91404 199.169L7.87752 198.702L7.76608 197.995L4.8026 198.461L1.83912 198.928L1.95056 199.636L4.91404 199.169ZM4.8026 198.461L7.76608 197.995L7.65464 197.287L4.69116 197.754L1.72768 198.22L1.83912 198.928L4.8026 198.461ZM4.69116 197.754L7.65464 197.287C6.714 191.314 6.67196 185.346 7.5279 179.375L4.55825 178.949L1.5886 178.523C0.647604 185.088 0.694173 191.657 1.72768 198.22L4.69116 197.754ZM4.55825 178.949L7.5279 179.375L7.62934 178.667L4.65969 178.241L1.69004 177.816L1.5886 178.523L4.55825 178.949ZM4.65969 178.241L7.62934 178.667L7.73078 177.959L4.76113 177.534L1.79148 177.108L1.69004 177.816L4.65969 178.241ZM4.76113 177.534L7.73078 177.959C8.6524 171.529 9.04172 165.096 8.89783 158.662L5.89858 158.729L2.89933 158.796C3.03578 164.898 2.6668 171.001 1.79148 177.108L4.76113 177.534ZM5.89858 158.729L8.89783 158.662L8.88201 157.954L5.88276 158.021L2.88351 158.088L2.89933 158.796L5.89858 158.729ZM5.88276 158.021L8.88201 157.954L8.86618 157.246L5.86693 157.314L2.86768 157.381L2.88351 158.088L5.88276 158.021ZM5.86693 157.314L8.86618 157.246C8.72354 150.868 8.22872 144.49 7.38206 138.114L4.40817 138.509L1.43427 138.904C2.2523 145.064 2.72999 151.223 2.86768 157.381L5.86693 157.314ZM4.40817 138.509L7.38206 138.114L7.28809 137.406L4.31419 137.801L1.3403 138.196L1.43427 138.904L4.40817 138.509ZM4.31419 137.801L7.28809 137.406L7.19411 136.699L4.22022 137.094L1.24632 137.488L1.3403 138.196L4.31419 137.801ZM4.22022 137.094L7.19411 136.699C6.3794 130.563 5.9818 124.43 6.00076 118.298L3.00077 118.289L0.000784874 118.28C-0.0190172 124.684 0.396342 131.087 1.24632 137.488L4.22022 137.094ZM3.00077 118.289L6.00076 118.298L6.00294 117.59L3.00296 117.581L0.0029726 117.572L0.000784874 118.28L3.00077 118.289ZM3.00296 117.581L6.00294 117.59L6.00513 116.883L3.00515 116.874L0.00516081 116.864L0.0029726 117.572L3.00296 117.581ZM3.00515 116.874L6.00513 116.883C6.02401 110.777 6.53629 104.692 7.54261 98.6276L4.58307 98.1365L1.62353 97.6455C0.564711 104.027 0.0250435 110.434 0.00516081 116.864L3.00515 116.874ZM4.58307 98.1365L7.54261 98.6276L7.65919 97.925L4.69965 97.4339L1.74011 96.9429L1.62353 97.6455L4.58307 98.1365ZM4.69965 97.4339L7.65919 97.925L7.77577 97.2224L4.81623 96.7313L1.85669 96.2402L1.74011 96.9429L4.69965 97.4339ZM4.81623 96.7313L7.77577 97.2224C8.80537 91.0171 9.88507 84.8587 11.0149 78.7472L8.06484 78.2018L5.11482 77.6565C3.97827 83.8046 2.89223 89.9992 1.85669 96.2402L4.81623 96.7313ZM8.06484 78.2018L11.0149 78.7472L11.1428 78.0551L8.19277 77.5098L5.24276 76.9644L5.11482 77.6565L8.06484 78.2018ZM8.19277 77.5098L11.1428 78.0551L11.2707 77.363L8.32071 76.8177L5.3707 76.2723L5.24276 76.9644L8.19277 77.5098ZM8.32071 76.8177L11.2707 77.363C12.357 71.4868 14.1757 65.8333 16.7297 60.3967L14.0144 59.1212L11.2991 57.8456C8.52781 63.7447 6.55075 69.8889 5.3707 76.2723L8.32071 76.8177ZM14.0144 59.1212L16.7297 60.3967L17.0303 59.7568L14.315 58.4812L11.5997 57.2057L11.2991 57.8456L14.0144 59.1212ZM14.315 58.4812L17.0303 59.7568L17.3309 59.1169L14.6156 57.8413L11.9003 56.5657L11.5997 57.2057L14.315 58.4812ZM14.6156 57.8413L17.3309 59.1169C19.892 53.6652 23.0571 48.6005 26.8288 43.9183L24.4925 42.0364L22.1563 40.1544C18.0839 45.2098 14.6645 50.6817 11.9003 56.5657L14.6156 57.8413ZM24.4925 42.0364L26.8288 43.9183L27.2716 43.3686L24.9353 41.4866L22.5991 39.6047L22.1563 40.1544L24.4925 42.0364ZM24.9353 41.4866L27.2716 43.3686L27.7144 42.8189L25.3781 40.9369L23.0419 39.055L22.5991 39.6047L24.9353 41.4866ZM25.3781 40.9369L27.7144 42.8189C31.5088 38.1085 35.7288 33.8426 40.376 30.0184L38.4698 27.7019L36.5636 25.3854C31.5993 29.4704 27.0915 34.0278 23.0419 39.055L25.3781 40.9369ZM38.4698 27.7019L40.376 30.0184L40.9186 29.572L39.0124 27.2554L37.1061 24.9389L36.5636 25.3854L38.4698 27.7019ZM39.0124 27.2554L40.9186 29.572L41.4612 29.1255L39.555 26.809L37.6487 24.4924L37.1061 24.9389L39.0124 27.2554ZM39.555 26.809L41.4612 29.1255C46.0965 25.3112 51.0783 22.0616 56.4095 19.3739L55.059 16.6951L53.7085 14.0163C47.9792 16.9046 42.6249 20.3976 37.6487 24.4924L39.555 26.809ZM55.059 16.6951L56.4095 19.3739L57.0339 19.0592L55.6834 16.3803L54.3329 13.7015L53.7085 14.0163L55.059 16.6951ZM55.6834 16.3803L57.0339 19.0592L57.6582 18.7444L56.3077 16.0655L54.9572 13.3867L54.3329 13.7015L55.6834 16.3803ZM56.3077 16.0655L57.6582 18.7444C63.1278 15.9869 68.7283 13.3964 74.4599 10.9728L73.2915 8.20968L72.1231 5.44655C66.2702 7.92143 60.5482 10.5681 54.9572 13.3867L56.3077 16.0655ZM73.2915 8.20968L74.4599 10.9728L75.1138 10.6963L73.9455 7.93316L72.7771 5.17002L72.1231 5.44655L73.2915 8.20968ZM73.9455 7.93316L75.1138 10.6963L75.7678 10.4198L74.5994 7.65663L73.4311 4.8935L72.7771 5.17002L73.9455 7.93316ZM74.5994 7.65663L75.7678 10.4198C81.2818 8.08819 86.514 6.8576 91.4807 6.66125L91.3622 3.66359L91.2437 0.665936C85.4446 0.89519 79.5015 2.32663 73.4311 4.8935L74.5994 7.65663ZM91.3622 3.66359L91.4807 6.66125L92.0885 6.63723L91.9699 3.63957L91.8514 0.641911L91.2437 0.665936L91.3622 3.66359ZM91.9699 3.63957L92.0885 6.63723L92.6962 6.6132L92.5777 3.61554L92.4592 0.617885L91.8514 0.641911L91.9699 3.63957ZM92.5777 3.61554L92.6962 6.6132C95.3855 6.50689 97.392 6.43425 98.7223 6.39487C99.3907 6.37508 99.8711 6.36422 100.177 6.36125C100.336 6.35969 100.414 6.36069 100.436 6.36136C100.46 6.36208 100.395 6.3613 100.294 6.35026C100.266 6.34719 100.09 6.32918 99.8669 6.26944C99.7795 6.24598 99.4773 6.16399 99.1334 5.96245C98.967 5.86492 97.6521 5.09071 97.6521 3.37651H100.652H103.652C103.652 1.66064 102.336 0.884824 102.167 0.785759C101.82 0.582676 101.514 0.499209 101.422 0.47434C101.188 0.411783 100.996 0.391214 100.947 0.385844C100.804 0.370199 100.676 0.365856 100.616 0.364056C100.47 0.359685 100.295 0.359805 100.118 0.36153C99.7509 0.36511 99.222 0.377449 98.5447 0.397499C97.1836 0.437794 95.1529 0.511398 92.4592 0.617885L92.5777 3.61554ZM100.652 3.37651H97.6521V3.38255H100.652H103.652V3.37651H100.652ZM100.652 3.38255H97.6521V3.38858H100.652H103.652V3.38255H100.652ZM100.652 3.38858H97.6521C97.6521 4.38596 98.1287 5.09078 98.4834 5.46205C98.8148 5.80901 99.1508 5.99312 99.3103 6.07305C99.6358 6.23615 99.9161 6.30024 99.9936 6.31794C100.2 6.36502 100.37 6.38029 100.414 6.38439C100.544 6.3963 100.664 6.39972 100.728 6.40124C100.879 6.40481 101.068 6.40444 101.271 6.40231C101.689 6.39793 102.298 6.38451 103.085 6.36284C104.666 6.31935 107.026 6.24092 110.162 6.12788L110.054 3.12982L109.946 0.13177C106.814 0.244678 104.474 0.32235 102.92 0.365111C102.14 0.38657 101.574 0.398813 101.208 0.402636C101.02 0.404607 100.915 0.403974 100.87 0.402912C100.836 0.402118 100.883 0.40213 100.963 0.40954C100.983 0.411394 101.135 0.424138 101.329 0.468419C101.4 0.484729 101.676 0.547348 101.998 0.708913C102.156 0.788081 102.491 0.971402 102.822 1.31756C103.176 1.68803 103.652 2.39203 103.652 3.38858H100.652ZM110.054 3.12982L110.162 6.12788L110.87 6.10237L110.762 3.10431L110.654 0.10626L109.946 0.13177L110.054 3.12982Z" fill="black"/>
<defs>
<filter id="filter0_i_49_145" x="0" y="0" width="231.027" height="310.901" filterUnits="userSpaceOnUse" color-interpolation-filters="sRGB">
<feFlood flood-opacity="0" result="BackgroundImageFix"/>
<feBlend mode="normal" in="SourceGraphic" in2="BackgroundImageFix" result="shape"/>
<feColorMatrix in="SourceAlpha" type="matrix" values="0 0 0 0 0 0 0 0 0 0 0 0 0 0 0 0 0 0 127 0" result="hardAlpha"/>
<feOffset dx="43" dy="42"/>
<feComposite in2="hardAlpha" operator="arithmetic" k2="-1" k3="1"/>
<feColorMatrix type="matrix" values="0 0 0 0 0 0 0 0 0 0 0 0 0 0 0 0 0 0 0.25 0"/>
<feBlend mode="normal" in2="shape" result="effect1_innerShadow_49_145"/>
</filter>
</defs>
</svg>
