<svg width="85" height="66" viewBox="0 0 85 66" fill="none" xmlns="http://www.w3.org/2000/svg">
<path d="M2.61328 2.56982H82.6133L81.1133 59.0698L2.61328 63.5698V2.56982Z" fill="white"/>
<path d="M13.1027 2.63761L13.3649 0.654873L13.1027 2.63761ZM13.3533 2.67075L13.0911 4.65349L13.3533 2.67075ZM13.6039 2.70389L13.8661 0.721158L13.6039 2.70389ZM20.2627 2.738L20.0205 0.752721L20.2627 2.738ZM20.5133 2.70742L20.2711 0.722146L20.5133 2.70742ZM20.7639 2.67685L21.0061 4.66213L20.7639 2.67685ZM27.4227 2.10204L27.3215 0.1046L27.4227 2.10204ZM27.9239 2.07666L27.8227 0.079221L27.9239 2.07666ZM41.7427 2.62196L41.7514 0.621978L41.7427 2.62196ZM42.2439 2.62413L42.2352 4.62412L42.2439 2.62413ZM56.0627 2.11058L56.1335 0.111838L56.0627 2.11058ZM56.5639 2.12833L56.6347 0.129588L56.5639 2.12833ZM63.2227 2.74117L62.9286 4.71943L63.2227 2.74117ZM63.7239 2.81568L63.4298 4.79394L63.7239 2.81568ZM70.3827 2.62329L69.9783 0.664588L70.3827 2.62329ZM82.2716 5.1925L84.1811 4.59765L82.2716 5.1925ZM82.3392 5.40955L80.4297 6.0044L82.3392 5.40955ZM82.4068 5.6266L84.3163 5.03175L82.4068 5.6266ZM82.7065 11.825L80.7383 11.4695L82.7065 11.825ZM82.6614 12.0744L84.6296 12.4299L82.6614 12.0744ZM82.6164 12.3239L80.6482 11.9685L82.6164 12.3239ZM82.0665 18.9705L84.0663 18.9412L82.0665 18.9705ZM82.0739 19.4721L80.0741 19.5013L82.0739 19.4721ZM82.169 26.1357L80.1692 26.1635L82.169 26.1357ZM82.176 26.6373L84.1758 26.6095L82.176 26.6373ZM82.3937 33.3042L80.3963 33.4068L82.3937 33.3042ZM82.4195 33.8063L84.4168 33.7037L82.4195 33.8063ZM81.7629 40.45L79.8227 39.9645L81.7629 40.45ZM81.7006 40.699L83.6408 41.1845L81.7006 40.699ZM81.6383 40.9481L79.6981 40.4626L81.6383 40.9481ZM81.4561 47.6044L79.4923 47.9831L81.4561 47.6044ZM81.5047 47.8563L83.4685 47.4776L81.5047 47.8563ZM81.5533 48.1083L79.5895 48.4871L81.5533 48.1083ZM81.7164 54.7738L79.7372 54.4859L81.7164 54.7738ZM81.6801 55.0235L83.6592 55.3114L81.6801 55.0235ZM81.6437 55.2733L79.6646 54.9854V54.9854L81.6437 55.2733ZM78.0516 59.2333L77.647 57.2747L78.0516 59.2333ZM77.5835 59.33L77.9881 61.2887L77.5835 59.33ZM71.1157 59.565L71.3566 57.5796L71.1157 59.565ZM70.863 59.5344L70.6222 61.5198L70.863 59.5344ZM70.6102 59.5037L70.851 57.5182L70.6102 59.5037ZM63.9725 60.062L63.4076 58.1434L63.9725 60.062ZM63.4788 60.2074L64.0437 62.1259L63.4788 60.2074ZM56.8628 61.1454L56.8463 63.1453L56.8628 61.1454ZM56.6117 61.1433L56.5952 63.1432L56.6117 61.1433ZM56.3606 61.1412L56.3771 59.1413L56.3606 61.1412ZM49.695 61.2144L49.6345 59.2153L49.695 61.2144ZM49.4445 61.222L49.505 63.2211L49.4445 61.222ZM49.1939 61.2296L49.1334 59.2305L49.1939 61.2296ZM42.5448 61.5904L42.701 63.5843L42.5448 61.5904ZM42.0451 61.6295L41.8889 59.6357L42.0451 61.6295ZM35.3714 61.5611L35.5663 59.5707L35.3714 61.5611ZM34.8665 61.5117L34.6716 63.5022L34.8665 61.5117ZM28.2108 61.7555L27.8693 59.7849L28.2108 61.7555ZM27.9622 61.7986L28.3038 63.7692L27.9622 61.7986ZM27.7137 61.8416L27.3722 59.871L27.7137 61.8416ZM21.0895 62.6363L20.9559 60.6408L21.0895 62.6363ZM20.8395 62.6531L20.9731 64.6486L20.8395 62.6531ZM20.5894 62.6698L20.7231 64.6654L20.5894 62.6698ZM13.9163 62.61L14.0842 60.617L13.9163 62.61ZM13.664 62.5887L13.4961 64.5817L13.664 62.5887ZM13.4118 62.5675L13.5797 60.5745L13.4118 62.5675ZM6.77279 63.1034L6.28978 61.1626L6.77279 63.1034ZM6.52531 63.165L7.00832 65.1058L6.52531 63.165ZM6.27783 63.2266L5.79482 61.2858L6.27783 63.2266ZM2.7892 60.6568L0.7927 60.775L2.7892 60.6568ZM2.7741 60.4017L4.7706 60.2835L2.7741 60.4017ZM2.75899 60.1467L0.762492 60.265L2.75899 60.1467ZM2.79707 53.4292L4.79195 53.5723L2.79707 53.4292ZM2.81504 53.1786L0.820161 53.0356L2.81504 53.1786ZM2.83301 52.928L4.82789 53.0711L2.83301 52.928ZM2.31219 38.608L0.312265 38.625L2.31219 38.608ZM2.85122 31.9492L0.879633 31.6133L2.85122 31.9492ZM2.89392 31.6986L0.922333 31.3627L2.89392 31.6986ZM2.93662 31.448L4.9082 31.784L2.93662 31.448ZM2.44057 4.60422L0.545462 5.2434L2.44057 4.60422ZM6.19328 2.38356L6.2972 4.38085L6.5478 4.36782L6.44388 2.37052L6.33996 0.373219L6.08936 0.386258L6.19328 2.38356ZM6.44388 2.37052L6.5478 4.36782C8.64427 4.25874 10.7413 4.34273 12.8405 4.62034L13.1027 2.63761L13.3649 0.654873C11.0249 0.345397 8.6827 0.251326 6.33996 0.373219L6.44388 2.37052ZM13.1027 2.63761L12.8405 4.62034L13.0911 4.65349L13.3533 2.67075L13.6155 0.688016L13.3649 0.654873L13.1027 2.63761ZM13.3533 2.67075L13.0911 4.65349L13.3417 4.68663L13.6039 2.70389L13.8661 0.721158L13.6155 0.688016L13.3533 2.67075ZM13.6039 2.70389L13.3417 4.68663C15.7284 5.00228 18.1175 5.01456 20.5049 4.72328L20.2627 2.738L20.0205 0.752721C17.9687 1.00306 15.9186 0.9926 13.8661 0.721158L13.6039 2.70389ZM20.2627 2.738L20.5049 4.72328L20.7555 4.6927L20.5133 2.70742L20.2711 0.722146L20.0205 0.752721L20.2627 2.738ZM20.5133 2.70742L20.7555 4.6927L21.0061 4.66213L20.7639 2.67685L20.5217 0.691571L20.2711 0.722146L20.5133 2.70742ZM20.7639 2.67685L21.0061 4.66213C23.1791 4.397 25.3517 4.20947 27.5238 4.09948L27.4227 2.10204L27.3215 0.1046C25.0545 0.219397 22.7878 0.415077 20.5217 0.691571L20.7639 2.67685ZM27.4227 2.10204L27.5238 4.09948L27.7744 4.08679L27.6733 2.08935L27.5721 0.0919106L27.3215 0.1046L27.4227 2.10204ZM27.6733 2.08935L27.7744 4.08679L28.025 4.0741L27.9239 2.07666L27.8227 0.079221L27.5721 0.0919106L27.6733 2.08935ZM27.9239 2.07666L28.025 4.0741C30.1457 3.96672 32.2665 4.01657 34.3882 4.22383L34.5827 2.23331L34.7771 0.242781C32.4596 0.0163949 30.1412 -0.0381823 27.8227 0.079221L27.9239 2.07666ZM34.5827 2.23331L34.3882 4.22383L34.6388 4.24831L34.8333 2.25779L35.0277 0.267261L34.7771 0.242781L34.5827 2.23331ZM34.8333 2.25779L34.6388 4.24831L34.8894 4.27279L35.0839 2.28227L35.2783 0.291741L35.0277 0.267261L34.8333 2.25779ZM35.0839 2.28227L34.8894 4.27279C37.1705 4.49562 39.4521 4.61203 41.734 4.62194L41.7427 2.62196L41.7514 0.621978C39.5941 0.612611 37.4365 0.502563 35.2783 0.291741L35.0839 2.28227ZM41.7427 2.62196L41.734 4.62194L41.9846 4.62303L41.9933 2.62305L42.002 0.623066L41.7514 0.621978L41.7427 2.62196ZM41.9933 2.62305L41.9846 4.62303L42.2352 4.62412L42.2439 2.62413L42.2526 0.624154L42.002 0.623066L41.9933 2.62305ZM42.2439 2.62413L42.2352 4.62412C44.5179 4.63403 46.8004 4.53601 49.0824 4.33015L48.9027 2.33824L48.723 0.346329C46.5658 0.540936 44.409 0.633517 42.2526 0.624154L42.2439 2.62413ZM48.9027 2.33824L49.0824 4.33015L49.333 4.30754L49.1533 2.31563L48.9736 0.323722L48.723 0.346329L48.9027 2.33824ZM49.1533 2.31563L49.333 4.30754L49.5836 4.28494L49.4039 2.29303L49.2242 0.301115L48.9736 0.323722L49.1533 2.31563ZM49.4039 2.29303L49.5836 4.28494C51.7202 4.09219 53.8561 4.03369 55.9919 4.10933L56.0627 2.11058L56.1335 0.111838C53.83 0.0302627 51.5268 0.0933955 49.2242 0.301115L49.4039 2.29303ZM56.0627 2.11058L55.9919 4.10933L56.2425 4.11821L56.3133 2.11946L56.3841 0.120713L56.1335 0.111838L56.0627 2.11058ZM56.3133 2.11946L56.2425 4.11821L56.4931 4.12708L56.5639 2.12833L56.6347 0.129588L56.3841 0.120713L56.3133 2.11946ZM56.5639 2.12833L56.4931 4.12708C58.6372 4.20301 60.7822 4.40037 62.9286 4.71943L63.2227 2.74117L63.5168 0.76291C61.2239 0.422073 58.9298 0.210868 56.6347 0.129588L56.5639 2.12833ZM63.2227 2.74117L62.9286 4.71943L63.1792 4.75669L63.4733 2.77842L63.7674 0.800163L63.5168 0.76291L63.2227 2.74117ZM63.4733 2.77842L63.1792 4.75669L63.4298 4.79394L63.7239 2.81568L64.018 0.837415L63.7674 0.800163L63.4733 2.77842ZM63.7239 2.81568L63.4298 4.79394C65.8839 5.15875 68.3399 5.08717 70.787 4.58198L70.3827 2.62329L69.9783 0.664588C67.9862 1.07583 66.003 1.13251 64.018 0.837415L63.7239 2.81568ZM70.3827 2.62329L70.787 4.58198L71.0376 4.53025L70.6333 2.57155L70.2289 0.612854L69.9783 0.664588L70.3827 2.62329ZM70.6333 2.57155L71.0376 4.53025L71.2882 4.47852L70.8839 2.51982L70.4795 0.561121L70.2289 0.612854L70.6333 2.57155ZM70.8839 2.51982L71.2882 4.47852C73.3346 4.05606 75.3736 3.91411 77.4099 4.04958L77.5427 2.05399L77.6754 0.0584018C75.2726 -0.101451 72.8723 0.0671527 70.4795 0.561121L70.8839 2.51982ZM77.5427 2.05399L77.4099 4.04958L77.6605 4.06625L77.7933 2.07066L77.926 0.0750732L77.6754 0.0584018L77.5427 2.05399ZM77.7933 2.07066L77.6605 4.06625L77.9111 4.08292L78.0439 2.08733L78.1766 0.0917444L77.926 0.0750732L77.7933 2.07066ZM78.0439 2.08733L77.9111 4.08292C78.7436 4.13831 79.2571 4.348 79.5816 4.5863C79.8914 4.81385 80.1697 5.16968 80.3621 5.78735L82.2716 5.1925L84.1811 4.59765C83.7746 3.29287 83.0489 2.16994 81.9494 1.36244C80.8646 0.565685 79.5637 0.184021 78.1766 0.0917444L78.0439 2.08733ZM82.2716 5.1925L80.3621 5.78735L80.4297 6.0044L82.3392 5.40955L84.2487 4.8147L84.1811 4.59765L82.2716 5.1925ZM82.3392 5.40955L80.4297 6.0044L80.4973 6.22145L82.4068 5.6266L84.3163 5.03175L84.2487 4.8147L82.3392 5.40955ZM82.4068 5.6266L80.4973 6.22145C80.9899 7.80244 81.0869 9.53954 80.7383 11.4695L82.7065 11.825L84.6747 12.1804C85.1243 9.6908 85.0216 7.29567 84.3163 5.03175L82.4068 5.6266ZM82.7065 11.825L80.7383 11.4695L80.6933 11.719L82.6614 12.0744L84.6296 12.4299L84.6747 12.1804L82.7065 11.825ZM82.6614 12.0744L80.6933 11.719L80.6482 11.9685L82.6164 12.3239L84.5845 12.6794L84.6296 12.4299L82.6614 12.0744ZM82.6164 12.3239L80.6482 11.9685C80.2264 14.3038 80.0323 16.6482 80.0667 18.9998L82.0665 18.9705L84.0663 18.9412C84.0357 16.8503 84.2081 14.7636 84.5845 12.6794L82.6164 12.3239ZM82.0665 18.9705L80.0667 18.9998L80.0704 19.2506L82.0702 19.2213L84.07 19.192L84.0663 18.9412L82.0665 18.9705ZM82.0702 19.2213L80.0704 19.2506L80.0741 19.5013L82.0739 19.4721L84.0737 19.4428L84.07 19.192L82.0702 19.2213ZM82.0739 19.4721L80.0741 19.5013C80.1066 21.7221 80.1383 23.9428 80.1692 26.1635L82.169 26.1357L84.1688 26.1079C84.1379 23.8862 84.1062 21.6645 84.0737 19.4428L82.0739 19.4721ZM82.169 26.1357L80.1692 26.1635L80.1727 26.4143L82.1725 26.3865L84.1723 26.3587L84.1688 26.1079L82.169 26.1357ZM82.1725 26.3865L80.1727 26.4143L80.1762 26.6651L82.176 26.6373L84.1758 26.6095L84.1723 26.3587L82.1725 26.3865ZM82.176 26.6373L80.1762 26.6651C80.2074 28.9113 80.2808 31.1586 80.3963 33.4068L82.3937 33.3042L84.391 33.2016C84.2781 31.0031 84.2063 28.8057 84.1758 26.6095L82.176 26.6373ZM82.3937 33.3042L80.3963 33.4068L80.4092 33.6579L82.4066 33.5553L84.4039 33.4526L84.391 33.2016L82.3937 33.3042ZM82.4066 33.5553L80.4092 33.6579L80.4221 33.9089L82.4195 33.8063L84.4168 33.7037L84.4039 33.4526L82.4066 33.5553ZM82.4195 33.8063L80.4221 33.9089C80.5259 35.9303 80.3276 37.9468 79.8227 39.9645L81.7629 40.45L83.7031 40.9355C84.3021 38.5418 84.5414 36.1291 84.4168 33.7037L82.4195 33.8063ZM81.7629 40.45L79.8227 39.9645L79.7604 40.2136L81.7006 40.699L83.6408 41.1845L83.7031 40.9355L81.7629 40.45ZM81.7006 40.699L79.7604 40.2136L79.6981 40.4626L81.6383 40.9481L83.5785 41.4335L83.6408 41.1845L81.7006 40.699ZM81.6383 40.9481L79.6981 40.4626C79.0754 42.9511 79.0066 45.4649 79.4923 47.9831L81.4561 47.6044L83.4199 47.2256C83.0447 45.2803 83.0973 43.3565 83.5785 41.4335L81.6383 40.9481ZM81.4561 47.6044L79.4923 47.9831L79.5409 48.2351L81.5047 47.8563L83.4685 47.4776L83.4199 47.2256L81.4561 47.6044ZM81.5047 47.8563L79.5409 48.2351L79.5895 48.4871L81.5533 48.1083L83.5171 47.7296L83.4685 47.4776L81.5047 47.8563ZM81.5533 48.1083L79.5895 48.4871C79.9783 50.5029 80.0262 52.4994 79.7372 54.4859L81.7164 54.7738L83.6955 55.0617C84.05 52.6246 83.9892 50.1774 83.5171 47.7296L81.5533 48.1083ZM81.7164 54.7738L79.7372 54.4859L79.7009 54.7357L81.6801 55.0235L83.6592 55.3114L83.6955 55.0617L81.7164 54.7738ZM81.6801 55.0235L79.7009 54.7357L79.6646 54.9854L81.6437 55.2733L83.6229 55.5611L83.6592 55.3114L81.6801 55.0235ZM81.6437 55.2733L79.6646 54.9854C79.5464 55.7979 79.2937 56.28 79.0231 56.5784C78.7595 56.8689 78.3487 57.1297 77.647 57.2747L78.0516 59.2333L78.4562 61.192C79.8276 60.9087 81.0519 60.2954 81.9858 59.2659C82.9125 58.2442 83.4194 56.9605 83.6229 55.5611L81.6437 55.2733ZM78.0516 59.2333L77.647 57.2747L77.413 57.323L77.8176 59.2817L78.2221 61.2403L78.4562 61.192L78.0516 59.2333ZM77.8176 59.2817L77.413 57.323L77.1789 57.3714L77.5835 59.33L77.9881 61.2887L78.2221 61.2403L77.8176 59.2817ZM77.5835 59.33L77.1789 57.3714C75.3316 57.7529 73.3943 57.8267 71.3566 57.5796L71.1157 59.565L70.8749 61.5505C73.3148 61.8464 75.6893 61.7635 77.9881 61.2887L77.5835 59.33ZM71.1157 59.565L71.3566 57.5796L71.1038 57.5489L70.863 59.5344L70.6222 61.5198L70.8749 61.5505L71.1157 59.565ZM70.863 59.5344L71.1038 57.5489L70.851 57.5182L70.6102 59.5037L70.3694 61.4892L70.6222 61.5198L70.863 59.5344ZM70.6102 59.5037L70.851 57.5182C68.339 57.2136 65.8523 57.4236 63.4076 58.1434L63.9725 60.062L64.5374 61.9806C66.4654 61.4129 68.4038 61.2508 70.3694 61.4892L70.6102 59.5037ZM63.9725 60.062L63.4076 58.1434L63.1607 58.2161L63.7256 60.1347L64.2905 62.0532L64.5374 61.9806L63.9725 60.062ZM63.7256 60.1347L63.1607 58.2161L62.9139 58.2888L63.4788 60.2074L64.0437 62.1259L64.2905 62.0532L63.7256 60.1347ZM63.4788 60.2074L62.9139 58.2888C60.9116 58.8784 58.9021 59.1622 56.8794 59.1455L56.8628 61.1454L56.8463 63.1453C59.2722 63.1654 61.6733 62.8239 64.0437 62.1259L63.4788 60.2074ZM56.8628 61.1454L56.8794 59.1455L56.6282 59.1434L56.6117 61.1433L56.5952 63.1432L56.8463 63.1453L56.8628 61.1454ZM56.6117 61.1433L56.6282 59.1434L56.3771 59.1413L56.3606 61.1412L56.344 63.1412L56.5952 63.1432L56.6117 61.1433ZM56.3606 61.1412L56.3771 59.1413C54.1272 59.1227 51.8796 59.1474 49.6345 59.2153L49.695 61.2144L49.7556 63.2135C51.9492 63.1471 54.1454 63.123 56.344 63.1412L56.3606 61.1412ZM49.695 61.2144L49.6345 59.2153L49.3839 59.2229L49.4445 61.222L49.505 63.2211L49.7556 63.2135L49.695 61.2144ZM49.4445 61.222L49.3839 59.2229L49.1334 59.2305L49.1939 61.2296L49.2544 63.2287L49.505 63.2211L49.4445 61.222ZM49.1939 61.2296L49.1334 59.2305C46.8821 59.2987 44.6338 59.4207 42.3887 59.5965L42.5448 61.5904L42.701 63.5843C44.8825 63.4134 47.0669 63.2949 49.2544 63.2287L49.1939 61.2296ZM42.5448 61.5904L42.3887 59.5965L42.1388 59.6161L42.2949 61.61L42.4511 63.6039L42.701 63.5843L42.5448 61.5904ZM42.2949 61.61L42.1388 59.6161L41.8889 59.6357L42.0451 61.6295L42.2012 63.6234L42.4511 63.6039L42.2949 61.61ZM42.0451 61.6295L41.8889 59.6357C39.7939 59.7997 37.6868 59.7783 35.5663 59.5707L35.3714 61.5611L35.1765 63.5516C37.5276 63.7819 39.8696 63.806 42.2012 63.6234L42.0451 61.6295ZM35.3714 61.5611L35.5663 59.5707L35.3139 59.5459L35.119 61.5364L34.924 63.5269L35.1765 63.5516L35.3714 61.5611ZM35.119 61.5364L35.3139 59.5459L35.0615 59.5212L34.8665 61.5117L34.6716 63.5022L34.924 63.5269L35.119 61.5364ZM34.8665 61.5117L35.0615 59.5212C32.6478 59.2848 30.2488 59.3725 27.8693 59.7849L28.2108 61.7555L28.5523 63.7261C30.5756 63.3755 32.6137 63.3006 34.6716 63.5022L34.8665 61.5117ZM28.2108 61.7555L27.8693 59.7849L27.6207 59.8279L27.9622 61.7986L28.3038 63.7692L28.5523 63.7261L28.2108 61.7555ZM27.9622 61.7986L27.6207 59.8279L27.3722 59.871L27.7137 61.8416L28.0552 63.8123L28.3038 63.7692L27.9622 61.7986ZM27.7137 61.8416L27.3722 59.871C25.2392 60.2406 23.1005 60.4972 20.9559 60.6408L21.0895 62.6363L21.2232 64.6319C23.508 64.4789 25.7855 64.2056 28.0552 63.8123L27.7137 61.8416ZM21.0895 62.6363L20.9559 60.6408L20.7058 60.6576L20.8395 62.6531L20.9731 64.6486L21.2232 64.6319L21.0895 62.6363ZM20.8395 62.6531L20.7058 60.6576L20.4558 60.6743L20.5894 62.6698L20.7231 64.6654L20.9731 64.6486L20.8395 62.6531ZM20.5894 62.6698L20.4558 60.6743C18.3425 60.8158 16.2189 60.7969 14.0842 60.617L13.9163 62.61L13.7484 64.6029C16.0817 64.7995 18.4069 64.8205 20.7231 64.6654L20.5894 62.6698ZM13.9163 62.61L14.0842 60.617L13.8319 60.5958L13.664 62.5887L13.4961 64.5817L13.7484 64.6029L13.9163 62.61ZM13.664 62.5887L13.8319 60.5958L13.5797 60.5745L13.4118 62.5675L13.2439 64.5604L13.4961 64.5817L13.664 62.5887ZM13.4118 62.5675L13.5797 60.5745C11.1256 60.3678 8.69278 60.5646 6.28978 61.1626L6.77279 63.1034L7.2558 65.0442C9.23676 64.5512 11.2299 64.3907 13.2439 64.5604L13.4118 62.5675ZM6.77279 63.1034L6.28978 61.1626L6.0423 61.2242L6.52531 63.165L7.00832 65.1058L7.2558 65.0442L6.77279 63.1034ZM6.52531 63.165L6.0423 61.2242L5.79482 61.2858L6.27783 63.2266L6.76084 65.1674L7.00832 65.1058L6.52531 63.165ZM6.27783 63.2266L5.79482 61.2858C4.95038 61.4959 4.83265 61.2981 4.94787 61.383C5.06195 61.467 4.83737 61.4109 4.7857 60.5385L2.7892 60.6568L0.7927 60.775C0.874813 62.1614 1.29856 63.6629 2.57552 64.6035C3.85362 65.545 5.41331 65.5028 6.76084 65.1674L6.27783 63.2266ZM2.7892 60.6568L4.7857 60.5385L4.7706 60.2835L2.7741 60.4017L0.777596 60.52L0.7927 60.775L2.7892 60.6568ZM2.7741 60.4017L4.7706 60.2835L4.75549 60.0285L2.75899 60.1467L0.762492 60.265L0.777596 60.52L2.7741 60.4017ZM2.75899 60.1467L4.75549 60.0285C4.62678 57.8553 4.63912 55.7034 4.79195 53.5723L2.79707 53.4292L0.802191 53.2862C0.636688 55.5942 0.623644 57.9207 0.762492 60.265L2.75899 60.1467ZM2.79707 53.4292L4.79195 53.5723L4.80992 53.3217L2.81504 53.1786L0.820161 53.0356L0.802191 53.2862L2.79707 53.4292ZM2.81504 53.1786L4.80992 53.3217L4.82789 53.0711L2.83301 52.928L0.838131 52.785L0.820161 53.0356L2.81504 53.1786ZM2.83301 52.928L4.82789 53.0711C4.99531 50.7362 4.96045 48.4011 4.72345 46.0672L2.73369 46.2692L0.743918 46.4713C0.957683 48.5765 0.98903 50.6806 0.838131 52.785L2.83301 52.928ZM2.73369 46.2692L4.72345 46.0672L4.69801 45.8166L2.70824 46.0186L0.718472 46.2207L0.743918 46.4713L2.73369 46.2692ZM2.70824 46.0186L4.69801 45.8166L4.67256 45.566L2.68279 45.768L0.693026 45.9701L0.718472 46.2207L2.70824 46.0186ZM2.68279 45.768L4.67256 45.566C4.4534 43.4076 4.3347 41.2497 4.31638 39.0922L2.31645 39.1092L0.316522 39.1262C0.335901 41.4079 0.461435 43.6893 0.693026 45.9701L2.68279 45.768ZM2.31645 39.1092L4.31638 39.0922L4.31425 38.8416L2.31432 38.8586L0.314394 38.8756L0.316522 39.1262L2.31645 39.1092ZM2.31432 38.8586L4.31425 38.8416L4.31212 38.591L2.31219 38.608L0.312265 38.625L0.314394 38.8756L2.31432 38.8586ZM2.31219 38.608L4.31212 38.591C4.29429 36.4914 4.46418 34.3899 4.8228 32.2852L2.85122 31.9492L0.879633 31.6133C0.481856 33.9478 0.292395 36.2855 0.312265 38.625L2.31219 38.608ZM2.85122 31.9492L4.8228 32.2852L4.8655 32.0346L2.89392 31.6986L0.922333 31.3627L0.879633 31.6133L2.85122 31.9492ZM2.89392 31.6986L4.8655 32.0346L4.9082 31.784L2.93662 31.448L0.965034 31.1121L0.922333 31.3627L2.89392 31.6986ZM2.93662 31.448L4.9082 31.784C5.33096 29.3028 5.25942 26.8185 4.69742 24.3459L2.74716 24.7892L0.796907 25.2325C1.24392 27.1991 1.29867 29.154 0.965034 31.1121L2.93662 31.448ZM2.74716 24.7892L4.69742 24.3459L4.64046 24.0953L2.6902 24.5386L0.739947 24.9819L0.796907 25.2325L2.74716 24.7892ZM2.6902 24.5386L4.64046 24.0953L4.5835 23.8447L2.63324 24.288L0.682987 24.7313L0.739947 24.9819L2.6902 24.5386ZM2.63324 24.288L4.5835 23.8447C4.14213 21.9029 4.12284 19.9726 4.52384 18.0344L2.56531 17.6292L0.606791 17.224C0.0893569 19.725 0.11535 22.2339 0.682987 24.7313L2.63324 24.288ZM2.56531 17.6292L4.52384 18.0344L4.57568 17.7838L2.61716 17.3786L0.658638 16.9734L0.606791 17.224L2.56531 17.6292ZM2.61716 17.3786L4.57568 17.7838L4.62753 17.5332L2.66901 17.128L0.710485 16.7228L0.658638 16.9734L2.61716 17.3786ZM2.66901 17.128L4.62753 17.5332C5.11803 15.1624 5.32616 12.7852 5.24933 10.4047L3.25037 10.4692L1.25141 10.5337C1.31786 12.5925 1.13841 14.6544 0.710485 16.7228L2.66901 17.128ZM3.25037 10.4692L5.24933 10.4047L5.24124 10.1541L3.24228 10.2186L1.24333 10.2831L1.25141 10.5337L3.25037 10.4692ZM3.24228 10.2186L5.24124 10.1541L5.23315 9.90349L3.2342 9.96801L1.23524 10.0325L1.24333 10.2831L3.24228 10.2186ZM3.2342 9.96801L5.23315 9.90349C5.15881 7.60026 4.89952 5.63674 4.38371 4.10744L2.4886 4.74663L0.593494 5.38581C0.928532 6.37916 1.1663 7.89657 1.23524 10.0325L3.2342 9.96801ZM2.4886 4.74663L4.38371 4.10744L4.33568 3.96503L2.44057 4.60422L0.545462 5.2434L0.593494 5.38581L2.4886 4.74663ZM2.44057 4.60422L4.33568 3.96503L4.28765 3.82263L2.39254 4.46181L0.497431 5.101L0.545462 5.2434L2.44057 4.60422ZM2.39254 4.46181L4.28765 3.82263C4.08184 3.21243 4.01137 2.89799 3.99805 2.79242C3.98647 2.70065 4.03513 2.92316 3.9367 3.2557C3.87991 3.44756 3.73821 3.7967 3.38881 4.1031C3.00439 4.44021 2.54663 4.56982 2.15379 4.56982V2.56982V0.569824C1.69438 0.569824 1.18086 0.719147 0.751494 1.09568C0.357152 1.44149 0.181303 1.84975 0.101182 2.12045C-0.0439081 2.61065 0.00131178 3.06966 0.0295238 3.29322C0.0957875 3.81832 0.277817 4.44987 0.497431 5.101L2.39254 4.46181ZM2.15379 2.56982V4.56982H2.18385V2.56982V0.569824H2.15379V2.56982ZM2.18385 2.56982V4.56982H2.21391V2.56982V0.569824H2.18385V2.56982ZM2.21391 2.56982V4.56982C2.5479 4.56982 3.86821 4.50724 6.0466 4.39389L5.94268 2.39659L5.83876 0.399297C4.73028 0.456971 3.86894 0.500056 3.25297 0.528672C2.9447 0.542993 2.70111 0.55354 2.52025 0.56046C2.42976 0.563922 2.35783 0.566366 2.30299 0.567917C2.27567 0.56869 2.25428 0.569192 2.23811 0.569493C2.23011 0.569642 2.22404 0.569728 2.21968 0.569777C2.21521 0.569826 2.21344 0.569824 2.21391 0.569824V2.56982ZM5.94268 2.39659L6.0466 4.39389L6.2972 4.38085L6.19328 2.38356L6.08936 0.386258L5.83876 0.399297L5.94268 2.39659Z" fill="black"/>
<path d="M4.85567 12.5025C3.99006 11.8164 2.73212 11.9618 2.04597 12.8274C1.35981 13.693 1.50529 14.951 2.3709 15.6371L3.61328 14.0698L4.85567 12.5025ZM3.69165 14.1319L2.44926 15.6993L2.49058 15.732L2.53358 15.7625L3.69165 14.1319ZM4.09513 14.4185L5.2532 12.7879L4.09513 14.4185ZM11.7913 20.6389L10.3541 22.0298L11.7913 20.6389ZM17.3399 25.1653L16.2965 26.8715L17.3399 25.1653ZM17.5553 25.297L18.5987 23.5908L17.5553 25.297ZM17.7707 25.4287L16.7272 27.135L17.7707 25.4287ZM23.346 29.1147L22.1844 30.7428L23.346 29.1147ZM23.7545 29.4061L24.916 27.778L23.7545 29.4061ZM28.8754 33.6653L30.2643 32.2262L28.8754 33.6653ZM29.0566 33.8401L27.6677 35.2792L29.0566 33.8401ZM29.2378 34.015L30.6266 32.5759L29.2378 34.015ZM34.245 38.4176L32.9958 39.9795L34.245 38.4176ZM34.4407 38.5741L35.6899 37.0122L34.4407 38.5741ZM34.6364 38.7306L33.3872 40.2925L34.6364 38.7306ZM40.0322 42.643L38.9357 44.3156V44.3156L40.0322 42.643ZM40.2426 42.7809L41.3392 41.1083L40.2426 42.7809ZM40.4531 42.9189L39.3565 44.5915L40.4531 42.9189ZM45.2862 43.7595L46.1618 45.5577L45.2862 43.7595ZM45.4395 43.6849L44.5639 41.8867L45.4395 43.6849ZM45.5929 43.6102L46.4685 45.4083L45.5929 43.6102ZM50.1916 40.4341L48.8939 38.9122L50.1916 40.4341ZM50.5771 40.1053L51.8748 41.6272L50.5771 40.1053ZM54.8087 34.9604L56.5507 35.943L54.8087 34.9604ZM54.9344 34.7375L53.1925 33.7549L54.9344 34.7375ZM55.0602 34.5147L56.8021 35.4973L55.0602 34.5147ZM59.0857 29.19L60.5024 30.6017L59.0857 29.19ZM59.2629 29.0121L57.8462 27.6004L59.2629 29.0121ZM59.4402 28.8342L60.857 30.2459L59.4402 28.8342ZM63.7776 23.7815L65.3875 24.9682L63.7776 23.7815ZM64.0759 23.3767L62.466 22.19L64.0759 23.3767ZM68.6311 18.5139L67.3404 16.9861L68.6311 18.5139ZM68.8248 18.3503L70.1154 19.8781L68.8248 18.3503ZM69.0184 18.1867L67.7277 16.6589L69.0184 18.1867ZM73.6763 13.4135L72.1161 12.1622L73.6763 13.4135ZM73.9902 13.0222L75.5503 14.2736L73.9902 13.0222ZM78.1618 7.82501L79.721 9.0775L78.1618 7.82501ZM78.3189 7.62947L76.7596 6.37698L78.3189 7.62947ZM78.4759 7.43394L76.9167 6.18145L78.4759 7.43394ZM81.2837 4.2473L80.0187 2.69822L81.2837 4.2473ZM81.338 4.20298L80.102 2.63062L80.0873 2.64212L80.0729 2.6539L81.338 4.20298ZM82.0476 3.64519L83.2835 5.21755L83.4313 5.10138L83.5549 4.95972L82.0476 3.64519ZM83.6206 4.88435C84.3466 4.05188 84.2603 2.78849 83.4278 2.0625C82.5953 1.33651 81.3319 1.42283 80.606 2.2553L82.1133 3.56982L83.6206 4.88435ZM3.61328 14.0698L2.3709 15.6371L2.44926 15.6993L3.69165 14.1319L4.93403 12.5646L4.85567 12.5025L3.61328 14.0698ZM3.69165 14.1319L2.53358 15.7625L2.93706 16.0491L4.09513 14.4185L5.2532 12.7879L4.84972 12.5013L3.69165 14.1319ZM4.09513 14.4185L2.93706 16.0491C6.48641 18.5699 8.9292 20.5575 10.3541 22.0298L11.7913 20.6389L13.2284 19.248C11.5392 17.5026 8.85126 15.3433 5.2532 12.7879L4.09513 14.4185ZM11.7913 20.6389L10.3541 22.0298L10.5299 22.2114L11.9671 20.8205L13.4042 19.4296L13.2284 19.248L11.7913 20.6389ZM11.9671 20.8205L10.5299 22.2114L10.7057 22.3931L12.1429 21.0022L13.58 19.6113L13.4042 19.4296L11.9671 20.8205ZM12.1429 21.0022L10.7057 22.3931C12.38 24.1231 14.2446 25.6168 16.2965 26.8715L17.3399 25.1653L18.3833 23.459C16.6199 22.3807 15.0198 21.099 13.58 19.6113L12.1429 21.0022ZM17.3399 25.1653L16.2965 26.8715L16.5119 27.0032L17.5553 25.297L18.5987 23.5908L18.3833 23.459L17.3399 25.1653ZM17.5553 25.297L16.5119 27.0032L16.7272 27.135L17.7707 25.4287L18.8141 23.7225L18.5987 23.5908L17.5553 25.297ZM17.7707 25.4287L16.7272 27.135C18.5948 28.2771 20.4139 29.4797 22.1844 30.7428L23.346 29.1147L24.5075 27.4865C22.6596 26.1682 20.7618 24.9135 18.8141 23.7225L17.7707 25.4287ZM23.346 29.1147L22.1844 30.7428L22.3887 30.8885L23.5502 29.2604L24.7118 27.6322L24.5075 27.4865L23.346 29.1147ZM23.5502 29.2604L22.3887 30.8885L22.593 31.0342L23.7545 29.4061L24.916 27.778L24.7118 27.6322L23.5502 29.2604ZM23.7545 29.4061L22.593 31.0342C24.3216 32.2674 25.9526 33.6239 27.4865 35.1044L28.8754 33.6653L30.2643 32.2262C28.5888 30.6091 26.8059 29.1262 24.916 27.778L23.7545 29.4061ZM28.8754 33.6653L27.4865 35.1044L27.6677 35.2792L29.0566 33.8401L30.4455 32.401L30.2643 32.2262L28.8754 33.6653ZM29.0566 33.8401L27.6677 35.2792L27.8489 35.4541L29.2378 34.015L30.6266 32.5759L30.4455 32.401L29.0566 33.8401ZM29.2378 34.015L27.8489 35.4541C29.498 37.0457 31.2137 38.5542 32.9958 39.9795L34.245 38.4176L35.4941 36.8557C33.8094 35.5082 32.1869 34.0817 30.6266 32.5759L29.2378 34.015ZM34.245 38.4176L32.9958 39.9795L33.1915 40.136L34.4407 38.5741L35.6899 37.0122L35.4941 36.8557L34.245 38.4176ZM34.4407 38.5741L33.1915 40.136L33.3872 40.2925L34.6364 38.7306L35.8856 37.1687L35.6899 37.0122L34.4407 38.5741ZM34.6364 38.7306L33.3872 40.2925C35.1699 41.7183 37.0195 43.0593 38.9357 44.3156L40.0322 42.643L41.1287 40.9704C39.3173 39.7828 37.5697 38.5156 35.8856 37.1687L34.6364 38.7306ZM40.0322 42.643L38.9357 44.3156L39.1461 44.4535L40.2426 42.7809L41.3392 41.1083L41.1287 40.9704L40.0322 42.643ZM40.2426 42.7809L39.1461 44.4535L39.3565 44.5915L40.4531 42.9189L41.5496 41.2463L41.3392 41.1083L40.2426 42.7809ZM40.4531 42.9189L39.3565 44.5915C41.5049 45.9999 43.8995 46.6593 46.1618 45.5577L45.2862 43.7595L44.4105 41.9614C43.9563 42.1826 43.1288 42.2816 41.5496 41.2463L40.4531 42.9189ZM45.2862 43.7595L46.1618 45.5577L46.3151 45.483L45.4395 43.6849L44.5639 41.8867L44.4105 41.9614L45.2862 43.7595ZM45.4395 43.6849L46.3151 45.483L46.4685 45.4083L45.5929 43.6102L44.7172 41.8121L44.5639 41.8867L45.4395 43.6849ZM45.5929 43.6102L46.4685 45.4083C48.0326 44.6466 49.709 43.4739 51.4892 41.956L50.1916 40.4341L48.8939 38.9122C47.2591 40.3062 45.8696 41.2509 44.7172 41.8121L45.5929 43.6102ZM50.1916 40.4341L51.4892 41.956L51.682 41.7916L50.3844 40.2697L49.0867 38.7478L48.8939 38.9122L50.1916 40.4341ZM50.3844 40.2697L51.682 41.7916L51.8748 41.6272L50.5771 40.1053L49.2795 38.5835L49.0867 38.7478L50.3844 40.2697ZM50.5771 40.1053L51.8748 41.6272C53.7627 40.0174 55.323 38.1194 56.5507 35.943L54.8087 34.9604L53.0668 33.9778C52.0674 35.7494 50.8066 37.2813 49.2795 38.5835L50.5771 40.1053ZM54.8087 34.9604L56.5507 35.943L56.6764 35.7202L54.9344 34.7375L53.1925 33.7549L53.0668 33.9778L54.8087 34.9604ZM54.9344 34.7375L56.6764 35.7202L56.8021 35.4973L55.0602 34.5147L53.3182 33.532L53.1925 33.7549L54.9344 34.7375ZM55.0602 34.5147L56.8021 35.4973C57.8288 33.6773 59.0619 32.0473 60.5024 30.6017L59.0857 29.19L57.6689 27.7783C55.9691 29.4842 54.5186 31.404 53.3182 33.532L55.0602 34.5147ZM59.0857 29.19L60.5024 30.6017L60.6797 30.4238L59.2629 29.0121L57.8462 27.6004L57.6689 27.7783L59.0857 29.19ZM59.2629 29.0121L60.6797 30.4238L60.857 30.2459L59.4402 28.8342L58.0235 27.4225L57.8462 27.6004L59.2629 29.0121ZM59.4402 28.8342L60.857 30.2459C62.4971 28.5999 64.0074 26.8404 65.3875 24.9682L63.7776 23.7815L62.1677 22.5948C60.9049 24.3079 59.5237 25.9169 58.0235 27.4225L59.4402 28.8342ZM63.7776 23.7815L65.3875 24.9682L65.5367 24.7658L63.9268 23.5791L62.3168 22.3924L62.1677 22.5948L63.7776 23.7815ZM63.9268 23.5791L65.5367 24.7658L65.6858 24.5634L64.0759 23.3767L62.466 22.19L62.3168 22.3924L63.9268 23.5791ZM64.0759 23.3767L65.6858 24.5634C66.9138 22.8975 68.3248 21.3908 69.9218 20.0417L68.6311 18.5139L67.3404 16.9861C65.5067 18.5353 63.8809 20.2705 62.466 22.19L64.0759 23.3767ZM68.6311 18.5139L69.9218 20.0417L70.1154 19.8781L68.8248 18.3503L67.5341 16.8225L67.3404 16.9861L68.6311 18.5139ZM68.8248 18.3503L70.1154 19.8781L70.3091 19.7145L69.0184 18.1867L67.7277 16.6589L67.5341 16.8225L68.8248 18.3503ZM69.0184 18.1867L70.3091 19.7145C72.1219 18.183 73.765 16.4995 75.2365 14.6649L73.6763 13.4135L72.1161 12.1622C70.8078 13.7934 69.3456 15.2921 67.7277 16.6589L69.0184 18.1867ZM73.6763 13.4135L75.2365 14.6649L75.3934 14.4692L73.8333 13.2179L72.2731 11.9665L72.1161 12.1622L73.6763 13.4135ZM73.8333 13.2179L75.3934 14.4692L75.5503 14.2736L73.9902 13.0222L72.43 11.7709L72.2731 11.9665L73.8333 13.2179ZM73.9902 13.0222L75.5503 14.2736C76.94 12.541 78.3302 10.809 79.721 9.0775L78.1618 7.82501L76.6025 6.57251C75.2111 8.30477 73.8202 10.0376 72.43 11.7709L73.9902 13.0222ZM78.1618 7.82501L79.721 9.0775L79.8781 8.88197L78.3189 7.62947L76.7596 6.37698L76.6025 6.57251L78.1618 7.82501ZM78.3189 7.62947L79.8781 8.88197L80.0352 8.68643L78.4759 7.43394L76.9167 6.18145L76.7596 6.37698L78.3189 7.62947ZM78.4759 7.43394L80.0352 8.68643C81.4659 6.90526 82.2643 6.02865 82.5487 5.79638L81.2837 4.2473L80.0187 2.69822C79.3417 3.25106 78.2682 4.49888 76.9167 6.18145L78.4759 7.43394ZM81.2837 4.2473L82.5487 5.79638L82.603 5.75206L81.338 4.20298L80.0729 2.6539L80.0187 2.69822L81.2837 4.2473ZM81.338 4.20298L82.574 5.77534L83.2835 5.21755L82.0476 3.64519L80.8116 2.07283L80.102 2.63062L81.338 4.20298ZM82.0476 3.64519L83.5549 4.95972L83.6206 4.88435L82.1133 3.56982L80.606 2.2553L80.5402 2.33066L82.0476 3.64519Z" fill="black"/>
</svg>
