<svg width="77" height="74" viewBox="0 0 77 74" fill="none" xmlns="http://www.w3.org/2000/svg">
<path d="M38.0891 1.82605C18.0609 1.82605 1.83899 18.0479 1.83899 38.076C1.83899 54.1167 12.2156 67.6651 26.6249 72.4682C28.4374 72.7854 29.1171 71.6979 29.1171 70.7464C29.1171 69.8854 29.0718 67.0307 29.0718 63.9948C19.964 65.6714 17.6077 61.7745 16.8827 59.7354C16.4749 58.6932 14.7077 55.476 13.1671 54.6151C11.8984 53.9354 10.0859 52.2589 13.1218 52.2135C15.9765 52.1682 18.0156 54.8417 18.6952 55.9292C21.9577 61.412 27.1687 59.8714 29.2531 58.9198C29.5702 56.5635 30.5218 54.9776 31.5641 54.0714C23.4984 53.1651 15.0702 50.0385 15.0702 36.1729C15.0702 32.2307 16.4749 28.9682 18.7859 26.4307C18.4234 25.5245 17.1546 21.8089 19.1484 16.8245C19.1484 16.8245 22.1843 15.8729 29.1171 20.5401C32.0172 19.7245 35.0984 19.3167 38.1797 19.3167C41.2609 19.3167 44.3422 19.7245 47.2422 20.5401C54.175 15.8276 57.2109 16.8245 57.2109 16.8245C59.2047 21.8089 57.9359 25.5245 57.5734 26.4307C59.8844 28.9682 61.2891 32.1854 61.2891 36.1729C61.2891 50.0839 52.8156 53.1651 44.75 54.0714C46.0641 55.2042 47.1969 57.3792 47.1969 60.7776C47.1969 65.626 47.1516 69.5229 47.1516 70.7464C47.1516 71.6979 47.8313 72.8307 49.6438 72.4682C64.3993 67.4868 74.3351 53.6501 74.3391 38.076C74.3391 18.0479 58.1172 1.82605 38.0891 1.82605Z" fill="white"/>
<path d="M27.7295 3.44117L27.4009 1.46834L27.7295 3.44117ZM27.4798 3.48274L27.8084 5.45557L27.4798 3.48274ZM27.2302 3.52431L26.9017 1.55148L27.2302 3.52431ZM21.1682 6.01567L22.322 7.64932L21.1682 6.01567ZM20.9616 6.16162L19.8078 4.52797L20.9616 6.16162ZM20.7549 6.30757L19.6012 4.67392L20.7549 6.30757ZM15.5899 10.4682L14.2372 8.99503L15.5899 10.4682ZM15.2256 10.8026L13.873 9.32946L15.2256 10.8026ZM10.4761 15.3775L9.05488 13.9703L10.4761 15.3775ZM10.3007 15.5546L11.722 16.9618L10.3007 15.5546ZM10.1254 15.7318L8.70413 14.3246L10.1254 15.7318ZM6.2302 21.0231L4.46504 20.0828L6.2302 21.0231ZM5.99458 21.4654L7.75973 22.4057L5.99458 21.4654ZM3.78343 27.6539L5.74507 28.0437L3.78343 27.6539ZM3.68619 28.1432L1.72455 27.7533L3.68619 28.1432ZM2.6328 34.655L0.648225 34.4071L2.6328 34.655ZM2.60213 34.9005L4.58671 35.1484L2.60213 34.9005ZM2.57147 35.1459L0.586894 34.898L2.57147 35.1459ZM2.03019 41.7838L0.0317597 41.7046L2.03019 41.7838ZM2.02011 42.038L4.01854 42.1172L2.02011 42.038ZM2.01004 42.2921L0.0116074 42.2129L2.01004 42.2921ZM3.52607 48.6344L5.27382 47.6621L3.52607 48.6344ZM3.65026 48.8577L1.90251 49.83L3.65026 48.8577ZM3.77445 49.0809L5.5222 48.1086L3.77445 49.0809ZM6.8136 55.024L8.62601 54.1784L6.8136 55.024ZM6.91816 55.2481L5.10575 56.0938L6.91816 55.2481ZM7.02273 55.4722L8.83514 54.6266L7.02273 55.4722ZM10.7321 60.7748L12.1478 59.3621L10.7321 60.7748ZM10.9067 60.9498L9.49094 62.3624L10.9067 60.9498ZM11.0813 61.1248L9.66557 62.5375L11.0813 61.1248ZM15.6632 65.9016L17.1332 64.5455L15.6632 65.9016ZM16.0037 66.2707L14.5337 67.6269L16.0037 66.2707ZM21.2912 70.1275L22.1336 68.3135L21.2912 70.1275ZM21.519 70.2332L22.3613 68.4193L21.519 70.2332ZM21.7467 70.339L20.9044 72.1529L21.7467 70.339ZM26.63 70.5183L25.5285 68.849L26.63 70.5183ZM26.7698 70.4261L27.8714 72.0954L26.7698 70.4261ZM26.9096 70.3338L28.0112 72.0031L26.9096 70.3338ZM28.0062 67.2822L26.1601 68.0516L28.0062 67.2822ZM27.8917 67.0074L29.7378 66.238L27.8917 67.0074ZM23.9822 64.0516L24.6577 62.1692L23.9822 64.0516ZM23.5082 63.8815L22.8326 65.764L23.5082 63.8815ZM17.9159 60.6431L16.6094 62.1574L17.9159 60.6431ZM17.7319 60.4844L19.0385 58.9701L17.7319 60.4844ZM17.548 60.3257L16.2415 61.84L17.548 60.3257ZM13.5075 55.5442L11.7905 56.5698L13.5075 55.5442ZM13.2671 55.1418L14.9841 54.1161L13.2671 55.1418ZM14.7683 53.4326L15.3625 51.5229L14.7683 53.4326ZM15.0015 53.5051L14.4073 55.4149L15.0015 53.5051ZM15.2346 53.5777L15.8288 51.668L15.2346 53.5777ZM20.4432 57.2299L22.0163 55.9948L20.4432 57.2299ZM20.6021 57.4322L19.029 58.6673L20.6021 57.4322ZM20.761 57.6345L22.334 56.3995L20.761 57.6345ZM25.6912 59.1198L24.9063 57.2803L25.6912 59.1198ZM25.8885 59.0356L26.6734 60.8752L25.8885 59.0356ZM28.744 56.161L26.7615 55.8975L28.744 56.161ZM28.7792 55.8967L30.7617 56.1602L28.7792 55.8967ZM25.8569 52.9697L26.5528 51.0947L25.8569 52.9697ZM25.6194 52.8815L24.9235 54.7565L25.6194 52.8815ZM25.3819 52.7934L26.0778 50.9183L25.3819 52.7934ZM19.7984 49.2901L21.1838 47.8477L19.7984 49.2901ZM19.4329 48.9391L18.0474 50.3815L19.4329 48.9391ZM16.4601 42.8202L14.4805 43.105L16.4601 42.8202ZM15.7234 36.2469L17.7171 36.087L15.7234 36.2469ZM15.7036 35.9998L13.71 36.1597L15.7036 35.9998ZM15.6838 35.7528L17.6774 35.5929L15.6838 35.7528ZM16.8819 29.603L18.6639 30.511L16.8819 29.603ZM16.9919 29.3871L15.2099 28.4792L16.9919 29.3871ZM17.1019 29.1713L18.8839 30.0793L17.1019 29.1713ZM18.879 23.0834L16.8886 22.8881L18.879 23.0834ZM18.9028 22.841L16.9124 22.6458L18.9028 22.841ZM18.9266 22.5987L20.917 22.794L18.9266 22.5987ZM21.402 18.3367L22.2711 20.138L21.402 18.3367ZM21.5645 18.2582L20.6954 16.4569L21.5645 18.2582ZM21.7271 18.1798L22.5962 19.9811L21.7271 18.1798ZM26.7579 18.5775L27.6543 16.7896L26.7579 18.5775ZM26.9741 18.6859L26.0777 20.4737L26.9741 18.6859ZM27.1902 18.7942L28.0866 17.0063L27.1902 18.7942ZM33.6161 20.0119L33.4915 18.0158L33.6161 20.0119ZM33.8649 19.9963L33.9896 21.9924L33.8649 19.9963ZM40.501 19.6995L40.5553 21.6988L40.501 19.6995ZM40.7517 19.6927L40.6974 17.6935L40.7517 19.6927ZM41.0023 19.6859L41.0566 21.6852L41.0023 19.6859ZM47.2618 18.9145L47.7147 20.8626L47.2618 18.9145ZM47.4822 18.8633L47.0293 16.9152L47.4822 18.8633ZM47.7027 18.812L48.1556 20.7601L47.7027 18.812ZM53.3739 17.852L53.1714 15.8622L53.3739 17.852ZM53.7867 17.81L53.9892 19.7997L53.7867 17.81ZM57.6217 20.7134L55.7301 21.363L57.6217 20.7134ZM57.7039 20.953L59.5955 20.3034L57.7039 20.953ZM57.7862 21.1925L55.8946 21.8421L57.7862 21.1925ZM59.1782 27.375L57.188 27.5734L59.1782 27.375ZM60.0916 33.9488L58.1241 34.3076L60.0916 33.9488ZM60.1345 34.1838L62.102 33.8251L60.1345 34.1838ZM60.1773 34.4189L58.2098 34.7776L60.1773 34.4189ZM60.7207 41.4653L58.7208 41.4521L60.7207 41.4653ZM58.6194 47.6841L60.2269 48.8741L58.6194 47.6841ZM58.3065 48.1068L56.699 46.9169L58.3065 48.1068ZM52.9392 51.7922L52.4237 49.8598L52.9392 51.7922ZM52.6917 51.8583L53.2072 53.7907L52.6917 51.8583ZM52.4442 51.9243L51.9286 49.9919L52.4442 51.9243ZM47.8188 54.3376L46.3102 53.0246L47.8188 54.3376ZM47.6175 54.5689L49.1261 55.8819L47.6175 54.5689ZM46.7363 59.3777L48.7172 59.1018L46.7363 59.3777ZM46.7706 59.624L48.7515 59.3482L46.7706 59.624ZM46.8049 59.8704L44.824 60.1462L46.8049 59.8704ZM47.1278 66.4721L45.1294 66.3923L47.1278 66.4721ZM47.1178 66.7227L49.1162 66.8024L47.1178 66.7227ZM47.1078 66.9732L45.1094 66.8935L47.1078 66.9732ZM49.6591 70.9338L49.201 72.8806L49.6591 70.9338ZM49.8611 70.9813L50.3192 69.0345L49.8611 70.9813ZM50.0632 71.0289L49.6051 72.9757L50.0632 71.0289ZM55.7566 70.1334L54.8515 68.3499L55.7566 70.1334ZM55.9831 70.0184L56.8881 71.8019L55.9831 70.0184ZM56.2096 69.9035L55.3045 68.12L56.2096 69.9035ZM61.3856 65.7868L62.9195 67.0702L61.3856 65.7868ZM61.5487 65.5919L60.0148 64.3084L61.5487 65.5919ZM61.7118 65.397L63.2457 66.6804L61.7118 65.397ZM66.0725 60.3393L67.5673 61.668L66.0725 60.3393ZM66.2377 60.1535L64.7429 58.8247L66.2377 60.1535ZM66.4028 59.9677L67.8976 61.2965L66.4028 59.9677ZM69.7767 54.4179L71.6445 55.1331L69.7767 54.4179ZM69.8655 54.1859L71.7333 54.9011L69.8655 54.1859ZM69.9544 53.954L68.0866 53.2388L69.9544 53.954ZM72.4757 47.8233L74.3064 48.6287L72.4757 47.8233ZM72.6777 47.3643L70.847 46.5589L72.6777 47.3643ZM74.1441 40.9817L76.1427 41.0566L74.1441 40.9817ZM74.1535 40.7307L72.1549 40.6558L74.1535 40.7307ZM74.1629 40.4798L76.1615 40.5548L74.1629 40.4798ZM73.8723 33.8528L75.8565 33.6023L73.8723 33.8528ZM73.841 33.6049L71.8567 33.8554L73.841 33.6049ZM73.8097 33.357L75.7939 33.1065L73.8097 33.357ZM72.1575 26.999L70.3028 27.7473L72.1575 26.999ZM72.0645 26.7683L73.9192 26.02L72.0645 26.7683ZM71.9714 26.5376L70.1167 27.2859L71.9714 26.5376ZM69.1725 20.5807L67.4129 21.5313L69.1725 20.5807ZM68.9373 20.1453L70.6969 19.1947L68.9373 20.1453ZM65.2684 14.7071L66.8094 13.4322L65.2684 14.7071ZM65.1099 14.5155L63.5689 15.7904L65.1099 14.5155ZM64.9513 14.3238L63.4104 15.5988L64.9513 14.3238ZM60.249 9.71328L59.004 11.2786L60.249 9.71328ZM60.0536 9.55787L58.8086 11.1232L60.0536 9.55787ZM59.8582 9.40247L61.1031 7.83718L59.8582 9.40247ZM54.2341 6.0008L55.042 4.1712L54.2341 6.0008ZM47.5471 3.74903L47.1123 5.70119L47.5471 3.74903ZM47.0649 3.64162L46.6301 5.59378L47.0649 3.64162ZM41.1775 2.68392L40.9963 4.6757L41.1775 2.68392ZM40.9754 2.66554L41.1566 0.673767L40.9754 2.66554ZM40.7734 2.64716L40.5922 4.63894L40.7734 2.64716ZM34.5675 2.35745L34.2691 0.379839L34.0225 0.417037L34.321 2.39465L34.6194 4.37226L34.8659 4.33506L34.5675 2.35745ZM34.321 2.39465L34.0225 0.417037C31.8289 0.748046 29.6217 1.09848 27.4009 1.46834L27.7295 3.44117L28.058 5.414C30.2591 5.04743 32.4462 4.70019 34.6194 4.37226L34.321 2.39465ZM27.7295 3.44117L27.4009 1.46834L27.1513 1.50991L27.4798 3.48274L27.8084 5.45557L28.058 5.414L27.7295 3.44117ZM27.4798 3.48274L27.1513 1.50991L26.9017 1.55148L27.2302 3.52431L27.5588 5.49714L27.8084 5.45557L27.4798 3.48274ZM27.2302 3.52431L26.9017 1.55148C24.3937 1.96916 22.0909 2.91552 20.0145 4.38202L21.1682 6.01567L22.322 7.64932C23.9063 6.53043 25.6448 5.81588 27.5588 5.49714L27.2302 3.52431ZM21.1682 6.01567L20.0145 4.38202L19.8078 4.52797L20.9616 6.16162L22.1154 7.79527L22.322 7.64932L21.1682 6.01567ZM20.9616 6.16162L19.8078 4.52797L19.6012 4.67392L20.7549 6.30757L21.9087 7.94122L22.1154 7.79527L20.9616 6.16162ZM20.7549 6.30757L19.6012 4.67392C17.7028 6.01467 15.9145 7.45497 14.2372 8.99503L15.5899 10.4682L16.9425 11.9414C18.4913 10.5193 20.1464 9.18587 21.9087 7.94122L20.7549 6.30757ZM15.5899 10.4682L14.2372 8.99503L14.0551 9.16225L15.4077 10.6354L16.7604 12.1086L16.9425 11.9414L15.5899 10.4682ZM15.4077 10.6354L14.0551 9.16225L13.873 9.32946L15.2256 10.8026L16.5783 12.2758L16.7604 12.1086L15.4077 10.6354ZM15.2256 10.8026L13.873 9.32946C12.2364 10.8322 10.6304 12.3791 9.05488 13.9703L10.4761 15.3775L11.8973 16.7847C13.4285 15.2382 14.9888 13.7353 16.5783 12.2758L15.2256 10.8026ZM10.4761 15.3775L9.05488 13.9703L8.87951 14.1475L10.3007 15.5546L11.722 16.9618L11.8973 16.7847L10.4761 15.3775ZM10.3007 15.5546L8.87951 14.1475L8.70413 14.3246L10.1254 15.7318L11.5466 17.1389L11.722 16.9618L10.3007 15.5546ZM10.1254 15.7318L8.70413 14.3246C7.01337 16.0322 5.59936 17.9535 4.46504 20.0828L6.2302 21.0231L7.99535 21.9634C8.94793 20.1753 10.1307 18.569 11.5466 17.1389L10.1254 15.7318ZM6.2302 21.0231L4.46504 20.0828L4.34723 20.3039L6.11239 21.2442L7.87754 22.1846L7.99535 21.9634L6.2302 21.0231ZM6.11239 21.2442L4.34723 20.3039L4.22942 20.5251L5.99458 21.4654L7.75973 22.4057L7.87754 22.1846L6.11239 21.2442ZM5.99458 21.4654L4.22942 20.5251C3.0943 22.6559 2.2908 24.9041 1.82179 27.264L3.78343 27.6539L5.74507 28.0437C6.13736 26.0698 6.80796 24.1924 7.75973 22.4057L5.99458 21.4654ZM3.78343 27.6539L1.82179 27.264L1.77317 27.5087L3.73481 27.8985L5.69645 28.2884L5.74507 28.0437L3.78343 27.6539ZM3.73481 27.8985L1.77317 27.5087L1.72455 27.7533L3.68619 28.1432L5.64782 28.533L5.69645 28.2884L3.73481 27.8985ZM3.68619 28.1432L1.72455 27.7533C1.28463 29.9669 0.925823 32.1849 0.648225 34.4071L2.6328 34.655L4.61738 34.9029C4.88299 32.7766 5.22644 30.6534 5.64782 28.533L3.68619 28.1432ZM2.6328 34.655L0.648225 34.4071L0.617559 34.6525L2.60213 34.9005L4.58671 35.1484L4.61738 34.9029L2.6328 34.655ZM2.60213 34.9005L0.617559 34.6525L0.586894 34.898L2.57147 35.1459L4.55604 35.3938L4.58671 35.1484L2.60213 34.9005ZM2.57147 35.1459L0.586894 34.898C0.308098 37.1298 0.123179 39.3988 0.0317597 41.7046L2.03019 41.7838L4.02862 41.8631C4.11569 39.6669 4.29163 37.5105 4.55604 35.3938L2.57147 35.1459ZM2.03019 41.7838L0.0317597 41.7046L0.0216836 41.9588L2.02011 42.038L4.01854 42.1172L4.02862 41.8631L2.03019 41.7838ZM2.02011 42.038L0.0216836 41.9588L0.0116074 42.2129L2.01004 42.2921L4.00847 42.3714L4.01854 42.1172L2.02011 42.038ZM2.01004 42.2921L0.0116074 42.2129C-0.0922505 44.8325 0.500705 47.3102 1.77832 49.6068L3.52607 48.6344L5.27382 47.6621C4.35157 46.0044 3.93383 44.2538 4.00847 42.3714L2.01004 42.2921ZM3.52607 48.6344L1.77832 49.6068L1.90251 49.83L3.65026 48.8577L5.39801 47.8854L5.27382 47.6621L3.52607 48.6344ZM3.65026 48.8577L1.90251 49.83L2.0267 50.0532L3.77445 49.0809L5.5222 48.1086L5.39801 47.8854L3.65026 48.8577ZM3.77445 49.0809L2.0267 50.0532C3.10434 51.9903 4.09571 53.9291 5.00119 55.8697L6.8136 55.024L8.62601 54.1784C7.67915 52.1491 6.64442 50.1259 5.5222 48.1086L3.77445 49.0809ZM6.8136 55.024L5.00119 55.8697L5.10575 56.0938L6.91816 55.2481L8.73057 54.4025L8.62601 54.1784L6.8136 55.024ZM6.91816 55.2481L5.10575 56.0938L5.21032 56.3179L7.02273 55.4722L8.83514 54.6266L8.73057 54.4025L6.91816 55.2481ZM7.02273 55.4722L5.21032 56.3179C6.23473 58.5134 7.60538 60.4728 9.31631 62.1874L10.7321 60.7748L12.1478 59.3621C10.7653 57.9765 9.66306 56.4009 8.83514 54.6266L7.02273 55.4722ZM10.7321 60.7748L9.31631 62.1874L9.49094 62.3624L10.9067 60.9498L12.3225 59.5371L12.1478 59.3621L10.7321 60.7748ZM10.9067 60.9498L9.49094 62.3624L9.66557 62.5375L11.0813 61.1248L12.4971 59.7121L12.3225 59.5371L10.9067 60.9498ZM11.0813 61.1248L9.66557 62.5375C11.1936 64.0688 12.7028 65.6422 14.1932 67.2578L15.6632 65.9016L17.1332 64.5455C15.6079 62.8922 14.0625 61.281 12.4971 59.7121L11.0813 61.1248ZM15.6632 65.9016L14.1932 67.2578L14.3634 67.4423L15.8334 66.0862L17.3034 64.73L17.1332 64.5455L15.6632 65.9016ZM15.8334 66.0862L14.3634 67.4423L14.5337 67.6269L16.0037 66.2707L17.4737 64.9146L17.3034 64.73L15.8334 66.0862ZM16.0037 66.2707L14.5337 67.6269C16.2188 69.4535 18.1946 70.8946 20.4489 71.9414L21.2912 70.1275L22.1336 68.3135C20.3535 67.4869 18.8042 66.3568 17.4737 64.9146L16.0037 66.2707ZM21.2912 70.1275L20.4489 71.9414L20.6766 72.0472L21.519 70.2332L22.3613 68.4193L22.1336 68.3135L21.2912 70.1275ZM21.519 70.2332L20.6766 72.0472L20.9044 72.1529L21.7467 70.339L22.589 68.525L22.3613 68.4193L21.519 70.2332ZM21.7467 70.339L20.9044 72.1529C23.2135 73.2252 25.66 73.5546 27.7315 72.1876L26.63 70.5183L25.5285 68.849C25.1234 69.1163 24.3143 69.3262 22.589 68.525L21.7467 70.339ZM26.63 70.5183L27.7315 72.1876L27.8714 72.0954L26.7698 70.4261L25.6683 68.7567L25.5285 68.849L26.63 70.5183ZM26.7698 70.4261L27.8714 72.0954L28.0112 72.0031L26.9096 70.3338L25.8081 68.6645L25.6683 68.7567L26.7698 70.4261ZM26.9096 70.3338L28.0112 72.0031C28.8589 71.4437 29.6201 70.6768 29.9947 69.6344C30.3815 68.558 30.2536 67.4756 29.8523 66.5129L28.0062 67.2822L26.1601 68.0516C26.2166 68.187 26.2256 68.2614 26.2271 68.2843C26.2281 68.3009 26.2261 68.2937 26.2304 68.2817C26.2395 68.2564 26.1987 68.4067 25.8081 68.6645L26.9096 70.3338ZM28.0062 67.2822L29.8523 66.5129L29.7951 66.3754L27.949 67.1448L26.1029 67.9142L26.1601 68.0516L28.0062 67.2822ZM27.949 67.1448L29.7951 66.3754L29.7378 66.238L27.8917 67.0074L26.0456 67.7768L26.1029 67.9142L27.949 67.1448ZM27.8917 67.0074L29.7378 66.238C28.904 64.2374 26.9375 62.9873 24.6577 62.1692L23.9822 64.0516L23.3066 65.9341C25.225 66.6225 25.8648 67.3429 26.0456 67.7768L27.8917 67.0074ZM23.9822 64.0516L24.6577 62.1692L24.4207 62.0841L23.7452 63.9666L23.0696 65.849L23.3066 65.9341L23.9822 64.0516ZM23.7452 63.9666L24.4207 62.0841L24.1838 61.9991L23.5082 63.8815L22.8326 65.764L23.0696 65.849L23.7452 63.9666ZM23.5082 63.8815L24.1838 61.9991C22.3073 61.3257 20.6589 60.3683 19.2224 59.1288L17.9159 60.6431L16.6094 62.1574C18.4312 63.7293 20.511 64.9308 22.8326 65.764L23.5082 63.8815ZM17.9159 60.6431L19.2224 59.1288L19.0385 58.9701L17.7319 60.4844L16.4254 61.9987L16.6094 62.1574L17.9159 60.6431ZM17.7319 60.4844L19.0385 58.9701L18.8545 58.8114L17.548 60.3257L16.2415 61.84L16.4254 61.9987L17.7319 60.4844ZM17.548 60.3257L18.8545 58.8114C17.3815 57.5404 16.1752 56.1101 15.2245 54.5185L13.5075 55.5442L11.7905 56.5698C12.9688 58.5423 14.4562 60.2996 16.2415 61.84L17.548 60.3257ZM13.5075 55.5442L15.2245 54.5185L15.1043 54.3173L13.3873 55.343L11.6703 56.3686L11.7905 56.5698L13.5075 55.5442ZM13.3873 55.343L15.1043 54.3173L14.9841 54.1161L13.2671 55.1418L11.5502 56.1674L11.6703 56.3686L13.3873 55.343ZM13.2671 55.1418L14.9841 54.1161C14.8793 53.9406 14.8079 53.8035 14.7616 53.7017C14.7136 53.5963 14.7042 53.5545 14.707 53.566C14.7083 53.5714 14.7394 53.696 14.7143 53.8966C14.6864 54.1196 14.5888 54.4221 14.3467 54.6978C14.1106 54.9666 13.8445 55.0875 13.6781 55.1373C13.5244 55.1833 13.434 55.1765 13.456 55.1772C13.512 55.1788 13.7304 55.2042 14.1741 55.3423L14.7683 53.4326L15.3625 51.5229C14.7736 51.3397 14.1549 51.1954 13.5695 51.1788C13.0524 51.1641 12.0626 51.2369 11.3413 52.0582C10.5804 52.9246 10.6873 53.957 10.8173 54.4991C10.9571 55.0815 11.2432 55.6536 11.5502 56.1674L13.2671 55.1418ZM14.7683 53.4326L14.1741 55.3423L14.4073 55.4149L15.0015 53.5051L15.5956 51.5955L15.3625 51.5229L14.7683 53.4326ZM15.0015 53.5051L14.4073 55.4149L14.6405 55.4874L15.2346 53.5777L15.8288 51.668L15.5956 51.5955L15.0015 53.5051ZM15.2346 53.5777L14.6405 55.4874C16.2972 56.0029 17.6992 56.9736 18.8701 58.4649L20.4432 57.2299L22.0163 55.9948C20.373 53.9017 18.3025 52.4377 15.8288 51.668L15.2346 53.5777ZM20.4432 57.2299L18.8701 58.4649L19.029 58.6673L20.6021 57.4322L22.1752 56.1971L22.0163 55.9948L20.4432 57.2299ZM20.6021 57.4322L19.029 58.6673L19.1879 58.8696L20.761 57.6345L22.334 56.3995L22.1752 56.1971L20.6021 57.4322ZM20.761 57.6345L19.1879 58.8696C20.0467 59.9635 21.0937 60.8462 22.37 61.2694C23.6879 61.7064 25.0247 61.5786 26.2787 61.0436L25.4938 59.204L24.7089 57.3645C24.2148 57.5753 23.8887 57.5588 23.629 57.4727C23.3277 57.3728 22.8823 57.0978 22.334 56.3995L20.761 57.6345ZM25.4938 59.204L26.2787 61.0436L26.4761 60.9594L25.6912 59.1198L24.9063 57.2803L24.7089 57.3645L25.4938 59.204ZM25.6912 59.1198L26.4761 60.9594L26.6734 60.8752L25.8885 59.0356L25.1036 57.1961L24.9063 57.2803L25.6912 59.1198ZM25.8885 59.0356L26.6734 60.8752C28.6555 60.0295 30.4309 58.6494 30.7266 56.4245L28.744 56.161L26.7615 55.8975C26.746 56.0136 26.6178 56.55 25.1036 57.1961L25.8885 59.0356ZM28.744 56.161L30.7266 56.4245L30.7442 56.2923L28.7616 56.0288L26.779 55.7654L26.7615 55.8975L28.744 56.161ZM28.7616 56.0288L30.7442 56.2923L30.7617 56.1602L28.7792 55.8967L26.7966 55.6332L26.779 55.7654L28.7616 56.0288ZM28.7792 55.8967L30.7617 56.1602C30.9358 54.8503 30.424 53.7187 29.5806 52.874C28.8012 52.0933 27.7255 51.5299 26.5528 51.0947L25.8569 52.9697L25.161 54.8447C26.092 55.1903 26.5552 55.5051 26.7499 55.7001C26.8339 55.7842 26.8312 55.8097 26.8153 55.768C26.7957 55.7165 26.7929 55.6607 26.7966 55.6332L28.7792 55.8967ZM25.8569 52.9697L26.5528 51.0947L26.3153 51.0065L25.6194 52.8815L24.9235 54.7565L25.161 54.8447L25.8569 52.9697ZM25.6194 52.8815L26.3153 51.0065L26.0778 50.9183L25.3819 52.7934L24.6859 54.6684L24.9235 54.7565L25.6194 52.8815ZM25.3819 52.7934L26.0778 50.9183C24.2312 50.2329 22.6047 49.2125 21.1838 47.8477L19.7984 49.2901L18.4129 50.7326C20.2293 52.4771 22.3251 53.7921 24.6859 54.6684L25.3819 52.7934ZM19.7984 49.2901L21.1838 47.8477L21.001 47.6722L19.6156 49.1146L18.2302 50.557L18.4129 50.7326L19.7984 49.2901ZM19.6156 49.1146L21.001 47.6722L20.8183 47.4967L19.4329 48.9391L18.0474 50.3815L18.2302 50.557L19.6156 49.1146ZM19.4329 48.9391L20.8183 47.4967C19.5169 46.2467 18.7624 44.778 18.511 43.0309L16.5314 43.3157L14.5518 43.6005C14.9318 46.242 16.1116 48.5221 18.0474 50.3815L19.4329 48.9391ZM16.5314 43.3157L18.511 43.0309L18.4754 42.7832L16.4958 43.068L14.5162 43.3528L14.5518 43.6005L16.5314 43.3157ZM16.4958 43.068L18.4754 42.7832L18.4398 42.5354L16.4601 42.8202L14.4805 43.105L14.5162 43.3528L16.4958 43.068ZM16.4601 42.8202L18.4398 42.5354C18.13 40.3823 17.8891 38.2328 17.7171 36.087L15.7234 36.2469L13.7298 36.4067C13.9087 38.6369 14.1589 40.8697 14.4805 43.105L16.4601 42.8202ZM15.7234 36.2469L17.7171 36.087L17.6972 35.84L15.7036 35.9998L13.71 36.1597L13.7298 36.4067L15.7234 36.2469ZM15.7036 35.9998L17.6972 35.84L17.6774 35.5929L15.6838 35.7528L13.6902 35.9127L13.71 36.1597L15.7036 35.9998ZM15.6838 35.7528L17.6774 35.5929C17.5308 33.7647 17.8617 32.0854 18.6639 30.511L16.8819 29.603L15.0999 28.695C13.9538 30.9443 13.4859 33.3649 13.6902 35.9127L15.6838 35.7528ZM16.8819 29.603L18.6639 30.511L18.7739 30.2951L16.9919 29.3871L15.2099 28.4792L15.0999 28.695L16.8819 29.603ZM16.9919 29.3871L18.7739 30.2951L18.8839 30.0793L17.1019 29.1713L15.3199 28.2633L15.2099 28.4792L16.9919 29.3871ZM17.1019 29.1713L18.8839 30.0793C19.972 27.9438 20.6346 25.6726 20.8695 23.2787L18.879 23.0834L16.8886 22.8881C16.7022 24.7877 16.18 26.5751 15.3199 28.2633L17.1019 29.1713ZM18.879 23.0834L20.8695 23.2787L20.8933 23.0363L18.9028 22.841L16.9124 22.6458L16.8886 22.8881L18.879 23.0834ZM18.9028 22.841L20.8933 23.0363L20.917 22.794L18.9266 22.5987L16.9362 22.4034L16.9124 22.6458L18.9028 22.841ZM18.9266 22.5987L20.917 22.794C21.0863 21.0693 21.672 20.427 22.2711 20.138L21.402 18.3367L20.5329 16.5354C18.2527 17.6356 17.1882 19.8346 16.9362 22.4034L18.9266 22.5987ZM21.402 18.3367L22.2711 20.138L22.4337 20.0595L21.5645 18.2582L20.6954 16.4569L20.5329 16.5354L21.402 18.3367ZM21.5645 18.2582L22.4337 20.0595L22.5962 19.9811L21.7271 18.1798L20.858 16.3785L20.6954 16.4569L21.5645 18.2582ZM21.7271 18.1798L22.5962 19.9811C23.3003 19.6414 24.2989 19.5819 25.8616 20.3654L26.7579 18.5775L27.6543 16.7896C25.3884 15.6536 23.0332 15.329 20.858 16.3785L21.7271 18.1798ZM26.7579 18.5775L25.8616 20.3654L26.0777 20.4737L26.9741 18.6859L27.8704 16.898L27.6543 16.7896L26.7579 18.5775ZM26.9741 18.6859L26.0777 20.4737L26.2938 20.5821L27.1902 18.7942L28.0866 17.0063L27.8704 16.898L26.9741 18.6859ZM27.1902 18.7942L26.2938 20.5821C28.5342 21.7053 30.9469 22.1824 33.4919 22.0235L33.3673 20.0274L33.2427 18.0313C31.3801 18.1476 29.6747 17.8026 28.0866 17.0063L27.1902 18.7942ZM33.3673 20.0274L33.4919 22.0235L33.7408 22.008L33.6161 20.0119L33.4915 18.0158L33.2427 18.0313L33.3673 20.0274ZM33.6161 20.0119L33.7408 22.008L33.9896 21.9924L33.8649 19.9963L33.7403 18.0002L33.4915 18.0158L33.6161 20.0119ZM33.8649 19.9963L33.9896 21.9924C36.1698 21.8563 38.3584 21.7584 40.5553 21.6988L40.501 19.6995L40.4467 17.7003C38.2032 17.7612 35.9677 17.8611 33.7403 18.0002L33.8649 19.9963ZM40.501 19.6995L40.5553 21.6988L40.8059 21.692L40.7517 19.6927L40.6974 17.6935L40.4467 17.7003L40.501 19.6995ZM40.7517 19.6927L40.8059 21.692L41.0566 21.6852L41.0023 19.6859L40.9481 17.6866L40.6974 17.6935L40.7517 19.6927ZM41.0023 19.6859L41.0566 21.6852C43.3969 21.6216 45.618 21.35 47.7147 20.8626L47.2618 18.9145L46.8089 16.9665C45.0001 17.387 43.0482 17.6296 40.9481 17.6866L41.0023 19.6859ZM47.2618 18.9145L47.7147 20.8626L47.9351 20.8113L47.4822 18.8633L47.0293 16.9152L46.8089 16.9665L47.2618 18.9145ZM47.4822 18.8633L47.9351 20.8113L48.1556 20.7601L47.7027 18.812L47.2498 16.864L47.0293 16.9152L47.4822 18.8633ZM47.7027 18.812L48.1556 20.7601C50.0332 20.3235 51.8398 20.0184 53.5764 19.8417L53.3739 17.852L53.1714 15.8622C51.2519 16.0576 49.2777 16.3925 47.2498 16.864L47.7027 18.812ZM53.3739 17.852L53.5764 19.8417L53.7828 19.8207L53.5803 17.831L53.3778 15.8412L53.1714 15.8622L53.3739 17.852ZM53.5803 17.831L53.7828 19.8207L53.9892 19.7997L53.7867 17.81L53.5842 15.8202L53.3778 15.8412L53.5803 17.831ZM53.7867 17.81L53.9892 19.7997C54.4791 19.7498 54.7322 19.8568 54.9092 19.9908C55.1282 20.1566 55.4452 20.5335 55.7301 21.363L57.6217 20.7134L59.5132 20.0638C59.0695 18.7717 58.3831 17.6038 57.3237 16.8017C56.2224 15.968 54.9223 15.6841 53.5842 15.8202L53.7867 17.81ZM57.6217 20.7134L55.7301 21.363L55.8124 21.6025L57.7039 20.953L59.5955 20.3034L59.5132 20.0638L57.6217 20.7134ZM57.7039 20.953L55.8124 21.6025L55.8946 21.8421L57.7862 21.1925L59.6778 20.5429L59.5955 20.3034L57.7039 20.953ZM57.7862 21.1925L55.8946 21.8421C56.5788 23.8343 57.0056 25.7437 57.188 27.5734L59.1782 27.375L61.1683 27.1766C60.952 25.0063 60.4508 22.794 59.6778 20.5429L57.7862 21.1925ZM59.1782 27.375L57.188 27.5734L57.2105 27.7992L59.2007 27.6008L61.1908 27.4024L61.1683 27.1766L59.1782 27.375ZM59.2007 27.6008L57.2105 27.7992L57.2331 28.025L59.2232 27.8266L61.2133 27.6282L61.1908 27.4024L59.2007 27.6008ZM59.2232 27.8266L57.2331 28.025C57.4381 30.0814 57.7353 32.1757 58.1241 34.3076L60.0916 33.9488L62.0592 33.5901C61.6888 31.5589 61.4071 29.5716 61.2133 27.6282L59.2232 27.8266ZM60.0916 33.9488L58.1241 34.3076L58.1669 34.5426L60.1345 34.1838L62.102 33.8251L62.0592 33.5901L60.0916 33.9488ZM60.1345 34.1838L58.1669 34.5426L58.2098 34.7776L60.1773 34.4189L62.1449 34.0601L62.102 33.8251L60.1345 34.1838ZM60.1773 34.4189L58.2098 34.7776C58.5654 36.7278 58.7384 38.7804 58.7242 40.9387L60.7241 40.9519L62.7241 40.9651C62.7399 38.5758 62.5484 36.2731 62.1449 34.0601L60.1773 34.4189ZM60.7241 40.9519L58.7242 40.9387L58.7225 41.1954L60.7224 41.2086L62.7224 41.2218L62.7241 40.9651L60.7241 40.9519ZM60.7224 41.2086L58.7225 41.1954L58.7208 41.4521L60.7207 41.4653L62.7207 41.4785L62.7224 41.2218L60.7224 41.2086ZM60.7207 41.4653L58.7208 41.4521C58.7086 43.291 58.1521 44.9539 57.0119 46.4941L58.6194 47.6841L60.2269 48.8741C61.8584 46.6702 62.7028 44.1872 62.7207 41.4785L60.7207 41.4653ZM58.6194 47.6841L57.0119 46.4941L56.8555 46.7055L58.4629 47.8955L60.0704 49.0855L60.2269 48.8741L58.6194 47.6841ZM58.4629 47.8955L56.8555 46.7055L56.699 46.9169L58.3065 48.1068L59.9139 49.2968L60.0704 49.0855L58.4629 47.8955ZM58.3065 48.1068L56.699 46.9169C55.5748 48.4354 54.166 49.395 52.4237 49.8598L52.9392 51.7922L53.4547 53.7247C56.097 53.0197 58.2664 51.5224 59.9139 49.2968L58.3065 48.1068ZM52.9392 51.7922L52.4237 49.8598L52.1762 49.9259L52.6917 51.8583L53.2072 53.7907L53.4547 53.7247L52.9392 51.7922ZM52.6917 51.8583L52.1762 49.9259L51.9286 49.9919L52.4442 51.9243L52.9597 53.8567L53.2072 53.7907L52.6917 51.8583ZM52.4442 51.9243L51.9286 49.9919C49.5835 50.6175 47.5861 51.5587 46.3102 53.0246L47.8188 54.3376L49.3274 55.6507C49.834 55.0686 50.9202 54.4008 52.9597 53.8567L52.4442 51.9243ZM47.8188 54.3376L46.3102 53.0246L46.2095 53.1402L47.7181 54.4533L49.2267 55.7663L49.3274 55.6507L47.8188 54.3376ZM47.7181 54.4533L46.2095 53.1402L46.1089 53.2558L47.6175 54.5689L49.1261 55.8819L49.2267 55.7663L47.7181 54.4533ZM47.6175 54.5689L46.1089 53.2558C44.6555 54.9257 44.4204 57.2475 44.7554 59.6535L46.7363 59.3777L48.7172 59.1018C48.4446 57.1442 48.7969 56.2601 49.1261 55.8819L47.6175 54.5689ZM46.7363 59.3777L44.7554 59.6535L44.7897 59.8999L46.7706 59.624L48.7515 59.3482L48.7172 59.1018L46.7363 59.3777ZM46.7706 59.624L44.7897 59.8999L44.824 60.1462L46.8049 59.8704L48.7858 59.5945L48.7515 59.3482L46.7706 59.624ZM46.8049 59.8704L44.824 60.1462C45.1113 62.2093 45.2133 64.2909 45.1294 66.3923L47.1278 66.4721L49.1262 66.5518C49.2195 64.2147 49.1062 61.8951 48.7858 59.5945L46.8049 59.8704ZM47.1278 66.4721L45.1294 66.3923L45.1194 66.6429L47.1178 66.7227L49.1162 66.8024L49.1262 66.5518L47.1278 66.4721ZM47.1178 66.7227L45.1194 66.6429L45.1094 66.8935L47.1078 66.9732L49.1062 67.053L49.1162 66.8024L47.1178 66.7227ZM47.1078 66.9732L45.1094 66.8935C45.0553 68.2498 45.2749 69.5887 45.9979 70.7109C46.751 71.8801 47.8943 72.5732 49.201 72.8806L49.6591 70.9338L50.1172 68.987C49.6344 68.8734 49.4578 68.6958 49.3606 68.5448C49.2331 68.3469 49.0718 67.916 49.1062 67.053L47.1078 66.9732ZM49.6591 70.9338L49.201 72.8806L49.403 72.9282L49.8611 70.9813L50.3192 69.0345L50.1172 68.987L49.6591 70.9338ZM49.8611 70.9813L49.403 72.9282L49.6051 72.9757L50.0632 71.0289L50.5213 69.082L50.3192 69.0345L49.8611 70.9813ZM50.0632 71.0289L49.6051 72.9757C51.9504 73.5276 54.3323 73.0989 56.6616 71.9169L55.7566 70.1334L54.8515 68.3499C53.1685 69.204 51.7548 69.3723 50.5213 69.082L50.0632 71.0289ZM55.7566 70.1334L56.6616 71.9169L56.8881 71.8019L55.9831 70.0184L55.078 68.2349L54.8515 68.3499L55.7566 70.1334ZM55.9831 70.0184L56.8881 71.8019L57.1146 71.687L56.2096 69.9035L55.3045 68.12L55.078 68.2349L55.9831 70.0184ZM56.2096 69.9035L57.1146 71.687C59.3622 70.5464 61.3015 69.004 62.9195 67.0702L61.3856 65.7868L59.8518 64.5034C58.5807 66.0224 57.0693 67.2244 55.3045 68.12L56.2096 69.9035ZM61.3856 65.7868L62.9195 67.0702L63.0826 66.8753L61.5487 65.5919L60.0148 64.3084L59.8518 64.5034L61.3856 65.7868ZM61.5487 65.5919L63.0826 66.8753L63.2457 66.6804L61.7118 65.397L60.1779 64.1135L60.0148 64.3084L61.5487 65.5919ZM61.7118 65.397L63.2457 66.6804C64.6777 64.9689 66.1183 63.2982 67.5673 61.668L66.0725 60.3393L64.5777 59.0105C63.1016 60.6711 61.635 62.3722 60.1779 64.1135L61.7118 65.397ZM66.0725 60.3393L67.5673 61.668L67.7325 61.4823L66.2377 60.1535L64.7429 58.8247L64.5777 59.0105L66.0725 60.3393ZM66.2377 60.1535L67.7325 61.4823L67.8976 61.2965L66.4028 59.9677L64.908 58.639L64.7429 58.8247L66.2377 60.1535ZM66.4028 59.9677L67.8976 61.2965C69.5204 59.4709 70.7715 57.4131 71.6445 55.1331L69.7767 54.4179L67.909 53.7027C67.2086 55.5317 66.2104 57.1738 64.908 58.639L66.4028 59.9677ZM69.7767 54.4179L71.6445 55.1331L71.7333 54.9011L69.8655 54.1859L67.9978 53.4708L67.909 53.7027L69.7767 54.4179ZM69.8655 54.1859L71.7333 54.9011L71.8221 54.6692L69.9544 53.954L68.0866 53.2388L67.9978 53.4708L69.8655 54.1859ZM69.9544 53.954L71.8221 54.6692C72.5971 52.6453 73.4251 50.6318 74.3064 48.6287L72.4757 47.8233L70.6451 47.0179C69.7379 49.08 68.885 51.1537 68.0866 53.2388L69.9544 53.954ZM72.4757 47.8233L74.3064 48.6287L74.4074 48.3992L72.5767 47.5938L70.746 46.7884L70.6451 47.0179L72.4757 47.8233ZM72.5767 47.5938L74.4074 48.3992L74.5083 48.1697L72.6777 47.3643L70.847 46.5589L70.746 46.7884L72.5767 47.5938ZM72.6777 47.3643L74.5083 48.1697C75.5042 45.906 76.0499 43.5306 76.1427 41.0566L74.1441 40.9817L72.1455 40.9067C72.0716 42.8777 71.6396 44.7573 70.847 46.5589L72.6777 47.3643ZM74.1441 40.9817L76.1427 41.0566L76.1521 40.8057L74.1535 40.7307L72.1549 40.6558L72.1455 40.9067L74.1441 40.9817ZM74.1535 40.7307L76.1521 40.8057L76.1615 40.5548L74.1629 40.4798L72.1643 40.4049L72.1549 40.6558L74.1535 40.7307ZM74.1629 40.4798L76.1615 40.5548C76.2489 38.2242 76.1474 35.9063 75.8565 33.6023L73.8723 33.8528L71.888 34.1033C72.1515 36.1904 72.2436 38.2906 72.1643 40.4049L74.1629 40.4798ZM73.8723 33.8528L75.8565 33.6023L75.8252 33.3544L73.841 33.6049L71.8567 33.8554L71.888 34.1033L73.8723 33.8528ZM73.841 33.6049L75.8252 33.3544L75.7939 33.1065L73.8097 33.357L71.8254 33.6075L71.8567 33.8554L73.841 33.6049ZM73.8097 33.357L75.7939 33.1065C75.4953 30.7409 74.9013 28.4542 74.0123 26.2507L72.1575 26.999L70.3028 27.7473C71.0624 29.63 71.5697 31.582 71.8254 33.6075L73.8097 33.357ZM72.1575 26.999L74.0123 26.2507L73.9192 26.02L72.0645 26.7683L70.2097 27.5166L70.3028 27.7473L72.1575 26.999ZM72.0645 26.7683L73.9192 26.02L73.8262 25.7894L71.9714 26.5376L70.1167 27.2859L70.2097 27.5166L72.0645 26.7683ZM71.9714 26.5376L73.8262 25.7894C72.9741 23.6775 72.0095 21.6242 70.9322 19.6301L69.1725 20.5807L67.4129 21.5313C68.4189 23.3935 69.3202 25.3116 70.1167 27.2859L71.9714 26.5376ZM69.1725 20.5807L70.9322 19.6301L70.8145 19.4124L69.0549 20.363L67.2953 21.3136L67.4129 21.5313L69.1725 20.5807ZM69.0549 20.363L70.8145 19.4124L70.6969 19.1947L68.9373 20.1453L67.1777 21.0959L67.2953 21.3136L69.0549 20.363ZM68.9373 20.1453L70.6969 19.1947C69.5928 17.1509 68.2965 15.2296 66.8094 13.4322L65.2684 14.7071L63.7275 15.982C65.0488 17.5791 66.1984 19.2833 67.1777 21.0959L68.9373 20.1453ZM65.2684 14.7071L66.8094 13.4322L66.6508 13.2405L65.1099 14.5155L63.5689 15.7904L63.7275 15.982L65.2684 14.7071ZM65.1099 14.5155L66.6508 13.2405L66.4923 13.0489L64.9513 14.3238L63.4104 15.5988L63.5689 15.7904L65.1099 14.5155ZM64.9513 14.3238L66.4923 13.0489C64.9993 11.2445 63.3326 9.61038 61.4939 8.14799L60.249 9.71328L59.004 11.2786C60.6266 12.5691 62.0948 14.0087 63.4104 15.5988L64.9513 14.3238ZM60.249 9.71328L61.4939 8.14799L61.2985 7.99259L60.0536 9.55787L58.8086 11.1232L59.004 11.2786L60.249 9.71328ZM60.0536 9.55787L61.2985 7.99259L61.1031 7.83718L59.8582 9.40247L58.6132 10.9678L58.8086 11.1232L60.0536 9.55787ZM59.8582 9.40247L61.1031 7.83718C59.2389 6.35452 57.2174 5.13173 55.042 4.1712L54.2341 6.0008L53.4263 7.83039C55.2883 8.65252 57.0161 9.6975 58.6132 10.9678L59.8582 9.40247ZM54.2341 6.0008L55.042 4.1712L54.814 4.07057L54.0062 5.90016L53.1984 7.72976L53.4263 7.83039L54.2341 6.0008ZM54.0062 5.90016L54.814 4.07057L54.5861 3.96993L53.7783 5.79953L52.9705 7.62912L53.1984 7.72976L54.0062 5.90016ZM53.7783 5.79953L54.5861 3.96993C52.4485 3.02608 50.2465 2.30132 47.982 1.79688L47.5471 3.74903L47.1123 5.70119C49.1185 6.14809 51.0707 6.79032 52.9705 7.62912L53.7783 5.79953ZM47.5471 3.74903L47.982 1.79688L47.7409 1.74317L47.306 3.69533L46.8712 5.64748L47.1123 5.70119L47.5471 3.74903ZM47.306 3.69533L47.7409 1.74317L47.4998 1.68947L47.0649 3.64162L46.6301 5.59378L46.8712 5.64748L47.306 3.69533ZM47.0649 3.64162L47.4998 1.68947C45.298 1.19902 43.2495 0.864157 41.3587 0.692147L41.1775 2.68392L40.9963 4.6757C42.6845 4.82928 44.561 5.13289 46.6301 5.59378L47.0649 3.64162ZM41.1775 2.68392L41.3587 0.692147L41.1566 0.673767L40.9754 2.66554L40.7942 4.65732L40.9963 4.6757L41.1775 2.68392ZM40.9754 2.66554L41.1566 0.673767L40.9546 0.655387L40.7734 2.64716L40.5922 4.63894L40.7942 4.65732L40.9754 2.66554ZM40.7734 2.64716L40.9546 0.655387C40.0752 0.575392 39.4833 0.498882 39.1352 0.432428C38.9454 0.396187 38.9222 0.380065 38.9848 0.404516C39.0056 0.412629 39.1738 0.476272 39.3713 0.63244C39.5376 0.763919 40.0891 1.25606 40.0891 2.1347H38.0891H36.0891C36.0891 3.05805 36.6684 3.59465 36.8907 3.77034C37.1442 3.97072 37.3963 4.07832 37.5289 4.13014C37.8151 4.24201 38.1275 4.3123 38.3851 4.36147C38.9318 4.46584 39.682 4.55614 40.5922 4.63894L40.7734 2.64716ZM38.0891 2.1347H40.0891V2.11451H38.0891H36.0891V2.1347H38.0891ZM38.0891 2.11451H40.0891V2.09432H38.0891H36.0891V2.11451H38.0891ZM38.0891 2.09432H40.0891C40.0891 0.814171 39.0555 0.297938 38.8162 0.196835C38.4974 0.0621336 38.2029 0.0290698 38.0732 0.016771C37.7678 -0.0121948 37.4296 0.000922203 37.1326 0.0214093C36.5028 0.0648613 35.6185 0.17621 34.5156 0.342641L34.814 2.32025L35.1124 4.29786C36.1929 4.13483 36.9461 4.04379 37.4079 4.01192C37.6568 3.99476 37.7281 4.00199 37.6955 3.9989C37.6793 3.99736 37.6358 3.99274 37.5741 3.98014C37.5182 3.96874 37.4027 3.94198 37.2595 3.88149C37.1296 3.82658 36.8634 3.69706 36.6101 3.42409C36.3207 3.11208 36.0891 2.65037 36.0891 2.09432H38.0891ZM34.814 2.32025L34.5156 0.342641L34.2691 0.379839L34.5675 2.35745L34.8659 4.33506L35.1124 4.29786L34.814 2.32025Z" fill="black"/>
</svg>
