<svg width="134" height="134" viewBox="0 0 134 134" fill="none" xmlns="http://www.w3.org/2000/svg">
<path d="M8.04719 124.73C6.39175 124.798 5.1051 126.195 5.17339 127.851C5.24167 129.506 6.63904 130.793 8.29448 130.725L8.17084 127.727L8.04719 124.73ZM8.27075 127.723L8.30891 124.723L8.22798 124.722L8.14711 124.726L8.27075 127.723ZM9.67974 127.741L9.64158 130.741L9.67974 127.741ZM39.2103 127.631L39.1137 124.632L39.2103 127.631ZM58.0064 127.006L57.9037 124.008L58.0064 127.006ZM78.2164 126.192L78.0748 123.195L78.2164 126.192ZM118.599 124.973L119.045 122.007L118.599 124.973ZM120.012 125.186L119.566 128.152L120.012 125.186ZM130.004 125.957L132.171 128.032L130.004 125.957ZM130.05 125.909L132.217 127.984L132.303 127.894L132.381 127.798L130.05 125.909ZM130.607 125.222L130.645 122.222L129.192 122.204L128.277 123.333L130.607 125.222ZM130.67 128.223C132.326 128.244 133.686 126.917 133.707 125.261C133.728 123.604 132.402 122.244 130.745 122.223L130.707 125.223L130.67 128.223ZM8.17084 127.727L8.29448 130.725L8.3944 130.721L8.27075 127.723L8.14711 124.726L8.04719 124.73L8.17084 127.727ZM8.27075 127.723L8.2326 130.723L9.64158 130.741L9.67974 127.741L9.71789 124.741L8.30891 124.723L8.27075 127.723ZM9.67974 127.741L9.64158 130.741C22.1314 130.9 31.5581 130.879 37.8923 130.675L37.7957 127.676L37.6992 124.678C31.5045 124.878 22.1873 124.9 9.71789 124.741L9.67974 127.741ZM37.7957 127.676L37.8923 130.675L38.5996 130.652L38.503 127.654L38.4064 124.655L37.6992 124.678L37.7957 127.676ZM38.503 127.654L38.5996 130.652L39.3069 130.629L39.2103 127.631L39.1137 124.632L38.4064 124.655L38.503 127.654ZM39.2103 127.631L39.3069 130.629C45.5733 130.427 51.8408 130.219 58.1092 130.004L58.0064 127.006L57.9037 124.008C51.6394 124.223 45.3761 124.431 39.1137 124.632L39.2103 127.631ZM58.0064 127.006L58.1092 130.004L58.8167 129.98L58.7139 126.982L58.6112 123.984L57.9037 124.008L58.0064 127.006ZM58.7139 126.982L58.8167 129.98L59.5242 129.956L59.4214 126.958L59.3187 123.959L58.6112 123.984L58.7139 126.982ZM59.4214 126.958L59.5242 129.956C65.8035 129.741 72.0814 129.485 78.3579 129.188L78.2164 126.192L78.0748 123.195C71.8242 123.49 65.5721 123.745 59.3187 123.959L59.4214 126.958ZM78.2164 126.192L78.3579 129.188L79.0651 129.155L78.9235 126.158L78.782 123.162L78.0748 123.195L78.2164 126.192ZM78.9235 126.158L79.0651 129.155L79.7722 129.122L79.6307 126.125L79.4892 123.128L78.782 123.162L78.9235 126.158ZM79.6307 126.125L79.7722 129.122C86.0933 128.823 92.4119 128.343 98.7281 127.68L98.4152 124.697L98.1023 121.713C91.8997 122.364 85.6954 122.835 79.4892 123.128L79.6307 126.125ZM98.4152 124.697L98.7281 127.68L99.4348 127.606L99.1219 124.623L98.809 121.639L98.1023 121.713L98.4152 124.697ZM99.1219 124.623L99.4348 127.606L100.141 127.532L99.8286 124.548L99.5157 121.565L98.809 121.639L99.1219 124.623ZM99.8286 124.548L100.141 127.532C106.147 126.902 112.149 127.038 118.154 127.94L118.599 124.973L119.045 122.007C112.541 121.029 106.029 120.882 99.5157 121.565L99.8286 124.548ZM118.599 124.973L118.154 127.94L118.86 128.046L119.306 125.079L119.751 122.113L119.045 122.007L118.599 124.973ZM119.306 125.079L118.86 128.046L119.566 128.152L120.012 125.186L120.457 122.219L119.751 122.113L119.306 125.079ZM120.012 125.186L119.566 128.152C122.714 128.625 125.195 128.937 126.97 129.074C127.846 129.142 128.637 129.174 129.286 129.145C129.603 129.131 129.986 129.098 130.37 129.012C130.62 128.956 131.473 128.762 132.171 128.032L130.004 125.957L127.838 123.882C128.175 123.529 128.517 123.357 128.685 123.283C128.868 123.203 129.007 123.169 129.059 123.157C129.159 123.135 129.166 123.144 129.016 123.151C128.73 123.164 128.221 123.153 127.432 123.092C125.876 122.972 123.564 122.686 120.457 122.219L120.012 125.186ZM130.004 125.957L132.171 128.032L132.217 127.984L130.05 125.909L127.884 123.834L127.838 123.882L130.004 125.957ZM130.05 125.909L132.381 127.798L132.938 127.11L130.607 125.222L128.277 123.333L127.72 124.02L130.05 125.909ZM130.607 125.222L130.57 128.221L130.67 128.223L130.707 125.223L130.745 122.223L130.645 122.222L130.607 125.222Z" fill="black"/>
<path d="M2.84546 9.00396C1.19081 9.08934 -0.0813375 10.4999 0.00404729 12.1546C0.0894321 13.8092 1.50001 15.0814 3.15466 14.996L3.00006 12L2.84546 9.00396ZM3.09993 11.9948L3.11404 8.99485L3.02963 8.99446L2.94533 8.99881L3.09993 11.9948ZM4.51077 12.0015L4.49666 15.0014L4.51077 12.0015ZM33.3401 11.5618L33.1833 8.56586L33.3401 11.5618ZM73.0001 10.6617L72.9689 13.6615L73.0001 10.6617ZM74.416 10.6764L74.3848 13.6763L74.416 10.6764ZM93.2188 10.1874L93.0319 7.19325L93.2188 10.1874ZM93.9261 10.1432L94.1131 13.1374L93.9261 10.1432ZM94.6334 10.0991L94.4464 7.10491L94.6334 10.0991ZM113.423 10.8061L113.013 13.778L113.423 10.8061ZM114.837 11.0009L115.246 8.02892L114.837 11.0009ZM125.382 11.6615L123.937 9.03234L125.382 11.6615ZM125.468 11.6139L126.913 14.243L126.961 14.2166L127.008 14.1884L125.468 11.6139ZM126.607 10.9325L126.621 7.93257L125.785 7.92874L125.067 8.358L126.607 10.9325ZM126.694 13.933C128.35 13.9406 129.7 12.6036 129.707 10.9468C129.715 9.28991 128.378 7.94063 126.721 7.93303L126.707 10.933L126.694 13.933ZM3.00006 12L3.15466 14.996L3.25453 14.9908L3.09993 11.9948L2.94533 8.99881L2.84546 9.00396L3.00006 12ZM3.09993 11.9948L3.08582 14.9948L4.49666 15.0014L4.51077 12.0015L4.52488 9.00149L3.11404 8.99485L3.09993 11.9948ZM4.51077 12.0015L4.49666 15.0014C17.0055 15.0602 26.4496 14.9265 32.791 14.5946L32.6342 11.5987L32.4774 8.60281C26.3129 8.92544 17.0081 9.06019 4.52488 9.00149L4.51077 12.0015ZM32.6342 11.5987L32.791 14.5946L33.4969 14.5577L33.3401 11.5618L33.1833 8.56586L32.4774 8.60281L32.6342 11.5987ZM33.3401 11.5618L33.4969 14.5577L34.2029 14.5207L34.0461 11.5248L33.8893 8.52891L33.1833 8.56586L33.3401 11.5618ZM34.0461 11.5248L34.2029 14.5207C40.4269 14.195 46.6506 13.9596 52.8738 13.8145L52.8039 10.8153L52.734 7.81615C46.4527 7.96255 40.1711 8.20014 33.8893 8.52891L34.0461 11.5248ZM52.8039 10.8153L52.8738 13.8145L53.5797 13.7981L53.5098 10.7989L53.4399 7.79969L52.734 7.81615L52.8039 10.8153ZM53.5098 10.7989L53.5797 13.7981L54.2856 13.7816L54.2157 10.7824L54.1458 7.78324L53.4399 7.79969L53.5098 10.7989ZM54.2157 10.7824L54.2856 13.7816C60.5041 13.6367 66.7319 13.5966 72.9689 13.6615L73.0001 10.6617L73.0313 7.66185C66.727 7.59627 60.4319 7.63673 54.1458 7.78324L54.2157 10.7824ZM73.0001 10.6617L72.9689 13.6615L73.6768 13.6689L73.7081 10.6691L73.7393 7.66922L73.0313 7.66185L73.0001 10.6617ZM73.7081 10.6691L73.6768 13.6689L74.3848 13.6763L74.416 10.6764L74.4472 7.67658L73.7393 7.66922L73.7081 10.6691ZM74.416 10.6764L74.3848 13.6763C80.7283 13.7422 87.0687 13.5774 93.4058 13.1816L93.2188 10.1874L93.0319 7.19325C86.8398 7.57995 80.645 7.74106 74.4472 7.67658L74.416 10.6764ZM93.2188 10.1874L93.4058 13.1816L94.1131 13.1374L93.9261 10.1432L93.7392 7.14908L93.0319 7.19325L93.2188 10.1874ZM93.9261 10.1432L94.1131 13.1374L94.8204 13.0932L94.6334 10.0991L94.4464 7.10491L93.7392 7.14908L93.9261 10.1432ZM94.6334 10.0991L94.8204 13.0932C100.885 12.7145 106.948 12.9425 113.013 13.778L113.423 10.8061L113.832 7.83415C107.374 6.94455 100.911 6.70116 94.4464 7.10491L94.6334 10.0991ZM113.423 10.8061L113.013 13.778L113.72 13.8754L114.13 10.9035L114.539 7.93153L113.832 7.83415L113.423 10.8061ZM114.13 10.9035L113.72 13.8754L114.427 13.9728L114.837 11.0009L115.246 8.02892L114.539 7.93153L114.13 10.9035ZM114.837 11.0009L114.427 13.9728C117.584 14.4076 120.114 14.69 121.982 14.8071C122.91 14.8652 123.74 14.887 124.432 14.8543C124.778 14.838 125.142 14.806 125.496 14.7424C125.81 14.6859 126.316 14.5713 126.826 14.2907L125.382 11.6615L123.937 9.03234C124.115 8.93445 124.257 8.88618 124.324 8.86568C124.361 8.85413 124.39 8.84695 124.407 8.84293C124.424 8.83887 124.433 8.83714 124.434 8.83704C124.435 8.83691 124.429 8.83796 124.416 8.83975C124.403 8.84153 124.384 8.84382 124.359 8.84634C124.308 8.85144 124.239 8.85676 124.149 8.861C123.77 8.87886 123.186 8.87076 122.357 8.81882C120.71 8.71563 118.351 8.45666 115.246 8.02892L114.837 11.0009ZM125.382 11.6615L126.826 14.2907L126.913 14.243L125.468 11.6139L124.024 8.98468L123.937 9.03234L125.382 11.6615ZM125.468 11.6139L127.008 14.1884L128.147 13.5071L126.607 10.9325L125.067 8.358L123.928 9.03931L125.468 11.6139ZM126.607 10.9325L126.594 13.9325L126.694 13.933L126.707 10.933L126.721 7.93303L126.621 7.93257L126.607 10.9325Z" fill="black"/>
<path d="M12.5815 4.2067C12.5328 2.55056 11.1507 1.24749 9.49455 1.29622C7.83841 1.34495 6.53535 2.72701 6.58407 4.38315L9.58277 4.29492L12.5815 4.2067ZM9.58572 4.39488L12.5848 4.47026L12.5868 4.38845L12.5844 4.30665L9.58572 4.39488ZM9.84442 54.1364L12.8432 54.0521L9.84442 54.1364ZM10.5535 75.0604L13.5511 74.9403V74.9403L10.5535 75.0604ZM11.8759 94.5608L8.89011 94.8524L11.8759 94.5608ZM11.9449 95.2678L14.9307 94.9762L11.9449 95.2678ZM12.014 95.9747L9.02818 96.2663L12.014 95.9747ZM11.6472 114.751L14.6195 115.158L11.6472 114.751ZM11.5506 115.457L8.57825 115.051L11.5506 115.457ZM11.4539 116.164L14.4262 116.57L11.4539 116.164ZM10.7474 128.083L7.82231 128.749L10.7474 128.083ZM10.7909 128.274L7.86577 128.94L7.86863 128.953L7.87159 128.965L10.7909 128.274ZM11.4128 130.9L14.4126 130.929L14.4162 130.564L14.332 130.209L11.4128 130.9ZM8.41193 130.971C8.39588 132.628 9.72595 133.984 11.3827 134C13.0395 134.016 14.3956 132.686 14.4116 131.029L11.4118 131L8.41193 130.971ZM9.58277 4.29492L6.58407 4.38315L6.58701 4.4831L9.58572 4.39488L12.5844 4.30665L12.5815 4.2067L9.58277 4.29492ZM9.58572 4.39488L6.58666 4.3195L6.55124 5.72882L9.55029 5.80421L12.5493 5.87959L12.5848 4.47026L9.58572 4.39488ZM9.55029 5.80421L6.55124 5.72882C6.2372 18.2227 6.15625 27.6571 6.31336 33.9989L9.31244 33.9246L12.3115 33.8503C12.1583 27.6635 12.2359 18.3509 12.5493 5.87959L9.55029 5.80421ZM9.31244 33.9246L6.31336 33.9989L6.33088 34.7062L9.32996 34.6319L12.329 34.5576L12.3115 33.8503L9.31244 33.9246ZM9.32996 34.6319L6.33088 34.7062L6.34841 35.4135L9.34749 35.3392L12.3466 35.2649L12.329 34.5576L9.32996 34.6319ZM9.34749 35.3392L6.34841 35.4135C6.50368 41.6811 6.66941 47.9502 6.8456 54.2206L9.84442 54.1364L12.8432 54.0521C12.6672 47.7883 12.5017 41.5259 12.3466 35.2649L9.34749 35.3392ZM9.84442 54.1364L6.8456 54.2206L6.86549 54.9282L9.8643 54.844L12.8631 54.7597L12.8432 54.0521L9.84442 54.1364ZM9.8643 54.844L6.86549 54.9282L6.88537 55.6358L9.88419 55.5515L12.883 55.4673L12.8631 54.7597L9.8643 54.844ZM9.88419 55.5515L6.88537 55.6358C7.0618 61.9149 7.27587 68.194 7.52757 74.473L10.5252 74.3529L13.5228 74.2327C13.272 67.9776 13.0588 61.7224 12.883 55.4673L9.88419 55.5515ZM10.5252 74.3529L7.52757 74.473L7.55593 75.1806L10.5535 75.0604L13.5511 74.9403L13.5228 74.2327L10.5252 74.3529ZM10.5535 75.0604L7.55593 75.1806L7.58429 75.8882L10.5819 75.768L13.5795 75.6479L13.5511 74.9403L10.5535 75.0604ZM10.5819 75.768L7.58429 75.8882C7.83781 82.2127 8.2731 88.5341 8.89011 94.8524L11.8759 94.5608L14.8617 94.2693C14.2558 88.0647 13.8284 81.8575 13.5795 75.6479L10.5819 75.768ZM11.8759 94.5608L8.89011 94.8524L8.95915 95.5594L11.9449 95.2678L14.9307 94.9762L14.8617 94.2693L11.8759 94.5608ZM11.9449 95.2678L8.95915 95.5594L9.02818 96.2663L12.014 95.9747L14.9998 95.6831L14.9307 94.9762L11.9449 95.2678ZM12.014 95.9747L9.02818 96.2663C9.61686 102.294 9.49933 108.319 8.67489 114.344L11.6472 114.751L14.6195 115.158C15.507 108.671 15.634 102.178 14.9998 95.6831L12.014 95.9747ZM11.6472 114.751L8.67489 114.344L8.57825 115.051L11.5506 115.457L14.5229 115.864L14.6195 115.158L11.6472 114.751ZM11.5506 115.457L8.57825 115.051L8.48161 115.757L11.4539 116.164L14.4262 116.57L14.5229 115.864L11.5506 115.457ZM11.4539 116.164L8.48161 115.757C8.04846 118.923 7.76467 121.564 7.64055 123.658C7.52202 125.658 7.52649 127.45 7.82231 128.749L10.7474 128.083L13.6725 127.417C13.5833 127.025 13.5131 125.986 13.63 124.013C13.7414 122.134 14.0034 119.661 14.4262 116.57L11.4539 116.164ZM10.7474 128.083L7.82231 128.749L7.86577 128.94L10.7909 128.274L13.7159 127.608L13.6725 127.417L10.7474 128.083ZM10.7909 128.274L7.87159 128.965L8.49349 131.591L11.4128 130.9L14.332 130.209L13.7101 127.583L10.7909 128.274ZM11.4128 130.9L8.4129 130.871L8.41193 130.971L11.4118 131L14.4116 131.029L14.4126 130.929L11.4128 130.9Z" fill="black"/>
<path d="M124.583 2.87133C124.512 1.216 123.112 -0.0683012 121.457 0.0027599C119.801 0.073821 118.517 1.47334 118.588 3.12867L121.585 3L124.583 2.87133ZM121.59 3.09991L124.59 3.13287L124.59 3.05202L124.587 2.97124L121.59 3.09991ZM121.683 32.6271L124.681 32.5267L124.681 32.5267L121.683 32.6271ZM121.73 34.0409L124.729 33.9405H124.729L121.73 34.0409ZM122.399 53.5397L125.397 53.4345L122.399 53.5397ZM123.196 73.046L120.199 73.187L123.196 73.046ZM123.229 73.7535L126.226 73.6125L123.229 73.7535ZM124.709 93.2358L127.692 92.9161L124.709 93.2358ZM124.785 93.9414L121.802 94.2611L124.785 93.9414ZM124.861 94.6471L127.844 94.3274L124.861 94.6471ZM124.606 113.414L121.633 113.015L124.606 113.414ZM124.512 114.121L127.485 114.519L124.512 114.121ZM124.417 114.827L121.443 114.429L124.417 114.827ZM123.676 127.372L126.637 126.885L123.676 127.372ZM123.715 127.609L120.755 128.096L120.756 128.104L120.758 128.112L123.715 127.609ZM124.274 130.9L127.274 130.943L127.278 130.668L127.232 130.397L124.274 130.9ZM121.273 130.957C121.249 132.613 122.573 133.976 124.23 134C125.886 134.024 127.249 132.7 127.273 131.043L124.273 131L121.273 130.957ZM121.585 3L118.588 3.12867L118.593 3.22858L121.59 3.09991L124.587 2.97124L124.583 2.87133L121.585 3ZM121.59 3.09991L118.59 3.06695L118.574 4.47642L121.574 4.50937L124.574 4.54233L124.59 3.13287L121.59 3.09991ZM121.574 4.50937L118.574 4.47642C118.437 16.9703 118.473 26.3971 118.685 32.7275L121.683 32.6271L124.681 32.5267C124.474 26.3344 124.437 17.0161 124.574 4.54233L121.574 4.50937ZM121.683 32.6271L118.685 32.7275L118.708 33.4344L121.707 33.334L124.705 33.2336L124.681 32.5267L121.683 32.6271ZM121.707 33.334L118.708 33.4344L118.732 34.1413L121.73 34.0409L124.729 33.9405L124.705 33.2336L121.707 33.334ZM121.73 34.0409L118.732 34.1413C118.942 40.4042 119.156 46.6695 119.376 52.9373L122.374 52.8322L125.373 52.727C125.153 46.4624 124.938 40.2002 124.729 33.9405L121.73 34.0409ZM122.374 52.8322L119.376 52.9373L119.401 53.6448L122.399 53.5397L125.397 53.4345L125.373 52.727L122.374 52.8322ZM122.399 53.5397L119.401 53.6448L119.426 54.3523L122.424 54.2471L125.422 54.142L125.397 53.4345L122.399 53.5397ZM122.424 54.2471L119.426 54.3523C119.646 60.6305 119.904 66.9087 120.199 73.187L123.196 73.046L126.193 72.905C125.898 66.6506 125.642 60.3962 125.422 54.142L122.424 54.2471ZM123.196 73.046L120.199 73.187L120.233 73.8945L123.229 73.7535L126.226 73.6125L126.193 72.905L123.196 73.046ZM123.229 73.7535L120.233 73.8945L120.266 74.602L123.262 74.461L126.259 74.32L126.226 73.6125L123.229 73.7535ZM123.262 74.461L120.266 74.602C120.563 80.9282 121.05 87.246 121.727 93.5554L124.709 93.2358L127.692 92.9161C127.029 86.7252 126.551 80.5266 126.259 74.32L123.262 74.461ZM124.709 93.2358L121.727 93.5554L121.802 94.2611L124.785 93.9414L127.768 93.6217L127.692 92.9161L124.709 93.2358ZM124.785 93.9414L121.802 94.2611L121.878 94.9668L124.861 94.6471L127.844 94.3274L127.768 93.6217L124.785 93.9414ZM124.861 94.6471L121.878 94.9668C122.522 100.977 122.441 106.991 121.633 113.015L124.606 113.414L127.58 113.812C128.451 107.314 128.539 100.818 127.844 94.3274L124.861 94.6471ZM124.606 113.414L121.633 113.015L121.538 113.722L124.512 114.121L127.485 114.519L127.58 113.812L124.606 113.414ZM124.512 114.121L121.538 113.722L121.443 114.429L124.417 114.827L127.39 115.226L127.485 114.519L124.512 114.121ZM124.417 114.827L121.443 114.429C120.614 120.615 120.286 125.242 120.716 127.859L123.676 127.372L126.637 126.885C126.375 125.298 126.541 121.562 127.39 115.226L124.417 114.827ZM123.676 127.372L120.716 127.859L120.755 128.096L123.715 127.609L126.676 127.123L126.637 126.885L123.676 127.372ZM123.715 127.609L120.758 128.112L121.317 131.403L124.274 130.9L127.232 130.397L126.673 127.107L123.715 127.609ZM124.274 130.9L121.275 130.857L121.273 130.957L124.273 131L127.273 131.043L127.274 130.943L124.274 130.9Z" fill="black"/>
</svg>
