<svg width="308" height="231" viewBox="0 0 308 231" fill="none" xmlns="http://www.w3.org/2000/svg">
<path fill-rule="evenodd" clip-rule="evenodd" d="M307 110.695V112.985C306.504 114.137 305.293 114.874 303.986 114.713L270.772 110.618L263.012 125.708C262.711 126.295 262.234 126.731 261.681 126.994C261.567 127.311 261.44 127.623 261.302 127.926C260.696 129.252 259.799 130.651 258.685 132.111C254.517 137.574 250.277 142.938 245.966 148.2C241.717 153.386 237.572 158.804 233.533 164.451C229.939 169.476 228.806 174.962 230.121 181.117C231.68 188.418 231.582 195.013 229.598 200.775C229.124 202.153 228.485 203.401 227.681 204.502L245.187 224.092L303.996 217.035C305.3 216.879 306.506 217.616 307 218.764V221.054C307.196 220.6 307.278 220.09 307.215 219.565C307.181 219.282 307.107 219.013 307 218.764V112.985C307.106 112.739 307.179 112.474 307.214 112.194C307.279 111.665 307.197 111.152 307 110.695ZM48.0167 23.1453L48.0528 23.1342L48.0786 23.1262C48.0562 23.1332 48.0355 23.1396 48.0167 23.1453ZM240.521 127.351C246.459 124.416 251.296 123.461 255.174 124.031C255.861 124.133 256.233 124.276 256.408 124.365C256.387 124.552 256.309 124.922 256.036 125.52C255.671 126.319 255.042 127.341 254.082 128.6C249.954 134.011 245.756 139.322 241.487 144.532C237.156 149.819 232.934 155.336 228.824 161.082C224.269 167.451 222.809 174.603 224.459 182.327C225.864 188.907 225.676 194.385 224.125 198.89C223.629 200.33 222.912 201.4 221.988 202.191C221.944 202.225 221.9 202.261 221.857 202.299C221.558 202.542 221.238 202.758 220.897 202.947C219.366 203.798 217.164 204.279 214.075 204.124C207.368 203.787 202.634 202.767 199.615 201.274C198.345 200.645 197.266 200.132 196.392 199.739C196.769 198.131 197.316 195.778 198.031 192.681C199.501 186.317 201.994 180.37 205.519 174.828C209.301 168.883 212.592 162.686 215.388 156.239C218.02 150.172 221.428 144.531 225.621 139.314C229.71 134.225 234.67 130.243 240.521 127.351Z" fill="white"/>
<path fill-rule="evenodd" clip-rule="evenodd" d="M113.906 0.0733905C110.678 -0.246924 107.616 0.484862 104.806 2.19839C103.176 3.19283 101.898 4.61732 101.349 6.52163C100.816 8.37092 101.083 10.2845 101.748 12.088C102.288 13.5525 103.151 15.0998 104.296 16.7277C99.3279 15.8073 94.3584 14.8809 89.3884 13.9455C82.7536 12.6966 76.1554 11.1368 69.5955 9.26382C61.8267 7.0458 54.0391 9.98695 46.49 16.7375L44.8035 16.8019L44.7654 17.3781C44.5548 17.3487 44.3262 17.3154 44.0798 17.2765C41.3074 16.8393 37.8317 16.7678 33.7263 17.0021C30.4669 17.1884 28.0956 19.1473 26.5877 21.9845C25.5602 23.9179 24.8688 26.3529 24.4353 29.1925C19.94 27.6416 15.3511 27.1297 10.6922 27.7082C7.10782 28.1533 4.00327 29.4764 2.03688 32.1339C0.0829763 34.7747 -0.317454 38.1544 0.215593 41.7726C1.23232 48.6736 3.94495 55.1044 8.29177 61.0421C12.8842 67.3153 19.2061 70.8242 27.0398 71.4943C33.9319 72.0839 40.6131 73.1054 47.0847 74.5568C53.6337 76.0255 58.7785 77.4439 62.5642 78.8009C64.5492 79.5125 66.1427 80.0232 67.2586 80.2785C67.739 80.3883 68.4553 80.5322 69.1423 80.4787C69.2292 80.4719 69.396 80.456 69.6091 80.4103C72.5533 86.5062 75.577 91.1568 78.7195 94.2365C83.3413 98.7658 87.9343 103.066 92.4978 107.137C94.768 109.162 96.5158 110.68 97.7215 111.668C98.312 112.152 98.8316 112.559 99.242 112.839C99.4205 112.961 99.7181 113.157 100.054 113.306C100.147 113.347 100.397 113.455 100.741 113.523C101.494 119.969 103 125.267 105.353 129.31C107.365 132.766 109.527 135.658 111.877 137.771C102.481 138.611 95.635 138.069 91.1199 136.378C84.5919 133.933 77.9448 132.067 71.1814 130.778C64.0213 129.415 57.0066 130.146 50.2058 132.953C46.629 134.43 43.8279 136.623 42.2341 139.702C40.6406 142.782 40.4687 146.333 41.3318 150.103C43.0549 157.628 47.5988 163.125 54.7273 166.431C61.4357 169.542 68.4591 171.154 75.7722 171.255C82.4952 171.348 88.9701 172.053 95.199 173.364C101.14 174.616 106.604 177.271 111.613 181.382C116.966 185.775 122.11 189.969 127.045 193.961C132.262 198.182 138.315 201.452 145.17 203.789C151.972 206.108 158.944 207.505 166.08 207.98C173.208 208.453 179.27 207.78 184.074 205.721C186.157 204.828 187.736 204.216 188.844 203.858C189.302 203.709 189.635 203.62 189.861 203.57L190.974 203.96L191.161 203.938C191.54 204.242 192.063 204.505 192.755 204.553C192.813 204.557 192.87 204.557 192.927 204.558C193.012 204.591 193.112 204.628 193.224 204.675C194.026 205.006 195.288 205.592 197.049 206.463C201.118 208.476 206.783 209.555 213.784 209.906C217.349 210.085 220.569 209.605 223.261 208.243L242.881 230.2L304.685 222.783C305.747 222.656 306.605 221.969 307 221.054V218.764C306.506 217.616 305.3 216.879 303.996 217.035L245.187 224.092L227.681 204.502C228.485 203.401 229.124 202.153 229.598 200.775C231.582 195.013 231.68 188.418 230.121 181.117C228.806 174.962 229.939 169.476 233.533 164.451C237.572 158.804 241.717 153.386 245.966 148.2C250.277 142.938 254.517 137.574 258.685 132.111C259.799 130.651 260.696 129.252 261.302 127.926C261.44 127.623 261.567 127.311 261.681 126.994C262.234 126.731 262.711 126.295 263.012 125.708L270.772 110.618L303.986 114.713C305.293 114.874 306.504 114.137 307 112.985V110.695C306.606 109.783 305.753 109.097 304.695 108.967L267.471 104.378L259.659 119.567C258.572 118.858 257.289 118.491 256.015 118.304C254.593 118.095 253.131 118.037 251.631 118.123L251.348 118.065L247.722 118.39C247.26 118.426 246.298 118.304 244.664 117.673C243.08 117.062 241.099 116.067 238.7 114.642C233.853 111.763 228.684 108.263 223.193 104.135C217.939 100.184 213.594 95.3478 210.149 89.6056C206.371 83.3067 201.817 77.7706 196.489 73.0099C191.457 68.5141 186.73 63.8338 182.306 58.9718C177.963 54.1984 174.157 48.926 170.891 43.1476C167.399 36.9694 163.164 31.3104 158.188 26.175C153.144 20.9685 147.365 16.8157 140.864 13.7287C134.806 10.8522 128.978 7.54163 123.38 3.798C120.251 1.70629 117.085 0.38897 113.906 0.0733905ZM240.521 127.351C246.459 124.416 251.296 123.461 255.174 124.031C255.861 124.133 256.233 124.276 256.408 124.365C256.387 124.552 256.309 124.922 256.036 125.52C255.671 126.319 255.042 127.341 254.082 128.6C249.954 134.011 245.756 139.322 241.487 144.532C237.156 149.819 232.934 155.336 228.824 161.082C224.269 167.451 222.809 174.603 224.459 182.327C225.864 188.907 225.676 194.385 224.125 198.89C223.629 200.33 222.912 201.4 221.988 202.191C221.944 202.225 221.9 202.261 221.857 202.299C221.558 202.542 221.238 202.758 220.897 202.947C219.366 203.798 217.164 204.279 214.075 204.124C207.368 203.787 202.634 202.767 199.615 201.274C198.345 200.645 197.266 200.132 196.392 199.739C196.769 198.131 197.316 195.778 198.031 192.681C199.501 186.317 201.994 180.37 205.519 174.828C209.301 168.883 212.592 162.686 215.388 156.239C218.02 150.172 221.428 144.531 225.621 139.314C229.71 134.225 234.67 130.243 240.521 127.351ZM48.0528 23.1342L48.0167 23.1453C48.0355 23.1396 48.0562 23.1332 48.0786 23.1262L48.0528 23.1342Z" fill="white"/>
<path d="M104.806 2.19837C107.616 0.48485 110.679 -0.24689 113.906 0.0733729C117.085 0.388945 120.252 1.70632 123.38 3.79798C128.978 7.54156 134.806 10.8512 140.864 13.7277C147.365 16.8147 153.144 20.9684 158.188 26.1749C163.164 31.3104 167.4 36.9694 170.892 43.1476C174.158 48.926 177.964 54.1984 182.307 58.9718C186.731 63.8336 191.457 68.5132 196.489 73.0089C201.817 77.7697 206.372 83.3064 210.15 89.6056C213.595 95.348 217.94 100.184 223.194 104.135C228.684 108.263 233.853 111.763 238.7 114.642C241.099 116.067 243.08 117.062 244.664 117.673C246.298 118.304 247.26 118.426 247.722 118.39L251.348 118.065L251.628 118.122C253.129 118.036 254.593 118.093 256.016 118.303C257.29 118.49 258.572 118.859 259.659 119.568L267.471 104.378L304.695 108.967C306.282 109.163 307.41 110.608 307.215 112.194C307.019 113.781 305.574 114.909 303.987 114.713L270.772 110.618L263.012 125.708C262.711 126.295 262.234 126.731 261.68 126.994C261.566 127.311 261.44 127.623 261.302 127.926C260.696 129.252 259.799 130.651 258.685 132.11C254.517 137.574 250.277 142.938 245.966 148.2C241.717 153.386 237.572 158.804 233.533 164.451C229.939 169.476 228.806 174.962 230.121 181.117C231.68 188.418 231.583 195.013 229.599 200.775C229.125 202.153 228.485 203.401 227.681 204.502L245.188 224.092L303.996 217.035C305.583 216.845 307.025 217.977 307.216 219.565C307.406 221.152 306.273 222.593 304.686 222.783L242.882 230.2L223.26 208.243C220.569 209.605 217.35 210.085 213.785 209.906C206.784 209.555 201.119 208.476 197.049 206.463C195.288 205.592 194.026 205.005 193.224 204.674C193.112 204.627 193.012 204.591 192.927 204.558C192.87 204.557 192.813 204.557 192.755 204.553C192.063 204.505 191.541 204.242 191.162 203.938L190.975 203.96L189.861 203.57C189.635 203.62 189.302 203.709 188.843 203.858C187.736 204.216 186.158 204.828 184.075 205.721C179.271 207.78 173.209 208.453 166.08 207.98C158.944 207.505 151.972 206.107 145.17 203.788C138.314 201.451 132.262 198.182 127.045 193.961C122.11 189.969 116.967 185.775 111.614 181.382C106.605 177.271 101.14 174.616 95.199 173.364C88.9702 172.053 82.496 171.348 75.7732 171.255C68.4599 171.154 61.4358 169.542 54.7273 166.431C47.5989 163.125 43.0549 157.628 41.3318 150.103C40.4686 146.333 40.6413 142.781 42.2351 139.701C43.8288 136.622 46.6291 134.429 50.2058 132.953C57.0067 130.146 64.0221 129.415 71.1824 130.778C77.9456 132.067 84.5921 133.933 91.1199 136.378C95.6348 138.069 102.481 138.611 111.876 137.771C109.526 135.658 107.365 132.764 105.353 129.309C103 125.266 101.494 119.968 100.741 113.522C100.397 113.454 100.147 113.347 100.054 113.306C99.7183 113.157 99.4214 112.961 99.2429 112.839C98.8324 112.559 98.3121 112.152 97.7214 111.668C96.5157 110.68 94.768 109.162 92.4978 107.137C87.9343 103.066 83.3412 98.7658 78.7195 94.2365C75.577 91.1568 72.5533 86.5062 69.6091 80.4103C69.3963 80.4559 69.2302 80.4718 69.1433 80.4786C68.456 80.5323 67.7391 80.3884 67.2585 80.2785C66.1427 80.0232 64.55 79.5124 62.5652 78.8009C58.7795 77.4438 53.6339 76.0256 47.0847 74.5568C40.6131 73.1054 33.9319 72.0839 27.0398 71.4943C19.2061 70.8241 12.8842 67.3153 8.29174 61.0421C3.94496 55.1044 1.2323 48.6735 0.215567 41.7726C-0.317466 38.1544 0.0830781 34.7746 2.03686 32.1339C4.00325 29.4764 7.10779 28.1533 10.6921 27.7081C15.3511 27.1296 19.9399 27.6416 24.4353 29.1925C24.8687 26.3529 25.5602 23.9179 26.5876 21.9845C28.0956 19.1472 30.4677 17.1873 33.7273 17.0011C37.8324 16.7668 41.3074 16.8393 44.0798 17.2765C44.3261 17.3153 44.5548 17.3477 44.7654 17.3771L44.8035 16.8019L46.49 16.7374C54.0392 9.98672 61.8275 7.04562 69.5964 9.2638C76.1561 11.1367 82.7538 12.6966 89.3884 13.9454C94.3583 14.8809 99.3279 15.8073 104.296 16.7277C103.151 15.0998 102.288 13.5525 101.748 12.088C101.083 10.2845 100.816 8.37087 101.349 6.52162C101.898 4.61734 103.176 3.19282 104.806 2.19837ZM255.174 124.031C251.296 123.461 246.459 124.415 240.522 127.35C234.671 130.242 229.711 134.224 225.622 139.314C221.429 144.531 218.02 150.171 215.388 156.238C212.592 162.686 209.301 168.883 205.519 174.828C201.994 180.37 199.5 186.317 198.031 192.681C197.316 195.778 196.769 198.131 196.392 199.739C197.266 200.132 198.345 200.646 199.615 201.274C202.634 202.767 207.368 203.787 214.075 204.124C217.164 204.279 219.367 203.798 220.898 202.947C221.233 202.761 221.547 202.549 221.843 202.312C221.889 202.27 221.937 202.231 221.985 202.193C222.911 201.403 223.628 200.332 224.125 198.89C225.676 194.385 225.864 188.907 224.459 182.327C222.809 174.603 224.269 167.451 228.824 161.082C232.934 155.336 237.156 149.818 241.487 144.531C245.756 139.321 249.955 134.01 254.083 128.6C255.043 127.341 255.671 126.319 256.036 125.52C256.309 124.923 256.387 124.552 256.408 124.365C256.233 124.276 255.861 124.133 255.174 124.031ZM113.335 5.83412C111.41 5.64315 109.6 6.05664 107.821 7.14173C107.158 7.54642 106.979 7.89088 106.912 8.12513C106.828 8.4145 106.784 9.0097 107.18 10.0841C107.928 12.1121 109.911 14.9512 113.498 18.6486C119.12 20.329 124.05 23.2941 128.245 27.5314C133.033 32.3687 137.639 37.4469 142.06 42.7658C146.448 48.0443 149.396 51.2785 151.006 52.6749L153.658 54.9533L153.849 55.1193L154.01 55.3156L154.072 55.3908C155.084 56.628 154.902 58.4516 153.665 59.464C152.479 60.4336 150.756 60.3072 149.723 59.2072L147.222 57.0577L147.213 57.048C145.192 55.2949 141.956 51.6987 137.607 46.4669C133.291 41.2749 128.799 36.3208 124.131 31.6046C121.069 28.512 117.562 26.2385 113.581 24.7755C112.628 25.0592 111.555 24.8466 110.776 24.1183L110.705 24.0529L110.65 24.0001C110.59 23.9412 110.532 23.8802 110.472 23.8214C109.824 23.6596 109.163 23.5155 108.492 23.3917C101.769 22.1532 95.0439 20.9011 88.3171 19.6349C81.5059 18.3528 74.7356 16.7515 68.0066 14.8302C63.5839 13.5675 58.6286 14.6253 52.9724 18.8888C53.3368 19.0229 53.7482 19.1722 54.2097 19.3341C56.0782 19.9897 58.6027 20.8218 61.7937 21.8312C67.9796 23.7879 74.361 24.9943 80.9421 25.4503C87.9554 25.9363 94.7661 27.1604 101.37 29.1242C108.2 31.1551 114.301 34.6502 119.652 39.5783C124.643 44.175 132.253 50.894 142.495 59.7492C143.764 60.7211 144.005 62.5384 143.033 63.8077C142.061 65.0768 140.245 65.3183 138.975 64.3468L138.898 64.2872L138.831 64.2355L138.765 64.1788C128.484 55.29 120.8 48.505 115.73 43.8361C111.011 39.49 105.682 36.4458 99.7204 34.673C93.5328 32.833 87.141 31.684 80.5417 31.2267C73.5104 30.7395 66.677 29.4477 60.0476 27.3507C56.8312 26.3333 54.2425 25.4811 52.2927 24.797C50.4137 24.1377 48.9463 23.5721 48.1081 23.1271L48.0945 23.1212C48.0347 23.14 47.986 23.1548 47.9509 23.1642C47.4035 23.3114 46.8504 23.3335 46.4421 23.3312C45.5741 23.3262 44.4565 23.1968 43.1785 22.9952C40.9799 22.6485 37.963 22.5585 34.0574 22.7814C33.3116 22.824 32.5175 23.1658 31.7009 24.7023C30.9352 26.1432 30.3082 28.399 29.9519 31.6408C30.3094 31.8352 30.6671 32.0355 31.0232 32.2433C36.8828 35.6623 42.9951 38.1696 49.365 39.7745C55.8604 41.411 62.4808 42.5419 69.2253 43.1661C76.3835 43.8287 83.2074 45.4499 89.6853 48.0363C96.0398 50.5733 102.136 53.5956 107.974 57.1007C114.112 60.7857 121.581 68.008 130.343 78.4435L130.407 78.5177C131.436 79.7409 131.278 81.5666 130.055 82.5958C128.832 83.625 127.006 83.4676 125.976 82.2443L125.914 82.171L125.912 82.1691C117.224 71.8225 110.265 65.2279 104.995 62.0636C99.4246 58.7193 93.6063 55.8357 87.5388 53.4132C81.5948 51.04 75.3154 49.5439 68.6912 48.9308C61.6528 48.2794 54.7386 47.0989 47.9509 45.3888C41.0381 43.6471 34.421 40.9285 28.1052 37.2433C22.4974 33.9713 16.957 32.7638 11.405 33.4533C8.73375 33.7851 7.381 34.6459 6.69115 35.5783C5.98902 36.5275 5.53392 38.1447 5.94408 40.9288C6.81407 46.8335 9.13269 52.3904 12.9626 57.6222C16.5473 62.5188 21.3323 65.1962 27.5329 65.7267C34.6747 66.3376 41.6149 67.3966 48.3513 68.9074C54.714 70.3343 59.9311 71.7483 63.9626 73.1544L63.9568 73.1417L66.5066 73.3868C65.7439 71.5128 64.9852 69.5415 64.2312 67.4747L64.2117 67.424L64.196 67.3742L64.1667 67.2833C63.6739 65.7625 64.5072 64.1287 66.0281 63.6359C67.5488 63.1433 69.1807 63.9775 69.6736 65.4982L69.6785 65.5148C74.2601 78.0681 78.6774 86.0888 82.7722 90.1017C87.333 94.5712 91.8594 98.8093 96.3513 102.817C97.6271 103.955 98.7178 104.912 99.6238 105.694L100.214 106.064C100.144 103.78 100.145 101.386 100.214 98.8859C100.12 97.3209 101.295 95.9592 102.866 95.8292C104.459 95.6978 105.857 96.8827 105.989 98.4757L105.997 98.5714L106.01 98.7316L106.006 98.8927C105.63 112.036 107.237 121.037 110.357 126.397C113.808 132.325 116.908 134.974 119.421 135.641C121.284 136.135 122.832 136.63 123.904 137.146C124.382 137.376 125.11 137.766 125.664 138.403C125.964 138.75 126.372 139.35 126.476 140.192C126.591 141.117 126.29 141.927 125.858 142.506L125.782 142.609L125.697 142.704L125.459 142.971C125.31 143.26 125.113 143.532 124.862 143.767C123.695 144.859 121.863 144.797 120.771 143.63L120.705 143.561L119.862 142.659C106.504 144.564 96.1095 144.429 89.0896 141.8C82.8653 139.469 76.5355 137.691 70.0994 136.465C64.0603 135.315 58.188 135.921 52.4148 138.304C49.7046 139.422 48.1674 140.832 47.3757 142.361C46.5844 143.891 46.322 145.957 46.9753 148.811C48.2855 154.532 51.6032 158.601 57.1628 161.179C63.1426 163.952 69.3645 165.377 75.8523 165.466C82.9303 165.563 89.7789 166.306 96.3923 167.699C103.293 169.153 109.598 172.24 115.286 176.907C120.629 181.293 125.763 185.477 130.686 189.46C135.327 193.214 140.766 196.17 147.038 198.309C153.363 200.465 159.837 201.763 166.465 202.203C173.099 202.644 178.145 201.964 181.794 200.4C183.936 199.481 185.705 198.788 187.063 198.349C187.738 198.131 188.379 197.953 188.953 197.848C189.341 197.777 190.096 197.655 190.893 197.826C191.259 196.26 191.758 194.112 192.389 191.379C194.007 184.372 196.758 177.814 200.635 171.721C204.254 166.031 207.402 160.103 210.077 153.936C212.916 147.389 216.596 141.303 221.109 135.687C225.726 129.941 231.349 125.426 237.956 122.16C238.382 121.95 238.805 121.746 239.227 121.551C238.129 120.99 236.966 120.345 235.743 119.618C230.683 116.613 225.339 112.992 219.715 108.763C213.854 104.356 209.007 98.9565 205.184 92.5841C201.696 86.7685 197.512 81.6865 192.632 77.3263C187.455 72.701 182.585 67.8813 178.024 62.8683C173.383 57.767 169.326 52.1411 165.852 45.9962C162.605 40.2509 158.666 34.9876 154.031 30.2033C149.465 25.4899 144.252 21.7455 138.382 18.9581C132.068 15.9602 125.994 12.5103 120.162 8.61048C117.575 6.88087 115.308 6.03007 113.335 5.83412Z" fill="black"/>
</svg>
