<svg width="89" height="88" viewBox="0 0 89 88" fill="none" xmlns="http://www.w3.org/2000/svg">
<path d="M4.43823 3.48584H84.4382V83.4858H4.43823V3.48584Z" fill="#ECECEC"/>
<path d="M15.2559 3.09589L15.1479 0.0978386L15.2559 3.09589ZM74.6934 3.58186L74.4809 6.57433L74.6934 3.58186ZM75.4156 3.63315L75.6281 0.640688L75.4156 3.63315ZM76.1378 3.68444L75.9253 6.6769L76.1378 3.68444ZM85.0966 13.7681L88.0898 13.9707L85.0966 13.7681ZM85.0487 14.4758L82.0556 14.2733L85.0487 14.4758ZM85.0008 15.1835L87.994 15.3861L85.0008 15.1835ZM84.3362 33.9881L87.3362 33.9972L84.3362 33.9881ZM84.332 35.4035L81.332 35.3945L84.332 35.4035ZM84.8913 54.2081L81.8972 54.3953L84.8913 54.2081ZM84.9798 55.6235L87.974 55.4364L84.9798 55.6235ZM84.224 73.9041L87.1902 74.353L84.224 73.9041ZM84.1228 74.5724L81.1566 74.1235L84.1228 74.5724ZM84.0217 75.2406L86.9879 75.6895L84.0217 75.2406ZM73.2759 83.1506L72.9686 86.1348L73.2759 83.1506ZM71.8605 83.0048L72.1679 80.0206L71.8605 83.0048ZM53.0559 83.3812L52.6312 80.4115L53.0559 83.3812ZM51.6405 83.5837L52.0653 86.5535L51.6405 83.5837ZM32.8359 84.4951L32.9741 81.4983L32.8359 84.4951ZM32.1282 84.4625L31.9901 87.4593L32.1282 84.4625ZM31.4205 84.4298L31.5587 81.433L31.4205 84.4298ZM13.0709 82.5314L13.5556 79.5709L13.0709 82.5314ZM12.3974 82.4212L11.9126 85.3817L12.3974 82.4212ZM11.7239 82.3109L12.2087 79.3503L11.7239 82.3109ZM3.77533 71.4436L0.792112 71.1267L3.77533 71.4436ZM3.23362 11.8358L0.24003 12.0318L3.23362 11.8358ZM13.8405 3.14691L13.7325 0.14886L13.8405 3.14691ZM14.5482 3.1214L14.6563 6.11945L15.364 6.09394L15.2559 3.09589L15.1479 0.0978386L14.4402 0.123349L14.5482 3.1214ZM15.2559 3.09589L15.364 6.09394C21.5044 5.8726 27.6451 6.0432 33.7868 6.60595L34.0605 3.61846L34.3343 0.630976C27.9396 0.0450571 21.5439 -0.13272 15.1479 0.0978386L15.2559 3.09589ZM34.0605 3.61846L33.7868 6.60595L34.4945 6.67079L34.7682 3.68331L35.042 0.69582L34.3343 0.630976L34.0605 3.61846ZM34.7682 3.68331L34.4945 6.67079L35.2022 6.73564L35.4759 3.74815L35.7497 0.760664L35.042 0.69582L34.7682 3.68331ZM35.4759 3.74815L35.2022 6.73564C41.6454 7.326 48.0897 7.34888 54.5332 6.80422L54.2805 3.81488L54.0278 0.825539C47.9349 1.34057 41.8429 1.31896 35.7497 0.760664L35.4759 3.74815ZM54.2805 3.81488L54.5332 6.80422L55.2409 6.7444L54.9882 3.75506L54.7355 0.765717L54.0278 0.825539L54.2805 3.81488ZM54.9882 3.75506L55.2409 6.7444L55.9486 6.68457L55.6959 3.69524L55.4432 0.705896L54.7355 0.765717L54.9882 3.75506ZM55.6959 3.69524L55.9486 6.68457C62.0591 6.16806 68.236 6.13085 74.4809 6.57433L74.6934 3.58186L74.9059 0.5894C68.3572 0.124347 61.8692 0.162717 55.4432 0.705896L55.6959 3.69524ZM74.6934 3.58186L74.4809 6.57433L75.2031 6.62562L75.4156 3.63315L75.6281 0.640688L74.9059 0.5894L74.6934 3.58186ZM75.4156 3.63315L75.2031 6.62562L75.9253 6.6769L76.1378 3.68444L76.3503 0.691976L75.6281 0.640688L75.4156 3.63315ZM76.1378 3.68444L75.9253 6.6769C78.6768 6.8723 80.1463 7.65378 80.9324 8.5386C81.708 9.4116 82.2832 10.9094 82.1035 13.5656L85.0966 13.7681L88.0898 13.9707C88.3343 10.3587 87.6285 7.04176 85.4178 4.55353C83.2177 2.07711 79.9956 0.950842 76.3503 0.691976L76.1378 3.68444ZM85.0966 13.7681L82.1035 13.5656L82.0556 14.2733L85.0487 14.4758L88.0419 14.6784L88.0898 13.9707L85.0966 13.7681ZM85.0487 14.4758L82.0556 14.2733L82.0077 14.981L85.0008 15.1835L87.994 15.3861L88.0419 14.6784L85.0487 14.4758ZM85.0008 15.1835L82.0077 14.981C81.5791 21.3134 81.3553 27.6462 81.3362 33.9791L84.3362 33.9881L87.3362 33.9972C87.3549 27.7937 87.5741 21.59 87.994 15.3861L85.0008 15.1835ZM84.3362 33.9881L81.3362 33.9791L81.3341 34.6868L84.3341 34.6958L87.3341 34.7049L87.3362 33.9972L84.3362 33.9881ZM84.3341 34.6958L81.3341 34.6868L81.332 35.3945L84.332 35.4035L87.332 35.4126L87.3341 34.7049L84.3341 34.6958ZM84.332 35.4035L81.332 35.3945C81.3129 41.7283 81.5013 48.0619 81.8972 54.3953L84.8913 54.2081L87.8855 54.021C87.4978 47.818 87.3133 41.6152 87.332 35.4126L84.332 35.4035ZM84.8913 54.2081L81.8972 54.3953L81.9414 55.103L84.9356 54.9158L87.9297 54.7287L87.8855 54.021L84.8913 54.2081ZM84.9356 54.9158L81.9414 55.103L81.9856 55.8107L84.9798 55.6235L87.974 55.4364L87.9297 54.7287L84.9356 54.9158ZM84.9798 55.6235L81.9856 55.8107C82.3648 61.8769 82.12 67.7569 81.2577 73.4553L84.224 73.9041L87.1902 74.353C88.1192 68.2137 88.3783 61.9066 87.974 55.4364L84.9798 55.6235ZM84.224 73.9041L81.2577 73.4553L81.1566 74.1235L84.1228 74.5724L87.0891 75.0212L87.1902 74.353L84.224 73.9041ZM84.1228 74.5724L81.1566 74.1235L81.0555 74.7918L84.0217 75.2406L86.9879 75.6895L87.0891 75.0212L84.1228 74.5724ZM84.0217 75.2406L81.0555 74.7918C80.6844 77.2443 79.8376 78.5401 78.8851 79.2412C77.9044 79.9632 76.2836 80.4445 73.5833 80.1664L73.2759 83.1506L72.9686 86.1348C76.5365 86.5023 79.8408 85.988 82.442 84.0733C85.0714 82.1378 86.4634 79.1558 86.9879 75.6895L84.0217 75.2406ZM73.2759 83.1506L73.5833 80.1664L72.8756 80.0935L72.5682 83.0777L72.2609 86.0619L72.9686 86.1348L73.2759 83.1506ZM72.5682 83.0777L72.8756 80.0935L72.1679 80.0206L71.8605 83.0048L71.5532 85.989L72.2609 86.0619L72.5682 83.0777ZM71.8605 83.0048L72.1679 80.0206C65.6548 79.3498 59.1407 79.4804 52.6312 80.4115L53.0559 83.3812L53.4807 86.351C59.5076 85.489 65.5299 85.3687 71.5532 85.989L71.8605 83.0048ZM53.0559 83.3812L52.6312 80.4115L51.9235 80.5127L52.3482 83.4825L52.773 86.4522L53.4807 86.351L53.0559 83.3812ZM52.3482 83.4825L51.9235 80.5127L51.2158 80.6139L51.6405 83.5837L52.0653 86.5535L52.773 86.4522L52.3482 83.4825ZM51.6405 83.5837L51.2158 80.6139C45.1322 81.484 39.0525 81.7784 32.9741 81.4983L32.8359 84.4951L32.6978 87.4919C39.1558 87.7895 45.6124 87.4764 52.0653 86.5535L51.6405 83.5837ZM32.8359 84.4951L32.9741 81.4983L32.2664 81.4656L32.1282 84.4625L31.9901 87.4593L32.6978 87.4919L32.8359 84.4951ZM32.1282 84.4625L32.2664 81.4656L31.5587 81.433L31.4205 84.4298L31.2824 87.4267L31.9901 87.4593L32.1282 84.4625ZM31.4205 84.4298L31.5587 81.433C25.4022 81.1493 19.4015 80.5281 13.5556 79.5709L13.0709 82.5314L12.5861 85.492C18.67 86.4882 24.9025 87.1326 31.2824 87.4267L31.4205 84.4298ZM13.0709 82.5314L13.5556 79.5709L12.8822 79.4606L12.3974 82.4212L11.9126 85.3817L12.5861 85.492L13.0709 82.5314ZM12.3974 82.4212L12.8822 79.4606L12.2087 79.3503L11.7239 82.3109L11.2392 85.2715L11.9126 85.3817L12.3974 82.4212ZM11.7239 82.3109L12.2087 79.3503C9.72632 78.9439 8.40206 78.0715 7.68452 77.0905C6.95043 76.0868 6.47256 74.4527 6.75854 71.7604L3.77533 71.4436L0.792112 71.1267C0.412257 74.7026 0.926231 78.0138 2.84168 80.6326C4.77368 83.274 7.75665 84.7012 11.2392 85.2715L11.7239 82.3109ZM3.77533 71.4436L6.75854 71.7604L6.83372 71.0527L3.8505 70.7358L0.867288 70.419L0.792112 71.1267L3.77533 71.4436ZM3.8505 70.7358L6.83372 71.0527L6.9089 70.345L3.92568 70.0282L0.942464 69.7113L0.867288 70.419L3.8505 70.7358ZM3.92568 70.0282L6.9089 70.345C7.58886 63.9439 7.8376 57.5412 7.65478 51.1379L4.656 51.2235L1.65722 51.3092C1.83233 57.4423 1.59418 63.576 0.942464 69.7113L3.92568 70.0282ZM4.656 51.2235L7.65478 51.1379L7.63457 50.4302L4.63579 50.5159L1.63702 50.6015L1.65722 51.3092L4.656 51.2235ZM4.63579 50.5159L7.63457 50.4302L7.61437 49.7225L4.61559 49.8081L1.61681 49.8938L1.63702 50.6015L4.63579 50.5159ZM4.61559 49.8081L7.61437 49.7225C7.43542 43.4548 7.25807 37.1871 7.08232 30.9195L4.0835 31.0035L1.08467 31.0876C1.26045 37.3563 1.43783 43.6251 1.61681 49.8938L4.61559 49.8081ZM4.0835 31.0035L7.08232 30.9195L7.06247 30.2118L4.06365 30.2958L1.06483 30.3799L1.08467 31.0876L4.0835 31.0035ZM4.06365 30.2958L7.06247 30.2118L7.04263 29.5041L4.04381 29.5882L1.04499 29.6722L1.06483 30.3799L4.06365 30.2958ZM4.04381 29.5882L7.04263 29.5041C6.86602 23.2059 6.6072 17.4454 6.26548 12.2244L3.27188 12.4203L0.278287 12.6163C0.614262 17.7493 0.870059 23.434 1.04499 29.6722L4.04381 29.5882ZM3.27188 12.4203L6.26548 12.2244L6.22722 11.6399L3.23362 11.8358L0.24003 12.0318L0.278287 12.6163L3.27188 12.4203ZM3.23362 11.8358L6.22722 11.6399L6.18896 11.0554L3.19537 11.2513L0.201773 11.4473L0.24003 12.0318L3.23362 11.8358ZM3.19537 11.2513L6.18896 11.0554C6.02104 8.48981 5.97083 6.67655 6.0154 5.54534C6.02624 5.27035 6.04188 5.05939 6.05888 4.90386C6.07678 4.74007 6.09153 4.68189 6.08792 4.69639C6.08545 4.70631 6.07151 4.76139 6.03848 4.8463C6.00762 4.92564 5.93977 5.08409 5.81244 5.27454C5.57012 5.63699 4.82705 6.48584 3.50137 6.48584V3.48584V0.48584C2.03998 0.48584 1.17497 1.41558 0.824494 1.93981C0.488357 2.44259 0.338968 2.95253 0.265863 3.24598C0.108866 3.87618 0.0475864 4.61045 0.0200562 5.30909C-0.0373693 6.76639 0.0308475 8.83587 0.201773 11.4473L3.19537 11.2513ZM3.50137 3.48584V6.48584H3.56266V3.48584V0.48584H3.50137V3.48584ZM3.56266 3.48584V6.48584H3.62395V3.48584V0.48584H3.56266V3.48584ZM3.62395 3.48584V6.48584C4.23796 6.48584 7.7304 6.36911 13.9486 6.14497L13.8405 3.14691L13.7325 0.14886C7.41426 0.376614 4.09565 0.48584 3.62395 0.48584V3.48584ZM13.8405 3.14691L13.9486 6.14497L14.6563 6.11945L14.5482 3.1214L14.4402 0.123349L13.7325 0.14886L13.8405 3.14691Z" fill="black"/>
</svg>
