<svg width="202" height="417" viewBox="0 0 202 417" fill="none" xmlns="http://www.w3.org/2000/svg">
<g filter="url(#filter0_i_54_18)">
<path d="M134.961 146.132C140.96 23.7314 109.769 10.0228 111.209 3.44609C103.85 -4.34857 79.0203 3.73917 75.2127 20.9977C61.8966 81.3545 88.1605 89.2638 37.492 76.6296C-37.5473 57.9184 28.5016 176.799 46.6581 237.208C61.7753 231.849 109.325 286.587 118.348 286.587C129.626 286.587 128.962 268.533 134.961 146.132Z" fill="#B2C7A7"/>
</g>
<path d="M133.54 413.19C133.694 414.839 132.482 416.302 130.832 416.456C129.183 416.611 127.72 415.398 127.566 413.749L130.553 413.469L133.54 413.19ZM130.544 413.37L133.518 412.979L133.525 413.034L133.531 413.09L130.544 413.37ZM132.856 368.034L129.951 367.284L132.856 368.034ZM136.775 341.794L133.847 341.142L136.775 341.794ZM140.666 329.09L143.458 330.188L140.666 329.09ZM144.448 316.372L147.386 316.976L144.448 316.372ZM150.235 290.473L152.755 292.101L150.235 290.473ZM155.248 278.107L158.194 278.67V278.67L155.248 278.107ZM159.201 265.47L156.459 264.254L159.201 265.47ZM162.468 252.592L165.457 252.84L162.468 252.592ZM170.41 227.295L167.63 226.167L170.41 227.295ZM175.825 215.151L173.128 213.837L175.825 215.151ZM178.999 202.172L181.997 202.282L178.999 202.172ZM189.653 177.927L192.577 178.601L189.653 177.927ZM193.742 165.218L196.51 166.374L193.742 165.218ZM195.633 152.225L198.617 151.92L195.633 152.225ZM179.972 75.9978L182.806 75.0129L179.972 75.9978ZM173.99 64.2046L176.457 62.4977L173.99 64.2046ZM164.177 55.5685L162.783 58.2246L164.177 55.5685ZM154.832 46.3346L157.465 44.8955L154.832 46.3346ZM146.551 35.8256L144.551 38.0614L146.551 35.8256ZM136.552 27.018L138.518 24.7516L136.552 27.018ZM112.464 3.06716L111.408 0.258964L111.501 0.223984L111.596 0.195243L112.464 3.06716ZM111.286 3.50986L112.341 6.31805L110.713 6.93006L109.373 5.82092L111.286 3.50986ZM109.296 5.75715C108.02 4.70072 107.841 2.80961 108.898 1.53324C109.954 0.256879 111.845 0.0785948 113.122 1.13503L111.209 3.44609L109.296 5.75715ZM114.188 9.28078L111.516 10.645L114.188 9.28078ZM125.233 33.1094L128.224 32.8876L125.233 33.1094ZM135.108 111.733L132.154 112.255L135.108 111.733ZM134.761 124.909L131.837 124.241L134.761 124.909ZM134.588 138.203L131.646 138.79L134.588 138.203ZM134.37 164.812L131.373 164.686L134.37 164.812ZM132.557 178.018L135.479 178.701L132.557 178.018ZM133.979 204.614L136.951 205.022L133.979 204.614ZM132.667 217.834L135.662 218.018L132.667 217.834ZM130.445 230.994L133.335 231.797L130.445 230.994ZM129.48 244.223L132.456 243.845L129.48 244.223ZM128.916 257.449L131.848 258.085L128.916 257.449ZM126.838 270.537L123.853 270.235L126.838 270.537ZM112.783 284.567L114.434 282.062L112.783 284.567ZM82.3002 258.251L84.434 256.142L82.3002 258.251ZM62.3815 240.345L63.9667 237.798L62.3815 240.345ZM52.1541 234.811L53.351 232.06L52.1541 234.811ZM45.5112 226.575L42.6791 227.565L45.5112 226.575ZM32.8732 202.91L35.8024 202.262L32.8732 202.91ZM29.2959 190.067L26.4541 191.028L29.2959 190.067ZM20.5845 165.001L23.4923 164.263L20.5845 165.001ZM15.3394 152.778L12.7964 154.37L15.3394 152.778ZM8.10612 127.322L10.96 126.398L8.10612 127.322ZM3.92227 88.0094L6.90952 88.2858L3.92227 88.0094ZM10.8301 78.1181L9.53606 75.4115L10.8301 78.1181ZM23.7997 74.7167L23.6193 71.7221L23.7997 74.7167ZM62.6101 80.0936L62.8121 83.0867L62.6101 80.0936ZM68.9885 73.263L65.9893 73.1945L68.9885 73.263ZM82.9075 10.7136L84.7722 13.0637L82.9075 10.7136ZM110.889 3.74764L112.949 5.92911L110.889 3.74764ZM130.553 413.469L127.566 413.749L127.557 413.649L130.544 413.37L133.531 413.09L133.54 413.19L130.553 413.469ZM130.544 413.37L127.569 413.76C126.46 405.322 125.6 398.875 124.988 394.415L127.96 394.007L130.932 393.599C131.547 398.076 132.409 404.537 133.518 412.979L130.544 413.37ZM127.96 394.007L124.988 394.415C124.313 389.5 124.74 384.667 126.267 379.95L129.121 380.874L131.975 381.798C130.727 385.655 130.38 389.578 130.932 393.599L127.96 394.007ZM129.121 380.874L126.267 379.95C127.636 375.72 128.864 371.498 129.951 367.284L132.856 368.034L135.76 368.783C134.643 373.116 133.381 377.454 131.975 381.798L129.121 380.874ZM132.856 368.034L129.951 367.284C131.005 363.198 131.663 359.026 131.926 354.765L134.92 354.95L137.914 355.134C137.629 359.772 136.911 364.323 135.76 368.783L132.856 368.034ZM134.92 354.95L131.926 354.765C132.209 350.159 132.85 345.618 133.847 341.142L136.775 341.794L139.704 342.447C138.775 346.612 138.179 350.841 137.914 355.134L134.92 354.95ZM136.775 341.794L133.847 341.142C134.844 336.668 136.187 332.285 137.874 327.993L140.666 329.09L143.458 330.188C141.884 334.193 140.633 338.278 139.704 342.447L136.775 341.794ZM140.666 329.09L137.874 327.993C139.442 324.003 140.653 319.928 141.509 315.767L144.448 316.372L147.386 316.976C146.461 321.476 145.151 325.881 143.458 330.188L140.666 329.09ZM144.448 316.372L141.509 315.767C142.368 311.59 142.91 307.313 143.132 302.935L146.128 303.087L149.124 303.239C148.887 307.913 148.308 312.493 147.386 316.976L144.448 316.372ZM146.128 303.087L143.132 302.935C143.389 297.873 144.928 293.161 147.715 288.845L150.235 290.473L152.755 292.101C150.526 295.551 149.327 299.249 149.124 303.239L146.128 303.087ZM150.235 290.473L147.715 288.845C150.023 285.272 151.543 281.51 152.301 277.544L155.248 278.107L158.194 278.67C157.285 283.426 155.464 287.907 152.755 292.101L150.235 290.473ZM155.248 278.107L152.301 277.544C153.177 272.958 154.564 268.527 156.459 264.254L159.201 265.47L161.944 266.686C160.234 270.542 158.985 274.535 158.194 278.67L155.248 278.107ZM159.201 265.47L156.459 264.254C158.122 260.502 159.13 256.537 159.478 252.344L162.468 252.592L165.457 252.84C165.055 257.688 163.885 262.309 161.944 266.686L159.201 265.47ZM162.468 252.592L159.478 252.344C159.877 247.537 160.943 242.928 162.681 238.528L165.471 239.63L168.262 240.732C166.745 244.572 165.809 248.605 165.457 252.84L162.468 252.592ZM165.471 239.63L162.681 238.528C164.312 234.398 165.962 230.278 167.63 226.167L170.41 227.295L173.19 228.424C171.528 232.517 169.885 236.62 168.262 240.732L165.471 239.63ZM170.41 227.295L167.63 226.167C169.321 222.002 171.154 217.892 173.128 213.837L175.825 215.151L178.522 216.464C176.607 220.398 174.83 224.384 173.19 228.424L170.41 227.295ZM175.825 215.151L173.128 213.837C174.881 210.238 175.845 206.324 176.002 202.062L178.999 202.172L181.997 202.282C181.811 207.337 180.659 212.076 178.522 216.464L175.825 215.151ZM178.999 202.172L176.002 202.062C176.197 196.744 178.006 191.991 181.393 187.9L183.704 189.814L186.014 191.727C183.472 194.796 182.145 198.282 181.997 202.282L178.999 202.172ZM183.704 189.814L181.393 187.9C184.073 184.664 185.838 181.123 186.73 177.253L189.653 177.927L192.577 178.601C191.466 183.42 189.264 187.803 186.014 191.727L183.704 189.814ZM189.653 177.927L186.73 177.253C187.769 172.744 189.184 168.346 190.973 164.062L193.742 165.218L196.51 166.374C194.851 170.347 193.54 174.423 192.577 178.601L189.653 177.927ZM193.742 165.218L190.973 164.062C192.501 160.404 193.062 156.576 192.648 152.53L195.633 152.225L198.617 151.92C199.131 156.941 198.431 161.775 196.51 166.374L193.742 165.218ZM195.633 152.225L192.648 152.53C192.137 147.525 192.787 142.606 194.578 137.804L197.389 138.853L200.199 139.901C198.722 143.862 198.202 147.857 198.617 151.92L195.633 152.225ZM197.389 138.853L194.578 137.804C196.026 133.922 196.353 130.078 195.598 126.212L198.543 125.637L201.487 125.062C202.462 130.055 202.02 135.022 200.199 139.901L197.389 138.853ZM198.543 125.637L195.598 126.212C194.744 121.838 193.773 117.522 192.686 113.263L195.593 112.521L198.5 111.779C199.616 116.15 200.611 120.577 201.487 125.062L198.543 125.637ZM195.593 112.521L192.686 113.263C191.592 108.98 190.431 104.717 189.201 100.475L192.082 99.6396L194.963 98.8041C196.211 103.108 197.39 107.433 198.5 111.779L195.593 112.521ZM192.082 99.6396L189.201 100.475C188.062 96.5484 186.26 92.9132 183.783 89.557L186.196 87.7753L188.61 85.9935C191.502 89.9109 193.624 94.1852 194.963 98.8041L192.082 99.6396ZM186.196 87.7753L183.783 89.557C180.921 85.6805 178.704 81.4865 177.138 76.9826L179.972 75.9978L182.806 75.0129C184.17 78.9388 186.102 82.5965 188.61 85.9935L186.196 87.7753ZM179.972 75.9978L177.138 76.9826C175.762 73.0223 173.891 69.3343 171.522 65.9115L173.99 64.2046L176.457 62.4977C179.135 66.3693 181.252 70.5435 182.806 75.0129L179.972 75.9978ZM173.99 64.2046L171.522 65.9115C169.281 62.6721 166.382 60.115 162.783 58.2246L164.177 55.5685L165.572 52.9125C170.009 55.2424 173.651 58.4427 176.457 62.4977L173.99 64.2046ZM164.177 55.5685L162.783 58.2246C158.232 55.8349 154.691 52.3294 152.2 47.7737L154.832 46.3346L157.465 44.8955C159.398 48.4314 162.086 51.0819 165.572 52.9125L164.177 55.5685ZM154.832 46.3346L152.2 47.7737C150.146 44.0158 147.596 40.7853 144.551 38.0614L146.551 35.8256L148.552 33.5897C152.125 36.7863 155.096 40.5618 157.465 44.8955L154.832 46.3346ZM146.551 35.8256L144.551 38.0614C141.254 35.1115 137.932 32.1858 134.587 29.2843L136.552 27.018L138.518 24.7516C141.887 27.6732 145.231 30.6192 148.552 33.5897L146.551 35.8256ZM136.552 27.018L134.587 29.2843C131.049 26.2156 127.913 22.7603 125.183 18.9229L127.628 17.1839L130.073 15.4449C132.528 18.8965 135.342 21.9972 138.518 24.7516L136.552 27.018ZM127.628 17.1839L125.183 18.9229C122.719 15.458 119.899 12.295 116.721 9.43141L118.729 7.20268L120.737 4.97396C124.239 8.12963 127.352 11.6208 130.073 15.4449L127.628 17.1839ZM118.729 7.20268L116.721 9.43141C115.089 7.96139 113.862 6.98136 113.005 6.4153C112.57 6.12822 112.329 6.01448 112.248 5.98327C112.068 5.91398 112.565 6.17037 113.331 5.93907L112.464 3.06716L111.596 0.195243C112.781 -0.162365 113.852 0.171608 114.404 0.383781C115.054 0.634048 115.701 1.00567 116.31 1.40784C117.541 2.22029 119.028 3.43434 120.737 4.97396L118.729 7.20268ZM112.464 3.06716L113.519 5.87535L112.341 6.31805L111.286 3.50986L110.23 0.701661L111.408 0.258964L112.464 3.06716ZM111.286 3.50986L109.373 5.82092L109.296 5.75715L111.209 3.44609L113.122 1.13503L113.199 1.19879L111.286 3.50986ZM114.188 9.28078L116.86 7.91658C118.788 11.6933 120.978 15.3908 123.43 19.0092L120.946 20.6922L118.463 22.3752C115.876 18.558 113.56 14.6479 111.516 10.645L114.188 9.28078ZM120.946 20.6922L123.43 19.0092C126.249 23.1694 127.848 27.8141 128.224 32.8876L125.233 33.1094L122.241 33.3312C121.941 29.284 120.682 25.6505 118.463 22.3752L120.946 20.6922ZM125.233 33.1094L128.224 32.8876C128.552 37.306 129.183 41.5639 130.115 45.6635L127.189 46.3284L124.264 46.9932C123.263 42.5882 122.59 38.0335 122.241 33.3312L125.233 33.1094ZM127.189 46.3284L130.115 45.6635C131.07 49.8668 132.138 54.077 133.319 58.2942L130.43 59.1032L127.542 59.9123C126.334 55.601 125.242 51.2947 124.264 46.9932L127.189 46.3284ZM130.43 59.1032L133.319 58.2942C134.576 62.7801 135.303 67.3453 135.499 71.9855L132.502 72.1125L129.505 72.2395C129.328 68.0625 128.674 63.9549 127.542 59.9123L130.43 59.1032ZM132.502 72.1125L135.499 71.9855C135.683 76.3225 136.022 80.6422 136.515 84.9447L133.535 85.2864L130.554 85.6282C130.044 81.1827 129.695 76.7197 129.505 72.2395L132.502 72.1125ZM133.535 85.2864L136.515 84.9447C137.033 89.4587 137.233 94.0037 137.115 98.5787L134.116 98.5018L131.117 98.425C131.227 94.1274 131.04 89.8622 130.554 85.6282L133.535 85.2864ZM134.116 98.5018L137.115 98.5787C137.007 102.814 137.322 107.023 138.062 111.211L135.108 111.733L132.154 112.255C131.344 107.674 130.999 103.063 131.117 98.425L134.116 98.5018ZM135.108 111.733L138.062 111.211C138.908 115.996 138.78 120.793 137.686 125.578L134.761 124.909L131.837 124.241C132.755 120.226 132.858 116.239 132.154 112.255L135.108 111.733ZM134.761 124.909L137.686 125.578C136.775 129.561 136.722 133.565 137.53 137.616L134.588 138.203L131.646 138.79C130.674 133.916 130.736 129.056 131.837 124.241L134.761 124.909ZM134.588 138.203L137.53 137.616C138.477 142.36 138.727 147.097 138.273 151.819L135.287 151.532L132.301 151.245C132.697 147.121 132.481 142.973 131.646 138.79L134.588 138.203ZM135.287 151.532L138.273 151.819C137.854 156.188 137.552 160.561 137.368 164.938L134.37 164.812L131.373 164.686C131.562 160.201 131.871 155.721 132.301 151.245L135.287 151.532ZM134.37 164.812L137.368 164.938C137.173 169.559 136.543 174.147 135.479 178.701L132.557 178.018L129.636 177.336C130.616 173.142 131.194 168.927 131.373 164.686L134.37 164.812ZM132.557 178.018L135.479 178.701C134.578 182.557 134.687 186.464 135.837 190.473L132.954 191.301L130.07 192.128C128.648 187.175 128.493 182.227 129.636 177.336L132.557 178.018ZM132.954 191.301L135.837 190.473C137.233 195.335 137.613 200.193 136.951 205.022L133.979 204.614L131.006 204.206C131.55 200.247 131.247 196.229 130.07 192.128L132.954 191.301ZM133.979 204.614L136.951 205.022C136.358 209.342 135.928 213.674 135.662 218.018L132.667 217.834L129.673 217.65C129.949 213.156 130.393 208.675 131.006 204.206L133.979 204.614ZM132.667 217.834L135.662 218.018C135.377 222.651 134.601 227.245 133.335 231.797L130.445 230.994L127.554 230.19C128.71 226.034 129.415 221.855 129.673 217.65L132.667 217.834ZM130.445 230.994L133.335 231.797C132.231 235.769 131.939 239.777 132.456 243.845L129.48 244.223L126.504 244.601C125.886 239.738 126.237 234.927 127.554 230.19L130.445 230.994ZM129.48 244.223L132.456 243.845C133.066 248.645 132.865 253.396 131.848 258.085L128.916 257.449L125.985 256.814C126.855 252.799 127.029 248.733 126.504 244.601L129.48 244.223ZM128.916 257.449L131.848 258.085C130.929 262.328 130.254 266.579 129.823 270.839L126.838 270.537L123.853 270.235C124.307 265.748 125.018 261.274 125.985 256.814L128.916 257.449ZM126.838 270.537L129.823 270.839C129.331 275.704 127.703 280.246 124.974 284.434L122.461 282.797L119.947 281.159C122.17 277.747 123.461 274.116 123.853 270.235L126.838 270.537ZM122.461 282.797L124.974 284.434C123.464 286.753 121.419 288.547 118.724 289.04C116.067 289.527 113.476 288.616 111.133 287.072L112.783 284.567L114.434 282.062C116.066 283.138 117.076 283.242 117.645 283.138C118.175 283.041 118.982 282.641 119.947 281.159L122.461 282.797ZM112.783 284.567L111.133 287.072C106.907 284.288 103.28 281.005 100.274 277.218L102.624 275.353L104.974 273.488C107.562 276.748 110.708 279.607 114.434 282.062L112.783 284.567ZM102.624 275.353L100.274 277.218C97.6925 273.966 94.6459 271.255 91.1234 269.076L92.702 266.524L94.2806 263.973C98.3937 266.518 101.962 269.693 104.974 273.488L102.624 275.353ZM92.702 266.524L91.1234 269.076C87.1063 266.59 83.4522 263.684 80.1665 260.359L82.3002 258.251L84.434 256.142C87.3817 259.124 90.6621 261.734 94.2806 263.973L92.702 266.524ZM82.3002 258.251L80.1665 260.359C77.0495 257.206 73.9149 254.033 70.7626 250.842L72.8969 248.733L75.0313 246.625C78.1832 249.816 81.3175 252.988 84.434 256.142L82.3002 258.251ZM72.8969 248.733L70.7626 250.842C67.7779 247.82 64.4575 245.17 60.7964 242.892L62.3815 240.345L63.9667 237.798C68.0218 240.322 71.7118 243.264 75.0313 246.625L72.8969 248.733ZM62.3815 240.345L60.7964 242.892C57.0167 240.539 53.7414 238.773 50.9573 237.562L52.1541 234.811L53.351 232.06C56.4871 233.425 60.0301 235.348 63.9667 237.798L62.3815 240.345ZM52.1541 234.811L50.9573 237.562C46.9744 235.829 44.3154 232.248 42.6791 227.565L45.5112 226.575L48.3433 225.585C49.644 229.308 51.4137 231.217 53.351 232.06L52.1541 234.811ZM45.5112 226.575L42.6791 227.565C41.3349 223.717 39.2868 220.126 36.508 216.783L38.8151 214.865L41.1221 212.947C44.3346 216.812 46.7505 221.027 48.3433 225.585L45.5112 226.575ZM38.8151 214.865L36.508 216.783C33.2219 212.829 31.0179 208.413 29.944 203.557L32.8732 202.91L35.8024 202.262C36.6599 206.139 38.4171 209.693 41.1221 212.947L38.8151 214.865ZM32.8732 202.91L29.944 203.557C29.0015 199.296 27.8382 195.12 26.4541 191.028L29.2959 190.067L32.1377 189.105C33.5921 193.405 34.8136 197.79 35.8024 202.262L32.8732 202.91ZM29.2959 190.067L26.4541 191.028C25.0527 186.885 23.5388 182.788 21.9125 178.737L24.6965 177.619L27.4805 176.502C29.1483 180.656 30.7008 184.857 32.1377 189.105L29.2959 190.067ZM24.6965 177.619L21.9125 178.737C20.2155 174.51 18.8036 170.178 17.6768 165.739L20.5845 165.001L23.4923 164.263C24.5539 168.444 25.8833 172.524 27.4805 176.502L24.6965 177.619ZM20.5845 165.001L17.6768 165.739C16.6606 161.737 15.0369 157.95 12.7964 154.37L15.3394 152.778L17.8825 151.187C20.447 155.284 22.32 159.646 23.4923 164.263L20.5845 165.001ZM15.3394 152.778L12.7964 154.37C10.1606 150.158 8.54417 145.582 7.96172 140.672L10.9408 140.319L13.9199 139.965C14.3973 143.99 15.7134 147.72 17.8825 151.187L15.3394 152.778ZM10.9408 140.319L7.96172 140.672C7.45435 136.395 6.55064 132.254 5.2522 128.247L8.10612 127.322L10.96 126.398C12.3813 130.784 13.3674 135.308 13.9199 139.965L10.9408 140.319ZM8.10612 127.322L5.2522 128.247C3.87262 123.989 2.62758 119.683 1.51707 115.328L4.42406 114.587L7.33104 113.845C8.41022 118.078 9.61989 122.262 10.96 126.398L8.10612 127.322ZM4.42406 114.587L1.51707 115.328C0.351273 110.756 -0.143219 106.114 0.0353088 101.411L3.03314 101.525L6.03099 101.638C5.87439 105.764 6.30717 109.83 7.33104 113.845L4.42406 114.587ZM3.03314 101.525L0.0353088 101.411C0.205017 96.9397 0.505051 92.3804 0.935028 87.733L3.92227 88.0094L6.90952 88.2858C6.48911 92.8297 6.1964 97.2805 6.03099 101.638L3.03314 101.525ZM3.92227 88.0094L0.935028 87.733C1.45798 82.0807 4.40778 77.8634 9.53606 75.4115L10.8301 78.1181L12.1241 80.8247C8.89235 82.3698 7.23694 84.7467 6.90952 88.2858L3.92227 88.0094ZM10.8301 78.1181L9.53606 75.4115C14.0526 73.2521 18.7529 72.0153 23.6193 71.7221L23.7997 74.7167L23.9802 77.7113C19.9138 77.9563 15.9676 78.9871 12.1241 80.8247L10.8301 78.1181ZM23.7997 74.7167L23.6193 71.7221C28.3077 71.4397 32.9769 71.6768 37.623 72.433L37.1412 75.394L36.6593 78.355C32.4497 77.67 28.2247 77.4556 23.9802 77.7113L23.7997 74.7167ZM37.1412 75.394L37.623 72.433C42.1955 73.1771 46.6539 74.2451 50.9967 75.6378L50.0806 78.4945L49.1645 81.3512C45.1105 80.0511 40.9426 79.0521 36.6593 78.355L37.1412 75.394ZM50.0806 78.4945L50.9967 75.6378C54.8559 76.8754 58.6534 77.3537 62.4082 77.1004L62.6101 80.0936L62.8121 83.0867C58.2577 83.3941 53.7022 82.8064 49.1645 81.3512L50.0806 78.4945ZM62.6101 80.0936L62.4082 77.1004C63.9872 76.9938 64.7392 76.5445 65.128 76.1281C65.5277 75.7001 65.951 74.8703 65.9893 73.1945L68.9885 73.263L71.9878 73.3316C71.9284 75.9291 71.2397 78.3744 69.5133 80.2232C67.776 82.0837 65.3876 82.9129 62.8121 83.0867L62.6101 80.0936ZM68.9885 73.263L65.9893 73.1945C66.0924 68.688 66.7188 64.1281 67.8592 59.5187L70.7714 60.2392L73.6836 60.9597C72.6423 65.1688 72.0801 69.2914 71.9878 73.3316L68.9885 73.263ZM70.7714 60.2392L67.8592 59.5187C68.9239 55.2154 69.7296 50.9537 70.278 46.7332L73.253 47.1197L76.228 47.5062C75.6493 51.96 74.8006 56.4447 73.6836 60.9597L70.7714 60.2392ZM73.253 47.1197L70.278 46.7332C70.8088 42.6471 70.8334 38.4526 70.3438 34.1436L73.3246 33.805L76.3054 33.4663C76.8473 38.236 76.8241 42.918 76.228 47.5062L73.253 47.1197ZM73.3246 33.805L70.3438 34.1436C69.7701 29.0945 70.474 24.2457 72.4662 19.6532L75.2184 20.8471L77.9706 22.041C76.4063 25.647 75.8476 29.4368 76.3054 33.4663L73.3246 33.805ZM75.2184 20.8471L72.4662 19.6532C74.4315 15.1228 77.2908 11.3406 81.0428 8.36354L82.9075 10.7136L84.7722 13.0637C81.8286 15.3994 79.5618 18.3729 77.9706 22.041L75.2184 20.8471ZM82.9075 10.7136L81.0428 8.36354C84.632 5.51563 88.5319 3.30755 92.7359 1.75276L93.7765 4.56649L94.8171 7.38023C91.2249 8.70878 87.8787 10.5988 84.7722 13.0637L82.9075 10.7136ZM93.7765 4.56649L92.7359 1.75276C97.0477 0.158085 101.333 -0.37282 105.543 0.25991L105.097 3.22659L104.651 6.19327C101.563 5.72919 98.3016 6.09155 94.8171 7.38023L93.7765 4.56649ZM105.097 3.22659L105.543 0.25991C107.351 0.531632 108.675 0.701507 109.55 0.78022C109.998 0.820517 110.254 0.829869 110.369 0.828404C110.435 0.827572 110.37 0.823869 110.235 0.846497C110.166 0.857952 110.01 0.887191 109.812 0.958762C109.643 1.01974 109.236 1.18326 108.83 1.56618L110.889 3.74764L112.949 5.92911C112.517 6.33716 112.069 6.52288 111.847 6.60313C111.595 6.69398 111.372 6.73956 111.224 6.76444C110.927 6.8139 110.649 6.82533 110.446 6.82792C110.025 6.83329 109.53 6.80264 109.013 6.75609C107.957 6.66112 106.492 6.46995 104.651 6.19327L105.097 3.22659ZM110.889 3.74764L108.83 1.56618C109.617 0.823187 110.62 0.637551 111.439 0.775755C112.103 0.88788 112.562 1.18943 112.754 1.32668C113.159 1.61577 113.438 1.95562 113.56 2.10825C113.857 2.48094 114.162 2.96006 114.451 3.444C115.053 4.4543 115.861 5.95992 116.86 7.91658L114.188 9.28078L111.516 10.645C110.529 8.71184 109.794 7.35039 109.297 6.5163C109.175 6.31206 109.076 6.15338 108.998 6.03437C108.959 5.97546 108.928 5.9308 108.905 5.89838C108.881 5.86515 108.87 5.85145 108.871 5.85252C108.872 5.85355 108.878 5.86086 108.889 5.87318C108.899 5.88525 108.917 5.90562 108.942 5.93194C108.982 5.97328 109.093 6.08494 109.267 6.20959C109.405 6.30805 109.817 6.58679 110.44 6.69209C111.219 6.82346 112.188 6.64697 112.949 5.92911L110.889 3.74764Z" fill="#1C5B0B"/>
<defs>
<filter id="filter0_i_54_18" x="0" y="0" width="201.992" height="416.469" filterUnits="userSpaceOnUse" color-interpolation-filters="sRGB">
<feFlood flood-opacity="0" result="BackgroundImageFix"/>
<feBlend mode="normal" in="SourceGraphic" in2="BackgroundImageFix" result="shape"/>
<feColorMatrix in="SourceAlpha" type="matrix" values="0 0 0 0 0 0 0 0 0 0 0 0 0 0 0 0 0 0 127 0" result="hardAlpha"/>
<feOffset dx="-31" dy="4"/>
<feComposite in2="hardAlpha" operator="arithmetic" k2="-1" k3="1"/>
<feColorMatrix type="matrix" values="0 0 0 0 0.271651 0 0 0 0 0.51123 0 0 0 0 0.0884438 0 0 0 0.25 0"/>
<feBlend mode="normal" in2="shape" result="effect1_innerShadow_54_18"/>
</filter>
</defs>
</svg>
