<svg width="193" height="230" viewBox="0 0 193 230" fill="none" xmlns="http://www.w3.org/2000/svg">
<g filter="url(#filter0_i_54_20)">
<path d="M62.9386 209.895L70.7695 220.836C74.2601 222.612 102.275 227.364 107.158 228.1C109.557 226.624 129.838 210.652 85.3628 215.589C82.1105 213.964 84.7286 204.317 85.7789 203.225C85.9376 201.478 85.8375 204.551 89.49 202.586C94.0556 200.129 89.7543 199.809 98.974 200.95C108.194 202.092 128.526 213.505 136.767 214.512C145.008 215.519 133.548 199.678 140.948 197.036C148.348 194.395 147.581 191.795 148.361 188.93C149.141 186.064 112.982 195.385 108.683 193.85C104.385 192.315 101.151 184.642 95.798 182.53C91.5154 180.84 95.9428 179.47 98.6917 178.996C100.294 176.798 102.648 171.85 106.634 168.37C111.616 164.021 113.831 182.456 121.15 181.194C128.469 179.932 141.674 165.57 149.811 167.202C157.947 168.834 159.412 178.391 164.943 181.534C170.474 184.677 176.905 177.651 184.018 176.424C191.131 175.198 191.534 157.83 190.291 160.472C189.296 162.585 174.716 159.616 167.55 157.867L167.336 157.81C164.464 157.034 157.891 155.26 154.997 155.759C151.286 156.399 143.032 152.95 138.805 153.679C134.579 154.408 136.663 157.882 118.915 157.148C104.717 156.561 109.283 152.587 113.34 150.674C113.767 148.223 115.184 142.404 117.439 138.738C120.258 134.155 123.006 137.778 141.217 138.735C159.427 139.693 149.051 137.385 165.111 143.72C181.171 150.056 167.836 145.982 177.768 140.172C187.7 134.363 178.088 136.889 178.081 128.848C178.075 120.806 180.135 120.503 172.306 119.425C164.477 118.347 164.96 113.746 152.509 117.258C140.058 120.771 118.826 119.075 119.373 116.705C119.919 114.334 121.314 109.429 123.456 107.694C125.599 105.959 123.111 99.6841 131.571 95.1905C140.032 90.697 122.712 87.1141 134.941 79.2392C147.171 71.3643 152.562 83.2277 148.579 57.6625C144.596 32.0973 144.563 11.8302 143.14 3.57779C141.717 -4.67462 126.243 29.1203 114.948 33.799C103.654 38.4778 123.8 48.5006 110.097 47.8283C96.3936 47.156 114.251 59.8877 115.771 70.5513C117.291 81.2149 110.535 67.4601 117.046 80.6015C123.558 93.7428 105.079 90.5647 111.809 98.8126C113.071 100.36 113.957 100.934 114.567 100.871C113.884 106.715 112.679 112.975 111.566 113.167C109.71 113.487 104.512 109.97 104.512 109.97C104.512 109.97 106.258 103.443 100.394 100.057C101.017 99.4184 100.943 97.1565 98.1707 90.998C90.9446 74.9449 88.5378 94.6 78.3353 73.5972C68.1328 52.5945 61.6477 52.443 49.9466 54.764C38.2456 57.0849 39.5943 40.0195 26.8791 46.3089C14.1639 52.5983 18.7765 62.7287 24.9907 71.0655C31.2049 79.4023 30.728 74.1734 41.213 74.0349C51.6981 73.8963 53.2152 85.7743 65.7577 87.102C78.3001 88.4297 85.1305 108.345 92.7763 121.29L92.7955 121.323C100.423 134.238 101.156 135.478 88.6331 140.973C79.6645 142.519 85.8476 131.59 82.305 126.434C78.7623 121.279 76.5583 116.499 56.2642 103.458C44.2394 90.3568 53.2784 91.6815 41.4946 85.519C29.7108 79.3564 19.376 92.0639 12.2557 96.3265C5.13541 100.589 3.04102 103.833 8.29327 115.826C13.5455 127.819 33.1974 118.664 34.9992 119.264C36.801 119.864 57.358 130.735 60.2146 131.912C63.0713 133.089 72.4049 140.433 75.8953 145.901C79.3857 151.369 85.2637 160.219 86.2365 162.782C87.2093 165.346 85.1424 178.601 81.6374 179.205C78.1325 179.809 78.5369 172.304 77.1816 168.137C76.0973 164.804 71.6955 160.535 69.6302 158.817C68.283 158.392 65.0245 156.485 62.7677 152.261C59.9467 146.981 58.7771 151.28 51.0158 154.287C43.2546 157.295 46.1991 154.055 40.7573 145.889C35.3156 137.722 39.7846 143.325 32.9265 134.948C26.0684 126.57 26.7696 134.947 12.765 141.762C-1.23956 148.577 8.09051 146.665 9.97796 154.534C11.8654 162.403 13.5802 156.341 18.4761 155.8C23.3719 155.26 33.7408 160.604 35.1636 168.856C36.5865 177.109 46.6679 173.398 58.2869 173.064C69.906 172.73 71.2257 181 74.356 186.227C77.4863 191.453 76.3399 207.584 74.2782 207.94C72.2164 208.295 66.6026 196.668 66.2215 194.458C65.8404 192.247 63.3184 191.165 54.7623 192.64C46.2061 194.115 51.9564 191.758 46.2061 194.115C40.4557 196.472 42.5022 191.719 38.6953 189.34C34.8884 186.962 35.0423 187.239 28.5928 191.082C22.1433 194.925 22.4584 192.443 19.8304 192.593C17.2025 192.742 15.0805 185.976 10.764 181.258C6.44745 176.539 2.65783 188.421 1.84835 192.962C1.03887 197.502 14.2063 206.764 30.6254 202.871C43.7607 199.757 57.6406 206.256 62.9386 209.895Z" fill="#87AB73"/>
</g>
<path d="M100.394 100.057L98.6842 102.522L98.3405 102.284L98.0751 101.961L100.394 100.057ZM100.33 99.9799L98.0116 101.884L97.4517 101.202L97.3501 100.325L100.33 99.9799ZM88.6689 83.8627L87.3427 86.5537L88.6689 83.8627ZM82.8207 78.1851L80.1839 79.6159L82.8207 78.1851ZM77.7893 70.7583L75.4695 72.6606L77.7893 70.7583ZM72.2094 63.4449L74.6586 61.7125L72.2094 63.4449ZM66.2188 56.3362L64.0867 58.4467L66.2188 56.3362ZM48.3654 54.6715L49.1946 57.5546L48.3654 54.6715ZM34.4386 45.5618L33.8134 48.4959L34.4386 45.5618ZM24.8979 46.3115L23.8194 43.5121L24.8979 46.3115ZM24.2339 70.5443L21.6695 72.1012L24.2339 70.5443ZM47.885 76.966L50.4423 75.3975L47.885 76.966ZM54.8983 83.269L56.1432 80.5395L54.8983 83.269ZM72.3792 90.0065L71.716 92.9323L72.3792 90.0065ZM81.7516 104.704L79.3759 106.536L81.7516 104.704ZM86.8517 112.218L84.2728 113.75L86.8517 112.218ZM91.2546 120.233L88.5778 121.588L91.2546 120.233ZM83.1458 135.988L80.4278 137.258L83.1458 135.988ZM70.4381 114.272L71.9523 111.682L70.4381 114.272ZM63.314 108.537L65.5164 106.5L63.314 108.537ZM56.9498 102.116L54.8981 104.305L56.9498 102.116ZM38.2962 85.0206L37.6975 82.081L38.2962 85.0206ZM29.5651 87.1844L28.7021 84.3112L29.5651 87.1844ZM7.7053 100.549L10.6371 101.185L7.7053 100.549ZM7.07797 109.582L4.08909 109.84L7.07797 109.582ZM10.2441 117.484L12.5928 115.618L10.2441 117.484ZM35.5292 119.466L35.3265 122.459L35.5292 119.466ZM43.6445 123.332L41.4551 125.383L43.6445 123.332ZM51.3021 128.415L50.2982 131.242L51.3021 128.415ZM59.0371 132.926L61.0124 130.668L59.0371 132.926ZM83.1718 175.056L85.9244 176.249L83.1718 175.056ZM76.5483 167.316L79.3886 166.35L76.5483 167.316ZM71.7597 159.582L73.8957 157.476L71.7597 159.582ZM58.1048 150.852L58.824 153.765L58.1048 150.852ZM48.6258 153.915L47.5051 151.132L48.6258 153.915ZM42.1174 151.466L39.3659 152.662L42.1174 151.466ZM26.8121 133.223L25.3669 130.594L26.8121 133.223ZM19.105 138.485L21.0323 140.784L19.105 138.485ZM11.6877 143.775L10.1473 141.201L11.6877 143.775ZM9.18977 148.502L6.57924 149.98L9.18977 148.502ZM11.7875 154.044L14.5792 152.946L11.7875 154.044ZM17.7245 156.016L18.4404 158.929L17.7245 156.016ZM27.031 156.752L25.8894 159.527L27.031 156.752ZM33.0868 163.374L35.954 162.491L33.0868 163.374ZM45.1723 175.211L45.6138 178.178L45.1723 175.211ZM54.4067 174.034L54.0934 171.051L54.4067 174.034ZM70.9325 203.436L73.5052 201.893L70.9325 203.436ZM66.228 195.923L63.7174 197.565L66.228 195.923ZM50.0773 193.136L50.7872 190.221L50.0773 193.136ZM35.1266 191.325L34.9468 194.319L35.1266 191.325ZM27.6407 192.134L27.0127 189.201L27.6407 192.134ZM20.2191 190.409L18.1438 192.575L20.2191 190.409ZM14.6709 183.811L12.2127 185.531L14.6709 183.811ZM5.94657 196.654L8.40036 194.928L5.94657 196.654ZM12.4781 200.855L13.1819 197.939L12.4781 200.855ZM38.9639 203.086L38.0076 205.93L38.9639 203.086ZM69.9746 218.098L67.9011 220.266L69.9746 218.098ZM77.2127 223.324L75.7677 225.953L77.2127 223.324ZM86.0772 225.419L86.2034 228.416L86.0772 225.419ZM95.2905 225.85L95.7038 222.878L95.2905 225.85ZM85.8891 213.77L83.7839 215.907L85.8891 213.77ZM116.484 207.031L118.652 204.957L116.484 207.031ZM138.404 211.083L135.414 210.837L138.404 211.083ZM145.026 190.41L147.59 188.853L145.026 190.41ZM130.358 191.186L131.063 188.27L130.358 191.186ZM121.355 192.851L119.66 190.375V190.375L121.355 192.851ZM112.066 195.442L111.922 198.439L112.066 195.442ZM105.086 190.328L102.279 191.388L105.086 190.328ZM97.9217 178.388L99.8885 180.653L97.9217 178.388ZM102.349 171.854L99.6136 170.622L102.349 171.854ZM108.429 169.809L109.935 167.214L108.429 169.809ZM121.622 179.258L121.724 182.256V182.256L121.622 179.258ZM129.513 176.917L128.061 174.291L129.513 176.917ZM145.178 167.354L145.983 170.244L145.178 167.354ZM154.387 168.324L153.05 171.01L154.387 168.324ZM166.108 179.775L166.202 176.776L166.108 179.775ZM181.943 175.005L183.219 177.72L181.943 175.005ZM147.405 154.902L148.308 152.041L147.405 154.902ZM113.706 154.321L113.514 157.315L113.706 154.321ZM112.331 150.067L115.162 151.058L112.331 150.067ZM115.728 141.781L118.445 143.053L115.728 141.781ZM131.166 138.512L129.839 141.202L131.166 138.512ZM140.202 139.345L139.394 136.456L140.202 139.345ZM157.531 142.991L156.247 145.702L157.531 142.991ZM177.438 138.365L176.142 135.66L177.438 138.365ZM180.046 132.443L177.058 132.703L180.046 132.443ZM177.754 124.305L180.415 122.919L177.754 124.305ZM162.384 117.922L163.638 115.197L162.384 117.922ZM144.909 117.55L145.135 114.559L144.909 117.55ZM135.879 116.997L135.74 119.994L135.879 116.997ZM130.255 92.9144L127.343 92.1923L130.255 92.9144ZM131.056 85.3454L134.054 85.46L131.056 85.3454ZM149.289 51.6593L146.414 52.5166L149.289 51.6593ZM148.124 42.6702L151.122 42.7665L148.124 42.6702ZM142.895 5.94152L139.902 6.14522L142.895 5.94152ZM133.632 12.5712L136.287 13.9677L133.632 12.5712ZM129.541 20.9183L126.812 19.6736L129.541 20.9183ZM114.587 39.5023L111.906 40.8474L114.587 39.5023ZM115.715 72.2909L118.637 72.9681L115.715 72.2909ZM114.88 87.6041L112.157 86.3445L114.88 87.6041ZM112.436 94.6799L109.533 93.9215L112.436 94.6799ZM112.963 99.8349L111.462 102.432L111.398 102.395L111.336 102.355L112.963 99.8349ZM114.585 100.772L116.086 98.1747L117.904 99.2257L117.539 101.294L114.585 100.772ZM114.567 100.871L117.521 101.392L117.281 102.755L116.088 103.456L114.567 100.871ZM99.3607 99.0794L101.651 101.017L99.3607 99.0794ZM100.511 98.7931L97.5118 98.7288L100.511 98.7931ZM100.476 100.114L102.185 97.6488L103.058 98.2542L103.356 99.2741L100.476 100.114ZM106.626 110.061L105.048 112.613L106.626 110.061ZM113.125 109.242L115.495 111.081L113.125 109.242ZM114.947 100.915L114.906 97.9151L115.101 97.9125L115.295 97.9351L114.947 100.915ZM114.481 100.921L114.522 103.921L103.2 104.076L112.96 98.3353L114.481 100.921ZM113.924 95.094L116.883 95.5893L113.924 95.094ZM113.938 97.9243L111.414 99.5467L113.938 97.9243ZM114.446 99.6981L117.43 99.389L114.446 99.6981ZM100.394 100.057L98.0751 101.961L98.0116 101.884L100.33 99.9799L102.649 98.0761L102.712 98.1534L100.394 100.057ZM100.33 99.9799L97.3501 100.325C97.0203 97.4801 96.5165 95.283 95.8936 93.6613C95.2653 92.0253 94.5891 91.1644 94.0362 90.7382L95.8679 88.3623L97.6997 85.9865C99.4277 87.3188 100.636 89.2735 101.495 91.51C102.359 93.7608 102.946 96.4932 103.31 99.6344L100.33 99.9799ZM95.8679 88.3623L94.0362 90.7382C91.9089 89.098 89.6781 87.7046 87.3427 86.5537L88.6689 83.8627L89.9951 81.1718C92.6967 82.5032 95.2652 84.1095 97.6997 85.9865L95.8679 88.3623ZM88.6689 83.8627L87.3427 86.5537C84.2495 85.0293 81.8505 82.6874 80.1839 79.6159L82.8207 78.1851L85.4576 76.7544C86.5516 78.7707 88.0514 80.2139 89.9951 81.1718L88.6689 83.8627ZM82.8207 78.1851L80.1839 79.6159C78.9006 77.2508 77.3321 74.9321 75.4695 72.6606L77.7893 70.7583L80.1092 68.8561C82.1945 71.3992 83.9802 74.0317 85.4576 76.7544L82.8207 78.1851ZM77.7893 70.7583L75.4695 72.6606C73.4518 70.1998 71.5485 67.7055 69.7602 65.1774L72.2094 63.4449L74.6586 61.7125C76.3623 64.121 78.179 66.5022 80.1092 68.8561L77.7893 70.7583ZM72.2094 63.4449L69.7602 65.1774C68.1146 62.851 66.2251 60.607 64.0867 58.4467L66.2188 56.3362L68.3509 54.2258C70.708 56.6071 72.8123 59.1023 74.6586 61.7125L72.2094 63.4449ZM66.2188 56.3362L64.0867 58.4467C62.4333 56.7764 60.5169 56.0164 58.1348 56.1028L58.0261 53.1048L57.9174 50.1068C61.9633 49.9601 65.5087 51.3544 68.3509 54.2258L66.2188 56.3362ZM58.0261 53.1048L58.1348 56.1028C55.1752 56.2101 52.1967 56.6912 49.1946 57.5546L48.3654 54.6715L47.5362 51.7884C50.9869 50.7959 54.4489 50.2325 57.9174 50.1068L58.0261 53.1048ZM48.3654 54.6715L49.1946 57.5546C47.0965 58.1581 44.9136 58.2001 42.9105 57.2364C40.9205 56.279 39.5733 54.5524 38.685 52.5502L41.4272 51.3335L44.1694 50.1168C44.6801 51.2679 45.1889 51.6743 45.5117 51.8296C45.8212 51.9785 46.4079 52.1129 47.5362 51.7884L48.3654 54.6715ZM41.4272 51.3335L38.685 52.5502C37.6596 50.2393 36.0952 48.9821 33.8134 48.4959L34.4386 45.5618L35.0637 42.6276C39.3019 43.5306 42.3966 46.1213 44.1694 50.1168L41.4272 51.3335ZM34.4386 45.5618L33.8134 48.4959C31.1204 47.9221 28.5322 48.1264 25.9763 49.111L24.8979 46.3115L23.8194 43.5121C27.4645 42.1079 31.2367 41.8123 35.0637 42.6276L34.4386 45.5618ZM24.8979 46.3115L25.9763 49.111C24.8527 49.5438 24.161 50.0944 23.7232 50.6809C23.2867 51.2656 22.963 52.0729 22.8765 53.2474L19.8846 53.0271L16.8927 52.8067C17.0479 50.6986 17.6807 48.7453 18.9152 47.0915C20.1485 45.4395 21.8426 44.2736 23.8194 43.5121L24.8979 46.3115ZM19.8846 53.0271L22.8765 53.2474C22.6567 56.231 22.8993 58.971 23.5717 61.4896L20.6732 62.2634L17.7748 63.0372C16.9121 59.8059 16.6289 56.3883 16.8927 52.8067L19.8846 53.0271ZM20.6732 62.2634L23.5717 61.4896C24.2628 64.0781 25.3341 66.5758 26.7983 68.9874L24.2339 70.5443L21.6695 72.1012C19.9212 69.2216 18.6188 66.1987 17.7748 63.0372L20.6732 62.2634ZM24.2339 70.5443L26.7983 68.9874C27.9736 70.9234 29.7039 72.2228 32.204 72.888L31.4326 75.7871L30.6612 78.6863C26.7754 77.6524 23.7066 75.4566 21.6695 72.1012L24.2339 70.5443ZM31.4326 75.7871L32.204 72.888C34.6894 73.5493 37.0484 73.3191 39.4151 72.1631L40.7317 74.8588L42.0484 77.5544C38.4021 79.3354 34.5616 79.7241 30.6612 78.6863L31.4326 75.7871ZM40.7317 74.8588L39.4151 72.1631C41.355 71.2156 43.4935 70.7793 45.6227 71.4065C47.7476 72.0324 49.3127 73.5558 50.4423 75.3975L47.885 76.966L45.3277 78.5345C44.6949 77.5029 44.1867 77.2384 43.9272 77.1619C43.6719 77.0867 43.115 77.0334 42.0484 77.5544L40.7317 74.8588ZM47.885 76.966L50.4423 75.3975C51.9098 77.7901 53.8027 79.472 56.1432 80.5395L54.8983 83.269L53.6534 85.9985C50.1675 84.4086 47.3848 81.8885 45.3277 78.5345L47.885 76.966ZM54.8983 83.269L56.1432 80.5395C59.0435 81.8623 61.8838 83.1327 64.6642 84.3507L63.4604 87.0986L62.2565 89.8465C59.4474 88.6158 56.5797 87.3332 53.6534 85.9985L54.8983 83.269ZM63.4604 87.0986L64.6642 84.3507C67.2748 85.4944 70.0658 86.406 73.0424 87.0808L72.3792 90.0065L71.716 92.9323C68.3903 92.1785 65.2353 91.1515 62.2565 89.8465L63.4604 87.0986ZM72.3792 90.0065L73.0424 87.0808C75.1063 87.5486 76.9358 88.4954 78.3555 90.0213C79.7665 91.5379 80.6003 93.4409 80.9941 95.5448L78.0453 96.0967L75.0965 96.6486C74.864 95.4067 74.4404 94.6217 73.9627 94.1083C73.4937 93.6042 72.8033 93.1788 71.716 92.9323L72.3792 90.0065ZM78.0453 96.0967L80.9941 95.5448C81.5442 98.4843 82.607 100.9 84.1273 102.872L81.7516 104.704L79.3759 106.536C77.2068 103.723 75.7987 100.401 75.0965 96.6486L78.0453 96.0967ZM81.7516 104.704L84.1273 102.872C86.0462 105.36 87.8141 107.965 89.4307 110.685L86.8517 112.218L84.2728 113.75C82.7785 111.236 81.1463 108.831 79.3759 106.536L81.7516 104.704ZM86.8517 112.218L89.4307 110.685C91.0208 113.361 92.521 116.092 93.9313 118.879L91.2546 120.233L88.5778 121.588C87.2285 118.922 85.7935 116.309 84.2728 113.75L86.8517 112.218ZM91.2546 120.233L93.9313 118.879C95.1711 121.328 96.8238 123.664 98.9126 125.883L96.728 127.939L94.5434 129.995C92.0938 127.393 90.0976 124.591 88.5778 121.588L91.2546 120.233ZM96.728 127.939L98.9126 125.883C100.364 127.425 101.433 129.326 101.418 131.544C101.403 133.769 100.301 135.65 98.8134 137.154L96.6809 135.044L94.5483 132.934C95.3611 132.112 95.4172 131.646 95.4181 131.504C95.4191 131.353 95.3616 130.865 94.5434 129.995L96.728 127.939ZM96.6809 135.044L98.8134 137.154C96.1715 139.824 93.1511 141.607 89.7547 142.29L89.1637 139.348L88.5727 136.407C90.598 136 92.5891 134.914 94.5483 132.934L96.6809 135.044ZM89.1637 139.348L89.7547 142.29C87.8474 142.673 85.9119 142.512 84.1636 141.536C82.4522 140.581 81.256 139.031 80.4278 137.258L83.1458 135.988L85.8638 134.718C86.3367 135.731 86.794 136.133 87.0886 136.297C87.3462 136.441 87.7692 136.569 88.5727 136.407L89.1637 139.348ZM83.1458 135.988L80.4278 137.258C78.9327 134.058 78.2229 130.692 78.316 127.193L81.3149 127.273L84.3138 127.353C84.2459 129.905 84.7566 132.349 85.8638 134.718L83.1458 135.988ZM81.3149 127.273L78.316 127.193C78.3719 125.091 77.6387 123.401 75.9442 121.921L77.918 119.662L79.8917 117.403C82.8875 120.02 84.4189 123.405 84.3138 127.353L81.3149 127.273ZM77.918 119.662L75.9442 121.921C73.739 119.995 71.3992 118.309 68.9239 116.862L70.4381 114.272L71.9523 111.682C74.7599 113.324 77.4067 115.232 79.8917 117.403L77.918 119.662ZM70.4381 114.272L68.9239 116.862C66.0233 115.166 63.4174 113.067 61.1116 110.574L63.314 108.537L65.5164 106.5C67.4265 108.565 69.57 110.29 71.9523 111.682L70.4381 114.272ZM63.314 108.537L61.1116 110.574C59.0491 108.344 56.9779 106.255 54.8981 104.305L56.9498 102.116L59.0014 99.9276C61.1914 101.98 63.363 104.172 65.5164 106.5L63.314 108.537ZM56.9498 102.116L54.8981 104.305C52.7794 102.319 50.5068 100.233 48.0798 98.0479L50.0873 95.8186L52.0948 93.5893C54.548 95.7984 56.8504 97.9112 59.0014 99.9276L56.9498 102.116ZM50.0873 95.8186L48.0798 98.0479C45.3261 95.5683 43.2612 92.6848 41.9489 89.4018L44.7346 88.2883L47.5203 87.1748C48.4647 89.5375 49.9682 91.6743 52.0948 93.5893L50.0873 95.8186ZM44.7346 88.2883L41.9489 89.4018C41.5817 88.4831 41.1869 88.1643 40.921 88.0293C40.6294 87.8813 40.0397 87.7271 38.895 87.9602L38.2962 85.0206L37.6975 82.081C39.7166 81.6697 41.7819 81.7378 43.6364 82.679C45.5166 83.6332 46.7591 85.2705 47.5203 87.1748L44.7346 88.2883ZM38.2962 85.0206L38.895 87.9602C35.8062 88.5894 32.9853 89.2894 30.4282 90.0575L29.5651 87.1844L28.7021 84.3112C31.4587 83.4832 34.4586 82.7407 37.6975 82.081L38.2962 85.0206ZM29.5651 87.1844L30.4282 90.0575C27.7089 90.8743 24.7307 91.6705 21.4965 92.4471L20.7961 89.53L20.0957 86.6129C23.2398 85.858 26.1076 85.0905 28.7021 84.3112L29.5651 87.1844ZM20.7961 89.53L21.4965 92.4471C18.6478 93.131 16.1993 94.2352 14.1096 95.7327L12.3622 93.2941L10.6148 90.8556C13.3919 88.8655 16.5661 87.4603 20.0957 86.6129L20.7961 89.53ZM12.3622 93.2941L14.1096 95.7327C12.3174 97.0169 11.1603 98.7737 10.6371 101.185L7.7053 100.549L4.77354 99.9123C5.59255 96.1383 7.54007 93.0588 10.6148 90.8556L12.3622 93.2941ZM7.7053 100.549L10.6371 101.185C10.0248 104.006 9.84168 106.715 10.0669 109.324L7.07797 109.582L4.08909 109.84C3.80847 106.589 4.04355 103.276 4.77354 99.9123L7.7053 100.549ZM7.07797 109.582L10.0669 109.324C10.2682 111.658 11.0958 113.734 12.5928 115.618L10.2441 117.484L7.89546 119.351C5.67674 116.559 4.39351 113.367 4.08909 109.84L7.07797 109.582ZM10.2441 117.484L12.5928 115.618C13.911 117.277 15.5329 118.11 17.6681 118.214L17.5219 121.21L17.3756 124.207C13.5229 124.019 10.293 122.368 7.89546 119.351L10.2441 117.484ZM17.5219 121.21L17.6681 118.214C20.3556 118.345 22.9996 118.069 25.6105 117.383L26.3722 120.285L27.1339 123.187C23.9323 124.027 20.676 124.368 17.3756 124.207L17.5219 121.21ZM26.3722 120.285L25.6105 117.383C28.8516 116.533 32.231 116.236 35.732 116.473L35.5292 119.466L35.3265 122.459C32.4306 122.263 29.7053 122.512 27.1339 123.187L26.3722 120.285ZM35.5292 119.466L35.732 116.473C39.6957 116.741 43.1083 118.372 45.8338 121.281L43.6445 123.332L41.4551 125.383C39.7573 123.571 37.7597 122.624 35.3265 122.459L35.5292 119.466ZM43.6445 123.332L45.8338 121.281C47.7361 123.312 49.8884 124.729 52.306 125.588L51.3021 128.415L50.2982 131.242C46.9291 130.045 43.9763 128.074 41.4551 125.383L43.6445 123.332ZM51.3021 128.415L52.306 125.588C55.5485 126.739 58.458 128.433 61.0124 130.668L59.0371 132.926L57.0618 135.184C55.0895 133.458 52.8424 132.145 50.2982 131.242L51.3021 128.415ZM59.0371 132.926L61.0124 130.668C63.0187 132.423 65.3196 133.844 67.9345 134.927L66.7869 137.699L65.6394 140.471C62.4477 139.149 59.5821 137.388 57.0618 135.184L59.0371 132.926ZM66.7869 137.699L67.9345 134.927C71.3435 136.338 74.1363 138.536 76.2439 141.5L73.7989 143.239L71.3539 144.977C69.9188 142.959 68.037 141.463 65.6394 140.471L66.7869 137.699ZM73.7989 143.239L76.2439 141.5C78.0452 144.034 79.7753 146.605 81.4343 149.215L78.9026 150.825L76.3708 152.434C74.7677 149.912 73.0955 147.427 71.3539 144.977L73.7989 143.239ZM78.9026 150.825L81.4343 149.215C83.1549 151.922 84.6326 154.742 85.8659 157.676L83.1004 158.839L80.3348 160.001C79.2332 157.381 77.9124 154.859 76.3708 152.434L78.9026 150.825ZM83.1004 158.839L85.8659 157.676C87.1753 160.79 87.8471 163.955 87.8319 167.151L84.8319 167.137L81.8319 167.123C81.843 164.808 81.3604 162.44 80.3348 160.001L83.1004 158.839ZM84.8319 167.137L87.8319 167.151C87.8169 170.312 87.1796 173.353 85.9244 176.249L83.1718 175.056L80.4191 173.863C81.3512 171.712 81.8208 169.474 81.8319 167.123L84.8319 167.137ZM83.1718 175.056L85.9244 176.249C85.595 177.009 85.1784 177.793 84.6242 178.44C84.0862 179.069 83.1208 179.906 81.6981 179.997C80.2277 180.092 79.1475 179.34 78.5247 178.714C77.9074 178.093 77.4477 177.321 77.0914 176.593L79.7862 175.274L82.481 173.956C82.7064 174.417 82.824 174.528 82.7797 174.483C82.7299 174.433 82.2183 173.951 81.3122 174.01C80.894 174.037 80.5689 174.175 80.3605 174.303C80.1656 174.422 80.0732 174.53 80.0658 174.539C80.0558 174.55 80.0908 174.511 80.1614 174.389C80.2302 174.269 80.3173 174.098 80.4191 173.863L83.1718 175.056ZM79.7862 175.274L77.0914 176.593C75.8636 174.083 74.7374 171.31 73.7079 168.281L76.5483 167.316L79.3886 166.35C80.3495 169.177 81.3819 171.709 82.481 173.956L79.7862 175.274ZM76.5483 167.316L73.7079 168.281C72.8602 165.787 71.5069 163.598 69.6237 161.689L71.7597 159.582L73.8957 157.476C76.4068 160.022 78.246 162.989 79.3886 166.35L76.5483 167.316ZM71.7597 159.582L69.6237 161.689C67.3746 159.408 65.3017 157.137 63.4071 154.874L65.7072 152.948L68.0073 151.022C69.7884 153.149 71.7505 155.3 73.8957 157.476L71.7597 159.582ZM65.7072 152.948L63.4071 154.874C62.8428 154.2 62.258 153.843 61.6309 153.67C60.9742 153.489 60.0705 153.457 58.824 153.765L58.1048 150.852L57.3857 147.94C59.3696 147.45 61.3481 147.368 63.2255 147.886C65.1325 148.412 66.7337 149.501 68.0073 151.022L65.7072 152.948ZM58.1048 150.852L58.824 153.765C55.7305 154.529 52.705 155.506 49.7465 156.698L48.6258 153.915L47.5051 151.132C50.7246 149.835 54.0185 148.771 57.3857 147.94L58.1048 150.852ZM48.6258 153.915L49.7465 156.698C47.807 157.479 45.6681 157.812 43.6255 157.043C41.5424 156.26 40.1965 154.573 39.3659 152.662L42.1174 151.466L44.8689 150.27C45.2883 151.236 45.652 151.395 45.7384 151.428C45.8652 151.476 46.3556 151.595 47.5051 151.132L48.6258 153.915ZM42.1174 151.466L39.3659 152.662C38.0765 149.694 36.9266 146.646 35.916 143.518L38.7707 142.596L41.6254 141.674C42.5771 144.619 43.6584 147.485 44.8689 150.27L42.1174 151.466ZM38.7707 142.596L35.916 143.518C35.0623 140.876 33.725 138.54 31.8937 136.486L34.1329 134.49L36.3721 132.493C38.7622 135.174 40.5168 138.243 41.6254 141.674L38.7707 142.596ZM34.1329 134.49L31.8937 136.486C31.161 135.665 30.5925 135.42 30.2081 135.354C29.8251 135.287 29.2133 135.326 28.2573 135.852L26.8121 133.223L25.3669 130.594C27.1808 129.597 29.174 129.086 31.2313 129.442C33.2872 129.797 34.9942 130.948 36.3721 132.493L34.1329 134.49ZM26.8121 133.223L28.2573 135.852C25.6546 137.283 23.2475 138.927 21.0323 140.784L19.105 138.485L17.1777 136.186C19.6989 134.072 22.4299 132.208 25.3669 130.594L26.8121 133.223ZM19.105 138.485L21.0323 140.784C18.5461 142.868 15.9447 144.724 13.2281 146.35L11.6877 143.775L10.1473 141.201C12.584 139.743 14.9275 138.072 17.1777 136.186L19.105 138.485ZM11.6877 143.775L13.2281 146.35C12.7086 146.66 12.3474 146.932 12.1067 147.152C11.8635 147.374 11.7905 147.501 11.7832 147.515C11.7816 147.518 11.7964 147.491 11.8104 147.434C11.8249 147.377 11.8343 147.305 11.8323 147.227C11.8282 147.059 11.7761 146.981 11.8003 147.024L9.18977 148.502L6.57924 149.98C5.64261 148.326 5.56265 146.444 6.47832 144.712C7.27158 143.211 8.67397 142.083 10.1473 141.201L11.6877 143.775ZM9.18977 148.502L11.8003 147.024C12.7935 148.778 13.7177 150.756 14.5792 152.946L11.7875 154.044L8.99577 155.143C8.2164 153.162 7.40873 151.445 6.57924 149.98L9.18977 148.502ZM11.7875 154.044L14.5792 152.946C14.6518 153.13 14.7116 153.19 14.7194 153.197C14.7225 153.201 14.7425 153.224 14.8325 153.254C15.0668 153.332 15.711 153.421 17.0086 153.102L17.7245 156.016L18.4404 158.929C16.6004 159.381 14.6863 159.528 12.9416 158.948C11.0386 158.316 9.70399 156.943 8.99577 155.143L11.7875 154.044ZM17.7245 156.016L17.0086 153.102C20.7817 152.175 24.5338 152.481 28.1726 153.978L27.031 156.752L25.8894 159.527C23.3947 158.5 20.9424 158.314 18.4404 158.929L17.7245 156.016ZM27.031 156.752L28.1726 153.978C32.0631 155.579 34.7182 158.477 35.954 162.491L33.0868 163.374L30.2195 164.256C29.5145 161.966 28.1325 160.45 25.8894 159.527L27.031 156.752ZM33.0868 163.374L35.954 162.491C36.8226 165.313 38.1328 167.877 39.8885 170.199L37.4955 172.008L35.1026 173.817C32.9207 170.932 31.2917 167.739 30.2195 164.256L33.0868 163.374ZM37.4955 172.008L39.8885 170.199C40.6097 171.153 41.338 171.697 42.0465 171.993C42.7507 172.287 43.615 172.41 44.7308 172.244L45.1723 175.211L45.6138 178.178C43.5805 178.481 41.5909 178.304 39.7362 177.53C37.8857 176.758 36.3501 175.467 35.1026 173.817L37.4955 172.008ZM45.1723 175.211L44.7308 172.244C47.9202 171.769 51.0411 171.371 54.0934 171.051L54.4067 174.034L54.7201 177.018C51.7578 177.329 48.7225 177.716 45.6138 178.178L45.1723 175.211ZM54.4067 174.034L54.0934 171.051C57.5006 170.693 60.7814 171.024 63.8991 172.078L62.9384 174.92L61.9777 177.762C59.7344 177.004 57.3274 176.744 54.7201 177.018L54.4067 174.034ZM62.9384 174.92L63.8991 172.078C67.21 173.197 69.8862 175.251 71.858 178.161L69.3743 179.844L66.8907 181.527C65.6423 179.684 64.028 178.455 61.9777 177.762L62.9384 174.92ZM69.3743 179.844L71.858 178.161C73.4476 180.508 75.1777 182.968 77.049 185.543L74.6221 187.307L72.1952 189.07C70.2896 186.448 68.5212 183.933 66.8907 181.527L69.3743 179.844ZM74.6221 187.307L77.049 185.543C79.4217 188.809 80.2518 192.509 79.4561 196.444L76.5156 195.85L73.5751 195.255C74.0315 192.998 73.5993 191.003 72.1952 189.07L74.6221 187.307ZM76.5156 195.85L79.4561 196.444C78.8119 199.63 78.0814 202.444 77.2554 204.869L74.4157 203.901L71.576 202.934C72.2976 200.815 72.9671 198.262 73.5751 195.255L76.5156 195.85ZM74.4157 203.901L77.2554 204.869C77.0066 205.599 76.6247 206.465 75.9768 207.174C75.2404 207.979 74.0542 208.66 72.5675 208.462C71.3148 208.295 70.4188 207.563 69.8893 207.028C69.3146 206.447 68.8096 205.729 68.3598 204.979L70.9325 203.436L73.5052 201.893C73.8295 202.434 74.0503 202.703 74.1529 202.806C74.3008 202.956 74.0338 202.604 73.3616 202.515C72.9817 202.464 72.5784 202.515 72.2101 202.671C71.8635 202.818 71.6503 203.014 71.5487 203.125C71.3845 203.305 71.4379 203.339 71.576 202.934L74.4157 203.901ZM70.9325 203.436L68.3598 204.979C66.8308 202.43 65.2833 199.959 63.7174 197.565L66.228 195.923L68.7385 194.28C70.3486 196.742 71.9375 199.279 73.5052 201.893L70.9325 203.436ZM66.228 195.923L63.7174 197.565C63.1966 196.769 62.698 196.416 62.2694 196.251C61.8317 196.082 61.177 195.998 60.1645 196.239L59.4716 193.32L58.7788 190.401C60.6824 189.949 62.6119 189.953 64.4264 190.652C66.2498 191.354 67.6713 192.649 68.7385 194.28L66.228 195.923ZM59.4716 193.32L60.1645 196.239C56.7224 197.056 53.1057 196.961 49.3674 196.05L50.0773 193.136L50.7872 190.221C53.7422 190.94 56.3884 190.968 58.7788 190.401L59.4716 193.32ZM50.0773 193.136L49.3674 196.05C46.123 195.26 43.4661 194.824 41.3616 194.701L41.5381 191.706L41.7145 188.711C44.3024 188.863 47.3383 189.381 50.7872 190.221L50.0773 193.136ZM41.5381 191.706L41.3616 194.701C39.0146 194.562 36.8763 194.435 34.9468 194.319L35.1266 191.325L35.3065 188.33C37.2332 188.446 39.3692 188.573 41.7145 188.711L41.5381 191.706ZM35.1266 191.325L34.9468 194.319C33.4042 194.227 31.2085 194.439 28.2687 195.068L27.6407 192.134L27.0127 189.201C30.198 188.519 32.9929 188.191 35.3065 188.33L35.1266 191.325ZM27.6407 192.134L28.2687 195.068C24.456 195.884 20.8972 195.213 18.1438 192.575L20.2191 190.409L22.2945 188.243C23.3114 189.217 24.7003 189.696 27.0127 189.201L27.6407 192.134ZM20.2191 190.409L18.1438 192.575C16.0906 190.608 14.1162 188.252 12.2127 185.531L14.6709 183.811L17.1291 182.091C18.8529 184.555 20.5773 186.598 22.2945 188.243L20.2191 190.409ZM14.6709 183.811L12.2127 185.531C11.6251 184.691 11.1249 184.436 10.756 184.349C10.3445 184.253 9.61764 184.257 8.41879 184.795L7.19066 182.058L5.96252 179.321C7.9368 178.435 10.0432 178.019 12.1251 178.507C14.2496 179.005 15.9029 180.339 17.1291 182.091L14.6709 183.811ZM7.19066 182.058L8.41879 184.795C7.2147 185.335 6.63215 185.908 6.3478 186.377C6.08265 186.815 5.9099 187.433 6.04848 188.43L3.07702 188.843L0.105564 189.256C-0.186559 187.154 0.110953 185.091 1.21701 183.267C2.30387 181.474 3.99349 180.204 5.96252 179.321L7.19066 182.058ZM3.07702 188.843L6.04848 188.43C6.42743 191.158 7.2454 193.286 8.40036 194.928L5.94657 196.654L3.49277 198.38C1.68307 195.807 0.588005 192.728 0.105564 189.256L3.07702 188.843ZM5.94657 196.654L8.40036 194.928C9.40218 196.353 10.9078 197.39 13.1819 197.939L12.4781 200.855L11.7743 203.771C8.30436 202.934 5.45562 201.171 3.49277 198.38L5.94657 196.654ZM12.4781 200.855L13.1819 197.939C16.0155 198.623 18.8834 199.256 21.7858 199.837L21.1962 202.779L20.6065 205.72C17.6289 205.123 14.6848 204.474 11.7743 203.771L12.4781 200.855ZM21.1962 202.779L21.7858 199.837C24.2994 200.341 26.8282 200.302 29.401 199.708L30.0756 202.631L30.7503 205.555C27.3638 206.336 23.9729 206.395 20.6065 205.72L21.1962 202.779ZM30.0756 202.631L29.401 199.708C32.9304 198.894 36.4576 199.078 39.9202 200.243L38.9639 203.086L38.0076 205.93C35.5784 205.113 33.1801 204.994 30.7503 205.555L30.0756 202.631ZM38.9639 203.086L39.9202 200.243C42.339 201.056 44.9321 201.222 47.7589 200.682L48.3217 203.629L48.8846 206.576C45.1261 207.293 41.4807 207.098 38.0076 205.93L38.9639 203.086ZM48.3217 203.629L47.7589 200.682C51.9651 199.879 55.7769 200.939 58.8564 203.868L56.7886 206.042L54.7208 208.215C53.0965 206.67 51.2637 206.121 48.8846 206.576L48.3217 203.629ZM56.7886 206.042L58.8564 203.868C61.1814 206.08 63.4249 208.131 65.5872 210.023L63.6119 212.281L61.6366 214.539C59.405 212.587 57.0997 210.478 54.7208 208.215L56.7886 206.042ZM63.6119 212.281L65.5872 210.023C67.8165 211.973 69.9703 213.942 72.0482 215.93L69.9746 218.098L67.9011 220.266C65.8892 218.342 63.8011 216.433 61.6366 214.539L63.6119 212.281ZM69.9746 218.098L72.0482 215.93C73.8833 217.685 76.0787 219.277 78.6577 220.695L77.2127 223.324L75.7677 225.953C72.7858 224.314 70.1557 222.422 67.9011 220.266L69.9746 218.098ZM77.2127 223.324L78.6577 220.695C80.9645 221.963 83.3768 222.53 85.951 222.421L86.0772 225.419L86.2034 228.416C82.5192 228.571 79.0218 227.741 75.7677 225.953L77.2127 223.324ZM86.0772 225.419L85.951 222.421C89.2551 222.282 92.5069 222.434 95.7038 222.878L95.2905 225.85L94.8772 228.821C92.0481 228.427 89.1577 228.292 86.2034 228.416L86.0772 225.419ZM95.2905 225.85L95.7038 222.878C98.4881 223.265 100.865 223.255 102.871 222.914L103.375 225.871L103.879 228.829C101.132 229.296 98.1188 229.272 94.8772 228.821L95.2905 225.85ZM103.375 225.871L102.871 222.914C104.74 222.595 106.848 221.737 109.21 220.188L110.855 222.696L112.5 225.205C109.642 227.08 106.764 228.337 103.879 228.829L103.375 225.871ZM110.855 222.696L109.21 220.188C109.44 220.037 109.611 219.905 109.735 219.796C109.86 219.687 109.923 219.613 109.949 219.579C109.974 219.546 109.954 219.564 109.926 219.635C109.896 219.711 109.867 219.823 109.862 219.96C109.857 220.097 109.879 220.211 109.904 220.29C109.927 220.363 109.946 220.384 109.924 220.35C109.901 220.315 109.843 220.237 109.727 220.12C109.612 220.004 109.451 219.861 109.232 219.696L111.044 217.305L112.856 214.914C114.315 216.019 115.943 217.758 115.858 220.17C115.774 222.579 114.031 224.201 112.5 225.205L110.855 222.696ZM111.044 217.305L109.232 219.696C107.36 218.277 105.365 217.738 103.089 218.013L102.73 215.035L102.37 212.056C106.211 211.592 109.76 212.567 112.856 214.914L111.044 217.305ZM102.73 215.035L103.089 218.013C100.065 218.378 97.0737 218.793 94.1158 219.255L93.652 216.291L93.1882 213.327C96.2165 212.854 99.2771 212.43 102.37 212.056L102.73 215.035ZM93.652 216.291L94.1158 219.255C90.1715 219.873 86.6343 218.715 83.7839 215.907L85.8891 213.77L87.9944 211.633C89.5083 213.124 91.1463 213.647 93.1882 213.327L93.652 216.291ZM85.8891 213.77L83.7839 215.907C82.4128 214.557 81.3555 212.96 80.9652 211.098C80.5641 209.185 80.9384 207.33 81.8417 205.649L84.4843 207.069L87.127 208.489C86.7847 209.126 86.7703 209.546 86.8375 209.867C86.9155 210.239 87.1833 210.834 87.9944 211.633L85.8891 213.77ZM84.4843 207.069L81.8417 205.649C83.5307 202.506 86.2931 200.525 89.8251 199.701L90.507 202.622L91.189 205.543C89.1819 206.012 87.9291 206.996 87.127 208.489L84.4843 207.069ZM90.507 202.622L89.8251 199.701C93.0871 198.939 96.3886 199.005 99.686 199.874L98.9217 202.775L98.1573 205.676C95.7742 205.048 93.466 205.012 91.189 205.543L90.507 202.622ZM98.9217 202.775L99.686 199.874C102.199 200.536 104.955 200.812 107.975 200.672L108.114 203.668L108.253 206.665C104.697 206.83 101.325 206.51 98.1573 205.676L98.9217 202.775ZM108.114 203.668L107.975 200.672C112.136 200.478 115.765 201.941 118.652 204.957L116.484 207.031L114.317 209.106C112.62 207.332 110.668 206.553 108.253 206.665L108.114 203.668ZM116.484 207.031L118.652 204.957C120.602 206.995 122.773 208.309 125.182 208.987L124.37 211.875L123.557 214.763C120.037 213.772 116.951 211.857 114.317 209.106L116.484 207.031ZM124.37 211.875L125.182 208.987C128.13 209.817 131.133 210.634 134.191 211.439L133.427 214.34L132.663 217.242C129.574 216.428 126.538 215.602 123.557 214.763L124.37 211.875ZM133.427 214.34L134.191 211.439C134.75 211.587 135.103 211.608 135.291 211.597C135.462 211.587 135.436 211.556 135.333 211.623C135.223 211.695 135.205 211.763 135.238 211.691C135.284 211.593 135.373 211.338 135.414 210.837L138.404 211.083L141.394 211.329C141.235 213.26 140.553 215.378 138.619 216.643C136.746 217.868 134.537 217.735 132.663 217.242L133.427 214.34ZM138.404 211.083L135.414 210.837C135.666 207.783 136.022 204.843 136.483 202.017L139.444 202.5L142.405 202.984C141.971 205.641 141.633 208.422 141.394 211.329L138.404 211.083ZM139.444 202.5L136.483 202.017C137.038 198.618 138.608 195.676 141.116 193.265L143.195 195.428L145.274 197.591C143.676 199.127 142.745 200.9 142.405 202.984L139.444 202.5ZM143.195 195.428L141.116 193.265C141.989 192.426 142.292 191.89 142.374 191.666C142.405 191.58 142.38 191.607 142.388 191.714C142.396 191.831 142.436 191.925 142.461 191.966L145.026 190.41L147.59 188.853C148.535 190.409 148.589 192.136 148.011 193.721C147.483 195.17 146.454 196.457 145.274 197.591L143.195 195.428ZM145.026 190.41L142.461 191.966C142.519 192.061 142.644 192.201 142.829 192.297C142.995 192.383 143.082 192.368 142.989 192.367C142.887 192.366 142.654 192.385 142.257 192.496C141.866 192.605 141.373 192.789 140.768 193.073L139.496 190.356L138.224 187.639C139.808 186.897 141.465 186.352 143.048 186.367C144.826 186.385 146.547 187.135 147.59 188.853L145.026 190.41ZM139.496 190.356L140.768 193.073C137.26 194.715 133.513 195.035 129.653 194.102L130.358 191.186L131.063 188.27C133.68 188.902 136.024 188.669 138.224 187.639L139.496 190.356ZM130.358 191.186L129.653 194.102C127.247 193.52 125.117 193.91 123.05 195.326L121.355 192.851L119.66 190.375C123.121 188.005 126.994 187.286 131.063 188.27L130.358 191.186ZM121.355 192.851L123.05 195.326C119.731 197.598 115.986 198.635 111.922 198.439L112.066 195.442L112.21 192.446C115.002 192.58 117.449 191.889 119.66 190.375L121.355 192.851ZM112.066 195.442L111.922 198.439C109.733 198.333 107.699 197.722 105.977 196.46C104.257 195.2 103.055 193.443 102.279 191.388L105.086 190.328L107.892 189.268C108.341 190.458 108.916 191.175 109.523 191.62C110.128 192.063 110.971 192.386 112.21 192.446L112.066 195.442ZM105.086 190.328L102.279 191.388C101.251 188.667 99.7239 186.771 97.7511 185.511L99.3659 182.983L100.981 180.454C104.183 182.5 106.469 185.501 107.892 189.268L105.086 190.328ZM99.3659 182.983L97.7511 185.511C96.3328 184.605 94.7764 183.321 94.2023 181.494C93.8814 180.473 93.9074 179.397 94.3018 178.382C94.6737 177.425 95.3079 176.685 95.9549 176.123L97.9217 178.388L99.8885 180.653C99.7232 180.797 99.8084 180.777 99.8944 180.555C99.9403 180.437 99.976 180.287 99.9811 180.116C99.9862 179.946 99.9597 179.801 99.9262 179.695C99.865 179.5 99.8041 179.501 99.9803 179.684C100.151 179.861 100.462 180.123 100.981 180.454L99.3659 182.983ZM97.9217 178.388L95.9549 176.123C97.1291 175.103 98.3837 173.352 99.6136 170.622L102.349 171.854L105.084 173.086C103.66 176.247 101.964 178.852 99.8885 180.653L97.9217 178.388ZM102.349 171.854L99.6136 170.622C100.445 168.775 101.774 167.007 103.908 166.29C106.065 165.564 108.185 166.199 109.935 167.214L108.429 169.809L106.923 172.404C105.946 171.837 105.69 172.021 105.82 171.977C105.927 171.941 105.579 171.986 105.084 173.086L102.349 171.854ZM108.429 169.809L109.935 167.214C113.001 168.994 115.556 171.264 117.554 174.029L115.123 175.786L112.692 177.544C111.217 175.503 109.309 173.789 106.923 172.404L108.429 169.809ZM115.123 175.786L117.554 174.029C118.802 175.755 120.077 176.309 121.521 176.26L121.622 179.258L121.724 182.256C117.976 182.383 114.917 180.622 112.692 177.544L115.123 175.786ZM121.622 179.258L121.521 176.26C123.568 176.191 125.74 175.575 128.061 174.291L129.513 176.917L130.964 179.542C127.957 181.205 124.868 182.15 121.724 182.256L121.622 179.258ZM129.513 176.917L128.061 174.291C130.541 172.92 132.872 171.294 135.056 169.408L137.017 171.679L138.977 173.95C136.484 176.102 133.813 177.968 130.964 179.542L129.513 176.917ZM137.017 171.679L135.056 169.408C137.744 167.088 140.863 165.442 144.372 164.464L145.178 167.354L145.983 170.244C143.288 170.995 140.967 172.232 138.977 173.95L137.017 171.679ZM145.178 167.354L144.372 164.464C148.23 163.389 152.061 163.816 155.723 165.638L154.387 168.324L153.05 171.01C150.638 169.81 148.33 169.59 145.983 170.244L145.178 167.354ZM154.387 168.324L155.723 165.638C159.409 167.473 162.031 170.314 163.396 174.105L160.574 175.122L157.751 176.138C156.941 173.889 155.438 172.199 153.05 171.01L154.387 168.324ZM160.574 175.122L163.396 174.105C163.819 175.277 164.299 175.914 164.704 176.254C165.068 176.56 165.518 176.755 166.202 176.776L166.108 179.775L166.014 182.773C164.097 182.713 162.323 182.091 160.843 180.846C159.403 179.636 158.417 177.986 157.751 176.138L160.574 175.122ZM166.108 179.775L166.202 176.776C168.357 176.844 170.634 176.446 173.054 175.519L174.127 178.32L175.201 181.122C172.132 182.298 169.062 182.869 166.014 182.773L166.108 179.775ZM174.127 178.32L173.054 175.519C175.735 174.492 178.273 173.415 180.667 172.29L181.943 175.005L183.219 177.72C180.682 178.912 178.009 180.046 175.201 181.122L174.127 178.32ZM181.943 175.005L180.667 172.29C182.601 171.381 184.172 170 185.406 168.076L187.931 169.695L190.457 171.314C188.638 174.152 186.216 176.312 183.219 177.72L181.943 175.005ZM187.931 169.695L185.406 168.076C186.525 166.33 186.618 164.969 186.169 163.721L188.992 162.706L191.815 161.69C193.005 164.999 192.391 168.297 190.457 171.314L187.931 169.695ZM188.992 162.706L186.169 163.721C185.953 163.122 185.649 162.747 185.262 162.476C184.845 162.184 184.172 161.902 183.086 161.78L183.422 158.799L183.758 155.818C185.566 156.021 187.268 156.554 188.708 157.564C190.177 158.595 191.21 160.011 191.815 161.69L188.992 162.706ZM183.422 158.799L183.086 161.78C180.358 161.472 177.51 161.38 174.541 161.508L174.413 158.51L174.284 155.513C177.542 155.373 180.701 155.473 183.758 155.818L183.422 158.799ZM174.413 158.51L174.541 161.508C170.972 161.661 167.536 161.019 164.27 159.586L165.475 156.839L166.68 154.091C169.104 155.155 171.627 155.627 174.284 155.513L174.413 158.51ZM165.475 156.839L164.27 159.586C161.945 158.566 159.517 158.234 156.922 158.599L156.504 155.628L156.087 152.657C159.762 152.14 163.315 152.615 166.68 154.091L165.475 156.839ZM156.504 155.628L156.922 158.599C153.358 159.1 149.873 158.826 146.502 157.763L147.405 154.902L148.308 152.041C150.799 152.827 153.38 153.038 156.087 152.657L156.504 155.628ZM147.405 154.902L146.502 157.763C144.063 156.993 141.672 156.888 139.276 157.425L138.62 154.498L137.964 151.57C141.42 150.796 144.886 150.961 148.308 152.041L147.405 154.902ZM138.62 154.498L139.276 157.425C136.229 158.108 133.169 158.596 130.098 158.887L129.814 155.901L129.531 152.914C132.348 152.647 135.159 152.199 137.964 151.57L138.62 154.498ZM129.814 155.901L130.098 158.887C126.851 159.196 123.599 159.014 120.35 158.349L120.952 155.41L121.554 152.471C124.233 153.02 126.889 153.165 129.531 152.914L129.814 155.901ZM120.952 155.41L120.35 158.349C117.45 157.756 115.186 157.422 113.514 157.315L113.706 154.321L113.897 151.327C115.959 151.459 118.526 151.851 121.554 152.471L120.952 155.41ZM113.706 154.321L113.514 157.315C112.698 157.263 111.767 157.054 110.915 156.491C110.016 155.897 109.415 155.045 109.107 154.091C108.56 152.4 108.979 150.563 109.499 149.077L112.331 150.067L115.162 151.058C114.972 151.603 114.889 151.98 114.861 152.216C114.832 152.463 114.877 152.433 114.816 152.246C114.783 152.142 114.72 152.002 114.609 151.853C114.498 151.702 114.363 151.578 114.224 151.486C113.953 151.307 113.78 151.32 113.897 151.327L113.706 154.321ZM112.331 150.067L109.499 149.077C110.485 146.257 111.657 143.401 113.011 140.509L115.728 141.781L118.445 143.053C117.17 145.775 116.077 148.443 115.162 151.058L112.331 150.067ZM115.728 141.781L113.011 140.509C114.753 136.788 117.799 134.532 121.867 133.995L122.26 136.969L122.652 139.944C120.639 140.209 119.331 141.161 118.445 143.053L115.728 141.781ZM122.26 136.969L121.867 133.995C125.529 133.512 129.094 134.144 132.493 135.822L131.166 138.512L129.839 141.202C127.444 140.021 125.071 139.625 122.652 139.944L122.26 136.969ZM131.166 138.512L132.493 135.822C134.724 136.922 136.976 137.132 139.394 136.456L140.202 139.345L141.009 142.234C137.175 143.306 133.402 142.96 129.839 141.202L131.166 138.512ZM140.202 139.345L139.394 136.456C143.081 135.426 146.727 135.502 150.239 136.75L149.235 139.577L148.231 142.404C145.953 141.595 143.576 141.517 141.009 142.234L140.202 139.345ZM149.235 139.577L150.239 136.75C153.225 137.81 156.084 138.986 158.815 140.279L157.531 142.991L156.247 145.702C153.708 144.5 151.037 143.4 148.231 142.404L149.235 139.577ZM157.531 142.991L158.815 140.279C161.31 141.461 163.953 142.477 166.747 143.327L165.874 146.197L165.001 149.068C161.939 148.136 159.02 147.015 156.247 145.702L157.531 142.991ZM165.874 146.197L166.747 143.327C167.772 143.639 168.321 143.546 168.598 143.438C168.856 143.337 169.264 143.074 169.713 142.242L172.353 143.667L174.992 145.093C174.05 146.838 172.681 148.285 170.78 149.027C168.897 149.762 166.902 149.646 165.001 149.068L165.874 146.197ZM172.353 143.667L169.713 142.242C171.31 139.285 173.413 136.968 176.142 135.66L177.438 138.365L178.735 141.07C177.467 141.678 176.179 142.896 174.992 145.093L172.353 143.667ZM177.438 138.365L176.142 135.66C176.514 135.481 176.706 135.268 176.844 134.957C177.011 134.577 177.16 133.882 177.058 132.703L180.046 132.443L183.035 132.183C183.192 133.994 183.037 135.781 182.335 137.375C181.603 139.037 180.361 140.291 178.735 141.07L177.438 138.365ZM180.046 132.443L177.058 132.703C176.829 130.07 176.163 127.745 175.093 125.691L177.754 124.305L180.415 122.919C181.881 125.736 182.744 128.837 183.035 132.183L180.046 132.443ZM177.754 124.305L175.093 125.691C174.375 124.311 173.16 123.41 170.823 123.189L171.106 120.202L171.389 117.215C175.379 117.593 178.596 119.427 180.415 122.919L177.754 124.305ZM171.106 120.202L170.823 123.189C167.353 122.86 164.114 122.021 161.13 120.647L162.384 117.922L163.638 115.197C165.957 116.264 168.532 116.945 171.389 117.215L171.106 120.202ZM162.384 117.922L161.13 120.647C159.081 119.704 156.917 119.454 154.539 119.935L153.945 116.994L153.35 114.054C156.922 113.331 160.385 113.7 163.638 115.197L162.384 117.922ZM153.945 116.994L154.539 119.935C151.292 120.592 148.004 120.793 144.682 120.542L144.909 117.55L145.135 114.559C147.912 114.769 150.647 114.6 153.35 114.054L153.945 116.994ZM144.909 117.55L144.682 120.542C141.661 120.313 138.681 120.13 135.74 119.994L135.879 116.997L136.018 114C139.019 114.14 142.058 114.326 145.135 114.559L144.909 117.55ZM135.879 116.997L135.74 119.994C133.217 119.877 130.524 120.305 127.639 121.346L126.62 118.524L125.602 115.702C129.122 114.432 132.602 113.842 136.018 114L135.879 116.997ZM126.62 118.524L127.639 121.346C125.663 122.059 123.405 122.347 121.358 121.292C119.278 120.22 118.242 118.193 117.757 116.154L120.675 115.46L123.594 114.766C123.87 115.926 124.204 116.009 124.107 115.958C124.041 115.925 124.375 116.145 125.602 115.702L126.62 118.524ZM120.675 115.46L117.757 116.154C116.82 112.218 117.382 108.493 119.604 105.238L122.081 106.93L124.559 108.621C123.384 110.343 123.008 112.305 123.594 114.766L120.675 115.46ZM122.081 106.93L119.604 105.238C121.285 102.775 122.955 100.249 124.613 97.6587L127.139 99.2763L129.666 100.894C127.977 103.532 126.275 106.107 124.559 108.621L122.081 106.93ZM127.139 99.2763L124.613 97.6587C126.233 95.1277 127.059 93.3378 127.343 92.1923L130.255 92.9144L133.167 93.6365C132.644 95.7457 131.392 98.1971 129.666 100.894L127.139 99.2763ZM130.255 92.9144L127.343 92.1923C127.669 90.8777 127.929 88.61 128.058 85.2309L131.056 85.3454L134.054 85.46C133.922 88.918 133.648 91.6963 133.167 93.6365L130.255 92.9144ZM131.056 85.3454L128.058 85.2309C128.226 80.837 130.232 77.3515 134.036 75.228L135.498 77.8475L136.96 80.467C135.103 81.5037 134.147 83.0168 134.054 85.46L131.056 85.3454ZM135.498 77.8475L134.036 75.228C137.163 73.4824 140.413 72.3527 143.777 71.8768L144.198 74.8473L144.618 77.8177C142.043 78.1819 139.494 79.0524 136.96 80.467L135.498 77.8475ZM144.198 74.8473L143.777 71.8768C144.78 71.735 145.44 71.4072 145.906 70.9987C146.379 70.5843 146.832 69.9304 147.161 68.8591L150.029 69.7413L152.896 70.6235C152.308 72.5361 151.329 74.2251 149.859 75.5127C148.382 76.8062 146.585 77.5394 144.618 77.8177L144.198 74.8473ZM150.029 69.7413L147.161 68.8591C147.967 66.2398 148.249 63.6018 148.015 60.9243L151.004 60.663L153.992 60.4018C154.295 63.8608 153.926 67.275 152.896 70.6235L150.029 69.7413ZM151.004 60.663L148.015 60.9243C147.764 58.0569 147.231 55.2553 146.414 52.5166L149.289 51.6593L152.164 50.802C153.097 53.9317 153.706 57.1327 153.992 60.4018L151.004 60.663ZM149.289 51.6593L146.414 52.5166C145.447 49.2734 145.017 45.955 145.125 42.5738L148.124 42.6702L151.122 42.7665C151.034 45.5024 151.381 48.1768 152.164 50.802L149.289 51.6593ZM148.124 42.6702L145.125 42.5738C145.215 39.7927 144.922 37.0526 144.247 34.3457L147.158 33.6198L150.069 32.8939C150.878 36.1371 151.229 39.4306 151.122 42.7665L148.124 42.6702ZM147.158 33.6198L144.247 34.3457C143.444 31.1228 143.061 27.855 143.102 24.5484L146.102 24.5853L149.101 24.6222C149.067 27.4116 149.389 30.1668 150.069 32.8939L147.158 33.6198ZM146.102 24.5853L143.102 24.5484C143.135 21.8376 142.721 19.1514 141.849 16.4776L144.701 15.5475L147.554 14.6175C148.623 17.8981 149.143 21.237 149.101 24.6222L146.102 24.5853ZM144.701 15.5475L141.849 16.4776C140.795 13.2435 140.151 9.7954 139.902 6.14522L142.895 5.94152L145.888 5.73782C146.107 8.9412 146.667 11.8971 147.554 14.6175L144.701 15.5475ZM142.895 5.94152L139.902 6.14522C139.853 5.41697 139.76 5.08684 139.73 5.00719C139.682 4.88387 139.9 5.57135 140.807 5.88448C141.722 6.20031 142.326 5.7877 142.225 5.84935C142.16 5.88904 141.891 6.08817 141.412 6.63253L139.159 4.65115L136.907 2.66977C137.557 1.93086 138.29 1.2213 139.101 0.726885C139.875 0.254429 141.229 -0.317708 142.766 0.213199C144.295 0.741387 145.01 2.01851 145.332 2.85941C145.671 3.74397 145.821 4.75268 145.888 5.73782L142.895 5.94152ZM139.159 4.65115L141.412 6.63253C139.293 9.04085 137.592 11.4869 136.287 13.9677L133.632 12.5712L130.977 11.1747C132.527 8.22856 134.51 5.39453 136.907 2.66977L139.159 4.65115ZM133.632 12.5712L136.287 13.9677C134.887 16.6302 133.548 19.3619 132.271 22.1629L129.541 20.9183L126.812 19.6736C128.135 16.7723 129.523 13.9392 130.977 11.1747L133.632 12.5712ZM129.541 20.9183L132.271 22.1629C130.815 25.3566 128.814 28.1888 126.283 30.6451L124.193 28.4921L122.104 26.3391C124.103 24.3994 125.668 22.1823 126.812 19.6736L129.541 20.9183ZM124.193 28.4921L126.283 30.6451C123.854 33.0011 121.236 35.011 118.428 36.6645L116.906 34.0793L115.384 31.4941C117.762 30.0941 120.002 28.3791 122.104 26.3391L124.193 28.4921ZM116.906 34.0793L118.428 36.6645C117.407 37.2653 117.173 37.6823 117.14 37.7594C117.133 37.7761 117.135 37.7692 117.136 37.7775C117.137 37.8003 117.15 37.9209 117.269 38.1573L114.587 39.5023L111.906 40.8474C111.069 39.1782 110.823 37.2715 111.623 35.4009C112.363 33.6703 113.811 32.4201 115.384 31.4941L116.906 34.0793ZM114.587 39.5023L117.269 38.1573C118.103 39.8206 118.333 41.6474 117.775 43.4782C117.245 45.2193 116.089 46.6791 114.69 47.9015L112.716 45.6421L110.743 43.3827C111.638 42.6005 111.943 42.0347 112.036 41.7293C112.101 41.5135 112.119 41.2727 111.906 40.8474L114.587 39.5023ZM112.716 45.6421L114.69 47.9015C112.498 49.8165 110.975 51.4647 110.02 52.8457L107.552 51.14L105.084 49.4343C106.426 47.4939 108.346 45.4767 110.743 43.3827L112.716 45.6421ZM107.552 51.14L110.02 52.8457C109.818 53.1379 109.429 53.9586 110.665 56.2173L108.033 57.6573L105.402 59.0972C103.7 55.9878 102.991 52.4637 105.084 49.4343L107.552 51.14ZM108.033 57.6573L110.665 56.2173C112.021 58.6959 113.673 61.031 115.625 63.2239L113.385 65.2191L111.145 67.2143C108.899 64.6929 106.983 61.9868 105.402 59.0972L108.033 57.6573ZM113.385 65.2191L115.625 63.2239C118.155 66.0637 119.468 69.3824 118.637 72.9681L115.715 72.2909L112.792 71.6137C113.054 70.4846 112.814 69.0887 111.145 67.2143L113.385 65.2191ZM115.715 72.2909L118.637 72.9681C118.194 74.88 118.131 77.1354 118.537 79.7827L115.571 80.2374L112.606 80.692C112.11 77.4588 112.143 74.4167 112.792 71.6137L115.715 72.2909ZM115.571 80.2374L118.537 79.7827C119.045 83.0967 118.838 86.1934 117.602 88.8638L114.88 87.6041L112.157 86.3445C112.745 85.0729 112.999 83.2584 112.606 80.692L115.571 80.2374ZM114.88 87.6041L117.602 88.8638C116.784 90.633 116.024 92.8151 115.338 95.4383L112.436 94.6799L109.533 93.9215C110.283 91.0524 111.152 88.5173 112.157 86.3445L114.88 87.6041ZM112.436 94.6799L115.338 95.4383C115.019 96.6584 114.978 97.3764 115.014 97.7228C115.044 98.0205 115.071 97.6248 114.591 97.3146L112.963 99.8349L111.336 102.355C109.786 101.354 109.19 99.7544 109.045 98.3337C108.905 96.9619 109.134 95.4477 109.533 93.9215L112.436 94.6799ZM112.963 99.8349L114.465 97.2376L116.086 98.1747L114.585 100.772L113.083 103.369L111.462 102.432L112.963 99.8349ZM114.585 100.772L117.539 101.294L117.521 101.392L114.567 100.871L111.613 100.349L111.63 100.25L114.585 100.772ZM99.2902 100.262L99.8383 103.212C99.5505 103.265 98.7409 103.405 97.8604 103.086C97.334 102.896 96.7012 102.509 96.2512 101.802C95.8092 101.106 95.7313 100.396 95.7614 99.8905C95.8131 99.0237 96.2001 98.365 96.356 98.1097C96.5686 97.7618 96.8242 97.4327 97.0703 97.1419L99.3607 99.0794L101.651 101.017C101.506 101.189 101.465 101.256 101.476 101.238C101.483 101.226 101.529 101.151 101.581 101.022C101.628 100.907 101.728 100.632 101.751 100.248C101.775 99.8405 101.715 99.2122 101.315 98.5824C100.906 97.94 100.339 97.6022 99.9013 97.444C99.4992 97.2986 99.1718 97.2876 99.0283 97.2886C98.8687 97.2898 98.765 97.3084 98.7422 97.3127L99.2902 100.262ZM99.3607 99.0794L97.0703 97.1419C97.3152 96.8523 97.5942 96.5486 97.897 96.2836C98.12 96.0884 98.6895 95.607 99.5108 95.4027C99.9864 95.2843 100.695 95.2236 101.462 95.5267C102.253 95.839 102.76 96.4 103.048 96.9015C103.526 97.7319 103.516 98.5723 103.51 98.8573L100.511 98.7931L97.5118 98.7288C97.5112 98.7549 97.5096 98.8655 97.5357 99.0292C97.5592 99.1763 97.6268 99.5101 97.8479 99.8943C98.0905 100.316 98.5386 100.823 99.2584 101.107C99.955 101.382 100.58 101.32 100.96 101.225C101.322 101.135 101.566 100.993 101.666 100.931C101.779 100.86 101.841 100.805 101.849 100.798C101.86 100.789 101.798 100.844 101.651 101.017L99.3607 99.0794ZM100.511 98.7931L103.51 98.8573C103.502 99.2362 103.492 99.5634 103.476 99.8181C103.469 99.9402 103.458 100.089 103.44 100.235C103.432 100.305 103.416 100.422 103.387 100.558C103.38 100.592 103.302 101.02 103.039 101.476L100.441 99.9759L97.8424 98.4761C97.7586 98.6212 97.7019 98.7479 97.6659 98.8361C97.6287 98.9273 97.602 99.0059 97.5836 99.0645C97.5479 99.1784 97.5271 99.2701 97.5164 99.3211C97.4951 99.4219 97.4864 99.4936 97.4847 99.5077C97.4805 99.5422 97.4825 99.536 97.487 99.461C97.4953 99.3214 97.5041 99.0842 97.5118 98.7288L100.511 98.7931ZM100.441 99.9759L103.039 101.476C102.581 102.268 101.893 102.608 101.839 102.637C101.637 102.746 101.46 102.813 101.369 102.846C101.174 102.917 100.985 102.967 100.854 102.999C100.573 103.069 100.223 103.14 99.8383 103.212L99.2902 100.262L98.7422 97.3127C99.093 97.2475 99.3022 97.2025 99.405 97.1769C99.466 97.1617 99.4244 97.1693 99.3331 97.2023C99.2937 97.2165 99.1577 97.2661 98.9859 97.359C98.8988 97.406 98.7468 97.4939 98.5738 97.6302C98.422 97.7498 98.1045 98.0219 97.8424 98.4761L100.441 99.9759ZM100.394 100.057L102.103 97.5918L102.185 97.6488L100.476 100.114L98.7664 102.579L98.6842 102.522L100.394 100.057ZM100.476 100.114L103.356 99.2741C104.736 104.007 106.499 106.456 108.204 107.509L106.626 110.061L105.048 112.613C101.468 110.399 99.1309 106.217 97.5958 100.954L100.476 100.114ZM106.626 110.061L108.204 107.509C109.183 108.115 109.691 108.126 109.857 108.105C109.956 108.093 110.262 108.039 110.754 107.404L113.125 109.242L115.495 111.081C114.298 112.625 112.675 113.797 110.607 114.058C108.608 114.31 106.711 113.641 105.048 112.613L106.626 110.061ZM113.125 109.242L110.754 107.404C112.266 105.454 112.539 104.257 112.5 103.665L115.493 103.466L118.487 103.267C118.67 106.017 117.364 108.671 115.495 111.081L113.125 109.242ZM115.493 103.466L112.5 103.665C112.447 102.868 112.384 102.411 112.34 102.203C112.313 102.078 112.325 102.2 112.434 102.421C112.49 102.533 112.634 102.804 112.92 103.088C113.221 103.389 113.781 103.799 114.599 103.895L114.947 100.915L115.295 97.9351C117.013 98.1358 117.703 99.5403 117.812 99.7609C118.03 100.202 118.142 100.647 118.207 100.946C118.344 101.589 118.428 102.393 118.487 103.267L115.493 103.466ZM114.947 100.915L114.988 103.915L114.522 103.921L114.481 100.921L114.44 97.9215L114.906 97.9151L114.947 100.915ZM114.481 100.921L112.96 98.3353L113.046 98.2846L114.567 100.871L116.088 103.456L116.002 103.507L114.481 100.921ZM114.432 96.8678L111.434 96.9689C111.412 96.3229 111.386 95.8366 111.359 95.4939C111.325 95.0627 111.302 95.0694 111.354 95.2492C111.37 95.3077 111.43 95.512 111.566 95.7633C111.637 95.8949 112.066 96.708 113.104 97.1027C114.547 97.6516 115.712 96.9448 116.192 96.4927C116.594 96.1135 116.774 95.7236 116.814 95.6392C116.964 95.3165 116.958 95.1419 116.883 95.5893L113.924 95.094L110.965 94.5987C111.015 94.3031 111.122 93.6453 111.378 93.0988C111.443 92.9586 111.649 92.5289 112.076 92.1263C112.581 91.6507 113.77 90.9367 115.237 91.4946C116.298 91.8983 116.75 92.7366 116.844 92.9097C117.002 93.2024 117.084 93.4644 117.122 93.5968C117.258 94.0722 117.31 94.6342 117.34 95.018C117.378 95.4903 117.407 96.0785 117.43 96.7667L114.432 96.8678ZM113.924 95.094L116.883 95.5893C116.772 96.2506 116.74 96.6705 116.741 96.9017C116.741 97.0144 116.75 97.0182 116.736 96.9474C116.725 96.8922 116.671 96.6282 116.461 96.3019L113.938 97.9243L111.414 99.5467C110.797 98.5874 110.744 97.5106 110.741 96.9304C110.737 96.2181 110.827 95.4233 110.965 94.5987L113.924 95.094ZM113.938 97.9243L116.461 96.3019C117.087 97.2754 117.328 98.4072 117.43 99.389L114.446 99.6981L111.462 100.007C111.435 99.7459 111.399 99.5823 111.374 99.4946C111.348 99.4035 111.346 99.4413 111.414 99.5467L113.938 97.9243ZM114.446 99.6981L117.43 99.389C117.439 99.48 117.44 99.4672 117.43 99.4072C117.426 99.3869 117.418 99.3422 117.405 99.2832C117.396 99.2421 117.365 99.1045 117.302 98.9319C117.272 98.8489 117.205 98.6753 117.088 98.4708C117.013 98.3395 116.709 97.8096 116.062 97.4106C115.689 97.1802 115.149 96.9628 114.483 96.9637C113.808 96.9647 113.244 97.1903 112.835 97.4601C112.136 97.9218 111.846 98.535 111.778 98.6794C111.595 99.0669 111.543 99.4044 111.538 99.4333C111.52 99.5366 111.512 99.6161 111.509 99.6481C111.506 99.687 111.504 99.7155 111.503 99.7282C111.503 99.7423 111.502 99.7505 111.502 99.751C111.502 99.7511 111.503 99.7383 111.503 99.708C111.503 99.679 111.503 99.6405 111.503 99.5911C111.501 99.1694 111.479 98.3085 111.434 96.9689L114.432 96.8678L117.43 96.7667C117.475 98.0956 117.501 99.0407 117.503 99.5624C117.504 99.6924 117.503 99.8277 117.499 99.9483C117.497 100.004 117.494 100.098 117.484 100.203C117.479 100.253 117.469 100.348 117.449 100.463C117.442 100.504 117.388 100.85 117.203 101.242C117.134 101.389 116.842 102.004 116.142 102.467C115.733 102.737 115.168 102.963 114.492 102.964C113.825 102.965 113.285 102.747 112.911 102.516C112.263 102.116 111.957 101.585 111.881 101.451C111.762 101.244 111.694 101.067 111.662 100.98C111.557 100.688 111.517 100.429 111.515 100.414C111.489 100.266 111.472 100.112 111.462 100.007L114.446 99.6981Z" fill="#1C5B0B"/>
<defs>
<filter id="filter0_i_54_20" x="0" y="0" width="192.422" height="229.169" filterUnits="userSpaceOnUse" color-interpolation-filters="sRGB">
<feFlood flood-opacity="0" result="BackgroundImageFix"/>
<feBlend mode="normal" in="SourceGraphic" in2="BackgroundImageFix" result="shape"/>
<feColorMatrix in="SourceAlpha" type="matrix" values="0 0 0 0 0 0 0 0 0 0 0 0 0 0 0 0 0 0 127 0" result="hardAlpha"/>
<feOffset dx="-31" dy="4"/>
<feComposite in2="hardAlpha" operator="arithmetic" k2="-1" k3="1"/>
<feColorMatrix type="matrix" values="0 0 0 0 0.271651 0 0 0 0 0.51123 0 0 0 0 0.0884438 0 0 0 0.25 0"/>
<feBlend mode="normal" in2="shape" result="effect1_innerShadow_54_20"/>
</filter>
</defs>
</svg>
