<svg width="230" height="169" viewBox="0 0 230 169" fill="none" xmlns="http://www.w3.org/2000/svg">
<g filter="url(#filter0_i_54_15)">
<path d="M175.121 164.741C215.023 125.172 252.788 84.1689 204.907 69.7698C172.328 59.9726 161.239 57.9986 157.702 60.6528C157.951 35.9393 150.676 17.5648 128.148 16.2949C90.1339 14.1522 37.2201 -26.8184 60.2711 33.6063C69.697 58.3149 77.8338 77.7313 84.1308 91.8784C63.1019 65.312 33.7714 53.4907 22.1246 88.4599C7.56616 132.171 -13.7346 114.601 13.3604 129.6C35.0363 141.599 77.93 158.027 96.6673 164.741H175.121Z" fill="#AAAF7A"/>
</g>
<path d="M157.801 60.6628L158.014 63.6553L157.757 63.6735L157.501 63.6478L157.801 60.6628ZM171.02 61.0322L170.363 63.9595L171.02 61.0322ZM188.571 65.8979L188.716 62.9014L188.571 65.8979ZM197.628 67.3523L196.82 70.2414L197.628 67.3523ZM206.335 70.1615L207.367 67.3448L206.335 70.1615ZM221.405 113.403L224.236 114.395L221.405 113.403ZM210.22 128.001L207.378 127.039L210.22 128.001ZM198.157 141.693L200.718 143.254L198.157 141.693ZM177.86 160.109L175.395 158.4L177.86 160.109ZM170.938 164.828L170.312 161.894L170.938 164.828ZM162.095 164.136L163.092 161.306L162.095 164.136ZM98.0018 163.966L98.9986 166.796L98.0018 163.966ZM88.8322 164.257L89.7529 161.402L88.8322 164.257ZM80.3039 160.96L81.5432 158.228L80.3039 160.96ZM71.9574 157.199L73.1829 154.461L71.9574 157.199ZM47.0154 145.804L45.8472 148.567L47.0154 145.804ZM21.7148 135.244L23.3605 132.735L21.7148 135.244ZM13.6678 130.835L12.4405 133.572L13.6678 130.835ZM5.75536 126.271L7.51027 123.838L5.75536 126.271ZM8.28529 114.054L10.1353 116.416L8.28529 114.054ZM12.9983 106.556L15.9213 107.231L12.9983 106.556ZM29.5398 74.4704L30.9304 77.1286L29.5398 74.4704ZM37.341 68.8594L39.425 71.0174L37.341 68.8594ZM45.7064 65.3134L45.8328 68.3107L45.7064 65.3134ZM54.8015 67.4507L53.336 70.0684L54.8015 67.4507ZM71.3598 76.2788L73.0267 73.7845L71.3598 76.2788ZM84.5618 91.5373L86.4237 93.8895L86.2177 94.0526L85.9864 94.1774L84.5618 91.5373ZM84.0595 91.8083L81.9573 93.9486L79.0563 91.0992L82.6348 89.1682L84.0595 91.8083ZM157.692 60.7524L154.711 61.0895L154.677 60.785L154.705 60.4799L157.692 60.7524ZM154.119 87.8406L152.612 90.4348L152.506 90.373L152.405 90.3027L154.119 87.8406ZM155.013 88.36L156.52 85.7658L158.098 86.6824L158.01 88.5055L155.013 88.36ZM155.008 88.4599L157.991 88.7841L157.985 88.8361L157.978 88.8877L155.008 88.4599ZM155.019 88.3605L158.014 88.1944L158.028 88.4401L158.001 88.6847L155.019 88.3605ZM156.068 74.8L153.239 73.8012L156.068 74.8ZM157.257 65.8184L160.248 65.5787L157.257 65.8184ZM157.296 60.9485L155.529 58.5244L155.737 58.3728L155.967 58.2588L157.296 60.9485ZM157.693 60.7524L160.682 61.0127L160.535 62.6944L159.022 63.4421L157.693 60.7524ZM157.689 60.5536L160.562 59.6891L160.634 59.928L160.665 60.1755L157.689 60.5536ZM156.619 46.903L159.469 47.841L156.619 46.903ZM155.49 38.0945L153.011 39.7839L155.49 38.0945ZM137.196 19.4363L135.513 21.9201L137.196 19.4363ZM129.047 15.5048L129.958 12.6465L129.047 15.5048ZM102.512 9.90706L103.867 7.23057L102.512 9.90706ZM84.523 6.23541L83.0613 8.85523L84.523 6.23541ZM75.9427 3.42239L76.3069 0.44457L75.9427 3.42239ZM53.744 9.90355L56.7415 9.78056L53.744 9.90355ZM55.4349 19.2614L52.5932 20.2232L55.4349 19.2614ZM65.2286 44.8845L67.452 42.8704L65.2286 44.8845ZM68.2093 53.5245L65.2144 53.35L68.2093 53.5245ZM78.8706 78.6983L80.9682 76.5535L78.8706 78.6983ZM84.2533 86.3012L86.9925 85.0777L84.2533 86.3012ZM85.1195 91.1662L86.873 93.6004L86.7739 93.6718L86.6693 93.7349L85.1195 91.1662ZM84.0914 91.7865L81.3346 92.9697L80.3037 90.568L82.5416 89.2178L84.0914 91.7865ZM154.994 88.5589L157.963 88.9867L157.913 89.3372L157.782 89.6662L154.994 88.5589ZM152.105 101.865L155.086 101.524L152.105 101.865ZM151.509 120.223L148.517 120.015L151.509 120.223ZM150.679 127.305L153.618 127.905L150.679 127.305ZM149.5 129.709L149.014 132.67L148.796 132.634L148.585 132.566L149.5 129.709ZM148.851 129.501L145.887 129.038L146.428 125.576L149.765 126.644L148.851 129.501ZM151.799 130.063C151.543 131.7 150.009 132.82 148.372 132.564C146.735 132.308 145.615 130.774 145.871 129.137L148.835 129.6L151.799 130.063ZM84.1733 91.9689L86.8887 90.6934L86.9812 90.8903L87.0443 91.0985L84.1733 91.9689ZM90.3238 104.065L88.2421 106.225L90.3238 104.065ZM96.4057 117.238L99.2543 116.297L99.2628 116.322L99.2708 116.348L96.4057 117.238ZM96.6236 117.94L93.9252 119.25L93.8259 119.046L93.7585 118.829L96.6236 117.94ZM99.3658 116.719C100.09 118.209 99.4685 120.004 97.9782 120.728C96.4879 121.452 94.6929 120.831 93.9689 119.34L96.6673 118.03L99.3658 116.719ZM157.702 60.6528L158.002 57.6679L158.101 57.6779L157.801 60.6628L157.501 63.6478L157.401 63.6377L157.702 60.6528ZM157.801 60.6628L157.588 57.6704C163.517 57.2485 168.279 57.3432 171.676 58.1049L171.02 61.0322L170.363 63.9595C167.847 63.3953 163.798 63.2437 158.014 63.6553L157.801 60.6628ZM171.02 61.0322L171.676 58.1049C174.817 58.8092 177.883 59.8067 180.871 61.0951L179.684 63.8499L178.496 66.6048C175.846 65.4622 173.135 64.5811 170.363 63.9595L171.02 61.0322ZM179.684 63.8499L180.871 61.0951C183.356 62.1663 185.965 62.7687 188.716 62.9014L188.571 65.8979L188.427 68.8944C184.966 68.7275 181.65 67.9646 178.496 66.6048L179.684 63.8499ZM188.571 65.8979L188.716 62.9014C192.042 63.0618 195.283 63.5815 198.436 64.4631L197.628 67.3523L196.82 70.2414C194.109 69.4835 191.313 69.0336 188.427 68.8944L188.571 65.8979ZM197.628 67.3523L198.436 64.4631C201.444 65.3042 204.421 66.2648 207.367 67.3448L206.335 70.1615L205.302 72.9783C202.503 71.9522 199.675 71.0399 196.82 70.2414L197.628 67.3523ZM206.335 70.1615L207.367 67.3448C210.35 68.4382 213.25 69.6986 216.066 71.1263L214.71 73.8021L213.353 76.478C210.749 75.1576 208.065 73.9911 205.302 72.9783L206.335 70.1615ZM214.71 73.8021L216.066 71.1263C219.306 72.7688 221.825 75.1899 223.546 78.3492L220.912 79.7845L218.278 81.2197C217.15 79.1505 215.534 77.5834 213.353 76.478L214.71 73.8021ZM220.912 79.7845L223.546 78.3492C224.999 81.0159 226.332 83.6517 227.543 86.2563L224.822 87.5211L222.102 88.786C220.948 86.3035 219.673 83.7815 218.278 81.2197L220.912 79.7845ZM224.822 87.5211L227.543 86.2563C228.952 89.2872 229.522 92.5587 229.293 96.0122L226.3 95.8141L223.307 95.6161C223.473 93.0993 223.058 90.8422 222.102 88.786L224.822 87.5211ZM226.3 95.8141L229.293 96.0122C229.078 99.2745 228.416 102.477 227.316 105.613L224.485 104.619L221.654 103.626C222.579 100.992 223.127 98.324 223.307 95.6161L226.3 95.8141ZM224.485 104.619L227.316 105.613C226.304 108.498 225.277 111.425 224.236 114.395L221.405 113.403L218.574 112.411C219.615 109.44 220.642 106.512 221.654 103.626L224.485 104.619ZM221.405 113.403L224.236 114.395C222.976 117.99 220.703 120.908 217.51 123.099L215.812 120.626L214.114 118.153C216.296 116.655 217.751 114.757 218.574 112.411L221.405 113.403ZM215.812 120.626L217.51 123.099C215.354 124.579 213.893 126.509 213.061 128.964L210.22 128.001L207.378 127.039C208.628 123.349 210.896 120.362 214.114 118.153L215.812 120.626ZM210.22 128.001L213.061 128.964C211.804 132.674 209.507 135.623 206.222 137.7L204.618 135.165L203.015 132.63C205.116 131.3 206.553 129.473 207.378 127.039L210.22 128.001ZM204.618 135.165L206.222 137.7C203.908 139.164 202.086 141.011 200.718 143.254L198.157 141.693L195.595 140.131C197.457 137.078 199.943 134.573 203.015 132.63L204.618 135.165ZM198.157 141.693L200.718 143.254C198.901 146.235 196.582 148.766 193.774 150.829L191.998 148.411L190.221 145.994C192.397 144.395 194.183 142.447 195.595 140.131L198.157 141.693ZM191.998 148.411L193.774 150.829C191.244 152.688 188.665 154.489 186.037 156.231L184.379 153.731L182.722 151.231C185.269 149.541 187.769 147.796 190.221 145.994L191.998 148.411ZM184.379 153.731L186.037 156.231C183.765 157.738 181.866 159.596 180.326 161.819L177.86 160.109L175.395 158.4C177.372 155.549 179.819 153.155 182.722 151.231L184.379 153.731ZM177.86 160.109L180.326 161.819C178.159 164.943 175.212 166.983 171.565 167.762L170.938 164.828L170.312 161.894C172.376 161.454 174.044 160.348 175.395 158.4L177.86 160.109ZM170.938 164.828L171.565 167.762C168.114 168.498 164.603 168.2 161.098 166.965L162.095 164.136L163.092 161.306C165.666 162.213 168.052 162.376 170.312 161.894L170.938 164.828ZM162.095 164.136L161.098 166.965C158.692 166.118 156.345 166.106 153.945 166.926L152.975 164.087L152.005 161.249C155.685 159.991 159.418 160.012 163.092 161.306L162.095 164.136ZM152.975 164.087L153.945 166.926C150.24 168.192 146.485 168.126 142.802 166.745L143.855 163.936L144.908 161.127C147.305 162.025 149.63 162.06 152.005 161.249L152.975 164.087ZM143.855 163.936L142.802 166.745C140.101 165.732 137.446 165.28 134.82 165.355L134.735 162.356L134.649 159.357C138.103 159.259 141.529 159.86 144.908 161.127L143.855 163.936ZM134.735 162.356L134.82 165.355C131.739 165.443 128.657 165.466 125.575 165.426L125.615 162.426L125.655 159.426C128.653 159.466 131.651 159.443 134.649 159.357L134.735 162.356ZM125.615 162.426L125.575 165.426C122.716 165.388 119.854 165.607 116.988 166.085L116.495 163.126L116.002 160.166C119.215 159.631 122.434 159.384 125.655 159.426L125.615 162.426ZM116.495 163.126L116.988 166.085C113.611 166.648 110.227 166.63 106.852 166.032L107.375 163.078L107.898 160.124C110.603 160.603 113.299 160.617 116.002 160.166L116.495 163.126ZM107.375 163.078L106.852 166.032C104.371 165.593 101.771 165.819 98.9986 166.796L98.0018 163.966L97.005 161.137C100.65 159.852 104.298 159.487 107.898 160.124L107.375 163.078ZM98.0018 163.966L98.9986 166.796C95.2457 168.118 91.5122 168.273 87.9115 167.112L88.8322 164.257L89.7529 161.402C91.961 162.114 94.3406 162.075 97.005 161.137L98.0018 163.966ZM88.8322 164.257L87.9115 167.112C84.8985 166.141 81.9494 165 79.0646 163.692L80.3039 160.96L81.5432 158.228C84.2206 159.442 86.957 160.5 89.7529 161.402L88.8322 164.257ZM80.3039 160.96L79.0646 163.692C76.2881 162.432 73.5105 161.181 70.7318 159.937L71.9574 157.199L73.1829 154.461C75.9708 155.708 78.7576 156.964 81.5432 158.228L80.3039 160.96ZM71.9574 157.199L70.7318 159.937C67.7736 158.613 64.9374 157.006 62.2242 155.118L63.9375 152.655L65.6507 150.193C68.0641 151.872 70.5744 153.293 73.1829 154.461L71.9574 157.199ZM63.9375 152.655L62.2242 155.118C59.9383 153.528 57.4915 152.385 54.8727 151.677L55.6559 148.781L56.439 145.885C59.7358 146.776 62.8101 148.217 65.6507 150.193L63.9375 152.655ZM55.6559 148.781L54.8727 151.677C51.7846 150.842 48.7758 149.805 45.8472 148.567L47.0154 145.804L48.1837 143.04C50.8601 144.172 53.6115 145.12 56.439 145.885L55.6559 148.781ZM47.0154 145.804L45.8472 148.567C42.8973 147.32 40.0527 145.84 37.3144 144.129L38.9039 141.585L40.4934 139.041C42.9654 140.585 45.5285 141.918 48.1837 143.04L47.0154 145.804ZM38.9039 141.585L37.3144 144.129C35.0735 142.73 32.5968 141.827 29.8526 141.428L30.284 138.459L30.7154 135.49C34.254 136.005 37.5239 137.186 40.4934 139.041L38.9039 141.585ZM30.284 138.459L29.8526 141.428C26.292 140.911 23.0187 139.687 20.069 137.752L21.7148 135.244L23.3605 132.735C25.5537 134.174 27.9932 135.095 30.7154 135.49L30.284 138.459ZM21.7148 135.244L20.069 137.752C17.6302 136.152 15.0878 134.759 12.4405 133.572L13.6678 130.835L14.8951 128.097C17.8344 129.415 20.6566 130.961 23.3605 132.735L21.7148 135.244ZM13.6678 130.835L12.4405 133.572C9.46161 132.236 6.64732 130.613 4.00044 128.704L5.75536 126.271L7.51027 123.838C9.82681 125.509 12.2875 126.928 14.8951 128.097L13.6678 130.835ZM5.75536 126.271L4.00044 128.704C2.48079 127.608 1.19016 126.246 0.505585 124.539C-0.211929 122.749 -0.136108 120.896 0.545776 119.153L3.33961 120.246L6.13347 121.339C5.94412 121.823 5.98695 122.087 6.07469 122.306C6.19537 122.607 6.54822 123.144 7.51027 123.838L5.75536 126.271ZM3.33961 120.246L0.545776 119.153C1.66119 116.301 3.70644 113.83 6.43527 111.693L8.28529 114.054L10.1353 116.416C8.01236 118.079 6.76047 119.736 6.13347 121.339L3.33961 120.246ZM8.28529 114.054L6.43527 111.693C8.30287 110.23 9.50832 108.334 10.0754 105.88L12.9983 106.556L15.9213 107.231C15.0561 110.975 13.1195 114.078 10.1353 116.416L8.28529 114.054ZM12.9983 106.556L10.0754 105.88C10.9139 102.252 12.6409 99.0694 15.2267 96.384L17.3877 98.4649L19.5487 100.546C17.7143 102.451 16.515 104.662 15.9213 107.231L12.9983 106.556ZM17.3877 98.4649L15.2267 96.384C17.1132 94.4248 18.394 92.2238 19.1134 89.757L21.9934 90.5969L24.8734 91.4368C23.8722 94.87 22.0825 97.9144 19.5487 100.546L17.3877 98.4649ZM21.9934 90.5969L19.1134 89.757C19.9493 86.8907 20.6784 83.9255 21.3 80.8608L24.2401 81.4571L27.1803 82.0535C26.5268 85.2751 25.7581 88.4031 24.8734 91.4368L21.9934 90.5969ZM24.2401 81.4571L21.3 80.8608C22.1211 76.8127 24.4706 73.7364 28.1493 71.8121L29.5398 74.4704L30.9304 77.1286C28.8179 78.2337 27.6343 79.8152 27.1803 82.0535L24.2401 81.4571ZM29.5398 74.4704L28.1493 71.8121C30.7962 70.4275 33.1621 68.7244 35.2571 66.7013L37.341 68.8594L39.425 71.0174C36.9096 73.4463 34.0747 75.4838 30.9304 77.1286L29.5398 74.4704ZM37.341 68.8594L35.2571 66.7013C38.1028 63.9534 41.5927 62.4842 45.58 62.316L45.7064 65.3134L45.8328 68.3107C43.2767 68.4185 41.1897 69.3133 39.425 71.0174L37.341 68.8594ZM45.7064 65.3134L45.58 62.316C49.3935 62.1552 52.9782 62.9918 56.267 64.8329L54.8015 67.4507L53.336 70.0684C51.0414 68.7838 48.5628 68.1955 45.8328 68.3107L45.7064 65.3134ZM54.8015 67.4507L56.267 64.8329C58.99 66.3574 61.7247 67.7478 64.4712 69.0048L63.2227 71.7326L61.9742 74.4605C59.0757 73.1339 56.1963 71.6696 53.336 70.0684L54.8015 67.4507ZM63.2227 71.7326L64.4712 69.0048C67.4403 70.3637 70.2925 71.9574 73.0267 73.7845L71.3598 76.2788L69.693 78.7731C67.2226 77.1223 64.65 75.6852 61.9742 74.4605L63.2227 71.7326ZM71.3598 76.2788L73.0267 73.7845C75.9441 75.734 78.4079 78.1614 80.4043 81.0519L77.9358 82.7568L75.4673 84.4616C73.9003 82.1928 71.9801 80.3015 69.693 78.7731L71.3598 76.2788ZM77.9358 82.7568L80.4043 81.0519C82.134 83.5564 83.6541 85.4677 84.9653 86.8343L82.8005 88.9112L80.6357 90.9881C79.0239 89.3082 77.3009 87.1164 75.4673 84.4616L77.9358 82.7568ZM82.8005 88.9112L84.9653 86.8343C85.7221 87.6231 86.3837 88.3761 86.8284 89.0392C87.0306 89.3406 87.3411 89.8436 87.5082 90.4582C87.6617 91.0228 87.9154 92.7088 86.4237 93.8895L84.5618 91.5373L82.6998 89.185C82.112 89.6503 81.7822 90.2877 81.6741 90.9004C81.5796 91.4361 81.6689 91.8503 81.7184 92.0322C81.8105 92.3712 81.9368 92.5174 81.8454 92.3812C81.703 92.1689 81.3404 91.7226 80.6357 90.9881L82.8005 88.9112ZM84.5618 91.5373L85.9864 94.1774L85.4842 94.4484L84.0595 91.8083L82.6348 89.1682L83.1371 88.8971L84.5618 91.5373ZM84.0595 91.8083L86.1617 89.668L86.233 89.7381L84.1308 91.8784L82.0286 94.0187L81.9573 93.9486L84.0595 91.8083ZM157.702 60.6528L160.689 60.9253L160.68 61.0249L157.692 60.7524L154.705 60.4799L154.714 60.3803L157.702 60.6528ZM157.692 60.7524L160.673 60.4153C161.319 66.1218 161.351 70.8454 160.606 74.4164L157.669 73.8035L154.732 73.1905C155.283 70.5497 155.331 66.5726 154.711 61.0895L157.692 60.7524ZM157.669 73.8035L160.606 74.4164C159.923 77.6883 158.972 80.8655 157.752 83.9461L154.963 82.8418L152.173 81.7376C153.266 78.9789 154.119 76.1305 154.732 73.1905L157.669 73.8035ZM154.963 82.8418L157.752 83.9461C157.198 85.3466 156.931 86.261 156.843 86.7808C156.798 87.0505 156.832 87.0359 156.805 86.8512C156.777 86.6695 156.62 85.9266 155.833 85.3785L154.119 87.8406L152.405 90.3027C151.321 89.5482 150.976 88.4422 150.871 87.7407C150.765 87.0362 150.832 86.3451 150.927 85.7817C151.12 84.6352 151.572 83.2567 152.173 81.7376L154.963 82.8418ZM154.119 87.8406L155.625 85.2464L156.52 85.7658L155.013 88.36L153.506 90.9543L152.612 90.4348L154.119 87.8406ZM155.013 88.36L158.01 88.5055L158.005 88.6053L155.008 88.4599L152.012 88.3145L152.017 88.2146L155.013 88.36ZM155.008 88.4599L152.026 88.1357L152.037 88.0363L155.019 88.3605L158.001 88.6847L157.991 88.7841L155.008 88.4599ZM155.019 88.3605L152.024 88.5266C151.68 82.3357 151.996 77.3217 153.239 73.8012L156.068 74.8L158.897 75.7989C158.065 78.1548 157.681 82.1812 158.014 88.1944L155.019 88.3605ZM156.068 74.8L153.239 73.8012C154.139 71.2523 154.477 68.6801 154.267 66.0581L157.257 65.8184L160.248 65.5787C160.527 69.0558 160.072 72.4713 158.897 75.7989L156.068 74.8ZM157.257 65.8184L154.267 66.0581C154.143 64.5078 154.076 63.2353 154.084 62.2899C154.087 61.83 154.109 61.3439 154.177 60.9025C154.211 60.6866 154.271 60.376 154.395 60.0432C154.488 59.7921 154.777 59.0721 155.529 58.5244L157.296 60.9485L159.064 63.3725C159.433 63.1032 159.657 62.805 159.782 62.6092C159.909 62.4091 159.981 62.237 160.019 62.1352C160.058 62.0283 160.08 61.9462 160.09 61.9028C160.101 61.8572 160.105 61.8293 160.106 61.8249C160.107 61.8193 160.101 61.8574 160.095 61.9545C160.089 62.0478 160.085 62.1739 160.084 62.3376C160.078 63.0156 160.128 64.0795 160.248 65.5787L157.257 65.8184ZM157.296 60.9485L155.967 58.2588L156.364 58.0627L157.693 60.7524L159.022 63.4421L158.625 63.6381L157.296 60.9485ZM157.693 60.7524L154.704 60.4922L154.713 60.3925L157.702 60.6528L160.69 60.9131L160.682 61.0127L157.693 60.7524ZM157.702 60.6528L154.725 61.0309L154.713 60.9317L157.689 60.5536L160.665 60.1755L160.678 60.2747L157.702 60.6528ZM157.689 60.5536L154.816 61.4181C152.994 55.3612 152.417 50.0737 153.77 45.9651L156.619 46.903L159.469 47.841C158.705 50.1616 158.842 53.9745 160.562 59.6891L157.689 60.5536ZM156.619 46.903L153.77 45.9651C154.554 43.5824 154.266 41.6254 153.011 39.7839L155.49 38.0945L157.969 36.405C160.336 39.879 160.801 43.7944 159.469 47.841L156.619 46.903ZM155.49 38.0945L153.011 39.7839C151.087 36.9618 149.502 34.0357 148.263 31.0061L151.039 29.8703L153.816 28.7345C154.888 31.3549 156.269 33.9116 157.969 36.405L155.49 38.0945ZM151.039 29.8703L148.263 31.0061C147.402 28.9026 145.99 27.4553 143.907 26.5424L145.111 23.7946L146.315 21.0469C149.825 22.5849 152.365 25.1881 153.816 28.7345L151.039 29.8703ZM145.111 23.7946L143.907 26.5424C140.946 25.2451 138.147 23.7045 135.513 21.9201L137.196 19.4363L138.878 16.9526C141.204 18.5283 143.682 19.8932 146.315 21.0469L145.111 23.7946ZM137.196 19.4363L135.513 21.9201C133.279 20.4067 130.824 19.2199 128.136 18.3632L129.047 15.5048L129.958 12.6465C133.175 13.6716 136.152 15.1058 138.878 16.9526L137.196 19.4363ZM129.047 15.5048L128.136 18.3632C125.286 17.4548 122.462 16.723 119.663 16.1661L120.249 13.2238L120.834 10.2815C123.862 10.884 126.903 11.6729 129.958 12.6465L129.047 15.5048ZM120.249 13.2238L119.663 16.1661C116.91 15.6182 114.069 15.2855 111.137 15.1706L111.254 12.1729L111.372 9.17524C114.606 9.30198 117.761 9.66985 120.834 10.2815L120.249 13.2238ZM111.254 12.1729L111.137 15.1706C107.624 15.033 104.287 14.1687 101.157 12.5836L102.512 9.90706L103.867 7.23057C106.226 8.42499 108.718 9.07126 111.372 9.17524L111.254 12.1729ZM102.512 9.90706L101.157 12.5836C98.9261 11.4542 96.4604 10.9617 93.6878 11.1513L93.483 8.15834L93.2783 5.16533C97.0542 4.90706 100.608 5.58039 103.867 7.23057L102.512 9.90706ZM93.483 8.15834L93.6878 11.1513C89.8712 11.4124 86.2999 10.6622 83.0613 8.85523L84.523 6.23541L85.9847 3.6156C88.1442 4.82046 90.5463 5.3522 93.2783 5.16533L93.483 8.15834ZM84.523 6.23541L83.0613 8.85523C80.6961 7.53559 78.2081 6.72176 75.5786 6.40021L75.9427 3.42239L76.3069 0.44457C79.7197 0.861905 82.9518 1.92342 85.9847 3.6156L84.523 6.23541ZM75.9427 3.42239L75.5786 6.40021C72.7075 6.04911 69.9375 5.93037 67.2663 6.03857L67.1449 3.04102L67.0235 0.0434828C70.0404 -0.0787184 73.1357 0.0567809 76.3069 0.44457L75.9427 3.42239ZM67.1449 3.04102L67.2663 6.03857C64.5791 6.14741 61.7428 6.47453 58.7547 7.02673L58.2095 4.07668L57.6644 1.12663C60.9018 0.528362 64.0224 0.16504 67.0235 0.0434828L67.1449 3.04102ZM58.2095 4.07668L58.7547 7.02673C57.7081 7.22015 57.3124 7.5644 57.1398 7.78967C56.9525 8.034 56.6922 8.57907 56.7415 9.78056L53.744 9.90355L50.7466 10.0265C50.6601 7.91868 51.0762 5.83795 52.3774 4.13999C53.6933 2.42297 55.5982 1.50846 57.6644 1.12663L58.2095 4.07668ZM53.744 9.90355L56.7415 9.78056C56.8664 12.8245 57.383 15.6597 58.2765 18.2996L55.4349 19.2614L52.5932 20.2232C51.5039 17.0047 50.8932 13.6012 50.7466 10.0265L53.744 9.90355ZM55.4349 19.2614L58.2765 18.2996C59.2898 21.2934 60.1914 24.2926 60.981 27.2973L58.0795 28.0598L55.178 28.8222C54.4243 25.9542 53.5629 23.0879 52.5932 20.2232L55.4349 19.2614ZM58.0795 28.0598L60.981 27.2973C61.7417 30.1922 62.5688 33.0873 63.4625 35.9828L60.5959 36.8675L57.7294 37.7523C56.811 34.7768 55.9605 31.8001 55.178 28.8222L58.0795 28.0598ZM60.5959 36.8675L63.4625 35.9828C64.2318 38.4751 65.5464 40.7669 67.452 42.8704L65.2286 44.8845L63.0052 46.8986C60.5459 44.1838 58.7722 41.1309 57.7294 37.7523L60.5959 36.8675ZM65.2286 44.8845L67.452 42.8704C70.1941 45.8975 71.4445 49.574 71.2042 53.699L68.2093 53.5245L65.2144 53.35C65.3645 50.7734 64.6278 48.6899 63.0052 46.8986L65.2286 44.8845ZM68.2093 53.5245L71.2042 53.699C71.0364 56.5797 71.5396 59.0903 72.6468 61.3064L69.9631 62.6472L67.2794 63.988C65.6577 60.7421 64.9918 57.171 65.2144 53.35L68.2093 53.5245ZM69.9631 62.6472L72.6468 61.3064C74.0513 64.1175 75.3256 66.9825 76.4694 69.9012L73.6763 70.9959L70.8831 72.0905C69.805 69.3396 68.6038 66.6389 67.2794 63.988L69.9631 62.6472ZM73.6763 70.9959L76.4694 69.9012C77.4133 72.3096 78.8951 74.526 80.9682 76.5535L78.8706 78.6983L76.773 80.843C74.1423 78.2702 72.1612 75.3517 70.8831 72.0905L73.6763 70.9959ZM78.8706 78.6983L80.9682 76.5535C83.567 79.0951 85.5893 81.9362 86.9925 85.0777L84.2533 86.3012L81.5142 87.5247C80.4442 85.1292 78.878 82.9017 76.773 80.843L78.8706 78.6983ZM84.2533 86.3012L86.9925 85.0777C87.642 86.5318 88.1419 87.8942 88.3509 89.068C88.4547 89.6512 88.522 90.3724 88.3904 91.117C88.2518 91.9014 87.8499 92.8967 86.873 93.6004L85.1195 91.1662L83.3661 88.732C82.7188 89.1983 82.5279 89.8129 82.4819 90.0731C82.4429 90.2937 82.4843 90.3473 82.4438 90.1197C82.364 89.6718 82.1013 88.8391 81.5142 87.5247L84.2533 86.3012ZM85.1195 91.1662L86.6693 93.7349L85.6411 94.3552L84.0914 91.7865L82.5416 89.2178L83.5698 88.5975L85.1195 91.1662ZM84.0914 91.7865L86.8482 90.6033L86.8876 90.6952L84.1308 91.8784L81.374 93.0616L81.3346 92.9697L84.0914 91.7865ZM155.008 88.4599L157.978 88.8877L157.963 88.9867L154.994 88.5589L152.025 88.1311L152.039 88.0321L155.008 88.4599ZM154.994 88.5589L157.782 89.6662C155.537 95.3185 154.817 99.1726 155.086 101.524L152.105 101.865L149.124 102.205C148.679 98.3118 149.885 93.2955 152.206 87.4516L154.994 88.5589ZM152.105 101.865L155.086 101.524C155.465 104.842 155.511 108.124 155.221 111.368L152.233 111.101L149.245 110.834C149.498 108.007 149.459 105.132 149.124 102.205L152.105 101.865ZM152.233 111.101L155.221 111.368C154.952 114.384 154.712 117.404 154.502 120.43L151.509 120.223L148.517 120.015C148.729 116.949 148.972 113.889 149.245 110.834L152.233 111.101ZM151.509 120.223L154.502 120.43C154.288 123.523 154 126.037 153.618 127.905L150.679 127.305L147.739 126.704C148.043 125.221 148.309 123.014 148.517 120.015L151.509 120.223ZM150.679 127.305L153.618 127.905C153.433 128.809 153.189 129.731 152.821 130.483C152.641 130.849 152.328 131.396 151.794 131.861C151.189 132.389 150.211 132.866 149.014 132.67L149.5 129.709L149.986 126.749C149.55 126.677 149.108 126.717 148.702 126.854C148.313 126.986 148.032 127.182 147.852 127.338C147.675 127.493 147.567 127.633 147.515 127.709C147.46 127.788 147.435 127.839 147.433 127.842C147.431 127.848 147.441 127.827 147.461 127.773C147.481 127.72 147.506 127.645 147.536 127.544C147.597 127.339 147.666 127.063 147.739 126.704L150.679 127.305ZM149.5 129.709L148.585 132.566L147.936 132.359L148.851 129.501L149.765 126.644L150.415 126.852L149.5 129.709ZM148.851 129.501L151.815 129.965L151.799 130.063L148.835 129.6L145.871 129.137L145.887 129.038L148.851 129.501ZM84.1308 91.8784L86.8462 90.6029L86.8887 90.6934L84.1733 91.9689L81.458 93.2444L81.4155 93.1539L84.1308 91.8784ZM84.1733 91.9689L87.0443 91.0985C88.7658 96.7769 90.6343 100.198 92.4055 101.905L90.3238 104.065L88.2421 106.225C85.3357 103.425 83.1039 98.7818 81.3024 92.8393L84.1733 91.9689ZM90.3238 104.065L92.4055 101.905C95.1242 104.525 96.9777 107.634 97.8937 111.199L94.988 111.946L92.0824 112.692C91.4569 110.258 90.2009 108.113 88.2421 106.225L90.3238 104.065ZM94.988 111.946L97.8937 111.199C98.6791 114.257 99.1203 115.891 99.2543 116.297L96.4057 117.238L93.5571 118.179C93.3423 117.528 92.8384 115.635 92.0824 112.692L94.988 111.946ZM96.4057 117.238L99.2708 116.348L99.4887 117.05L96.6236 117.94L93.7585 118.829L93.5406 118.127L96.4057 117.238ZM96.6236 117.94L99.3221 116.629L99.3658 116.719L96.6673 118.03L93.9689 119.34L93.9252 119.25L96.6236 117.94Z" fill="#1C5B0B"/>
<defs>
<filter id="filter0_i_54_15" x="0" y="0" width="229.342" height="168.16" filterUnits="userSpaceOnUse" color-interpolation-filters="sRGB">
<feFlood flood-opacity="0" result="BackgroundImageFix"/>
<feBlend mode="normal" in="SourceGraphic" in2="BackgroundImageFix" result="shape"/>
<feColorMatrix in="SourceAlpha" type="matrix" values="0 0 0 0 0 0 0 0 0 0 0 0 0 0 0 0 0 0 127 0" result="hardAlpha"/>
<feOffset dx="-31" dy="4"/>
<feComposite in2="hardAlpha" operator="arithmetic" k2="-1" k3="1"/>
<feColorMatrix type="matrix" values="0 0 0 0 0.271651 0 0 0 0 0.51123 0 0 0 0 0.0884438 0 0 0 0.25 0"/>
<feBlend mode="normal" in2="shape" result="effect1_innerShadow_54_15"/>
</filter>
</defs>
</svg>
