<svg width="324" height="233" viewBox="0 0 324 233" fill="none" xmlns="http://www.w3.org/2000/svg">
<g filter="url(#filter0_i_54_19)">
<path d="M97.1042 228.07C47.7709 181.903 -36.0958 85.3697 23.1042 68.5697C88.458 50.0233 112.863 93.4847 118.708 115.949C113.582 69.9481 114.339 6.7594 146.104 5.06976C193.104 2.56976 267.604 4.56976 239.104 75.0698C227.45 103.898 217.39 126.552 209.604 143.058C235.604 112.062 291.204 60.2698 305.604 101.07C323.604 152.07 330.604 169.57 297.104 187.07C270.304 201.07 217.271 220.236 194.104 228.07H97.1042Z" fill="#B2C7A7"/>
</g>
<path d="M118.667 115.857L115.831 116.837L115.873 116.956L115.924 117.072L118.667 115.857ZM98.2181 80.9616L100.29 78.7916L98.2181 80.9616ZM83.1815 70.7242L84.5654 68.0624L83.1815 70.7242ZM74.4969 68.3739L74.3382 71.3697L74.4969 68.3739ZM12.5184 72.6822L10.1848 70.7969L12.5184 72.6822ZM7.61065 114.91L4.68188 115.56L7.61065 114.91ZM12.0671 122.793L9.9763 124.945L12.0671 122.793ZM16.4079 130.866L13.4598 131.422L16.4079 130.866ZM27.473 145.291L30.0016 143.677L27.473 145.291ZM37.4668 160.435L34.8148 161.838L37.4668 160.435ZM51.7694 184.089L54.1201 182.225L51.7694 184.089ZM71.597 203.136L69.9445 205.64L71.597 203.136ZM84.2945 216.248L82.1801 218.377L84.2945 216.248ZM98.7538 227.345L100.426 224.854L98.7538 227.345ZM107.03 229.271L106.659 226.294L107.03 229.271ZM125.27 228.753L124.872 225.779L125.27 228.753ZM143.51 227.952L144.008 230.91L143.51 227.952ZM215.627 221.859L217.157 224.439L215.627 221.859ZM232.98 216.127L232.208 213.228L232.98 216.127ZM241.394 212.561L239.851 209.988L241.394 212.561ZM257.622 203.97L259.64 206.191L257.622 203.97ZM283.566 194.987L285.002 197.621L283.566 194.987ZM291.189 189.764L293.122 192.059L291.189 189.764ZM307.415 181.041L308.081 183.966L307.415 181.041ZM314.119 175.353L316.91 176.453L314.119 175.353ZM317.31 166.661L314.468 165.702L317.31 166.661ZM319.021 158.174L316.029 157.956L319.021 158.174ZM320.26 149.086L317.315 148.513L320.26 149.086ZM316.058 131.445L318.986 130.792L316.058 131.445ZM313.602 122.649L316.444 121.69L313.602 122.649ZM310.921 113.915L308.03 114.716L310.921 113.915ZM302.816 97.4214L305.731 96.7128L302.816 97.4214ZM297.64 91.3199L296.522 94.1038L297.64 91.3199ZM280.979 86.1729L281.645 89.098L280.979 86.1729ZM250.158 105.188L248.5 102.687L250.158 105.188ZM242.192 109.832L240.827 107.16L242.192 109.832ZM229.146 122.504L231.948 123.577L229.146 122.504ZM223.351 129.637L224.922 132.194L223.351 129.637ZM216.388 135.57L214.104 133.624L216.388 135.57ZM211.548 141.077L213.751 143.113L211.548 141.077ZM209.636 143.085L206.811 142.075L206.108 144.041L207.708 145.383L209.636 143.085ZM209.672 142.984L212.496 143.994L207.453 140.965L209.672 142.984ZM118.722 116.048L121.712 116.281L121.738 115.954L121.692 115.628L118.722 116.048ZM118.525 129.709L115.544 130.044L118.525 129.709ZM119.974 136.748L117.169 137.811L119.974 136.748ZM121.441 139.144L121.855 142.115L122.13 142.077L122.393 141.989L121.441 139.144ZM121.958 138.971L124.929 138.551L124.425 134.982L121.006 136.126L121.958 138.971ZM118.815 115.937L119.147 118.918L118.815 115.937ZM118.699 115.849L121.689 115.605L121.678 115.466L121.654 115.329L118.699 115.849ZM116.328 74.9779L119.225 74.1989L116.328 74.9779ZM116.023 65.8746L118.963 66.4721L116.023 65.8746ZM119.928 38.8518L122.528 40.3498L119.928 38.8518ZM122.403 29.9884L119.404 29.9345L122.403 29.9884ZM125.934 21.9768L123.86 19.8086L125.934 21.9768ZM131.891 15.313L134.296 17.1065L131.891 15.313ZM137.73 9.15979L135.804 6.85954L137.73 9.15979ZM154.464 3.13163L154.831 6.10909L154.464 3.13163ZM163.606 4.41205L162.486 7.19528L163.606 4.41205ZM191.064 4.41528L192.121 1.60771L191.064 4.41528ZM199.828 7.68857L200.87 4.87529L199.828 7.68857ZM217.071 13.0324L217.71 10.1013L217.071 13.0324ZM225.719 15.6679L226.82 12.8772L225.719 15.6679ZM234.121 19.6953L232.643 22.3061L234.121 19.6953ZM243.119 34.9976L240.144 34.613L243.119 34.9976ZM243.894 53.0958L246.894 53.0837L243.894 53.0958ZM239.954 70.5976L237.099 69.676L239.954 70.5976ZM235.993 78.8172L233.489 77.1646L235.993 78.8172ZM232.731 87.337L229.765 86.8884L232.731 87.337ZM226.569 104.522L223.607 104.046L226.569 104.522ZM224.689 113.65L227.598 114.385L224.689 113.65ZM219.605 121.37L221.506 123.691L219.605 121.37ZM213.845 138.818L211.097 137.615L213.845 138.818ZM210.808 143.032L210.642 146.027L210.758 146.033L210.874 146.031L210.808 143.032ZM209.646 142.967L209.812 139.972L207.768 139.859L206.917 141.72L209.646 142.967ZM121.987 139.169L124.978 138.941L124.97 138.83L124.953 138.72L121.987 139.169ZM124.24 152.558L121.417 153.571L124.24 152.558ZM129.166 179.477L132.125 178.983L129.166 179.477ZM129.76 185.521L132.739 185.876L132.743 185.849L132.745 185.822L129.76 185.521ZM129.588 186.971L126.609 186.616L126.558 187.042L126.629 187.465L129.588 186.971ZM126.645 187.563C126.918 189.197 128.463 190.301 130.098 190.029C131.732 189.756 132.836 188.211 132.563 186.576L129.604 187.07L126.645 187.563ZM209.56 143.148L206.869 141.823L206.708 142.149L206.63 142.505L209.56 143.148ZM197.509 162.465L194.8 161.176L197.509 162.465ZM194.746 170.016L191.826 169.328L194.746 170.016ZM194.019 173.52L192.496 176.104L193.614 176.763L194.86 176.399L194.019 173.52ZM194.15 173.481L196.812 174.866L200.057 168.63L193.309 170.602L194.15 173.481ZM191.443 172.185C190.678 173.655 191.25 175.466 192.719 176.231C194.189 176.996 196.001 176.425 196.765 174.955L194.104 173.57L191.443 172.185ZM118.708 115.949L121.45 114.734L121.41 114.642L118.667 115.857L115.924 117.072L115.965 117.164L118.708 115.949ZM118.667 115.857L121.503 114.878C119.534 109.178 117.814 104.832 116.346 101.938L113.671 103.296L110.995 104.653C112.272 107.168 113.883 111.197 115.831 116.837L118.667 115.857ZM113.671 103.296L116.346 101.938C114.861 99.0103 113.035 96.3098 110.872 93.8416L108.616 95.819L106.359 97.7964C108.192 99.8876 109.737 102.171 110.995 104.653L113.671 103.296ZM108.616 95.819L110.872 93.8416C109.048 91.7612 107.512 89.4599 106.262 86.9303L103.572 88.2595L100.883 89.5887C102.361 92.5789 104.187 95.3173 106.359 97.7964L108.616 95.819ZM103.572 88.2595L106.262 86.9303C104.744 83.8593 102.751 81.1413 100.29 78.7916L98.2181 80.9616L96.1467 83.1316C98.0962 84.9926 99.6727 87.1399 100.883 89.5887L103.572 88.2595ZM98.2181 80.9616L100.29 78.7916C97.9484 76.5567 95.4181 74.5584 92.7008 72.7983L91.0698 75.3162L89.4389 77.8341C91.8415 79.3904 94.0768 81.1558 96.1467 83.1316L98.2181 80.9616ZM91.0698 75.3162L92.7008 72.7983C90.061 71.0883 87.3491 69.5096 84.5654 68.0624L83.1815 70.7242L81.7977 73.3859C84.4117 74.7449 86.9587 76.2276 89.4389 77.8341L91.0698 75.3162ZM83.1815 70.7242L84.5654 68.0624C81.4798 66.4583 78.1663 65.5641 74.6556 65.3781L74.4969 68.3739L74.3382 71.3697C77.0093 71.5112 79.4855 72.1839 81.7977 73.3859L83.1815 70.7242ZM74.4969 68.3739L74.6556 65.3781C71.8278 65.2283 69.1229 64.7165 66.532 63.8475L65.5779 66.6917L64.6239 69.536C67.7431 70.5823 70.9841 71.192 74.3382 71.3697L74.4969 68.3739ZM65.5779 66.6917L66.532 63.8475C63.4931 62.8282 60.3742 62.1076 57.1781 61.6857L56.7854 64.6598L56.3927 67.634C59.2098 68.006 61.9526 68.64 64.6239 69.536L65.5779 66.6917ZM56.7854 64.6598L57.1781 61.6857C54.0416 61.2716 50.8832 61.063 47.7038 61.0596L47.7006 64.0596L47.6974 67.0596C50.6178 67.0627 53.516 67.2542 56.3927 67.634L56.7854 64.6598ZM47.7006 64.0596L47.7038 61.0596C44.7029 61.0564 41.6547 60.9795 38.5591 60.8288L38.4132 63.8253L38.2673 66.8217C41.4551 66.9769 44.5985 67.0563 47.6974 67.0596L47.7006 64.0596ZM38.4132 63.8253L38.5591 60.8288C34.7648 60.6441 31.2115 61.6372 27.9784 63.7441L29.6164 66.2575L31.2543 68.7709C33.4671 67.3289 35.7784 66.7005 38.2673 66.8217L38.4132 63.8253ZM29.6164 66.2575L27.9784 63.7441C25.7556 65.1927 23.3092 65.9137 20.5624 65.9071L20.5551 68.907L20.5478 71.907C24.4369 71.9165 28.0313 70.8712 31.2543 68.7709L29.6164 66.2575ZM20.5551 68.907L20.5624 65.9071C16.359 65.8968 12.8104 67.547 10.1848 70.7969L12.5184 72.6822L14.8519 74.5675C16.3061 72.7677 18.1152 71.9011 20.5478 71.907L20.5551 68.907ZM12.5184 72.6822L10.1848 70.7969C8.19109 73.2646 6.14704 75.6091 4.05288 77.8312L6.23611 79.8887L8.41933 81.9463C10.6217 79.6094 12.7659 77.1496 14.8519 74.5675L12.5184 72.6822ZM6.23611 79.8887L4.05288 77.8312C1.38104 80.6662 0.0113761 84.1077 0.000214815 88.0058L3.0002 88.0144L6.00019 88.023C6.007 85.6458 6.79461 83.6702 8.41933 81.9463L6.23611 79.8887ZM3.0002 88.0144L0.000214815 88.0058C-0.00964642 91.4498 0.500384 94.7722 1.53993 97.9586L4.39198 97.0281L7.24404 96.0976C6.40991 93.5409 5.99208 90.8541 6.00019 88.023L3.0002 88.0144ZM4.39198 97.0281L1.53993 97.9586C2.40637 100.614 2.96401 103.335 3.2134 106.125L6.20149 105.858L9.18957 105.591C8.89996 102.351 8.25126 99.185 7.24404 96.0976L4.39198 97.0281ZM6.20149 105.858L3.2134 106.125C3.49465 109.272 3.98455 112.417 4.68188 115.56L7.61065 114.91L10.5394 114.26C9.89687 111.364 9.44732 108.475 9.18957 105.591L6.20149 105.858ZM7.61065 114.91L4.68188 115.56C5.48357 119.173 7.27204 122.317 9.9763 124.945L12.0671 122.793L14.158 120.642C12.2601 118.798 11.0776 116.686 10.5394 114.26L7.61065 114.91ZM12.0671 122.793L9.9763 124.945C11.8351 126.751 12.9818 128.885 13.4598 131.422L16.4079 130.866L19.356 130.311C18.6484 126.556 16.9012 123.308 14.158 120.642L12.0671 122.793ZM16.4079 130.866L13.4598 131.422C14.192 135.307 16.1884 138.511 19.351 140.919L21.1684 138.532L22.9858 136.146C20.9866 134.623 19.8093 132.716 19.356 130.311L16.4079 130.866ZM21.1684 138.532L19.351 140.919C21.6727 142.687 23.526 144.684 24.9444 146.906L27.473 145.291L30.0016 143.677C28.1756 140.817 25.8259 138.308 22.9858 136.146L21.1684 138.532ZM27.473 145.291L24.9444 146.906C26.6053 149.507 28.3585 152.047 30.2038 154.525L32.61 152.733L35.0161 150.941C33.2565 148.579 31.5851 146.157 30.0016 143.677L27.473 145.291ZM32.61 152.733L30.2038 154.525C31.9129 156.82 33.45 159.257 34.8148 161.838L37.4668 160.435L40.1187 159.032C38.6127 156.185 36.9119 153.487 35.0161 150.941L32.61 152.733ZM37.4668 160.435L34.8148 161.838C36.4212 164.875 38.5235 167.536 41.1097 169.807L43.0891 167.552L45.0685 165.298C43.0291 163.507 41.3832 161.423 40.1187 159.032L37.4668 160.435ZM43.0891 167.552L41.1097 169.807C42.9085 171.386 44.163 173.484 44.822 176.245L47.74 175.548L50.658 174.851C49.7415 171.013 47.8955 167.78 45.0685 165.298L43.0891 167.552ZM47.74 175.548L44.822 176.245C45.7001 179.923 47.2195 183.179 49.4186 185.953L51.7694 184.089L54.1201 182.225C52.5223 180.21 51.3554 177.773 50.658 174.851L47.74 175.548ZM51.7694 184.089L49.4186 185.953C51.3927 188.443 53.5116 190.805 55.7749 193.04L57.8828 190.905L59.9907 188.771C57.8998 186.706 55.9431 184.524 54.1201 182.225L51.7694 184.089ZM57.8828 190.905L55.7749 193.04C57.9537 195.191 60.1334 197.339 62.3139 199.482L64.4167 197.342L66.5195 195.202C64.3424 193.063 62.1661 190.919 59.9907 188.771L57.8828 190.905ZM64.4167 197.342L62.3139 199.482C64.6338 201.761 67.1786 203.814 69.9445 205.64L71.597 203.136L73.2495 200.632C70.7992 199.015 68.5571 197.205 66.5195 195.202L64.4167 197.342ZM71.597 203.136L69.9445 205.64C72.2754 207.178 74.2537 209.027 75.895 211.19L78.285 209.377L80.6751 207.564C78.6152 204.848 76.1348 202.536 73.2495 200.632L71.597 203.136ZM78.285 209.377L75.895 211.19C77.8294 213.74 79.9245 216.136 82.1801 218.377L84.2945 216.248L86.4089 214.12C84.3531 212.078 82.4419 209.893 80.6751 207.564L78.285 209.377ZM84.2945 216.248L82.1801 218.377C84.4506 220.633 86.9025 222.705 89.5338 224.593L91.283 222.156L93.0322 219.719C90.6568 218.014 88.4497 216.148 86.4089 214.12L84.2945 216.248ZM91.283 222.156L89.5338 224.593C92.0618 226.408 94.5778 228.155 97.0818 229.836L98.7538 227.345L100.426 224.854C97.9754 223.209 95.5109 221.498 93.0322 219.719L91.283 222.156ZM98.7538 227.345L97.0818 229.836C100.176 231.913 103.664 232.714 107.4 232.249L107.03 229.271L106.659 226.294C104.315 226.586 102.285 226.102 100.426 224.854L98.7538 227.345ZM107.03 229.271L107.4 232.249C110.247 231.894 113.09 231.82 115.934 232.025L116.15 229.033L116.366 226.041C113.129 225.807 109.893 225.892 106.659 226.294L107.03 229.271ZM116.15 229.033L115.934 232.025C119.179 232.26 122.425 232.16 125.667 231.726L125.27 228.753L124.872 225.779C122.034 226.159 119.2 226.246 116.366 226.041L116.15 229.033ZM125.27 228.753L125.667 231.726C128.514 231.346 131.358 231.245 134.2 231.425L134.39 228.431L134.579 225.437C131.342 225.233 128.105 225.347 124.872 225.779L125.27 228.753ZM134.39 228.431L134.2 231.425C137.473 231.632 140.743 231.459 144.008 230.91L143.51 227.952L143.012 224.993C140.196 225.467 137.386 225.614 134.579 225.437L134.39 228.431ZM143.51 227.952L144.008 230.91C146.535 230.485 149.071 230.697 151.659 231.581L152.63 228.742L153.6 225.904C150.108 224.711 146.564 224.395 143.012 224.993L143.51 227.952ZM152.63 228.742L151.659 231.581C155.332 232.836 159.058 232.83 162.728 231.563L161.75 228.727L160.771 225.891C158.361 226.723 156.007 226.726 153.6 225.904L152.63 228.742ZM161.75 228.727L162.728 231.563C165.413 230.636 168.055 230.273 170.675 230.443L170.87 227.449L171.064 224.456C167.604 224.231 164.166 224.719 160.771 225.891L161.75 228.727ZM170.87 227.449L170.675 230.443C173.51 230.627 176.353 231.102 179.207 231.874L179.99 228.977L180.772 226.081C177.546 225.21 174.309 224.666 171.064 224.456L170.87 227.449ZM179.99 228.977L179.207 231.874C182.89 232.869 186.586 232.635 190.201 231.224L189.11 228.429L188.019 225.635C185.553 226.597 183.169 226.729 180.772 226.081L179.99 228.977ZM189.11 228.429L190.201 231.224C192.893 230.173 195.551 229.697 198.194 229.763L198.269 226.764L198.344 223.765C194.854 223.678 191.406 224.313 188.019 225.635L189.11 228.429ZM198.269 226.764L198.194 229.763C201.577 229.848 204.888 229.403 208.114 228.428L207.246 225.556L206.378 222.684C203.767 223.473 201.093 223.834 198.344 223.765L198.269 226.764ZM207.246 225.556L208.114 228.428C211.268 227.475 214.284 226.143 217.157 224.439L215.627 221.859L214.097 219.279C211.632 220.74 209.061 221.874 206.378 222.684L207.246 225.556ZM215.627 221.859L217.157 224.439C219.575 223.006 222.119 221.965 224.798 221.312L224.087 218.397L223.376 215.483C220.112 216.279 217.017 217.547 214.097 219.279L215.627 221.859ZM224.087 218.397L224.798 221.312C227.79 220.582 230.775 219.82 233.753 219.026L232.98 216.127L232.208 213.228C229.271 214.011 226.327 214.763 223.376 215.483L224.087 218.397ZM232.98 216.127L233.753 219.026C236.984 218.165 240.047 216.866 242.936 215.134L241.394 212.561L239.851 209.988C237.438 211.435 234.892 212.513 232.208 213.228L232.98 216.127ZM241.394 212.561L242.936 215.134C245.407 213.653 247.982 212.459 250.662 211.549L249.698 208.709L248.733 205.868C245.644 206.917 242.683 208.291 239.851 209.988L241.394 212.561ZM249.698 208.709L250.662 211.549C253.961 210.429 256.957 208.629 259.64 206.191L257.622 203.97L255.605 201.75C253.491 203.671 251.204 205.029 248.733 205.868L249.698 208.709ZM257.622 203.97L259.64 206.191C261.575 204.432 263.755 203.458 266.257 203.202L265.952 200.217L265.647 197.233C261.839 197.622 258.466 199.15 255.605 201.75L257.622 203.97ZM265.952 200.217L266.257 203.202C269.584 202.861 272.813 202.242 275.941 201.341L275.111 198.459L274.281 195.576C271.507 196.374 268.63 196.928 265.647 197.233L265.952 200.217ZM275.111 198.459L275.941 201.341C279.101 200.431 282.123 199.191 285.002 197.621L283.566 194.987L282.13 192.353C279.637 193.713 277.022 194.786 274.281 195.576L275.111 198.459ZM283.566 194.987L285.002 197.621C287.869 196.059 290.576 194.203 293.122 192.059L291.189 189.764L289.257 187.47C287.011 189.361 284.636 190.987 282.13 192.353L283.566 194.987ZM291.189 189.764L293.122 192.059C295.397 190.143 297.749 188.467 300.177 187.028L298.647 184.448L297.118 181.867C294.393 183.482 291.773 185.351 289.257 187.47L291.189 189.764ZM298.647 184.448L300.177 187.028C302.455 185.678 305.08 184.649 308.081 183.966L307.415 181.041L306.749 178.116C303.212 178.921 299.992 180.163 297.118 181.867L298.647 184.448ZM307.415 181.041L308.081 183.966C312.289 183.008 315.336 180.448 316.91 176.453L314.119 175.353L311.327 174.254C310.5 176.353 309.078 177.585 306.749 178.116L307.415 181.041ZM314.119 175.353L316.91 176.453C318.126 173.365 319.208 170.421 320.153 167.62L317.31 166.661L314.468 165.702C313.558 168.396 312.512 171.247 311.327 174.254L314.119 175.353ZM317.31 166.661L320.153 167.62C321.161 164.631 321.781 161.554 322.013 158.393L319.021 158.174L316.029 157.956C315.834 160.615 315.314 163.195 314.468 165.702L317.31 166.661ZM319.021 158.174L322.013 158.393C322.216 155.614 322.612 152.703 323.205 149.66L320.26 149.086L317.315 148.513C316.681 151.767 316.251 154.916 316.029 157.956L319.021 158.174ZM320.26 149.086L323.205 149.66C323.94 145.887 323.482 142.239 321.813 138.822L319.117 140.138L316.422 141.454C317.504 143.67 317.807 145.988 317.315 148.513L320.26 149.086ZM319.117 140.138L321.813 138.822C320.538 136.21 319.598 133.534 318.986 130.792L316.058 131.445L313.13 132.098C313.847 135.312 314.946 138.431 316.422 141.454L319.117 140.138ZM316.058 131.445L318.986 130.792C318.299 127.711 317.452 124.676 316.444 121.69L313.602 122.649L310.759 123.607C311.699 126.393 312.489 129.223 313.13 132.098L316.058 131.445ZM313.602 122.649L316.444 121.69C315.488 118.856 314.611 115.997 313.812 113.113L310.921 113.915L308.03 114.716C308.858 117.705 309.768 120.669 310.759 123.607L313.602 122.649ZM310.921 113.915L313.812 113.113C312.891 109.792 311.341 106.711 309.188 103.879L306.8 105.695L304.412 107.511C306.126 109.765 307.322 112.164 308.03 114.716L310.921 113.915ZM306.8 105.695L309.188 103.879C307.493 101.65 306.352 99.2661 305.731 96.7128L302.816 97.4214L299.901 98.1301C300.725 101.522 302.24 104.653 304.412 107.511L306.8 105.695ZM302.816 97.4214L305.731 96.7128C304.791 92.8442 302.427 90.0091 298.758 88.5359L297.64 91.3199L296.522 94.1038C298.309 94.8211 299.396 96.0538 299.901 98.1301L302.816 97.4214ZM297.64 91.3199L298.758 88.5359C296.159 87.4922 293.576 86.2466 291.01 84.7963L289.534 87.408L288.058 90.0196C290.844 91.5946 293.666 92.9569 296.522 94.1038L297.64 91.3199ZM289.534 87.408L291.01 84.7963C287.677 82.9121 284.06 82.3945 280.313 83.2477L280.979 86.1729L281.645 89.098C283.952 88.5727 286.039 88.8785 288.058 90.0196L289.534 87.408ZM280.979 86.1729L280.313 83.2477C277.21 83.9544 274.133 84.7825 271.083 85.732L271.974 88.5965L272.866 91.4609C275.768 90.5575 278.694 89.7699 281.645 89.098L280.979 86.1729ZM271.974 88.5965L271.083 85.732C267.816 86.7488 264.782 88.2294 261.989 90.1711L263.702 92.6342L265.415 95.0972C267.7 93.5082 270.18 92.297 272.866 91.4609L271.974 88.5965ZM263.702 92.6342L261.989 90.1711C259.21 92.1037 256.74 94.4168 254.581 97.1002L256.918 98.9808L259.256 100.861C261.064 98.6133 263.116 96.6954 265.415 95.0972L263.702 92.6342ZM256.918 98.9808L254.581 97.1002C252.782 99.3364 250.755 101.193 248.5 102.687L250.158 105.188L251.815 107.689C254.607 105.838 257.087 103.556 259.256 100.861L256.918 98.9808ZM250.158 105.188L248.5 102.687C246.074 104.295 243.517 105.786 240.827 107.16L242.192 109.832L243.556 112.504C246.441 111.03 249.194 109.426 251.815 107.689L250.158 105.188ZM242.192 109.832L240.827 107.16C237.848 108.681 235.09 110.491 232.559 112.589L234.473 114.898L236.388 117.208C238.573 115.397 240.96 113.829 243.556 112.504L242.192 109.832ZM234.473 114.898L232.559 112.589C229.769 114.901 227.705 117.878 226.345 121.431L229.146 122.504L231.948 123.577C232.974 120.898 234.462 118.805 236.388 117.208L234.473 114.898ZM229.146 122.504L226.345 121.431C225.371 123.973 223.851 125.81 221.781 127.081L223.351 129.637L224.922 132.194C228.192 130.185 230.535 127.266 231.948 123.577L229.146 122.504ZM223.351 129.637L221.781 127.081C218.851 128.881 216.287 131.062 214.104 133.624L216.388 135.57L218.672 137.515C220.433 135.447 222.512 133.674 224.922 132.194L223.351 129.637ZM216.388 135.57L214.104 133.624C212.144 135.925 210.561 137.726 209.346 139.04L211.548 141.077L213.751 143.113C215.045 141.715 216.688 139.844 218.672 137.515L216.388 135.57ZM211.548 141.077L209.346 139.04C208.721 139.716 208.26 140.209 207.957 140.527C207.803 140.689 207.707 140.787 207.657 140.837C207.625 140.868 207.644 140.848 207.69 140.807C207.701 140.798 207.795 140.714 207.932 140.618C207.982 140.583 208.18 140.445 208.464 140.324C208.598 140.267 208.917 140.14 209.349 140.099C209.769 140.058 210.706 140.067 211.564 140.786L209.636 143.085L207.708 145.383C208.566 146.103 209.504 146.112 209.925 146.071C210.358 146.029 210.679 145.902 210.815 145.844C211.103 145.722 211.306 145.58 211.361 145.542C211.511 145.437 211.622 145.339 211.655 145.311C211.745 145.232 211.827 145.152 211.877 145.101C211.992 144.988 212.138 144.837 212.302 144.665C212.636 144.314 213.122 143.794 213.751 143.113L211.548 141.077ZM209.636 143.085L212.461 144.095L212.496 143.994L209.672 142.984L206.847 141.974L206.811 142.075L209.636 143.085ZM209.672 142.984L207.453 140.965L207.386 141.039L209.604 143.058L211.823 145.078L211.89 145.004L209.672 142.984ZM118.708 115.949L115.737 116.368L115.751 116.467L118.722 116.048L121.692 115.628L121.678 115.529L118.708 115.949ZM118.722 116.048L115.731 115.814C115.254 121.919 115.168 126.705 115.544 130.044L118.525 129.709L121.506 129.374C121.196 126.622 121.242 122.3 121.712 116.281L118.722 116.048ZM118.525 129.709L115.544 130.044C115.897 133.185 116.414 135.819 117.169 137.811L119.974 136.748L122.78 135.685C122.287 134.383 121.838 132.325 121.506 129.374L118.525 129.709ZM119.974 136.748L117.169 137.811C117.5 138.685 117.857 139.506 118.25 140.148C118.439 140.457 118.733 140.887 119.157 141.264C119.542 141.607 120.497 142.304 121.855 142.115L121.441 139.144L121.027 136.172C122.208 136.008 122.969 136.624 123.143 136.78C123.356 136.969 123.423 137.106 123.367 137.015C123.272 136.859 123.072 136.457 122.78 135.685L119.974 136.748ZM121.441 139.144L122.393 141.989L122.91 141.816L121.958 138.971L121.006 136.126L120.489 136.299L121.441 139.144ZM121.958 138.971L118.988 139.39L119.001 139.489L121.972 139.07L124.943 138.65L124.929 138.551L121.958 138.971ZM121.972 139.07L124.778 138.008C122.609 132.275 121.88 128.353 122.117 125.961L119.132 125.666L116.147 125.37C115.766 129.21 116.931 134.224 119.166 140.131L121.972 139.07ZM119.132 125.666L122.117 125.961C122.433 122.773 122.502 120.098 122.232 118.064L119.258 118.458L116.285 118.853C116.463 120.197 116.448 122.327 116.147 125.37L119.132 125.666ZM119.258 118.458L122.232 118.064C122.119 117.21 122.019 116.526 121.934 116.041C121.894 115.812 121.844 115.555 121.784 115.325C121.759 115.233 121.698 115.007 121.587 114.756C121.541 114.652 121.404 114.352 121.142 114.034C120.981 113.839 120.071 112.778 118.483 112.955L118.815 115.937L119.147 118.918C118.366 119.005 117.722 118.773 117.296 118.522C116.9 118.287 116.647 118.014 116.517 117.856C116.264 117.551 116.138 117.27 116.103 117.191C116.052 117.074 116.021 116.983 116.008 116.943C115.993 116.897 115.985 116.865 115.982 116.854C115.976 116.833 115.991 116.89 116.025 117.081C116.087 117.437 116.174 118.018 116.285 118.853L119.258 118.458ZM118.815 115.937L118.483 112.955L118.375 112.967L118.708 115.949L119.04 118.93L119.147 118.918L118.815 115.937ZM118.708 115.949L121.698 115.705L121.689 115.605L118.699 115.849L115.709 116.093L115.717 116.192L118.708 115.949ZM118.699 115.849L121.654 115.329C120.614 109.426 120.13 105.139 120.131 102.359L117.131 102.358L114.131 102.357C114.13 105.68 114.691 110.387 115.745 116.369L118.699 115.849ZM117.131 102.358L120.131 102.359C120.131 99.2011 119.966 96.0547 119.633 92.9201L116.65 93.2365L113.667 93.5529C113.977 96.4764 114.131 99.411 114.131 102.357L117.131 102.358ZM116.65 93.2365L119.633 92.9201C119.339 90.1493 119.403 87.3674 119.828 84.5679L116.862 84.118L113.896 83.6681C113.395 86.9684 113.318 90.2654 113.667 93.5529L116.65 93.2365ZM116.862 84.118L119.828 84.5679C120.354 81.0989 120.149 77.6339 119.225 74.1989L116.328 74.9779L113.431 75.757C114.144 78.4089 114.295 81.0373 113.896 83.6681L116.862 84.118ZM116.328 74.9779L119.225 74.1989C118.525 71.595 118.442 69.0318 118.963 66.4721L116.023 65.8746L113.083 65.2771C112.373 68.7682 112.494 72.2739 113.431 75.757L116.328 74.9779ZM116.023 65.8746L118.963 66.4721C119.553 63.5669 120.321 60.6978 121.267 57.8642L118.422 56.9141L115.576 55.9639C114.553 59.0269 113.722 62.1315 113.083 65.2771L116.023 65.8746ZM118.422 56.9141L121.267 57.8642C122.441 54.3483 122.547 50.71 121.63 47.0212L118.718 47.7451L115.807 48.4689C116.463 51.1088 116.371 53.5832 115.576 55.9639L118.422 56.9141ZM118.718 47.7451L121.63 47.0212C121.026 44.5917 121.331 42.4258 122.528 40.3498L119.928 38.8518L117.329 37.3537C115.339 40.8068 114.838 44.5698 115.807 48.4689L118.718 47.7451ZM119.928 38.8518L122.528 40.3498C124.371 37.1523 125.337 33.7019 125.403 30.0423L122.403 29.9884L119.404 29.9345C119.356 32.5636 118.673 35.0222 117.329 37.3537L119.928 38.8518ZM122.403 29.9884L125.403 30.0423C125.445 27.7075 126.281 25.7952 128.007 24.1449L125.934 21.9768L123.86 19.8086C120.992 22.5517 119.475 25.9805 119.404 29.9345L122.403 29.9884ZM125.934 21.9768L128.007 24.1449C130.409 21.8479 132.509 19.5027 134.296 17.1065L131.891 15.313L129.487 13.5195C127.924 15.615 126.052 17.7123 123.86 19.8086L125.934 21.9768ZM131.891 15.313L134.296 17.1065C135.827 15.0536 137.611 13.1714 139.655 11.46L137.73 9.15979L135.804 6.85954C133.413 8.86075 131.305 11.0808 129.487 13.5195L131.891 15.313ZM137.73 9.15979L139.655 11.46C141.543 9.87991 143.761 8.69009 146.349 7.90571L145.479 5.03466L144.609 2.1636C141.299 3.16678 138.351 4.72704 135.804 6.85954L137.73 9.15979ZM145.479 5.03466L146.349 7.90571C149.135 7.06144 151.962 6.46286 154.831 6.10909L154.464 3.13163L154.097 0.154179C150.885 0.550215 147.722 1.22032 144.609 2.1636L145.479 5.03466ZM154.464 3.13163L154.831 6.10909C157.331 5.80092 159.868 6.14178 162.486 7.19528L163.606 4.41205L164.726 1.62882C161.237 0.225286 157.679 -0.287462 154.097 0.154179L154.464 3.13163ZM163.606 4.41205L162.486 7.19528C165.885 8.56251 169.329 9.22835 172.797 9.14539L172.725 6.14625L172.653 3.14711C170.07 3.20891 167.435 2.71861 164.726 1.62882L163.606 4.41205ZM172.725 6.14625L172.797 9.14539C176.165 9.06481 179.549 8.4134 182.939 7.22034L181.943 4.39048L180.947 1.56063C178.097 2.56383 175.335 3.08294 172.653 3.14711L172.725 6.14625ZM181.943 4.39048L182.939 7.22034C185.426 6.34486 187.739 6.36893 190.007 7.22285L191.064 4.41528L192.121 1.60771C188.468 0.232296 184.7 0.239835 180.947 1.56063L181.943 4.39048ZM191.064 4.41528L190.007 7.22285C192.972 8.33938 195.899 9.43238 198.786 10.5019L199.828 7.68857L200.87 4.87529C197.993 3.80971 195.076 2.72051 192.121 1.60771L191.064 4.41528ZM199.828 7.68857L198.786 10.5019C201.704 11.5825 204.602 12.5928 207.479 13.5327L208.41 10.681L209.342 7.82933C206.541 6.91433 203.717 5.9297 200.87 4.87529L199.828 7.68857ZM208.41 10.681L207.479 13.5327C210.414 14.4917 213.398 15.3019 216.432 15.9635L217.071 13.0324L217.71 10.1013C214.873 9.48256 212.084 8.7252 209.342 7.82933L208.41 10.681ZM217.071 13.0324L216.432 15.9635C219.207 16.5689 221.935 17.4001 224.618 18.4585L225.719 15.6679L226.82 12.8772C223.842 11.7021 220.805 10.7763 217.71 10.1013L217.071 13.0324ZM225.719 15.6679L224.618 18.4585C227.313 19.5218 229.988 20.8034 232.643 22.3061L234.121 19.6953L235.598 17.0844C232.712 15.4508 229.786 14.0474 226.82 12.8772L225.719 15.6679ZM234.121 19.6953L232.643 22.3061C235.013 23.6476 236.976 25.4462 238.55 27.7311L241.021 26.0289L243.491 24.3267C241.407 21.3031 238.77 18.8792 235.598 17.0844L234.121 19.6953ZM241.021 26.0289L238.55 27.7311C239.941 29.7496 240.483 31.9899 240.144 34.613L243.119 34.9976L246.095 35.3822C246.615 31.3556 245.758 27.6167 243.491 24.3267L241.021 26.0289ZM243.119 34.9976L240.144 34.613C239.683 38.1826 239.694 41.5732 240.214 44.766L243.175 44.2834L246.136 43.8008C245.722 41.2624 245.696 38.4625 246.095 35.3822L243.119 34.9976ZM243.175 44.2834L240.214 44.766C240.655 47.4704 240.882 50.2504 240.894 53.1078L243.894 53.0958L246.894 53.0837C246.881 49.9225 246.629 46.8275 246.136 43.8008L243.175 44.2834ZM243.894 53.0958L240.894 53.1078C240.905 55.8255 240.526 58.4806 239.757 61.0824L242.634 61.933L245.511 62.7835C246.446 59.621 246.907 56.3846 246.894 53.0837L243.894 53.0958ZM242.634 61.933L239.757 61.0824C238.912 63.9405 238.026 66.805 237.099 69.676L239.954 70.5976L242.809 71.5193C243.751 68.6016 244.651 65.6897 245.511 62.7835L242.634 61.933ZM239.954 70.5976L237.099 69.676C236.25 72.307 235.049 74.8015 233.489 77.1646L235.993 78.8172L238.496 80.4699C240.35 77.6621 241.79 74.6768 242.809 71.5193L239.954 70.5976ZM235.993 78.8172L233.489 77.1646C231.54 80.1169 230.297 83.3684 229.765 86.8884L232.731 87.337L235.697 87.7855C236.101 85.1167 237.032 82.6884 238.496 80.4699L235.993 78.8172ZM232.731 87.337L229.765 86.8884C229.354 89.6061 228.464 92.0994 227.095 94.3923L229.672 95.9295L232.248 97.4666C234.023 94.4916 235.172 91.2566 235.697 87.7855L232.731 87.337ZM229.672 95.9295L227.095 94.3923C225.325 97.3596 224.163 100.585 223.607 104.046L226.569 104.522L229.531 104.998C229.969 102.27 230.875 99.7672 232.248 97.4666L229.672 95.9295ZM226.569 104.522L223.607 104.046C223.124 107.055 222.515 110.011 221.781 112.914L224.689 113.65L227.598 114.385C228.376 111.307 229.02 108.178 229.531 104.998L226.569 104.522ZM224.689 113.65L221.781 112.914C221.198 115.218 219.895 117.256 217.705 119.049L219.605 121.37L221.506 123.691C224.582 121.173 226.668 118.063 227.598 114.385L224.689 113.65ZM219.605 121.37L217.705 119.049C214.388 121.764 212.657 125.362 212.667 129.625L215.667 129.618L218.667 129.611C218.662 127.189 219.556 125.288 221.506 123.691L219.605 121.37ZM215.667 129.618L212.667 129.625C212.674 132.591 212.137 135.241 211.097 137.615L213.845 138.818L216.593 140.022C217.999 136.814 218.676 133.329 218.667 129.611L215.667 129.618ZM213.845 138.818L211.097 137.615C210.517 138.939 210.058 139.763 209.736 140.211C209.573 140.435 209.522 140.457 209.599 140.397C209.667 140.343 210.066 140.047 210.741 140.032L210.808 143.032L210.874 146.031C211.951 146.007 212.778 145.529 213.299 145.12C213.83 144.704 214.258 144.197 214.603 143.719C215.292 142.763 215.951 141.489 216.593 140.022L213.845 138.818ZM210.808 143.032L210.974 140.036L209.812 139.972L209.646 142.967L209.48 145.963L210.642 146.027L210.808 143.032ZM209.646 142.967L206.917 141.72L206.876 141.811L209.604 143.058L212.333 144.305L212.374 144.214L209.646 142.967ZM121.972 139.07L119.006 139.518L119.021 139.617L121.987 139.169L124.953 138.72L124.938 138.621L121.972 139.07ZM121.987 139.169L118.996 139.396C119.457 145.473 120.23 150.264 121.417 153.571L124.24 152.558L127.064 151.545C126.159 149.021 125.43 144.887 124.978 138.941L121.987 139.169ZM124.24 152.558L121.417 153.571C122.311 156.064 122.631 158.641 122.372 161.334L125.358 161.621L128.345 161.908C128.687 158.347 128.261 154.882 127.064 151.545L124.24 152.558ZM125.358 161.621L122.372 161.334C122.026 164.937 122.529 168.43 123.881 171.771L126.662 170.645L129.443 169.52C128.456 167.081 128.09 164.558 128.345 161.908L125.358 161.621ZM126.662 170.645L123.881 171.771C124.97 174.462 125.744 177.194 126.207 179.97L129.166 179.477L132.125 178.983C131.588 175.763 130.692 172.608 129.443 169.52L126.662 170.645ZM129.166 179.477L126.207 179.97C126.718 183.03 126.833 184.652 126.776 185.22L129.76 185.521L132.745 185.822C132.896 184.327 132.615 181.918 132.125 178.983L129.166 179.477ZM129.76 185.521L126.781 185.167L126.609 186.616L129.588 186.971L132.567 187.326L132.739 185.876L129.76 185.521ZM129.588 186.971L126.629 187.465L126.645 187.563L129.604 187.07L132.563 186.576L132.547 186.478L129.588 186.971ZM209.604 143.058L206.913 141.733L206.869 141.823L209.56 143.148L212.252 144.473L212.296 144.383L209.604 143.058ZM209.56 143.148L206.63 142.505C205.345 148.358 203.528 151.513 201.701 152.9L203.515 155.29L205.329 157.679C208.91 154.96 211.123 150.021 212.49 143.791L209.56 143.148ZM203.515 155.29L201.701 152.9C198.663 155.207 196.331 157.962 194.8 161.176L197.509 162.465L200.218 163.755C201.288 161.508 202.96 159.478 205.329 157.679L203.515 155.29ZM197.509 162.465L194.8 161.176C193.432 164.049 192.428 166.77 191.826 169.328L194.746 170.016L197.666 170.703C198.148 168.656 198.985 166.344 200.218 163.755L197.509 162.465ZM194.746 170.016L191.826 169.328C191.554 170.486 191.35 171.385 191.221 172.009C191.158 172.313 191.103 172.595 191.068 172.824C191.052 172.925 191.027 173.097 191.016 173.284C191.012 173.361 191.001 173.572 191.03 173.831C191.044 173.953 191.08 174.223 191.197 174.543C191.287 174.79 191.605 175.579 192.496 176.104L194.019 173.52L195.542 170.935C196.004 171.207 196.304 171.55 196.487 171.815C196.668 172.077 196.772 172.319 196.832 172.483C196.947 172.797 196.981 173.057 196.993 173.169C197.02 173.406 197.009 173.586 197.007 173.623C197.001 173.731 196.99 173.788 196.997 173.74C197.008 173.668 197.037 173.508 197.095 173.228C197.208 172.684 197.397 171.848 197.666 170.703L194.746 170.016ZM194.019 173.52L194.86 176.399L194.992 176.361L194.15 173.481L193.309 170.602L193.177 170.64L194.019 173.52ZM194.15 173.481L191.489 172.096L191.443 172.185L194.104 173.57L196.765 174.955L196.812 174.866L194.15 173.481Z" fill="#1C5B0B"/>
<defs>
<filter id="filter0_i_54_19" x="0" y="0" width="323.544" height="232.518" filterUnits="userSpaceOnUse" color-interpolation-filters="sRGB">
<feFlood flood-opacity="0" result="BackgroundImageFix"/>
<feBlend mode="normal" in="SourceGraphic" in2="BackgroundImageFix" result="shape"/>
<feColorMatrix in="SourceAlpha" type="matrix" values="0 0 0 0 0 0 0 0 0 0 0 0 0 0 0 0 0 0 127 0" result="hardAlpha"/>
<feOffset dx="-31" dy="4"/>
<feComposite in2="hardAlpha" operator="arithmetic" k2="-1" k3="1"/>
<feColorMatrix type="matrix" values="0 0 0 0 0.271651 0 0 0 0 0.51123 0 0 0 0 0.0884438 0 0 0 0.25 0"/>
<feBlend mode="normal" in2="shape" result="effect1_innerShadow_54_19"/>
</filter>
</defs>
</svg>
