<svg width="205" height="220" viewBox="0 0 205 220" fill="none" xmlns="http://www.w3.org/2000/svg">
<g filter="url(#filter0_i_54_16)">
<path d="M149.936 181.183L163.18 182.511C166.779 181.077 188.609 163.365 192.345 160.219C192.816 157.472 194.195 131.97 168.813 168.241C165.482 169.596 160.024 161.35 159.899 159.856C158.705 158.597 160.922 160.678 161.848 156.681C163.005 151.684 159.957 154.671 166.827 148.566C173.698 142.461 195.458 134.808 201.589 129.343C207.72 123.877 188.465 122.045 191.335 114.822C194.206 107.598 191.774 106.47 190.154 104.019C188.534 101.568 171.842 134.523 167.894 136.714C163.945 138.905 156.132 136.296 151.066 138.894C147.013 140.972 148.887 136.788 150.33 134.436C149.744 131.809 147.605 126.828 147.623 121.594C147.646 115.052 162.79 125.447 166.633 119.184C170.476 112.922 168.43 93.7297 174.957 88.7501C181.484 83.7705 189.541 88.9242 195.49 86.8678C201.438 84.8114 200.418 75.443 204.153 69.3569C207.887 63.2708 184.808 60.0255 185.96 62.6748C186.881 64.7943 185.588 65.2902 179.608 69.4723L179.426 69.5934C176.973 71.221 171.362 74.9457 169.842 77.4224C167.893 80.5978 159.94 84.4779 157.721 88.0943C155.501 91.7107 159.444 92.4316 147.306 105.139C137.596 115.305 137.626 109.317 138.855 105.052C137.312 103.134 133.915 98.281 132.663 94.2105C131.099 89.1224 135.586 89.4475 148.192 76.5419C160.798 63.6364 151.777 66.1839 166.975 58.3897C182.172 50.5955 190.786 57.8319 192.956 46.6577C195.127 35.4835 188.494 38.3815 182.515 33.1339C176.536 27.8863 169.6 24.2842 163.686 29.3969C157.771 34.5096 145.133 42.5776 139.61 54.1231C134.087 65.6686 118.96 80.3371 117.555 78.3826C116.151 76.4281 113.418 72.188 113.528 69.4629C113.638 66.7378 107.35 64.4876 109.538 55.2663C111.725 46.045 97.75 56.5736 99.8869 42.3432C102.024 28.1127 114.36 31.8558 92.7627 18.1169C71.1657 4.37797 72.1794 5.8113 65.1183 1.47822C58.0573 -2.85487 56.966 16.0701 53.0651 27.5181C49.1642 38.9662 69.7704 30.5438 60.3203 40.2864C50.8702 50.029 71.9942 45.0764 80.9103 50.9121C89.8264 56.7478 75.1929 52.7841 89.2105 56.5293C103.228 60.2745 88.7965 71.929 99.3205 72.3161C101.295 72.3887 102.3 72.1048 102.651 71.6106C106.548 75.9355 110.412 80.9197 109.828 81.8721C108.853 83.4598 102.844 85.0255 102.844 85.0255C102.844 85.0255 99.1349 79.4648 92.7893 81.6104C92.7219 80.73 90.9929 79.3077 84.6062 77.3449C67.9586 72.2285 80.9906 86.855 58.7212 80.7172C36.4518 74.5794 32.1034 79.299 26.1851 89.5091C20.2667 99.7191 8.4679 87.5703 4.83577 101.126C1.20364 114.682 11.7435 117.871 21.9968 118.699C32.2501 119.528 28.0535 116.467 34.7991 108.586C41.5447 100.704 51.3613 107.336 60.5401 98.8835C69.719 90.4315 88.9776 98.3643 103.591 101.139L103.627 101.146C118.206 103.915 119.605 104.18 115.509 117.074C110.8 124.748 106.717 113.015 100.573 112.279C94.4282 111.544 89.4375 110.06 66.4921 116.621C48.9033 116.998 55.7916 111.147 43.5159 115.877C31.2402 120.608 33.9316 136.587 32.448 144.662C30.9643 152.736 32.0069 156.411 44.3483 160.342C56.6898 164.273 62.7239 143.692 64.3465 142.745C65.969 141.798 87.474 133.625 90.2142 132.271C92.9544 130.917 104.507 128.779 110.85 129.757C117.193 130.735 127.608 132.148 130.148 133.1C132.688 134.052 141.187 144.245 139.346 147.244C137.506 150.243 132.194 145.04 128.212 143.325C125.027 141.954 118.98 142.436 116.355 142.848C115.159 143.572 111.614 144.747 107.001 143.665C101.236 142.313 103.666 145.99 100.831 153.721C97.9959 161.452 97.5125 157.148 87.8902 155.857C78.268 154.566 85.35 154.906 74.6458 154.529C63.9416 154.153 70.6238 159.103 66.5402 173.961C62.4565 188.818 67.13 180.636 74.2094 184.374C81.2889 188.111 77.9048 182.877 80.701 178.886C83.4972 174.896 94.2407 170.682 101.302 175.015C108.363 179.348 112.191 169.434 119.532 160.582C126.873 151.731 133.879 156.152 139.808 157.24C145.736 158.328 156.972 169.717 155.89 171.481C154.807 173.245 142.501 169.821 140.61 168.661C138.719 167.5 136.267 168.667 131.774 175.988C127.282 183.309 129.286 177.497 127.282 183.309C125.277 189.121 123.082 184.496 118.828 185.771C114.574 187.046 114.881 187.112 113.524 194.415C112.167 201.717 110.528 199.862 108.923 201.912C107.318 203.962 100.904 201.119 94.5788 201.245C88.2533 201.37 94.607 211.947 97.4517 215.514C100.296 219.081 115.779 215.347 123.611 200.605C129.876 188.811 143.771 182.743 149.936 181.183Z" fill="#87AB73"/>
</g>
<path d="M92.7893 81.6104L93.5573 84.5105L93.1416 84.6205L92.7118 84.6094L92.7893 81.6104ZM92.6893 81.6078L92.6118 84.6068L91.7202 84.5838L90.986 84.0774L92.6893 81.6078ZM81.051 77.3502L81.6632 80.2871L81.051 77.3502ZM64.7465 80.3401L64.0419 83.2562L64.7465 80.3401ZM55.8448 79.1687L55.7485 82.1672L55.8448 79.1687ZM29.6872 82.9539L32.0767 84.7678L29.6872 82.9539ZM24.3609 91.1559L21.7359 89.7035L24.3609 91.1559ZM8.43922 95.555L6.38112 93.3723L8.43922 95.555ZM3.37492 103.809L0.4955 102.967L3.37492 103.809ZM22.5842 118.956L22.968 115.98L22.5842 118.956ZM30.8721 116.313L28.8791 114.07L30.8721 116.313ZM36.3093 108.413L39.1097 109.489L36.3093 108.413ZM60.6641 99.8119L59.365 97.1078L60.6641 99.8119ZM68.8934 95.4397L70.3986 98.0347L68.8934 95.4397ZM77.366 95.7999L75.722 98.3094L77.366 95.7999ZM86.1727 98.9639L86.4141 95.9736L86.1727 98.9639ZM95.2088 100.161L95.7534 97.2107L95.2088 100.161ZM104.143 102.098L104.869 99.187L104.143 102.098ZM113.602 103.992L113.137 106.956L113.602 103.992ZM117.316 109.688L120.214 110.463L117.316 109.688ZM106.13 116.912L105.007 119.694L106.13 116.912ZM80.7764 113.699L79.7424 110.883L80.7764 113.699ZM71.8106 115.475L71.6871 112.477L71.8106 115.475ZM54.1146 115.904L53.6999 112.933L54.1146 115.904ZM44.8469 115.973L44.528 118.956L44.8469 115.973ZM35.9989 129.015L38.8775 129.86L35.9989 129.015ZM30.1411 146.72L27.1466 146.536L30.1411 146.72ZM34.1395 154.066L35.6579 151.478L34.1395 154.066ZM50.6033 159.343L49.5991 156.516L50.6033 159.343ZM77.2435 137.302L77.1536 134.304L77.2435 137.302ZM86.1046 134.871L84.6193 132.265L86.1046 134.871ZM94.6385 132.494L94.5778 129.494L94.6385 132.494ZM103.547 130.664L104.652 133.453L103.547 130.664ZM121.436 131.528L120.944 134.487L121.436 131.528ZM135.46 140.585L137.831 138.746L135.46 140.585ZM130.577 144.694L129.272 147.396L130.577 144.694ZM112.987 141.995L113.14 144.991L112.987 141.995ZM104.759 144.81L106.405 147.319L104.759 144.81ZM94.9755 157.051L95.8961 159.906L94.9755 157.051ZM67.8034 179.894L65.2741 181.507L67.8034 179.894ZM73.3873 182.782L74.0354 179.853L73.3873 182.782ZM94.2901 171.956L94.5801 174.942L94.2901 171.956ZM111.139 172.882L109.312 170.502L111.139 172.882ZM117.166 165.982L114.549 164.515L117.166 165.982ZM122.678 159.153L124.642 161.42L122.678 159.153ZM138.722 158.179L137.785 161.029L138.722 158.179ZM130.764 179.183L127.975 178.079L130.764 179.183ZM118.459 187.088L115.811 185.679L118.459 187.088ZM108.716 201.388L109.245 204.341L108.716 201.388ZM99.404 200.844L98.5196 203.711L99.404 200.844ZM93.9924 213.222L91.4226 214.77L93.9924 213.222ZM110.215 212.465L111.206 215.297L110.215 212.465ZM117.132 207.514L119.489 209.37L117.132 207.514ZM122.839 200.55L125.123 202.496L122.839 200.55ZM136.151 188.628L137.042 191.492L136.151 188.628ZM143.956 183.449L141.704 181.467L143.956 183.449ZM152.08 181.259L153.028 178.413L152.08 181.259ZM161.211 181.888L161.865 184.816L161.211 181.888ZM169.143 148.236L167.571 145.681L169.143 148.236ZM184.554 138.651L186.806 140.633L184.554 138.651ZM199.556 123.236L197.785 125.658L199.556 123.236ZM191.584 109.438L188.587 109.299L191.584 109.438ZM189.097 107.436L187.06 105.234L189.097 107.436ZM179.313 121.612L176.415 120.838L179.313 121.612ZM167.049 135.87L164.543 134.22L167.049 135.87ZM149.417 123.699L146.466 124.238L149.417 123.699ZM153.378 119.044L153.052 116.061L153.378 119.044ZM162.089 119.03L161.714 122.007L162.089 119.03ZM168.94 106.443L165.981 105.946L168.94 106.443ZM171.023 97.5941L173.892 98.4691L171.023 97.5941ZM175.19 89.677L177.537 91.546L175.19 89.677ZM191.366 85.1173L191.915 88.0667L191.366 85.1173ZM198.183 81.688L200.21 83.8994L198.183 81.688ZM200.482 67.2906L202.991 65.6458L200.482 67.2906ZM194.932 64.5613L195.455 61.6073L194.932 64.5613ZM187.803 64.8946L188.865 67.7004L187.803 64.8946ZM180.577 67.7126L181.686 70.5003L180.577 67.7126ZM166.249 79.3461L163.76 77.6714L166.249 79.3461ZM159.829 85.9339L158.064 83.5083L159.829 85.9339ZM155.12 93.3456L152.167 92.8197L155.12 93.3456ZM150.987 101.1L153.061 103.267L150.987 101.1ZM144.258 107.189L146.207 109.47L144.258 107.189ZM137.237 99.336L134.427 100.385L137.237 99.336ZM135.926 92.2982L138.916 92.5399L135.926 92.2982ZM138.921 85.6317L136.501 83.8586L138.921 85.6317ZM157.698 66.3319L156.175 63.7474L157.698 66.3319ZM172.602 56.8812L172.547 53.8817L172.602 56.8812ZM181.816 56.403L181.557 53.4142L181.816 56.403ZM192.391 44.6372L195.161 43.4853L192.391 44.6372ZM181.047 32.2574L178.534 33.8953L181.047 32.2574ZM165.636 30.336L167.557 32.6399L165.636 30.336ZM158.177 35.1593L159.516 37.8439L158.177 35.1593ZM143.626 46.4248L145.574 48.706L143.626 46.4248ZM134.298 62.1972L131.34 61.698V61.698L134.298 62.1972ZM130.189 70.513L132.329 72.6155L130.189 70.513ZM122.865 76.2477L121.333 73.6684L122.865 76.2477ZM115.915 75.1681L113.606 77.0825L115.915 75.1681ZM105.51 52.9853L106.758 50.2575L105.51 52.9853ZM104.94 30.0772L107.918 30.4374L104.94 30.0772ZM69.7464 3.65762L70.5612 0.770382L69.7464 3.65762ZM61.4073 3.58459L62.3119 6.44497L61.4073 3.58459ZM55.4549 18.5657L52.4746 18.2227L55.4549 18.5657ZM60.7317 37.9288L57.7832 37.3754L60.7317 37.9288ZM68.0416 45.9473L67.1752 48.8194L68.0416 45.9473ZM83.0641 54.1304L80.7835 56.0794L83.0641 54.1304ZM90.2048 57.5899L90.6196 54.6187L90.2048 57.5899ZM95.1914 62.9832L92.1951 63.1324L95.1914 62.9832ZM98.3284 71.0481L100.592 69.079L98.3284 71.0481ZM101.941 72.9968L104.684 74.2107L104.649 74.2892L104.61 74.3655L101.941 72.9968ZM102.588 71.5329L99.845 70.319L101.829 65.8362L104.918 69.6423L102.588 71.5329ZM102.651 71.6106L104.981 69.72L105.885 70.8339L105.585 72.2369L102.651 71.6106ZM92.3002 83.0767L95.1461 84.0258L92.3002 83.0767ZM91.6133 82.6019L94.5978 82.2976L91.6133 82.6019ZM92.649 81.1954L95.4909 80.2345L92.649 81.1954ZM92.8859 81.5848L92.118 78.6848L92.7322 78.5221L93.3596 78.6225L92.8859 81.5848ZM107.965 77.7937L105.014 78.3349L107.965 77.7937ZM104.933 72.6537L106.072 69.8786L106.127 69.901L106.18 69.9255L104.933 72.6537ZM102.631 71.7084L101.491 74.4834L99.1737 73.5318L99.6966 71.082L102.631 71.7084ZM99.5622 69.128L97.6829 71.4665L99.5622 69.128ZM98.2481 67.9634L96.4597 70.3721L98.2481 67.9634ZM101.778 70.759L99.8452 73.0536L101.778 70.759ZM92.7893 81.6104L92.7118 84.6094L92.6118 84.6068L92.6893 81.6078L92.7668 78.6088L92.8668 78.6114L92.7893 81.6104ZM92.6893 81.6078L90.986 84.0774C88.628 82.4511 86.6486 81.3873 85.0284 80.7946C83.3931 80.1964 82.3219 80.1498 81.6632 80.2871L81.051 77.3502L80.4388 74.4134C82.5781 73.9674 84.8456 74.3389 87.0897 75.1598C89.3489 75.9863 91.7897 77.343 94.3926 79.1383L92.6893 81.6078ZM81.051 77.3502L81.6632 80.2871C79.0331 80.8353 76.4871 81.6 74.0229 82.5806L72.9136 79.7933L71.8043 77.0059C74.5942 75.8956 77.4731 75.0316 80.4388 74.4134L81.051 77.3502ZM72.9136 79.7933L74.0229 82.5806C70.8037 83.8617 67.4467 84.079 64.0419 83.2562L64.7465 80.3401L65.4512 77.4241C67.6817 77.9631 69.7694 77.8157 71.8043 77.0059L72.9136 79.7933ZM64.7465 80.3401L64.0419 83.2562C61.438 82.627 58.6756 82.2612 55.7485 82.1672L55.8448 79.1687L55.9411 76.1703C59.2476 76.2764 62.4196 76.6915 65.4512 77.4241L64.7465 80.3401ZM55.8448 79.1687L55.7485 82.1672C52.5726 82.0652 49.4469 81.8708 46.3716 81.5836L46.6506 78.5966L46.9295 75.6096C49.8796 75.8851 52.8834 76.0721 55.9411 76.1703L55.8448 79.1687ZM46.6506 78.5966L46.3716 81.5836C43.5609 81.3211 40.6583 81.336 37.6603 81.6344L37.3631 78.6492L37.066 75.6639C40.4258 75.3295 43.7149 75.3094 46.9295 75.6096L46.6506 78.5966ZM37.3631 78.6492L37.6603 81.6344C35.3145 81.8679 33.5127 82.8761 32.0767 84.7678L29.6872 82.9539L27.2977 81.1399C29.7384 77.9249 33.0538 76.0633 37.066 75.6639L37.3631 78.6492ZM29.6872 82.9539L32.0767 84.7678C30.2288 87.202 28.5315 89.8147 26.9859 92.6082L24.3609 91.1559L21.7359 89.7035C23.4154 86.6678 25.269 83.8124 27.2977 81.1399L29.6872 82.9539ZM24.3609 91.1559L26.9859 92.6082C25.9294 94.5179 24.4176 96.074 22.3385 96.8274C20.2789 97.5738 18.1079 97.3705 16.035 96.6496L17.0205 93.8161L18.006 90.9826C19.2142 91.4028 19.9071 91.3267 20.2942 91.1864C20.662 91.0531 21.1798 90.7085 21.7359 89.7035L24.3609 91.1559ZM17.0205 93.8161L16.035 96.6496C14.8053 96.2218 13.8208 96.1709 13.0102 96.3351C12.2064 96.498 11.372 96.9131 10.4973 97.7378L8.43922 95.555L6.38112 93.3723C7.94629 91.8965 9.76196 90.8714 11.8186 90.4547C13.8684 90.0393 15.9547 90.2691 18.006 90.9826L17.0205 93.8161ZM8.43922 95.555L10.4973 97.7378C8.44351 99.6743 7.04021 101.964 6.25433 104.651L3.37492 103.809L0.4955 102.967C1.5824 99.2502 3.55531 96.0368 6.38112 93.3723L8.43922 95.555ZM3.37492 103.809L6.25433 104.651C5.91688 105.805 5.95018 106.654 6.15178 107.305C6.35276 107.954 6.79938 108.661 7.71542 109.402L5.82823 111.734L3.94104 114.066C2.28515 112.726 1.03693 111.072 0.420119 109.079C-0.196047 107.089 -0.103431 105.015 0.4955 102.967L3.37492 103.809ZM5.82823 111.734L7.71542 109.402C10.0927 111.326 12.5167 112.798 14.9858 113.845L13.8148 116.607L12.6439 119.369C9.60799 118.082 6.70758 116.305 3.94104 114.066L5.82823 111.734ZM13.8148 116.607L14.9858 113.845C17.4761 114.9 20.1333 115.615 22.968 115.98L22.5842 118.956L22.2003 121.931C18.8475 121.498 15.6585 120.647 12.6439 119.369L13.8148 116.607ZM22.5842 118.956L22.968 115.98C25.1595 116.263 27.0647 115.683 28.8791 114.07L30.8721 116.313L32.8651 118.555C29.8164 121.265 26.1963 122.447 22.2003 121.931L22.5842 118.956ZM30.8721 116.313L28.8791 114.07C30.9439 112.235 32.4837 110.005 33.5089 107.337L36.3093 108.413L39.1097 109.489C37.7485 113.031 35.6635 116.068 32.8651 118.555L30.8721 116.313ZM36.3093 108.413L33.5089 107.337C34.2856 105.315 35.5619 103.552 37.5431 102.554C39.5112 101.562 41.6936 101.569 43.7991 102.101L43.0641 105.01L42.3291 107.918C41.1246 107.614 40.5262 107.769 40.2427 107.912C39.9723 108.049 39.5261 108.405 39.1097 109.489L36.3093 108.413ZM43.0641 105.01L43.7991 102.101C46.4346 102.767 48.7615 102.492 50.9389 101.349L52.3331 104.006L53.7273 106.662C50.1662 108.531 46.3137 108.925 42.3291 107.918L43.0641 105.01ZM52.3331 104.006L50.9389 101.349C53.8369 99.8282 56.6457 98.4143 59.365 97.1078L60.6641 99.8119L61.9633 102.516C59.3131 103.789 56.5679 105.171 53.7273 106.662L52.3331 104.006ZM60.6641 99.8119L59.365 97.1078C61.9739 95.8544 64.6482 94.434 67.3881 92.8447L68.8934 95.4397L70.3986 98.0347C67.5357 99.6954 64.7238 101.19 61.9633 102.516L60.6641 99.8119ZM68.8934 95.4397L67.3881 92.8447C69.2097 91.788 71.1767 91.226 73.24 91.3137C75.2931 91.401 77.2267 92.1222 79.01 93.2905L77.366 95.7999L75.722 98.3094C74.6583 97.6125 73.7563 97.3411 72.9852 97.3083C72.2242 97.276 71.3785 97.4664 70.3986 98.0347L68.8934 95.4397ZM77.366 95.7999L79.01 93.2905C81.4891 94.9146 83.9489 95.7746 86.4141 95.9736L86.1727 98.9639L85.9313 101.954C82.3483 101.665 78.937 100.416 75.722 98.3094L77.366 95.7999ZM86.1727 98.9639L86.4141 95.9736C89.5405 96.226 92.6537 96.6385 95.7534 97.2107L95.2088 100.161L94.6642 103.111C91.764 102.576 88.8531 102.19 85.9313 101.954L86.1727 98.9639ZM95.2088 100.161L95.7534 97.2107C98.8142 97.7758 101.853 98.4345 104.869 99.187L104.143 102.098L103.416 105.009C100.521 104.286 97.6033 103.654 94.6642 103.111L95.2088 100.161ZM104.143 102.098L104.869 99.187C107.729 99.9007 110.795 100.515 114.067 101.029L113.602 103.992L113.137 106.956C109.708 106.418 106.468 105.77 103.416 105.009L104.143 102.098ZM113.602 103.992L114.067 101.029C116.163 101.357 118.283 102.22 119.556 104.172C120.83 106.125 120.762 108.414 120.214 110.463L117.316 109.688L114.418 108.914C114.575 108.324 114.599 107.933 114.583 107.702C114.575 107.592 114.559 107.525 114.548 107.492C114.538 107.461 114.531 107.451 114.53 107.449C114.529 107.448 114.522 107.436 114.497 107.414C114.471 107.391 114.416 107.349 114.317 107.297C114.111 107.187 113.742 107.051 113.137 106.956L113.602 103.992ZM117.316 109.688L120.214 110.463C119.24 114.106 117.58 117.156 114.91 119.051L113.174 116.604L111.438 114.158C112.541 113.375 113.642 111.814 114.418 108.914L117.316 109.688ZM113.174 116.604L114.91 119.051C111.937 121.161 108.435 121.078 105.007 119.694L106.13 116.912L107.253 114.13C109.444 115.014 110.638 114.725 111.438 114.158L113.174 116.604ZM106.13 116.912L105.007 119.694C102.022 118.489 99.1706 117.011 96.4545 115.261L98.0796 112.739L99.7047 110.217C102.105 111.764 104.62 113.068 107.253 114.13L106.13 116.912ZM98.0796 112.739L96.4545 115.261C94.5699 114.046 92.5648 113.666 90.2608 114.131L89.6668 111.19L89.0729 108.25C92.8701 107.483 96.4734 108.135 99.7047 110.217L98.0796 112.739ZM89.6668 111.19L90.2608 114.131C87.3575 114.717 84.5413 115.512 81.8105 116.515L80.7764 113.699L79.7424 110.883C82.7642 109.773 85.875 108.896 89.0729 108.25L89.6668 111.19ZM80.7764 113.699L81.8105 116.515C78.6381 117.68 75.342 118.332 71.934 118.472L71.8106 115.475L71.6871 112.477C74.481 112.362 77.1621 111.83 79.7424 110.883L80.7764 113.699ZM71.8106 115.475L71.934 118.472C68.7557 118.603 65.6652 118.607 62.6632 118.482L62.7875 115.485L62.9118 112.488C65.7387 112.605 68.6635 112.602 71.6871 112.477L71.8106 115.475ZM62.7875 115.485L62.6632 118.482C59.9274 118.369 57.2169 118.5 54.5293 118.875L54.1146 115.904L53.6999 112.933C56.7472 112.508 59.8186 112.359 62.9118 112.488L62.7875 115.485ZM54.1146 115.904L54.5293 118.875C51.3856 119.314 48.0474 119.333 44.528 118.956L44.8469 115.973L45.1659 112.99C48.2685 113.322 51.1088 113.295 53.6999 112.933L54.1146 115.904ZM44.8469 115.973L44.528 118.956C43.3442 118.83 42.7529 119.052 42.4499 119.254C42.1541 119.451 41.7412 119.888 41.4317 120.983L38.5448 120.166L35.658 119.35C36.2389 117.296 37.3215 115.459 39.1263 114.258C40.924 113.062 43.0386 112.763 45.1659 112.99L44.8469 115.973ZM38.5448 120.166L41.4317 120.983C40.539 124.14 39.6876 127.099 38.8775 129.86L35.9989 129.015L33.1203 128.17C33.9241 125.431 34.77 122.491 35.658 119.35L38.5448 120.166ZM35.9989 129.015L38.8775 129.86C38.0148 132.8 36.8174 135.798 35.2987 138.852L32.6124 137.517L29.9261 136.181C31.3089 133.4 32.3691 130.73 33.1203 128.17L35.9989 129.015ZM32.6124 137.517L35.2987 138.852C34.0249 141.414 33.3076 144.091 33.1354 146.903L30.1411 146.72L27.1466 146.536C27.3684 142.913 28.2987 139.454 29.9261 136.181L32.6124 137.517ZM30.1411 146.72L33.1354 146.903C33.0659 148.039 33.2707 148.879 33.6279 149.535C33.988 150.197 34.6064 150.861 35.6579 151.478L34.1395 154.066L32.621 156.653C30.8099 155.59 29.3307 154.191 28.358 152.403C27.3824 150.611 27.0193 148.618 27.1466 146.536L30.1411 146.72ZM34.1395 154.066L35.6579 151.478C38.489 153.14 41.2123 154.668 43.8279 156.065L42.4152 158.711L41.0025 161.358C38.3088 159.92 35.5149 158.351 32.621 156.653L34.1395 154.066ZM42.4152 158.711L43.8279 156.065C45.7477 157.089 47.6004 157.226 49.5991 156.516L50.6033 159.343L51.6074 162.17C47.998 163.452 44.392 163.167 41.0025 161.358L42.4152 158.711ZM50.6033 159.343L49.5991 156.516C51.7689 155.745 53.4661 154.403 54.759 152.407L57.2772 154.037L59.7955 155.668C57.7978 158.753 55.0457 160.948 51.6074 162.17L50.6033 159.343ZM57.2772 154.037L54.759 152.407C56.3501 149.949 57.8659 147.34 59.3054 144.576L61.966 145.962L64.6266 147.348C63.105 150.269 61.4949 153.043 59.7955 155.668L57.2772 154.037ZM61.966 145.962L59.3054 144.576C61.0591 141.21 63.6038 138.623 66.9107 136.91L68.2906 139.574L69.6704 142.237C67.5058 143.359 65.8341 145.03 64.6266 147.348L61.966 145.962ZM68.2906 139.574L66.9107 136.91C70.0659 135.275 73.4941 134.414 77.1536 134.304L77.2435 137.302L77.3334 140.301C74.5273 140.385 71.9869 141.037 69.6704 142.237L68.2906 139.574ZM77.2435 137.302L77.1536 134.304C79.922 134.221 82.3927 133.533 84.6193 132.265L86.1046 134.871L87.5899 137.478C84.4675 139.257 81.0308 140.19 77.3334 140.301L77.2435 137.302ZM86.1046 134.871L84.6193 132.265C87.7191 130.498 91.0521 129.566 94.5778 129.494L94.6385 132.494L94.6993 135.493C92.1954 135.544 89.8392 136.196 87.5899 137.478L86.1046 134.871ZM94.6385 132.494L94.5778 129.494C97.2193 129.441 99.8357 128.907 102.441 127.875L103.547 130.664L104.652 133.453C101.41 134.738 98.0873 135.424 94.6993 135.493L94.6385 132.494ZM103.547 130.664L102.441 127.875C105.893 126.507 109.45 126.175 113.041 126.914L112.436 129.853L111.831 132.791C109.417 132.294 107.047 132.503 104.652 133.453L103.547 130.664ZM112.436 129.853L113.041 126.914C116.006 127.525 118.969 128.076 121.929 128.569L121.436 131.528L120.944 134.487C117.908 133.982 114.871 133.417 111.831 132.791L112.436 129.853ZM121.436 131.528L121.929 128.569C125.335 129.135 128.408 130.353 131.091 132.254L129.356 134.702L127.621 137.15C125.741 135.817 123.534 134.918 120.944 134.487L121.436 131.528ZM129.356 134.702L131.091 132.254C133.623 134.049 135.87 136.218 137.831 138.746L135.46 140.585L133.09 142.424C131.475 140.342 129.652 138.589 127.621 137.15L129.356 134.702ZM135.46 140.585L137.831 138.746C138.817 140.017 139.686 141.438 139.981 142.922C140.138 143.711 140.152 144.615 139.841 145.531C139.523 146.468 138.935 147.208 138.226 147.747L136.41 145.359L134.594 142.971C134.463 143.071 134.268 143.282 134.159 143.603C134.058 143.901 134.097 144.099 134.096 144.092C134.092 144.073 134.054 143.918 133.886 143.605C133.721 143.3 133.465 142.908 133.09 142.424L135.46 140.585ZM136.41 145.359L138.226 147.747C136.844 148.798 135.212 148.999 133.746 148.832C132.307 148.668 130.794 148.131 129.272 147.396L130.577 144.694L131.882 141.993C133.094 142.579 133.921 142.813 134.425 142.87C134.904 142.925 134.822 142.798 134.594 142.971L136.41 145.359ZM130.577 144.694L129.272 147.396C126.858 146.23 124.294 145.507 121.563 145.229L121.867 142.245L122.17 139.26C125.585 139.607 128.828 140.518 131.882 141.993L130.577 144.694ZM121.867 142.245L121.563 145.229C118.63 144.931 115.823 144.854 113.14 144.991L112.987 141.995L112.833 138.999C115.845 138.845 118.958 138.933 122.17 139.26L121.867 142.245ZM112.987 141.995L113.14 144.991C110.88 145.107 108.646 145.848 106.405 147.319L104.759 144.81L103.113 142.302C106.147 140.311 109.398 139.175 112.833 138.999L112.987 141.995ZM104.759 144.81L106.405 147.319C104.338 148.675 103.169 150.336 102.672 152.345L99.7595 151.626L96.8471 150.906C97.7405 147.291 99.9037 144.408 103.113 142.302L104.759 144.81ZM99.7595 151.626L102.672 152.345C101.759 156.04 99.4979 158.745 95.8961 159.906L94.9755 157.051L94.0548 154.196C95.4417 153.749 96.37 152.837 96.8471 150.906L99.7595 151.626ZM94.9755 157.051L95.8961 159.906C92.803 160.904 89.5255 160.932 86.1461 160.118L86.8485 157.201L87.5509 154.285C90.0188 154.879 92.1593 154.807 94.0548 154.196L94.9755 157.051ZM86.8485 157.201L86.1461 160.118C83.1259 159.39 80.0927 158.501 77.0467 157.452L78.0242 154.615L79.0016 151.779C81.8743 152.769 84.724 153.604 87.5509 154.285L86.8485 157.201ZM78.0242 154.615L77.0467 157.452C76.0115 157.095 75.1828 157.068 74.4866 157.226C73.7854 157.385 73.0124 157.779 72.1685 158.584L70.0975 156.413L68.0265 154.243C69.5077 152.829 71.2184 151.814 73.1593 151.374C75.1054 150.933 77.0775 151.116 79.0016 151.779L78.0242 154.615ZM70.0975 156.413L72.1685 158.584C70.5071 160.169 69.9368 161.853 70.2248 163.898L67.2541 164.317L64.2834 164.735C63.7123 160.679 65.0375 157.095 68.0265 154.243L70.0975 156.413ZM67.2541 164.317L70.2248 163.898C70.6937 167.229 70.688 170.553 70.2058 173.863L67.2372 173.431L64.2685 172.998C64.6679 170.257 64.6735 167.505 64.2834 164.735L67.2541 164.317ZM67.2372 173.431L70.2058 173.863C69.7799 176.787 70.1384 177.976 70.3326 178.28L67.8034 179.894L65.2741 181.507C63.8318 179.246 63.8128 176.126 64.2685 172.998L67.2372 173.431ZM67.8034 179.894L70.3326 178.28C70.464 178.486 71.2569 179.238 74.0354 179.853L73.3873 182.782L72.7391 185.711C69.7089 185.041 66.7792 183.867 65.2741 181.507L67.8034 179.894ZM73.3873 182.782L74.0354 179.853C75.1318 180.095 75.6929 179.986 75.933 179.891C76.0962 179.826 76.3207 179.695 76.5612 179.179L79.2808 180.445L82.0005 181.711C81.2162 183.395 79.9461 184.754 78.1448 185.468C76.4204 186.152 74.547 186.111 72.7391 185.711L73.3873 182.782ZM79.2808 180.445L76.5612 179.179C77.9278 176.244 80.3917 173.947 83.5789 172.173L85.0382 174.794L86.4974 177.415C84.0576 178.774 82.6833 180.245 82.0005 181.711L79.2808 180.445ZM85.0382 174.794L83.5789 172.173C86.7697 170.397 90.2545 169.334 94.0001 168.97L94.2901 171.956L94.5801 174.942C91.6168 175.23 88.9336 176.059 86.4974 177.415L85.0382 174.794ZM94.2901 171.956L94.0001 168.97C97.8801 168.593 101.502 169.235 104.758 170.989L103.334 173.63L101.911 176.271C99.8166 175.142 97.409 174.667 94.5801 174.942L94.2901 171.956ZM103.334 173.63L104.758 170.989C105.66 171.475 106.388 171.597 107.006 171.538C107.634 171.478 108.396 171.205 109.312 170.502L111.139 172.882L112.966 175.262C111.354 176.499 109.551 177.322 107.578 177.511C105.594 177.701 103.684 177.227 101.911 176.271L103.334 173.63ZM111.139 172.882L109.312 170.502C111.532 168.798 113.266 166.804 114.549 164.515L117.166 165.982L119.783 167.448C118.085 170.479 115.801 173.085 112.966 175.262L111.139 172.882ZM117.166 165.982L114.549 164.515C116.199 161.57 118.252 159.018 120.713 156.886L122.678 159.153L124.642 161.42C122.734 163.074 121.113 165.074 119.783 167.448L117.166 165.982ZM122.678 159.153L120.713 156.886C123.481 154.488 126.766 153.355 130.412 153.562L130.242 156.557L130.072 159.553C128.001 159.435 126.243 160.033 124.642 161.42L122.678 159.153ZM130.242 156.557L130.412 153.562C133.539 153.74 136.623 154.331 139.659 155.329L138.722 158.179L137.785 161.029C135.232 160.189 132.663 159.699 130.072 159.553L130.242 156.557ZM138.722 158.179L139.659 155.329C142.521 156.27 145.445 157.344 148.43 158.551L147.306 161.332L146.182 164.114C143.311 162.953 140.512 161.925 137.785 161.029L138.722 158.179ZM147.306 161.332L148.43 158.551C152.019 160.001 154.7 162.461 156.262 165.905L153.529 167.144L150.797 168.383C149.918 166.445 148.45 165.031 146.182 164.114L147.306 161.332ZM153.529 167.144L156.262 165.905C156.639 166.738 156.948 167.638 157.052 168.554C157.159 169.483 157.073 170.614 156.433 171.668C155.103 173.857 152.577 174.022 151.049 173.932L151.225 170.937L151.401 167.943C151.631 167.956 151.797 167.952 151.908 167.942C152.021 167.933 152.052 167.92 152.024 167.928C151.994 167.938 151.883 167.977 151.739 168.081C151.586 168.19 151.429 168.348 151.305 168.553C151.049 168.975 151.098 169.296 151.091 169.236C151.088 169.21 151.075 169.126 151.028 168.974C150.982 168.824 150.908 168.628 150.797 168.383L153.529 167.144ZM151.225 170.937L151.049 173.932C148.05 173.756 144.988 173.212 141.867 172.316L142.694 169.433L143.522 166.549C146.262 167.336 148.887 167.795 151.401 167.943L151.225 170.937ZM142.694 169.433L141.867 172.316C140.847 172.024 140.098 172.054 139.52 172.227C138.942 172.401 138.303 172.787 137.619 173.589L135.337 171.642L133.054 169.695C134.344 168.183 135.919 167.044 137.794 166.481C139.669 165.918 141.611 166 143.522 166.549L142.694 169.433ZM135.337 171.642L137.619 173.589C135.85 175.663 134.501 177.895 133.553 180.288L130.764 179.183L127.975 178.079C129.176 175.046 130.875 172.25 133.054 169.695L135.337 171.642ZM130.764 179.183L133.553 180.288C132.846 182.075 131.753 183.626 130.166 184.699C128.572 185.775 126.728 186.201 124.811 186.16L124.876 183.16L124.941 180.161C125.875 180.181 126.438 179.976 126.807 179.726C127.182 179.473 127.608 179.005 127.975 178.079L130.764 179.183ZM124.876 183.16L124.811 186.16C123.879 186.139 123.214 186.34 122.7 186.655C122.175 186.976 121.622 187.531 121.107 188.498L118.459 187.088L115.811 185.679C116.723 183.965 117.954 182.525 119.567 181.537C121.192 180.543 123.022 180.119 124.941 180.161L124.876 183.16ZM118.459 187.088L121.107 188.498C119.78 190.991 118.669 193.716 117.78 196.682L114.907 195.821L112.033 194.96C113.026 191.644 114.283 188.548 115.811 185.679L118.459 187.088ZM114.907 195.821L117.78 196.682C117.181 198.683 116.169 200.441 114.659 201.799C113.147 203.159 111.295 203.974 109.245 204.341L108.716 201.388L108.188 198.435C109.323 198.232 110.096 197.834 110.647 197.338C111.2 196.841 111.691 196.1 112.033 194.96L114.907 195.821ZM108.716 201.388L109.245 204.341C105.599 204.993 102.01 204.788 98.5196 203.711L99.404 200.844L100.288 197.978C102.843 198.766 105.462 198.923 108.188 198.435L108.716 201.388ZM99.404 200.844L98.5196 203.711C97.5066 203.399 97.1078 203.56 96.9806 203.628C96.8168 203.715 96.3835 204.039 95.9533 205.215L93.1361 204.184L90.3188 203.153C91.0446 201.169 92.234 199.358 94.1595 198.332C96.1216 197.287 98.2787 197.358 100.288 197.978L99.404 200.844ZM93.1361 204.184L95.9533 205.215C95.1076 207.525 95.3066 209.59 96.5622 211.674L93.9924 213.222L91.4226 214.77C89.2244 211.121 88.8525 207.159 90.3188 203.153L93.1361 204.184ZM93.9924 213.222L96.5622 211.674C97.1713 212.685 97.7139 213.031 98.0877 213.158C98.4655 213.287 99.1212 213.347 100.25 212.918L101.316 215.722L102.383 218.526C100.355 219.297 98.2128 219.541 96.1493 218.836C94.0818 218.131 92.5404 216.626 91.4226 214.77L93.9924 213.222ZM101.316 215.722L100.25 212.918C103.427 211.71 106.419 210.615 109.225 209.633L110.215 212.465L111.206 215.297C108.457 216.258 105.517 217.334 102.383 218.526L101.316 215.722ZM110.215 212.465L109.225 209.633C111.458 208.852 113.292 207.542 114.775 205.658L117.132 207.514L119.489 209.37C117.305 212.144 114.526 214.135 111.206 215.297L110.215 212.465ZM117.132 207.514L114.775 205.658C116.634 203.297 118.561 200.946 120.556 198.605L122.839 200.55L125.123 202.496C123.177 204.78 121.299 207.071 119.489 209.37L117.132 207.514ZM122.839 200.55L120.556 198.605C122.519 196.3 124.478 193.975 126.432 191.63L128.737 193.55L131.042 195.47C129.074 197.833 127.101 200.175 125.123 202.496L122.839 200.55ZM128.737 193.55L126.432 191.63C128.77 188.823 131.736 186.859 135.259 185.763L136.151 188.628L137.042 191.492C134.601 192.252 132.625 193.57 131.042 195.47L128.737 193.55ZM136.151 188.628L135.259 185.763C137.675 185.011 139.817 183.611 141.704 181.467L143.956 183.449L146.208 185.431C143.652 188.336 140.591 190.388 137.042 191.492L136.151 188.628ZM143.956 183.449L141.704 181.467C143.125 179.851 144.843 178.658 146.872 178.111C148.901 177.565 150.986 177.732 153.028 178.413L152.08 181.259L151.131 184.105C149.979 183.721 149.113 183.722 148.434 183.905C147.754 184.088 147.008 184.522 146.208 185.431L143.956 183.449ZM152.08 181.259L153.028 178.413C155.778 179.33 158.265 179.471 160.558 178.96L161.211 181.888L161.865 184.816C158.371 185.595 154.771 185.318 151.131 184.105L152.08 181.259ZM161.211 181.888L160.558 178.96C162.993 178.416 165.211 177.349 167.237 175.727L169.112 178.069L170.987 180.411C168.265 182.589 165.216 184.068 161.865 184.816L161.211 181.888ZM169.112 178.069L167.237 175.727C169.85 173.635 172.764 171.949 175.966 170.665L177.083 173.449L178.2 176.233C175.521 177.308 173.122 178.702 170.987 180.411L169.112 178.069ZM177.083 173.449L175.966 170.665C178.422 169.679 180.425 168.177 182.025 166.134L184.387 167.984L186.749 169.833C184.49 172.718 181.624 174.86 178.2 176.233L177.083 173.449ZM184.387 167.984L182.025 166.134C183.934 163.695 185.683 161.38 187.273 159.187L189.702 160.948L192.131 162.709C190.492 164.969 188.698 167.344 186.749 169.833L184.387 167.984ZM189.702 160.948L187.273 159.187C187.857 158.382 188.058 157.775 188.105 157.348C188.147 156.955 188.082 156.526 187.782 155.989L190.401 154.526L193.02 153.063C193.868 154.581 194.26 156.25 194.069 157.997C193.883 159.711 193.161 161.288 192.131 162.709L189.702 160.948ZM190.401 154.526L187.782 155.989C187.449 155.394 187.1 155.088 186.767 154.912C186.422 154.729 185.897 154.583 185.068 154.624L184.921 151.627L184.774 148.631C186.45 148.549 188.091 148.824 189.573 149.608C191.066 150.398 192.204 151.602 193.02 153.063L190.401 154.526ZM184.921 151.627L185.068 154.624C183.555 154.698 182.005 155.408 180.387 157.262L178.127 155.288L175.867 153.315C178.298 150.532 181.277 148.802 184.774 148.631L184.921 151.627ZM178.127 155.288L180.387 157.262C178.521 159.398 176.938 161.724 175.635 164.243L172.97 162.865L170.306 161.486C171.83 158.54 173.685 155.814 175.867 153.315L178.127 155.288ZM172.97 162.865L175.635 164.243C174.714 166.024 173.425 167.505 171.695 168.465C169.964 169.426 168.027 169.735 166.032 169.565L166.286 166.576L166.54 163.587C167.587 163.676 168.286 163.495 168.783 163.219C169.282 162.942 169.813 162.438 170.306 161.486L172.97 162.865ZM166.286 166.576L166.032 169.565C164.053 169.397 162.173 168.769 160.683 167.432C159.182 166.085 158.374 164.283 158.057 162.328L161.018 161.848L163.979 161.367C164.131 162.306 164.436 162.739 164.691 162.967C164.957 163.206 165.477 163.496 166.54 163.587L166.286 166.576ZM161.018 161.848L158.057 162.328C157.463 158.671 158.239 155.258 160.396 152.282L162.825 154.042L165.254 155.803C164.063 157.447 163.634 159.238 163.979 161.367L161.018 161.848ZM162.825 154.042L160.396 152.282C162.312 149.639 164.714 147.438 167.571 145.681L169.143 148.236L170.715 150.791C168.497 152.155 166.688 153.826 165.254 155.803L162.825 154.042ZM169.143 148.236L167.571 145.681C170.239 144.04 173.031 142.602 175.946 141.368L177.116 144.13L178.286 146.893C175.646 148.011 173.122 149.31 170.715 150.791L169.143 148.236ZM177.116 144.13L175.946 141.368C178.272 140.383 180.391 138.839 182.302 136.668L184.554 138.651L186.806 140.633C184.356 143.415 181.516 145.525 178.286 146.893L177.116 144.13ZM184.554 138.651L182.302 136.668C185.009 133.594 188.493 131.883 192.588 131.603L192.792 134.596L192.997 137.589C190.469 137.762 188.46 138.754 186.806 140.633L184.554 138.651ZM192.792 134.596L192.588 131.603C194.985 131.439 196.746 130.434 198.108 128.453L200.58 130.152L203.053 131.852C200.653 135.342 197.222 137.3 192.997 137.589L192.792 134.596ZM200.58 130.152L198.108 128.453C198.801 127.445 198.787 126.947 198.767 126.811C198.752 126.706 198.66 126.298 197.785 125.658L199.556 123.236L201.327 120.815C203.015 122.05 204.376 123.731 204.702 125.932C205.024 128.101 204.241 130.124 203.053 131.852L200.58 130.152ZM199.556 123.236L197.785 125.658C194.998 123.619 192.727 121.357 191.049 118.844L193.544 117.178L196.039 115.512C197.251 117.327 198.987 119.103 201.327 120.815L199.556 123.236ZM193.544 117.178L191.049 118.844C189.196 116.069 188.424 112.834 188.587 109.299L191.584 109.438L194.581 109.576C194.467 112.035 195.002 113.96 196.039 115.512L193.544 117.178ZM191.584 109.438L188.587 109.299C188.617 108.66 188.584 108.317 188.559 108.183C188.547 108.122 188.552 108.188 188.617 108.326C188.682 108.464 188.845 108.753 189.185 109.027C189.556 109.326 190.012 109.503 190.473 109.54C190.894 109.573 191.197 109.481 191.326 109.432C191.531 109.354 191.479 109.319 191.134 109.639L189.097 107.436L187.06 105.234C187.613 104.722 188.338 104.147 189.2 103.821C190.162 103.457 191.649 103.308 192.947 104.353C193.998 105.199 194.326 106.389 194.455 107.072C194.602 107.854 194.621 108.717 194.581 109.576L191.584 109.438ZM189.097 107.436L191.134 109.639C189.456 111.19 187.672 113.101 185.783 115.388L183.47 113.478L181.157 111.567C183.176 109.123 185.144 107.006 187.06 105.234L189.097 107.436ZM183.47 113.478L185.783 115.388C184.112 117.412 182.921 119.733 182.211 122.387L179.313 121.612L176.415 120.838C177.34 117.378 178.92 114.276 181.157 111.567L183.47 113.478ZM179.313 121.612L182.211 122.387C181.195 126.188 178.938 129.235 175.594 131.458L173.933 128.96L172.272 126.462C174.466 125.003 175.796 123.15 176.415 120.838L179.313 121.612ZM173.933 128.96L175.594 131.458C173.159 133.078 171.152 135.093 169.555 137.519L167.049 135.87L164.543 134.22C166.586 131.117 169.168 128.526 172.272 126.462L173.933 128.96ZM167.049 135.87L169.555 137.519C167.228 141.054 163.874 143.005 159.699 142.874L159.793 139.876L159.886 136.877C161.747 136.935 163.23 136.215 164.543 134.22L167.049 135.87ZM159.793 139.876L159.699 142.874C156.605 142.777 153.873 142.391 151.93 141.411L153.281 138.732L154.633 136.054C155.336 136.409 156.945 136.785 159.886 136.877L159.793 139.876ZM153.281 138.732L151.93 141.411C150.405 140.641 149.473 139.278 148.894 137.925C148.311 136.562 147.958 134.923 147.754 133.123L150.735 132.784L153.715 132.446C153.885 133.943 154.145 134.944 154.41 135.564C154.68 136.194 154.834 136.156 154.633 136.054L153.281 138.732ZM150.735 132.784L147.754 133.123C147.386 129.88 146.956 126.92 146.466 124.238L149.417 123.699L152.368 123.16C152.886 125.996 153.335 129.093 153.715 132.446L150.735 132.784ZM149.417 123.699L146.466 124.238C146.116 122.324 146.303 120.216 147.745 118.521C149.115 116.911 151.125 116.272 153.052 116.061L153.378 119.044L153.704 122.026C152.487 122.159 152.265 122.468 152.314 122.41C152.347 122.371 152.342 122.346 152.329 122.414C152.312 122.505 152.291 122.736 152.368 123.16L149.417 123.699ZM153.378 119.044L153.052 116.061C156.389 115.696 159.531 115.685 162.463 116.054L162.089 119.03L161.714 122.007C159.321 121.706 156.656 121.703 153.704 122.026L153.378 119.044ZM162.089 119.03L162.463 116.054C163.244 116.152 163.485 115.98 163.543 115.936C163.645 115.86 163.968 115.55 164.218 114.525L167.133 115.238L170.047 115.95C169.597 117.789 168.729 119.543 167.149 120.731C165.527 121.951 163.596 122.244 161.714 122.007L162.089 119.03ZM167.133 115.238L164.218 114.525C164.901 111.735 165.489 108.875 165.981 105.946L168.94 106.443L171.898 106.941C171.382 110.01 170.765 113.013 170.047 115.95L167.133 115.238ZM168.94 106.443L165.981 105.946C166.507 102.819 167.231 99.7433 168.153 96.7191L171.023 97.5941L173.892 98.4691C173.046 101.245 172.381 104.069 171.898 106.941L168.94 106.443ZM171.023 97.5941L168.153 96.7191C169.148 93.4567 170.715 90.4806 172.844 87.808L175.19 89.677L177.537 91.546C175.878 93.6294 174.666 95.9313 173.892 98.4691L171.023 97.5941ZM175.19 89.677L172.844 87.808C175.312 84.7086 178.68 83.0899 182.681 82.9743L182.768 85.973L182.855 88.9717C180.54 89.0387 178.856 89.8894 177.537 91.546L175.19 89.677ZM182.768 85.973L182.681 82.9743C185.715 82.8865 188.423 82.6136 190.817 82.168L191.366 85.1173L191.915 88.0667C189.161 88.5793 186.137 88.8768 182.855 88.9717L182.768 85.973ZM191.366 85.1173L190.817 82.168C192.826 81.794 194.589 80.9128 196.156 79.4766L198.183 81.688L200.21 83.8994C197.835 86.0774 195.053 87.4824 191.915 88.0667L191.366 85.1173ZM198.183 81.688L196.156 79.4766C197.441 78.2987 198.292 76.5653 198.465 73.9251L201.459 74.1216L204.452 74.318C204.201 78.1521 202.868 81.4631 200.21 83.8994L198.183 81.688ZM201.459 74.1216L198.465 73.9251C198.672 70.7696 198.259 69.3713 197.974 68.9354L200.482 67.2906L202.991 65.6458C204.432 67.8435 204.67 70.9992 204.452 74.318L201.459 74.1216ZM200.482 67.2906L197.974 68.9354C197.82 68.7007 197.049 67.9832 194.409 67.5153L194.932 64.5613L195.455 61.6073C198.489 62.1448 201.419 63.2469 202.991 65.6458L200.482 67.2906ZM194.932 64.5613L194.409 67.5153C191.898 67.0704 190.11 67.2292 188.865 67.7004L187.803 64.8946L186.741 62.0887C189.327 61.1101 192.292 61.0467 195.455 61.6073L194.932 64.5613ZM187.803 64.8946L188.865 67.7004C186.97 68.4172 184.579 69.3498 181.686 70.5003L180.577 67.7126L179.469 64.9249C182.379 63.7678 184.804 62.8218 186.741 62.0887L187.803 64.8946ZM180.577 67.7126L181.686 70.5003C179.083 71.5351 176.66 72.9743 174.409 74.8316L172.5 72.5178L170.59 70.2041C173.307 67.962 176.268 66.1976 179.469 64.9249L180.577 67.7126ZM172.5 72.5178L174.409 74.8316C172.134 76.7097 170.25 78.7739 168.738 81.0209L166.249 79.3461L163.76 77.6714C165.615 74.9135 167.899 72.4254 170.59 70.2041L172.5 72.5178ZM166.249 79.3461L168.738 81.0209C166.846 83.8322 164.455 86.2773 161.595 88.3594L159.829 85.9339L158.064 83.5083C160.395 81.8117 162.284 79.865 163.76 77.6714L166.249 79.3461ZM159.829 85.9339L161.595 88.3594C159.601 89.8109 158.476 91.6124 158.074 93.8715L155.12 93.3456L152.167 92.8197C152.851 88.9753 154.866 85.8356 158.064 83.5083L159.829 85.9339ZM155.12 93.3456L158.074 93.8715C157.421 97.5416 155.739 100.704 153.061 103.267L150.987 101.1L148.912 98.9322C150.659 97.2605 151.734 95.2532 152.167 92.8197L155.12 93.3456ZM150.987 101.1L153.061 103.267C150.809 105.422 148.524 107.49 146.207 109.47L144.258 107.189L142.309 104.908C144.539 103.003 146.74 101.012 148.912 98.9322L150.987 101.1ZM144.258 107.189L146.207 109.47C144.995 110.505 143.222 111.718 141.173 111.534C138.608 111.302 137.428 109.212 136.951 107.681L139.815 106.789L142.679 105.896C142.774 106.199 142.819 106.166 142.681 106.018C142.602 105.933 142.472 105.82 142.284 105.724C142.093 105.627 141.894 105.574 141.711 105.558C141.367 105.527 141.232 105.635 141.399 105.554C141.559 105.477 141.86 105.292 142.309 104.908L144.258 107.189ZM139.815 106.789L136.951 107.681C136.283 105.537 135.443 103.106 134.427 100.385L137.237 99.336L140.048 98.2866C141.093 101.085 141.971 103.623 142.679 105.896L139.815 106.789ZM137.237 99.336L134.427 100.385C133.315 97.4081 132.731 94.5952 132.936 92.0564L135.926 92.2982L138.916 92.5399C138.809 93.8661 139.099 95.7451 140.048 98.2866L137.237 99.336ZM135.926 92.2982L132.936 92.0564C133.156 89.33 134.513 86.5724 136.501 83.8586L138.921 85.6317L141.341 87.4047C139.649 89.7145 139.008 91.4013 138.916 92.5399L135.926 92.2982ZM138.921 85.6317L136.501 83.8586C138.453 81.1949 140.616 78.7649 142.992 76.5726L145.026 78.7774L147.061 80.9821C144.977 82.9053 143.07 85.0448 141.341 87.4047L138.921 85.6317ZM145.026 78.7774L142.992 76.5726C145.101 74.6265 147.02 72.5362 148.751 70.3011L151.123 72.1382L153.495 73.9753C151.557 76.4771 149.412 78.8129 147.061 80.9821L145.026 78.7774ZM151.123 72.1382L148.751 70.3011C150.816 67.6359 153.294 65.4454 156.175 63.7474L157.698 66.3319L159.222 68.9164C157.004 70.2233 155.099 71.9037 153.495 73.9753L151.123 72.1382ZM157.698 66.3319L156.175 63.7474C158.44 62.4126 160.543 60.678 162.48 58.5191L164.713 60.5229L166.946 62.5267C164.629 65.1083 162.055 67.2465 159.222 68.9164L157.698 66.3319ZM164.713 60.5229L162.48 58.5191C165.153 55.5409 168.567 53.9548 172.547 53.8817L172.602 56.8812L172.657 59.8807C170.373 59.9227 168.527 60.7644 166.946 62.5267L164.713 60.5229ZM172.602 56.8812L172.547 53.8817C175.613 53.8254 178.616 53.6694 181.557 53.4142L181.816 56.403L182.076 59.3918C178.994 59.6592 175.855 59.822 172.657 59.8807L172.602 56.8812ZM181.816 56.403L181.557 53.4142C183.788 53.2206 185.982 52.2335 188.17 50.1898L190.218 52.3823L192.265 54.5748C189.273 57.3695 185.866 59.0629 182.076 59.3918L181.816 56.403ZM190.218 52.3823L188.17 50.1898C189.189 49.2377 189.642 48.4387 189.815 47.821C189.976 47.2498 189.963 46.6104 189.621 45.7891L192.391 44.6372L195.161 43.4853C195.961 45.4082 196.156 47.4317 195.592 49.4422C195.041 51.4063 193.836 53.1077 192.265 54.5748L190.218 52.3823ZM192.391 44.6372L189.621 45.7891C188.699 43.5718 187.387 42.0672 185.723 41.0909L187.241 38.5034L188.759 35.916C191.68 37.6295 193.801 40.2141 195.161 43.4853L192.391 44.6372ZM187.241 38.5034L185.723 41.0909C182.938 39.4566 180.559 37.0029 178.534 33.8953L181.047 32.2574L183.561 30.6195C185.21 33.15 186.96 34.8603 188.759 35.916L187.241 38.5034ZM181.047 32.2574L178.534 33.8953C177.176 31.8122 175.544 30.9041 173.469 30.8075L173.608 27.8108L173.748 24.814C177.917 25.008 181.244 27.0644 183.561 30.6195L181.047 32.2574ZM173.608 27.8108L173.469 30.8075C171.019 30.6935 169.117 31.3389 167.557 32.6399L165.636 30.336L163.714 28.0321C166.54 25.6756 169.953 24.6375 173.748 24.814L173.608 27.8108ZM165.636 30.336L167.557 32.6399C165.171 34.6302 162.486 36.3623 159.516 37.8439L158.177 35.1593L156.838 32.4748C159.427 31.1829 161.715 29.6995 163.714 28.0321L165.636 30.336ZM158.177 35.1593L159.516 37.8439C156.973 39.1122 154.68 40.6711 152.628 42.5207L150.619 40.2921L148.611 38.0636C151.075 35.8429 153.82 33.9799 156.838 32.4748L158.177 35.1593ZM150.619 40.2921L152.628 42.5207C150.349 44.5743 147.998 46.6361 145.574 48.706L143.626 46.4248L141.677 44.1436C144.062 42.1068 146.373 40.0802 148.611 38.0636L150.619 40.2921ZM143.626 46.4248L145.574 48.706C143.389 50.5726 141.574 52.6572 140.114 54.9611L137.58 53.3555L135.046 51.7499C136.839 48.9194 139.055 46.3836 141.677 44.1436L143.626 46.4248ZM137.58 53.3555L140.114 54.9611C138.723 57.1559 137.758 59.719 137.256 62.6965L134.298 62.1972L131.34 61.698C131.96 58.0208 133.183 54.6893 135.046 51.7499L137.58 53.3555ZM134.298 62.1972L137.256 62.6965C136.601 66.5747 134.974 69.923 132.329 72.6155L130.189 70.513L128.049 68.4105C129.759 66.6701 130.871 64.4745 131.34 61.698L134.298 62.1972ZM130.189 70.513L132.329 72.6155C129.968 75.0188 127.322 77.09 124.397 78.8271L122.865 76.2477L121.333 73.6684C123.818 72.1922 126.055 70.4402 128.049 68.4105L130.189 70.513ZM122.865 76.2477L124.397 78.8271C122.651 79.8643 120.69 80.4659 118.638 80.1473C116.567 79.8255 114.899 78.6425 113.606 77.0825L115.915 75.1681L118.225 73.2537C118.86 74.0201 119.314 74.1803 119.559 74.2184C119.825 74.2596 120.374 74.2379 121.333 73.6684L122.865 76.2477ZM115.915 75.1681L113.606 77.0825C111.603 74.666 109.763 72.1594 108.088 69.5631L110.609 67.9369L113.13 66.3107C114.674 68.7031 116.372 71.0174 118.225 73.2537L115.915 75.1681ZM110.609 67.9369L108.088 69.5631C106.129 66.525 105.199 63.0342 105.208 59.2033L108.208 59.2109L111.208 59.2184C111.201 62.0335 111.872 64.36 113.13 66.3107L110.609 67.9369ZM108.208 59.2109L105.208 59.2033C105.216 56.2017 104.394 55.7741 104.261 55.713L105.51 52.9853L106.758 50.2575C110.24 51.8514 111.218 55.5741 111.208 59.2184L108.208 59.2109ZM105.51 52.9853L104.261 55.713C101.395 54.4012 99.5679 51.6312 98.3857 48.3568L101.207 47.338L104.029 46.3192C104.968 48.9196 106.009 49.9144 106.758 50.2575L105.51 52.9853ZM101.207 47.338L98.3857 48.3568C97.0318 44.607 97.3389 40.9091 99.4071 37.5501L101.962 39.1229L104.516 40.6958C103.458 42.4154 103.262 44.1943 104.029 46.3192L101.207 47.338ZM101.962 39.1229L99.4071 37.5501C100.706 35.4399 101.582 32.8544 101.962 29.7171L104.94 30.0772L107.918 30.4374C107.453 34.2823 106.344 37.7273 104.516 40.6958L101.962 39.1229ZM104.94 30.0772L101.962 29.7171C102.123 28.3861 101.953 27.4621 101.65 26.8065C101.356 26.1711 100.836 25.5674 99.9018 25.0273L101.403 22.43L102.904 19.8327C104.75 20.8997 106.21 22.374 107.095 24.2877C107.971 26.1811 108.18 28.2773 107.918 30.4374L104.94 30.0772ZM101.403 22.43L99.9018 25.0273C96.9634 23.3289 94.2498 21.4037 91.7661 19.2504L93.7313 16.9837L95.6965 14.7169C97.8816 16.6114 100.283 18.3172 102.904 19.8327L101.403 22.43ZM93.7313 16.9837L91.7661 19.2504C89.6653 17.4291 87.3457 15.9759 84.798 14.8842L85.9796 12.1267L87.1611 9.36919C90.2801 10.7056 93.1283 12.4904 95.6965 14.7169L93.7313 16.9837ZM85.9796 12.1267L84.798 14.8842C81.7641 13.5843 78.913 11.9741 76.2489 10.0548L78.0024 7.62066L79.756 5.18652C82.0613 6.84727 84.5283 8.24112 87.1611 9.36919L85.9796 12.1267ZM78.0024 7.62066L76.2489 10.0548C74.0552 8.47449 71.6223 7.30415 68.9316 6.54486L69.7464 3.65762L70.5612 0.770382C73.909 1.71513 76.9802 3.18684 79.756 5.18652L78.0024 7.62066ZM69.7464 3.65762L68.9316 6.54486C66.3739 5.82307 64.2007 5.84761 62.3119 6.44497L61.4073 3.58459L60.5027 0.724224C63.6942 -0.285098 67.0804 -0.211867 70.5612 0.770382L69.7464 3.65762ZM61.4073 3.58459L62.3119 6.44497C61.5652 6.6811 61.065 7.04195 60.6958 7.50634C60.3083 7.9938 59.9485 8.74515 59.7436 9.91249L56.7888 9.39382L53.834 8.87514C54.1679 6.97299 54.8473 5.2214 55.9992 3.77245C57.1695 2.30044 58.7092 1.29143 60.5027 0.724224L61.4073 3.58459ZM56.7888 9.39382L59.7436 9.91249C59.2149 12.9247 58.7788 15.9233 58.4353 18.9087L55.4549 18.5657L52.4746 18.2227C52.8319 15.1178 53.2851 12.0019 53.834 8.87514L56.7888 9.39382ZM55.4549 18.5657L58.4353 18.9087C58.0973 21.8457 57.9583 24.5013 58.0076 26.8831L55.0083 26.9452L52.0089 27.0073C51.953 24.3066 52.1117 21.3759 52.4746 18.2227L55.4549 18.5657ZM55.0083 26.9452L58.0076 26.8831C58.0252 27.7328 58.2128 28.2123 58.3932 28.4889C58.562 28.7476 58.8518 29.027 59.4493 29.2649L58.3395 32.0521L57.2297 34.8393C55.6589 34.2138 54.3095 33.2105 53.3679 31.7669C52.4379 30.3412 52.0439 28.699 52.0089 27.0073L55.0083 26.9452ZM58.3395 32.0521L59.4493 29.2649C61.2051 29.9641 62.6023 31.2199 63.3422 33.0376C64.0376 34.7457 64.0262 36.6393 63.6803 38.4822L60.7317 37.9288L57.7832 37.3754C58.0106 36.1638 57.8871 35.5507 57.7851 35.2999C57.7276 35.1587 57.642 35.0034 57.2297 34.8393L58.3395 32.0521ZM60.7317 37.9288L63.6803 38.4822C63.424 39.8476 63.4313 40.6712 63.5079 41.0963C63.5744 41.4654 63.6104 41.168 63.214 40.9456L61.7461 43.562L60.2783 46.1784C58.6323 45.255 57.8745 43.6681 57.6029 42.1596C57.3413 40.7069 57.4662 39.0644 57.7832 37.3754L60.7317 37.9288ZM61.7461 43.562L63.214 40.9456C64.1583 41.4754 65.9878 42.1942 68.9081 43.0751L68.0416 45.9473L67.1752 48.8194C64.2005 47.9221 61.833 47.0506 60.2783 46.1784L61.7461 43.562ZM68.0416 45.9473L68.9081 43.0751C72.0127 44.0117 75.0094 45.1924 77.8964 46.6174L76.5686 49.3076L75.2407 51.9977C72.6534 50.7206 69.9655 49.6611 67.1752 48.8194L68.0416 45.9473ZM76.5686 49.3076L77.8964 46.6174C80.9116 48.1057 83.4313 49.9424 85.3447 52.1813L83.0641 54.1304L80.7835 56.0794C79.5106 54.59 77.6999 53.2115 75.2407 51.9977L76.5686 49.3076ZM83.0641 54.1304L85.3447 52.1813C86.3318 53.3364 87.9524 54.2463 90.6196 54.6187L90.2048 57.5899L89.79 60.5611C86.1225 60.049 82.9826 58.6526 80.7835 56.0794L83.0641 54.1304ZM90.2048 57.5899L90.6196 54.6187C92.6769 54.9059 94.6009 55.6879 96.0297 57.2332C97.4626 58.7829 98.0845 60.7617 98.1877 62.8339L95.1914 62.9832L92.1951 63.1324C92.1413 62.0513 91.8536 61.5545 91.6242 61.3065C91.3908 61.054 90.9 60.716 89.79 60.5611L90.2048 57.5899ZM95.1914 62.9832L98.1877 62.8339C98.3138 65.3669 99.1314 67.4004 100.592 69.079L98.3284 71.0481L96.0651 73.0172C93.6569 70.2492 92.3831 66.9061 92.1951 63.1324L95.1914 62.9832ZM98.3284 71.0481L100.592 69.079C101.027 69.5791 101.384 69.948 101.668 70.2076C101.967 70.4812 102.108 70.5631 102.107 70.5624C102.099 70.5584 102.003 70.5062 101.829 70.4626C101.652 70.4182 101.347 70.3715 100.964 70.4342C100.559 70.5005 100.168 70.6733 99.8425 70.9367C99.5332 71.1868 99.36 71.4547 99.2711 71.628L101.941 72.9968L104.61 74.3655C104.165 75.2334 103.294 76.1328 101.933 76.3554C100.777 76.5447 99.8128 76.1424 99.2578 75.843C98.1437 75.242 97.0595 74.1602 96.0651 73.0172L98.3284 71.0481ZM101.941 72.9968L99.1972 71.7829L99.845 70.319L102.588 71.5329L105.332 72.7468L104.684 74.2107L101.941 72.9968ZM102.588 71.5329L104.918 69.6423L104.981 69.72L102.651 71.6106L100.322 73.5011L100.259 73.4235L102.588 71.5329ZM92.3002 83.0767L95.1461 84.0258C95.0504 84.3127 94.8708 84.8172 94.5576 85.2794C94.4214 85.4805 94.0325 86.0249 93.3082 86.3844C92.8982 86.5879 92.3552 86.7431 91.726 86.7006C91.0941 86.658 90.5688 86.4289 90.1784 86.1591C89.4905 85.6837 89.184 85.063 89.0803 84.8389C88.9444 84.5455 88.8659 84.2716 88.819 84.083C88.7236 83.6991 88.6673 83.2842 88.6288 82.9062L91.6133 82.6019L94.5978 82.2976C94.6253 82.5666 94.6471 82.6568 94.6419 82.6359C94.6402 82.6289 94.6097 82.501 94.5251 82.3181C94.4725 82.2046 94.2203 81.6589 93.5896 81.2231C93.2278 80.9731 92.7319 80.7549 92.1301 80.7143C91.5311 80.6738 91.019 80.8222 90.6407 81.01C89.9796 81.3381 89.6571 81.8155 89.5902 81.9142C89.4158 82.1716 89.387 82.3293 89.4544 82.1275L92.3002 83.0767ZM91.6133 82.6019L88.6288 82.9062C88.5574 82.206 88.5117 81.3699 88.6518 80.6144C88.7178 80.2585 88.885 79.5617 89.4137 78.9158C90.0893 78.0903 91.1462 77.6137 92.2879 77.7385L91.962 80.7207L91.6361 83.703C92.0357 83.7466 92.5132 83.7068 92.998 83.5033C93.4783 83.3017 93.8255 82.9986 94.0568 82.716C94.4653 82.2169 94.5434 81.7503 94.5513 81.7079C94.5751 81.5795 94.5373 81.704 94.5978 82.2976L91.6133 82.6019ZM91.962 80.7207L92.2879 77.7385C92.8139 77.7959 93.4786 77.9631 94.1126 78.4013C94.7855 78.8662 95.2482 79.5168 95.4909 80.2345L92.649 81.1954L89.807 82.1564C89.9561 82.5974 90.2576 83.0305 90.7015 83.3373C91.1065 83.6172 91.4746 83.6853 91.6361 83.703L91.962 80.7207ZM92.649 81.1954L95.4909 80.2345C95.8056 81.1652 95.6471 82.0671 95.5817 82.42C95.4878 82.9268 95.3299 83.475 95.1461 84.0258L92.3002 83.0767L89.4544 82.1275C89.5229 81.9221 89.5749 81.7513 89.6133 81.6121C89.6522 81.4708 89.6726 81.3781 89.6822 81.3265C89.6931 81.2675 89.6831 81.2985 89.6807 81.3933C89.6795 81.444 89.6798 81.5337 89.6931 81.652C89.7062 81.7677 89.7354 81.9447 89.807 82.1564L92.649 81.1954ZM92.7893 81.6104L92.0213 78.7104L92.118 78.6848L92.8859 81.5848L93.6539 84.4849L93.5573 84.5105L92.7893 81.6104ZM92.8859 81.5848L93.3596 78.6225C99.1913 79.5548 102.86 79.7543 104.711 79.4702L105.166 82.4355L105.621 85.4008C102.738 85.8434 98.2201 85.4758 92.4123 84.5472L92.8859 81.5848ZM105.166 82.4355L104.711 79.4702C105.024 79.4221 105.151 79.3553 105.169 79.3447C105.176 79.3407 105.161 79.3486 105.137 79.3726C105.111 79.3973 105.089 79.4261 105.072 79.4533C105.003 79.5683 105.201 79.3521 105.014 78.3349L107.965 77.7937L110.916 77.2524C111.23 78.9664 111.213 80.8894 110.21 82.5517C109.145 84.3176 107.379 85.1309 105.621 85.4008L105.166 82.4355ZM107.965 77.7937L105.014 78.3349C104.573 75.9278 103.854 75.4593 103.685 75.382L104.933 72.6537L106.18 69.9255C109.053 71.239 110.355 74.1972 110.916 77.2524L107.965 77.7937ZM104.933 72.6537L103.793 75.4288L101.491 74.4834L102.631 71.7084L103.77 68.9333L106.072 69.8786L104.933 72.6537ZM102.631 71.7084L99.6966 71.082L99.7175 70.9842L102.651 71.6106L105.585 72.2369L105.564 72.3347L102.631 71.7084ZM99.5622 69.128L97.6829 71.4665C96.6788 70.6595 95.9857 70.0946 95.6993 69.8408C95.6588 69.805 95.5959 69.7485 95.5298 69.6839C95.4993 69.6541 95.4376 69.5931 95.367 69.5136C95.3319 69.4741 95.2718 69.4048 95.2038 69.3141C95.1555 69.2498 95.0051 69.0474 94.8721 68.7561C94.806 68.6116 94.6853 68.3197 94.6299 67.9286C94.5755 67.5442 94.5505 66.8062 94.9887 66.0309C95.9789 64.2788 97.834 64.5136 97.937 64.5251C98.3389 64.5702 98.6357 64.6885 98.712 64.7187C98.8337 64.7669 98.9279 64.8134 98.9788 64.8394C99.1496 64.9267 99.2869 65.0183 99.3135 65.0358C99.4912 65.1528 99.7569 65.3472 100.036 65.5548L98.2481 67.9634L96.4597 70.3721C96.3174 70.2665 96.2064 70.185 96.1238 70.1254C96.0313 70.0586 96.004 70.0406 96.0155 70.0481C96.0213 70.0519 96.0403 70.0644 96.0684 70.0816C96.0886 70.0939 96.1556 70.1348 96.2485 70.1823C96.2941 70.2055 96.3838 70.25 96.5016 70.2967C96.5742 70.3255 96.8682 70.4428 97.2678 70.4877C97.3687 70.499 99.2224 70.7342 100.212 68.9831C100.65 68.2083 100.625 67.4709 100.571 67.0873C100.515 66.697 100.395 66.4061 100.329 66.2627C100.197 65.9737 100.049 65.7741 100.003 65.7132C99.9377 65.626 99.8811 65.5608 99.8501 65.526C99.7879 65.456 99.7378 65.4068 99.7219 65.3913C99.6853 65.3556 99.6644 65.3377 99.6787 65.3504C99.8303 65.4847 100.386 65.9414 101.441 66.7895L99.5622 69.128ZM98.2481 67.9634L100.036 65.5548C101.271 66.4713 102.495 67.4413 103.71 68.4643L101.778 70.759L99.8452 73.0536C98.7207 72.1066 97.5922 71.213 96.4597 70.3721L98.2481 67.9634ZM101.778 70.759L103.71 68.4643C104.293 68.9553 104.722 69.3212 104.973 69.5437C105.037 69.6001 105.103 69.6599 105.164 69.717C105.169 69.7212 105.348 69.8838 105.512 70.0874C105.546 70.1295 105.71 70.3302 105.857 70.6219C105.919 70.7455 106.106 71.1251 106.163 71.6551C106.226 72.2408 106.145 73.4597 105.038 74.3328C104.136 75.0446 103.182 74.9888 102.931 74.968C102.581 74.939 102.316 74.8541 102.208 74.8172C101.972 74.7367 101.798 74.6437 101.748 74.6167C101.543 74.5066 101.37 74.3803 101.354 74.3688L103.092 71.9235L104.83 69.4782C104.887 69.5189 104.764 69.4261 104.587 69.3309C104.544 69.3076 104.376 69.2171 104.144 69.1381C104.037 69.1018 103.775 69.0173 103.426 68.9884C103.175 68.9677 102.222 68.9117 101.321 69.623C100.215 70.4957 100.134 71.7139 100.197 72.2985C100.254 72.8274 100.44 73.2057 100.502 73.3276C100.647 73.616 100.808 73.8123 100.837 73.8488C100.936 73.9718 101.021 74.0554 101.027 74.0611C101.04 74.0739 101.049 74.0832 101.054 74.0879C101.059 74.093 101.062 74.0958 101.062 74.096C101.063 74.096 101.057 74.0908 101.044 74.0792C101.032 74.068 101.015 74.0531 100.994 74.0341C100.807 73.8683 100.432 73.5476 99.8452 73.0536L101.778 70.759ZM103.092 71.9235L101.354 74.3688C100.967 74.0937 99.6919 73.0809 97.6829 71.4665L99.5622 69.128L101.441 66.7895C102.469 67.6154 103.272 68.257 103.852 68.7164C104.142 68.9464 104.372 69.1273 104.545 69.2611C104.631 69.328 104.699 69.3804 104.751 69.4197C104.777 69.4392 104.797 69.454 104.811 69.4648C104.827 69.4761 104.832 69.4798 104.83 69.4782L103.092 71.9235Z" fill="#1C5B0B"/>
<defs>
<filter id="filter0_i_54_16" x="0" y="0" width="204.775" height="219.254" filterUnits="userSpaceOnUse" color-interpolation-filters="sRGB">
<feFlood flood-opacity="0" result="BackgroundImageFix"/>
<feBlend mode="normal" in="SourceGraphic" in2="BackgroundImageFix" result="shape"/>
<feColorMatrix in="SourceAlpha" type="matrix" values="0 0 0 0 0 0 0 0 0 0 0 0 0 0 0 0 0 0 127 0" result="hardAlpha"/>
<feOffset dx="-31" dy="4"/>
<feComposite in2="hardAlpha" operator="arithmetic" k2="-1" k3="1"/>
<feColorMatrix type="matrix" values="0 0 0 0 0.271651 0 0 0 0 0.51123 0 0 0 0 0.0884438 0 0 0 0.25 0"/>
<feBlend mode="normal" in2="shape" result="effect1_innerShadow_54_16"/>
</filter>
</defs>
</svg>
