<svg width="83" height="72" viewBox="0 0 83 72" fill="none" xmlns="http://www.w3.org/2000/svg">
<path d="M15.8531 59.6653C7.63288 53.7601 2.31396 44.8422 2.31396 35.0807C2.31396 17.1243 19.8422 2.54224 41.4807 2.54224C63.1191 2.54224 80.6474 17.1243 80.6474 35.0807C80.6474 53.0371 63.1191 67.6192 41.4807 67.6192C37.0079 67.6192 32.656 67.0164 28.6668 65.8113C28.3042 65.691 27.8206 65.691 27.458 65.691C26.7327 65.691 26.0074 65.9319 25.4029 66.2934L16.8201 71.2347C16.5783 71.3549 16.3366 71.4756 16.0948 71.4756C15.3695 71.4756 14.7651 70.8732 14.7651 70.1498C14.7651 69.7883 14.886 69.5474 15.0069 69.1859C15.1277 69.0653 16.2157 65.0883 16.8201 62.678C16.8201 62.4371 16.941 62.0756 16.941 61.8347C16.941 60.8704 16.5783 60.1474 15.8531 59.6653ZM28.425 29.6119C31.2344 29.6119 33.4585 27.3866 33.4585 24.5757C33.4585 21.7648 31.2344 19.5395 28.425 19.5395C25.6157 19.5395 23.3916 21.7648 23.3916 24.5757C23.3916 27.3866 25.6157 29.6119 28.425 29.6119ZM54.5361 29.6119C57.3456 29.6119 59.5694 27.3866 59.5694 24.5757C59.5694 21.7648 57.3456 19.5395 54.5361 19.5395C51.7267 19.5395 49.5028 21.7648 49.5028 24.5757C49.5028 27.3866 51.7267 29.6119 54.5361 29.6119Z" fill="white"/>
<path d="M13.0334 57.4303L14.2758 55.863L13.0334 57.4303ZM12.8361 57.2739L11.5937 58.8412L12.8361 57.2739ZM8.58911 52.2767L10.3366 51.3039L8.58911 52.2767ZM8.46682 52.057L6.71934 53.0298L8.46682 52.057ZM8.34453 51.8374L10.092 50.8646L8.34453 51.8374ZM5.04109 46.042L6.76849 45.0339L5.04109 46.042ZM4.91474 45.8254L3.18734 46.8334L4.91474 45.8254ZM4.78838 45.6089L6.51578 44.6009L4.78838 45.6089ZM2.43425 39.4176L4.39398 39.0183L2.43425 39.4176ZM2.33258 38.9187L0.372853 39.318L2.33258 38.9187ZM2.45791 31.8057L0.500922 31.3931L2.45791 31.8057ZM4.45574 25.1863L2.59394 24.4558L4.45574 25.1863ZM4.54688 24.9541L6.40868 25.6846L4.54688 24.9541ZM7.42574 18.9498L5.68933 17.9574L7.42574 18.9498ZM7.5513 18.7301L9.2877 19.7225L7.5513 18.7301ZM7.67685 18.5104L5.94045 17.518L7.67685 18.5104ZM11.8887 13.3833L13.1999 14.8936L11.8887 13.3833ZM12.2716 13.0509L10.9605 11.5406L12.2716 13.0509ZM18.3425 9.30306L17.5424 7.47004L18.3425 9.30306ZM24.2309 6.07984L23.1201 4.41666L24.2309 6.07984ZM24.4433 5.93795L25.5541 7.60113L24.4433 5.93795ZM24.6558 5.79605L23.545 4.13286L24.6558 5.79605ZM30.8065 3.38215L30.4927 1.40692L30.8065 3.38215ZM37.9763 2.27179L38.2736 4.24958L37.9763 2.27179ZM38.2278 2.234L37.9306 0.256212L38.2278 2.234ZM38.4793 2.19621L38.7765 4.174L38.4793 2.19621ZM45.6102 2.59489L45.1478 4.54069L45.6102 2.59489ZM52.1622 4.02678L52.553 2.06532L52.1622 4.02678ZM52.4075 4.07563L52.0167 6.03709L52.4075 4.07563ZM52.6527 4.12447L53.0434 2.16301L52.6527 4.12447ZM59.0383 5.95467L59.7449 4.08364L59.0383 5.95467ZM59.2737 6.04358L58.5671 7.9146L59.2737 6.04358ZM59.5092 6.13248L60.2157 4.26146L59.5092 6.13248ZM65.6099 8.93745L66.5686 7.1822L65.6099 8.93745ZM65.8337 9.05967L64.875 10.8149L65.8337 9.05967ZM66.0574 9.18189L65.0987 10.9371L66.0574 9.18189ZM70.9142 13.6505L69.2466 14.7547L70.9142 13.6505ZM71.1977 14.0787L69.5302 15.183V15.183L71.1977 14.0787ZM75.5355 19.2948L74.1457 20.733L75.5355 19.2948ZM75.7202 19.4732L77.1099 18.035L75.7202 19.4732ZM75.9049 19.6517L74.5151 21.09L75.9049 19.6517ZM79.1359 25.3292L77.189 25.7868L79.1359 25.3292ZM79.2529 25.8269L81.1998 25.3693V25.3693L79.2529 25.8269ZM80.5475 32.4558L82.5236 32.1481L80.5475 32.4558ZM80.6254 32.956L78.6492 33.2638L80.6254 32.956ZM79.9874 39.4317L78.1095 38.7435L79.9874 39.4317ZM79.9004 39.669L81.7783 40.3572L79.9004 39.669ZM79.8134 39.9063L77.9356 39.2181L79.8134 39.9063ZM77.9784 46.4062L76.0184 46.0082L77.9784 46.4062ZM77.9272 46.6581L75.9672 46.2602L77.9272 46.6581ZM74.9444 52.802L73.4466 51.4766L74.9444 52.802ZM74.7748 52.9936L76.2726 54.319L74.7748 52.9936ZM74.6053 53.1852L73.1076 51.8598L74.6053 53.1852ZM69.736 57.8316L70.9882 59.3911L69.736 57.8316ZM69.539 57.9898L68.2868 56.4303L69.539 57.9898ZM69.342 58.148L70.5942 59.7075L69.342 58.148ZM63.8465 61.967L64.8713 63.6844L63.8465 61.967ZM63.6299 62.0962L62.605 60.3788L63.6299 62.0962ZM63.4132 62.2255L62.3884 60.508L63.4132 62.2255ZM57.243 64.5811L56.8624 62.6176L57.243 64.5811ZM50.2805 66.3008L49.6876 64.3907L50.2805 66.3008ZM49.8025 66.4491L50.3955 68.3592L49.8025 66.4491ZM43.2938 67.5768L43.2086 65.5786L43.2938 67.5768ZM43.0428 67.5874L43.128 69.5856L43.0428 67.5874ZM42.7919 67.5981L42.7068 65.5999L42.7919 67.5981ZM36.237 66.8828L35.7226 68.8155L36.237 66.8828ZM35.7521 66.7538L36.2665 64.8211L35.7521 66.7538ZM29.348 66.271L29.1142 64.2847L29.348 66.271ZM29.1084 66.2992L28.8747 64.3129L29.1084 66.2992ZM28.8689 66.3274L29.1026 68.3137L28.8689 66.3274ZM22.6968 68.1867L23.5865 69.9779L22.6968 68.1867ZM22.4718 68.2984L21.5822 66.5072L22.4718 68.2984ZM22.2468 68.4102L23.1365 70.2014L22.2468 68.4102ZM17.567 69.3994L17.0046 71.3187L17.567 69.3994ZM17.4398 69.3621L16.8773 71.2814L17.4398 69.3621ZM17.3125 69.3248L17.8749 67.4055L17.3125 69.3248ZM16.1101 65.5446L14.1318 65.2506L16.1101 65.5446ZM16.1468 65.2974L18.1251 65.5914L16.1468 65.2974ZM16.1836 65.0502L14.2053 64.7561L16.1836 65.0502ZM16.2911 60.7888L14.4276 61.5152L16.2911 60.7888ZM16.2624 60.7153L18.1258 59.9889L16.2624 60.7153ZM16.2338 60.6418L14.3703 61.3682L16.2338 60.6418ZM13.2308 57.5867L11.9885 59.1541L13.2308 57.5867ZM30.5476 27.4196L31.9845 28.8108L30.5476 27.4196ZM30.6962 27.2661L29.2593 25.8749L30.6962 27.2661ZM31.3816 22.7284L29.604 23.645L31.3816 22.7284ZM31.2846 22.5403L33.0622 21.6236L31.2846 22.5403ZM31.1876 22.3522L29.41 23.2688L31.1876 22.3522ZM26.8418 20.8945L26.197 19.0013L26.8418 20.8945ZM26.6117 20.9729L27.2565 22.8661L26.6117 20.9729ZM26.3816 21.0512L25.7368 19.158L26.3816 21.0512ZM24.5233 24.9444L22.6796 25.7195L24.5233 24.9444ZM24.6136 25.1591L26.4573 24.384L24.6136 25.1591ZM24.7038 25.3737L22.8601 26.1488L24.7038 25.3737ZM27.0756 28.8703L26.1123 30.623L27.0756 28.8703ZM27.1639 28.9188L28.1272 27.166L27.1639 28.9188ZM27.2522 28.9673L26.2889 30.72L27.2522 28.9673ZM30.399 27.573L28.9622 26.1819L30.399 27.573ZM56.9099 27.4565L55.5654 25.9758L56.9099 27.4565ZM57.0761 27.3056L58.4205 28.7862L57.0761 27.3056ZM57.4082 22.7925L59.01 21.5949L57.4082 22.7925ZM52.899 21.3344L52.4124 19.3946V19.3946L52.899 21.3344ZM52.6823 21.3888L53.169 23.3287L52.6823 21.3888ZM52.4656 21.4432L51.979 19.5033L52.4656 21.4432ZM50.7093 24.9924L52.5681 24.2543L50.7093 24.9924ZM50.7938 25.2052L48.935 25.9434L50.7938 25.2052ZM50.8783 25.418L49.0195 26.1562L50.8783 25.418ZM53.1798 28.8806L54.129 27.1202L53.1798 28.8806ZM53.2686 28.9284L52.3194 30.6889L53.2686 28.9284ZM53.3573 28.9763L54.3065 27.2159L53.3573 28.9763ZM56.7437 27.6073L55.3992 26.1267L56.7437 27.6073ZM13.0334 57.4303L14.2758 55.863L14.0784 55.7065L12.8361 57.2739L11.5937 58.8412L11.7911 58.9976L13.0334 57.4303ZM12.8361 57.2739L14.0784 55.7065C12.5357 54.4837 11.2918 53.0199 10.3366 51.3039L8.58911 52.2767L6.84162 53.2495C8.0527 55.4251 9.64014 57.2927 11.5937 58.8412L12.8361 57.2739ZM8.58911 52.2767L10.3366 51.3039L10.2143 51.0843L8.46682 52.057L6.71934 53.0298L6.84162 53.2495L8.58911 52.2767ZM8.46682 52.057L10.2143 51.0843L10.092 50.8646L8.34453 51.8374L6.59705 52.8101L6.71934 53.0298L8.46682 52.057ZM8.34453 51.8374L10.092 50.8646C9.00233 48.9071 7.89448 46.9635 6.76849 45.0339L5.04109 46.042L3.3137 47.05C4.42602 48.9561 5.52047 50.8762 6.59705 52.8101L8.34453 51.8374ZM5.04109 46.042L6.76849 45.0339L6.64213 44.8174L4.91474 45.8254L3.18734 46.8334L3.3137 47.05L5.04109 46.042ZM4.91474 45.8254L6.64213 44.8174L6.51578 44.6009L4.78838 45.6089L3.06098 46.6169L3.18734 46.8334L4.91474 45.8254ZM4.78838 45.6089L6.51578 44.6009C5.50855 42.8748 4.80128 41.0171 4.39398 39.0183L2.43425 39.4176L0.474526 39.8169C0.967751 42.2375 1.82991 44.5073 3.06098 46.6169L4.78838 45.6089ZM2.43425 39.4176L4.39398 39.0183L4.34315 38.7688L2.38342 39.1681L0.423689 39.5675L0.474526 39.8169L2.43425 39.4176ZM2.38342 39.1681L4.34315 38.7688L4.29231 38.5193L2.33258 38.9187L0.372853 39.318L0.423689 39.5675L2.38342 39.1681ZM2.33258 38.9187L4.29231 38.5193C3.89651 36.5769 3.90272 34.6479 4.31014 32.7152L2.35314 32.3027L0.396154 31.8901C-0.124374 34.3594 -0.131869 36.8411 0.372853 39.318L2.33258 38.9187ZM2.35314 32.3027L4.31014 32.7152L4.36252 32.4667L2.40553 32.0542L0.448538 31.6416L0.396154 31.8901L2.35314 32.3027ZM2.40553 32.0542L4.36252 32.4667L4.4149 32.2182L2.45791 31.8057L0.500922 31.3931L0.448538 31.6416L2.40553 32.0542ZM2.45791 31.8057L4.4149 32.2182C4.85642 30.1237 5.46046 28.1012 6.22642 26.1491L4.36461 25.4186L2.50281 24.688C1.65444 26.8501 0.987346 29.0856 0.500922 31.3931L2.45791 31.8057ZM4.36461 25.4186L6.22642 26.1491L6.31755 25.9169L4.45574 25.1863L2.59394 24.4558L2.50281 24.688L4.36461 25.4186ZM4.45574 25.1863L6.31755 25.9169L6.40868 25.6846L4.54688 24.9541L2.68507 24.2235L2.59394 24.4558L4.45574 25.1863ZM4.54688 24.9541L6.40868 25.6846C7.17994 23.719 8.09747 21.805 9.16215 19.9422L7.42574 18.9498L5.68933 17.9574C4.52985 19.9861 3.52813 22.075 2.68507 24.2235L4.54688 24.9541ZM7.42574 18.9498L9.16215 19.9422L9.2877 19.7225L7.5513 18.7301L5.81489 17.7377L5.68933 17.9574L7.42574 18.9498ZM7.5513 18.7301L9.2877 19.7225L9.41326 19.5028L7.67685 18.5104L5.94045 17.518L5.81489 17.7377L7.5513 18.7301ZM7.67685 18.5104L9.41326 19.5028C10.4135 17.7528 11.6736 16.2187 13.1999 14.8936L11.8887 13.3833L10.5775 11.8731C8.71222 13.4925 7.16438 15.3765 5.94045 17.518L7.67685 18.5104ZM11.8887 13.3833L13.1999 14.8936L13.3913 14.7274L12.0802 13.2171L10.769 11.7069L10.5775 11.8731L11.8887 13.3833ZM12.0802 13.2171L13.3913 14.7274L13.5828 14.5611L12.2716 13.0509L10.9605 11.5406L10.769 11.7069L12.0802 13.2171ZM12.2716 13.0509L13.5828 14.5611C15.1267 13.2208 16.8244 12.1478 18.681 11.3375L17.881 9.50447L17.081 7.67146C14.8501 8.64511 12.8082 9.93646 10.9605 11.5406L12.2716 13.0509ZM17.881 9.50447L18.681 11.3375L18.9118 11.2368L18.1117 9.40377L17.3117 7.57075L17.081 7.67146L17.881 9.50447ZM18.1117 9.40377L18.9118 11.2368L19.1425 11.1361L18.3425 9.30306L17.5424 7.47004L17.3117 7.57075L18.1117 9.40377ZM18.3425 9.30306L19.1425 11.1361C21.2962 10.1961 23.3629 9.06455 25.3416 7.74303L24.2309 6.07984L23.1201 4.41666C21.3351 5.60875 19.4762 6.62604 17.5424 7.47004L18.3425 9.30306ZM24.2309 6.07984L25.3416 7.74303L25.5541 7.60113L24.4433 5.93795L23.3326 4.27476L23.1201 4.41666L24.2309 6.07984ZM24.4433 5.93795L25.5541 7.60113L25.7666 7.45924L24.6558 5.79605L23.545 4.13286L23.3326 4.27476L24.4433 5.93795ZM24.6558 5.79605L25.7666 7.45924C27.4102 6.36152 29.1889 5.66421 31.1203 5.35739L30.8065 3.38215L30.4927 1.40692C27.9869 1.80501 25.6651 2.71696 23.545 4.13286L24.6558 5.79605ZM30.8065 3.38215L31.1203 5.35739L31.3708 5.31759L31.057 3.34236L30.7432 1.36713L30.4927 1.40692L30.8065 3.38215ZM31.057 3.34236L31.3708 5.31759L31.6213 5.2778L31.3075 3.30257L30.9937 1.32734L30.7432 1.36713L31.057 3.34236ZM31.3075 3.30257L31.6213 5.2778C33.8344 4.92622 36.0518 4.58348 38.2736 4.24958L37.9763 2.27179L37.6791 0.294003C35.4463 0.62956 33.2179 0.974004 30.9937 1.32734L31.3075 3.30257ZM37.9763 2.27179L38.2736 4.24958L38.525 4.21179L38.2278 2.234L37.9306 0.256212L37.6791 0.294003L37.9763 2.27179ZM38.2278 2.234L38.525 4.21179L38.7765 4.174L38.4793 2.19621L38.182 0.21842L37.9306 0.256212L38.2278 2.234ZM38.4793 2.19621L38.7765 4.174C40.7502 3.87737 42.704 3.9599 44.6519 4.42283L45.1143 2.47703L45.5768 0.531229C43.1324 -0.0497217 40.6628 -0.154412 38.182 0.21842L38.4793 2.19621ZM45.1143 2.47703L44.6519 4.42283L44.8998 4.48176L45.3623 2.53596L45.8247 0.590158L45.5768 0.531229L45.1143 2.47703ZM45.3623 2.53596L44.8998 4.48176L45.1478 4.54069L45.6102 2.59489L46.0727 0.649088L45.8247 0.590158L45.3623 2.53596ZM45.6102 2.59489L45.1478 4.54069C47.3673 5.06818 49.5752 5.55072 51.7715 5.98824L52.1622 4.02678L52.553 2.06532C50.4056 1.63754 48.2455 1.16548 46.0727 0.649088L45.6102 2.59489ZM52.1622 4.02678L51.7715 5.98824L52.0167 6.03709L52.4075 4.07563L52.7982 2.11417L52.553 2.06532L52.1622 4.02678ZM52.4075 4.07563L52.0167 6.03709L52.2619 6.08594L52.6527 4.12447L53.0434 2.16301L52.7982 2.11417L52.4075 4.07563ZM52.6527 4.12447L52.2619 6.08594C54.3255 6.49701 56.3485 7.07672 58.3317 7.82569L59.0383 5.95467L59.7449 4.08364C57.5577 3.25766 55.3236 2.61724 53.0434 2.16301L52.6527 4.12447ZM59.0383 5.95467L58.3317 7.82569L58.5671 7.9146L59.2737 6.04358L59.9803 4.17255L59.7449 4.08364L59.0383 5.95467ZM59.2737 6.04358L58.5671 7.9146L58.8026 8.00351L59.5092 6.13248L60.2157 4.26146L59.9803 4.17255L59.2737 6.04358ZM59.5092 6.13248L58.8026 8.00351C60.8 8.75785 62.7494 9.654 64.6512 10.6927L65.6099 8.93745L66.5686 7.1822C64.5065 6.0559 62.3887 5.08207 60.2157 4.26146L59.5092 6.13248ZM65.6099 8.93745L64.6512 10.6927L64.875 10.8149L65.8337 9.05967L66.7923 7.30442L66.5686 7.1822L65.6099 8.93745ZM65.8337 9.05967L64.875 10.8149L65.0987 10.9371L66.0574 9.18189L67.0161 7.42663L66.7923 7.30442L65.8337 9.05967ZM66.0574 9.18189L65.0987 10.9371C66.7928 11.8624 68.1691 13.1276 69.2466 14.7547L70.9142 13.6505L72.5817 12.5462C71.1474 10.3803 69.286 8.66639 67.0161 7.42663L66.0574 9.18189ZM70.9142 13.6505L69.2466 14.7547L69.3884 14.9688L71.0559 13.8646L72.7235 12.7604L72.5817 12.5462L70.9142 13.6505ZM71.0559 13.8646L69.3884 14.9688L69.5302 15.183L71.1977 14.0787L72.8653 12.9745L72.7235 12.7604L71.0559 13.8646ZM71.1977 14.0787L69.5302 15.183C70.8663 17.2006 72.4053 19.0513 74.1457 20.733L75.5355 19.2948L76.9252 17.8565C75.3937 16.3766 74.041 14.7499 72.8653 12.9745L71.1977 14.0787ZM75.5355 19.2948L74.1457 20.733L74.3304 20.9115L75.7202 19.4732L77.1099 18.035L76.9252 17.8565L75.5355 19.2948ZM75.7202 19.4732L74.3304 20.9115L74.5151 21.09L75.9049 19.6517L77.2946 18.2135L77.1099 18.035L75.7202 19.4732ZM75.9049 19.6517L74.5151 21.09C75.8765 22.4054 76.7591 23.958 77.189 25.7868L79.1359 25.3292L81.0828 24.8715C80.4765 22.2919 79.2052 20.0596 77.2946 18.2135L75.9049 19.6517ZM79.1359 25.3292L77.189 25.7868L77.2475 26.0356L79.1944 25.578L81.1413 25.1204L81.0828 24.8715L79.1359 25.3292ZM79.1944 25.578L77.2475 26.0356L77.3059 26.2845L79.2529 25.8269L81.1998 25.3693L81.1413 25.1204L79.1944 25.578ZM79.2529 25.8269L77.3059 26.2845C77.8125 28.4396 78.2342 30.5993 78.5713 32.7636L80.5475 32.4558L82.5236 32.1481C82.1708 29.8821 81.7294 27.6225 81.1998 25.3693L79.2529 25.8269ZM80.5475 32.4558L78.5713 32.7636L78.6102 33.0137L80.5864 32.7059L82.5626 32.3982L82.5236 32.1481L80.5475 32.4558ZM80.5864 32.7059L78.6102 33.0137L78.6492 33.2638L80.6254 32.956L82.6015 32.6483L82.5626 32.3982L80.5864 32.7059ZM80.6254 32.956L78.6492 33.2638C78.9421 35.1445 78.763 36.9603 78.1095 38.7435L79.9874 39.4317L81.8652 40.1199C82.7524 37.6992 82.9986 35.1979 82.6015 32.6483L80.6254 32.956ZM79.9874 39.4317L78.1095 38.7435L78.0225 38.9808L79.9004 39.669L81.7783 40.3572L81.8652 40.1199L79.9874 39.4317ZM79.9004 39.669L78.0225 38.9808L77.9356 39.2181L79.8134 39.9063L81.6913 40.5945L81.7783 40.3572L79.9004 39.669ZM79.8134 39.9063L77.9356 39.2181C77.13 41.4162 76.4911 43.6799 76.0184 46.0082L77.9784 46.4062L79.9384 46.8042C80.3717 44.6698 80.9562 42.6003 81.6913 40.5945L79.8134 39.9063ZM77.9784 46.4062L76.0184 46.0082L75.9672 46.2602L77.9272 46.6581L79.8872 47.0561L79.9384 46.8042L77.9784 46.4062ZM77.9272 46.6581L75.9672 46.2602L75.9161 46.5121L77.8761 46.9101L79.8361 47.308L79.8872 47.0561L77.9272 46.6581ZM77.8761 46.9101L75.9161 46.5121C75.5326 48.4008 74.7139 50.0445 73.4466 51.4766L74.9444 52.802L76.4421 54.1275C78.1776 52.1663 79.3134 49.8819 79.8361 47.308L77.8761 46.9101ZM74.9444 52.802L73.4466 51.4766L73.2771 51.6682L74.7748 52.9936L76.2726 54.319L76.4421 54.1275L74.9444 52.802ZM74.7748 52.9936L73.2771 51.6682L73.1076 51.8598L74.6053 53.1852L76.1031 54.5106L76.2726 54.319L74.7748 52.9936ZM74.6053 53.1852L73.1076 51.8598C71.6803 53.4726 70.1392 54.943 68.4838 56.2721L69.736 57.8316L70.9882 59.3911C72.8224 57.9183 74.5275 56.291 76.1031 54.5106L74.6053 53.1852ZM69.736 57.8316L68.4838 56.2721L68.2868 56.4303L69.539 57.9898L70.7912 59.5493L70.9882 59.3911L69.736 57.8316ZM69.539 57.9898L68.2868 56.4303L68.0898 56.5885L69.342 58.148L70.5942 59.7075L70.7912 59.5493L69.539 57.9898ZM69.342 58.148L68.0898 56.5885C66.417 57.9317 64.6611 59.1519 62.8217 60.2495L63.8465 61.967L64.8713 63.6844C66.8697 62.492 68.7775 61.1662 70.5942 59.7075L69.342 58.148ZM63.8465 61.967L62.8217 60.2495L62.605 60.3788L63.6299 62.0962L64.6547 63.8137L64.8713 63.6844L63.8465 61.967ZM63.6299 62.0962L62.605 60.3788L62.3884 60.508L63.4132 62.2255L64.438 63.943L64.6547 63.8137L63.6299 62.0962ZM63.4132 62.2255L62.3884 60.508C60.6685 61.5343 58.8298 62.2363 56.8624 62.6176L57.243 64.5811L57.6236 66.5445C60.0454 66.0751 62.3202 65.2067 64.438 63.943L63.4132 62.2255ZM57.243 64.5811L56.8624 62.6176L56.6147 62.6656L56.9952 64.6291L57.3758 66.5925L57.6236 66.5445L57.243 64.5811ZM56.9952 64.6291L56.6147 62.6656L56.3669 62.7136L56.7475 64.6771L57.128 66.6406L57.3758 66.5925L56.9952 64.6291ZM56.7475 64.6771L56.3669 62.7136C54.1012 63.1528 51.8746 63.7118 49.6876 64.3907L50.2805 66.3008L50.8734 68.2108C52.9198 67.5756 55.0045 67.0522 57.128 66.6406L56.7475 64.6771ZM50.2805 66.3008L49.6876 64.3907L49.4486 64.4649L50.0415 66.3749L50.6345 68.285L50.8734 68.2108L50.2805 66.3008ZM50.0415 66.3749L49.4486 64.4649L49.2096 64.539L49.8025 66.4491L50.3955 68.3592L50.6345 68.285L50.0415 66.3749ZM49.8025 66.4491L49.2096 64.539C47.2583 65.1448 45.2594 65.4912 43.2086 65.5786L43.2938 67.5768L43.3789 69.5749C45.7731 69.473 48.1134 69.0676 50.3955 68.3592L49.8025 66.4491ZM43.2938 67.5768L43.2086 65.5786L42.9577 65.5893L43.0428 67.5874L43.128 69.5856L43.3789 69.5749L43.2938 67.5768ZM43.0428 67.5874L42.9577 65.5893L42.7068 65.5999L42.7919 67.5981L42.877 69.5963L43.128 69.5856L43.0428 67.5874ZM42.7919 67.5981L42.7068 65.5999C40.6861 65.686 38.7033 65.4696 36.7514 64.9501L36.237 66.8828L35.7226 68.8155C38.0656 69.4392 40.4528 69.6996 42.877 69.5963L42.7919 67.5981ZM36.237 66.8828L36.7514 64.9501L36.5089 64.8856L35.9945 66.8183L35.4801 68.751L35.7226 68.8155L36.237 66.8828ZM35.9945 66.8183L36.5089 64.8856L36.2665 64.8211L35.7521 66.7538L35.2377 68.6865L35.4801 68.751L35.9945 66.8183ZM35.7521 66.7538L36.2665 64.8211C33.8852 64.1873 31.4967 64.0044 29.1142 64.2847L29.348 66.271L29.5818 68.2573C31.4431 68.0383 33.324 68.1772 35.2377 68.6865L35.7521 66.7538ZM29.348 66.271L29.1142 64.2847L28.8747 64.3129L29.1084 66.2992L29.3422 68.2855L29.5818 68.2573L29.348 66.271ZM29.1084 66.2992L28.8747 64.3129L28.6351 64.3411L28.8689 66.3274L29.1026 68.3137L29.3422 68.2855L29.1084 66.2992ZM28.8689 66.3274L28.6351 64.3411C26.2756 64.6188 23.9971 65.3077 21.8072 66.3954L22.6968 68.1867L23.5865 69.9779C25.3821 69.0861 27.2183 68.5355 29.1026 68.3137L28.8689 66.3274ZM22.6968 68.1867L21.8072 66.3954L21.5822 66.5072L22.4718 68.2984L23.3615 70.0897L23.5865 69.9779L22.6968 68.1867ZM22.4718 68.2984L21.5822 66.5072L21.3572 66.6189L22.2468 68.4102L23.1365 70.2014L23.3615 70.0897L22.4718 68.2984ZM22.2468 68.4102L21.3572 66.6189C19.4597 67.5613 18.4945 67.5871 18.1294 67.4801L17.567 69.3994L17.0046 71.3187C18.8937 71.8723 21.0483 71.2385 23.1365 70.2014L22.2468 68.4102ZM17.567 69.3994L18.1294 67.4801L18.0022 67.4428L17.4398 69.3621L16.8773 71.2814L17.0046 71.3187L17.567 69.3994ZM17.4398 69.3621L18.0022 67.4428L17.8749 67.4055L17.3125 69.3248L16.7501 71.2441L16.8773 71.2814L17.4398 69.3621ZM17.3125 69.3248L17.8749 67.4055C17.9054 67.4144 17.9791 67.4479 18.0456 67.5172C18.105 67.5789 18.0981 67.6064 18.0725 67.5258C18.0069 67.3194 17.944 66.8097 18.0884 65.8386L16.1101 65.5446L14.1318 65.2506C13.9507 66.4693 13.9255 67.6846 14.2607 68.7383C14.633 69.9089 15.4597 70.866 16.7501 71.2441L17.3125 69.3248ZM16.1101 65.5446L18.0884 65.8386L18.1251 65.5914L16.1468 65.2974L14.1686 65.0034L14.1318 65.2506L16.1101 65.5446ZM16.1468 65.2974L18.1251 65.5914L18.1618 65.3442L16.1836 65.0502L14.2053 64.7561L14.1686 65.0034L16.1468 65.2974ZM16.1836 65.0502L18.1618 65.3442C18.3307 64.2077 18.4331 63.2164 18.4539 62.3929C18.473 61.6347 18.4338 60.7791 18.1545 60.0624L16.2911 60.7888L14.4276 61.5152C14.4021 61.4497 14.4719 61.6297 14.4552 62.292C14.4401 62.8889 14.3619 63.7028 14.2053 64.7561L16.1836 65.0502ZM16.2911 60.7888L18.1545 60.0624L18.1258 59.9889L16.2624 60.7153L14.399 61.4417L14.4276 61.5152L16.2911 60.7888ZM16.2624 60.7153L18.1258 59.9889L18.0972 59.9154L16.2338 60.6418L14.3703 61.3682L14.399 61.4417L16.2624 60.7153ZM16.2338 60.6418L18.0972 59.9154C17.8143 59.1898 17.2525 58.5305 16.719 57.9878C16.138 57.3967 15.3803 56.7385 14.4732 56.0194L13.2308 57.5867L11.9885 59.1541C12.8295 59.8207 13.4464 60.3645 13.8663 60.7918C14.3339 61.2674 14.3994 61.4428 14.3703 61.3682L16.2338 60.6418ZM13.2308 57.5867L14.4732 56.0194L14.2758 55.863L13.0334 57.4303L11.7911 58.9976L11.9885 59.1541L13.2308 57.5867ZM30.5476 27.4196L31.9845 28.8108L32.1331 28.6573L30.6962 27.2661L29.2593 25.8749L29.1107 26.0284L30.5476 27.4196ZM30.6962 27.2661L32.1331 28.6573C33.0112 27.7504 33.6423 26.6676 33.8321 25.411C34.0222 24.1524 33.7374 22.933 33.1592 21.8117L31.3816 22.7284L29.604 23.645C29.8849 24.1897 29.9154 24.5595 29.877 24.8136C29.8383 25.0696 29.6972 25.4227 29.2593 25.8749L30.6962 27.2661ZM31.3816 22.7284L33.1592 21.8117L33.0622 21.6236L31.2846 22.5403L29.507 23.4569L29.604 23.645L31.3816 22.7284ZM31.2846 22.5403L33.0622 21.6236L32.9652 21.4355L31.1876 22.3522L29.41 23.2688L29.507 23.4569L31.2846 22.5403ZM31.1876 22.3522L32.9652 21.4355C32.3544 20.2509 31.4176 19.2864 30.0929 18.8421C28.8129 18.4128 27.4655 18.5693 26.197 19.0013L26.8418 20.8945L27.4866 22.7877C28.2563 22.5256 28.6522 22.5779 28.8208 22.6345C28.9447 22.676 29.1618 22.7874 29.41 23.2688L31.1876 22.3522ZM26.8418 20.8945L26.197 19.0013L25.9669 19.0797L26.6117 20.9729L27.2565 22.8661L27.4866 22.7877L26.8418 20.8945ZM26.6117 20.9729L25.9669 19.0797L25.7368 19.158L26.3816 21.0512L27.0264 22.9444L27.2565 22.8661L26.6117 20.9729ZM26.3816 21.0512L25.7368 19.158C24.4595 19.5931 23.219 20.3522 22.5835 21.6836C21.9365 23.0392 22.1572 24.4768 22.6796 25.7195L24.5233 24.9444L26.367 24.1693C26.2316 23.8471 26.1933 23.6362 26.1867 23.5193C26.1836 23.4636 26.1878 23.4322 26.1901 23.4196C26.1913 23.4131 26.1923 23.4096 26.1927 23.4085C26.193 23.4073 26.1932 23.4069 26.1934 23.4067C26.1935 23.4064 26.1943 23.4046 26.1966 23.4011C26.199 23.3975 26.2036 23.391 26.2115 23.3815C26.2274 23.3629 26.2596 23.3296 26.3185 23.2854C26.4409 23.1936 26.6602 23.0692 27.0264 22.9444L26.3816 21.0512ZM24.5233 24.9444L22.6796 25.7195L22.7699 25.9342L24.6136 25.1591L26.4573 24.384L26.367 24.1693L24.5233 24.9444ZM24.6136 25.1591L22.7699 25.9342L22.8601 26.1488L24.7038 25.3737L26.5475 24.5986L26.4573 24.384L24.6136 25.1591ZM24.7038 25.3737L22.8601 26.1488C23.2897 27.1707 23.7461 28.0668 24.2411 28.7966C24.7217 29.505 25.3292 30.1925 26.1123 30.623L27.0756 28.8703L28.0389 27.1175C28.0402 27.1182 27.8614 27.0082 27.5514 26.5511C27.2558 26.1153 26.9172 25.4781 26.5475 24.5986L24.7038 25.3737ZM27.0756 28.8703L26.1123 30.623L26.2006 30.6715L27.1639 28.9188L28.1272 27.166L28.0389 27.1175L27.0756 28.8703ZM27.1639 28.9188L26.2006 30.6715L26.2889 30.72L27.2522 28.9673L28.2155 27.2146L28.1272 27.166L27.1639 28.9188ZM27.2522 28.9673L26.2889 30.72C27.3779 31.3185 28.5191 31.1756 29.4355 30.7696C30.2989 30.3871 31.1001 29.7242 31.8359 28.9642L30.399 27.573L28.9622 26.1819C28.382 26.7811 28.0007 27.0303 27.8152 27.1125C27.7368 27.1472 27.7551 27.1241 27.8505 27.1222C27.9617 27.1201 28.0962 27.149 28.2155 27.2146L27.2522 28.9673ZM30.399 27.573L31.8359 28.9642L31.9845 28.8108L30.5476 27.4196L29.1107 26.0284L28.9622 26.1819L30.399 27.573ZM56.9099 27.4565L58.2544 28.9371L58.4205 28.7862L57.0761 27.3056L55.7316 25.8249L55.5654 25.9758L56.9099 27.4565ZM57.0761 27.3056L58.4205 28.7862C59.3627 27.9308 60.1231 26.8516 60.3055 25.5305C60.4927 24.1735 60.0188 22.9443 59.2554 21.9231L57.6536 23.1207L56.0518 24.3183C56.375 24.7507 56.3482 24.9458 56.343 24.9837C56.3328 25.0575 56.2612 25.344 55.7316 25.8249L57.0761 27.3056ZM57.6536 23.1207L59.2554 21.9231L59.1327 21.759L57.5309 22.9566L55.9291 24.1542L56.0518 24.3183L57.6536 23.1207ZM57.5309 22.9566L59.1327 21.759L59.01 21.5949L57.4082 22.7925L55.8064 23.99L55.9291 24.1542L57.5309 22.9566ZM57.4082 22.7925L59.01 21.5949C58.257 20.5877 57.2833 19.8235 56.0812 19.4348C54.8929 19.0506 53.6442 19.0855 52.4124 19.3946L52.899 21.3344L53.3857 23.2743C54.0732 23.1018 54.5357 23.139 54.8505 23.2408C55.1515 23.3381 55.4727 23.5437 55.8064 23.99L57.4082 22.7925ZM52.899 21.3344L52.4124 19.3946L52.1957 19.4489L52.6823 21.3888L53.169 23.3287L53.3857 23.2743L52.899 21.3344ZM52.6823 21.3888L52.1957 19.4489L51.979 19.5033L52.4656 21.4432L52.9523 23.3831L53.169 23.3287L52.6823 21.3888ZM52.4656 21.4432L51.979 19.5033C50.7386 19.8145 49.4549 20.4699 48.7945 21.8046C48.1419 23.1233 48.3787 24.5426 48.8505 25.7306L50.7093 24.9924L52.5681 24.2543C52.2914 23.5576 52.4466 23.4431 52.3795 23.5787C52.3045 23.7302 52.2733 23.5534 52.9523 23.3831L52.4656 21.4432ZM50.7093 24.9924L48.8505 25.7306L48.935 25.9434L50.7938 25.2052L52.6526 24.467L52.5681 24.2543L50.7093 24.9924ZM50.7938 25.2052L48.935 25.9434L49.0195 26.1562L50.8783 25.418L52.7371 24.6798L52.6526 24.467L50.7938 25.2052ZM50.8783 25.418L49.0195 26.1562C49.4238 27.1742 49.8623 28.0714 50.3494 28.8043C50.8236 29.5177 51.4324 30.2106 52.2307 30.641L53.1798 28.8806L54.129 27.1202C54.1413 27.1268 53.9736 27.0308 53.6806 26.59C53.4006 26.1687 53.0812 25.5464 52.7371 24.6798L50.8783 25.418ZM53.1798 28.8806L52.2307 30.641L52.3194 30.6889L53.2686 28.9284L54.2177 27.168L54.129 27.1202L53.1798 28.8806ZM53.2686 28.9284L52.3194 30.6889L52.4081 30.7367L53.3573 28.9763L54.3065 27.2159L54.2177 27.168L53.2686 28.9284ZM53.3573 28.9763L52.4081 30.7367C53.4978 31.3242 54.6386 31.1716 55.5429 30.8061C56.4207 30.4512 57.2738 29.8275 58.0882 29.088L56.7437 27.6073L55.3992 26.1267C54.7419 26.7236 54.2947 26.9962 54.0438 27.0976C53.8192 27.1884 54.0027 27.0521 54.3065 27.2159L53.3573 28.9763ZM56.7437 27.6073L58.0882 29.088L58.2544 28.9371L56.9099 27.4565L55.5654 25.9758L55.3992 26.1267L56.7437 27.6073Z" fill="black"/>
</svg>
