<svg width="71" height="129" viewBox="0 0 71 129" fill="none" xmlns="http://www.w3.org/2000/svg">
<path d="M28.2171 41.7677C-16.7159 50.0994 7.55735 97.9886 17.6387 126.989C19.4779 122.562 24.3118 131.026 29.6388 124.739C28.1388 103.739 30.82 98.604 36.636 102.239C44.636 107.239 51.5779 118.57 55.7291 124.739C60.2319 129.239 64.2291 126.989 69.7291 124.739C60.7291 91.2391 60.729 35.7392 28.2171 41.7677Z" fill="white"/>
<path d="M12.989 125.723C12.3537 124.266 11.7145 122.22 11.2925 120.656C11.158 120.161 11.4472 120.329 11.3628 119.983C11.1955 119.302 10.8803 118.758 10.7323 118.085C10.6845 117.863 11.0975 118.007 11.0402 117.776C10.72 116.502 10.2138 115.399 9.81814 114.138C7.87931 107.943 5.80755 101.89 4.04626 95.4968C3.4647 93.3902 3.04967 90.7551 2.38301 88.5803C2.30482 88.327 2.05583 88.55 2.02028 88.5068C1.47278 87.8244 2.11329 87.941 2.07244 87.4229C1.90828 85.3565 1.4852 83.1341 1.05303 81.1939C0.870824 80.3743 0.424563 81.2963 0.618368 80.4102C0.631453 80.3491 0.973015 80.511 0.971319 80.2796C0.965408 79.7551 0.772149 78.7654 0.747856 78.3611C0.700836 77.5782 0.683788 77.4539 0.610791 76.7198C0.513369 75.6946 0.57615 74.4884 0.456421 73.4073C0.429883 73.1724 0.122722 73.4994 0.0522103 73.1242C-0.0201557 72.7478 -0.0167136 71.7508 0.0588456 71.4181C0.132397 71.0845 0.385743 71.2258 0.443225 71.1668C0.925566 70.6979 0.274832 69.5346 0.266654 69.3825C0.081365 66.6894 0.756751 64.3542 1.3487 61.8826C1.80185 59.9828 2.37707 57.949 3.21179 56.2549C4.2108 54.2373 5.39099 52.7263 6.76013 51.034C6.90476 50.8582 6.443 50.8194 6.62225 50.6022C8.57333 48.2547 10.9316 46.4083 13.6287 45.1001C13.8874 44.9772 13.7404 45.4486 14.0073 45.3444C15.6561 44.6632 18.3969 44.1532 18.8649 42.4459C20.072 42.0355 21.3822 41.6639 22.5152 41.6354C23.2363 41.6218 22.6827 42.1538 23.4659 41.7748C23.6445 41.6905 23.3161 41.4522 23.5925 41.3487C24.708 40.9277 25.9619 40.7421 27.1254 40.3444C27.361 40.263 27.2407 39.9983 27.3001 39.9347C27.4409 39.7897 27.63 39.7232 27.8344 39.7036C28.381 39.6483 28.9951 39.9251 29.1524 39.9392C30.7958 40.0841 31.9871 39.8639 33.4961 39.902C33.8434 39.9141 33.4423 39.5214 33.7803 39.5208C35.6049 39.5286 37.4804 39.861 39.1276 40.5376C39.4887 40.6885 39.0516 40.8931 39.2168 40.9809C39.9408 41.3727 40.3267 40.8631 41.0179 41.2871C41.1618 41.3769 40.9666 41.5959 40.9827 41.6357C41.2213 42.2557 41.8613 41.8124 41.984 41.8553C43.4776 42.3689 43.9454 43.5004 45.1567 44.274C45.3043 44.3702 45.1989 43.8482 45.6037 44.1398C48.2995 46.0899 50.4623 48.8922 51.9108 51.7115C52.1351 52.1481 51.7255 51.9928 51.7147 52.0364C51.5472 52.7246 52.2925 52.647 52.3984 52.7742C53.2188 53.7926 53.2359 55.0483 54.3526 55.4634C56.49 60.3552 58.5877 65.1993 59.2993 70.4106C59.3091 70.4766 58.9544 70.4526 58.9751 70.5838C59.2184 72.1733 59.6337 71.7267 60.5185 72.5807C60.7408 72.7963 60.1961 73.7687 60.1584 73.8511C60.0208 74.1538 59.4714 74.0153 59.4537 74.1094C59.3214 74.8782 60.8971 74.3783 61.126 75.3108C61.1304 75.3407 60.8056 75.2897 60.7954 75.3753C60.7627 75.6412 60.9384 75.855 60.8941 76.1187C60.7899 76.724 60.0562 77.1 60.7051 77.8356C60.7883 77.9286 61.6635 77.5557 61.8131 78.4123C61.8718 78.7485 62.2166 80.2298 62.2468 80.6623C62.2779 81.093 61.9213 80.8696 61.915 80.9022C61.7667 82.1106 61.514 81.7218 61.0551 82.4028C60.597 83.0806 61.9366 82.6388 62.1375 82.8353C62.3383 83.0322 62.1856 83.9209 62.1146 84.1461C62.0437 84.371 61.8047 84.1572 61.7779 84.3498C61.6049 85.6255 62.566 84.7355 62.8636 85.0857C63.5672 85.915 62.6877 86.8321 62.7523 87.7004C62.7698 87.9352 62.966 87.7028 63.0273 87.9032C63.2667 88.6976 63.0417 89.249 63.5074 90.113C63.5835 90.2543 64.3379 90.8849 63.9766 91.452C63.9243 91.5325 63.6335 91.3856 63.6406 91.7418C63.651 92.2738 63.7668 93.2149 63.9533 93.7537C64.0912 94.1517 64.4254 93.6054 64.3891 94.1449C64.3727 94.3847 64.0495 94.0049 64.0391 94.4516C64.0283 94.896 64.2377 95.9887 64.3214 96.4036C64.4052 96.8177 64.6828 96.5326 64.7103 96.5623C64.8701 96.7434 65.168 97.5152 65.1802 97.5858C65.8592 101.13 65.91 104.521 66.7365 107.934C66.8014 108.204 67.1028 107.959 67.1161 108C67.433 108.904 66.4017 108.339 66.2267 109.047C66.8897 108.823 66.8392 109.231 67.0394 109.868C67.1365 110.175 67.367 109.953 67.3995 109.976C67.8894 110.364 67.4356 110.786 67.3462 110.89C67.0168 111.27 67.5437 111.523 67.3256 111.784C67.1097 112.047 66.6309 111.636 66.7609 112.265C67.0393 112.393 67.5823 111.8 67.7802 112.256C68.5213 113.965 68.7292 117.392 69.0111 118.838C69.2886 120.285 69.4419 120.718 69.5561 121.567C69.7725 123.116 70.1024 122.446 70.5515 123.313C71.0035 124.173 69.7432 124.029 69.5316 124.226C69.3201 124.421 69.6108 124.495 69.5188 124.692C69.4361 124.869 69.2177 124.643 69.2108 124.878L69.526 124.242C69.4988 124.245 69.4659 124.252 69.4262 124.262C69.0368 124.364 68.21 125.201 68.1844 125.5C68.1257 126.135 68.8098 126.492 67.7531 126.705C67.6925 126.717 67.7553 126.355 67.5295 126.413C65.7372 126.884 63.8706 127.606 61.9548 127.548C61.6946 127.536 61.9009 127.175 61.7543 127.163C60.2644 126.954 60.8166 127.531 59.7891 128.038C60.1467 127.212 59.7678 126.684 58.8089 126.275C58.2267 126.002 58.1613 126.38 57.6337 126.383C57.4695 126.381 57.2052 125.892 57.0312 125.98C56.4467 126.256 56.4277 127.108 55.5841 126.059C55.5499 126.013 55.8944 125.894 55.7618 125.751C55.5576 125.527 55.3871 125.378 55.2122 125.256L55.1224 125.147C54.6914 124.715 54.2104 124.647 53.6342 123.879C53.0375 123.082 52.3732 121.407 51.7955 120.442C52.6157 119.922 51.8334 119.16 51.0372 119.181C50.649 118.564 50.1702 117.938 49.8397 117.307C49.7264 117.092 50.0474 117.06 50.0547 117.017C50.1732 116.359 49.4556 116.474 49.3447 116.363C48.1523 115.125 47.7134 113.711 46.3293 112.732C46.2796 112.697 45.6954 113.044 45.8108 112.4C45.8194 112.357 46.3944 112.583 45.9351 111.973C45.4786 111.365 44.8283 110.02 43.8871 109.437C43.6591 109.293 42.8265 109.186 42.7862 108.518C42.7814 108.428 42.9742 108.351 42.9843 108.205C43.0114 107.734 42.3969 108.076 42.5478 107.401C42.7001 106.728 42.4299 105.83 41.357 105.379C41.3239 105.364 40.7684 105.585 40.5243 105.354C40.1354 104.984 39.6247 104.4 39.1789 104.048C38.9668 103.881 38.893 104.251 38.8526 104.227C37.9315 103.641 37.2461 103.076 36.4835 102.483C35.9812 102.098 35.4413 101.708 34.7309 101.435C34.3593 101.288 33.4383 101.573 32.7772 101.474C32.3766 101.417 32.1349 100.987 31.7927 100.704C31.4821 100.429 30.8147 100.366 30.2 101.436C29.6864 102.396 31.2454 103.977 29.8701 104.845C29.478 107.298 28.774 109.526 29.0514 112.028C29.0643 112.138 29.6354 112.501 29.6212 112.762C29.5986 113.156 29.3232 113.354 29.3014 113.626C29.2044 114.794 29.4468 115.848 29.4343 116.946C29.4309 117.37 29.1457 117.237 29.1438 117.74C29.1428 118.235 29.524 118.556 29.3727 119.259C29.2565 119.767 28.5219 120.314 28.4699 121.024C29.2183 121.014 29.2248 121.466 29.4715 122.297C29.5193 122.457 29.7688 122.268 29.8048 122.343C29.9574 122.649 29.7599 122.948 29.924 123.225C29.9635 123.293 30.2185 123.28 30.2652 123.334C30.6115 123.728 30.2886 124.412 30.1309 124.704L30.1494 124.891L30.0152 125.058C29.9581 125.077 29.9139 125.09 29.8881 125.097C29.2343 125.267 29.2944 125.672 28.877 125.849C28.4657 126.008 28.8123 125.463 28.3871 125.706C27.5322 126.196 26.4672 126.744 25.511 126.786C25.1379 126.806 25.4068 127.131 25.3542 127.142C24.4918 127.266 23.7682 126.716 23.1293 127.236C23.0929 125.387 22.5809 127.259 21.5596 126.487C21.4833 126.426 21.6759 125.61 22.0538 125.627C22.4299 125.644 22.8396 126.079 23.3434 126.034C23.4769 126.033 24.2336 125.422 24.2932 125.379C24.8649 125.109 24.8263 126.323 24.8707 126.399C25.0384 126.778 25.3553 126.752 25.5968 126.599C25.8437 126.449 26.0096 126.18 26.0855 126.132C26.7757 125.687 27.4382 125.458 27.8663 124.845C28.1271 124.448 27.5872 123.83 27.8256 123.612C27.9032 123.538 27.9846 123.471 28.0687 123.409L27.5861 124.886C27.7302 123.677 28.5428 123.145 27.5816 121.942C27.3564 121.662 26.4836 122.002 27.127 120.921C27.1671 120.849 27.767 120.033 27.3454 119.611C27.2921 119.558 27.0336 119.57 27.0088 119.498C26.848 119.005 27.041 118.647 26.9254 118.111C26.8102 117.592 26.6455 116.894 26.7241 116.284C26.7706 115.916 27.2485 115.403 27.3659 115.228C27.7031 114.727 27.1479 114.172 27.5633 113.856C27.981 113.546 28.6012 114.161 28.8802 113.352C28.2083 113.311 27.5193 113.23 26.8441 113.168C26.9046 111.318 27.212 109.485 27.4318 107.572C27.4591 107.336 27.068 107.529 27.0891 107.274C27.1917 106.162 27.6135 105.262 27.8646 104.046C28.0682 103.114 28.0878 101.889 28.8433 100.667C29.404 100.556 29.9496 100.058 30.7419 99.5665C31.5249 99.0586 32.6198 98.692 33.4499 98.7173C34.0374 98.7357 33.9663 98.9516 34.3293 99.0555C35.5622 99.5268 35.1139 98.7748 35.4949 98.7536C37.0157 98.8084 36.5843 100.16 37.5134 100.835C37.5613 100.872 37.6135 100.908 37.6708 100.942C37.7235 100.97 38.879 100.751 39.0043 100.78C39.8023 100.933 38.9415 101.083 39.2799 101.399C39.8885 101.979 40.2131 102.479 41.1045 102.911C41.3619 103.033 42.2156 103.094 42.3519 103.755C42.3699 103.842 42.1579 104.016 42.1894 104.066C42.7627 104.956 43.3653 104.363 43.9945 104.574C44.6279 104.79 44.8423 105.861 44.8435 106.111C44.8549 106.761 44.4542 105.972 44.4032 105.983C43.8224 106.119 44.3435 106.53 44.6497 106.923C44.0889 107.545 44.589 108.016 44.9696 107.331C45.0103 107.255 44.6901 107.022 44.6497 106.923C45.547 106.683 46.1602 107.198 46.1362 108.338C46.1221 108.872 45.5679 108.861 46.4501 109.667C46.8483 110.035 47.1574 109.507 47.5835 109.778C48.5594 110.4 49.0148 111.853 49.7525 112.695C50.0221 113.002 50.0353 112.495 50.2283 112.7C50.7405 113.242 50.9343 113.906 51.4656 114.437C51.514 114.485 51.6858 114.159 51.8239 114.344C52.8738 115.743 53.5623 117.117 54.5641 118.617C55.0512 119.345 56.0607 120.538 56.5244 121.305C56.9203 121.958 57.2742 122.729 57.6314 123.459L57.3499 123.117C57.771 123.705 58.2393 124.199 58.7005 124.417C59.2872 124.681 59.3185 124.303 59.6254 124.205C59.9147 124.099 60.1265 124.268 60.3344 124.478C60.5362 124.689 60.7402 124.939 60.7913 125.005C60.7956 125.015 60.2921 125.012 60.5282 125.223C60.6391 125.597 60.7898 125.006 60.7913 125.005C60.8379 125.116 61.904 125.187 62.1375 125.066C62.2549 125.015 62.1426 124.715 62.2024 124.694C63.6126 124.202 65.2688 123.421 67.1818 122.781C67.2166 122.773 67.3026 123.116 67.383 123.094C67.9582 122.938 68.3795 122.686 68.7704 122.395L67.2833 125.396C67.0517 124.993 66.7799 124.621 66.5369 124.182C66.0474 123.299 65.9376 122.494 66.3875 121.801C66.1423 121.111 66.1606 120.021 66.1824 119.389C66.2042 118.758 65.522 118.82 65.4973 118.772C64.72 117.26 64.8935 116.205 64.6082 114.519C64.4739 113.719 64.0557 112.127 63.8162 111.281C63.6245 110.609 63.7017 110.166 63.4807 109.551C63.451 109.468 63.17 109.612 63.1536 109.588C62.663 108.947 63.4551 109.149 63.5573 108.978C63.9293 108.358 64.1194 107.985 63.7297 107.128C63.6402 106.93 62.4796 106.518 62.3482 106.149C62.1794 105.668 62.5895 105.786 62.4034 105.284C62.3878 105.241 62.1576 105.293 62.1093 104.971C61.8836 103.486 61.7271 101.845 61.4278 100.315C61.3878 100.106 61.0682 100.441 61.0044 100.14C60.7052 98.7286 60.4385 97.1679 60.3601 95.758C60.3419 95.4105 60.6381 95.5765 60.7012 95.4889C61.0816 94.9518 60.292 94.4328 60.2598 94.3295C59.4737 91.8649 59.7221 89.8244 58.932 87.3252C58.8879 87.189 57.9585 86.267 58.4775 85.6643C58.512 85.6236 59.0466 85.0228 58.5307 84.6941C58.4984 84.6739 58.2343 85.0331 58.1625 84.5151C58.0902 83.995 57.7051 83.229 57.9102 82.4474C57.9748 82.2012 58.4888 81.5373 57.8446 80.9851C57.8003 80.9475 56.4479 80.1843 57.1442 79.6508C57.2585 79.5622 58.098 79.4433 57.4944 78.7456C57.3779 78.6136 57.2575 78.9293 57.0515 78.5589C56.7347 77.9926 56.7657 77.14 56.2216 76.4952C56.1258 76.3829 55.4367 75.9769 55.7474 75.4293C55.7961 75.3437 56.1024 75.4063 56.0743 75.1657C55.9402 74.0143 55.4647 72.9478 55.34 71.7693C55.2963 71.3571 55.7913 71.4358 55.7931 70.9918C55.795 70.5476 55.6694 69.6931 55.3438 69.3322C55.0177 68.9695 54.4619 69.6403 54.2133 69.0192C53.1368 66.3518 52.6171 63.5565 51.5825 60.9415C51.4294 60.5577 51.33 60.9834 51.0791 60.4153C50.1861 58.3259 48.1911 55.1072 47.5832 53.3045C47.0783 51.7995 48.4568 53.1885 47.9269 52.1196C47.6619 51.5986 46.6256 51.6387 46.5273 51.5574C45.5107 50.7075 45.2239 49.835 44.3157 49.1119C44.1312 48.9688 44.0595 49.3726 43.907 49.2509C43.3874 48.8425 42.9686 48.288 42.4519 47.9322C42.2215 47.7759 42.1078 48.0169 41.917 47.8546C41.4575 47.4722 41.0769 47.0996 40.6839 46.5972C40.6462 46.5506 41.1289 46.4483 40.7357 46.2149C40.1021 45.8424 39.357 45.2332 38.4626 45.1847C38.1967 45.173 38.0043 45.732 37.6275 45.1876C37.5471 45.0764 37.8776 44.4166 37.1071 44.8549C36.9698 44.9191 35.7913 45.5143 35.3947 44.9247C35.287 44.7656 35.0086 44.1372 34.6828 44.1995C34.6398 44.2103 34.7758 44.5447 34.519 44.5527C33.5848 44.577 32.7106 44.5338 31.7445 44.6898C31.4909 44.7331 31.8899 45.0398 31.5149 45.0952C30.7492 45.2143 29.8042 45.2936 28.8894 45.3932C28.6286 45.4225 28.378 45.4494 28.1429 45.4739C27.7325 45.5168 27.9561 45.1914 27.921 45.1679C27.3489 44.7874 27.2101 45.4907 27.0673 45.5612C26.1601 45.9978 25.4555 45.8548 24.5797 46.1797C24.3443 46.2677 24.5996 46.5217 24.5592 46.562C24.1433 46.9632 24.3546 46.3184 24.0267 46.3483C23.0999 46.435 22.2147 46.7501 21.379 47.1001C21.0695 47.2308 21.548 47.4404 21.2719 47.5535C19.6674 48.2214 18.0732 48.9266 16.5867 49.561C16.3095 49.6786 16.3298 49.3429 16.2435 49.3194C15.6296 49.1599 15.3773 50.0447 15.2945 50.1709C14.8811 50.7641 14.5362 50.7078 14.1011 51.09C11.9136 52.9745 9.5838 55.4871 8.28073 57.8461C6.58249 60.8827 5.63578 63.6347 5.32686 67.1825C5.30885 67.4098 5.70104 67.2172 5.69085 67.4122C5.55025 69.8879 5.43372 72.4351 5.74786 74.9948C5.77338 75.2062 6.09949 74.8724 6.15273 75.2093C6.26501 75.905 6.33796 76.7793 6.31382 77.4954C6.30293 77.8459 5.94472 77.4214 5.94045 77.775C5.9308 78.6004 6.03528 79.4875 6.22679 80.3045C6.30973 80.6544 6.57718 80.0623 6.65756 80.5205C7.22153 83.6552 7.98424 86.6975 8.3851 89.9848C8.4126 90.2095 7.75671 90.5932 8.02069 91.0206C8.22643 91.0013 8.4565 90.9354 8.67024 90.8926C10.0472 95.4162 11.2951 99.9766 12.8722 104.526C12.9386 104.717 13.1871 104.258 13.3176 104.627C14.0781 106.775 14.945 108.818 15.397 111.135C15.4434 111.367 14.7614 111.494 15.0993 112.103C15.1596 112.211 15.6074 113.147 15.8395 113.343C15.8731 113.369 16.1058 113.081 16.2309 113.388C16.9568 115.185 17.6013 117.1 18.1026 119.002C18.1818 119.306 17.7473 119.113 17.8008 119.331C18.1761 120.854 19.0245 122.411 19.2471 123.944C19.3978 124.981 18.7163 124.82 18.3518 125.521C18.3007 125.62 18.4947 126.211 18.1875 126.351C17.4164 126.707 16.4444 126.733 15.6343 127.146C15.4603 127.235 15.9243 127.932 15.3236 127.633C15.2833 127.612 14.9412 127.106 14.742 127.021C14.6043 126.961 14.343 127.248 14.141 127.099C13.9391 126.95 14.1327 126.638 13.8595 126.365C13.5838 126.091 13.2707 126.369 12.989 125.723ZM66.2987 116.578C66.5013 115.962 65.3136 116.129 65.7204 116.664C65.7415 116.689 66.2891 116.609 66.2987 116.578ZM28.1591 109.561C28.746 108.862 28.0339 108.276 27.5728 108.763C27.113 109.274 27.9823 109.773 28.1591 109.561ZM28.3896 117.203C28.7867 116.337 27.0883 116.231 27.4506 117.15C27.4713 117.204 28.3667 117.254 28.3896 117.203ZM17.3519 123.223C17.3398 123.236 17.477 123.659 17.4952 123.664C17.9333 123.757 17.6585 122.91 17.3519 123.223ZM29.1825 124.679C29.3917 124.39 29.0758 123.644 28.8134 123.993C28.6019 124.273 28.9218 125.037 29.1825 124.679ZM62.1834 87.8343C62.1993 87.8223 62.1537 87.5033 62.056 87.529C61.7416 87.6123 61.9167 88.0342 62.1834 87.8343ZM17.8709 125.812C18.2865 125.386 18.9218 125.322 19.2752 125.466C19.6458 125.601 19.8465 125.838 19.9263 126.027C20.0084 126.221 19.9665 126.378 19.8185 126.456C19.6802 126.539 19.4043 126.532 19.1633 126.532C19.0817 126.535 19.1264 126.403 19.2523 126.271C19.3686 126.141 19.5463 126.018 19.3417 125.946C18.9575 125.824 18.6889 126.115 18.6026 126.376C18.5 126.647 18.462 126.887 18.0886 127.159C18.0207 127.213 17.8846 126.921 17.8135 126.6C17.7463 126.258 17.8165 125.855 17.8723 125.808C17.8718 125.809 17.8713 125.811 17.8709 125.812ZM67.6368 115.963C67.6499 115.949 67.5717 115.508 67.5542 115.5C67.1322 115.341 67.2898 116.231 67.6368 115.963ZM58.6565 69.3466C58.6828 69.3125 58.4219 68.3146 58.3818 68.2926C57.6357 67.9579 58.1586 69.9637 58.6565 69.3466ZM51.8072 120.413C51.2206 120.225 50.86 119.773 51.038 119.183C51.2887 119.596 51.5575 120 51.8072 120.413Z" fill="black"/>
<circle cx="31.636" cy="18.2391" r="17" fill="white"/>
<path d="M52.5585 19.4901C52.6223 20.2343 52.3975 21.1922 52.1162 21.8842C52.029 22.1009 51.8411 21.9488 51.7708 22.094C51.6333 22.375 51.6753 22.6763 51.5108 22.9461C51.4553 23.0346 51.1569 22.8378 51.1063 22.931C50.8316 23.4378 50.7702 23.9666 50.5252 24.4819C49.3197 26.9997 47.84 29.2619 45.9013 31.1767C45.26 31.8131 44.2747 32.3298 43.653 33.004C43.5802 33.0835 43.815 33.2725 43.8145 33.3043C43.7934 33.7982 43.5061 33.2655 43.294 33.3307C42.4507 33.5902 41.6979 34.0606 41.0726 34.5529C40.8064 34.7622 41.389 35.1047 40.929 34.9864C40.8977 34.9784 40.8198 34.6635 40.7235 34.6789C40.5061 34.7146 40.1857 34.9458 40.03 34.995C39.7309 35.0886 39.6869 35.1129 39.4208 35.2323C39.0535 35.393 38.5601 35.4312 38.1875 35.6468C38.1075 35.6939 38.3345 35.9518 38.2147 36.0546C38.095 36.1581 37.7145 36.2618 37.5653 36.2302C37.4163 36.1993 37.3921 35.9418 37.3523 35.894C37.0272 35.4879 36.8064 36.2581 36.7498 36.2903C35.8055 36.8508 34.8222 36.6489 33.8606 36.7658C33.1292 36.8555 32.3476 37.0248 31.636 37.0089C31.6301 37.0088 31.6242 37.0087 31.6183 37.0085C30.7657 36.9837 30.0681 36.7634 29.2543 36.6913C29.1682 36.683 29.2209 37.0704 29.114 37.0605C27.9772 36.9543 26.8558 36.6573 25.8645 36.0686C25.7657 36.0092 26.005 35.7388 25.914 35.661C25.3393 35.1926 24.6795 34.2116 23.7066 35.3436C23.3051 35.0965 22.8228 34.7815 22.6072 34.3253C22.4699 34.0319 22.8705 33.846 22.5178 33.8195C22.4383 33.8126 22.3594 34.133 22.251 34.1009C21.7917 33.9635 21.4224 33.6025 20.9521 33.4711C20.8558 33.4448 20.713 33.6905 20.6614 33.7165C20.2316 33.9191 20.3301 33.1396 20.2997 33.0528C20.037 32.3833 19.6115 32.2137 19.1933 31.8205C19.0971 31.7289 18.9555 32.1158 18.8524 32.0362C18.3205 31.6183 17.8514 31.0857 17.5491 30.4799C17.4828 30.3448 17.8153 30.2337 17.7968 30.1589C17.7171 29.8348 17.2036 30.1742 17.1206 29.8609C17.1031 29.7957 17.3416 29.6498 17.3584 29.622C17.626 29.1908 17.0018 29.4904 16.961 29.4618C16.4482 29.1248 16.8169 28.418 16.4432 28.027C16.3973 27.979 16.1822 28.2938 16.0703 28.1456C15.3222 27.1579 14.8083 25.9145 14.6459 24.6883C14.6202 24.4978 14.9144 24.5306 14.9405 24.5078C15.3507 24.1555 14.6721 24.2767 14.627 24.2258C14.2912 23.8275 14.7121 23.2452 13.8447 23.1469C13.6235 21.4985 13.1624 19.8842 13.4299 18.2391C13.4959 17.8356 13.6062 17.444 13.7751 17.0581C13.7851 17.0335 14.1166 17.1002 14.1352 17.0516C14.3675 16.4713 13.8403 16.5525 13.2522 16.0667C13.1051 15.9399 13.9093 15.7272 13.9691 15.712C14.1887 15.6441 14.6678 15.8154 14.7122 15.7889C15.063 15.579 13.4252 15.3686 13.4908 14.9866C13.4956 14.9754 13.7857 15.0775 13.821 15.0516C13.9313 14.9721 13.8305 14.8547 13.9513 14.7807C14.2315 14.6109 15.0281 14.7087 14.6444 14.2939C14.5953 14.2399 13.667 14.0925 13.7916 13.7702C13.8396 13.6431 13.9841 13.0561 14.0933 12.9144C14.2002 12.7719 14.4546 12.9707 14.4706 12.9628C14.9829 12.6612 15.0907 12.8717 15.7164 12.8584C16.3389 12.8543 14.9958 12.4502 14.8779 12.3131C14.7603 12.1753 15.1811 11.9856 15.3158 11.9562C15.4504 11.9252 15.5943 12.0838 15.6792 12.0439C16.2363 11.7853 15.1063 11.601 14.958 11.3742C14.6144 10.8263 15.6866 10.9767 15.9145 10.7357C15.9772 10.6685 15.7326 10.6308 15.7471 10.5498C15.8103 10.2277 16.1822 10.212 16.0904 9.75798C16.0738 9.68622 15.675 9.11747 16.1692 9.18305C16.2397 9.19374 16.4251 9.38918 16.5427 9.30429C16.7183 9.17752 16.9532 8.90697 16.9976 8.68238C17.0306 8.51567 16.574 8.43206 16.796 8.33755C16.8947 8.29666 17.011 8.57143 17.1781 8.48499C17.3438 8.39901 17.5749 8.05342 17.6635 7.92134C17.7508 7.78907 17.4399 7.66459 17.4299 7.64139C17.376 7.50345 17.4441 7.15883 17.4624 7.13717C18.3123 5.99572 19.6001 5.47332 20.5143 4.4978C20.5876 4.42091 20.3188 4.19906 20.3278 4.18458C20.5259 3.84367 20.866 4.73275 21.2456 4.82147C20.7924 4.29625 20.9847 4.3039 21.1421 4.09209C21.218 3.98964 21.0056 3.81307 20.9981 3.78438C20.9068 3.34537 21.3219 3.69682 21.4093 3.76685C21.7349 4.02162 21.5746 3.56359 21.7921 3.73596C22.0057 3.90876 22.0745 4.33231 22.2648 4.19807C22.183 3.95443 21.6724 3.51568 21.7691 3.32502C22.1421 2.58592 23.5717 2.37729 24.0964 2.20242C24.6267 2.01383 24.7785 1.90507 25.1137 1.8659C25.7193 1.80421 25.3468 1.43324 25.6261 1.09853C25.9129 0.766668 26.1167 1.94884 26.2479 2.17267C26.3753 2.39816 26.3441 2.13275 26.4462 2.24661C26.5469 2.36096 26.4762 2.5655 26.6265 2.57226C26.7741 2.57871 27.0146 2.03609 26.9966 1.7659C26.9525 1.19368 26.6128 0.671488 27.0635 0.766392C27.0891 0.772464 27.0949 1.09252 27.1886 1.10066C27.9226 1.15758 28.6323 1.03524 29.3379 1.15533C29.4345 1.17247 29.3969 1.52658 29.4528 1.54063C30.0297 1.69368 29.7623 1.1388 30.0193 0.461945C30.0284 1.32853 30.2439 1.83447 30.6523 1.81456C30.9008 1.80416 30.8374 1.43057 30.9929 1.15838C31.0403 1.07623 31.2286 1.32975 31.2572 1.15208C31.3558 0.571648 31.1659 -0.0767674 31.636 0.177923C31.6362 0.17803 31.6364 0.178136 31.6366 0.178243C31.6438 0.182571 31.6403 0.224783 31.636 0.278476C31.6302 0.349105 31.6231 0.439599 31.636 0.489842C31.6411 0.509754 31.6494 0.523346 31.6622 0.526894C32.1081 0.656104 32.1732 0.0506623 32.6775 0.00239646C33.0768 -0.0355175 33.7312 0.397911 34.1498 0.520539C34.0097 1.47981 34.4191 1.31582 34.6996 0.686907C34.9725 0.76184 35.2781 0.784159 35.5241 0.934111C35.6083 0.985372 35.4863 1.24585 35.4912 1.27805C35.5556 1.78084 35.8191 1.17572 35.8855 1.16585C36.5882 1.0865 36.9453 1.71153 37.6907 1.46689C37.7164 1.45789 37.9842 0.83742 37.9738 1.35889C37.9712 1.39422 37.671 1.6087 37.9377 1.73473C38.2088 1.86217 38.5673 2.40172 39.0621 2.28994C39.1799 2.26159 39.6508 1.88011 39.6411 2.35454C39.6388 2.41842 39.5257 2.57779 39.5111 2.69094C39.463 3.05102 39.838 2.47804 39.6947 3.05707C39.5515 3.6366 39.5796 4.14304 40.111 3.99498C40.127 3.991 40.4841 3.57518 40.5877 3.64888C40.7515 3.76569 40.9284 4.01297 41.1015 4.12554C41.1848 4.1794 41.32 3.86624 41.3377 3.87082C42.0089 4.1016 42.2269 4.63953 42.6902 5.19915C42.7726 5.29994 43.3672 5.21241 43.3114 5.65524C43.2434 6.13555 41.917 7.13857 42.6055 7.26507C42.8703 7.30795 44.6252 6.11665 44.1335 7.19258C44.9294 7.69089 44.9787 8.67292 45.773 9.20185C45.8084 9.22539 46.3701 9.02282 46.4154 9.11136C46.4809 9.24199 46.2881 9.4502 46.3244 9.54622C46.4693 9.95192 46.86 10.1826 47.0137 10.5706C47.0717 10.7171 46.7952 10.7925 46.8608 10.9646C46.9249 11.1352 47.315 11.0937 47.2533 11.3978C47.2056 11.6294 46.578 12.0915 46.582 12.3418C47.2802 12.0752 47.3299 12.2376 47.6197 12.4578C47.6758 12.5003 47.8991 12.3524 47.9383 12.3681C48.1039 12.4322 47.9355 12.6044 48.1089 12.6612C48.1507 12.6753 48.3931 12.5951 48.4411 12.6026C48.86 12.6666 48.4064 13.1438 48.3241 13.2195C48.0176 13.5203 48.3614 13.517 48.2583 13.7065C48.1537 13.8928 47.9143 13.7227 47.8722 13.916C47.7842 14.3126 47.9262 14.7502 47.9819 15.1107C48.0057 15.2539 48.3225 15.0943 48.3337 15.1133C48.4758 15.4028 48.1631 15.7594 48.8587 15.8353C47.1465 16.2802 49.0553 15.9962 48.7544 16.4882C48.7296 16.5267 47.9077 16.6487 47.7736 16.5352C47.6396 16.4227 47.875 16.1999 47.6629 16.0503C47.6132 16.012 46.8102 15.8961 46.7589 15.8756C46.3584 15.6995 47.5738 15.4567 47.6386 15.4302C48.3366 15.1478 47.4554 15.0085 47.3836 14.9511C47.0533 14.6661 47.1543 14.3454 46.8963 14.1147C46.7286 13.9648 45.942 14.171 45.9276 14.0323C45.8784 13.5811 46.8906 13.0353 45.8131 12.9519C45.5826 12.9359 44.7889 13.3414 45.3201 12.7837C45.3549 12.7511 45.8506 12.2739 45.4203 12.2982C45.3663 12.3018 45.129 12.4052 45.0998 12.3925C44.9088 12.3064 45.0542 12.127 44.8923 12.0144C44.7306 11.9026 44.5102 11.788 44.5001 11.5782C44.4943 11.4528 44.8477 11.0919 44.9226 10.9832C45.1408 10.6732 44.5686 10.7964 44.8736 10.5023C45.1761 10.2006 45.8282 10.0674 45.9085 9.67934C45.3264 10.0163 44.7231 10.3524 44.1366 10.6897C43.8653 10.1958 43.725 9.60717 43.3464 9.1674C43.2992 9.11383 43.0584 9.393 43.0013 9.34268C42.7633 9.13262 42.7832 8.75411 42.4863 8.57472C42.2553 8.43694 41.7884 8.49933 41.5409 8.38748C41.9757 7.73196 41.5027 7.63752 41.3379 7.39749C41.2792 7.31243 41.4203 7.16304 41.4096 7.06444C41.363 6.69564 41.0176 7.29668 40.8926 7.33035C40.3642 7.48324 41.3204 6.27512 40.979 6.05773C40.9592 6.04376 40.2665 6.54915 40.212 6.57321C39.8456 6.71808 40.3527 6.322 40.2791 6.19388C40.1442 5.96107 40.1067 5.69692 39.7307 5.73868C39.6186 5.75049 39.1815 6.07841 39.2499 5.65766C39.2585 5.60228 39.4091 5.37644 39.4023 5.35376C39.2622 4.96139 38.8238 5.69449 38.5347 5.86249C38.2475 6.03173 38.2928 5.3911 38.3171 5.21344C38.386 4.75588 38.5037 5.09859 38.5302 5.06443C38.8533 4.65574 38.629 4.63658 38.5054 4.52647C38.8605 3.76939 38.625 3.70971 38.375 4.41558C38.3476 4.4925 38.4937 4.47775 38.5054 4.52647C38.0095 5.19485 37.776 5.19701 37.8469 4.38911C37.8778 4.01052 38.1584 3.67351 37.7313 3.6583C37.5385 3.65313 37.3838 4.21155 37.1851 4.30068C36.7384 4.50685 36.5052 3.85438 36.1297 3.82677C35.9971 3.81791 36.0242 4.15578 35.9319 4.16075C35.6895 4.17639 35.5569 3.89384 35.3006 3.95309C35.2778 3.95901 35.2447 4.29071 35.1758 4.27756C34.6539 4.18624 34.2383 3.88829 33.6786 3.80281C33.4081 3.76044 32.9083 3.89101 32.6336 3.83755C32.3238 3.77655 31.9751 3.55109 31.636 3.43586C31.4497 3.37198 31.2718 3.34151 31.1217 3.38811C30.8472 3.47314 30.9248 3.80096 30.8218 4.03113C30.6321 4.47633 30.1875 3.7336 30.1147 3.62059C30.1123 3.61641 30.3407 3.51665 30.1986 3.36008C30.0899 3.01621 30.1167 3.61887 30.1147 3.62059C30.0716 3.5447 29.5886 3.52737 29.5049 3.60529C29.4593 3.6467 29.5327 3.95171 29.5087 3.96741C28.9357 4.33498 28.3783 4.53571 27.7434 4.56375C27.7312 4.56067 27.6517 4.21999 27.6236 4.21711C27.2259 4.16992 27.1254 4.65307 26.9379 4.98815C26.7487 5.32455 26.5173 5.3252 26.1241 4.83822C25.9448 4.9929 25.541 4.88261 25.2976 4.82055C25.0535 4.75848 25.3291 5.3821 25.3209 5.40087C25.0634 6.01058 24.636 5.80111 24.148 6.02643C23.9164 6.13117 23.5546 6.48935 23.3812 6.70793C23.2444 6.88023 23.0459 6.82989 22.9523 7.03109C22.9397 7.05808 23.1466 7.28085 23.1474 7.29499C23.2037 7.71108 22.8257 7.06704 22.7079 6.99149C22.2793 6.7186 22.0265 6.5924 21.9493 6.95602C21.9286 7.04178 22.4889 7.96817 22.45 8.08801C22.3942 8.24587 22.1766 7.92676 22.1242 8.10212C22.1197 8.1169 22.2828 8.28667 22.2067 8.34477C21.8555 8.6165 21.4179 8.87702 21.132 9.24764C21.0926 9.29731 21.429 9.47902 21.3782 9.55342C21.14 9.90224 20.8537 10.2524 20.4749 10.4911C20.3806 10.5495 20.2014 10.3484 20.1248 10.3226C19.6558 10.1735 20.1133 10.7212 20.1088 10.7526C19.9793 11.5586 19.1562 11.7743 19.0949 12.6188C19.0903 12.6695 19.6395 13.2435 19.0062 13.1366C18.9646 13.1277 18.3114 13.0289 18.6755 13.3084C18.6986 13.3252 19.0389 13.3607 18.9529 13.4928C18.8661 13.6279 18.9943 13.9272 18.5833 14.0177C18.4545 14.0439 17.7897 14.0175 18.2224 14.3617C18.2502 14.3917 19.285 14.9847 18.4877 14.8888C18.3567 14.8731 17.5409 14.65 17.9032 14.9956C17.9742 15.0606 18.1764 15.0214 18.2635 15.1667C18.3989 15.3862 18.1269 15.5852 18.4575 15.8743C18.5156 15.927 19.0534 16.1778 18.6046 16.2397C18.5342 16.25 18.2615 16.1683 18.2199 16.234C18.0202 16.5498 18.1684 16.9258 17.9499 17.2565C17.8732 17.3757 17.4228 17.2816 17.2929 17.4095C17.1628 17.5373 17.0349 17.8099 17.2409 17.9569C17.4468 18.1009 18.1744 17.9622 18.2306 18.1624C18.2379 18.188 18.2447 18.2136 18.2509 18.2391C18.4578 19.0642 18.13 19.9082 18.2265 20.7607C18.2414 20.8889 18.4761 20.7364 18.5172 20.9178C18.6645 21.6036 19.2358 22.6269 18.963 23.3897C18.7455 24.0173 18.1903 23.5629 18.1771 23.995C18.176 24.2109 19.03 24.0477 19.0714 24.0734C19.4961 24.3437 19.2998 24.775 19.5927 25.0611C19.653 25.1187 19.9114 24.8816 19.9588 24.9311C20.1221 25.0965 20.1156 25.3789 20.2575 25.5475C20.3217 25.6223 20.5306 25.4643 20.5621 25.5488C20.6408 25.7493 20.6563 25.9641 20.5827 26.279C20.5765 26.3084 20.2351 26.3919 20.3225 26.532C20.4632 26.7558 20.4822 27.1733 20.873 27.2505C20.9901 27.273 21.444 26.8864 21.2576 27.3005C21.2189 27.3866 20.6476 27.8244 21.2626 27.5826C21.3689 27.5482 22.2243 27.2431 21.9637 27.7442C21.8951 27.8767 21.5696 28.3816 21.7148 28.3944C21.7356 28.3941 21.9177 28.1238 22.0037 28.1639C22.3021 28.3078 22.5227 28.5539 22.8331 28.6844C22.9158 28.718 23.0334 28.3836 23.1481 28.44C23.4622 28.5936 23.7437 28.9153 23.9595 29.1929C24.0386 29.2957 23.8116 29.4724 23.8016 29.5019C23.6479 29.9879 24.0933 29.4954 24.153 29.4892C24.528 29.4631 24.5567 29.8439 24.84 29.9153C24.9171 29.9351 25.0273 29.6369 25.0544 29.6204C25.3236 29.4605 24.9438 29.891 24.9999 29.9943C25.1582 30.2859 25.4531 30.4122 25.7276 30.5C25.8283 30.5316 25.8804 30.1539 25.9672 30.1849C26.4827 30.3611 26.9818 30.5984 27.4251 30.9557C27.5089 31.0236 27.3619 31.2696 27.3622 31.3369C27.3692 31.8096 27.762 31.2914 27.8223 31.2482C28.1097 31.0555 28.1261 31.3157 28.33 31.32C29.3127 31.3376 30.4417 31.6465 31.365 31.7598C31.4563 31.7715 31.5466 31.7832 31.636 31.7945C32.7044 31.927 33.6296 32.0493 34.6682 31.7574C34.7392 31.7373 34.5855 31.3906 34.6443 31.3688C35.3972 31.1053 36.1918 31.0003 36.8879 30.5875C36.9445 30.5544 36.7206 30.2668 36.8047 30.2034C36.9759 30.0712 37.22 29.9791 37.4611 29.9846C37.5788 29.9864 37.5877 30.3203 37.7052 30.3156C37.9803 30.3042 38.2339 30.1959 38.4301 30.0169C38.5125 29.9404 38.1896 29.711 38.3083 29.637C39.114 29.1202 39.8006 28.5377 40.8385 28.2171C40.9089 28.1956 41.4554 28.6888 41.4685 28.4817C41.3357 28.3271 41.1693 28.1551 41.022 27.9951C41.9551 26.9343 43.0095 25.9686 43.7313 24.7101C43.7611 24.6579 43.3703 24.5653 43.4249 24.465C43.7409 23.878 43.8928 23.2676 44.4842 22.7507C44.5421 22.6987 45.1768 22.9571 45.1463 22.723C45.141 22.6818 45.1503 22.3514 45.0298 22.2328C45.0113 22.2162 44.69 22.1782 44.7088 22.0819C44.8229 21.5215 45.0225 20.9673 45.3053 20.4261C45.3515 20.3384 45.6716 20.4901 45.7075 20.4268C45.9607 19.9701 45.7562 19.4211 46.0865 18.9697C46.3079 18.6638 46.8892 18.803 47.4722 18.638C47.5548 18.6142 47.5712 18.3996 47.9071 18.3905C48.7529 18.3661 49.6774 18.4918 50.579 18.454C50.7738 18.4457 50.5655 18.0978 51.0342 18.3048C51.0659 18.3192 51.2191 18.5757 51.3764 18.6431C51.4855 18.6901 51.8291 18.6157 51.9678 18.7115C52.1063 18.8084 51.8171 18.9016 51.9764 19.0608C52.137 19.2221 52.5302 19.1687 52.5585 19.4901ZM24.1823 4.582C23.8587 4.38743 24.4223 5.44312 24.452 5.0996C24.4527 5.08178 24.1984 4.59146 24.1823 4.582ZM44.4507 9.08963C44.732 8.57632 44.0067 8.90463 43.7812 9.28391C43.5501 9.65605 44.3628 9.24204 44.4507 9.08963ZM46.1098 11.1118C46.347 10.6556 44.8201 11.3966 45.2584 11.505C45.2833 11.5115 46.0957 11.1378 46.1098 11.1118ZM47.5928 19.5004C47.609 19.4991 47.6358 19.345 47.6201 19.3401C47.2469 19.2338 47.1944 19.5342 47.5928 19.5004ZM47.4679 13.4044C47.6602 13.246 47.3233 13.0645 47.0879 13.2644C46.8981 13.4219 47.2284 13.5977 47.4679 13.4044ZM16.445 10.98C16.4275 10.9751 16.3628 11.074 16.4551 11.1147C16.7521 11.2455 16.7377 11.0628 16.445 10.98ZM48.2006 17.8686C48.2471 17.2152 49.6082 16.6649 49.4954 17.4665C49.4732 17.6074 49.0347 17.1854 48.9171 17.3696C48.7021 17.6935 49.5874 17.8918 49.1168 18.233C49.0313 18.2889 48.1958 17.902 48.1987 17.8675C48.1993 17.8678 48.2 17.8682 48.2006 17.8686ZM23.3899 3.37801C23.3786 3.36598 23.2284 3.43326 23.2328 3.449C23.3452 3.82163 23.6409 3.68996 23.3899 3.37801ZM14.0779 17.5311C14.0428 17.5385 14.0002 17.9307 14.0321 17.9444C14.6477 18.1521 14.734 17.3888 14.0779 17.5311ZM34.153 0.547119C34.3906 0.194479 34.6342 0.187835 34.6989 0.68628C34.5199 0.629401 34.3342 0.596408 34.153 0.547119Z" fill="black"/>
</svg>
