<svg width="61" height="129" viewBox="0 0 61 129" fill="none" xmlns="http://www.w3.org/2000/svg">
<path d="M8.98173 126.989C-1.0996 97.9887 -2.01809 43.7392 25.0631 41.7677C88.6649 37.1376 40.5435 80.238 53.7462 126.189C53.9071 126.392 53.9895 126.655 53.9819 126.989C53.9013 126.722 53.8227 126.456 53.7462 126.189C51.7282 123.646 37.3702 130.518 33.4819 124.739C29.3307 118.57 41.4819 107.239 33.4819 102.239C27.6659 98.6041 21.4819 103.739 22.9819 124.739C17.655 131.026 10.821 122.562 8.98173 126.989Z" fill="white"/>
<path d="M4.30462 125.442C3.68476 123.818 3.16523 121.555 2.88848 119.832C2.79956 119.287 3.07337 119.505 3.02235 119.127C2.92729 118.402 2.66866 117.767 2.60134 117.037C2.58026 116.796 2.97446 117.012 2.9451 116.76C2.77934 115.366 2.43492 114.153 2.23409 112.76C1.27442 105.997 0.58787 99.3364 0.391989 92.4563C0.326288 90.1857 0.565636 87.4247 0.450961 85.0844C0.437039 84.8115 0.141105 84.9718 0.117186 84.9197C-0.246969 84.1 0.345622 84.3775 0.432694 83.8439C0.778394 81.7304 0.910856 79.3836 0.950672 77.3548C0.968867 76.4797 0.316008 77.307 0.714743 76.4554C0.741946 76.3965 1.03551 76.6428 1.08869 76.4076C1.20762 75.874 1.249 74.8528 1.31807 74.4431C1.45171 73.6542 1.46523 73.5093 1.56052 72.7526C1.6953 71.7154 2.02053 70.5223 2.13389 69.3961C2.15701 69.1572 1.78836 69.4182 1.79741 69.0314C1.80579 68.6414 2.00955 67.6604 2.15063 67.3339C2.29028 67.0079 2.51018 67.2011 2.5785 67.1521C3.15008 66.7541 2.73017 65.4772 2.74886 65.3251C3.07283 62.5644 4.09732 60.3636 4.98637 57.9241C5.66469 56.0639 6.40894 54.065 7.35237 52.3775C8.46087 50.4059 9.71088 48.8533 11.163 47.1457C11.3173 46.9671 10.8502 46.9246 11.0413 46.7043C13.0933 44.3377 15.7768 42.3855 18.8099 41.441C19.1133 41.3471 18.8598 41.805 19.1666 41.7324C21.043 41.2373 23.8392 41.3933 24.9328 39.9787C24.9467 39.9596 24.9602 39.9401 24.9734 39.9204C26.2548 39.8828 27.7482 39.8545 28.8176 40.0984C29.5052 40.2558 28.8642 40.6436 29.6836 40.4566C29.8675 40.4153 29.6147 40.1084 29.8916 40.0706C30.993 39.9132 32.5237 39.9837 33.6885 39.8217C33.9325 39.7878 33.8661 39.5046 33.9354 39.4537C34.5228 39.0406 35.4562 39.7383 35.6522 39.7933C37.3303 40.2024 38.5489 40.1216 39.9865 40.2485C40.3193 40.2792 39.9579 39.8662 40.28 39.8827C42.2 40.0019 43.8028 40.2488 45.638 40.7976C46.0205 40.9176 45.595 41.1588 45.7727 41.2323C46.5417 41.555 46.8584 41.0027 47.5645 41.3267C47.7113 41.3948 47.5511 41.6387 47.5711 41.6757C47.8705 42.253 48.5103 41.7413 48.6311 41.764C50.2369 42.0698 50.8528 43.0754 52.2631 43.6993C52.4286 43.7745 52.2337 43.2683 52.6918 43.5026C55.8279 45.0274 58.5083 48.3221 59.1873 51.7281C59.3035 52.2514 58.9387 51.9627 58.9185 52.0066C58.581 52.6445 59.314 52.7939 59.3804 52.9605C59.8784 54.2804 59.4301 55.5222 60.2977 56.3948C60.3117 62.0466 59.5757 67.5247 57.7802 72.5845C57.7578 72.6485 57.4556 72.4599 57.4123 72.588C56.8833 74.1355 57.4569 73.944 57.8412 75.1526C57.9367 75.4599 57.009 76.0818 56.9374 76.1427C56.6766 76.3555 56.2504 75.9782 56.1917 76.0558C55.7221 76.7036 57.3574 76.9474 57.1372 77.9258C57.1276 77.9558 56.8606 77.7603 56.8126 77.8359C56.6626 78.0706 56.7229 78.3514 56.5642 78.5801C56.2009 79.0933 55.3754 79.1111 55.6369 80.0779C55.6715 80.201 56.6216 80.2359 56.3854 81.0946C56.2894 81.4386 55.9682 82.9775 55.8195 83.3845C55.6687 83.7973 55.4369 83.4418 55.4176 83.4694C54.7816 84.5372 54.7135 84.0668 54.0133 84.5267C53.3156 84.9905 54.7221 85.1151 54.826 85.3845C54.9283 85.6577 54.4341 86.4351 54.2809 86.6193C54.1272 86.8041 53.9913 86.5078 53.8909 86.6796C53.2322 87.8248 54.4667 87.353 54.6056 87.7995C54.9382 88.8473 53.7738 89.4172 53.5178 90.2661C53.4485 90.4972 53.716 90.3463 53.7004 90.5602C53.6368 91.4066 53.2302 91.8569 53.3688 92.8628C53.3908 93.0285 53.8863 93.8978 53.3598 94.3214C53.2839 94.382 53.0573 94.1434 52.947 94.4913C52.7815 95.0105 52.5908 95.969 52.6027 96.5593C52.6115 96.9947 53.0972 96.5594 52.8978 97.0795C52.8093 97.3112 52.6165 96.8367 52.471 97.2757C52.3245 97.7137 52.2075 98.8462 52.1728 99.2829C52.1373 99.7173 52.4838 99.5124 52.5019 99.5497C52.6039 99.7736 52.6815 100.618 52.6755 100.691C52.3897 104.369 51.7377 107.791 52.0719 111.397C52.0982 111.679 52.431 111.475 52.4385 111.518C52.6288 112.474 51.683 111.758 51.417 112.457C52.1037 112.319 51.9988 112.726 52.124 113.406C52.1855 113.734 52.4399 113.533 52.4695 113.562C52.9127 114.019 52.418 114.392 52.3185 114.49C51.9523 114.846 52.4525 115.151 52.2115 115.395C51.973 115.642 51.5319 115.175 51.6066 115.832C51.8731 115.988 52.4649 115.435 52.6234 115.916C53.2013 117.737 53.2865 121.215 53.5958 122.718C53.8778 124.181 54.054 124.639 54.1987 125.511C54.3692 126.492 54.5614 126.595 54.7919 126.743L53.1359 126.969C53.0333 126.898 52.885 126.807 52.823 126.886C52.8044 127.041 52.9153 126.803 53.0438 126.536C53.1738 126.264 53.4231 125.993 53.4245 125.847C53.3951 125.541 53.1542 125.726 53.0077 125.541C52.8548 125.36 53.3111 125.289 52.8684 125.134C52.3706 124.957 51.1946 125.452 51.0963 125.735C50.8362 126.324 51.3641 126.858 50.3266 126.761C50.2639 126.756 50.4262 126.423 50.1873 126.42C48.3168 126.418 46.3628 126.811 44.4476 126.895C44.185 126.907 44.362 126.528 44.2091 126.531C42.6164 126.543 43.2662 127.036 42.4645 127.789C42.5605 126.905 42.0207 126.458 40.8556 126.534C40.1475 126.57 40.2965 126.938 39.8276 127.215C39.684 127.299 39.1817 127.036 39.0813 127.208C38.7474 127.769 39.2353 128.473 37.9118 128.103C37.8555 128.084 38.0716 127.789 37.8762 127.748C36.6256 127.434 36.347 128.057 34.8427 127.499C34.1141 127.209 33.1257 126.346 32.611 125.325C32.2999 124.741 32.1148 124.147 31.9903 123.659C32.8988 123.376 32.4469 122.421 31.7838 121.931C31.7723 121.088 31.8416 120.194 32.0803 119.458C32.1633 119.202 32.4043 119.431 32.4406 119.403C33.0056 119.018 32.4575 118.55 32.477 118.374C32.7162 116.537 33.7233 115.336 33.8504 113.585C33.8547 113.522 33.2565 113.199 33.8717 112.947C33.9134 112.931 34.0129 113.557 34.3037 112.823C34.5938 112.093 35.424 110.786 35.3621 109.658C35.3527 109.377 34.9453 108.666 35.4254 108.234C35.4912 108.173 35.6742 108.272 35.7927 108.184C36.169 107.885 35.5043 107.677 36.0903 107.311C36.6696 106.971 37.1167 105.907 36.3014 104.867C36.2739 104.83 35.6811 104.781 35.5295 104.484C35.3002 104.001 34.8675 103.294 34.426 102.926C34.209 102.742 34.1315 103.118 34.0904 103.09C33.8045 102.898 33.552 102.742 33.2731 102.573C32.1281 101.916 31.1123 101.221 29.4813 101.309C29.0769 101.325 28.3203 102.041 27.5889 102.147C26.7545 102.329 26.2605 100.396 25.0491 102.296C24.575 103.148 25.9016 104.934 24.4174 105.657C23.6772 108.127 22.72 110.358 22.8111 112.976C22.8143 113.104 23.3594 113.505 23.3282 113.77C23.2807 114.16 22.9919 114.37 22.954 114.651C22.7904 115.823 22.9851 116.941 22.9374 118.082C22.9209 118.516 22.6395 118.361 22.6238 118.89C22.6104 119.435 22.9837 119.742 22.8206 120.463C22.6973 121.018 21.9556 121.551 21.8996 122.282C22.6481 122.274 22.653 122.779 22.9006 123.617C22.9488 123.78 23.1979 123.587 23.2341 123.663C23.3873 123.972 23.1916 124.284 23.3589 124.583C23.3964 124.651 23.6206 124.643 23.6891 124.689L23.7155 124.957L23.5229 125.197C23.5239 125.204 23.5241 125.209 23.5233 125.215C23.4398 125.915 22.3405 126.137 22.1661 126.134C21.4742 126.198 21.4368 126.607 20.9683 126.692C20.5086 126.756 20.9993 126.304 20.5195 126.437C19.5523 126.705 18.3175 126.892 17.3079 126.763C16.9082 126.716 17.1401 127.084 17.0822 127.086C16.1977 127.066 15.4541 126.484 14.8014 127.003C14.7247 125.151 14.2438 127.014 13.1656 126.31C13.0802 126.254 13.2013 125.422 13.601 125.418C14.0024 125.415 14.4616 125.836 15.0027 125.797C15.1366 125.793 15.9814 125.218 16.0674 125.187C16.7865 124.98 16.6393 126.198 16.6718 126.276C16.9825 127.088 17.9067 126.317 18.071 126.246C18.9562 125.978 19.6738 125.958 20.2279 125.474C20.5791 125.151 20.1689 124.436 20.4175 124.291C20.868 124.006 21.372 123.959 21.7877 123.727L21.4206 124.851C21.534 124.359 21.5122 123.886 21.0102 123.248C20.7856 122.958 19.9106 123.315 20.5573 122.165C20.5974 122.086 21.2043 121.271 20.7885 120.804C20.7359 120.745 20.4772 120.754 20.4534 120.675C20.2997 120.144 20.4999 119.793 20.3968 119.23C20.2939 118.637 20.1499 117.96 20.2519 117.295C20.3125 116.888 20.8117 116.398 20.9372 116.219C21.2966 115.712 20.773 115.086 21.2054 114.79C21.6407 114.491 22.2228 115.169 22.5506 114.336C21.8824 114.253 21.2 114.125 20.53 114.018C20.71 112.071 21.1812 110.172 21.6301 108.203C21.6856 107.962 21.2731 108.121 21.325 107.858C21.5654 106.704 22.1159 105.813 22.5263 104.616C22.8468 103.69 23.0542 102.489 23.7302 101.469C24.7533 101.375 25.7948 99.9013 27.2082 99.3593C27.6851 99.1746 27.7274 99.3864 28.0784 99.3361C29.3982 99.2305 28.6703 98.7432 29.0275 98.5574C30.6973 97.9345 30.8248 99.5073 32.2791 99.8616C32.344 99.8637 33.6124 99.4848 33.7745 99.5226C34.755 99.6489 33.7887 99.8432 34.2444 100.161C34.3728 100.254 34.4916 100.348 34.605 100.442C35.2313 100.972 35.6706 101.411 36.5476 102.08C36.8375 102.284 37.866 102.805 37.8396 103.712C37.8353 103.826 37.5654 103.888 37.5831 103.966C37.8487 105.34 38.6032 105.159 39.0341 105.971C39.446 106.802 38.7908 108.015 38.5957 108.189C38.1048 108.726 38.4492 107.736 38.3986 107.689C37.9005 107.298 37.9684 108.092 37.8417 108.659C37.0079 108.633 36.9324 109.37 37.711 109.231C37.7982 109.213 37.7911 108.766 37.8417 108.659C38.5943 109.256 38.5136 110.252 37.5289 110.93C37.0634 111.248 36.7874 110.752 36.5569 111.997C36.4467 112.554 37.0602 112.532 37.0454 113.059C37.0062 114.27 35.9844 115.434 35.6926 116.505C35.5875 116.892 36.0143 116.631 35.9538 116.897C35.7962 117.604 35.3772 118.117 35.3075 118.809C35.3022 118.871 35.6589 118.818 35.608 119.018C35.2388 120.513 34.877 121.733 35.1667 122.707C35.2282 122.91 35.3627 123.139 35.548 123.349C35.7684 123.595 36.0267 123.749 36.2407 123.905C36.8058 124.4 38.4354 125.135 39.6623 124.983C40.4625 124.895 40.27 124.563 40.5981 124.322C41.2082 123.858 42.4893 124.492 42.6808 124.586C42.6867 124.591 41.9732 124.755 42.3796 124.877C42.649 125.199 42.6734 124.588 42.6808 124.586C42.7957 124.655 44.2698 124.512 44.5586 124.396C44.7127 124.335 44.5722 124.042 44.6532 124.016C46.6033 123.424 48.5418 122.878 51.0553 122.837C51.0997 122.841 51.054 123.193 51.1563 123.198C51.9099 123.244 52.5088 123.165 53.4022 123.231C53.8436 123.276 54.3438 123.338 55.0045 123.679C55.622 123.979 56.3802 124.722 56.7097 125.571C56.9459 126.163 57.0079 126.601 57.025 127.058L51.0687 127.871C50.7232 127.116 50.6812 126.43 51.0306 125.806C50.7519 125.066 50.7452 123.914 50.7653 123.26C50.7827 122.598 50.1007 122.647 50.0752 122.594C49.2893 120.92 49.4969 119.845 49.299 118.011C49.2035 117.134 48.9139 115.422 48.7657 114.491C48.6437 113.748 48.7711 113.282 48.6286 112.6C48.6097 112.508 48.3127 112.619 48.2995 112.591C47.895 111.838 48.6554 112.171 48.7789 112.006C49.2319 111.408 49.4704 111.053 49.2189 110.09C49.1611 109.873 48.0828 109.225 48.018 108.807C47.9359 108.265 48.3183 108.468 48.2267 107.904C48.2194 107.856 47.9831 107.865 47.9961 107.516C48.0538 105.904 48.2588 104.141 48.3469 102.478C48.3599 102.25 47.9669 102.517 47.98 102.187C48.0415 100.644 48.219 98.9311 48.5666 97.4711C48.6535 97.111 48.8866 97.3708 48.9731 97.3007C49.4971 96.871 48.908 96.0914 48.9104 95.975C48.9446 93.2097 49.8956 91.2335 50.1078 88.4692C50.1177 88.3172 49.6164 87.0311 50.3336 86.6466C50.3815 86.6194 51.1104 86.2456 50.7681 85.7208C50.7467 85.6881 50.3596 85.932 50.502 85.3988C50.6437 84.8685 50.6124 83.9305 51.1259 83.2648C51.288 83.0526 52.0331 82.6328 51.6842 81.8325C51.6572 81.7867 50.7674 80.4471 51.6321 80.2327C51.7742 80.1989 52.5836 80.4446 52.3464 79.5198C52.2999 79.3431 52.052 79.5895 52.0305 79.1468C51.9969 78.4669 52.404 77.6882 52.2178 76.8053C52.1841 76.6525 51.7574 75.9415 52.2858 75.5738C52.3685 75.5162 52.6124 75.7159 52.6982 75.4782C53.1033 74.3669 53.1998 73.0714 53.6424 71.9489C53.7986 71.5504 54.1984 71.8571 54.4098 71.4536C54.6179 71.0666 54.9251 70.1742 54.8121 69.684C54.7002 69.1885 53.8895 69.5372 53.9678 68.8524C54.3034 65.8665 55.2107 63.0949 55.4674 60.2624C55.5023 59.8538 55.2248 60.1724 55.2508 59.5815C55.4053 57.263 54.7862 53.8696 54.6138 52.2828C54.4924 50.9216 55.4844 52.2925 55.2128 51.2783C55.058 50.7627 54.0504 50.7478 53.9729 50.6807C53.1594 49.9438 52.9035 49.1456 52.0463 48.5927C51.8682 48.4823 51.8162 48.8763 51.6696 48.7831C51.1691 48.4701 50.6844 47.9833 50.1513 47.729C49.9042 47.6125 49.8292 47.8682 49.6125 47.7368C49.0726 47.4201 48.6159 47.1098 48.1264 46.668C48.0791 46.627 48.5582 46.4564 48.1092 46.2794C47.3785 45.9937 46.4192 45.4613 45.4755 45.4983C45.1824 45.508 45.0536 46.0869 44.5339 45.5574C44.4217 45.448 44.7332 44.7737 43.8767 45.2433C43.676 45.3079 42.4823 45.9549 41.9551 45.3457C41.8215 45.1845 41.491 44.5506 41.1173 44.6015C41.067 44.6107 41.2261 44.9511 40.925 44.949C39.7949 44.9316 38.8616 44.8263 37.7653 44.8674C37.4778 44.88 37.8866 45.2331 37.459 45.242C36.2439 45.2651 34.8174 45.1531 33.6866 45.0512C33.2635 45.0129 33.5551 44.7375 33.5245 44.7076C33.0235 44.2224 32.7245 44.8832 32.5572 44.9235C31.5069 45.1667 30.6522 44.8834 29.7637 44.9993C29.5093 45.0311 29.7029 45.3369 29.6532 45.3668C29.1367 45.6612 29.5071 45.0828 29.1677 45.0354C28.2142 44.9014 27.122 44.9877 26.1002 45.097C25.7245 45.1378 26.1727 45.4711 25.8352 45.5037C25.6711 45.5203 25.5055 45.5365 25.3386 45.5525C23.8382 45.7037 22.4241 45.9699 21.0556 46.3002C20.7737 46.3691 20.839 46.0435 20.7591 46.0062C20.1883 45.7489 19.8677 46.5745 19.7785 46.6868C19.3327 47.2106 19.0049 47.116 18.5453 47.4562C16.3185 49.0749 13.8761 51.7028 12.3554 54.184C10.3813 57.381 9.07417 60.2259 8.13943 63.9169C8.08148 64.1516 8.50325 64.0113 8.45843 64.214C7.86456 66.8398 7.22783 69.421 6.95602 72.1571C6.93376 72.3788 7.32655 72.1092 7.3031 72.4659C7.25774 73.1964 7.12611 74.1283 6.93568 74.8601C6.84376 75.2142 6.59364 74.6991 6.50742 75.0575C6.30647 75.8932 6.19896 76.8124 6.18854 77.7064C6.1854 78.0838 6.58665 77.5473 6.55532 78.0309C6.35321 81.3454 6.33906 84.6117 5.92944 88.0122C5.90152 88.2442 5.17204 88.4632 5.32461 88.9571C5.52891 88.9894 5.76808 88.9814 5.98585 88.9922C6.22714 93.8714 6.36911 98.7304 6.98381 103.614C7.00989 103.82 7.34694 103.414 7.39953 103.81C7.70755 106.109 8.17129 108.31 8.23052 110.705C8.23756 110.943 7.54128 110.946 7.77668 111.616C7.8181 111.735 8.11445 112.75 8.31552 112.983C8.34489 113.014 8.61841 112.763 8.69593 113.09C9.14071 114.984 9.53099 116.978 9.84259 118.931C9.89155 119.242 9.47786 119.005 9.51012 119.229C9.7367 120.795 10.4729 122.41 10.6359 123.939C10.7512 124.979 10.0771 124.798 9.69914 125.498C9.64576 125.598 9.83575 126.202 9.52861 126.341C8.75626 126.695 7.77942 126.699 6.9677 127.111C6.79223 127.2 7.27516 127.956 6.66288 127.622C6.62115 127.599 6.26786 127.046 6.06691 126.945C5.92748 126.875 5.6666 127.173 5.46121 127.002C5.25586 126.831 5.4496 126.504 5.17542 126.194C4.89964 125.883 4.57926 126.164 4.30462 125.442ZM50.9031 120.287C51.1247 119.655 49.9303 119.767 50.3218 120.35C50.3422 120.378 50.8926 120.32 50.9031 120.287ZM22.1347 110.349C22.7917 109.661 22.1452 109.007 21.6341 109.46C21.1236 109.936 21.9352 110.568 22.1347 110.349ZM21.8852 118.312C22.3097 117.439 20.6162 117.268 20.9483 118.228C20.9672 118.285 21.8608 118.363 21.8852 118.312ZM8.77323 123.119C8.76011 123.131 8.87795 123.572 8.89635 123.577C9.32996 123.697 9.09504 122.82 8.77323 123.119ZM21.7613 125.336C22.1159 125.348 22.4552 124.613 22.026 124.646C21.6996 124.668 21.3477 125.313 21.7613 125.336ZM52.9387 90.1867C52.9578 90.1808 53.0324 89.8577 52.9321 89.8463C52.6086 89.8103 52.617 90.2818 52.9387 90.1867ZM9.28539 125.785C10.3436 124.975 11.285 125.664 11.4405 125.987C11.6668 126.383 11.292 126.549 10.6206 126.544C10.5069 126.553 10.5918 126.415 10.7284 126.278C10.8657 126.142 11.0359 126.008 10.8163 125.949C10.4036 125.847 10.0998 126.132 9.97991 126.395C9.84692 126.669 9.8063 126.888 9.43167 127.159C9.36454 127.213 9.22398 126.923 9.16937 126.589C9.1142 126.239 9.22653 125.824 9.28722 125.78C9.28661 125.782 9.286 125.783 9.28539 125.785ZM52.2617 119.712C52.2749 119.698 52.214 119.242 52.1972 119.234C51.7812 119.049 51.9042 119.972 52.2617 119.712ZM57.7172 71.3089C57.7567 71.2889 58.0072 70.2329 57.9826 70.194C57.4879 69.5184 56.9822 71.6435 57.7172 71.3089ZM32.0089 123.631C31.4653 123.181 31.3164 122.391 31.7834 121.934C31.7819 122.488 31.8621 123.064 32.0089 123.631Z" fill="black"/>
<circle cx="28.4819" cy="18.2391" r="17" fill="white"/>
<path d="M49.4044 19.4901C49.4683 20.2343 49.2435 21.1922 48.9621 21.8842C48.8749 22.1009 48.687 21.9488 48.6168 22.094C48.4792 22.375 48.5213 22.6763 48.3568 22.9461C48.3012 23.0346 48.0028 22.8378 47.9523 22.931C47.6775 23.4378 47.6162 23.9666 47.3712 24.4819C46.1657 26.9997 44.6859 29.2619 42.7473 31.1767C42.1059 31.8131 41.1206 32.3298 40.4989 33.004C40.4261 33.0835 40.661 33.2725 40.6604 33.3043C40.6393 33.7982 40.352 33.2655 40.14 33.3307C39.2967 33.5902 38.5438 34.0606 37.9186 34.5529C37.6523 34.7622 38.235 35.1047 37.7749 34.9864C37.7436 34.9784 37.6658 34.6635 37.5694 34.6789C37.352 34.7146 37.0316 34.9458 36.8759 34.995C36.5769 35.0886 36.5329 35.1129 36.2667 35.2323C35.8995 35.393 35.4061 35.4312 35.0334 35.6468C34.9535 35.6939 35.1805 35.9518 35.0607 36.0546C34.9409 36.1581 34.5605 36.2618 34.4113 36.2302C34.2623 36.1993 34.2381 35.9418 34.1982 35.894C33.8731 35.4879 33.6523 36.2581 33.5958 36.2903C32.6514 36.8508 31.6681 36.6489 30.7066 36.7658C29.9751 36.8555 29.1935 37.0248 28.4819 37.0089C28.476 37.0088 28.4702 37.0087 28.4643 37.0085C27.6116 36.9837 26.9141 36.7634 26.1003 36.6913C26.0142 36.683 26.0669 37.0704 25.96 37.0605C24.8231 36.9543 23.7018 36.6573 22.7105 36.0686C22.6116 36.0092 22.851 35.7388 22.76 35.661C22.1853 35.1926 21.5255 34.2116 20.5526 35.3436C20.1511 35.0965 19.6688 34.7815 19.4532 34.3253C19.3159 34.0319 19.7164 33.846 19.3638 33.8195C19.2843 33.8126 19.2054 34.133 19.0969 34.1009C18.6376 33.9635 18.2683 33.6025 17.7981 33.4711C17.7018 33.4448 17.5589 33.6905 17.5073 33.7165C17.0775 33.9191 17.176 33.1396 17.1456 33.0528C16.883 32.3833 16.4574 32.2137 16.0392 31.8205C15.943 31.7289 15.8014 32.1158 15.6984 32.0362C15.1665 31.6183 14.6974 31.0857 14.395 30.4799C14.3288 30.3448 14.6612 30.2337 14.6428 30.1589C14.563 29.8348 14.0495 30.1742 13.9665 29.8609C13.949 29.7957 14.1876 29.6498 14.2044 29.622C14.4719 29.1908 13.8477 29.4904 13.807 29.4618C13.2941 29.1248 13.6628 28.418 13.2891 28.027C13.2432 27.979 13.0281 28.2938 12.9162 28.1456C12.1682 27.1579 11.6542 25.9145 11.4919 24.6883C11.4662 24.4978 11.7603 24.5306 11.7864 24.5078C12.1967 24.1555 11.5181 24.2767 11.4729 24.2258C11.1371 23.8275 11.5581 23.2452 10.6906 23.1469C10.4694 21.4985 10.0084 19.8842 10.2758 18.2391C10.3419 17.8356 10.4521 17.444 10.621 17.0581C10.6311 17.0335 10.9625 17.1002 10.9811 17.0516C11.2134 16.4713 10.6863 16.5525 10.0981 16.0667C9.95109 15.9399 10.7553 15.7272 10.815 15.712C11.0346 15.6441 11.5138 15.8154 11.5582 15.7889C11.9089 15.579 10.2712 15.3686 10.3368 14.9866C10.3415 14.9754 10.6317 15.0775 10.6669 15.0516C10.7773 14.9721 10.6765 14.8547 10.7973 14.7807C11.0774 14.6109 11.8741 14.7087 11.4904 14.2939C11.4413 14.2399 10.5129 14.0925 10.6375 13.7702C10.6855 13.6431 10.8301 13.0561 10.9393 12.9144C11.0461 12.7719 11.3005 12.9707 11.3166 12.9628C11.8288 12.6612 11.9366 12.8717 12.5624 12.8584C13.1849 12.8543 11.8417 12.4502 11.7239 12.3131C11.6062 12.1753 12.027 11.9856 12.1617 11.9562C12.2963 11.9252 12.4403 12.0838 12.5252 12.0439C13.0823 11.7853 11.9523 11.601 11.804 11.3742C11.4604 10.8263 12.5325 10.9767 12.7604 10.7357C12.8232 10.6685 12.5785 10.6308 12.5931 10.5498C12.6563 10.2277 13.0282 10.212 12.9363 9.75798C12.9198 9.68622 12.521 9.11747 13.0152 9.18305C13.0857 9.19374 13.2711 9.38918 13.3887 9.30429C13.5642 9.17752 13.7992 8.90697 13.8436 8.68238C13.8766 8.51567 13.4199 8.43206 13.6419 8.33755C13.7407 8.29666 13.857 8.57143 14.0241 8.48499C14.1897 8.39901 14.4209 8.05342 14.5095 7.92134C14.5968 7.78907 14.2859 7.66459 14.2759 7.64139C14.2219 7.50345 14.29 7.15883 14.3083 7.13717C15.1583 5.99572 16.4461 5.47332 17.3602 4.4978C17.4335 4.42091 17.1647 4.19906 17.1737 4.18458C17.3719 3.84367 17.712 4.73275 18.0915 4.82147C17.6384 4.29625 17.8307 4.3039 17.9881 4.09209C18.0639 3.98964 17.8515 3.81307 17.8441 3.78438C17.7528 3.34537 18.1678 3.69682 18.2552 3.76685C18.5808 4.02162 18.4205 3.56359 18.638 3.73596C18.8517 3.90876 18.9204 4.33231 19.1108 4.19807C19.029 3.95443 18.5184 3.51568 18.615 3.32502C18.988 2.58592 20.4176 2.37729 20.9423 2.20242C21.4726 2.01383 21.6245 1.90507 21.9596 1.8659C22.5653 1.80421 22.1928 1.43324 22.4721 1.09853C22.7588 0.766668 22.9626 1.94884 23.0938 2.17267C23.2213 2.39816 23.1901 2.13275 23.2921 2.24661C23.3928 2.36096 23.3221 2.5655 23.4724 2.57226C23.62 2.57871 23.8606 2.03609 23.8426 1.7659C23.7985 1.19368 23.4588 0.671488 23.9094 0.766392C23.935 0.772464 23.9408 1.09252 24.0345 1.10066C24.7686 1.15758 25.4782 1.03524 26.1839 1.15533C26.2804 1.17247 26.2429 1.52658 26.2987 1.54063C26.8757 1.69368 26.6082 1.1388 26.8653 0.461945C26.8743 1.32853 27.0899 1.83447 27.4982 1.81456C27.7468 1.80416 27.6834 1.43057 27.8388 1.15838C27.8863 1.07623 28.0746 1.32975 28.1032 1.15208C28.2017 0.571648 28.0118 -0.0767674 28.4819 0.177923C28.4821 0.17803 28.4823 0.178136 28.4825 0.178243C28.4898 0.182571 28.4863 0.224783 28.4819 0.278476C28.4762 0.349105 28.469 0.439599 28.4819 0.489842C28.4871 0.509754 28.4953 0.523346 28.5081 0.526894C28.9541 0.656104 29.0191 0.0506623 29.5234 0.00239646C29.9227 -0.0355175 30.5771 0.397911 30.9958 0.520539C30.8556 1.47981 31.265 1.31582 31.5456 0.686907C31.8184 0.76184 32.124 0.784159 32.37 0.934111C32.4542 0.985372 32.3323 1.24585 32.3371 1.27805C32.4015 1.78084 32.665 1.17572 32.7315 1.16585C33.4341 1.0865 33.7912 1.71153 34.5366 1.46689C34.5624 1.45789 34.8302 0.83742 34.8198 1.35889C34.8171 1.39422 34.5169 1.6087 34.7837 1.73473C35.0547 1.86217 35.4132 2.40172 35.908 2.28994C36.0259 2.26159 36.4967 1.88011 36.4871 2.35454C36.4848 2.41842 36.3717 2.57779 36.357 2.69094C36.3089 3.05102 36.6839 2.47804 36.5406 3.05707C36.3974 3.6366 36.4255 4.14304 36.957 3.99498C36.9729 3.991 37.3301 3.57518 37.4336 3.64888C37.5975 3.76569 37.7743 4.01297 37.9474 4.12554C38.0307 4.1794 38.1659 3.86624 38.1837 3.87082C38.8549 4.1016 39.0728 4.63953 39.5362 5.19915C39.6185 5.29994 40.2131 5.21241 40.1574 5.65524C40.0894 6.13555 38.763 7.13857 39.4515 7.26507C39.7162 7.30795 41.4711 6.11665 40.9794 7.19258C41.7754 7.69089 41.8247 8.67292 42.619 9.20185C42.6543 9.22539 43.216 9.02282 43.2613 9.11136C43.3269 9.24199 43.1341 9.4502 43.1703 9.54622C43.3153 9.95192 43.706 10.1826 43.8597 10.5706C43.9177 10.7171 43.6412 10.7925 43.7067 10.9646C43.7708 11.1352 44.1609 11.0937 44.0993 11.3978C44.0516 11.6294 43.4239 12.0915 43.4279 12.3418C44.1261 12.0752 44.1758 12.2376 44.4657 12.4578C44.5217 12.5003 44.745 12.3524 44.7842 12.3681C44.9498 12.4322 44.7815 12.6044 44.9549 12.6612C44.9967 12.6753 45.2391 12.5951 45.287 12.6026C45.706 12.6666 45.2523 13.1438 45.17 13.2195C44.8635 13.5203 45.2074 13.517 45.1042 13.7065C44.9996 13.8928 44.7603 13.7227 44.7182 13.916C44.6302 14.3126 44.7721 14.7502 44.8279 15.1107C44.8516 15.2539 45.1684 15.0943 45.1796 15.1133C45.3217 15.4028 45.009 15.7594 45.7046 15.8353C43.9925 16.2802 45.9012 15.9962 45.6003 16.4882C45.5756 16.5267 44.7537 16.6487 44.6195 16.5352C44.4855 16.4227 44.721 16.1999 44.5089 16.0503C44.4592 16.012 43.6562 15.8961 43.6049 15.8756C43.2043 15.6995 44.4197 15.4567 44.4846 15.4302C45.1825 15.1478 44.3013 15.0085 44.2296 14.9511C43.8992 14.6661 44.0003 14.3454 43.7422 14.1147C43.5745 13.9648 42.7879 14.171 42.7735 14.0323C42.7243 13.5811 43.7365 13.0353 42.659 12.9519C42.4285 12.9359 41.6349 13.3414 42.166 12.7837C42.2008 12.7511 42.6966 12.2739 42.2663 12.2982C42.2123 12.3018 41.975 12.4052 41.9458 12.3925C41.7547 12.3064 41.9001 12.127 41.7382 12.0144C41.5766 11.9026 41.3561 11.788 41.346 11.5782C41.3403 11.4528 41.6936 11.0919 41.7686 10.9832C41.9868 10.6732 41.4146 10.7964 41.7195 10.5023C42.0221 10.2006 42.6742 10.0674 42.7545 9.67934C42.1724 10.0163 41.569 10.3524 40.9826 10.6897C40.7113 10.1958 40.5709 9.60717 40.1923 9.1674C40.1451 9.11383 39.9044 9.393 39.8473 9.34268C39.6092 9.13262 39.6291 8.75411 39.3322 8.57472C39.1013 8.43694 38.6344 8.49933 38.3869 8.38748C38.8217 7.73196 38.3486 7.63752 38.1839 7.39749C38.1251 7.31243 38.2662 7.16304 38.2556 7.06444C38.209 6.69564 37.8635 7.29668 37.7385 7.33035C37.2102 7.48324 38.1664 6.27512 37.8249 6.05773C37.8051 6.04376 37.1124 6.54915 37.058 6.57321C36.6916 6.71808 37.1987 6.322 37.125 6.19388C36.9901 5.96107 36.9526 5.69692 36.5767 5.73868C36.4645 5.75049 36.0274 6.07841 36.0959 5.65766C36.1045 5.60228 36.2551 5.37644 36.2482 5.35376C36.1081 4.96139 35.6697 5.69449 35.3806 5.86249C35.0935 6.03173 35.1388 5.3911 35.163 5.21344C35.2319 4.75588 35.3497 5.09859 35.3762 5.06443C35.6992 4.65574 35.475 4.63658 35.3513 4.52647C35.7065 3.76939 35.4709 3.70971 35.2209 4.41558C35.1936 4.4925 35.3397 4.47775 35.3513 4.52647C34.8555 5.19485 34.6219 5.19701 34.6928 4.38911C34.7238 4.01052 35.0044 3.67351 34.5773 3.6583C34.3844 3.65313 34.2297 4.21155 34.0311 4.30068C33.5844 4.50685 33.3511 3.85438 32.9757 3.82677C32.8431 3.81791 32.8701 4.15578 32.7778 4.16075C32.5355 4.17639 32.4028 3.89384 32.1466 3.95309C32.1238 3.95901 32.0907 4.29071 32.0218 4.27756C31.4998 4.18624 31.0842 3.88829 30.5246 3.80281C30.2541 3.76044 29.7542 3.89101 29.4796 3.83755C29.1697 3.77655 28.821 3.55109 28.4819 3.43586C28.2957 3.37198 28.1177 3.34151 27.9676 3.38811C27.6931 3.47314 27.7707 3.80096 27.6677 4.03113C27.4781 4.47633 27.0335 3.7336 26.9606 3.62059C26.9583 3.61641 27.1866 3.51665 27.0445 3.36008C26.9359 3.01621 26.9626 3.61887 26.9606 3.62059C26.9176 3.5447 26.4345 3.52737 26.3508 3.60529C26.3053 3.6467 26.3787 3.95171 26.3546 3.96741C25.7816 4.33498 25.2243 4.53571 24.5894 4.56375C24.5771 4.56067 24.4976 4.21999 24.4695 4.21711C24.0719 4.16992 23.9714 4.65307 23.7838 4.98815C23.5946 5.32455 23.3632 5.3252 22.9701 4.83822C22.7908 4.9929 22.3869 4.88261 22.1435 4.82055C21.8995 4.75848 22.175 5.3821 22.1669 5.40087C21.9094 6.01058 21.4819 5.80111 20.9939 6.02643C20.7624 6.13117 20.4006 6.48935 20.2271 6.70793C20.0904 6.88023 19.8918 6.82989 19.7982 7.03109C19.7857 7.05808 19.9926 7.28085 19.9934 7.29499C20.0496 7.71108 19.6716 7.06704 19.5538 6.99149C19.1253 6.7186 18.8725 6.5924 18.7953 6.95602C18.7746 7.04178 19.3348 7.96817 19.2959 8.08801C19.2402 8.24587 19.0225 7.92676 18.9702 8.10212C18.9656 8.1169 19.1288 8.28667 19.0526 8.34477C18.7015 8.6165 18.2639 8.87702 17.9779 9.24764C17.9385 9.29731 18.2749 9.47902 18.2241 9.55342C17.9859 9.90224 17.6996 10.2524 17.3208 10.4911C17.2265 10.5495 17.0474 10.3484 16.9707 10.3226C16.5018 10.1735 16.9593 10.7212 16.9547 10.7526C16.8253 11.5586 16.0021 11.7743 15.9409 12.6188C15.9363 12.6695 16.4854 13.2435 15.8522 13.1366C15.8106 13.1277 15.1573 13.0289 15.5214 13.3084C15.5445 13.3252 15.8848 13.3607 15.7989 13.4928C15.7121 13.6279 15.8402 13.9272 15.4293 14.0177C15.3004 14.0439 14.6356 14.0175 15.0683 14.3617C15.0961 14.3917 16.1309 14.9847 15.3337 14.8888C15.2026 14.8731 14.3868 14.65 14.7491 14.9956C14.8201 15.0606 15.0224 15.0214 15.1095 15.1667C15.2448 15.3862 14.9728 15.5852 15.3034 15.8743C15.3615 15.927 15.8994 16.1778 15.4506 16.2397C15.3802 16.25 15.1075 16.1683 15.0658 16.234C14.8662 16.5498 15.0144 16.9258 14.7959 17.2565C14.7191 17.3757 14.2687 17.2816 14.1388 17.4095C14.0087 17.5373 13.8808 17.8099 14.0868 17.9569C14.2928 18.1009 15.0203 17.9622 15.0765 18.1624C15.0838 18.188 15.0906 18.2136 15.0969 18.2391C15.3038 19.0642 14.9759 19.9082 15.0724 20.7607C15.0874 20.8889 15.322 20.7364 15.3632 20.9178C15.5104 21.6036 16.0817 22.6269 15.809 23.3897C15.5914 24.0173 15.0362 23.5629 15.023 23.995C15.0219 24.2109 15.8759 24.0477 15.9173 24.0734C16.342 24.3437 16.1457 24.775 16.4387 25.0611C16.4989 25.1187 16.7574 24.8816 16.8047 24.9311C16.9681 25.0965 16.9615 25.3789 17.1034 25.5475C17.1676 25.6223 17.3766 25.4643 17.408 25.5488C17.4867 25.7493 17.5022 25.9641 17.4286 26.279C17.4224 26.3084 17.0811 26.3919 17.1684 26.532C17.3092 26.7558 17.3282 27.1733 17.7189 27.2505C17.8361 27.273 18.29 26.8864 18.1036 27.3005C18.0648 27.3866 17.4935 27.8244 18.1086 27.5826C18.2148 27.5482 19.0702 27.2431 18.8097 27.7442C18.741 27.8767 18.4156 28.3816 18.5608 28.3944C18.5816 28.3941 18.7636 28.1238 18.8496 28.1639C19.1481 28.3078 19.3686 28.5539 19.6791 28.6844C19.7618 28.718 19.8794 28.3836 19.9941 28.44C20.3081 28.5936 20.5896 28.9153 20.8055 29.1929C20.8846 29.2957 20.6575 29.4724 20.6475 29.5019C20.4939 29.9879 20.9392 29.4954 20.9989 29.4892C21.3739 29.4631 21.4026 29.8439 21.6859 29.9153C21.763 29.9351 21.8732 29.6369 21.9004 29.6204C22.1695 29.4605 21.7897 29.891 21.8458 29.9943C22.0042 30.2859 22.2991 30.4122 22.5736 30.5C22.6743 30.5316 22.7264 30.1539 22.8132 30.1849C23.3286 30.3611 23.8277 30.5984 24.2711 30.9557C24.3548 31.0236 24.2078 31.2696 24.2082 31.3369C24.2151 31.8096 24.608 31.2914 24.6683 31.2482C24.9557 31.0555 24.972 31.3157 25.1759 31.32C26.1587 31.3376 27.2876 31.6465 28.2109 31.7598C28.3023 31.7715 28.3926 31.7832 28.4819 31.7945C29.5503 31.927 30.4756 32.0493 31.5141 31.7574C31.5851 31.7373 31.4315 31.3906 31.4902 31.3688C32.2432 31.1053 33.0377 31.0003 33.7338 30.5875C33.7905 30.5544 33.5665 30.2668 33.6506 30.2034C33.8218 30.0712 34.0659 29.9791 34.307 29.9846C34.4247 29.9864 34.4336 30.3203 34.5511 30.3156C34.8262 30.3042 35.0798 30.1959 35.2761 30.0169C35.3584 29.9404 35.0356 29.711 35.1543 29.637C35.96 29.1202 36.6465 28.5377 37.6844 28.2171C37.7548 28.1956 38.3014 28.6888 38.3144 28.4817C38.1817 28.3271 38.0153 28.1551 37.8679 27.9951C38.8011 26.9343 39.8554 25.9686 40.5773 24.7101C40.607 24.6579 40.2162 24.5653 40.2708 24.465C40.5869 23.878 40.7388 23.2676 41.3301 22.7507C41.3881 22.6987 42.0228 22.9571 41.9923 22.723C41.987 22.6818 41.9962 22.3514 41.8757 22.2328C41.8573 22.2162 41.536 22.1782 41.5547 22.0819C41.6689 21.5215 41.8685 20.9673 42.1513 20.4261C42.1975 20.3384 42.5175 20.4901 42.5535 20.4268C42.8066 19.9701 42.6022 19.4211 42.9325 18.9697C43.1539 18.6638 43.7351 18.803 44.3182 18.638C44.4007 18.6142 44.4171 18.3996 44.7531 18.3905C45.5988 18.3661 46.5233 18.4918 47.4249 18.454C47.6198 18.4457 47.4115 18.0978 47.8801 18.3048C47.9118 18.3192 48.065 18.5757 48.2224 18.6431C48.3314 18.6901 48.675 18.6157 48.8138 18.7115C48.9523 18.8084 48.6631 18.9016 48.8224 19.0608C48.983 19.2221 49.3762 19.1687 49.4044 19.4901ZM21.0283 4.582C20.7046 4.38743 21.2682 5.44312 21.2979 5.0996C21.2987 5.08178 21.0444 4.59146 21.0283 4.582ZM41.2967 9.08963C41.5779 8.57632 40.8526 8.90463 40.6272 9.28391C40.396 9.65605 41.2087 9.24204 41.2967 9.08963ZM42.9558 11.1118C43.193 10.6556 41.666 11.3966 42.1044 11.505C42.1292 11.5115 42.9417 11.1378 42.9558 11.1118ZM44.4387 19.5004C44.455 19.4991 44.4817 19.345 44.4661 19.3401C44.0928 19.2338 44.0403 19.5342 44.4387 19.5004ZM44.3138 13.4044C44.5061 13.246 44.1693 13.0645 43.9338 13.2644C43.744 13.4219 44.0743 13.5977 44.3138 13.4044ZM13.2909 10.98C13.2734 10.9751 13.2087 11.074 13.301 11.1147C13.598 11.2455 13.5837 11.0628 13.2909 10.98ZM45.0466 17.8686C45.093 17.2152 46.4542 16.6649 46.3414 17.4665C46.3192 17.6074 45.8807 17.1854 45.7631 17.3696C45.5481 17.6935 46.4334 17.8918 45.9627 18.233C45.8772 18.2889 45.0418 17.902 45.0446 17.8675C45.0453 17.8678 45.0459 17.8682 45.0466 17.8686ZM20.2358 3.37801C20.2245 3.36598 20.0743 3.43326 20.0788 3.449C20.1912 3.82163 20.4869 3.68996 20.2358 3.37801ZM10.9238 17.5311C10.8888 17.5385 10.8462 17.9307 10.878 17.9444C11.4936 18.1521 11.58 17.3888 10.9238 17.5311ZM30.9989 0.547119C31.2366 0.194479 31.4801 0.187835 31.5448 0.68628C31.3659 0.629401 31.1801 0.596408 30.9989 0.547119Z" fill="black"/>
</svg>
