<svg width="63" height="129" viewBox="0 0 63 129" fill="none" xmlns="http://www.w3.org/2000/svg">
<path d="M28.4316 41.7677C-17.1467 45.0857 7.77183 97.9886 17.8532 126.989C19.6924 122.562 24.5263 131.026 29.8533 124.739C28.3533 103.739 31.0344 98.604 36.8504 102.239C44.8504 107.239 31.2021 118.57 35.3533 124.739C39.8561 129.239 43.8533 126.989 49.3533 124.739C40.3533 91.2391 92.4021 37.1107 28.4316 41.7677Z" fill="white"/>
<path d="M13.1906 125.679C12.5509 124.202 11.9051 122.116 11.4825 120.527C11.3474 120.023 11.6374 120.197 11.5525 119.844C11.3843 119.15 11.0703 118.6 10.9224 117.915C10.8748 117.689 11.2884 117.84 11.2312 117.605C10.9112 116.309 10.407 115.188 10.0136 113.906C8.08501 107.605 6.04304 101.456 4.284 94.9765C3.70268 92.8399 3.28278 90.1658 2.60886 87.9751C2.52936 87.718 2.28126 87.9437 2.24546 87.8998C1.69409 87.2071 2.33568 87.3263 2.29184 86.8007C2.12069 84.7263 1.67654 82.469 1.2206 80.5092C1.0274 79.6771 0.593411 80.6182 0.775195 79.7158C0.787429 79.6535 1.13139 79.8152 1.12644 79.58C1.11339 79.0463 0.909542 78.0747 0.876722 77.6535C0.816221 76.857 0.796547 76.7277 0.71016 75.9855C0.597775 74.9844 0.63131 73.7272 0.486526 72.6428C0.454651 72.4102 0.155069 72.7419 0.0759556 72.3714C-0.00444078 72.0067 -0.0274965 70.9935 0.0385498 70.6499C0.102772 70.3074 0.359948 70.4446 0.415761 70.3829C0.884921 69.8796 0.200125 68.7494 0.186744 68.5986C-0.0803907 65.8377 0.498899 63.5201 0.990871 60.9674C1.3604 59.051 1.84632 56.9559 2.63018 55.1873C3.55835 53.104 4.71753 51.504 6.0957 49.7636C6.24425 49.5794 5.7752 49.5535 5.95976 49.3258C7.90945 46.9233 10.4743 45.0198 13.2576 43.8662C13.543 43.7476 13.3436 44.2232 13.6357 44.1244C15.3539 43.5171 18.1806 43.207 18.7964 41.5496C20.0422 41.2417 21.4413 40.9811 22.5739 41.0641C23.3022 41.1199 22.6893 41.5961 23.5181 41.2949C23.707 41.2284 23.4004 40.959 23.6903 40.8831C24.8917 40.5688 26.1454 40.5179 27.3701 40.2446C27.6169 40.1887 27.5248 39.9127 27.5918 39.8557C27.7808 39.7014 28.0275 39.6658 28.2803 39.6895C28.7833 39.7367 29.2923 40.0186 29.4375 40.0426C31.0952 40.31 32.2255 40.1168 33.6344 40.0909C33.9597 40.0859 33.5667 39.714 33.8798 39.6958C35.6653 39.6033 37.4939 39.6562 39.0688 39.8983C39.4337 39.954 39.0735 40.2613 39.2571 40.3051C40.0809 40.498 40.3003 39.899 41.0659 40.0891C41.226 40.1289 41.1125 40.3982 41.1396 40.4309C41.5583 40.944 42.0049 40.3063 42.1238 40.3029C43.5577 40.2415 44.4976 41.0791 45.919 41.2351C46.0898 41.2541 45.7732 40.8374 46.2507 40.913C49.4381 41.4205 52.8841 42.6162 55.4987 44.7811C55.8923 45.1116 55.44 45.115 55.4487 45.1607C55.5672 45.8688 56.209 45.5151 56.3764 45.617C57.5883 46.3683 57.936 47.6177 59.1465 47.8877C62.4811 52.8199 62.7676 58.9266 61.3471 64.0023C61.3294 64.0676 61.0144 63.9019 60.9805 64.0317C60.5558 65.5918 61.1051 65.4015 61.5449 66.5565C61.6541 66.8511 60.7393 67.5074 60.6688 67.5655C60.412 67.7822 59.9789 67.4135 59.9217 67.4918C59.4637 68.1362 61.1027 68.3681 60.8819 69.3514C60.8725 69.3803 60.6049 69.1887 60.5574 69.2613C60.4089 69.4862 60.4693 69.7585 60.3102 69.977C59.9418 70.4781 59.1185 70.4792 59.3546 71.4455C59.3849 71.5694 60.337 71.6317 60.0676 72.4885C59.9637 72.8211 59.5752 74.3091 59.3954 74.7159C59.2187 75.1193 59.01 74.749 58.989 74.7755C58.2847 75.795 58.2447 75.3298 57.518 75.7193C56.7934 76.1047 58.1831 76.3463 58.2668 76.6167C58.3503 76.8872 57.7921 77.6094 57.6217 77.7776C57.4518 77.9454 57.3438 77.6398 57.2281 77.7996C56.465 78.8619 57.7365 78.5222 57.8302 78.9792C58.0522 80.0568 56.8417 80.4498 56.4826 81.2587C56.3855 81.4773 56.6694 81.3628 56.6273 81.5715C56.4573 82.3983 55.9957 82.7843 55.9954 83.7747C55.9951 83.9369 56.3605 84.8567 55.773 85.194C55.6887 85.2414 55.5019 84.9721 55.3393 85.295C55.0955 85.7783 54.7536 86.6758 54.6662 87.2448C54.6016 87.6657 55.1532 87.3326 54.8684 87.7989C54.7416 88.0061 54.6334 87.5146 54.4151 87.9105C54.1973 88.304 53.8736 89.3855 53.756 89.7992C53.6389 90.2107 54.0173 90.0817 54.028 90.1212C54.086 90.3576 53.9968 91.187 53.9757 91.2562C52.9588 94.7575 51.5121 97.8615 50.8808 101.358C50.8309 101.633 51.2058 101.529 51.2016 101.571C51.1283 102.532 50.4101 101.597 49.9664 102.184C50.6642 102.24 50.454 102.598 50.3891 103.268C50.3588 103.591 50.6578 103.475 50.6785 103.509C50.9798 104.057 50.3999 104.274 50.2774 104.337C49.8262 104.573 50.2193 105.005 49.9191 105.168C49.6206 105.333 49.3301 104.767 49.2155 105.408C49.4267 105.631 50.1507 105.279 50.1659 105.778C50.2086 107.64 49.2641 110.938 49.1243 112.421C48.9676 113.891 49.0071 114.347 48.8984 115.207C48.7246 116.762 49.2107 116.194 49.4497 117.132C49.7033 118.063 48.5062 117.659 48.2569 117.807C48.0092 117.956 48.2782 118.091 48.1486 118.27C48.0194 118.452 47.8239 118.085 47.7966 118.498C47.7657 118.917 48.3194 119.987 48.6028 120.093C49.198 120.325 49.7225 119.781 49.6467 120.822C49.6425 120.883 49.308 120.734 49.3078 120.963C49.3155 122.179 49.5002 123.428 49.738 124.636L49.8352 124.962L49.5041 125.108C48.9025 125.308 48.3018 125.508 47.6987 125.683C47.4519 125.753 47.529 125.346 47.3843 125.384C45.8699 125.769 46.6105 126.096 46.042 127.016C45.9097 126.137 45.2849 125.837 44.2009 126.19C43.546 126.392 43.7692 126.715 43.3925 127.091C43.2772 127.206 42.7329 127.062 42.6777 127.25C42.4786 127.865 43.1041 128.462 41.7234 128.364C41.6646 128.357 41.8204 128.025 41.621 128.022C40.3459 127.945 40.1371 128.577 38.6201 128.27C37.3933 128.019 35.838 126.573 35.0392 125.679C35.3195 125.394 35.3225 125.128 35.1768 124.916L35.1461 124.879C34.9914 124.537 34.5686 124.217 34.0945 124.058C33.8109 123.233 33.6867 122.293 33.827 121.507C33.8753 121.24 34.1445 121.437 34.1768 121.405C34.6864 120.961 34.1022 120.555 34.1075 120.376C34.2244 118.492 35.2638 117.325 35.4832 115.601C35.4911 115.541 34.914 115.177 35.5476 114.967C35.5904 114.954 35.6437 115.583 35.9877 114.877C36.3316 114.171 37.2839 112.986 37.4172 111.875C37.4523 111.603 37.194 110.803 37.771 110.48C37.8493 110.436 38.0037 110.575 38.1397 110.518C38.5769 110.323 37.9911 109.939 38.6591 109.758C39.3201 109.579 40.0232 108.856 39.7808 107.64C39.7738 107.598 39.2727 107.275 39.2947 106.949C39.3398 106.411 39.3812 105.626 39.1962 105.073C39.1096 104.813 38.8466 105.089 38.8262 105.046C38.2894 103.948 37.671 103.186 36.7295 102.433C36.35 102.14 35.9584 101.863 35.4632 101.62C35.1122 101.441 34.1138 101.595 33.4734 101.357C33.087 101.22 32.9382 100.75 32.6565 100.405C32.4166 100.077 31.7171 99.8672 30.8814 100.91C30.1799 101.874 31.6243 103.589 30.2263 104.381C29.7354 106.866 29.0231 109.122 29.2802 111.66C29.2918 111.784 29.8611 112.145 29.8455 112.406C29.8211 112.79 29.544 113.016 29.5211 113.288C29.419 114.444 29.6576 115.537 29.6426 116.648C29.6383 117.076 29.353 116.931 29.3504 117.452C29.3488 117.966 29.729 118.277 29.5765 118.988C29.4606 119.526 28.7245 120.056 28.6717 120.775C29.4204 120.772 29.4269 121.237 29.6728 122.072C29.7205 122.233 29.9701 122.043 30.0061 122.118C30.1581 122.422 29.9617 122.745 30.1253 123.019C30.1648 123.087 30.4198 123.074 30.4665 123.13C30.8726 123.595 30.3573 124.468 30.2683 124.623C30.2503 124.654 30.2343 124.684 30.22 124.713L30.2337 124.852L30.1338 124.977C29.5743 125.181 29.6255 125.543 29.2198 125.732C28.811 125.901 29.1392 125.354 28.7298 125.598C27.8696 126.121 26.8032 126.709 25.8383 126.775C25.4588 126.805 25.7401 127.123 25.6867 127.135C24.8171 127.281 24.0727 126.738 23.4331 127.262C23.3742 125.41 22.8782 127.289 21.835 126.511C21.7567 126.449 21.9481 125.633 22.3309 125.652C22.7096 125.669 23.1262 126.105 23.6351 126.057C23.7702 126.056 24.5248 125.438 24.5824 125.393C25.1493 125.115 25.1359 126.328 25.1816 126.403C25.3596 126.779 25.6779 126.746 25.9213 126.586C26.1642 126.429 26.3282 126.156 26.4028 126.105C27.0992 125.635 27.7572 125.385 28.1855 124.752C28.457 124.332 27.8889 123.741 28.139 123.501C28.1784 123.462 28.2187 123.425 28.2598 123.389L27.77 124.888C27.8406 123.533 28.7938 122.984 27.7831 121.71C27.558 121.424 26.6857 121.783 27.3289 120.669C27.3691 120.597 27.9701 119.776 27.5491 119.351C27.496 119.297 27.2373 119.307 27.2126 119.231C27.0518 118.717 27.246 118.369 27.1314 117.828C27.0165 117.275 26.8541 116.598 26.9342 115.971C26.9814 115.575 27.4612 115.081 27.5792 114.902C27.918 114.408 27.3653 113.814 27.782 113.51C28.2011 113.199 28.8183 113.829 29.1013 113.003C28.4297 112.957 27.7412 112.868 27.0663 112.8C27.137 110.917 27.4583 109.058 27.7081 107.129C27.7409 106.88 27.3448 107.081 27.3723 106.809C27.4937 105.695 27.9398 104.755 28.2512 103.51C28.5124 102.543 28.6002 101.246 29.6214 99.9869C30.2184 99.9145 30.9132 99.4306 31.8443 99.0844C32.7682 98.7223 33.8643 98.6196 34.608 98.7644C35.1298 98.8676 35.0419 99.0694 35.3645 99.2168C36.4508 99.8098 36.1241 99.0114 36.4833 99.0245C37.5947 99.1343 37.5094 99.9596 37.8521 100.636C37.9969 100.902 38.1899 101.153 38.5034 101.387C38.5549 101.403 39.8904 101.507 40.0492 101.634C40.9769 102.213 39.9545 101.945 40.2845 102.471C40.854 103.486 40.9939 104.277 41.4406 105.495C41.5756 105.833 42.1421 106.76 41.682 107.413C41.6232 107.496 41.357 107.425 41.3351 107.492C40.9342 108.664 41.7297 108.823 41.8529 109.578C41.9624 110.343 41.0739 111.116 40.8484 111.233C40.2603 111.569 40.806 110.799 40.7708 110.757C40.3885 110.286 40.2535 110.977 40.0247 111.448C39.2191 111.222 39.0051 111.894 39.7905 111.933C39.8777 111.935 39.953 111.531 40.0247 111.448C40.6306 112.165 40.4101 112.985 39.3644 113.452C38.8737 113.671 38.6463 113.162 38.2931 114.311C38.1325 114.829 38.7416 114.88 38.688 115.375C38.5653 116.502 37.5185 117.521 37.2366 118.523C37.1353 118.886 37.5562 118.653 37.4999 118.901C37.3607 119.54 36.9659 120.021 36.9584 120.627C36.9586 120.681 37.3068 120.625 37.275 120.8C37.0783 122.006 36.9819 122.726 37.3671 123.384L37.0691 123.022C37.1539 123.111 37.2394 123.196 37.3259 123.278C37.8452 123.793 38.8871 124.282 39.3908 124.487C40.2111 124.926 41.5939 125.373 42.721 124.957C43.4249 124.698 43.1755 124.414 43.414 124.108C43.8527 123.522 45.2335 123.82 45.4426 123.864C45.4473 123.867 44.8097 124.2 45.2275 124.219C45.5636 124.466 45.4362 123.868 45.4426 123.864C45.5665 123.902 46.9604 123.406 47.2174 123.229C47.3545 123.134 47.1498 122.881 47.2239 122.837C47.5818 122.626 47.9466 122.421 48.3242 122.223L46.728 125.444C46.1209 123.794 45.7779 122.023 45.71 120.275C45.7122 120.235 46.0658 120.256 46.0668 120.165C46.094 118.892 45.6264 118.115 45.3422 117.08C45.0617 116.044 45.1606 115.188 45.777 114.598C45.7205 113.827 46.048 112.732 46.2592 112.111C46.4692 111.491 45.8027 111.342 45.7938 111.284C45.5286 109.513 46.0479 108.533 46.3852 106.777C46.5443 105.947 46.7527 104.258 46.8668 103.344C46.9527 102.625 47.2002 102.232 47.2452 101.559C47.2516 101.468 46.9362 101.491 46.9308 101.461C46.7416 100.651 47.385 101.166 47.5479 101.045C48.1413 100.61 48.4678 100.332 48.4705 99.3681C48.4713 99.1464 47.5907 98.2713 47.6303 97.8668C47.6832 97.3433 48.0038 97.6291 48.0518 97.0796C48.0563 97.0326 47.8255 96.9821 47.9217 96.6595C48.3645 95.1647 48.9541 93.581 49.3845 92.0346C49.4441 91.824 49.006 91.9878 49.0864 91.6813C49.4646 90.2428 49.9516 88.6971 50.5461 87.3742C50.6934 87.0496 50.8775 87.3391 50.9745 87.2889C51.5634 86.9792 51.1099 86.1405 51.1303 86.0318C51.6023 83.4284 52.7995 81.7168 53.3019 79.1016C53.3289 78.9571 52.9493 77.7011 53.6958 77.4035C53.7456 77.3836 54.5037 77.0997 54.2062 76.5611C54.1875 76.5278 53.7839 76.7222 53.9674 76.2265C54.1521 75.7264 54.1729 74.8752 54.7244 74.2708C54.898 74.0811 55.6663 73.7278 55.3552 72.9355C55.3345 72.8795 54.492 71.5778 55.3539 71.4324C55.4954 71.4091 56.2976 71.6856 56.0838 70.7829C56.0411 70.6114 55.7892 70.8375 55.7761 70.4127C55.7543 69.7637 56.1678 69.0229 55.965 68.2196C55.9291 68.079 55.4951 67.3994 56.0117 67.056C56.0927 67.0016 56.341 67.1903 56.4205 66.9651C56.7982 65.8988 56.8213 64.7308 57.1762 63.6495C57.2998 63.2706 57.7231 63.5331 57.8992 63.1422C58.0748 62.7622 58.2877 61.9257 58.1166 61.4742C57.9454 61.0287 57.1858 61.4272 57.1753 60.8019C57.1138 58.1071 57.3861 55.5691 56.6593 53.3428C56.5481 53.0176 56.408 53.3686 56.22 52.9167C55.5873 51.1824 53.4253 49.2585 52.2016 47.9994C51.1847 46.9158 52.9201 47.4997 52.0435 46.8109C51.6229 46.4882 50.7361 47.0138 50.6142 46.9902C49.3152 46.7242 48.6976 46.1347 47.4874 45.9203C47.2396 45.8793 47.3892 46.2723 47.1804 46.2348C46.4221 46.1008 45.8254 45.8174 45.138 45.7172C44.835 45.6751 44.845 45.9424 44.5689 45.8742C43.9233 45.7179 43.2291 45.5096 42.6569 45.1951C42.6006 45.166 43.0347 44.8903 42.5476 44.8204C41.7594 44.7092 40.7384 44.3741 39.7017 44.5629C39.4024 44.6209 39.3236 45.2127 38.7412 44.7733C38.6211 44.6825 38.812 43.9704 38.0903 44.5643C37.9685 44.6612 36.7673 45.4657 36.1599 44.9264C36.0015 44.7835 35.587 44.1955 35.219 44.2901C35.1694 44.3051 35.3701 44.6244 35.067 44.6578C33.9271 44.7722 33.0057 44.764 31.9319 44.9096C31.6519 44.9493 32.0851 45.2624 31.6675 45.3113C30.794 45.4145 29.7171 45.4439 28.6999 45.4529C28.3947 45.4544 28.1027 45.4544 27.8313 45.4537C27.4152 45.4527 27.6747 45.1529 27.6422 45.1258C27.1095 44.6867 26.895 45.3717 26.7449 45.4268C25.7893 45.7665 25.1155 45.5493 24.1849 45.7892C23.9411 45.8535 24.1704 46.1316 24.1261 46.1676C23.6714 46.5258 23.9462 45.905 23.6163 45.9025C22.676 45.9 21.802 46.1203 20.8969 46.4051C20.5782 46.5076 21.0347 46.7591 20.7512 46.8469C19.1166 47.3636 17.4585 47.9508 15.9699 48.4816C15.6749 48.5888 15.7218 48.2512 15.6344 48.2241C15.0171 48.0366 14.7444 48.8949 14.657 49.0165C14.2285 49.5831 13.9083 49.4976 13.4405 49.8778C11.2397 51.6423 8.97506 54.1483 7.76098 56.5707C6.17681 59.6823 5.35553 62.5489 5.17132 66.1815C5.16151 66.4105 5.54654 66.2025 5.54333 66.399C5.48894 68.97 5.44309 71.5179 5.81447 74.1623C5.84475 74.3798 6.16349 74.0311 6.22412 74.3761C6.34952 75.068 6.43942 75.9635 6.42895 76.7029C6.4246 77.0639 6.05834 76.6308 6.06062 76.9948C6.06721 77.85 6.17985 78.7197 6.38498 79.5669C6.47305 79.9253 6.73211 79.3163 6.81919 79.786C7.42185 82.9653 8.21179 86.0864 8.621 89.4177C8.64937 89.6468 7.99395 90.033 8.25945 90.4693C8.46539 90.451 8.69558 90.3856 8.90949 90.3434C10.2988 94.9459 11.5368 99.583 13.1017 104.209C13.1681 104.405 13.4176 103.94 13.5481 104.319C14.3029 106.503 15.1644 108.583 15.6096 110.931C15.6555 111.167 14.972 111.288 15.3089 111.908C15.369 112.018 15.8149 112.97 16.0468 113.17C16.0804 113.197 16.3143 112.909 16.4386 113.22C17.1616 115.047 17.802 116.985 18.3045 118.916C18.3836 119.224 17.9486 119.025 18.0021 119.245C18.3748 120.782 19.2291 122.37 19.4544 123.918C19.6087 124.97 18.9256 124.802 18.5628 125.509C18.512 125.61 18.7079 126.207 18.4007 126.347C17.6298 126.704 16.6567 126.726 15.8469 127.14C15.6731 127.23 16.14 127.936 15.5375 127.632C15.4971 127.611 15.1528 127.097 14.9529 127.009C14.8147 126.948 14.5541 127.238 14.3512 127.085C14.1483 126.933 14.341 126.618 14.066 126.339C13.7886 126.059 13.4761 126.34 13.1906 125.679ZM47.2584 109.376C47.6548 108.848 46.4803 108.604 46.6841 109.266C46.6955 109.299 47.2388 109.404 47.2584 109.376ZM28.4091 109.15C29.0042 108.442 28.2991 107.853 27.8317 108.339C27.3678 108.83 28.2288 109.376 28.4091 109.15ZM28.5973 116.903C28.9966 116.035 27.2985 115.924 27.6584 116.848C27.6789 116.902 28.5742 116.954 28.5973 116.903ZM17.5553 123.178C17.5431 123.191 17.681 123.619 17.6993 123.624C18.138 123.721 17.8619 122.864 17.5553 123.178ZM29.3833 124.484C29.5925 124.193 29.2769 123.44 29.0144 123.792C28.8027 124.074 29.1224 124.845 29.3833 124.484ZM55.9181 81.1073C55.9378 81.1041 56.0504 80.7969 55.9522 80.7733C55.6358 80.6978 55.5878 81.1591 55.9181 81.1073ZM18.0974 125.8C18.5233 125.369 19.1697 125.316 19.5233 125.466C19.8986 125.606 20.0959 125.845 20.1786 126.036C20.262 126.231 20.2193 126.388 20.0667 126.464C19.923 126.544 19.642 126.534 19.3907 126.53C19.3067 126.532 19.3557 126.4 19.488 126.27C19.6084 126.142 19.7931 126.022 19.584 125.947C19.1946 125.819 18.9166 126.107 18.826 126.369C18.7189 126.64 18.6786 126.882 18.3032 127.159C18.235 127.214 18.0994 126.92 18.0311 126.595C17.9654 126.25 18.0425 125.842 18.0989 125.796C18.0984 125.797 18.0979 125.799 18.0974 125.8ZM48.7253 109.232C48.7421 109.223 48.8169 108.775 48.8033 108.762C48.4598 108.466 48.3076 109.373 48.7253 109.232ZM61.1762 62.7595C61.2162 62.7358 61.3558 61.6613 61.324 61.626C60.7602 61.0203 60.4828 63.1545 61.1762 62.7595ZM35.043 125.647C34.8784 125.627 34.7219 125.581 34.5811 125.512L34.447 125.349C34.0493 125.026 33.8779 124.509 34.095 124.061C34.2262 124.467 34.4121 124.847 34.6459 125.215L34.7505 125.342C34.8485 125.446 34.9462 125.548 35.043 125.647Z" fill="black"/>
<circle cx="31.8505" cy="18.2391" r="17" fill="white"/>
<path d="M52.7729 19.4901C52.8368 20.2343 52.612 21.1922 52.3306 21.8842C52.2435 22.1009 52.0555 21.9488 51.9853 22.094C51.8478 22.375 51.8898 22.6763 51.7253 22.9461C51.6697 23.0346 51.3714 22.8378 51.3208 22.931C51.0461 23.4378 50.9847 23.9666 50.7397 24.4819C49.5342 26.9997 48.0545 29.2619 46.1158 31.1767C45.4745 31.8131 44.4891 32.3298 43.8674 33.004C43.7947 33.0835 44.0295 33.2725 44.029 33.3043C44.0078 33.7982 43.7205 33.2655 43.5085 33.3307C42.6652 33.5902 41.9123 34.0606 41.2871 34.5529C41.0208 34.7622 41.6035 35.1047 41.1435 34.9864C41.1122 34.9784 41.0343 34.6635 40.9379 34.6789C40.7206 34.7146 40.4002 34.9458 40.2445 34.995C39.9454 35.0886 39.9014 35.1129 39.6352 35.2323C39.268 35.393 38.7746 35.4312 38.402 35.6468C38.322 35.6939 38.549 35.9518 38.4292 36.0546C38.3095 36.1581 37.929 36.2618 37.7798 36.2302C37.6308 36.1993 37.6066 35.9418 37.5668 35.894C37.2416 35.4879 37.0208 36.2581 36.9643 36.2903C36.02 36.8508 35.0366 36.6489 34.0751 36.7658C33.3436 36.8555 32.5621 37.0248 31.8505 37.0089C31.8446 37.0088 31.8387 37.0087 31.8328 37.0085C30.9801 36.9837 30.2826 36.7634 29.4688 36.6913C29.3827 36.683 29.4354 37.0704 29.3285 37.0605C28.1917 36.9543 27.0703 36.6573 26.079 36.0686C25.9801 36.0092 26.2195 35.7388 26.1285 35.661C25.5538 35.1926 24.894 34.2116 23.9211 35.3436C23.5196 35.0965 23.0373 34.7815 22.8217 34.3253C22.6844 34.0319 23.085 33.846 22.7323 33.8195C22.6528 33.8126 22.5739 34.133 22.4655 34.1009C22.0061 33.9635 21.6368 33.6025 21.1666 33.4711C21.0703 33.4448 20.9275 33.6905 20.8759 33.7165C20.446 33.9191 20.5446 33.1396 20.5142 33.0528C20.2515 32.3833 19.826 32.2137 19.4077 31.8205C19.3116 31.7289 19.17 32.1158 19.0669 32.0362C18.535 31.6183 18.0659 31.0857 17.7635 30.4799C17.6973 30.3448 18.0298 30.2337 18.0113 30.1589C17.9316 29.8348 17.418 30.1742 17.335 29.8609C17.3175 29.7957 17.5561 29.6498 17.5729 29.622C17.8405 29.1908 17.2162 29.4904 17.1755 29.4618C16.6626 29.1248 17.0314 28.418 16.6577 28.027C16.6117 27.979 16.3967 28.2938 16.2847 28.1456C15.5367 27.1579 15.0228 25.9145 14.8604 24.6883C14.8347 24.4978 15.1288 24.5306 15.155 24.5078C15.5652 24.1555 14.8866 24.2767 14.8414 24.2258C14.5057 23.8275 14.9266 23.2452 14.0592 23.1469C13.8379 21.4985 13.3769 19.8842 13.6443 18.2391C13.7104 17.8356 13.8207 17.444 13.9896 17.0581C13.9996 17.0335 14.3311 17.1002 14.3497 17.0516C14.5819 16.4713 14.0548 16.5525 13.4666 16.0667C13.3196 15.9399 14.1238 15.7272 14.1836 15.712C14.4031 15.6441 14.8823 15.8154 14.9267 15.7889C15.2774 15.579 13.6397 15.3686 13.7053 14.9866C13.7101 14.9754 14.0002 15.0775 14.0354 15.0516C14.1458 14.9721 14.045 14.8547 14.1658 14.7807C14.446 14.6109 15.2426 14.7087 14.8589 14.2939C14.8098 14.2399 13.8814 14.0925 14.0061 13.7702C14.054 13.6431 14.1986 13.0561 14.3078 12.9144C14.4146 12.7719 14.6691 12.9707 14.6851 12.9628C15.1973 12.6612 15.3051 12.8717 15.9309 12.8584C16.5534 12.8543 15.2102 12.4502 15.0924 12.3131C14.9747 12.1753 15.3956 11.9856 15.5303 11.9562C15.6648 11.9252 15.8088 12.0838 15.8937 12.0439C16.4508 11.7853 15.3208 11.601 15.1725 11.3742C14.8289 10.8263 15.9011 10.9767 16.1289 10.7357C16.1917 10.6685 15.9471 10.6308 15.9616 10.5498C16.0248 10.2277 16.3967 10.212 16.3049 9.75798C16.2883 9.68622 15.8895 9.11747 16.3837 9.18305C16.4542 9.19374 16.6396 9.38918 16.7572 9.30429C16.9327 9.17752 17.1677 8.90697 17.2121 8.68238C17.2451 8.51567 16.7885 8.43206 17.0105 8.33755C17.1092 8.29666 17.2255 8.57143 17.3926 8.48499C17.5583 8.39901 17.7894 8.05342 17.878 7.92134C17.9653 7.78907 17.6544 7.66459 17.6444 7.64139C17.5905 7.50345 17.6586 7.15883 17.6769 7.13717C18.5268 5.99572 19.8146 5.47332 20.7287 4.4978C20.8021 4.42091 20.5333 4.19906 20.5422 4.18458C20.7404 3.84367 21.0805 4.73275 21.4601 4.82147C21.0069 4.29625 21.1992 4.3039 21.3566 4.09209C21.4325 3.98964 21.22 3.81307 21.2126 3.78438C21.1213 3.34537 21.5363 3.69682 21.6237 3.76685C21.9494 4.02162 21.7891 3.56359 22.0066 3.73596C22.2202 3.90876 22.2889 4.33231 22.4793 4.19807C22.3975 3.95443 21.8869 3.51568 21.9836 3.32502C22.3566 2.58592 23.7861 2.37729 24.3108 2.20242C24.8412 2.01383 24.993 1.90507 25.3282 1.8659C25.9338 1.80421 25.5613 1.43324 25.8406 1.09853C26.1274 0.766668 26.3312 1.94884 26.4624 2.17267C26.5898 2.39816 26.5586 2.13275 26.6607 2.24661C26.7614 2.36096 26.6906 2.5655 26.841 2.57226C26.9886 2.57871 27.2291 2.03609 27.2111 1.7659C27.167 1.19368 26.8273 0.671488 27.2779 0.766392C27.3036 0.772464 27.3093 1.09252 27.403 1.10066C28.1371 1.15758 28.8467 1.03524 29.5524 1.15533C29.649 1.17247 29.6114 1.52658 29.6672 1.54063C30.2442 1.69368 29.9767 1.1388 30.2338 0.461945C30.2429 1.32853 30.4584 1.83447 30.8668 1.81456C31.1153 1.80416 31.0519 1.43057 31.2074 1.15838C31.2548 1.07623 31.4431 1.32975 31.4717 1.15208C31.5702 0.571648 31.3804 -0.0767674 31.8505 0.177923C31.8507 0.17803 31.8509 0.178136 31.851 0.178243C31.8583 0.182571 31.8548 0.224783 31.8505 0.278476C31.8447 0.349105 31.8375 0.439599 31.8505 0.489842C31.8556 0.509754 31.8639 0.523346 31.8766 0.526894C32.3226 0.656104 32.3877 0.0506623 32.892 0.00239646C33.2912 -0.0355175 33.9457 0.397911 34.3643 0.520539C34.2241 1.47981 34.6335 1.31582 34.9141 0.686907C35.187 0.76184 35.4925 0.784159 35.7386 0.934111C35.8228 0.985372 35.7008 1.24585 35.7057 1.27805C35.7701 1.78084 36.0335 1.17572 36.1 1.16585C36.8027 1.0865 37.1597 1.71153 37.9051 1.46689C37.9309 1.45789 38.1987 0.83742 38.1883 1.35889C38.1857 1.39422 37.8854 1.6087 38.1522 1.73473C38.4233 1.86217 38.7818 2.40172 39.2765 2.28994C39.3944 2.26159 39.8652 1.88011 39.8556 2.35454C39.8533 2.41842 39.7402 2.57779 39.7255 2.69094C39.6775 3.05102 40.0525 2.47804 39.9092 3.05707C39.766 3.6366 39.7941 4.14304 40.3255 3.99498C40.3414 3.991 40.6986 3.57518 40.8022 3.64888C40.966 3.76569 41.1429 4.01297 41.316 4.12554C41.3992 4.1794 41.5344 3.86624 41.5522 3.87082C42.2234 4.1016 42.4414 4.63953 42.9047 5.19915C42.9871 5.29994 43.5817 5.21241 43.5259 5.65524C43.4579 6.13555 42.1315 7.13857 42.82 7.26507C43.0847 7.30795 44.8396 6.11665 44.348 7.19258C45.1439 7.69089 45.1932 8.67292 45.9875 9.20185C46.0228 9.22539 46.5845 9.02282 46.6299 9.11136C46.6954 9.24199 46.5026 9.4502 46.5388 9.54622C46.6838 9.95192 47.0745 10.1826 47.2282 10.5706C47.2862 10.7171 47.0097 10.7925 47.0752 10.9646C47.1394 11.1352 47.5294 11.0937 47.4678 11.3978C47.4201 11.6294 46.7925 12.0915 46.7965 12.3418C47.4947 12.0752 47.5443 12.2376 47.8342 12.4578C47.8902 12.5003 48.1135 12.3524 48.1528 12.3681C48.3184 12.4322 48.15 12.6044 48.3234 12.6612C48.3652 12.6753 48.6076 12.5951 48.6556 12.6026C49.0745 12.6666 48.6208 13.1438 48.5386 13.2195C48.232 13.5203 48.5759 13.517 48.4728 13.7065C48.3682 13.8928 48.1288 13.7227 48.0867 13.916C47.9987 14.3126 48.1406 14.7502 48.1964 15.1107C48.2202 15.2539 48.537 15.0943 48.5482 15.1133C48.6903 15.4028 48.3775 15.7594 49.0732 15.8353C47.361 16.2802 49.2697 15.9962 48.9689 16.4882C48.9441 16.5267 48.1222 16.6487 47.9881 16.5352C47.8541 16.4227 48.0895 16.1999 47.8774 16.0503C47.8277 16.012 47.0247 15.8961 46.9734 15.8756C46.5729 15.6995 47.7882 15.4567 47.8531 15.4302C48.5511 15.1478 47.6699 15.0085 47.5981 14.9511C47.2677 14.6661 47.3688 14.3454 47.1108 14.1147C46.9431 13.9648 46.1564 14.171 46.142 14.0323C46.0929 13.5811 47.105 13.0353 46.0276 12.9519C45.7971 12.9359 45.0034 13.3414 45.5345 12.7837C45.5693 12.7511 46.0651 12.2739 45.6348 12.2982C45.5808 12.3018 45.3435 12.4052 45.3143 12.3925C45.1233 12.3064 45.2686 12.127 45.1067 12.0144C44.9451 11.9026 44.7247 11.788 44.7146 11.5782C44.7088 11.4528 45.0622 11.0919 45.1371 10.9832C45.3553 10.6732 44.7831 10.7964 45.088 10.5023C45.3906 10.2006 46.0427 10.0674 46.123 9.67934C45.5409 10.0163 44.9375 10.3524 44.3511 10.6897C44.0798 10.1958 43.9395 9.60717 43.5609 9.1674C43.5137 9.11383 43.2729 9.393 43.2158 9.34268C42.9777 9.13262 42.9977 8.75411 42.7008 8.57472C42.4698 8.43694 42.0029 8.49933 41.7554 8.38748C42.1902 7.73196 41.7172 7.63752 41.5524 7.39749C41.4936 7.31243 41.6348 7.16304 41.6241 7.06444C41.5775 6.69564 41.2321 7.29668 41.1071 7.33035C40.5787 7.48324 41.5349 6.27512 41.1934 6.05773C41.1736 6.04376 40.4809 6.54915 40.4265 6.57321C40.0601 6.71808 40.5672 6.322 40.4936 6.19388C40.3587 5.96107 40.3212 5.69692 39.9452 5.73868C39.833 5.75049 39.3959 6.07841 39.4644 5.65766C39.473 5.60228 39.6236 5.37644 39.6168 5.35376C39.4766 4.96139 39.0383 5.69449 38.7491 5.86249C38.462 6.03173 38.5073 5.3911 38.5316 5.21344C38.6004 4.75588 38.7182 5.09859 38.7447 5.06443C39.0677 4.65574 38.8435 4.63658 38.7199 4.52647C39.075 3.76939 38.8395 3.70971 38.5895 4.41558C38.5621 4.4925 38.7082 4.47775 38.7199 4.52647C38.224 5.19485 37.9905 5.19701 38.0614 4.38911C38.0923 4.01052 38.3729 3.67351 37.9458 3.6583C37.7529 3.65313 37.5983 4.21155 37.3996 4.30068C36.9529 4.50685 36.7196 3.85438 36.3442 3.82677C36.2116 3.81791 36.2387 4.15578 36.1463 4.16075C35.904 4.17639 35.7714 3.89384 35.5151 3.95309C35.4923 3.95901 35.4592 4.29071 35.3903 4.27756C34.8684 4.18624 34.4527 3.88829 33.8931 3.80281C33.6226 3.76044 33.1227 3.89101 32.8481 3.83755C32.5383 3.77655 32.1896 3.55109 31.8505 3.43586C31.6642 3.37198 31.4863 3.34151 31.3362 3.38811C31.0617 3.47314 31.1392 3.80096 31.0362 4.03113C30.8466 4.47633 30.402 3.7336 30.3291 3.62059C30.3268 3.61641 30.5551 3.51665 30.4131 3.36008C30.3044 3.01621 30.3312 3.61887 30.3291 3.62059C30.2861 3.5447 29.8031 3.52737 29.7194 3.60529C29.6738 3.6467 29.7472 3.95171 29.7232 3.96741C29.1501 4.33498 28.5928 4.53571 27.9579 4.56375C27.9456 4.56067 27.8661 4.21999 27.838 4.21711C27.4404 4.16992 27.3399 4.65307 27.1524 4.98815C26.9631 5.32455 26.7318 5.3252 26.3386 4.83822C26.1593 4.9929 25.7554 4.88261 25.512 4.82055C25.268 4.75848 25.5436 5.3821 25.5354 5.40087C25.2779 6.01058 24.8504 5.80111 24.3625 6.02643C24.1309 6.13117 23.7691 6.48935 23.5957 6.70793C23.4589 6.88023 23.2603 6.82989 23.1668 7.03109C23.1542 7.05808 23.3611 7.28085 23.3619 7.29499C23.4182 7.71108 23.0402 7.06704 22.9223 6.99149C22.4938 6.7186 22.241 6.5924 22.1638 6.95602C22.1431 7.04178 22.7034 7.96817 22.6645 8.08801C22.6087 8.24587 22.391 7.92676 22.3387 8.10212C22.3341 8.1169 22.4973 8.28667 22.4211 8.34477C22.07 8.6165 21.6324 8.87702 21.3464 9.24764C21.3071 9.29731 21.6435 9.47902 21.5927 9.55342C21.3544 9.90224 21.0681 10.2524 20.6894 10.4911C20.5951 10.5495 20.4159 10.3484 20.3392 10.3226C19.8703 10.1735 20.3278 10.7212 20.3232 10.7526C20.1938 11.5586 19.3707 11.7743 19.3094 12.6188C19.3048 12.6695 19.854 13.2435 19.2207 13.1366C19.1791 13.1277 18.5259 13.0289 18.8899 13.3084C18.9131 13.3252 19.2533 13.3607 19.1674 13.4928C19.0806 13.6279 19.2088 13.9272 18.7978 14.0177C18.6689 14.0439 18.0041 14.0175 18.4369 14.3617C18.4647 14.3917 19.4995 14.9847 18.7022 14.8888C18.5712 14.8731 17.7554 14.65 18.1177 14.9956C18.1887 15.0606 18.3909 15.0214 18.478 15.1667C18.6133 15.3862 18.3414 15.5852 18.672 15.8743C18.7301 15.927 19.2679 16.1778 18.8191 16.2397C18.7487 16.25 18.476 16.1683 18.4343 16.234C18.2347 16.5498 18.3829 16.9258 18.1644 17.2565C18.0877 17.3757 17.6372 17.2816 17.5074 17.4095C17.3773 17.5373 17.2494 17.8099 17.4553 17.9569C17.6613 18.1009 18.3888 17.9622 18.445 18.1624C18.4523 18.188 18.4591 18.2136 18.4654 18.2391C18.6723 19.0642 18.3445 19.9082 18.441 20.7607C18.4559 20.8889 18.6906 20.7364 18.7317 20.9178C18.8789 21.6036 19.4503 22.6269 19.1775 23.3897C18.9599 24.0173 18.4047 23.5629 18.3916 23.995C18.3904 24.2109 19.2445 24.0477 19.2859 24.0734C19.7105 24.3437 19.5143 24.775 19.8072 25.0611C19.8674 25.1187 20.1259 24.8816 20.1733 24.9311C20.3366 25.0965 20.33 25.3789 20.4719 25.5475C20.5362 25.6223 20.7451 25.4643 20.7766 25.5488C20.8552 25.7493 20.8707 25.9641 20.7972 26.279C20.791 26.3084 20.4496 26.3919 20.5369 26.532C20.6777 26.7558 20.6967 27.1733 21.0874 27.2505C21.2046 27.273 21.6585 26.8864 21.4721 27.3005C21.4334 27.3866 20.8621 27.8244 21.4771 27.5826C21.5834 27.5482 22.4387 27.2431 22.1782 27.7442C22.1095 27.8767 21.7841 28.3816 21.9293 28.3944C21.9501 28.3941 22.1322 28.1238 22.2182 28.1639C22.5166 28.3078 22.7372 28.5539 23.0476 28.6844C23.1303 28.718 23.2479 28.3836 23.3626 28.44C23.6767 28.5936 23.9582 28.9153 24.174 29.1929C24.2531 29.2957 24.0261 29.4724 24.0161 29.5019C23.8624 29.9879 24.3078 29.4954 24.3675 29.4892C24.7424 29.4631 24.7712 29.8439 25.0545 29.9153C25.1315 29.9351 25.2418 29.6369 25.2689 29.6204C25.538 29.4605 25.1583 29.891 25.2143 29.9943C25.3727 30.2859 25.6676 30.4122 25.9421 30.5C26.0428 30.5316 26.0949 30.1539 26.1817 30.1849C26.6971 30.3611 27.1962 30.5984 27.6396 30.9557C27.7234 31.0236 27.5764 31.2696 27.5767 31.3369C27.5836 31.8096 27.9765 31.2914 28.0368 31.2482C28.3242 31.0555 28.3406 31.3157 28.5445 31.32C29.5272 31.3376 30.6562 31.6465 31.5794 31.7598C31.6708 31.7715 31.7611 31.7832 31.8505 31.7945C32.9188 31.927 33.8441 32.0493 34.8827 31.7574C34.9536 31.7373 34.8 31.3906 34.8588 31.3688C35.6117 31.1053 36.4063 31.0003 37.1024 30.5875C37.159 30.5544 36.9351 30.2668 37.0192 30.2034C37.1904 30.0712 37.4345 29.9791 37.6755 29.9846C37.7932 29.9864 37.8021 30.3203 37.9197 30.3156C38.1948 30.3042 38.4484 30.1959 38.6446 30.0169C38.7269 29.9404 38.4041 29.711 38.5228 29.637C39.3285 29.1202 40.0151 28.5377 41.053 28.2171C41.1234 28.1956 41.6699 28.6888 41.6829 28.4817C41.5502 28.3271 41.3838 28.1551 41.2365 27.9951C42.1696 26.9343 43.224 25.9686 43.9458 24.7101C43.9755 24.6579 43.5847 24.5653 43.6393 24.465C43.9554 23.878 44.1073 23.2676 44.6987 22.7507C44.7566 22.6987 45.3913 22.9571 45.3608 22.723C45.3555 22.6818 45.3648 22.3514 45.2442 22.2328C45.2258 22.2162 44.9045 22.1782 44.9233 22.0819C45.0374 21.5215 45.237 20.9673 45.5198 20.4261C45.566 20.3384 45.8861 20.4901 45.922 20.4268C46.1752 19.9701 45.9707 19.4211 46.301 18.9697C46.5224 18.6638 47.1036 18.803 47.6867 18.638C47.7692 18.6142 47.7856 18.3996 48.1216 18.3905C48.9674 18.3661 49.8918 18.4918 50.7935 18.454C50.9883 18.4457 50.78 18.0978 51.2486 18.3048C51.2804 18.3192 51.4336 18.5757 51.5909 18.6431C51.6999 18.6901 52.0435 18.6157 52.1823 18.7115C52.3208 18.8084 52.0316 18.9016 52.1909 19.0608C52.3515 19.2221 52.7447 19.1687 52.7729 19.4901ZM24.3968 4.582C24.0732 4.38743 24.6367 5.44312 24.6664 5.0996C24.6672 5.08178 24.4129 4.59146 24.3968 4.582ZM44.6652 9.08963C44.9465 8.57632 44.2211 8.90463 43.9957 9.28391C43.7646 9.65605 44.5772 9.24204 44.6652 9.08963ZM46.3243 11.1118C46.5615 10.6556 45.0345 11.3966 45.4729 11.505C45.4977 11.5115 46.3102 11.1378 46.3243 11.1118ZM47.8073 19.5004C47.8235 19.4991 47.8502 19.345 47.8346 19.3401C47.4613 19.2338 47.4088 19.5342 47.8073 19.5004ZM47.6824 13.4044C47.8747 13.246 47.5378 13.0645 47.3024 13.2644C47.1125 13.4219 47.4428 13.5977 47.6824 13.4044ZM16.6595 10.98C16.6419 10.9751 16.5773 11.074 16.6696 11.1147C16.9666 11.2455 16.9522 11.0628 16.6595 10.98ZM48.4151 17.8686C48.4615 17.2152 49.8227 16.6649 49.7099 17.4665C49.6877 17.6074 49.2492 17.1854 49.1316 17.3696C48.9166 17.6935 49.8019 17.8918 49.3313 18.233C49.2458 18.2889 48.4103 17.902 48.4131 17.8675C48.4138 17.8678 48.4145 17.8682 48.4151 17.8686ZM23.6043 3.37801C23.593 3.36598 23.4429 3.43326 23.4473 3.449C23.5597 3.82163 23.8554 3.68996 23.6043 3.37801ZM14.2924 17.5311C14.2573 17.5385 14.2147 17.9307 14.2466 17.9444C14.8622 18.1521 14.9485 17.3888 14.2924 17.5311ZM34.3675 0.547119C34.6051 0.194479 34.8486 0.187835 34.9134 0.68628C34.7344 0.629401 34.5486 0.596408 34.3675 0.547119Z" fill="black"/>
</svg>
