<svg width="54" height="128" viewBox="0 0 54 128" fill="none" xmlns="http://www.w3.org/2000/svg">
<path d="M12.7671 126.739C12.7671 92.7392 -16.074 48.5085 19.4643 41.5184C83.4061 28.9415 36.2055 74.863 24.7243 109.781C24.2841 115.672 22.8644 122.474 22.7672 126.739C21.7986 121.673 22.7138 115.896 24.7243 109.781C25.2116 103.26 24.4988 97.855 19.4643 98.2391C4.96431 99.3454 19.4643 123.739 12.7671 126.739Z" fill="white"/>
<path d="M8.75366 124.215C8.5916 122.734 8.54544 120.747 8.53088 119.237C8.52595 118.76 8.76321 118.976 8.76792 118.644C8.77585 117.995 8.59625 117.403 8.60871 116.764C8.6135 116.55 8.98186 116.766 8.97905 116.542C8.96033 115.317 8.69527 114.168 8.5585 112.938C7.87181 106.823 6.54854 100.832 5.16647 94.6445C4.70967 92.6022 4.38393 90.056 3.73774 87.9795C3.66221 87.738 3.41173 87.9544 3.37669 87.9135C2.83613 87.269 3.4748 87.3753 3.43384 86.8723C3.27194 84.8847 2.79802 82.7505 2.28228 80.9325C2.06283 80.1603 1.66274 81.0746 1.81004 80.2032C1.81974 80.1428 2.16931 80.2789 2.1549 80.0535C2.12096 79.5422 1.87109 78.6202 1.81886 78.236C1.71935 77.4957 1.69255 77.3766 1.55944 76.6693C1.38014 75.6966 1.3345 74.5691 1.09184 73.5234C1.03976 73.3036 0.770769 73.65 0.659411 73.3032C0.546987 72.9553 0.431925 72.0151 0.463562 71.6922C0.494052 71.3684 0.762901 71.4669 0.812331 71.4036C1.22963 70.8814 0.421016 69.8674 0.389694 69.7292C-0.19025 67.2139 0.0399934 64.9021 0.0711877 62.4791C0.0949078 60.5869 0.142275 58.5657 0.502478 56.7746C0.94121 54.6301 1.65952 52.9027 2.59533 50.9495C2.69602 50.7448 2.23714 50.8137 2.36274 50.56C3.69903 47.8526 5.84913 45.5187 8.42619 44.0474C8.67932 43.9033 8.56189 44.3872 8.82367 44.2623C10.4612 43.4282 13.1445 42.9255 13.5838 41.2463C14.6952 40.8801 16.1606 40.5021 17.1996 40.5456C17.895 40.5675 17.3443 41.07 18.1115 40.7322C18.2869 40.6574 17.9779 40.4028 18.2491 40.314C18.5454 40.2177 18.8571 40.1367 19.1783 40.0643C20.0931 39.8577 21.0205 39.709 21.8363 39.4395C22.0599 39.3648 21.9473 39.0974 22.0034 39.0355C22.4809 38.5302 23.4872 39.0517 23.684 39.0698C25.1862 39.1964 26.2048 38.8934 27.6981 38.7017C28.0327 38.6596 27.5876 38.3347 27.9081 38.2809C29.6254 38.0041 31.0161 37.8845 32.8324 37.9145C33.2097 37.9253 32.8895 38.2737 33.07 38.2956C33.8575 38.3912 33.9896 37.7705 34.7194 37.8664C34.8719 37.8863 34.7994 38.1674 34.8284 38.1966C35.2768 38.6546 35.6115 37.966 35.7202 37.9476C36.9711 37.7054 38.1563 38.4108 39.4626 38.3709C39.6251 38.3662 39.2763 37.9972 39.7331 38.0062C42.8061 38.0848 46.3262 38.6816 49.0599 40.6895C49.4664 41.0002 49.0152 41.0247 49.0264 41.0701C49.1639 41.7647 49.7825 41.3907 49.9501 41.49C51.1972 42.2588 51.4273 43.5431 52.5777 43.9971C54.9098 49.6836 53.0362 55.1849 50.6638 59.6052C50.6328 59.6601 50.363 59.4321 50.3026 59.5417C49.5606 60.8668 50.148 60.7967 50.3202 62.0054C50.3624 62.3109 49.3256 62.7435 49.248 62.7759C48.9576 62.9129 48.6087 62.4755 48.5382 62.5333C47.9699 63.0159 49.5164 63.6037 49.1153 64.4571C49.1003 64.4826 48.8788 64.241 48.8177 64.2995C48.6273 64.4806 48.6308 64.7532 48.4314 64.9266C47.9721 65.322 47.1652 65.1514 47.2062 66.1185C47.2136 66.2387 48.125 66.5107 47.7129 67.2324C47.5506 67.5178 46.8881 68.8461 46.6367 69.1939C46.3883 69.5393 46.2548 69.1434 46.2294 69.1641C45.3494 69.9855 45.4015 69.5289 44.6233 69.7393C43.8474 69.9477 45.1563 70.4717 45.1886 70.7441C45.2206 71.0166 44.5457 71.579 44.3492 71.7019C44.1532 71.8244 44.1036 71.5129 43.9618 71.6393C43.0253 72.4815 44.3254 72.4295 44.3335 72.8812C44.346 73.9607 43.0999 74.0692 42.6057 74.7537C42.4721 74.9387 42.7688 74.8914 42.6906 75.0788C42.377 75.8204 41.8585 76.0857 41.6699 77.0352C41.6367 77.1944 41.8264 78.1372 41.1943 78.3273C41.1038 78.3537 40.9709 78.0605 40.7544 78.3287C40.4307 78.7289 39.9322 79.5025 39.7385 80.0252C39.5957 80.411 40.196 80.2133 39.83 80.5949C39.6671 80.7645 39.6555 80.2743 39.3675 80.6032C39.0782 80.9343 38.563 81.8763 38.3698 82.2395C38.1774 82.6014 38.5695 82.5638 38.5724 82.6033C38.5837 82.8391 38.3359 83.6027 38.3017 83.6635C36.6231 86.7535 34.5838 89.3237 33.1569 92.4313C33.045 92.6742 33.4301 92.6751 33.4162 92.7138C33.1204 93.5889 32.6486 92.5303 32.0838 92.9572C32.742 93.1939 32.4541 93.474 32.2253 94.0855C32.1158 94.3803 32.4323 94.3514 32.4437 94.3893C32.5958 94.9861 31.982 95.0327 31.8483 95.0581C31.3564 95.1519 31.6248 95.6596 31.2953 95.726C30.9674 95.7939 30.8332 95.1914 30.5604 95.7479C30.705 96.0136 31.4894 95.8935 31.3747 96.359C30.9364 98.1104 29.0762 100.867 28.4569 102.164C27.8339 103.451 27.7045 103.888 27.3085 104.61C26.6027 105.916 27.2466 105.61 27.1148 106.55C26.988 107.494 26.0439 106.653 25.7579 106.688C25.4731 106.722 25.6672 106.95 25.4789 107.055C25.2908 107.16 25.2524 106.766 25.0688 107.11C24.8825 107.457 24.959 108.595 25.1693 108.806C25.6105 109.258 26.3193 109.003 25.7975 109.902C25.7673 109.954 25.5321 109.675 25.4313 109.879C24.6421 111.501 24.1292 113.232 23.5294 114.93C23.4474 115.161 23.1569 114.873 23.1054 115.007C22.5804 116.408 23.2676 115.993 23.7546 116.91C22.9415 116.573 22.3238 116.937 22.1544 118.076C22.0582 118.756 22.4494 118.687 22.663 119.147C22.7274 119.284 22.423 119.726 22.5927 119.826C23.1481 120.157 23.8198 119.766 23.4861 120.883C23.471 120.933 23.1635 120.755 23.1344 120.927C22.9575 122.043 23.5584 122.192 23.661 123.332C23.7345 124.151 23.5808 125.547 23.6757 126.566L21.8425 126.718C21.8592 126.581 21.8742 126.447 21.886 126.32C22.8513 126.372 22.683 125.349 22.0583 124.849C22.1446 124.141 22.1916 123.355 22.3668 122.673C22.4263 122.442 22.6866 122.63 22.7203 122.604C23.2476 122.211 22.6434 121.812 22.6376 121.658C22.6086 119.966 23.2965 118.687 23.0408 117.047C23.0315 116.989 22.3769 116.805 22.923 116.454C22.9603 116.431 23.1915 116.993 23.3182 116.257C23.4451 115.521 23.9916 114.172 23.8026 113.106C23.758 112.846 23.2863 112.163 23.7634 111.704C23.8281 111.643 24.0127 111.737 24.1298 111.651C24.5029 111.37 23.8417 111.137 24.4523 110.818C25.0615 110.503 25.5666 109.746 25.2244 108.667C25.2145 108.632 24.689 108.353 24.7101 108.029C24.7455 107.507 24.8712 106.77 24.8585 106.21C24.8524 105.947 24.5199 106.122 24.513 106.076C24.2661 104.348 24.5065 103.084 24.0075 101.266C23.9039 100.903 23.1154 100.293 22.9559 99.6146C22.8622 99.2249 23.195 98.8519 23.3635 98.4485C23.5251 98.0708 23.4813 97.4916 22.2907 97.172C21.3856 96.962 20.3834 98.3914 19.4611 98.1973C19.2942 98.1672 19.1196 98.0949 18.9289 97.9693C16.655 98.4186 13.9356 99.3424 13.3004 101.935C13.269 102.048 13.6898 102.569 13.6113 102.793C13.492 103.126 13.1809 103.251 13.1028 103.512C12.7822 104.588 12.9501 105.651 12.9167 106.71C12.9079 107.125 12.6224 106.979 12.6224 107.472C12.627 107.97 13.0149 108.268 12.8926 108.942C12.8012 109.458 12.0994 110.033 12.0983 110.726C12.8438 110.657 12.8834 111.113 13.1988 111.891C13.2597 112.04 13.4924 111.836 13.5344 111.904C13.7114 112.18 13.541 112.487 13.7302 112.745C13.7758 112.808 14.0284 112.771 14.0799 112.82C14.5269 113.233 14.0926 114.107 14.0173 114.259C13.7314 114.841 14.1006 115.026 14.0209 115.445C13.9421 115.868 13.6554 115.305 13.646 115.785C13.6253 116.771 13.8737 117.997 13.9955 118.964C14.0456 119.351 14.3471 119.041 14.3621 119.095C14.5606 119.902 14.2796 120.749 14.9858 121.14C13.264 121.834 15.2117 121.604 14.847 122.833C14.815 122.927 13.9838 122.997 13.8704 122.669C13.7563 122.334 14.0055 121.832 13.7841 121.36C13.7338 121.239 12.9074 120.694 12.85 120.612C12.415 119.981 13.6301 119.747 13.694 119.698C14.3729 119.183 13.4281 118.508 13.3381 118.309C12.9305 117.399 12.9629 116.563 12.6379 115.789C12.4269 115.285 11.6173 115.373 11.5705 114.953C11.4156 113.551 12.4524 112.895 11.2866 111.711C11.0399 111.454 10.1938 111.861 10.752 110.728C10.786 110.652 11.3289 109.811 10.8859 109.4C10.8298 109.347 10.5722 109.373 10.5435 109.299C10.3572 108.794 10.5375 108.453 10.4094 107.881C10.2827 107.321 10.1202 106.617 10.2292 105.944C10.2922 105.54 10.8121 105.031 10.9482 104.857C11.3321 104.366 10.8769 103.671 11.3506 103.411C11.8271 103.163 12.3019 103.908 12.7516 103.151C12.1068 102.957 11.4576 102.71 10.8202 102.476C11.3563 100.371 13.0566 98.1925 15.1935 97.1377C15.4467 97.0056 15.0192 96.813 15.2996 96.662C16.5663 96.0185 17.6808 96.0487 18.8895 95.8111C19.0148 95.7877 19.1425 95.7607 19.273 95.7314C20.2384 95.5309 21.3894 95.2769 22.6685 95.659C23.2441 96.6064 25.0416 97.6176 25.6392 98.8433C25.8577 99.2485 25.6599 99.3288 25.7368 99.6201C25.9798 100.724 26.3804 99.999 26.6001 100.24C27.4764 101.353 26.0064 101.873 26.2628 103.105C26.28 103.173 27.1982 103.892 27.2571 104.017C27.6566 104.739 26.9863 104.171 26.9616 104.626C26.907 105.459 26.7268 106.015 26.9615 106.951C27.0314 107.217 27.528 107.9 27.1081 108.403C27.0533 108.47 26.7841 108.419 26.7657 108.474C26.4502 109.459 27.2942 109.523 27.54 110.124C27.7854 110.716 27.1156 111.543 26.9291 111.695C26.4468 112.108 26.7777 111.328 26.7365 111.296C26.2541 110.956 26.2838 111.591 26.19 112.062C25.3524 112.044 25.3295 112.71 26.0952 112.553C26.1792 112.534 26.1422 112.154 26.19 112.062C26.9612 112.568 26.9827 113.323 26.1222 114.032C25.7184 114.363 25.3504 113.957 25.3541 115.109C25.3543 115.632 25.951 115.51 26.0448 115.985C26.2579 117.074 25.5348 118.333 25.4683 119.404C25.4446 119.79 25.809 119.463 25.8037 119.727C25.7899 120.436 25.4718 121.008 25.4997 121.718C25.5028 121.782 25.8496 121.673 25.8257 121.886C25.6556 123.505 25.2723 124.889 25.1983 126.476C25.1942 126.576 25.1936 126.683 25.1962 126.795L20.3808 127.195C20.1618 126.273 19.8726 124.92 19.8613 124.067C19.8143 122.401 20.3915 120.385 20.4279 119.045C20.4533 118.159 20.108 118.309 19.9354 117.896C19.5997 117.092 20.6121 115.873 20.7623 115.754C20.7671 115.743 20.7029 116.518 20.9445 116.141C21.3348 115.971 20.7619 115.765 20.7623 115.754C20.8541 115.659 21.2382 114.209 21.2531 113.9C21.2573 113.733 20.9323 113.749 20.9405 113.663C21.1589 111.56 21.6527 109.662 22.4735 107.742C22.491 107.711 22.8036 107.876 22.8407 107.801C23.3685 106.765 23.2297 105.919 23.3463 104.915C23.4676 103.904 23.8356 103.234 24.6059 102.944C24.8119 102.251 25.4678 101.401 25.8582 100.919C26.2479 100.437 25.6632 100.081 25.6726 100.027C25.9496 98.3688 26.7035 97.6793 27.4998 96.1753C27.8791 95.4603 28.4922 94.0087 28.8228 93.1988C29.0811 92.5599 29.4126 92.2645 29.6139 91.6552C29.641 91.5735 29.3327 91.51 29.3343 91.4817C29.3368 90.692 29.8378 91.3334 30.0218 91.2663C30.6909 91.0244 31.0664 90.8587 31.2866 89.961C31.3373 89.7546 30.6806 88.7203 30.8051 88.3566C30.9683 87.8854 31.2168 88.23 31.3797 87.7327C31.394 87.6904 31.1821 87.5863 31.3425 87.3117C32.0829 86.0377 32.9751 84.6987 33.6921 83.3575C33.7914 83.1736 33.3345 83.2265 33.4727 82.9579C34.1215 81.6975 34.8876 80.3567 35.7054 79.2554C35.9101 78.9807 36.0343 79.2945 36.1382 79.2682C36.7698 79.1033 36.4861 78.2119 36.5261 78.1138C37.459 75.777 38.9457 74.3908 39.8964 72.0494C39.9438 71.9279 39.8153 70.6366 40.5937 70.5185C40.6459 70.51 41.436 70.4017 41.2447 69.8297C41.2325 69.7943 40.8038 69.8927 41.0732 69.463C41.3438 69.0309 41.5234 68.2249 42.1671 67.782C42.3726 67.6373 43.1888 67.4626 43.0373 66.6421C43.0275 66.5846 42.4574 65.1642 43.3261 65.211C43.4684 65.2197 44.198 65.6505 44.1526 64.7736C44.1423 64.606 43.8564 64.7584 43.9215 64.3633C44.0328 63.7319 44.5885 63.1074 44.5588 62.2906C44.5536 62.1464 44.2615 61.4219 44.831 61.2229C44.9203 61.1914 45.1242 61.4229 45.2456 61.2336C45.8358 60.3075 46.129 59.1591 46.7001 58.2624C46.9036 57.9387 47.2506 58.2991 47.5151 57.9606C47.7838 57.6136 48.1844 56.8774 48.1245 56.4174C48.0641 55.9596 47.2344 56.1387 47.374 55.5526C47.9806 52.9593 48.9614 50.6478 48.8978 48.5027C48.8834 48.2071 48.6514 48.4818 48.5978 48.0508C48.4151 46.3791 47.2178 45.2702 46.0447 44.1508C45.1359 43.2555 46.6419 43.5532 45.8684 43.0223C45.4684 42.7636 44.6874 43.4013 44.5737 43.3958C43.3007 43.3066 42.7426 42.8357 41.5416 42.7892C41.2993 42.7835 41.4928 43.1514 41.288 43.1437C40.5306 43.1164 39.9512 42.9223 39.2916 42.9173C39.0015 42.9172 39.0445 43.1806 38.7755 43.1506C38.1269 43.0836 37.5226 42.9677 36.8116 42.7313C36.7534 42.7097 37.1559 42.3796 36.6612 42.374C35.9195 42.366 34.9317 42.1607 33.9864 42.4708C33.7045 42.5644 33.7407 43.1586 33.0853 42.7941C32.9458 42.7191 33.0632 41.9882 32.3649 42.6686C32.1797 42.7865 31.2319 43.7142 30.5993 43.2433C30.4377 43.1181 29.9914 42.5775 29.6649 42.7093C29.6212 42.7293 29.8412 43.026 29.567 43.0903C28.6044 43.311 27.5058 43.4256 26.4589 43.685C26.2103 43.7503 26.6363 44.0214 26.2642 44.1086C25.2423 44.3485 23.8796 44.4901 22.7571 44.5872C22.3435 44.6223 22.5756 44.3011 22.5409 44.2769C21.9754 43.8848 21.8052 44.5849 21.6517 44.6525C21.1283 44.8775 20.6387 44.9367 20.1468 44.9883C19.7712 45.0245 19.4047 45.0575 19.0363 45.1805C18.8139 45.2544 19.0464 45.5219 19.0076 45.5596C18.6113 45.9344 18.8224 45.3055 18.5162 45.3164C17.6744 45.3433 16.7749 45.6313 15.9942 45.948C15.713 46.0634 16.1538 46.2923 15.9044 46.3913C14.463 46.9746 13.005 47.639 11.6827 48.2944C11.4376 48.415 11.4196 48.089 11.3365 48.0685C10.7529 47.9245 10.638 48.7841 10.58 48.909C10.2854 49.4937 9.96169 49.4563 9.62466 49.8485C7.94983 51.7473 6.44708 54.4704 5.80628 57.0298C4.96662 60.3179 4.6998 63.2295 5.02709 66.7805C5.04939 67.008 5.40161 66.7486 5.42581 66.9436C5.72271 69.4368 5.94925 71.9669 6.51823 74.501C6.56437 74.7085 6.85622 74.3442 6.94212 74.6746C7.12008 75.3481 7.27542 76.2489 7.30376 76.9539C7.31935 77.3033 6.93038 76.9088 6.95246 77.2601C7.00329 78.077 7.16471 78.9566 7.40095 79.7673C7.50186 80.1098 7.73832 79.5075 7.84216 79.9585C8.56632 83.0608 9.37378 86.0879 9.71117 89.3778C9.73387 89.6017 9.06986 89.9686 9.32135 90.3959C9.5274 90.3815 9.7591 90.3216 9.97385 90.2841C11.2272 94.8238 12.1318 99.4432 13.1201 104.137C13.1618 104.335 13.4665 103.91 13.5491 104.294C14.0253 106.509 14.5715 108.664 14.6006 111.044C14.6035 111.279 13.9111 111.28 14.1282 111.934C14.1681 112.05 14.4254 113.043 14.613 113.285C14.6408 113.318 14.9261 113.08 14.9877 113.41C15.339 115.322 15.5364 117.357 15.5351 119.313C15.534 119.627 15.1633 119.329 15.1594 119.553C15.1351 121.149 15.5106 122.841 15.2559 124.388C15.0811 125.414 14.4814 125.053 13.9155 125.596C13.8361 125.673 13.8306 126.288 13.4939 126.321C12.649 126.406 11.7211 126.124 10.8209 126.25C10.6281 126.277 10.8384 127.054 10.3686 126.594C10.3378 126.563 10.178 126.001 10.0161 125.866C9.90461 125.771 9.56545 125.949 9.42151 125.756C9.27749 125.565 9.55988 125.344 9.38519 125.023C9.20749 124.703 8.82527 124.859 8.75366 124.215ZM27.6149 98.7955C28.1415 98.4418 27.0942 97.8579 27.1016 98.5158C27.1033 98.5482 27.5885 98.8142 27.6149 98.7955ZM13.8867 99.2227C14.84 99.0216 14.881 98.1043 14.1255 98.1414C13.3069 98.2615 13.5794 99.3142 13.8867 99.2227ZM11.8687 106.95C12.2805 106.095 10.588 105.91 10.9303 106.886C10.9503 106.943 11.8453 107.002 11.8687 106.95ZM13.6615 123.145C13.6463 123.153 13.6532 123.592 13.6692 123.604C14.0607 123.822 14.0465 122.934 13.6615 123.145ZM13.1249 114.219C13.3077 113.928 12.9248 113.238 12.6958 113.601C12.5114 113.895 12.8973 114.584 13.1249 114.219ZM42.0836 74.4912C42.1034 74.4923 42.2678 74.2275 42.1765 74.1844C41.8822 74.0461 41.753 74.4696 42.0836 74.4912ZM13.2771 125.868C13.8173 125.366 14.338 124.744 14.7329 124.57C15.0979 124.382 15.47 124.675 14.9081 125.777C14.7899 125.979 14.8138 125.696 14.7762 125.465C14.7429 125.224 14.6717 125.011 14.5275 125.218C14.264 125.574 14.217 125.98 14.0475 126.379C13.8809 126.775 13.5572 127.167 12.981 127.17C12.8763 127.169 13.0415 126.851 13.1288 126.531C13.2238 126.212 13.2466 125.894 13.2776 125.865C13.2775 125.866 13.2773 125.867 13.2771 125.868ZM29.0485 99.123C29.0672 99.12 29.2659 98.7345 29.2563 98.7183C29.0137 98.3427 28.6121 99.1216 29.0485 99.123ZM50.7901 58.3727C50.8336 58.3598 51.2129 57.4081 51.1911 57.3687C50.7846 56.6679 50.028 58.5638 50.7901 58.3727ZM21.9126 126.303C21.5503 125.785 21.5459 125.209 22.0577 124.851C21.9912 125.343 21.9564 125.803 21.9126 126.303Z" fill="black"/>
<circle cx="22.917" cy="18.2391" r="17" fill="white"/>
<path d="M43.8395 19.4901C43.9033 20.2343 43.6785 21.1922 43.3972 21.8842C43.31 22.1009 43.1221 21.9488 43.0518 22.094C42.9143 22.375 42.9563 22.6763 42.7918 22.9461C42.7363 23.0346 42.4379 22.8378 42.3873 22.931C42.1126 23.4378 42.0512 23.9666 41.8062 24.4819C40.6007 26.9997 39.121 29.2619 37.1823 31.1767C36.541 31.8131 35.5557 32.3298 34.934 33.004C34.8612 33.0835 35.096 33.2725 35.0955 33.3043C35.0744 33.7982 34.7871 33.2655 34.575 33.3307C33.7317 33.5902 32.9789 34.0606 32.3536 34.5529C32.0874 34.7622 32.67 35.1047 32.21 34.9864C32.1787 34.9784 32.1008 34.6635 32.0045 34.6789C31.7871 34.7146 31.4667 34.9458 31.311 34.995C31.0119 35.0886 30.9679 35.1129 30.7018 35.2323C30.3345 35.393 29.8411 35.4312 29.4685 35.6468C29.3885 35.6939 29.6155 35.9518 29.4957 36.0546C29.376 36.1581 28.9955 36.2618 28.8463 36.2302C28.6973 36.1993 28.6731 35.9418 28.6333 35.894C28.3082 35.4879 28.0874 36.2581 28.0308 36.2903C27.0865 36.8508 26.1032 36.6489 25.1416 36.7658C24.4102 36.8555 23.6286 37.0248 22.917 37.0089C22.9111 37.0088 22.9052 37.0087 22.8994 37.0085C22.0467 36.9837 21.3492 36.7634 20.5353 36.6913C20.4492 36.683 20.5019 37.0704 20.395 37.0605C19.2582 36.9543 18.1368 36.6573 17.1455 36.0686C17.0467 36.0092 17.286 35.7388 17.195 35.661C16.6203 35.1926 15.9605 34.2116 14.9876 35.3436C14.5861 35.0965 14.1039 34.7815 13.8882 34.3253C13.7509 34.0319 14.1515 33.846 13.7988 33.8195C13.7194 33.8126 13.6404 34.133 13.532 34.1009C13.0727 33.9635 12.7034 33.6025 12.2332 33.4711C12.1368 33.4448 11.994 33.6905 11.9424 33.7165C11.5126 33.9191 11.6111 33.1396 11.5807 33.0528C11.3181 32.3833 10.8925 32.2137 10.4743 31.8205C10.3781 31.7289 10.2365 32.1158 10.1334 32.0362C9.60155 31.6183 9.13241 31.0857 8.83007 30.4799C8.76385 30.3448 9.0963 30.2337 9.07785 30.1589C8.9981 29.8348 8.48456 30.1742 8.40158 29.8609C8.38407 29.7957 8.62264 29.6498 8.63943 29.622C8.90698 29.1908 8.28277 29.4904 8.24203 29.4618C7.72917 29.1248 8.09789 28.418 7.72419 28.027C7.67826 27.979 7.46318 28.2938 7.35126 28.1456C6.60324 27.1579 6.08929 25.9145 5.92693 24.6883C5.90123 24.4978 6.19537 24.5306 6.22148 24.5078C6.63175 24.1555 5.95313 24.2767 5.90797 24.2258C5.57218 23.8275 5.99311 23.2452 5.12568 23.1469C4.90446 21.4985 4.44343 19.8842 4.71086 18.2391C4.77693 17.8356 4.8872 17.444 5.05609 17.0581C5.06614 17.0335 5.39761 17.1002 5.41619 17.0516C5.64846 16.4713 5.12133 16.5525 4.53316 16.0667C4.38615 15.9399 5.19035 15.7272 5.25009 15.712C5.46966 15.6441 5.94881 15.8154 5.99325 15.7889C6.34398 15.579 4.70626 15.3686 4.77182 14.9866C4.77659 14.9754 5.06671 15.0775 5.10196 15.0516C5.21232 14.9721 5.11152 14.8547 5.23234 14.7807C5.51251 14.6109 6.30912 14.7087 5.92541 14.2939C5.87635 14.2399 4.94797 14.0925 5.0726 13.7702C5.12057 13.6431 5.26512 13.0561 5.37434 12.9144C5.48117 12.7719 5.73559 12.9707 5.75163 12.9628C6.26387 12.6612 6.37166 12.8717 6.99744 12.8584C7.61993 12.8543 6.27676 12.4502 6.15893 12.3131C6.04127 12.1753 6.4621 11.9856 6.59679 11.9562C6.73138 11.9252 6.87535 12.0838 6.96025 12.0439C7.51733 11.7853 6.38733 11.601 6.23904 11.3742C5.89545 10.8263 6.96758 10.9767 7.19548 10.7357C7.25824 10.6685 7.0136 10.6308 7.02814 10.5498C7.09134 10.2277 7.46325 10.212 7.37139 9.75798C7.35483 9.68622 6.95602 9.11747 7.45021 9.18305C7.52071 9.19374 7.70615 9.38918 7.82372 9.30429C7.99928 9.17752 8.23423 8.90697 8.27864 8.68238C8.31164 8.51567 7.85501 8.43206 8.077 8.33755C8.17573 8.29666 8.29203 8.57143 8.45915 8.48499C8.62478 8.39901 8.85595 8.05342 8.94454 7.92134C9.03183 7.78907 8.72093 7.66459 8.71095 7.64139C8.65699 7.50345 8.72508 7.15883 8.7434 7.13717C9.59332 5.99572 10.8811 5.47332 11.7953 4.4978C11.8686 4.42091 11.5998 4.19906 11.6088 4.18458C11.8069 3.84367 12.147 4.73275 12.5266 4.82147C12.0735 4.29625 12.2658 4.3039 12.4231 4.09209C12.499 3.98964 12.2866 3.81307 12.2791 3.78438C12.1878 3.34537 12.6029 3.69682 12.6903 3.76685C13.0159 4.02162 12.8556 3.56359 13.0731 3.73596C13.2867 3.90876 13.3555 4.33231 13.5458 4.19807C13.464 3.95443 12.9534 3.51568 13.0501 3.32502C13.4231 2.58592 14.8527 2.37729 15.3774 2.20242C15.9077 2.01383 16.0595 1.90507 16.3947 1.8659C17.0003 1.80421 16.6278 1.43324 16.9071 1.09853C17.1939 0.766668 17.3977 1.94884 17.5289 2.17267C17.6563 2.39816 17.6251 2.13275 17.7272 2.24661C17.8279 2.36096 17.7572 2.5655 17.9075 2.57226C18.0551 2.57871 18.2957 2.03609 18.2776 1.7659C18.2335 1.19368 17.8938 0.671488 18.3445 0.766392C18.3701 0.772464 18.3759 1.09252 18.4696 1.10066C19.2036 1.15758 19.9133 1.03524 20.6189 1.15533C20.7155 1.17247 20.6779 1.52658 20.7338 1.54063C21.3107 1.69368 21.0433 1.1388 21.3003 0.461945C21.3094 1.32853 21.5249 1.83447 21.9333 1.81456C22.1818 1.80416 22.1185 1.43057 22.2739 1.15838C22.3214 1.07623 22.5096 1.32975 22.5382 1.15208C22.6368 0.571648 22.4469 -0.0767674 22.917 0.177923C22.9172 0.17803 22.9174 0.178136 22.9176 0.178243C22.9248 0.182571 22.9213 0.224783 22.917 0.278476C22.9112 0.349105 22.9041 0.439599 22.917 0.489842C22.9221 0.509754 22.9304 0.523346 22.9432 0.526894C23.3891 0.656104 23.4542 0.0506623 23.9585 0.00239646C24.3578 -0.0355175 25.0122 0.397911 25.4308 0.520539C25.2907 1.47981 25.7001 1.31582 25.9806 0.686907C26.2535 0.76184 26.5591 0.784159 26.8051 0.934111C26.8893 0.985372 26.7673 1.24585 26.7722 1.27805C26.8366 1.78084 27.1001 1.17572 27.1665 1.16585C27.8692 1.0865 28.2263 1.71153 28.9717 1.46689C28.9975 1.45789 29.2653 0.83742 29.2548 1.35889C29.2522 1.39422 28.952 1.6087 29.2187 1.73473C29.4898 1.86217 29.8483 2.40172 30.3431 2.28994C30.4609 2.26159 30.9318 1.88011 30.9221 2.35454C30.9198 2.41842 30.8067 2.57779 30.7921 2.69094C30.744 3.05102 31.119 2.47804 30.9757 3.05707C30.8325 3.6366 30.8606 4.14304 31.392 3.99498C31.408 3.991 31.7651 3.57518 31.8687 3.64888C32.0325 3.76569 32.2094 4.01297 32.3825 4.12554C32.4658 4.1794 32.601 3.86624 32.6187 3.87082C33.2899 4.1016 33.5079 4.63953 33.9712 5.19915C34.0536 5.29994 34.6482 5.21241 34.5924 5.65524C34.5245 6.13555 33.198 7.13857 33.8865 7.26507C34.1513 7.30795 35.9062 6.11665 35.4145 7.19258C36.2104 7.69089 36.2597 8.67292 37.054 9.20185C37.0894 9.22539 37.6511 9.02282 37.6964 9.11136C37.7619 9.24199 37.5692 9.4502 37.6054 9.54622C37.7503 9.95192 38.1411 10.1826 38.2947 10.5706C38.3527 10.7171 38.0762 10.7925 38.1418 10.9646C38.2059 11.1352 38.596 11.0937 38.5343 11.3978C38.4866 11.6294 37.859 12.0915 37.863 12.3418C38.5612 12.0752 38.6109 12.2376 38.9007 12.4578C38.9568 12.5003 39.1801 12.3524 39.2193 12.3681C39.3849 12.4322 39.2165 12.6044 39.3899 12.6612C39.4317 12.6753 39.6741 12.5951 39.7221 12.6026C40.141 12.6666 39.6874 13.1438 39.6051 13.2195C39.2986 13.5203 39.6424 13.517 39.5393 13.7065C39.4347 13.8928 39.1953 13.7227 39.1532 13.916C39.0652 14.3126 39.2072 14.7502 39.2629 15.1107C39.2867 15.2539 39.6035 15.0943 39.6147 15.1133C39.7568 15.4028 39.4441 15.7594 40.1397 15.8353C38.4275 16.2802 40.3363 15.9962 40.0354 16.4882C40.0106 16.5267 39.1887 16.6487 39.0546 16.5352C38.9206 16.4227 39.156 16.1999 38.9439 16.0503C38.8942 16.012 38.0912 15.8961 38.0399 15.8756C37.6394 15.6995 38.8548 15.4567 38.9196 15.4302C39.6176 15.1478 38.7364 15.0085 38.6647 14.9511C38.3343 14.6661 38.4353 14.3454 38.1773 14.1147C38.0096 13.9648 37.223 14.171 37.2086 14.0323C37.1594 13.5811 38.1716 13.0353 37.0941 12.9519C36.8636 12.9359 36.07 13.3414 36.6011 12.7837C36.6359 12.7511 37.1316 12.2739 36.7013 12.2982C36.6473 12.3018 36.4101 12.4052 36.3808 12.3925C36.1898 12.3064 36.3352 12.127 36.1733 12.0144C36.0116 11.9026 35.7912 11.788 35.7811 11.5782C35.7754 11.4528 36.1287 11.0919 36.2037 10.9832C36.4219 10.6732 35.8496 10.7964 36.1546 10.5023C36.4571 10.2006 37.1092 10.0674 37.1895 9.67934C36.6074 10.0163 36.0041 10.3524 35.4177 10.6897C35.1463 10.1958 35.006 9.60717 34.6274 9.1674C34.5802 9.11383 34.3394 9.393 34.2823 9.34268C34.0443 9.13262 34.0642 8.75411 33.7673 8.57472C33.5363 8.43694 33.0695 8.49933 32.8219 8.38748C33.2567 7.73196 32.7837 7.63752 32.6189 7.39749C32.5602 7.31243 32.7013 7.16304 32.6906 7.06444C32.644 6.69564 32.2986 7.29668 32.1736 7.33035C31.6452 7.48324 32.6014 6.27512 32.26 6.05773C32.2402 6.04376 31.5475 6.54915 31.493 6.57321C31.1266 6.71808 31.6337 6.322 31.5601 6.19388C31.4252 5.96107 31.3877 5.69692 31.0118 5.73868C30.8996 5.75049 30.4625 6.07841 30.5309 5.65766C30.5395 5.60228 30.6901 5.37644 30.6833 5.35376C30.5432 4.96139 30.1048 5.69449 29.8157 5.86249C29.5285 6.03173 29.5738 5.3911 29.5981 5.21344C29.667 4.75588 29.7848 5.09859 29.8112 5.06443C30.1343 4.65574 29.91 4.63658 29.7864 4.52647C30.1416 3.76939 29.906 3.70971 29.656 4.41558C29.6286 4.4925 29.7747 4.47775 29.7864 4.52647C29.2906 5.19485 29.057 5.19701 29.1279 4.38911C29.1588 4.01052 29.4394 3.67351 29.0123 3.6583C28.8195 3.65313 28.6648 4.21155 28.4661 4.30068C28.0194 4.50685 27.7862 3.85438 27.4107 3.82677C27.2781 3.81791 27.3052 4.15578 27.2129 4.16075C26.9705 4.17639 26.8379 3.89384 26.5816 3.95309C26.5588 3.95901 26.5257 4.29071 26.4568 4.27756C25.9349 4.18624 25.5193 3.88829 24.9596 3.80281C24.6891 3.76044 24.1893 3.89101 23.9146 3.83755C23.6048 3.77655 23.2561 3.55109 22.917 3.43586C22.7308 3.37198 22.5528 3.34151 22.4027 3.38811C22.1282 3.47314 22.2058 3.80096 22.1028 4.03113C21.9131 4.47633 21.4685 3.7336 21.3957 3.62059C21.3933 3.61641 21.6217 3.51665 21.4796 3.36008C21.3709 3.01621 21.3977 3.61887 21.3957 3.62059C21.3527 3.5447 20.8696 3.52737 20.7859 3.60529C20.7403 3.6467 20.8137 3.95171 20.7897 3.96741C20.2167 4.33498 19.6593 4.53571 19.0244 4.56375C19.0122 4.56067 18.9327 4.21999 18.9046 4.21711C18.5069 4.16992 18.4064 4.65307 18.2189 4.98815C18.0297 5.32455 17.7983 5.3252 17.4051 4.83822C17.2258 4.9929 16.822 4.88261 16.5786 4.82055C16.3345 4.75848 16.6101 5.3821 16.6019 5.40087C16.3444 6.01058 15.917 5.80111 15.429 6.02643C15.1974 6.13117 14.8356 6.48935 14.6622 6.70793C14.5254 6.88023 14.3269 6.82989 14.2333 7.03109C14.2207 7.05808 14.4276 7.28085 14.4284 7.29499C14.4847 7.71108 14.1067 7.06704 13.9889 6.99149C13.5603 6.7186 13.3075 6.5924 13.2303 6.95602C13.2096 7.04178 13.7699 7.96817 13.731 8.08801C13.6752 8.24587 13.4576 7.92676 13.4052 8.10212C13.4007 8.1169 13.5638 8.28667 13.4877 8.34477C13.1365 8.6165 12.699 8.87702 12.413 9.24764C12.3736 9.29731 12.71 9.47902 12.6592 9.55342C12.421 9.90224 12.1347 10.2524 11.7559 10.4911C11.6616 10.5495 11.4824 10.3484 11.4058 10.3226C10.9369 10.1735 11.3943 10.7212 11.3898 10.7526C11.2604 11.5586 10.4372 11.7743 10.3759 12.6188C10.3713 12.6695 10.9205 13.2435 10.2872 13.1366C10.2456 13.1277 9.5924 13.0289 9.95647 13.3084C9.97958 13.3252 10.3199 13.3607 10.2339 13.4928C10.1471 13.6279 10.2753 13.9272 9.86433 14.0177C9.73546 14.0439 9.07067 14.0175 9.5034 14.3617C9.53119 14.3917 10.566 14.9847 9.76874 14.8888C9.63768 14.8731 8.82188 14.65 9.18419 14.9956C9.25519 15.0606 9.45744 15.0214 9.54452 15.1667C9.67987 15.3862 9.40789 15.5852 9.7385 15.8743C9.79659 15.927 10.3345 16.1778 9.88561 16.2397C9.81521 16.25 9.54253 16.1683 9.50086 16.234C9.30121 16.5498 9.44945 16.9258 9.23093 17.2565C9.1542 17.3757 8.70378 17.2816 8.5739 17.4095C8.4438 17.5373 8.3159 17.8099 8.52188 17.9569C8.72785 18.1009 9.45536 17.9622 9.51157 18.1624C9.51887 18.188 9.52566 18.2136 9.53195 18.2391C9.73885 19.0642 9.411 19.9082 9.50749 20.7607C9.52241 20.8889 9.7571 20.7364 9.79823 20.9178C9.94546 21.6036 10.5168 22.6269 10.244 23.3897C10.0265 24.0173 9.47127 23.5629 9.45809 23.995C9.45696 24.2109 10.311 24.0477 10.3524 24.0734C10.7771 24.3437 10.5808 24.775 10.8738 25.0611C10.934 25.1187 11.1924 24.8816 11.2398 24.9311C11.4031 25.0965 11.3966 25.3789 11.5385 25.5475C11.6027 25.6223 11.8116 25.4643 11.8431 25.5488C11.9218 25.7493 11.9373 25.9641 11.8637 26.279C11.8575 26.3084 11.5161 26.3919 11.6035 26.532C11.7442 26.7558 11.7632 27.1733 12.154 27.2505C12.2711 27.273 12.725 26.8864 12.5386 27.3005C12.4999 27.3866 11.9286 27.8244 12.5436 27.5826C12.6499 27.5482 13.5053 27.2431 13.2447 27.7442C13.1761 27.8767 12.8506 28.3816 12.9958 28.3944C13.0166 28.3941 13.1987 28.1238 13.2847 28.1639C13.5831 28.3078 13.8037 28.5539 14.1141 28.6844C14.1968 28.718 14.3145 28.3836 14.4291 28.44C14.7432 28.5936 15.0247 28.9153 15.2406 29.1929C15.3196 29.2957 15.0926 29.4724 15.0826 29.5019C14.9289 29.9879 15.3743 29.4954 15.434 29.4892C15.809 29.4631 15.8377 29.8439 16.121 29.9153C16.1981 29.9351 16.3083 29.6369 16.3354 29.6204C16.6046 29.4605 16.2248 29.891 16.2809 29.9943C16.4392 30.2859 16.7341 30.4122 17.0086 30.5C17.1093 30.5316 17.1614 30.1539 17.2482 30.1849C17.7637 30.3611 18.2628 30.5984 18.7062 30.9557C18.7899 31.0236 18.6429 31.2696 18.6432 31.3369C18.6502 31.8096 19.043 31.2914 19.1034 31.2482C19.3907 31.0555 19.4071 31.3157 19.611 31.32C20.5937 31.3376 21.7227 31.6465 22.646 31.7598C22.7374 31.7715 22.8276 31.7832 22.917 31.7945C23.9854 31.927 24.9106 32.0493 25.9492 31.7574C26.0202 31.7373 25.8665 31.3906 25.9253 31.3688C26.6782 31.1053 27.4728 31.0003 28.1689 30.5875C28.2255 30.5544 28.0016 30.2668 28.0857 30.2034C28.2569 30.0712 28.501 29.9791 28.7421 29.9846C28.8598 29.9864 28.8687 30.3203 28.9862 30.3156C29.2613 30.3042 29.5149 30.1959 29.7112 30.0169C29.7935 29.9404 29.4707 29.711 29.5893 29.637C30.395 29.1202 31.0816 28.5377 32.1195 28.2171C32.1899 28.1956 32.7364 28.6888 32.7495 28.4817C32.6167 28.3271 32.4503 28.1551 32.303 27.9951C33.2361 26.9343 34.2905 25.9686 35.0123 24.7101C35.0421 24.6579 34.6513 24.5653 34.7059 24.465C35.0219 23.878 35.1738 23.2676 35.7652 22.7507C35.8231 22.6987 36.4578 22.9571 36.4273 22.723C36.422 22.6818 36.4313 22.3514 36.3108 22.2328C36.2923 22.2162 35.9711 22.1782 35.9898 22.0819C36.1039 21.5215 36.3035 20.9673 36.5863 20.4261C36.6325 20.3384 36.9526 20.4901 36.9885 20.4268C37.2417 19.9701 37.0372 19.4211 37.3675 18.9697C37.5889 18.6638 38.1702 18.803 38.7533 18.638C38.8358 18.6142 38.8522 18.3996 39.1881 18.3905C40.0339 18.3661 40.9584 18.4918 41.86 18.454C42.0548 18.4457 41.8465 18.0978 42.3152 18.3048C42.3469 18.3192 42.5001 18.5757 42.6574 18.6431C42.7665 18.6901 43.1101 18.6157 43.2489 18.7115C43.3873 18.8084 43.0981 18.9016 43.2574 19.0608C43.418 19.2221 43.8112 19.1687 43.8395 19.4901ZM15.4633 4.582C15.1397 4.38743 15.7033 5.44312 15.733 5.0996C15.7337 5.08178 15.4794 4.59146 15.4633 4.582ZM35.7317 9.08963C36.013 8.57632 35.2877 8.90463 35.0622 9.28391C34.8311 9.65605 35.6438 9.24204 35.7317 9.08963ZM37.3908 11.1118C37.628 10.6556 36.1011 11.3966 36.5394 11.505C36.5643 11.5115 37.3767 11.1378 37.3908 11.1118ZM38.8738 19.5004C38.89 19.4991 38.9168 19.345 38.9011 19.3401C38.5279 19.2338 38.4754 19.5342 38.8738 19.5004ZM38.7489 13.4044C38.9412 13.246 38.6043 13.0645 38.3689 13.2644C38.1791 13.4219 38.5094 13.5977 38.7489 13.4044ZM7.72599 10.98C7.70848 10.9751 7.64378 11.074 7.7361 11.1147C8.03308 11.2455 8.01875 11.0628 7.72599 10.98ZM39.4816 17.8686C39.5281 17.2152 40.8893 16.6649 40.7764 17.4665C40.7542 17.6074 40.3157 17.1854 40.1981 17.3696C39.9831 17.6935 40.8684 17.8918 40.3978 18.233C40.3123 18.2889 39.4768 17.902 39.4797 17.8675C39.4803 17.8678 39.481 17.8682 39.4816 17.8686ZM14.6709 3.37801C14.6596 3.36598 14.5094 3.43326 14.5138 3.449C14.6262 3.82163 14.9219 3.68996 14.6709 3.37801ZM5.35888 17.5311C5.32381 17.5385 5.28122 17.9307 5.31311 17.9444C5.92869 18.1521 6.01504 17.3888 5.35888 17.5311ZM25.434 0.547119C25.6716 0.194479 25.9152 0.187835 25.9799 0.68628C25.8009 0.629401 25.6152 0.596408 25.434 0.547119Z" fill="black"/>
</svg>
