<svg width="75" height="128" viewBox="0 0 75 128" fill="none" xmlns="http://www.w3.org/2000/svg">
<path d="M4.7411 126.739C4.74111 92.7392 -8.25887 44.6766 27.8224 41.5184C70.0339 37.8236 65.0639 89.725 70.7277 123.856C71.0797 124.906 71.2607 125.877 71.2411 126.739C71.0604 125.794 70.8897 124.832 70.7277 123.856C67.4126 113.969 48.9382 97.0783 40.275 97.7393C25.775 98.8455 8.22206 118.362 4.7411 126.739Z" fill="white"/>
<path d="M0.75425 123.977C0.62082 122.357 0.655048 120.191 0.729964 118.553C0.752999 118.036 0.977186 118.287 1.00209 117.928C1.04995 117.223 0.91188 116.584 0.971458 115.892C0.992162 115.663 1.34349 115.927 1.35746 115.687C1.43111 114.365 1.26765 113.123 1.25078 111.787C1.1662 105.184 0.741248 98.678 0.531918 91.927C0.461861 89.699 0.652149 86.9845 0.4683 84.6779C0.446413 84.4082 0.155287 84.5756 0.129853 84.5248C-0.258735 83.7254 0.341887 83.9817 0.412027 83.4562C0.690001 81.3695 0.725273 79.0603 0.674063 77.0319C0.652325 76.1761 0.038121 77.0124 0.397126 76.1637C0.421563 76.1051 0.726242 76.3327 0.768438 76.1007C0.86206 75.5841 0.856325 74.5478 0.905843 74.1397C1.0022 73.3467 1.00793 73.2159 1.06607 72.471C1.15164 71.4262 1.42019 70.2232 1.47912 69.1194C1.49145 68.8788 1.13488 69.1575 1.12657 68.7693C1.11704 68.3795 1.27904 67.3801 1.40493 67.058C1.52943 66.7347 1.75784 66.915 1.8238 66.8646C2.37378 66.4681 1.90591 65.1938 1.91912 65.0423C2.13081 62.3099 3.10361 60.0424 3.97351 57.6179C4.64674 55.7381 5.42559 53.742 6.42985 52.0945C7.62975 50.1361 8.96923 48.6831 10.5386 47.0922C10.7069 46.9246 10.2428 46.8487 10.4514 46.6417C12.6695 44.4464 15.3996 42.7983 18.3436 41.9021C18.6289 41.8168 18.3966 42.2648 18.6867 42.1996C20.5015 41.75 23.3201 41.7349 24.1827 40.1373C25.2594 39.9912 26.5779 39.8717 27.6893 39.9978C27.8154 40.0121 27.9375 40.0294 28.0552 40.05C28.7877 40.1817 28.1208 40.5911 28.9805 40.3783C29.1739 40.3319 28.8996 40.032 29.1923 39.9868C30.4389 39.798 31.6957 39.8728 32.9828 39.7393C33.2359 39.7116 33.1749 39.427 33.2482 39.378C33.8724 38.9797 34.8247 39.7213 35.0243 39.7882C36.6341 40.2823 37.851 40.3008 39.3388 40.5992C39.6966 40.6735 39.3475 40.2146 39.6967 40.2742C41.4933 40.5891 43.2927 41.1621 44.8664 41.9844C45.2114 42.1672 44.7583 42.3316 44.9151 42.434C45.5953 42.8837 46.0338 42.4109 46.6947 42.879C46.8333 42.9779 46.6247 43.1842 46.6385 43.225C46.8439 43.8613 47.5124 43.4537 47.6302 43.501C49.0954 44.08 49.5519 45.2251 50.7772 46.0205C50.9264 46.1188 50.8192 45.5935 51.2276 45.8902C53.9518 47.8674 56.2577 50.6681 57.7862 53.5386C58.026 53.987 57.6074 53.8266 57.5979 53.8713C57.4488 54.576 58.1975 54.4975 58.3074 54.6281C59.1362 55.6317 59.2022 56.9664 60.3198 57.3852C62.522 62.3959 64.532 67.4978 65.0173 72.8775C65.0242 72.946 64.6703 72.9009 64.6855 73.037C64.8527 74.6541 65.291 74.236 66.1354 75.168C66.3478 75.4046 65.7548 76.3715 65.7127 76.4536C65.5597 76.7561 65.0174 76.5782 64.9949 76.6738C64.8213 77.447 66.4203 77.0216 66.6001 78.0019C66.6029 78.033 66.281 77.9586 66.2662 78.0461C66.2191 78.3176 66.3829 78.5497 66.324 78.8182C66.1856 79.4323 65.4327 79.7757 66.0356 80.5647C66.113 80.665 67.0099 80.3438 67.1064 81.2259C67.1454 81.5764 67.3978 83.1256 67.3998 83.5723C67.4027 84.0139 67.0612 83.7598 67.0528 83.7928C66.8246 85.0099 66.5976 84.5931 66.0943 85.255C65.5917 85.9153 66.9586 85.5648 67.146 85.7821C67.3333 85.9999 67.1205 86.9004 67.0339 87.1257C66.9476 87.3509 66.7238 87.1129 66.6838 87.3082C66.4215 88.5949 67.443 87.7623 67.7152 88.1422C68.3581 89.04 67.4156 89.9168 67.4166 90.8099C67.4169 91.052 67.6296 90.8298 67.6761 91.0402C67.8564 91.8705 67.5905 92.4112 67.9905 93.336C68.0558 93.4869 68.7609 94.1956 68.3574 94.7458C68.2991 94.8237 68.0202 94.6493 68.0002 95.0138C67.9699 95.5582 68.0129 96.5286 68.1572 97.0955C68.2639 97.514 68.6395 96.9839 68.5616 97.5323C68.5265 97.776 68.2337 97.3604 68.1886 97.816C68.1434 98.2685 68.267 99.4049 68.3179 99.8363C68.369 100.267 68.6682 99.9992 68.6933 100.032C68.8385 100.231 69.0747 101.044 69.0814 101.117C69.481 104.809 69.2586 108.251 69.8255 111.826C69.8695 112.105 70.1888 111.881 70.199 111.924C70.4456 112.866 69.4604 112.209 69.2319 112.912C69.9102 112.739 69.8284 113.147 69.9815 113.822C70.0558 114.145 70.3021 113.936 70.3328 113.963C70.7932 114.402 70.3097 114.798 70.2129 114.898C69.857 115.265 70.3633 115.557 70.1266 115.805C69.8919 116.053 69.4445 115.601 69.528 116.247C69.7963 116.397 70.3814 115.841 70.5454 116.317C71.1613 118.134 71.1412 121.655 71.3352 123.131C71.5252 124.626 71.6593 125.099 71.7264 125.965C71.7494 126.255 71.7817 126.468 71.8209 126.628L70.6509 126.726C70.6063 126.083 70.2653 126.271 69.9952 125.643C69.611 124.834 70.8397 124.981 71.0615 124.793C71.2758 124.599 70.9839 124.517 71.0697 124.311C71.1533 124.099 71.4313 124.428 71.3585 124.001C71.2927 123.564 70.4445 122.652 70.1455 122.652C69.5057 122.606 69.1797 123.293 68.9252 122.267C68.91 122.208 69.2745 122.245 69.2035 122.028C68.6116 120.286 67.5652 118.641 66.6339 117.011C66.5068 116.788 66.9209 116.767 66.8493 116.634C66.0796 115.241 65.9492 116.044 64.9198 115.782C65.7153 115.399 65.8318 114.68 65.07 113.763C64.6071 113.21 64.3966 113.546 63.8949 113.373C63.7453 113.322 63.6059 112.773 63.4118 112.823C62.7783 112.986 62.6143 113.764 61.9924 112.701C61.9656 112.654 62.313 112.563 62.2031 112.415C61.4853 111.46 60.947 111.773 60.0003 110.92C59.2594 110.251 58.2254 108.756 57.4083 107.95C58.0766 107.244 57.1048 106.679 56.3368 106.905C55.7868 106.397 55.1519 105.921 54.6442 105.397C54.4704 105.218 54.7724 105.1 54.7669 105.056C54.6848 104.383 54.0294 104.699 53.8857 104.621C52.3615 103.763 51.4726 102.531 49.8198 102.054C49.7596 102.037 49.3231 102.556 49.2097 101.91C49.2023 101.866 49.827 101.887 49.1785 101.465C48.5372 101.045 47.4052 99.9981 46.3014 99.833C46.0178 99.7821 45.2405 100.031 44.9078 99.4421C44.8638 99.3624 45.0064 99.2107 44.9502 99.0733C44.7582 98.6322 44.3734 99.2155 44.1939 98.5441C44.0099 97.8761 43.2787 97.1708 42.0645 97.3908C42.0227 97.3968 41.6803 97.8904 41.3543 97.8576C41.053 97.8259 40.6456 97.777 40.2777 97.7741C39.9887 97.7716 39.7007 97.7812 39.4526 97.8132C39.1765 97.8498 39.3966 98.1601 39.3496 98.1722C37.5714 98.6119 36.2452 98.6524 34.3189 99.2068C33.9621 99.3084 33.1691 100.114 32.384 100.075C31.5087 100.045 31.5523 98.1839 30.048 99.3638C29.434 99.8532 29.6419 102.105 27.9903 101.832C25.968 103.358 23.7334 104.266 21.9773 106.145C21.898 106.229 21.9826 106.907 21.7727 107.068C21.4593 107.306 21.1189 107.235 20.8901 107.402C19.9277 108.099 19.2658 108.991 18.4032 109.732C18.0753 110.016 17.995 109.706 17.6053 110.048C17.2169 110.391 17.2234 110.896 16.5965 111.255C16.1244 111.525 15.2116 111.362 14.6485 111.81C15.162 112.355 14.8156 112.681 14.3632 113.445C14.2775 113.591 14.5881 113.641 14.5574 113.719C14.4378 114.041 14.0813 114.106 13.9864 114.424C13.9626 114.502 14.1476 114.678 14.1387 114.751C14.0697 115.379 13.094 115.607 12.9242 115.649C12.271 115.814 12.3522 116.228 11.9658 116.448C11.5801 116.668 11.845 116.071 11.458 116.384C10.64 117.053 9.84093 118.1 9.19315 118.924C8.9348 119.255 9.37999 119.235 9.34926 119.287C8.90367 120.009 8.08514 120.52 8.37473 121.288C6.58897 120.779 8.21118 121.802 7.24424 122.625C7.16852 122.689 6.40168 122.344 6.50929 121.958C6.62707 121.558 7.14331 121.258 7.29735 120.709C7.33607 120.575 7.10842 119.557 7.13339 119.445C7.29832 118.596 8.35503 119.262 8.43262 119.271C9.28381 119.359 9.15602 118.158 9.24928 117.949C9.69086 116.963 10.3891 116.396 10.8155 115.605C11.0914 115.096 10.5168 114.519 10.8368 114.192C11.9025 113.114 13.0799 113.511 13.3433 111.81C13.4049 111.445 12.5519 111.043 13.8173 110.749C13.8973 110.73 14.9207 110.606 14.9682 109.995C14.9743 109.917 14.7917 109.734 14.8321 109.664C15.1062 109.199 15.5033 109.103 15.8454 108.644C16.189 108.183 16.596 107.606 17.1374 107.238C17.4643 107.014 18.1603 107.043 18.3781 107.01C18.9956 106.922 19.0623 106.132 19.578 106.237C20.0939 106.346 20.0123 107.232 20.8334 106.896C20.4286 106.358 20.0451 105.78 19.6551 105.225C21.1417 104.031 22.7688 103.068 24.3349 101.96C24.5292 101.822 24.1237 101.66 24.3282 101.505C25.1949 100.849 26.1303 100.556 27.0528 99.8883C27.7591 99.3749 28.4275 98.564 29.2145 98.053C30.0751 98.4721 31.1884 97.6434 32.1532 97.3232C32.4857 97.2117 32.5445 97.4103 32.8023 97.3794C33.7726 97.2679 33.1186 96.7946 33.3268 96.6011C34.2437 95.7878 34.8333 97.2054 36.0608 96.8187C36.1209 96.797 36.7548 95.7918 36.8681 95.7178C37.5551 95.2265 37.0541 95.9672 37.5368 95.9288C38.4171 95.8705 39.0348 95.9692 40.0378 95.6419C40.0605 95.6345 40.0856 95.6244 40.1128 95.6121C40.47 95.4544 41.3369 95.0509 41.885 95.4848C41.9651 95.5456 41.8878 95.8099 41.9531 95.8334C43.1171 96.2618 43.2595 95.4563 44.0365 95.347C44.7769 95.2366 45.5917 96.1473 45.6996 96.3736C46.0366 96.9695 45.2583 96.4079 45.2175 96.4438C44.743 96.8217 45.4267 96.9599 45.917 97.2061C45.6908 98.0124 46.3536 98.2394 46.4106 97.4554C46.4159 97.3684 46.0087 97.2827 45.917 97.2061C46.6569 96.6172 47.5189 96.875 47.967 97.957C48.1737 98.4668 47.6486 98.6528 48.8094 99.1034C49.3309 99.3134 49.4228 98.7053 49.9425 98.8223C51.1259 99.0897 52.0969 100.351 53.1002 100.949C53.4641 101.165 53.3066 100.671 53.5627 100.811C54.2486 101.19 54.6556 101.781 55.3451 102.154C55.4082 102.188 55.4704 101.82 55.6663 101.965C57.1437 103.051 58.2363 104.234 59.6449 105.501C60.3277 106.112 61.65 107.105 62.2991 107.803C63.4386 109.008 64.4694 110.809 65.4783 111.791C66.1357 112.433 66.2557 112.072 66.6843 112.229C67.5144 112.53 67.77 114.102 67.7761 114.312C67.7775 114.318 67.2255 113.745 67.3548 114.181C67.229 114.591 67.769 114.305 67.7761 114.312C67.7914 114.449 68.6915 115.768 68.9227 115.995C69.0524 116.118 69.25 115.857 69.313 115.925C70.7864 117.526 72.0538 119.389 72.8594 121.634C72.8695 121.674 72.5241 121.754 72.5513 121.846C72.931 123.187 73.6011 123.854 74.0767 125.174C74.2646 125.694 74.3529 126.304 74.3128 126.809L68.2232 127.316C68.1694 126.84 68.2667 126.402 68.5472 126.003C68.3382 125.274 68.4146 124.13 68.4769 123.498C68.5383 122.863 67.8538 122.881 67.8319 122.829C67.1453 121.197 67.3913 120.149 67.2214 118.389C67.1399 117.541 66.8401 115.905 66.6622 115.009C66.5199 114.301 66.6287 113.844 66.4549 113.201C66.4316 113.114 66.1404 113.236 66.1259 113.211C65.6853 112.52 66.46 112.79 66.5749 112.625C66.9935 112.026 67.2115 111.662 66.8878 110.746C66.8137 110.536 65.687 110.007 65.5851 109.623C65.4542 109.121 65.854 109.275 65.7077 108.749C65.6955 108.704 65.4619 108.737 65.439 108.405C65.329 106.861 65.3029 105.176 65.1248 103.585C65.1013 103.368 64.7563 103.683 64.7163 103.369C64.5288 101.896 64.3867 100.289 64.4181 98.838C64.4271 98.4819 64.7095 98.6764 64.7793 98.5923C65.2005 98.0764 64.4534 97.4799 64.4293 97.3718C63.8362 94.7921 64.2393 92.7327 63.6321 90.1175C63.5981 89.9742 62.7369 88.9592 63.2978 88.3909C63.3351 88.3521 63.9115 87.7852 63.419 87.4075C63.3882 87.3844 63.0998 87.731 63.0639 87.196C63.0279 86.6605 62.6945 85.8409 62.9523 85.0681C63.0334 84.8236 63.5917 84.1919 62.9832 83.5771C62.9415 83.535 61.6394 82.6578 62.3675 82.1622C62.4873 82.0817 63.3321 82.011 62.7736 81.2694C62.6655 81.1286 62.5257 81.4387 62.343 81.0519C62.062 80.4599 62.1415 79.5844 61.6336 78.8908C61.544 78.7687 60.8782 78.3114 61.2199 77.7832C61.2733 77.7002 61.5757 77.7811 61.5612 77.5379C61.4906 76.3658 61.0604 75.2153 60.9971 74.0452C60.972 73.6233 61.4635 73.7301 61.4844 73.2766C61.5056 72.8226 61.414 71.941 61.1013 71.5549C60.789 71.1698 60.2064 71.8214 59.9844 71.1907C59.0045 68.4201 58.5673 65.6052 57.5451 62.9141C57.3947 62.5224 57.2872 62.9401 57.0465 62.3772C56.165 60.2338 54.1468 57.0178 53.4656 55.1709C52.932 53.6699 54.3421 55.0465 53.7856 53.9755C53.5027 53.4471 52.4524 53.4883 52.3489 53.4045C51.3104 52.5654 50.9558 51.6443 50.0206 50.9171C49.8276 50.7698 49.7675 51.1809 49.6073 51.0551C49.0593 50.6303 48.6018 50.0479 48.0575 49.6677C47.8131 49.4991 47.6994 49.7404 47.4959 49.5662C47.0044 49.1533 46.5953 48.7493 46.1744 48.2074C46.1345 48.1573 46.6461 48.0867 46.2288 47.8209C45.5561 47.3961 44.7928 46.721 43.8307 46.5685C43.5428 46.5248 43.3097 47.0697 42.9359 46.473C42.8562 46.3501 43.2626 45.7328 42.4013 46.0707C42.2557 46.1208 40.9035 46.5382 40.5395 45.8826C40.4422 45.7068 40.231 45.0392 39.8808 45.0468C39.8337 45.0502 39.9297 45.4045 39.6565 45.3688C38.6864 45.2375 37.6926 45.0159 36.695 44.9808C36.4264 44.9723 36.7755 45.3535 36.379 45.3319C35.2589 45.27 33.9608 45.0944 32.857 44.9673C32.4515 44.92 32.7372 44.6509 32.7086 44.6203C32.2331 44.1249 31.934 44.7834 31.7744 44.8222C30.8384 45.0576 30.0927 44.7774 29.1742 44.9177C28.9209 44.9563 29.1228 45.2567 29.074 45.288C28.5695 45.5973 28.9204 45.0081 28.58 44.9716C28.4303 44.9558 28.2774 44.9458 28.122 44.941C27.3005 44.913 26.4689 45.0392 25.7421 45.1898C25.4267 45.2563 25.8405 45.5566 25.5604 45.6123C23.8391 45.963 22.152 46.3724 20.5729 46.7686C20.2797 46.8416 20.353 46.5131 20.2711 46.4765C19.6858 46.2241 19.306 47.061 19.2069 47.1735C18.7117 47.7008 18.3949 47.5881 17.892 47.9198C15.4856 49.4808 12.9063 51.7979 11.349 54.1124C9.32228 57.0892 8.05948 59.8574 7.25099 63.4877C7.20079 63.7206 7.6174 63.5713 7.57938 63.7722C7.08429 66.3257 6.56386 68.9374 6.42735 71.622C6.41559 71.8441 6.79519 71.557 6.78863 71.9136C6.7772 72.6526 6.69235 73.56 6.53682 74.2926C6.46165 74.6505 6.18761 74.1479 6.11831 74.5099C5.95663 75.3569 5.8923 76.2752 5.92238 77.1502C5.93614 77.5243 6.31308 76.972 6.30326 77.4568C6.24823 80.7663 6.35839 84.0372 6.01713 87.4464C5.99384 87.6804 5.26895 87.9138 5.42992 88.4072C5.63473 88.4364 5.87373 88.4244 6.09166 88.4318C6.41313 93.325 6.5085 98.2161 6.8312 103.19C6.84492 103.4 7.20584 103.009 7.23439 103.415C7.39985 105.764 7.67578 108.046 7.45471 110.489C7.43325 110.732 6.74355 110.655 6.89378 111.356C6.92115 111.479 7.08144 112.537 7.2465 112.802C7.27118 112.838 7.57723 112.624 7.60812 112.966C7.78291 114.97 7.8275 117.07 7.71966 119.09C7.7015 119.414 7.34747 119.085 7.33151 119.316C7.22111 120.956 7.53492 122.728 7.25199 124.313C7.06004 125.371 6.46691 124.988 5.89479 125.548C5.81432 125.627 5.80502 126.269 5.46856 126.302C4.62343 126.389 3.69655 126.086 2.79588 126.215C2.60243 126.243 2.81212 127.077 2.34272 126.584C2.3116 126.549 2.15384 125.944 1.99329 125.796C1.88253 125.692 1.54199 125.882 1.39958 125.671C1.25718 125.461 1.54166 125.225 1.37153 124.873C1.19885 124.521 0.813206 124.684 0.75425 123.977ZM68.7689 120.62C69.0111 120.001 67.8147 120.084 68.1858 120.665C68.2052 120.693 68.7572 120.652 68.7689 120.62ZM23.3123 103.827C24.2336 103.806 24.2094 102.878 23.534 102.857C22.8536 102.842 23.0295 103.836 23.3123 103.827ZM17.5175 109.119C18.4453 108.833 17.4136 107.479 16.9384 108.378C16.9104 108.43 17.4632 109.137 17.5175 109.119ZM5.68715 122.98C5.67161 122.988 5.66678 123.447 5.68261 123.458C6.06812 123.694 6.07763 122.774 5.68715 122.98ZM12.4033 114.921C12.7527 114.872 13.0858 114.112 12.646 114.172C12.2891 114.222 11.9647 114.984 12.4033 114.921ZM66.8392 90.9009C66.856 90.8899 66.8337 90.5594 66.7344 90.5777C66.4147 90.6376 66.5586 91.0839 66.8392 90.9009ZM4.78921 125.591C5.74121 123.859 7.5578 123.634 6.40368 125.316C6.20161 125.623 6.39684 124.407 6.05799 124.756C5.43535 125.405 5.94901 126.328 5.19095 126.91C5.0354 127.041 4.72382 125.689 4.78895 125.588C4.78903 125.589 4.78912 125.59 4.78921 125.591ZM70.1451 120.09C70.1591 120.077 70.1115 119.626 70.0945 119.618C69.6844 119.426 69.7803 120.336 70.1451 120.09ZM64.4168 71.7455C64.4449 71.7119 64.2205 70.6693 64.1807 70.6445C63.4463 70.2608 63.8954 72.3532 64.4168 71.7455ZM57.4121 107.918C56.7894 107.873 56.3239 107.526 56.3382 106.907C56.6927 107.245 57.0603 107.572 57.4121 107.918Z" fill="black"/>
<circle cx="31.275" cy="18.2391" r="17" fill="white"/>
<path d="M52.1975 19.4901C52.2614 20.2343 52.0366 21.1922 51.7552 21.8842C51.668 22.1009 51.4801 21.9488 51.4099 22.094C51.2723 22.375 51.3144 22.6763 51.1498 22.9461C51.0943 23.0346 50.7959 22.8378 50.7454 22.931C50.4706 23.4378 50.4093 23.9666 50.1643 24.4819C48.9587 26.9997 47.479 29.2619 45.5404 31.1767C44.899 31.8131 43.9137 32.3298 43.292 33.004C43.2192 33.0835 43.4541 33.2725 43.4535 33.3043C43.4324 33.7982 43.1451 33.2655 42.9331 33.3307C42.0897 33.5902 41.3369 34.0606 40.7117 34.5529C40.4454 34.7622 41.0281 35.1047 40.568 34.9864C40.5367 34.9784 40.4589 34.6635 40.3625 34.6789C40.1451 34.7146 39.8247 34.9458 39.669 34.995C39.3699 35.0886 39.326 35.1129 39.0598 35.2323C38.6926 35.393 38.1992 35.4312 37.8265 35.6468C37.7465 35.6939 37.9736 35.9518 37.8538 36.0546C37.734 36.1581 37.3536 36.2618 37.2044 36.2302C37.0554 36.1993 37.0312 35.9418 36.9913 35.894C36.6662 35.4879 36.4454 36.2581 36.3888 36.2903C35.4445 36.8508 34.4612 36.6489 33.4997 36.7658C32.7682 36.8555 31.9866 37.0248 31.275 37.0089C31.2691 37.0088 31.2633 37.0087 31.2574 37.0085C30.4047 36.9837 29.7072 36.7634 28.8934 36.6913C28.8073 36.683 28.8599 37.0704 28.7531 37.0605C27.6162 36.9543 26.4949 36.6573 25.5036 36.0686C25.4047 36.0092 25.6441 35.7388 25.5531 35.661C24.9784 35.1926 24.3185 34.2116 23.3457 35.3436C22.9442 35.0965 22.4619 34.7815 22.2463 34.3253C22.1089 34.0319 22.5095 33.846 22.1569 33.8195C22.0774 33.8126 21.9985 34.133 21.89 34.1009C21.4307 33.9635 21.0614 33.6025 20.5912 33.4711C20.4948 33.4448 20.352 33.6905 20.3004 33.7165C19.8706 33.9191 19.9691 33.1396 19.9387 33.0528C19.6761 32.3833 19.2505 32.2137 18.8323 31.8205C18.7361 31.7289 18.5945 32.1158 18.4915 32.0362C17.9596 31.6183 17.4904 31.0857 17.1881 30.4799C17.1219 30.3448 17.4543 30.2337 17.4359 30.1589C17.3561 29.8348 16.8426 30.1742 16.7596 29.8609C16.7421 29.7957 16.9807 29.6498 16.9975 29.622C17.265 29.1908 16.6408 29.4904 16.6001 29.4618C16.0872 29.1248 16.4559 28.418 16.0822 28.027C16.0363 27.979 15.8212 28.2938 15.7093 28.1456C14.9613 27.1579 14.4473 25.9145 14.285 24.6883C14.2593 24.4978 14.5534 24.5306 14.5795 24.5078C14.9898 24.1555 14.3112 24.2767 14.266 24.2258C13.9302 23.8275 14.3511 23.2452 13.4837 23.1469C13.2625 21.4985 12.8015 19.8842 13.0689 18.2391C13.135 17.8356 13.2452 17.444 13.4141 17.0581C13.4242 17.0335 13.7556 17.1002 13.7742 17.0516C14.0065 16.4713 13.4794 16.5525 12.8912 16.0667C12.7442 15.9399 13.5484 15.7272 13.6081 15.712C13.8277 15.6441 14.3068 15.8154 14.3513 15.7889C14.702 15.579 13.0643 15.3686 13.1298 14.9866C13.1346 14.9754 13.4247 15.0775 13.46 15.0516C13.5704 14.9721 13.4696 14.8547 13.5904 14.7807C13.8705 14.6109 14.6671 14.7087 14.2834 14.2939C14.2344 14.2399 13.306 14.0925 13.4306 13.7702C13.4786 13.6431 13.6232 13.0561 13.7324 12.9144C13.8392 12.7719 14.0936 12.9707 14.1097 12.9628C14.6219 12.6612 14.7297 12.8717 15.3555 12.8584C15.978 12.8543 14.6348 12.4502 14.517 12.3131C14.3993 12.1753 14.8201 11.9856 14.9548 11.9562C15.0894 11.9252 15.2334 12.0838 15.3183 12.0439C15.8754 11.7853 14.7454 11.601 14.5971 11.3742C14.2535 10.8263 15.3256 10.9767 15.5535 10.7357C15.6163 10.6685 15.3716 10.6308 15.3862 10.5498C15.4494 10.2277 15.8213 10.212 15.7294 9.75798C15.7129 9.68622 15.314 9.11747 15.8082 9.18305C15.8787 9.19374 16.0642 9.38918 16.1817 9.30429C16.3573 9.17752 16.5923 8.90697 16.6367 8.68238C16.6697 8.51567 16.213 8.43206 16.435 8.33755C16.5338 8.29666 16.6501 8.57143 16.8172 8.48499C16.9828 8.39901 17.214 8.05342 17.3026 7.92134C17.3899 7.78907 17.079 7.66459 17.069 7.64139C17.015 7.50345 17.0831 7.15883 17.1014 7.13717C17.9513 5.99572 19.2392 5.47332 20.1533 4.4978C20.2266 4.42091 19.9578 4.19906 19.9668 4.18458C20.165 3.84367 20.5051 4.73275 20.8846 4.82147C20.4315 4.29625 20.6238 4.3039 20.7811 4.09209C20.857 3.98964 20.6446 3.81307 20.6371 3.78438C20.5459 3.34537 20.9609 3.69682 21.0483 3.76685C21.3739 4.02162 21.2136 3.56359 21.4311 3.73596C21.6447 3.90876 21.7135 4.33231 21.9039 4.19807C21.822 3.95443 21.3115 3.51568 21.4081 3.32502C21.7811 2.58592 23.2107 2.37729 23.7354 2.20242C24.2657 2.01383 24.4176 1.90507 24.7527 1.8659C25.3584 1.80421 24.9859 1.43324 25.2652 1.09853C25.5519 0.766668 25.7557 1.94884 25.8869 2.17267C26.0144 2.39816 25.9832 2.13275 26.0852 2.24661C26.1859 2.36096 26.1152 2.5655 26.2655 2.57226C26.4131 2.57871 26.6537 2.03609 26.6357 1.7659C26.5916 1.19368 26.2518 0.671488 26.7025 0.766392C26.7281 0.772464 26.7339 1.09252 26.8276 1.10066C27.5617 1.15758 28.2713 1.03524 28.977 1.15533C29.0735 1.17247 29.036 1.52658 29.0918 1.54063C29.6688 1.69368 29.4013 1.1388 29.6584 0.461945C29.6674 1.32853 29.8829 1.83447 30.2913 1.81456C30.5399 1.80416 30.4765 1.43057 30.6319 1.15838C30.6794 1.07623 30.8677 1.32975 30.8963 1.15208C30.9948 0.571648 30.8049 -0.0767674 31.275 0.177923C31.2752 0.17803 31.2754 0.178136 31.2756 0.178243C31.2828 0.182571 31.2794 0.224783 31.275 0.278476C31.2693 0.349105 31.2621 0.439599 31.275 0.489842C31.2801 0.509754 31.2884 0.523346 31.3012 0.526894C31.7472 0.656104 31.8122 0.0506623 32.3165 0.00239646C32.7158 -0.0355175 33.3702 0.397911 33.7888 0.520539C33.6487 1.47981 34.0581 1.31582 34.3387 0.686907C34.6115 0.76184 34.9171 0.784159 35.1631 0.934111C35.2473 0.985372 35.1254 1.24585 35.1302 1.27805C35.1946 1.78084 35.4581 1.17572 35.5246 1.16585C36.2272 1.0865 36.5843 1.71153 37.3297 1.46689C37.3555 1.45789 37.6233 0.83742 37.6129 1.35889C37.6102 1.39422 37.31 1.6087 37.5768 1.73473C37.8478 1.86217 38.2063 2.40172 38.7011 2.28994C38.819 2.26159 39.2898 1.88011 39.2802 2.35454C39.2779 2.41842 39.1648 2.57779 39.1501 2.69094C39.102 3.05102 39.477 2.47804 39.3337 3.05707C39.1905 3.6366 39.2186 4.14304 39.7501 3.99498C39.766 3.991 40.1232 3.57518 40.2267 3.64888C40.3906 3.76569 40.5674 4.01297 40.7405 4.12554C40.8238 4.1794 40.959 3.86624 40.9768 3.87082C41.648 4.1016 41.8659 4.63953 42.3292 5.19915C42.4116 5.29994 43.0062 5.21241 42.9504 5.65524C42.8825 6.13555 41.556 7.13857 42.2446 7.26507C42.5093 7.30795 44.2642 6.11665 43.7725 7.19258C44.5685 7.69089 44.6177 8.67292 45.4121 9.20185C45.4474 9.22539 46.0091 9.02282 46.0544 9.11136C46.1199 9.24199 45.9272 9.4502 45.9634 9.54622C46.1084 9.95192 46.4991 10.1826 46.6528 10.5706C46.7108 10.7171 46.4343 10.7925 46.4998 10.9646C46.5639 11.1352 46.954 11.0937 46.8923 11.3978C46.8447 11.6294 46.217 12.0915 46.221 12.3418C46.9192 12.0752 46.9689 12.2376 47.2588 12.4578C47.3148 12.5003 47.5381 12.3524 47.5773 12.3681C47.7429 12.4322 47.5746 12.6044 47.748 12.6612C47.7898 12.6753 48.0322 12.5951 48.0801 12.6026C48.499 12.6666 48.0454 13.1438 47.9631 13.2195C47.6566 13.5203 48.0005 13.517 47.8973 13.7065C47.7927 13.8928 47.5534 13.7227 47.5112 13.916C47.4233 14.3126 47.5652 14.7502 47.621 15.1107C47.6447 15.2539 47.9615 15.0943 47.9727 15.1133C48.1148 15.4028 47.8021 15.7594 48.4977 15.8353C46.7856 16.2802 48.6943 15.9962 48.3934 16.4882C48.3687 16.5267 47.5468 16.6487 47.4126 16.5352C47.2786 16.4227 47.514 16.1999 47.302 16.0503C47.2522 16.012 46.4492 15.8961 46.3979 15.8756C45.9974 15.6995 47.2128 15.4567 47.2777 15.4302C47.9756 15.1478 47.0944 15.0085 47.0227 14.9511C46.6923 14.6661 46.7934 14.3454 46.5353 14.1147C46.3676 13.9648 45.581 14.171 45.5666 14.0323C45.5174 13.5811 46.5296 13.0353 45.4521 12.9519C45.2216 12.9359 44.428 13.3414 44.9591 12.7837C44.9939 12.7511 45.4897 12.2739 45.0593 12.2982C45.0054 12.3018 44.7681 12.4052 44.7389 12.3925C44.5478 12.3064 44.6932 12.127 44.5313 12.0144C44.3696 11.9026 44.1492 11.788 44.1391 11.5782C44.1334 11.4528 44.4867 11.0919 44.5617 10.9832C44.7799 10.6732 44.2077 10.7964 44.5126 10.5023C44.8152 10.2006 45.4673 10.0674 45.5475 9.67934C44.9655 10.0163 44.3621 10.3524 43.7757 10.6897C43.5044 10.1958 43.364 9.60717 42.9854 9.1674C42.9382 9.11383 42.6975 9.393 42.6404 9.34268C42.4023 9.13262 42.4222 8.75411 42.1253 8.57472C41.8944 8.43694 41.4275 8.49933 41.18 8.38748C41.6148 7.73196 41.1417 7.63752 40.977 7.39749C40.9182 7.31243 41.0593 7.16304 41.0487 7.06444C41.0021 6.69564 40.6566 7.29668 40.5316 7.33035C40.0033 7.48324 40.9595 6.27512 40.618 6.05773C40.5982 6.04376 39.9055 6.54915 39.851 6.57321C39.4847 6.71808 39.9918 6.322 39.9181 6.19388C39.7832 5.96107 39.7457 5.69692 39.3698 5.73868C39.2576 5.75049 38.8205 6.07841 38.889 5.65766C38.8975 5.60228 39.0481 5.37644 39.0413 5.35376C38.9012 4.96139 38.4628 5.69449 38.1737 5.86249C37.8866 6.03173 37.9318 5.3911 37.9561 5.21344C38.025 4.75588 38.1428 5.09859 38.1693 5.06443C38.4923 4.65574 38.2681 4.63658 38.1444 4.52647C38.4996 3.76939 38.264 3.70971 38.014 4.41558C37.9867 4.4925 38.1328 4.47775 38.1444 4.52647C37.6486 5.19485 37.415 5.19701 37.4859 4.38911C37.5168 4.01052 37.7974 3.67351 37.3704 3.6583C37.1775 3.65313 37.0228 4.21155 36.8242 4.30068C36.3775 4.50685 36.1442 3.85438 35.7688 3.82677C35.6361 3.81791 35.6632 4.15578 35.5709 4.16075C35.3286 4.17639 35.1959 3.89384 34.9397 3.95309C34.9169 3.95901 34.8838 4.29071 34.8149 4.27756C34.2929 4.18624 33.8773 3.88829 33.3177 3.80281C33.0472 3.76044 32.5473 3.89101 32.2727 3.83755C31.9628 3.77655 31.6141 3.55109 31.275 3.43586C31.0888 3.37198 30.9108 3.34151 30.7607 3.38811C30.4862 3.47314 30.5638 3.80096 30.4608 4.03113C30.2712 4.47633 29.8265 3.7336 29.7537 3.62059C29.7514 3.61641 29.9797 3.51665 29.8376 3.36008C29.729 3.01621 29.7557 3.61887 29.7537 3.62059C29.7107 3.5447 29.2276 3.52737 29.1439 3.60529C29.0984 3.6467 29.1718 3.95171 29.1477 3.96741C28.5747 4.33498 28.0174 4.53571 27.3825 4.56375C27.3702 4.56067 27.2907 4.21999 27.2626 4.21711C26.865 4.16992 26.7644 4.65307 26.5769 4.98815C26.3877 5.32455 26.1563 5.3252 25.7632 4.83822C25.5839 4.9929 25.18 4.88261 24.9366 4.82055C24.6926 4.75848 24.9681 5.3821 24.96 5.40087C24.7025 6.01058 24.275 5.80111 23.787 6.02643C23.5555 6.13117 23.1937 6.48935 23.0202 6.70793C22.8835 6.88023 22.6849 6.82989 22.5913 7.03109C22.5788 7.05808 22.7857 7.28085 22.7865 7.29499C22.8427 7.71108 22.4647 7.06704 22.3469 6.99149C21.9184 6.7186 21.6656 6.5924 21.5884 6.95602C21.5677 7.04178 22.1279 7.96817 22.089 8.08801C22.0333 8.24587 21.8156 7.92676 21.7633 8.10212C21.7587 8.1169 21.9219 8.28667 21.8457 8.34477C21.4946 8.6165 21.057 8.87702 20.771 9.24764C20.7316 9.29731 21.068 9.47902 21.0172 9.55342C20.779 9.90224 20.4927 10.2524 20.1139 10.4911C20.0196 10.5495 19.8405 10.3484 19.7638 10.3226C19.2949 10.1735 19.7524 10.7212 19.7478 10.7526C19.6184 11.5586 18.7952 11.7743 18.734 12.6188C18.7293 12.6695 19.2785 13.2435 18.6453 13.1366C18.6037 13.1277 17.9504 13.0289 18.3145 13.3084C18.3376 13.3252 18.6779 13.3607 18.5919 13.4928C18.5052 13.6279 18.6333 13.9272 18.2224 14.0177C18.0935 14.0439 17.4287 14.0175 17.8614 14.3617C17.8892 14.3917 18.924 14.9847 18.1268 14.8888C17.9957 14.8731 17.1799 14.65 17.5422 14.9956C17.6132 15.0606 17.8155 15.0214 17.9026 15.1667C18.0379 15.3862 17.7659 15.5852 18.0965 15.8743C18.1546 15.927 18.6925 16.1778 18.2436 16.2397C18.1732 16.25 17.9006 16.1683 17.8589 16.234C17.6592 16.5498 17.8075 16.9258 17.589 17.2565C17.5122 17.3757 17.0618 17.2816 16.9319 17.4095C16.8018 17.5373 16.6739 17.8099 16.8799 17.9569C17.0859 18.1009 17.8134 17.9622 17.8696 18.1624C17.8769 18.188 17.8837 18.2136 17.89 18.2391C18.0969 19.0642 17.769 19.9082 17.8655 20.7607C17.8804 20.8889 18.1151 20.7364 18.1563 20.9178C18.3035 21.6036 18.8748 22.6269 18.6021 23.3897C18.3845 24.0173 17.8293 23.5629 17.8161 23.995C17.815 24.2109 18.669 24.0477 18.7104 24.0734C19.1351 24.3437 18.9388 24.775 19.2318 25.0611C19.292 25.1187 19.5505 24.8816 19.5978 24.9311C19.7612 25.0965 19.7546 25.3789 19.8965 25.5475C19.9607 25.6223 20.1696 25.4643 20.2011 25.5488C20.2798 25.7493 20.2953 25.9641 20.2217 26.279C20.2155 26.3084 19.8742 26.3919 19.9615 26.532C20.1022 26.7558 20.1213 27.1733 20.512 27.2505C20.6292 27.273 21.083 26.8864 20.8967 27.3005C20.8579 27.3866 20.2866 27.8244 20.9016 27.5826C21.0079 27.5482 21.8633 27.2431 21.6028 27.7442C21.5341 27.8767 21.2087 28.3816 21.3539 28.3944C21.3747 28.3941 21.5567 28.1238 21.6427 28.1639C21.9412 28.3078 22.1617 28.5539 22.4722 28.6844C22.5549 28.718 22.6725 28.3836 22.7872 28.44C23.1012 28.5936 23.3827 28.9153 23.5986 29.1929C23.6777 29.2957 23.4506 29.4724 23.4406 29.5019C23.287 29.9879 23.7323 29.4954 23.792 29.4892C24.167 29.4631 24.1957 29.8439 24.479 29.9153C24.5561 29.9351 24.6663 29.6369 24.6935 29.6204C24.9626 29.4605 24.5828 29.891 24.6389 29.9943C24.7972 30.2859 25.0921 30.4122 25.3667 30.5C25.4674 30.5316 25.5195 30.1539 25.6063 30.1849C26.1217 30.3611 26.6208 30.5984 27.0642 30.9557C27.1479 31.0236 27.0009 31.2696 27.0013 31.3369C27.0082 31.8096 27.401 31.2914 27.4614 31.2482C27.7488 31.0555 27.7651 31.3157 27.969 31.32C28.9518 31.3376 30.0807 31.6465 31.004 31.7598C31.0954 31.7715 31.1857 31.7832 31.275 31.7945C32.3434 31.927 33.2687 32.0493 34.3072 31.7574C34.3782 31.7373 34.2246 31.3906 34.2833 31.3688C35.0363 31.1053 35.8308 31.0003 36.5269 30.5875C36.5836 30.5544 36.3596 30.2668 36.4437 30.2034C36.6149 30.0712 36.859 29.9791 37.1001 29.9846C37.2178 29.9864 37.2267 30.3203 37.3442 30.3156C37.6193 30.3042 37.8729 30.1959 38.0692 30.0169C38.1515 29.9404 37.8287 29.711 37.9473 29.637C38.7531 29.1202 39.4396 28.5377 40.4775 28.2171C40.5479 28.1956 41.0944 28.6888 41.1075 28.4817C40.9747 28.3271 40.8084 28.1551 40.661 27.9951C41.5942 26.9343 42.6485 25.9686 43.3704 24.7101C43.4001 24.6579 43.0093 24.5653 43.0639 24.465C43.38 23.878 43.5319 23.2676 44.1232 22.7507C44.1812 22.6987 44.8159 22.9571 44.7853 22.723C44.7801 22.6818 44.7893 22.3514 44.6688 22.2328C44.6504 22.2162 44.3291 22.1782 44.3478 22.0819C44.462 21.5215 44.6616 20.9673 44.9444 20.4261C44.9906 20.3384 45.3106 20.4901 45.3466 20.4268C45.5997 19.9701 45.3952 19.4211 45.7256 18.9697C45.947 18.6638 46.5282 18.803 47.1113 18.638C47.1938 18.6142 47.2102 18.3996 47.5462 18.3905C48.3919 18.3661 49.3164 18.4918 50.218 18.454C50.4129 18.4457 50.2046 18.0978 50.6732 18.3048C50.7049 18.3192 50.8581 18.5757 51.0154 18.6431C51.1245 18.6901 51.4681 18.6157 51.6069 18.7115C51.7453 18.8084 51.4562 18.9016 51.6155 19.0608C51.7761 19.2221 52.1693 19.1687 52.1975 19.4901ZM23.8214 4.582C23.4977 4.38743 24.0613 5.44312 24.091 5.0996C24.0918 5.08178 23.8375 4.59146 23.8214 4.582ZM44.0897 9.08963C44.371 8.57632 43.6457 8.90463 43.4203 9.28391C43.1891 9.65605 44.0018 9.24204 44.0897 9.08963ZM45.7488 11.1118C45.9861 10.6556 44.4591 11.3966 44.8975 11.505C44.9223 11.5115 45.7348 11.1378 45.7488 11.1118ZM47.2318 19.5004C47.2481 19.4991 47.2748 19.345 47.2592 19.3401C46.8859 19.2338 46.8334 19.5342 47.2318 19.5004ZM47.1069 13.4044C47.2992 13.246 46.9624 13.0645 46.7269 13.2644C46.5371 13.4219 46.8674 13.5977 47.1069 13.4044ZM16.084 10.98C16.0665 10.9751 16.0018 11.074 16.0941 11.1147C16.3911 11.2455 16.3768 11.0628 16.084 10.98ZM47.8397 17.8686C47.8861 17.2152 49.2473 16.6649 49.1344 17.4665C49.1123 17.6074 48.6738 17.1854 48.5561 17.3696C48.3411 17.6935 49.2265 17.8918 48.7558 18.233C48.6703 18.2889 47.8349 17.902 47.8377 17.8675C47.8384 17.8678 47.839 17.8682 47.8397 17.8686ZM23.0289 3.37801C23.0176 3.36598 22.8674 3.43326 22.8719 3.449C22.9843 3.82163 23.28 3.68996 23.0289 3.37801ZM13.7169 17.5311C13.6818 17.5385 13.6392 17.9307 13.6711 17.9444C14.2867 18.1521 14.3731 17.3888 13.7169 17.5311ZM33.792 0.547119C34.0297 0.194479 34.2732 0.187835 34.3379 0.68628C34.159 0.629401 33.9732 0.596408 33.792 0.547119Z" fill="black"/>
</svg>
