<svg width="66" height="127" viewBox="0 0 66 127" fill="none" xmlns="http://www.w3.org/2000/svg">
<path d="M24.8836 41.7676C-0.653803 50.9936 0.302289 52.739 5.30234 87.7391C10.3024 122.739 17.4754 131.026 22.8024 124.739C21.3024 103.739 23.4864 106.604 29.3024 110.239C37.3024 115.239 29.1512 118.57 33.3024 124.739C47.8024 123.239 55.3024 128.739 55.3024 98.739C81.8024 69.2391 38.8023 36.7391 24.8836 41.7676Z" fill="white"/>
<path d="M1.01793 85.7509C0.699778 84.2664 0.536073 82.3404 0.470865 80.7809C0.451987 80.3066 0.695238 80.5136 0.692088 80.187C0.686645 79.5546 0.502585 78.9864 0.511766 78.3316C0.516301 78.1176 0.884769 78.3324 0.881988 78.1094C0.867278 76.9078 0.629385 75.7737 0.547593 74.563C0.258863 68.5349 -0.745668 62.5668 1.01278 55.8541C1.62534 53.6413 3.33003 51.1944 4.91525 49.4835C5.09665 49.279 4.77423 49.1851 4.79405 49.1309C5.13687 48.2818 5.35793 48.8982 5.79765 48.6109C7.57889 47.4674 9.45609 46.3838 11.0705 45.42C11.7447 45.0199 10.775 44.8546 11.6393 44.7888C11.6992 44.7839 11.6569 45.1542 11.8676 45.0872C12.3628 44.9244 13.1411 44.4983 13.5062 44.3615C14.2078 44.0995 14.2934 44.0595 14.9206 43.793C15.8061 43.4217 16.8363 43.1693 17.7688 42.7257C17.9573 42.6342 17.5839 42.4361 17.8702 42.265C18.154 42.0944 18.9962 41.7985 19.3128 41.7595C19.6271 41.7208 19.5945 42.0031 19.6659 42.0378C20.2518 42.3365 20.9507 41.3536 21.0775 41.2891C22.1988 40.7215 23.1721 40.3927 24.2668 40.0605C25.5596 39.661 26.8528 39.5985 28.1269 39.5914C30.0814 39.5856 31.9928 39.8243 33.7009 40.318C35.6535 40.894 37.2386 41.7109 38.9918 42.4982C39.1806 42.5843 39.1214 42.1386 39.354 42.2446C41.8052 43.3668 44.1102 44.7975 46.1217 46.522C46.3256 46.6973 45.8534 46.7697 46.0444 46.9605C47.2201 48.1088 48.7483 50.1789 50.4123 49.7262C51.2155 50.4908 52.154 51.4384 52.6532 52.3383C52.9693 52.9139 52.2826 52.7389 52.9346 53.1745C53.0811 53.2741 53.147 52.8906 53.3504 53.058C54.2089 53.7664 54.9521 54.7269 55.7891 55.4529C55.9603 55.6005 56.1361 55.3706 56.2163 55.3861C56.883 55.529 56.9207 56.6595 56.9983 56.8395C57.6203 58.2222 58.3617 58.9966 59.1175 60.1431C59.2912 60.4097 59.4007 59.8852 59.5798 60.1361C60.5053 61.4445 61.3153 62.9082 61.8675 64.393C61.9886 64.7228 61.5556 64.5795 61.5979 64.7436C61.7816 65.462 62.4035 65.3478 62.5725 66.0505C62.6078 66.198 62.3199 66.2324 62.3029 66.2695C62.0329 66.8443 62.795 66.9163 62.8512 67.0144C63.5604 68.2261 63.1844 69.2977 63.6505 70.5273C63.7065 70.6765 63.9452 70.2332 64.0818 70.6617C64.9962 73.52 65.3148 76.7728 64.9048 79.7262C64.8417 80.1812 64.5927 79.8424 64.559 79.8702C64.0305 80.3043 64.6858 80.643 64.6995 80.7976C64.7882 82.0098 64.057 82.9839 64.6978 83.9261C63.4757 88.814 61.4819 93.6212 57.8996 97.0368C57.8558 97.0794 57.6577 96.7884 57.5718 96.8736C56.5202 97.8949 57.0985 97.9977 56.9268 99.181C56.8988 99.3585 56.4997 99.4599 56.162 99.5112L56.4579 98.739C56.31 98.9164 56.1695 99.0578 56.1466 99.0851C55.9383 99.3298 55.4403 99.0745 55.3999 99.1564C55.0815 99.8268 56.7318 99.7302 56.7236 100.621C56.7206 100.649 56.4184 100.529 56.3874 100.603C56.2901 100.832 56.4076 101.06 56.2998 101.279C56.0495 101.788 55.2454 101.986 55.6913 102.788C55.7488 102.889 56.6896 102.767 56.6209 103.552C56.5959 103.831 56.5511 105.318 56.4682 105.687C56.3871 106.073 56.1003 105.79 56.0858 105.817C55.6302 106.821 55.4851 106.448 54.8627 106.937C54.2399 107.428 55.6482 107.378 55.7886 107.607C55.9286 107.841 55.5403 108.554 55.4061 108.759C55.2744 108.944 55.1059 108.683 55.0256 108.851C54.4962 109.94 55.67 109.415 55.8538 109.81C56.2893 110.704 55.1598 111.347 54.9467 112.079C54.8877 112.284 55.1492 112.14 55.1402 112.344C55.0946 113.164 54.7101 113.489 54.8117 114.453C54.828 114.613 55.2874 115.423 54.714 115.793C54.6327 115.841 54.4312 115.593 54.2879 115.903C54.0789 116.355 53.7574 117.194 53.6519 117.713C53.5739 118.098 54.1401 117.819 53.8264 118.255C53.6849 118.446 53.6131 117.962 53.368 118.32C53.1371 118.666 52.6731 119.627 52.4717 119.957C52.2638 120.316 52.6557 120.294 52.6573 120.334C52.6599 120.582 52.3219 121.328 52.261 121.393C49.8741 124.57 45.9884 124.589 42.8494 124.942C42.5958 124.97 42.7844 125.301 42.7459 125.309C41.8687 125.498 42.5213 124.556 41.8913 124.281C42.0069 124.969 41.6475 124.86 41.029 124.957C40.7293 125.004 40.9015 125.267 40.875 125.295C40.4453 125.716 40.1277 125.199 40.0442 125.093C39.7385 124.706 39.4354 125.182 39.2328 124.923C39.028 124.667 39.4715 124.264 38.8822 124.286C38.7239 124.539 39.1822 125.174 38.7367 125.292C37.3372 125.662 34.9208 125.476 33.3819 125.507L32.9451 125.566L32.6615 125.17C32.4937 124.873 32.3731 124.629 32.2613 124.408C31.6255 123.072 31.5116 122.565 31.471 121.697C31.5379 120.137 31.1013 120.71 30.9701 119.684C30.9087 118.663 32.0007 119.365 32.2719 119.275C32.5449 119.203 32.3162 119.017 32.4865 118.896C32.6565 118.779 32.7522 119.136 32.8829 118.802C33.011 118.474 32.8297 117.386 32.5981 117.197C32.1074 116.809 31.4533 117.078 31.8322 116.26C31.8533 116.212 32.1301 116.431 32.1957 116.243C32.7773 114.742 32.2357 113.167 31.1311 111.909C30.9807 111.728 31.3705 111.617 31.2808 111.506C30.326 110.403 30.3428 111.201 29.3757 111.3C29.8391 110.831 29.9588 110.344 29.5412 109.857C29.4144 109.705 29.2448 109.559 29.0266 109.418C28.4854 109.068 28.3774 109.445 27.8823 109.443C27.739 109.446 27.4869 108.978 27.326 109.086C26.7953 109.44 26.7934 110.19 26.0308 109.431C25.9976 109.398 26.2833 109.197 26.1562 109.101C25.7366 108.787 25.4287 108.771 25.1275 108.8C24.8542 108.837 24.4835 108.905 24.3736 108.956C24.3321 108.978 24.3945 108.945 24.3581 108.931C24.3252 108.917 24.1846 109.016 24.0573 109.195C23.788 109.564 23.5552 110.171 23.4563 110.647C22.4941 110.477 22.5943 111.501 23.2426 111.924C23.1677 112.583 23.1826 113.288 23.0815 113.939C23.0471 114.168 22.7681 114.014 22.7374 114.043C22.2566 114.469 22.9086 114.756 22.9345 114.904C23.1907 116.463 22.7451 117.77 23.2967 119.257C23.3167 119.312 23.9937 119.368 23.5219 119.781C23.4894 119.809 23.1582 119.337 23.1701 120.033C23.183 120.753 22.8998 122.091 23.2781 123.069C23.3682 123.295 23.954 123.851 23.5627 124.377C23.5094 124.447 23.3115 124.388 23.211 124.491C23.1284 124.577 23.1132 124.649 23.1267 124.716L23.1391 124.838L23.0505 124.949C22.9422 125.115 23.017 125.429 22.5223 125.322C21.8277 125.188 21.1497 125.303 20.5401 126.004C20.525 126.022 20.5107 126.621 20.182 126.692C19.6647 126.814 18.9405 126.67 18.4502 126.501C18.2176 126.425 18.2537 126.791 18.2108 126.783C16.4077 126.242 15.7473 124.922 14.8463 123.423C14.6804 123.143 13.7857 122.571 13.7836 121.8C13.8144 121.008 15.5788 120.875 14.5528 119.673C14.1547 119.2 11.8988 119.281 12.4596 117.762C11.3829 115.762 11.2624 113.584 10.2747 111.536C10.2303 111.443 9.57681 111.276 9.52307 111.053C9.44143 110.712 9.65275 110.452 9.60347 110.202C9.39676 109.122 8.9423 108.282 8.7264 107.24C8.64438 106.845 8.95321 106.925 8.86196 106.474C8.77167 106.025 8.33999 105.808 8.37255 105.142C8.39548 104.625 9.03924 104.028 8.99258 103.393C8.25672 103.527 8.18031 103.106 7.82601 102.372C7.75755 102.231 7.53595 102.444 7.49041 102.38C7.30068 102.125 7.46105 101.834 7.26431 101.598C7.21695 101.541 6.96607 101.589 6.91321 101.545C6.45394 101.173 6.86931 100.308 6.94241 100.158C7.21706 99.5803 6.85072 99.4313 6.92716 99.0309C7.00439 98.633 7.29229 99.152 7.30015 98.7027C7.31618 97.7728 7.06059 96.5855 6.91675 95.6838C6.85645 95.3167 6.56379 95.6247 6.54736 95.5736C6.33183 94.8341 6.55425 93.9615 5.81907 93.6734C7.46647 92.8682 5.57652 93.2531 5.74915 92.1007C5.76351 92.0094 6.5662 91.7709 6.73897 92.0827C6.91161 92.3941 6.73524 92.9328 6.99625 93.3508C7.05739 93.4496 7.92548 93.931 7.98743 94.0146C8.46276 94.6232 7.25594 94.9216 7.19476 94.9692C6.53789 95.4938 7.49433 96.1005 7.58569 96.2834C8.00391 97.1267 7.98029 97.9663 8.30595 98.6722C8.51906 99.1409 9.32364 99.021 9.37538 99.4211C9.55039 100.751 8.52153 101.382 9.74085 102.411C10.0014 102.629 10.8147 102.191 10.3302 103.258C10.3001 103.329 9.821 104.129 10.3065 104.445C10.3676 104.484 10.6198 104.426 10.6561 104.488C10.894 104.903 10.7604 105.243 10.9671 105.692C11.1726 106.135 11.4525 106.67 11.5033 107.239C11.5334 107.579 11.1707 108.11 11.0957 108.292C10.874 108.797 11.5449 109.154 11.2194 109.529C10.8943 109.913 10.1406 109.536 10.0795 110.331C10.7355 110.181 11.4179 110.059 12.0815 109.922C12.486 111.482 12.7388 113.08 13.2829 114.586C13.3524 114.775 13.6278 114.464 13.7107 114.662C14.0518 115.475 14.0894 116.325 14.515 117.114C14.8645 117.77 15.5082 118.299 15.9021 118.909C15.3802 119.615 16.1006 120.477 16.4247 121.153C16.5357 121.388 16.3451 121.469 16.3903 121.67C16.5669 122.41 16.9549 121.749 17.1453 121.845C17.9501 122.198 16.7481 123.188 17.4066 123.855C17.4543 123.91 18.405 123.679 18.4653 123.653C18.9702 123.628 18.3401 123.923 18.4991 124.116C18.7756 124.446 19.0008 124.751 19.3303 124.551C19.3761 124.52 19.4436 124.377 19.4877 124.285C19.5361 124.193 19.5683 124.158 19.7018 124.324C19.7379 124.367 19.8112 124.628 19.837 124.636C20.0835 124.689 20.1485 124.479 20.1176 124.246C20.0857 124.011 19.9762 123.742 19.9914 123.548C19.9935 123.194 20.7664 123.228 20.992 123.218C20.9977 123.218 21.0032 123.219 21.0087 123.219L20.4574 124.906C20.6408 124.698 20.6956 124.761 20.7069 124.889L21.1996 123.381C21.1288 123.469 20.9777 123.549 20.9885 123.57C21.1563 123.923 21.3234 123.84 21.5139 123.647L21.1179 124.859C21.1165 124.726 21.1078 124.581 21.111 124.449C21.9396 124.322 21.8463 123.698 21.1199 123.976C21.0405 124.007 21.1426 124.354 21.111 124.449C20.2646 124.097 20.1142 123.443 20.8293 122.619C21.1652 122.237 21.6019 122.537 21.385 121.479C21.2882 121.008 20.7243 121.223 20.5428 120.788C20.1295 119.806 20.6048 118.501 20.4865 117.46C20.4437 117.084 20.1406 117.46 20.1008 117.205C19.9954 116.555 20.2173 115.897 20.0908 115.236C20.0789 115.17 19.7504 115.333 19.7446 115.108C19.7064 113.456 19.9143 112.023 20.1806 110.131C20.2594 109.644 20.3073 109.018 20.5605 108.169C20.788 107.391 21.3903 106.116 22.6909 105.51C23.7621 104.998 24.8761 105.157 25.5185 105.381C26.1838 105.608 26.6335 105.897 27.0428 106.168C27.8283 106.707 28.4135 107.204 28.9767 107.492C29.6961 107.866 29.719 107.489 30.1261 107.483C30.3953 107.48 30.6202 107.614 30.8212 107.809C31.3239 108.256 31.613 108.919 31.6701 109.062C31.6721 109.063 30.9708 108.666 31.2196 109.047C31.2211 109.479 31.6598 109.057 31.6701 109.062C31.7165 109.164 32.9597 110.297 33.2245 110.539C33.3868 110.663 33.54 110.369 33.6215 110.44C34.5617 111.252 35.4887 112.598 35.7472 114.159C36.0175 115.719 35.6869 117.047 35.3821 118.002C35.3673 118.035 35.041 117.899 35.0108 117.978C34.5791 119.04 34.8435 119.715 35.0242 120.338C35.2121 120.949 35.1611 121.186 34.6281 121.615C34.7654 121.976 34.7394 122.625 34.8162 123.076C34.8829 123.514 35.5025 123.199 35.5288 123.218C35.5344 123.222 35.54 123.226 35.5455 123.23L33.0242 122.05C34.5697 121.475 35.5238 121.801 37.1305 121.79C37.9168 121.785 39.3985 121.645 40.2116 121.547C40.8318 121.469 41.2332 121.616 41.789 121.491C41.8662 121.474 41.7746 121.174 41.7978 121.162C42.413 120.771 42.1431 121.524 42.2804 121.65C42.7632 122.105 43.0956 122.347 43.852 122.052C44.0397 121.983 44.413 120.87 44.6941 120.765C45.0589 120.63 44.9753 121.032 45.3481 120.871C45.3788 120.857 45.3319 120.628 45.5584 120.591C46.6123 120.419 47.5446 120.181 48.1785 119.634C48.265 119.56 47.9193 119.361 48.0312 119.255C48.541 118.768 49.0624 118.059 49.6361 117.234C49.7745 117.039 49.9516 117.28 50.044 117.265C50.6144 117.15 50.1669 116.406 50.1749 116.341C50.5091 114.423 51.4277 112.893 51.44 110.6C51.4422 110.463 50.8257 109.447 51.4906 109.091C51.5351 109.068 52.2178 108.702 51.8142 108.269C51.7886 108.245 51.4363 108.481 51.5098 108.019C51.5814 107.577 51.4162 106.823 51.8189 106.175C51.9458 105.973 52.6131 105.55 52.1313 104.907C52.0981 104.873 50.985 103.835 51.7911 103.552C51.9237 103.502 52.7668 103.593 52.3555 102.849C52.2754 102.707 52.0805 102.957 51.9728 102.584C51.8066 102.012 52.0473 101.233 51.6786 100.556C51.6135 100.434 51.0458 99.9164 51.4822 99.4944C51.5506 99.4282 51.8318 99.5562 51.8642 99.3313C51.8923 99.1371 51.9089 98.9395 51.9183 98.739L51.9598 97.3428L52.7849 96.4776C53.3855 95.8727 53.8535 95.1649 54.4738 94.6341C54.7412 94.4034 54.9921 94.8233 55.3109 94.6085C55.6214 94.4063 56.1909 93.8262 56.238 93.3897C56.2876 92.9507 55.4539 92.8852 55.7234 92.3841C56.8618 90.238 58.3436 88.2798 59.1712 86.0291C59.2933 85.6909 58.9565 85.8905 59.1096 85.3923C59.7134 83.5727 59.9343 80.3268 60.4333 78.6745C60.8601 77.3166 61.2218 79.029 61.3827 77.9703C61.4552 77.4461 60.5741 76.9526 60.5382 76.839C60.1748 75.6926 60.4245 74.8409 60.1026 73.8069C60.035 73.596 59.7436 73.8759 59.6896 73.6978C59.5022 73.0936 59.4876 72.4095 59.2916 71.8304C59.2025 71.5712 58.9663 71.6941 58.9132 71.4495C58.7809 70.8649 58.7132 70.3265 58.7353 69.685C58.7368 69.6255 59.1709 69.8581 59.022 69.4265C58.7803 68.7326 58.6379 67.7732 58.0435 67.1038C57.8651 66.9049 57.3281 67.1594 57.4546 66.4902C57.4797 66.3507 58.1872 66.1518 57.3406 65.8675C57.198 65.8107 55.9652 65.2913 56.1631 64.5754C56.2163 64.3859 56.536 63.7763 56.2925 63.5583C56.2579 63.5305 56.0734 63.8415 55.9121 63.6408C55.3483 62.9331 54.8501 62.1319 54.2235 61.439C54.0561 61.2556 54.0036 61.7468 53.7635 61.4696C53.104 60.7088 52.3883 59.6757 51.8183 58.8558C51.609 58.5533 51.9819 58.5649 51.9874 58.5253C52.0716 57.8788 51.4066 58.1212 51.2844 58.042C50.5245 57.5394 50.2822 56.8358 49.647 56.3103C49.4723 56.1655 49.3635 56.5001 49.312 56.488C48.7922 56.3549 49.4333 56.1995 49.2675 55.9481C48.7998 55.2399 48.0996 54.6205 47.4474 54.0976C47.206 53.9048 47.2262 54.4065 47.0121 54.2308C45.7435 53.201 44.4406 52.1285 43.266 51.0486C43.0415 50.8424 43.358 50.724 43.3433 50.6354C43.2411 50.015 42.3675 50.1595 42.2174 50.13C41.5261 49.989 41.4462 49.6444 40.9229 49.3719C38.4038 48.0558 35.3554 46.3992 32.9537 45.5672C30.2007 44.5881 27.6984 44.1019 25.95 44.7194C25.6333 44.8349 25.3173 44.9531 25.0013 45.0749C24.7888 45.1565 25.1314 45.4277 24.9504 45.5024C22.6181 46.4484 20.2789 47.1633 18.0376 48.2026C17.8593 48.2851 18.2578 48.5017 17.9727 48.647C17.3549 48.9615 16.6325 49.2512 15.9702 49.4265C15.6534 49.5103 15.9237 49.0557 15.6071 49.1461C14.8832 49.3504 14.1405 49.6785 13.5137 50.0664C13.2512 50.2307 13.8281 50.3369 13.4784 50.5241C10.9934 51.8809 9.13943 53.2583 7.59893 54.8173C7.49436 54.9236 6.78952 54.6637 6.74304 55.0421C6.9097 55.1616 7.1214 55.2732 7.30804 55.3853C5.9187 58.1496 5.65789 62.3678 5.9229 66.6395C5.93501 66.8256 6.29861 66.4772 6.32418 66.8348C6.47125 68.8418 6.79837 70.8253 6.67864 73.0081C6.66824 73.2301 5.97602 73.2046 6.15545 73.8011C6.18705 73.9035 6.39775 74.8266 6.57808 75.0575C6.60469 75.0882 6.89793 74.8723 6.94766 75.179C7.22568 76.9181 7.41091 78.7734 7.4696 80.5765C7.47909 80.8718 7.09889 80.6096 7.10279 80.8206C7.12369 82.2518 7.61543 83.86 7.49975 85.2261C7.42567 86.1725 6.79599 85.917 6.29456 86.4918C6.22377 86.5726 6.29411 87.1553 5.9657 87.2339C5.13985 87.431 4.18301 87.2795 3.30751 87.523C3.11872 87.5738 3.43799 88.3302 2.90715 87.9312C2.87135 87.9025 2.63624 87.3582 2.45902 87.2432C2.33634 87.1625 2.02268 87.3843 1.85518 87.2081C1.68785 87.032 1.9408 86.7766 1.73103 86.4792C1.51941 86.1833 1.15418 86.3768 1.01793 85.7509ZM34.9865 123.143C35.5312 123.433 35.5333 122.234 34.9802 122.559C34.9533 122.576 34.9581 123.129 34.9865 123.143ZM11.8901 113.327C11.5883 114.124 12.4636 114.295 12.7101 113.738C12.9579 113.183 11.9821 113.085 11.8901 113.327ZM9.69635 106.783C9.4802 107.657 11.1567 107.369 10.6237 106.629C10.593 106.585 9.70954 106.735 9.69635 106.783ZM5.80829 84.2591C5.79433 84.2737 5.83681 84.6791 5.85363 84.6854C6.26074 84.8477 6.17476 84.0317 5.80829 84.2591ZM7.83421 100.17C7.65647 100.459 8.05383 101.097 8.27439 100.744C8.45186 100.461 8.05532 99.8132 7.83421 100.17ZM54.3661 112.012C54.385 112.008 54.4429 111.725 54.3422 111.716C54.0184 111.69 54.0506 112.094 54.3661 112.012ZM5.86763 88.6358C6.05698 90.3647 4.82907 91.5887 4.70584 89.7167C4.68377 89.3758 5.25643 90.3757 5.31722 89.929C5.42776 89.1132 4.47973 88.7127 4.82852 87.8222C4.89263 87.6627 5.85986 88.5388 5.87001 88.6386C5.86922 88.6376 5.86842 88.6367 5.86763 88.6358ZM35.3833 124.556C35.3951 124.571 35.8035 124.561 35.8118 124.545C36.0109 124.152 35.1837 124.173 35.3833 124.556ZM58.3111 95.9487C58.3558 95.95 58.9528 95.1654 58.9415 95.1213C58.7227 94.3571 57.5378 95.9131 58.3111 95.9487ZM23.4284 110.659C23.7472 111.114 23.7458 111.614 23.2432 111.922C23.2989 111.501 23.3466 111.057 23.4284 110.659Z" fill="black"/>
<circle cx="28.3024" cy="18.2391" r="17" fill="white"/>
<path d="M49.2249 19.4901C49.2887 20.2343 49.0639 21.1922 48.7826 21.8842C48.6954 22.1009 48.5074 21.9488 48.4372 22.094C48.2997 22.375 48.3417 22.6763 48.1772 22.9461C48.1217 23.0346 47.8233 22.8378 47.7727 22.931C47.498 23.4378 47.4366 23.9666 47.1916 24.4819C45.9861 26.9997 44.5064 29.2619 42.5677 31.1767C41.9264 31.8131 40.9411 32.3298 40.3193 33.004C40.2466 33.0835 40.4814 33.2725 40.4809 33.3043C40.4597 33.7982 40.1725 33.2655 39.9604 33.3307C39.1171 33.5902 38.3642 34.0606 37.739 34.5529C37.4727 34.7622 38.0554 35.1047 37.5954 34.9864C37.5641 34.9784 37.4862 34.6635 37.3898 34.6789C37.1725 34.7146 36.8521 34.9458 36.6964 34.995C36.3973 35.0886 36.3533 35.1129 36.0872 35.2323C35.7199 35.393 35.2265 35.4312 34.8539 35.6468C34.7739 35.6939 35.0009 35.9518 34.8811 36.0546C34.7614 36.1581 34.3809 36.2618 34.2317 36.2302C34.0827 36.1993 34.0585 35.9418 34.0187 35.894C33.6935 35.4879 33.4727 36.2581 33.4162 36.2903C32.4719 36.8508 31.4885 36.6489 30.527 36.7658C29.7955 36.8555 29.014 37.0248 28.3024 37.0089C28.2965 37.0088 28.2906 37.0087 28.2847 37.0085C27.4321 36.9837 26.7345 36.7634 25.9207 36.6913C25.8346 36.683 25.8873 37.0704 25.7804 37.0605C24.6436 36.9543 23.5222 36.6573 22.5309 36.0686C22.4321 36.0092 22.6714 35.7388 22.5804 35.661C22.0057 35.1926 21.3459 34.2116 20.373 35.3436C19.9715 35.0965 19.4892 34.7815 19.2736 34.3253C19.1363 34.0319 19.5369 33.846 19.1842 33.8195C19.1047 33.8126 19.0258 34.133 18.9174 34.1009C18.458 33.9635 18.0887 33.6025 17.6185 33.4711C17.5222 33.4448 17.3794 33.6905 17.3278 33.7165C16.898 33.9191 16.9965 33.1396 16.9661 33.0528C16.7034 32.3833 16.2779 32.2137 15.8596 31.8205C15.7635 31.7289 15.6219 32.1158 15.5188 32.0362C14.9869 31.6183 14.5178 31.0857 14.2154 30.4799C14.1492 30.3448 14.4817 30.2337 14.4632 30.1589C14.3835 29.8348 13.8699 30.1742 13.787 29.8609C13.7694 29.7957 14.008 29.6498 14.0248 29.622C14.2924 29.1908 13.6681 29.4904 13.6274 29.4618C13.1145 29.1248 13.4833 28.418 13.1096 28.027C13.0636 27.979 12.8486 28.2938 12.7366 28.1456C11.9886 27.1579 11.4747 25.9145 11.3123 24.6883C11.2866 24.4978 11.5807 24.5306 11.6069 24.5078C12.0171 24.1555 11.3385 24.2767 11.2933 24.2258C10.9576 23.8275 11.3785 23.2452 10.5111 23.1469C10.2898 21.4985 9.82881 19.8842 10.0962 18.2391C10.1623 17.8356 10.2726 17.444 10.4415 17.0581C10.4515 17.0335 10.783 17.1002 10.8016 17.0516C11.0338 16.4713 10.5067 16.5525 9.91854 16.0667C9.77153 15.9399 10.5757 15.7272 10.6355 15.712C10.855 15.6441 11.3342 15.8154 11.3786 15.7889C11.7294 15.579 10.0916 15.3686 10.1572 14.9866C10.162 14.9754 10.4521 15.0775 10.4873 15.0516C10.5977 14.9721 10.4969 14.8547 10.6177 14.7807C10.8979 14.6109 11.6945 14.7087 11.3108 14.2939C11.2617 14.2399 10.3333 14.0925 10.458 13.7702C10.5059 13.6431 10.6505 13.0561 10.7597 12.9144C10.8665 12.7719 11.121 12.9707 11.137 12.9628C11.6493 12.6612 11.757 12.8717 12.3828 12.8584C13.0053 12.8543 11.6621 12.4502 11.5443 12.3131C11.4266 12.1753 11.8475 11.9856 11.9822 11.9562C12.1168 11.9252 12.2607 12.0838 12.3456 12.0439C12.9027 11.7853 11.7727 11.601 11.6244 11.3742C11.2808 10.8263 12.353 10.9767 12.5809 10.7357C12.6436 10.6685 12.399 10.6308 12.4135 10.5498C12.4767 10.2277 12.8486 10.212 12.7568 9.75798C12.7402 9.68622 12.3414 9.11747 12.8356 9.18305C12.9061 9.19374 13.0915 9.38918 13.2091 9.30429C13.3847 9.17752 13.6196 8.90697 13.664 8.68238C13.697 8.51567 13.2404 8.43206 13.4624 8.33755C13.5611 8.29666 13.6774 8.57143 13.8445 8.48499C14.0102 8.39901 14.2413 8.05342 14.3299 7.92134C14.4172 7.78907 14.1063 7.66459 14.0963 7.64139C14.0424 7.50345 14.1105 7.15883 14.1288 7.13717C14.9787 5.99572 16.2665 5.47332 17.1806 4.4978C17.254 4.42091 16.9852 4.19906 16.9941 4.18458C17.1923 3.84367 17.5324 4.73275 17.912 4.82147C17.4588 4.29625 17.6511 4.3039 17.8085 4.09209C17.8844 3.98964 17.6719 3.81307 17.6645 3.78438C17.5732 3.34537 17.9883 3.69682 18.0756 3.76685C18.4013 4.02162 18.241 3.56359 18.4585 3.73596C18.6721 3.90876 18.7408 4.33231 18.9312 4.19807C18.8494 3.95443 18.3388 3.51568 18.4355 3.32502C18.8085 2.58592 20.2381 2.37729 20.7627 2.20242C21.2931 2.01383 21.4449 1.90507 21.7801 1.8659C22.3857 1.80421 22.0132 1.43324 22.2925 1.09853C22.5793 0.766668 22.7831 1.94884 22.9143 2.17267C23.0417 2.39816 23.0105 2.13275 23.1126 2.24661C23.2133 2.36096 23.1425 2.5655 23.2929 2.57226C23.4405 2.57871 23.681 2.03609 23.663 1.7659C23.6189 1.19368 23.2792 0.671488 23.7299 0.766392C23.7555 0.772464 23.7612 1.09252 23.8549 1.10066C24.589 1.15758 25.2986 1.03524 26.0043 1.15533C26.1009 1.17247 26.0633 1.52658 26.1191 1.54063C26.6961 1.69368 26.4286 1.1388 26.6857 0.461945C26.6948 1.32853 26.9103 1.83447 27.3187 1.81456C27.5672 1.80416 27.5038 1.43057 27.6593 1.15838C27.7067 1.07623 27.895 1.32975 27.9236 1.15208C28.0221 0.571648 27.8323 -0.0767674 28.3024 0.177923C28.3026 0.17803 28.3028 0.178136 28.3029 0.178243C28.3102 0.182571 28.3067 0.224783 28.3024 0.278476C28.2966 0.349105 28.2894 0.439599 28.3024 0.489842C28.3075 0.509754 28.3158 0.523346 28.3285 0.526894C28.7745 0.656104 28.8396 0.0506623 29.3439 0.00239646C29.7432 -0.0355175 30.3976 0.397911 30.8162 0.520539C30.676 1.47981 31.0855 1.31582 31.366 0.686907C31.6389 0.76184 31.9444 0.784159 32.1905 0.934111C32.2747 0.985372 32.1527 1.24585 32.1576 1.27805C32.222 1.78084 32.4854 1.17572 32.5519 1.16585C33.2546 1.0865 33.6116 1.71153 34.357 1.46689C34.3828 1.45789 34.6506 0.83742 34.6402 1.35889C34.6376 1.39422 34.3374 1.6087 34.6041 1.73473C34.8752 1.86217 35.2337 2.40172 35.7284 2.28994C35.8463 2.26159 36.3171 1.88011 36.3075 2.35454C36.3052 2.41842 36.1921 2.57779 36.1774 2.69094C36.1294 3.05102 36.5044 2.47804 36.3611 3.05707C36.2179 3.6366 36.246 4.14304 36.7774 3.99498C36.7933 3.991 37.1505 3.57518 37.2541 3.64888C37.4179 3.76569 37.5948 4.01297 37.7679 4.12554C37.8511 4.1794 37.9863 3.86624 38.0041 3.87082C38.6753 4.1016 38.8933 4.63953 39.3566 5.19915C39.439 5.29994 40.0336 5.21241 39.9778 5.65524C39.9098 6.13555 38.5834 7.13857 39.2719 7.26507C39.5366 7.30795 41.2916 6.11665 40.7999 7.19258C41.5958 7.69089 41.6451 8.67292 42.4394 9.20185C42.4747 9.22539 43.0364 9.02282 43.0818 9.11136C43.1473 9.24199 42.9545 9.4502 42.9907 9.54622C43.1357 9.95192 43.5264 10.1826 43.6801 10.5706C43.7381 10.7171 43.4616 10.7925 43.5271 10.9646C43.5913 11.1352 43.9813 11.0937 43.9197 11.3978C43.872 11.6294 43.2444 12.0915 43.2484 12.3418C43.9466 12.0752 43.9962 12.2376 44.2861 12.4578C44.3421 12.5003 44.5654 12.3524 44.6047 12.3681C44.7703 12.4322 44.6019 12.6044 44.7753 12.6612C44.8171 12.6753 45.0595 12.5951 45.1075 12.6026C45.5264 12.6666 45.0727 13.1438 44.9905 13.2195C44.6839 13.5203 45.0278 13.517 44.9247 13.7065C44.8201 13.8928 44.5807 13.7227 44.5386 13.916C44.4506 14.3126 44.5926 14.7502 44.6483 15.1107C44.6721 15.2539 44.9889 15.0943 45.0001 15.1133C45.1422 15.4028 44.8294 15.7594 45.5251 15.8353C43.8129 16.2802 45.7216 15.9962 45.4208 16.4882C45.396 16.5267 44.5741 16.6487 44.44 16.5352C44.306 16.4227 44.5414 16.1999 44.3293 16.0503C44.2796 16.012 43.4766 15.8961 43.4253 15.8756C43.0248 15.6995 44.2401 15.4567 44.305 15.4302C45.003 15.1478 44.1218 15.0085 44.05 14.9511C43.7196 14.6661 43.8207 14.3454 43.5627 14.1147C43.395 13.9648 42.6084 14.171 42.5939 14.0323C42.5448 13.5811 43.557 13.0353 42.4795 12.9519C42.249 12.9359 41.4553 13.3414 41.9864 12.7837C42.0212 12.7511 42.517 12.2739 42.0867 12.2982C42.0327 12.3018 41.7954 12.4052 41.7662 12.3925C41.5752 12.3064 41.7205 12.127 41.5586 12.0144C41.397 11.9026 41.1766 11.788 41.1665 11.5782C41.1607 11.4528 41.5141 11.0919 41.589 10.9832C41.8072 10.6732 41.235 10.7964 41.5399 10.5023C41.8425 10.2006 42.4946 10.0674 42.5749 9.67934C41.9928 10.0163 41.3894 10.3524 40.803 10.6897C40.5317 10.1958 40.3914 9.60717 40.0128 9.1674C39.9656 9.11383 39.7248 9.393 39.6677 9.34268C39.4296 9.13262 39.4496 8.75411 39.1527 8.57472C38.9217 8.43694 38.4548 8.49933 38.2073 8.38748C38.6421 7.73196 38.1691 7.63752 38.0043 7.39749C37.9455 7.31243 38.0867 7.16304 38.076 7.06444C38.0294 6.69564 37.684 7.29668 37.559 7.33035C37.0306 7.48324 37.9868 6.27512 37.6453 6.05773C37.6255 6.04376 36.9328 6.54915 36.8784 6.57321C36.512 6.71808 37.0191 6.322 36.9455 6.19388C36.8106 5.96107 36.7731 5.69692 36.3971 5.73868C36.2849 5.75049 35.8478 6.07841 35.9163 5.65766C35.9249 5.60228 36.0755 5.37644 36.0687 5.35376C35.9285 4.96139 35.4902 5.69449 35.201 5.86249C34.9139 6.03173 34.9592 5.3911 34.9835 5.21344C35.0523 4.75588 35.1701 5.09859 35.1966 5.06443C35.5196 4.65574 35.2954 4.63658 35.1718 4.52647C35.5269 3.76939 35.2914 3.70971 35.0414 4.41558C35.014 4.4925 35.1601 4.47775 35.1718 4.52647C34.6759 5.19485 34.4424 5.19701 34.5133 4.38911C34.5442 4.01052 34.8248 3.67351 34.3977 3.6583C34.2048 3.65313 34.0502 4.21155 33.8515 4.30068C33.4048 4.50685 33.1715 3.85438 32.7961 3.82677C32.6635 3.81791 32.6906 4.15578 32.5982 4.16075C32.3559 4.17639 32.2233 3.89384 31.967 3.95309C31.9442 3.95901 31.9111 4.29071 31.8422 4.27756C31.3203 4.18624 30.9046 3.88829 30.345 3.80281C30.0745 3.76044 29.5746 3.89101 29.3 3.83755C28.9902 3.77655 28.6415 3.55109 28.3024 3.43586C28.1161 3.37198 27.9382 3.34151 27.7881 3.38811C27.5136 3.47314 27.5912 3.80096 27.4881 4.03113C27.2985 4.47633 26.8539 3.7336 26.781 3.62059C26.7787 3.61641 27.007 3.51665 26.865 3.36008C26.7563 3.01621 26.7831 3.61887 26.781 3.62059C26.738 3.5447 26.255 3.52737 26.1713 3.60529C26.1257 3.6467 26.1991 3.95171 26.1751 3.96741C25.602 4.33498 25.0447 4.53571 24.4098 4.56375C24.3975 4.56067 24.3181 4.21999 24.2899 4.21711C23.8923 4.16992 23.7918 4.65307 23.6043 4.98815C23.415 5.32455 23.1837 5.3252 22.7905 4.83822C22.6112 4.9929 22.2073 4.88261 21.9639 4.82055C21.7199 4.75848 21.9955 5.3821 21.9873 5.40087C21.7298 6.01058 21.3023 5.80111 20.8144 6.02643C20.5828 6.13117 20.221 6.48935 20.0476 6.70793C19.9108 6.88023 19.7123 6.82989 19.6187 7.03109C19.6061 7.05808 19.813 7.28085 19.8138 7.29499C19.8701 7.71108 19.4921 7.06704 19.3742 6.99149C18.9457 6.7186 18.6929 6.5924 18.6157 6.95602C18.595 7.04178 19.1553 7.96817 19.1164 8.08801C19.0606 8.24587 18.8429 7.92676 18.7906 8.10212C18.786 8.1169 18.9492 8.28667 18.873 8.34477C18.5219 8.6165 18.0843 8.87702 17.7983 9.24764C17.759 9.29731 18.0954 9.47902 18.0446 9.55342C17.8063 9.90224 17.52 10.2524 17.1413 10.4911C17.047 10.5495 16.8678 10.3484 16.7911 10.3226C16.3222 10.1735 16.7797 10.7212 16.7751 10.7526C16.6457 11.5586 15.8226 11.7743 15.7613 12.6188C15.7567 12.6695 16.3059 13.2435 15.6726 13.1366C15.631 13.1277 14.9778 13.0289 15.3418 13.3084C15.365 13.3252 15.7052 13.3607 15.6193 13.4928C15.5325 13.6279 15.6607 13.9272 15.2497 14.0177C15.1208 14.0439 14.456 14.0175 14.8888 14.3617C14.9166 14.3917 15.9514 14.9847 15.1541 14.8888C15.0231 14.8731 14.2073 14.65 14.5696 14.9956C14.6406 15.0606 14.8428 15.0214 14.9299 15.1667C15.0652 15.3862 14.7933 15.5852 15.1239 15.8743C15.182 15.927 15.7198 16.1778 15.271 16.2397C15.2006 16.25 14.9279 16.1683 14.8862 16.234C14.6866 16.5498 14.8348 16.9258 14.6163 17.2565C14.5396 17.3757 14.0892 17.2816 13.9593 17.4095C13.8292 17.5373 13.7013 17.8099 13.9073 17.9569C14.1132 18.1009 14.8407 17.9622 14.8969 18.1624C14.9043 18.188 14.911 18.2136 14.9173 18.2391C15.1242 19.0642 14.7964 19.9082 14.8929 20.7607C14.9078 20.8889 15.1425 20.7364 15.1836 20.9178C15.3308 21.6036 15.9022 22.6269 15.6294 23.3897C15.4118 24.0173 14.8566 23.5629 14.8435 23.995C14.8423 24.2109 15.6964 24.0477 15.7378 24.0734C16.1624 24.3437 15.9662 24.775 16.2591 25.0611C16.3193 25.1187 16.5778 24.8816 16.6252 24.9311C16.7885 25.0965 16.7819 25.3789 16.9238 25.5475C16.9881 25.6223 17.197 25.4643 17.2285 25.5488C17.3071 25.7493 17.3226 25.9641 17.2491 26.279C17.2429 26.3084 16.9015 26.3919 16.9888 26.532C17.1296 26.7558 17.1486 27.1733 17.5393 27.2505C17.6565 27.273 18.1104 26.8864 17.924 27.3005C17.8853 27.3866 17.314 27.8244 17.929 27.5826C18.0353 27.5482 18.8906 27.2431 18.6301 27.7442C18.5614 27.8767 18.236 28.3816 18.3812 28.3944C18.402 28.3941 18.5841 28.1238 18.6701 28.1639C18.9685 28.3078 19.1891 28.5539 19.4995 28.6844C19.5822 28.718 19.6998 28.3836 19.8145 28.44C20.1286 28.5936 20.4101 28.9153 20.6259 29.1929C20.705 29.2957 20.478 29.4724 20.468 29.5019C20.3143 29.9879 20.7597 29.4954 20.8194 29.4892C21.1943 29.4631 21.2231 29.8439 21.5064 29.9153C21.5835 29.9351 21.6937 29.6369 21.7208 29.6204C21.9899 29.4605 21.6102 29.891 21.6662 29.9943C21.8246 30.2859 22.1195 30.4122 22.394 30.5C22.4947 30.5316 22.5468 30.1539 22.6336 30.1849C23.149 30.3611 23.6481 30.5984 24.0915 30.9557C24.1753 31.0236 24.0283 31.2696 24.0286 31.3369C24.0355 31.8096 24.4284 31.2914 24.4887 31.2482C24.7761 31.0555 24.7925 31.3157 24.9964 31.32C25.9791 31.3376 27.1081 31.6465 28.0313 31.7598C28.1227 31.7715 28.213 31.7832 28.3024 31.7945C29.3707 31.927 30.296 32.0493 31.3346 31.7574C31.4055 31.7373 31.2519 31.3906 31.3107 31.3688C32.0636 31.1053 32.8582 31.0003 33.5543 30.5875C33.6109 30.5544 33.387 30.2668 33.4711 30.2034C33.6423 30.0712 33.8864 29.9791 34.1274 29.9846C34.2451 29.9864 34.2541 30.3203 34.3716 30.3156C34.6467 30.3042 34.9003 30.1959 35.0965 30.0169C35.1788 29.9404 34.856 29.711 34.9747 29.637C35.7804 29.1202 36.467 28.5377 37.5049 28.2171C37.5753 28.1956 38.1218 28.6888 38.1348 28.4817C38.0021 28.3271 37.8357 28.1551 37.6884 27.9951C38.6215 26.9343 39.6759 25.9686 40.3977 24.7101C40.4274 24.6579 40.0367 24.5653 40.0912 24.465C40.4073 23.878 40.5592 23.2676 41.1506 22.7507C41.2085 22.6987 41.8432 22.9571 41.8127 22.723C41.8074 22.6818 41.8167 22.3514 41.6962 22.2328C41.6777 22.2162 41.3564 22.1782 41.3752 22.0819C41.4893 21.5215 41.6889 20.9673 41.9717 20.4261C42.0179 20.3384 42.338 20.4901 42.3739 20.4268C42.6271 19.9701 42.4226 19.4211 42.7529 18.9697C42.9743 18.6638 43.5555 18.803 44.1386 18.638C44.2211 18.6142 44.2375 18.3996 44.5735 18.3905C45.4193 18.3661 46.3437 18.4918 47.2454 18.454C47.4402 18.4457 47.2319 18.0978 47.7006 18.3048C47.7323 18.3192 47.8855 18.5757 48.0428 18.6431C48.1518 18.6901 48.4954 18.6157 48.6342 18.7115C48.7727 18.8084 48.4835 18.9016 48.6428 19.0608C48.8034 19.2221 49.1966 19.1687 49.2249 19.4901ZM20.8487 4.582C20.5251 4.38743 21.0886 5.44312 21.1183 5.0996C21.1191 5.08178 20.8648 4.59146 20.8487 4.582ZM41.1171 9.08963C41.3984 8.57632 40.673 8.90463 40.4476 9.28391C40.2165 9.65605 41.0292 9.24204 41.1171 9.08963ZM42.7762 11.1118C43.0134 10.6556 41.4864 11.3966 41.9248 11.505C41.9497 11.5115 42.7621 11.1378 42.7762 11.1118ZM44.2592 19.5004C44.2754 19.4991 44.3022 19.345 44.2865 19.3401C43.9133 19.2338 43.8607 19.5342 44.2592 19.5004ZM44.1343 13.4044C44.3266 13.246 43.9897 13.0645 43.7543 13.2644C43.5644 13.4219 43.8947 13.5977 44.1343 13.4044ZM13.1114 10.98C13.0939 10.9751 13.0292 11.074 13.1215 11.1147C13.4185 11.2455 13.4041 11.0628 13.1114 10.98ZM44.867 17.8686C44.9134 17.2152 46.2746 16.6649 46.1618 17.4665C46.1396 17.6074 45.7011 17.1854 45.5835 17.3696C45.3685 17.6935 46.2538 17.8918 45.7832 18.233C45.6977 18.2889 44.8622 17.902 44.865 17.8675C44.8657 17.8678 44.8664 17.8682 44.867 17.8686ZM20.0562 3.37801C20.0449 3.36598 19.8948 3.43326 19.8992 3.449C20.0116 3.82163 20.3073 3.68996 20.0562 3.37801ZM10.7443 17.5311C10.7092 17.5385 10.6666 17.9307 10.6985 17.9444C11.3141 18.1521 11.4004 17.3888 10.7443 17.5311ZM30.8194 0.547119C31.057 0.194479 31.3006 0.187835 31.3653 0.68628C31.1863 0.629401 31.0005 0.596408 30.8194 0.547119Z" fill="black"/>
</svg>
