<svg width="72" height="127" viewBox="0 0 72 127" fill="none" xmlns="http://www.w3.org/2000/svg">
<path d="M3.49513 126.105C3.49514 92.1052 -9.50484 44.0425 26.5764 40.8843C68.7879 37.1895 63.818 89.091 69.4817 123.222C69.8337 124.272 70.0148 125.243 69.9951 126.105C69.8144 125.16 69.6437 124.198 69.4817 123.222C66.1667 113.335 47.6922 96.4443 39.0291 97.1052C24.5291 98.2115 6.97609 117.728 3.49513 126.105Z" fill="white"/>
<path d="M1.48757 123.305C1.40586 121.663 1.38354 119.477 1.3815 117.83C1.38066 117.311 1.49905 117.568 1.50272 117.208C1.50918 116.501 1.42283 115.855 1.43317 115.162C1.43704 114.933 1.62079 115.208 1.62096 114.967C1.62017 113.644 1.49913 112.394 1.4464 111.057C1.18488 104.449 0.697817 97.9561 0.413417 91.2327C0.31876 89.0146 0.357258 86.3169 0.240305 84.0208C0.22638 83.7524 0.0825988 83.9157 0.0693172 83.8649C-0.133214 83.0672 0.16986 83.3277 0.200521 82.8058C0.322599 80.7341 0.344298 78.4361 0.349477 76.4256C0.352135 75.5776 0.0307887 76.4164 0.225271 75.5701C0.238594 75.5116 0.386923 75.7315 0.412364 75.5008C0.468322 74.9868 0.490121 73.9603 0.527029 73.5554C0.598321 72.7679 0.605545 72.6383 0.661402 71.9003C0.742395 70.8655 0.932435 69.6666 1.02524 68.5783C1.04523 68.3414 0.848482 68.635 0.866665 68.2551C0.883611 67.8738 1.03008 66.8878 1.1178 66.5651C1.20412 66.2412 1.30814 66.4005 1.3454 66.3466C1.65361 65.9175 1.51696 64.7109 1.53759 64.5653C1.88105 61.9035 2.65463 59.6415 3.50722 57.2656C4.16692 55.4262 4.97989 53.5101 5.94442 51.9124C7.09587 50.0132 8.32677 48.5591 9.8535 47.031C10.0166 46.8704 9.69176 46.9223 9.893 46.7253C12.0325 44.638 14.6164 43.0526 17.4197 42.0739C17.6917 41.98 17.4088 42.2699 17.6832 42.1864C19.3911 41.6306 22.1356 41.2959 23.1012 40.413C24.1456 40.2472 25.4282 40.1059 26.5099 40.1241C26.6331 40.1259 26.7524 40.1297 26.8673 40.1355C27.5831 40.1746 26.9117 40.4034 27.7677 40.2681C27.96 40.2389 27.6987 40.0965 27.9881 40.0653C29.2192 39.9353 30.4558 39.9594 31.7182 39.907C31.9661 39.8961 31.9024 39.7531 31.9734 39.7295C32.5748 39.5373 33.5183 39.9364 33.7179 39.9783C35.3092 40.2855 36.5005 40.3738 37.9548 40.6613C38.3047 40.7329 37.9282 40.4624 38.267 40.5258C40.0093 40.8576 41.7514 41.3963 43.3082 42.1205C43.6501 42.2812 43.2679 42.2995 43.4271 42.384C44.1216 42.7583 44.4291 42.5621 45.0959 42.9596C45.2361 43.0442 45.0918 43.1276 45.1117 43.1544C45.4165 43.5732 45.9217 43.4623 46.0311 43.5135C47.4033 44.1577 48.0295 44.9906 49.207 45.8125C49.3491 45.9133 49.1436 45.5338 49.5371 45.828C52.1589 47.7884 54.4318 50.473 56.0514 53.2245C56.305 53.6544 56.0003 53.4273 56.004 53.4626C56.0662 54.0263 56.5259 54.1274 56.6229 54.2614C57.3614 55.2937 57.6745 56.4855 58.4256 57.0776C60.7206 61.9616 62.5017 67.0761 63.3329 72.3431C63.3438 72.4104 63.1534 72.3285 63.176 72.4627C63.4342 74.0555 63.6186 73.6953 64.1496 74.685C64.2832 74.9351 64.0666 75.8229 64.0522 75.9C64.001 76.1821 63.7036 75.9575 63.7008 76.0491C63.6824 76.7928 64.4714 76.5209 64.6498 77.4954C64.654 77.5261 64.4815 77.4252 64.4814 77.5096C64.4808 77.7718 64.5851 78.0135 64.5774 78.2721C64.5577 78.8628 64.1998 79.14 64.5726 79.9663C64.6201 80.0713 65.0556 79.8265 65.1734 80.7012C65.2212 81.0487 65.4648 82.5931 65.4965 83.034C65.5291 83.4698 65.337 83.1951 65.335 83.227C65.3037 84.4134 65.1587 83.9861 64.9476 84.6073C64.7363 85.2281 65.4085 84.9723 65.5183 85.1996C65.6282 85.4273 65.5782 86.3047 65.5483 86.5227C65.5187 86.7404 65.3899 86.4903 65.3819 86.6814C65.3294 87.9413 65.796 87.1789 65.9577 87.572C66.3388 88.4998 65.9122 89.3125 65.9638 90.1998C65.9778 90.4401 66.0729 90.2317 66.1084 90.4431C66.2465 91.2772 66.1418 91.7998 66.3939 92.7401C66.4351 92.8937 66.8293 93.6345 66.6538 94.16C66.6284 94.2344 66.4784 94.0466 66.4872 94.4078C66.5002 94.9474 66.5713 95.9146 66.6725 96.4856C66.7474 96.9072 66.9106 96.3988 66.8986 96.9402C66.893 97.1808 66.7245 96.753 66.7243 97.2039C66.7241 97.6517 66.8422 98.7885 66.8888 99.2203C66.9355 99.6514 67.0735 99.3994 67.0878 99.4332C67.1708 99.6382 67.3293 100.458 67.3361 100.531C67.716 104.225 67.7654 107.641 68.2427 111.228C68.2799 111.508 68.4294 111.303 68.4368 111.345C68.6124 112.297 68.0785 111.59 68.0011 112.276C68.3349 112.141 68.3155 112.542 68.4309 113.222C68.4868 113.548 68.5997 113.354 68.6168 113.383C68.8748 113.846 68.6529 114.213 68.6096 114.306C68.4505 114.65 68.7244 114.97 68.6191 115.203C68.5149 115.435 68.2609 114.96 68.3419 115.606C68.4871 115.771 68.7504 115.254 68.8624 115.736C69.2815 117.582 69.515 121.08 69.7355 122.554C69.9522 124.048 70.064 124.527 70.1756 125.387C70.2136 125.675 70.2499 125.888 70.285 126.05L69.7 126.099C69.6733 125.42 69.5099 125.608 69.3205 124.911C69.0307 124.013 69.69 124.331 69.787 124.166C69.8781 124.003 69.7132 123.89 69.732 123.703C69.7492 123.514 69.9421 123.859 69.8467 123.449C69.7601 123.034 69.1288 122.054 68.9499 121.997C68.5671 121.834 68.5154 122.409 68.1544 121.401C68.1331 121.344 68.3593 121.452 68.2724 121.239C67.5613 119.526 66.5037 117.88 65.4829 116.308C65.3436 116.093 65.6185 116.175 65.5384 116.048C64.6821 114.723 64.7848 115.351 64.0059 114.883C64.464 114.769 64.374 114.214 63.6149 113.304C63.1529 112.756 63.0854 112.969 62.6838 112.708C62.5642 112.631 62.3277 112.168 62.1998 112.158C61.7818 112.128 61.861 112.692 61.1365 111.707C61.105 111.664 61.3365 111.681 61.2188 111.539C60.4513 110.623 60.1322 110.727 59.2026 109.839C58.4746 109.143 57.3022 107.77 56.4606 106.983C56.8042 106.637 55.9088 105.992 55.356 105.962C54.7939 105.461 54.167 104.967 53.6269 104.477C53.4422 104.309 53.6575 104.301 53.6424 104.27C53.4118 103.782 52.957 103.843 52.8198 103.753C51.3605 102.789 50.3271 101.757 48.7944 101.07C48.7389 101.046 48.4791 101.278 48.2312 100.838C48.2152 100.808 48.7634 100.963 48.1033 100.547C47.4473 100.132 46.2255 99.2422 45.1806 98.9323C44.913 98.8472 44.2302 98.8387 43.8056 98.4434C43.7498 98.3903 43.8581 98.3288 43.7812 98.2411C43.527 97.9597 43.2544 98.2214 42.9772 97.8224C42.6932 97.4264 41.9391 96.9408 40.7876 96.9685C40.749 96.9691 40.4447 97.1952 40.1127 97.1662C39.8088 97.1383 39.3979 97.1094 39.0304 97.1226C38.7421 97.1323 38.4552 97.1519 38.2071 97.1831C37.931 97.2188 38.1294 97.3628 38.0819 97.3719C36.2698 97.7214 34.9596 97.913 33.0566 98.5284C32.7062 98.6405 31.8195 99.2375 31.1042 99.3649C30.3104 99.5151 30.6943 98.4042 29.138 99.3911C28.5102 99.7993 28.2078 101.14 26.8266 101.335C24.7364 102.747 22.6673 103.876 20.8008 105.598C20.7167 105.675 20.6189 106.127 20.4105 106.291C20.1002 106.535 19.8463 106.569 19.6232 106.743C18.6873 107.471 17.9483 108.275 17.0964 109.031C16.7725 109.321 16.7879 109.114 16.4039 109.461C16.0215 109.81 15.8996 110.18 15.3346 110.605C14.9095 110.924 14.265 111.029 13.737 111.504C13.9839 111.787 13.6437 112.118 13.1199 112.813C13.0204 112.946 13.2365 112.907 13.1943 112.975C13.0253 113.251 12.7472 113.39 12.5983 113.659C12.5616 113.724 12.6527 113.814 12.6278 113.873C12.4182 114.376 11.6522 114.8 11.5203 114.875C11.0087 115.166 10.9649 115.471 10.6344 115.74C10.3054 116.01 10.6413 115.473 10.289 115.816C9.54359 116.544 8.73152 117.575 8.08993 118.4C7.83354 118.731 8.14293 118.608 8.10935 118.658C7.62849 119.355 6.95842 119.97 6.97058 120.542C5.90308 120.538 6.73715 121.007 5.91191 121.934C5.84763 122.007 5.42983 121.887 5.58644 121.537C5.75274 121.174 6.15952 120.804 6.3893 120.313C6.44638 120.191 6.53027 119.407 6.57272 119.31C6.87845 118.581 7.438 118.876 7.48851 118.864C8.0454 118.732 8.24888 117.788 8.36268 117.599C8.90328 116.702 9.52956 116.084 10.0241 115.36C10.3437 114.894 10.075 114.585 10.3814 114.254C11.4005 113.167 12.1635 113.177 12.7734 111.824C12.9083 111.534 12.3765 111.439 13.3809 110.913C13.4438 110.88 14.2351 110.536 14.4207 110.072C14.4442 110.013 14.3523 109.922 14.3994 109.861C14.7171 109.452 15.039 109.285 15.4092 108.867C15.7808 108.448 16.229 107.934 16.7331 107.54C17.0373 107.301 17.5681 107.154 17.7456 107.078C18.2471 106.865 18.4898 106.292 18.8694 106.243C19.2502 106.194 18.9687 106.837 19.7022 106.401C19.5118 106.122 19.3476 105.81 19.1719 105.517C20.6253 104.335 22.1614 103.304 23.7065 102.228C23.8983 102.095 23.5988 102.08 23.8025 101.933C24.6639 101.316 25.5118 100.926 26.4367 100.316C27.1455 99.8486 27.8815 99.2194 28.6594 98.7673C29.3273 98.8528 30.4642 98.1579 31.3791 97.8203C31.6953 97.7024 31.716 97.8056 31.9538 97.7466C32.8508 97.5306 32.3308 97.3699 32.5477 97.2303C33.491 96.6502 33.8304 97.3399 35.0308 96.9804C35.0924 96.9593 35.7923 96.3605 35.9013 96.3135C36.5839 95.9937 36.0502 96.425 36.5046 96.3615C37.332 96.2569 37.9155 96.2623 38.8762 96.0592C38.8979 96.0547 38.9219 96.0488 38.9479 96.0417C39.2669 95.9493 40.0112 95.7478 40.5166 95.9924C40.5909 96.0266 40.5333 96.1566 40.5936 96.1716C41.6822 96.456 41.7523 96.0678 42.4282 96.0827C43.0687 96.0954 43.9055 96.7017 44.0391 96.8467C44.4289 97.2281 43.6491 96.8002 43.6179 96.8164C43.2422 96.9576 43.8811 97.127 44.3613 97.3456C44.2864 97.7626 44.9301 98.0087 44.8452 97.5685C44.8353 97.5193 44.4562 97.4031 44.3613 97.3456C44.9342 97.1319 45.7181 97.4125 46.3135 98.1396C46.5907 98.4839 46.1686 98.4877 47.2747 98.9958C47.7713 99.2315 47.7259 98.8763 48.1953 99.0548C49.2598 99.4601 50.3447 100.475 51.31 101.098C51.6588 101.323 51.4175 100.962 51.6597 101.112C52.3071 101.516 52.7736 102.004 53.4158 102.417C53.4743 102.454 53.4395 102.22 53.6301 102.363C55.0649 103.441 56.2027 104.524 57.5903 105.769C58.2631 106.369 59.5027 107.409 60.1524 108.082C61.2911 109.243 62.4759 110.857 63.4272 111.862C64.0464 112.517 64.0432 112.266 64.3806 112.489C65.0317 112.915 65.5681 114.213 65.6213 114.385C65.6245 114.391 65.1127 113.806 65.3032 114.183C65.3134 114.481 65.6151 114.379 65.6213 114.385C65.6658 114.497 66.5756 115.767 66.7765 116.006C66.8898 116.135 66.9615 115.966 67.0181 116.035C68.3431 117.668 69.5227 119.475 70.3315 121.545C70.3435 121.581 70.1604 121.597 70.1902 121.681C70.6111 122.914 71.0548 123.6 71.3743 124.758C71.4983 125.214 71.5554 125.726 71.531 126.14L68.4862 126.394C68.4157 125.927 68.4281 125.511 68.5385 125.146C68.3681 124.418 68.3156 123.308 68.2991 122.693C68.2817 122.074 67.9333 122.041 67.9181 121.988C67.4467 120.339 67.5013 119.328 67.3027 117.583C67.207 116.741 66.9573 115.109 66.8168 114.212C66.7046 113.504 66.7345 113.058 66.6116 112.412C66.5951 112.324 66.4544 112.43 66.4456 112.404C66.1855 111.696 66.592 112.005 66.6413 111.848C66.821 111.277 66.9118 110.927 66.7008 110.001C66.6525 109.789 66.0561 109.207 65.9853 108.821C65.894 108.315 66.1036 108.488 66.0035 107.959C65.9951 107.914 65.8788 107.935 65.8507 107.605C65.7187 106.066 65.6244 104.39 65.4581 102.798C65.4358 102.58 65.2769 102.878 65.2416 102.563C65.0762 101.088 64.927 99.4796 64.871 98.0348C64.8579 97.6802 65.0102 97.8882 65.0413 97.8078C65.2285 97.3145 64.8211 96.6825 64.8035 96.5734C64.373 93.9697 64.4679 91.9359 64.0053 89.29C63.9798 89.1454 63.4813 88.0782 63.73 87.5453C63.7465 87.5088 64.0037 86.9798 63.7289 86.5712C63.7117 86.546 63.5876 86.8736 63.5345 86.3368C63.4813 85.7999 63.2564 84.9579 63.3333 84.2043C63.3574 83.9655 63.5979 83.3765 63.2414 82.7188C63.2175 82.6748 62.4849 81.6986 62.8183 81.2603C62.8731 81.1892 63.3014 81.1856 62.9553 80.4025C62.8884 80.2534 62.842 80.5512 62.7166 80.1507C62.5238 79.5369 62.4904 78.6716 62.1656 77.9348C62.1086 77.8055 61.7227 77.2871 61.8495 76.7922C61.8693 76.7145 62.0336 76.8236 62.0031 76.5802C61.8553 75.4072 61.5136 74.2194 61.351 73.0517C61.2909 72.6308 61.5611 72.7912 61.5212 72.3457C61.4816 71.8995 61.3306 71.0215 61.1172 70.6037C60.9041 70.1863 60.6755 70.7572 60.4782 70.106C59.6038 67.2404 58.9401 64.4111 57.8551 61.6485C57.6951 61.2456 57.7125 61.6253 57.4653 61.0407C56.567 58.8249 54.5565 55.3642 53.5808 53.5824C52.8215 52.1461 54.1498 53.6969 53.4905 52.6374C53.1617 52.1188 52.424 51.8753 52.3242 51.7752C51.339 50.7884 50.8045 49.9483 49.8556 49.1296C49.6589 48.9625 49.7273 49.2595 49.5616 49.1174C48.9941 48.6343 48.4437 48.0736 47.8676 47.6517C47.6089 47.4638 47.5765 47.6029 47.3485 47.4231C46.7995 46.9965 46.3176 46.6103 45.7914 46.1477C45.7427 46.1053 46.1928 46.1873 45.744 45.9096C45.0184 45.4642 44.1497 44.87 43.1858 44.5804C42.898 44.4958 42.7786 44.7642 42.2887 44.3429C42.1844 44.2567 42.4719 43.9774 41.6815 44.0111C41.5534 44.0122 40.2463 44.0035 39.7673 43.5956C39.6397 43.4848 39.331 43.0946 38.9766 43.0536C38.9287 43.0493 39.0742 43.2506 38.7889 43.1959C37.774 42.9997 36.7195 42.7841 35.6761 42.692C35.3946 42.668 35.7887 42.8877 35.3705 42.848C34.1874 42.7355 32.8104 42.5971 31.653 42.5209C31.2276 42.4927 31.5243 42.3613 31.4939 42.3456C30.9952 42.0931 30.688 42.4234 30.5201 42.443C29.5408 42.564 28.7686 42.4392 27.8143 42.541C27.5508 42.5694 27.7488 42.7132 27.6971 42.7306C27.1611 42.9054 27.5482 42.5955 27.1976 42.5909C27.0436 42.5891 26.8862 42.5909 26.7262 42.5957C25.8713 42.6202 24.9986 42.7397 24.229 42.8801C23.8948 42.9419 24.2998 43.0597 24.0018 43.1136C22.1685 43.4509 20.3473 43.9121 18.6777 44.4509C18.3681 44.5509 18.5074 44.3467 18.4325 44.3417C17.9023 44.3074 17.3591 44.8835 17.2333 44.9766C16.6277 45.4095 16.345 45.4183 15.7842 45.7559C13.0775 47.344 10.2606 50.0144 8.64083 52.5383C6.51554 55.7982 5.34683 58.7456 4.47195 62.4936C4.41786 62.7343 4.65531 62.5343 4.61148 62.742C4.04953 65.3873 3.5915 68.0859 3.39594 70.8258C3.37964 71.0527 3.58433 70.742 3.56455 71.1065C3.52475 71.8618 3.44788 72.7922 3.34765 73.5437C3.29912 73.9107 3.17669 73.4071 3.13116 73.7774C3.02521 74.6435 2.97284 75.5768 2.97426 76.4643C2.97543 76.8439 3.17239 76.2772 3.16026 76.77C3.08582 80.1337 3.16608 83.4486 3.05915 86.8761C3.05195 87.1115 2.69334 87.332 2.7842 87.8311C2.88739 87.8647 3.00685 87.8576 3.11616 87.8696C3.3807 92.8017 3.60434 97.7014 3.94668 102.675C3.9612 102.885 4.12843 102.508 4.15752 102.915C4.32591 105.264 4.54791 107.546 4.51895 109.97C4.51628 110.211 4.16745 110.111 4.26601 110.813C4.28396 110.938 4.39859 111.995 4.48958 112.264C4.50308 112.3 4.65004 112.097 4.67621 112.438C4.82635 114.436 4.90659 116.522 4.89551 118.524C4.89328 118.846 4.709 118.511 4.70586 118.74C4.68514 120.368 4.86949 122.13 4.74049 123.7C4.65223 124.748 4.35265 124.364 4.06943 124.919C4.02971 124.997 4.02686 125.636 3.85851 125.669C3.4361 125.755 2.97209 125.45 2.52199 125.577C2.4256 125.605 2.53077 126.446 2.29589 125.948C2.28047 125.914 2.20053 125.303 2.11952 125.152C2.06376 125.047 1.8942 125.238 1.82218 125.024C1.7501 124.81 1.89126 124.573 1.80379 124.216C1.71481 123.86 1.52367 124.021 1.48757 123.305ZM68.2379 119.884C68.3187 119.29 67.7148 119.291 67.9437 119.888C67.9555 119.917 68.2342 119.915 68.2379 119.884ZM22.4374 103.699C23.1988 103.469 23.3947 102.86 22.8433 103.001C22.2899 103.146 22.2045 103.771 22.4374 103.699ZM16.5666 108.805C17.3516 108.367 16.8864 107.645 16.3048 108.409C16.2708 108.453 16.5207 108.831 16.5666 108.805ZM3.94419 122.358C3.93659 122.366 3.93947 122.824 3.94742 122.834C4.14298 123.074 4.13722 122.158 3.94419 122.358ZM11.3256 114.437C11.5891 114.312 12.0192 113.642 11.6856 113.797C11.4149 113.923 10.9947 114.594 11.3256 114.437ZM65.6765 90.2572C65.6844 90.2472 65.6542 89.9176 65.6049 89.9301C65.4463 89.9712 65.5448 90.4231 65.6765 90.2572ZM3.73689 125.052C4.64525 123.334 5.87618 122.72 4.77306 124.473C4.58164 124.79 4.96615 123.664 4.68 124.048C4.15896 124.751 4.27369 125.488 3.72307 126.183C3.60905 126.327 3.67766 125.145 3.73748 125.049C3.73728 125.05 3.73709 125.051 3.73689 125.052ZM68.9028 119.455C68.909 119.443 68.8539 118.994 68.8448 118.984C68.6228 118.767 68.7336 119.673 68.9028 119.455ZM62.8927 71.1783C62.9044 71.1486 62.6655 70.1133 62.6408 70.0848C62.2074 69.6249 62.6885 71.7098 62.8927 71.1783ZM56.4557 106.961C55.9583 106.771 55.5013 106.402 55.3576 105.964C55.7226 106.293 56.0938 106.621 56.4557 106.961Z" fill="black"/>
<circle cx="30.0291" cy="17.6051" r="17" fill="white"/>
<path d="M48.9753 18.7393C48.9909 19.4109 48.8328 20.2789 48.6387 20.9191C48.5786 21.1194 48.4931 20.9968 48.4461 21.1327C48.3538 21.3965 48.3501 21.663 48.2393 21.9191C48.202 22.0035 48.0647 21.8551 48.0293 21.9438C47.8364 22.4277 47.7443 22.9083 47.5464 23.3947C46.5714 25.7782 45.2328 27.9379 43.4583 29.784C42.8729 30.396 42.0314 30.9866 41.4029 31.5805C41.3295 31.6504 41.4689 31.727 41.4616 31.7486C41.3401 32.0845 41.2333 31.7885 41.0541 31.8783C40.3413 32.2343 39.6234 32.698 39.0035 33.1213C38.7393 33.301 39.1623 33.3975 38.7998 33.4129C38.7749 33.4141 38.7695 33.238 38.6851 33.2658C38.4943 33.3297 38.1767 33.5278 38.0335 33.5847C37.7582 33.694 37.7154 33.7161 37.462 33.8315C37.1136 33.9877 36.6682 34.0902 36.2995 34.2664C36.2206 34.3045 36.3857 34.4142 36.2636 34.4887C36.1417 34.5639 35.7862 34.6734 35.6552 34.6756C35.5244 34.6786 35.5363 34.542 35.5064 34.5213C35.2617 34.3457 34.9575 34.7881 34.9038 34.8108C33.9737 35.2195 33.0793 35.1964 32.1558 35.3085C31.4558 35.3936 30.7069 35.4983 30.0291 35.49C30.0234 35.4899 30.0178 35.4899 30.0122 35.4898C29.2002 35.4761 28.5274 35.3447 27.7491 35.2621C27.667 35.2528 27.7391 35.4525 27.638 35.4413C26.5626 35.3209 25.5047 35.0599 24.5247 34.6088C24.4267 34.5633 24.609 34.4485 24.5149 34.3938C23.9298 34.0658 23.1424 33.386 22.489 33.8711C22.0963 33.659 21.6268 33.3835 21.3541 33.062C21.1794 32.8551 21.4824 32.8212 21.1764 32.7328C21.1075 32.7122 21.1059 32.8947 21.0081 32.8529C20.5946 32.6755 20.2142 32.3683 19.8062 32.1809C19.7229 32.143 19.6611 32.2726 19.6254 32.2785C19.3268 32.321 19.2399 31.8291 19.1954 31.7628C18.8401 31.2556 18.4695 31.0373 18.0658 30.6633C17.9728 30.5761 17.9551 30.8185 17.8604 30.7389C17.3706 30.3227 16.9161 29.8289 16.5692 29.3006C16.4926 29.1828 16.6988 29.1735 16.6688 29.1121C16.5379 28.8436 16.2613 28.9894 16.1355 28.7284C16.1091 28.6737 16.2384 28.6132 16.2435 28.5953C16.3269 28.3165 15.972 28.4106 15.939 28.3798C15.5236 28.0021 15.6112 27.5108 15.286 27.1026C15.2466 27.0531 15.1761 27.2681 15.074 27.1221C14.3933 26.1491 13.8653 24.9868 13.5851 23.8469C13.5413 23.6696 13.7104 23.7446 13.7215 23.728C13.895 23.4675 13.5366 23.4736 13.5045 23.4213C13.2617 23.0097 13.4117 22.517 12.9375 22.3202C12.6234 20.7571 12.2922 19.1891 12.426 17.6051C12.459 17.2146 12.5202 16.834 12.6168 16.4533C12.6227 16.429 12.787 16.4839 12.7978 16.4356C12.9356 15.8571 12.6686 15.9542 12.3952 15.5204C12.3269 15.409 12.7483 15.1576 12.7803 15.1372C12.8967 15.0567 13.1294 15.1907 13.1538 15.1618C13.3484 14.9281 12.5257 14.843 12.5885 14.4781C12.5919 14.4671 12.7329 14.5409 12.7531 14.5134C12.8163 14.4283 12.7743 14.3248 12.8433 14.2437C13.0033 14.0582 13.4086 14.0703 13.2517 13.7094C13.2319 13.6631 12.7598 13.6187 12.8597 13.3047C12.8976 13.1803 13.0437 12.6177 13.1221 12.4731C13.1982 12.3276 13.3098 12.478 13.3194 12.4687C13.6384 12.1176 13.6687 12.2988 14.0146 12.1923C14.3598 12.0908 13.6789 11.9164 13.6341 11.8075C13.5892 11.6982 13.853 11.4589 13.9343 11.409C14.0152 11.3583 14.0702 11.4816 14.1248 11.4302C14.4853 11.0938 13.8744 11.118 13.8278 10.9366C13.722 10.5029 14.3134 10.4547 14.4954 10.1915C14.5453 10.1193 14.4078 10.1319 14.4317 10.057C14.5297 9.75997 14.7568 9.67116 14.7929 9.29313C14.798 9.23243 14.6663 8.82649 14.9591 8.78187C15.0009 8.77624 15.0752 8.90511 15.1667 8.80723C15.3031 8.66108 15.5124 8.37824 15.5915 8.17969C15.6499 8.03257 15.3733 8.06372 15.5375 7.93644C15.6106 7.88054 15.6247 8.0836 15.753 7.97383C15.88 7.86425 16.1136 7.5248 16.2045 7.39673C16.2944 7.26839 16.1137 7.24022 16.1124 7.22358C16.1078 7.12399 16.2327 6.8337 16.2502 6.81272C17.0854 5.72084 18.1626 5.02214 19.1206 4.12699C19.1967 4.0567 19.036 3.96699 19.0465 3.95489C19.2813 3.67632 19.3441 4.20581 19.6293 4.17542C19.389 3.92366 19.5413 3.88301 19.718 3.70415C19.8033 3.61789 19.6713 3.5487 19.6719 3.53115C19.6965 3.25986 19.9537 3.40054 20.0102 3.42648C20.2202 3.52042 20.1919 3.25564 20.3333 3.3197C20.4726 3.38406 20.432 3.64643 20.6243 3.51386C20.6108 3.3738 20.2831 3.20267 20.4055 3.05803C20.8689 2.49776 22.1329 2.09016 22.6421 1.89256C23.1513 1.68468 23.3088 1.59828 23.6216 1.51982C24.1887 1.38612 23.906 1.23834 24.2109 1.01137C24.5212 0.78786 24.542 1.40716 24.6316 1.51079C24.719 1.61562 24.7292 1.47435 24.8098 1.5217C24.8896 1.56937 24.7905 1.69218 24.9349 1.67328C25.0782 1.65358 25.3884 1.32628 25.4045 1.18468C25.4351 0.88417 25.1784 0.645949 25.59 0.643719C25.6136 0.643959 25.5816 0.813058 25.6696 0.806431C26.3616 0.75055 27.061 0.622172 27.7466 0.638113C27.8406 0.640647 27.7809 0.823082 27.8355 0.826626C28.4022 0.869369 28.1697 0.604373 28.4504 0.250942C28.4208 0.687809 28.6123 0.930773 29.0293 0.907741C29.2819 0.895425 29.2274 0.710101 29.3877 0.57063C29.4361 0.528506 29.6206 0.652689 29.6513 0.563622C29.7547 0.272701 29.5742 -0.0515798 30.0291 0.0744962C30.0292 0.0745495 30.0294 0.0746028 30.0296 0.0746564C30.0366 0.0768207 30.0333 0.0979265 30.0291 0.124772C30.0235 0.160087 30.0164 0.205335 30.0291 0.230456C30.0341 0.240412 30.0422 0.247208 30.0547 0.248991C30.4935 0.315269 30.5511 0.0128817 31.035 0.00034833C31.4172 -0.00962049 32.0663 0.237577 32.4806 0.329099C32.4061 0.80771 32.8045 0.754454 33.0231 0.454285C33.2922 0.51468 33.5868 0.554085 33.8372 0.657622C33.9229 0.693083 33.8333 0.816865 33.8412 0.834202C33.9578 1.10473 34.1462 0.816215 34.2075 0.818231C34.8642 0.855006 35.2883 1.24286 35.9433 1.22179C35.9662 1.22096 36.1163 0.916271 36.1865 1.2052C36.19 1.22473 35.947 1.29692 36.2127 1.40989C36.4805 1.52333 36.9059 1.89509 37.3306 1.92291C37.4325 1.92862 37.7763 1.7896 37.8575 2.07045C37.8678 2.10818 37.7987 2.18152 37.8079 2.24647C37.8373 2.45369 38.0538 2.1822 38.0443 2.50467C38.0346 2.82743 38.1782 3.15006 38.6137 3.1772C38.6271 3.17846 38.8457 2.99438 38.9506 3.06387C39.1173 3.17417 39.3244 3.37398 39.4968 3.48821C39.5795 3.54286 39.6208 3.36854 39.6368 3.37565C40.2482 3.67934 40.5474 4.09118 41.0527 4.60118C41.1441 4.69369 41.5833 4.77383 41.6481 5.082C41.7152 5.41795 40.9502 5.81879 41.523 6.10642C41.7466 6.2193 42.7384 5.74072 42.6466 6.45239C43.3424 7.03922 43.6189 7.86336 44.2601 8.5076C44.2888 8.53644 44.604 8.48937 44.6518 8.57429C44.7218 8.69998 44.6454 8.83736 44.6893 8.92884C44.8698 9.31406 45.1579 9.59997 45.3263 9.97679C45.3898 10.1196 45.2397 10.1329 45.3127 10.3024C45.3845 10.4711 45.6056 10.5061 45.6254 10.773C45.6396 10.9757 45.3626 11.2937 45.4109 11.5357C45.7616 11.4068 45.819 11.5682 46.0163 11.8225C46.0543 11.8714 46.1553 11.7678 46.1796 11.7888C46.2816 11.8741 46.2147 12.0098 46.3187 12.0892C46.3438 12.1087 46.4652 12.0692 46.4926 12.0831C46.7314 12.2015 46.549 12.5838 46.515 12.6462C46.39 12.8911 46.5743 12.934 46.5428 13.102C46.5103 13.2684 46.3611 13.0738 46.363 13.256C46.3665 13.6311 46.49 14.0803 46.5521 14.4429C46.5777 14.5875 46.7267 14.4579 46.7343 14.4778C46.8336 14.7734 46.7005 15.1061 47.0598 15.2278C46.2176 15.5558 47.1719 15.3995 47.0448 15.8646C47.0341 15.9009 46.6255 15.984 46.5516 15.861C46.4777 15.7385 46.5839 15.5269 46.4654 15.3609C46.4379 15.3201 46.0185 15.1391 45.9899 15.1118C45.7689 14.8914 46.3724 14.7516 46.4039 14.7313C46.7394 14.5109 46.2696 14.2921 46.2252 14.2239C46.0224 13.9006 46.0361 13.5895 45.8669 13.325C45.7566 13.1528 45.3605 13.2465 45.3312 13.1014C45.2313 12.6247 45.7077 12.2641 45.0839 11.9903C44.9497 11.9327 44.5728 12.1842 44.7687 11.7284C44.7818 11.7008 44.9768 11.3319 44.7289 11.269C44.6978 11.2614 44.5793 11.3134 44.5593 11.2946C44.4275 11.1685 44.4754 11.0237 44.3526 10.8782C44.23 10.7333 44.0672 10.5691 44.0103 10.3644C43.9762 10.2414 44.1117 9.98449 44.1334 9.90158C44.1985 9.66597 43.8634 9.64221 43.9871 9.44619C44.1093 9.24603 44.4925 9.27563 44.4558 8.95258C44.1619 9.11629 43.8537 9.27339 43.5558 9.43439C43.2494 8.90557 42.9955 8.34387 42.6036 7.86281C42.5549 7.80368 42.4603 7.97631 42.4046 7.91654C42.1711 7.66586 42.0773 7.3522 41.8012 7.11893C41.5868 6.93898 41.2416 6.85122 41.0081 6.68508C41.1589 6.28956 40.7565 6.08177 40.5487 5.85043C40.4755 5.7688 40.5489 5.69676 40.5122 5.61989C40.3699 5.33221 40.2529 5.68126 40.1576 5.66994C39.7514 5.62719 40.2176 5.01269 39.8744 4.76985C39.8554 4.75558 39.396 4.92308 39.353 4.92383C39.0698 4.92321 39.4069 4.78601 39.3073 4.67652C39.1248 4.47779 39.025 4.28965 38.6981 4.21992C38.6015 4.19937 38.2849 4.30094 38.2386 4.0419C38.2323 4.00781 38.3134 3.89843 38.3015 3.88194C38.077 3.59331 37.8531 3.95837 37.6189 3.99166C37.3854 4.02556 37.2675 3.63144 37.2507 3.52802C37.2098 3.2606 37.4017 3.50023 37.4189 3.48553C37.628 3.30629 37.4135 3.24239 37.2723 3.14771C37.4386 2.7632 37.2093 2.67872 37.1247 3.05144C37.1157 3.09209 37.2506 3.11528 37.2723 3.14771C36.9548 3.44687 36.7158 3.38808 36.6139 2.92256C36.5649 2.7049 36.7668 2.5618 36.3562 2.47041C36.1702 2.43068 36.1276 2.72412 35.9488 2.73673C35.5435 2.76673 35.1876 2.35546 34.8064 2.28196C34.6703 2.25594 34.7519 2.44584 34.658 2.43369C34.41 2.40296 34.2306 2.23002 33.973 2.22644C33.9499 2.22643 33.9619 2.39953 33.8874 2.38277C33.3218 2.2608 32.8445 2.05838 32.2396 1.96947C31.9476 1.92526 31.4152 1.961 31.1138 1.92419C30.7744 1.88097 30.392 1.76092 30.0291 1.70347C29.8293 1.67151 29.64 1.65831 29.4785 1.68456C29.183 1.73309 29.2569 1.89612 29.1371 2.0147C28.9104 2.24378 28.4575 1.89338 28.3901 1.84065C28.3881 1.83843 28.6376 1.77569 28.4943 1.70424C28.398 1.53632 28.3927 1.83964 28.3901 1.84065C28.3478 1.80379 27.835 1.82772 27.74 1.87558C27.6882 1.9005 27.7411 2.05064 27.714 2.06072C27.0658 2.29791 26.4299 2.47461 25.756 2.58981C25.7436 2.59005 25.7133 2.41702 25.6845 2.41978C25.2803 2.45534 25.0989 2.74 24.8388 2.96606C24.578 3.19325 24.3315 3.24557 24.0385 3.04176C23.8256 3.16932 23.4485 3.19235 23.2278 3.20866C23.0066 3.22482 23.1306 3.54406 23.1178 3.55759C22.7189 3.9974 22.3517 3.97684 21.8401 4.25215C21.5967 4.38159 21.1695 4.72385 20.9524 4.92824C20.7806 5.08885 20.6199 5.10976 20.4801 5.28223C20.4613 5.30547 20.5774 5.40701 20.574 5.41705C20.4989 5.7059 20.3596 5.34515 20.2794 5.3241C19.9885 5.24897 19.8147 5.22355 19.6484 5.51446C19.6086 5.58246 19.8038 6.11993 19.7322 6.22737C19.6365 6.36812 19.5531 6.18507 19.4567 6.3383C19.4484 6.35134 19.5312 6.43494 19.4501 6.50485C19.0751 6.83048 18.6491 7.17841 18.3202 7.58108C18.2751 7.63563 18.4758 7.68834 18.4138 7.76855C18.1231 8.14482 17.803 8.55049 17.4665 8.8819C17.3832 8.96331 17.3163 8.83004 17.2701 8.82848C16.9873 8.8236 17.1501 9.1976 17.1371 9.22996C16.8165 10.0302 16.2303 10.4562 16.0004 11.3168C15.9869 11.3658 16.1809 11.8382 15.8313 11.8682C15.8081 11.8695 15.4482 11.9027 15.6023 12.1162C15.6121 12.1292 15.8019 12.0949 15.7246 12.2517C15.647 12.4101 15.6592 12.7061 15.4129 12.8785C15.3354 12.9319 14.9726 13.0134 15.1542 13.3062C15.1654 13.3288 15.6308 13.8127 15.2158 13.8321C15.1477 13.8352 14.7417 13.7119 14.888 14.0305C14.917 14.0909 15.0299 14.0206 15.0564 14.1669C15.0981 14.3896 14.931 14.6392 15.0716 14.9237C15.0962 14.9745 15.3471 15.2042 15.1101 15.3191C15.0729 15.3373 14.9402 15.2717 14.9128 15.3486C14.7819 15.7162 14.8317 16.1267 14.7073 16.5071C14.6638 16.6432 14.4411 16.557 14.3714 16.7008C14.3014 16.8449 14.2313 17.1406 14.3331 17.2979C14.4348 17.4536 14.7995 17.2927 14.8265 17.5184C14.83 17.5473 14.8334 17.5762 14.8365 17.6051C14.94 18.5454 14.8239 19.4904 14.9688 20.4347C14.9913 20.5777 15.0957 20.4361 15.1394 20.6429C15.2921 21.417 15.8022 22.6517 15.8163 23.3823C15.8243 23.9765 15.3989 23.3966 15.4825 23.8268C15.5261 24.0381 16.0038 24.0667 16.036 24.104C16.3606 24.4787 16.3476 24.8572 16.6112 25.2078C16.6656 25.2793 16.771 25.1189 16.8154 25.18C16.9682 25.3866 17.0432 25.656 17.1882 25.8552C17.2536 25.944 17.3519 25.8556 17.3986 25.9448C17.5124 26.1575 17.5884 26.363 17.629 26.6267C17.633 26.651 17.4147 26.6275 17.5172 26.7781C17.683 27.0204 17.8158 27.3874 18.1307 27.5683C18.2249 27.6216 18.4528 27.4303 18.4374 27.7268C18.4345 27.7885 18.1274 27.9841 18.527 27.9661C18.5952 27.9665 19.1802 27.9844 19.1304 28.3155C19.1171 28.4032 19.0084 28.71 19.1285 28.7627C19.1453 28.7689 19.2105 28.6086 19.2929 28.6669C19.581 28.8739 19.8417 29.1333 20.149 29.3268C20.2311 29.3779 20.2292 29.1598 20.3473 29.2388C20.6712 29.4554 21.0281 29.7816 21.3106 30.0423C21.4145 30.1387 21.2565 30.1959 21.2562 30.214C21.2547 30.5094 21.5227 30.2933 21.5778 30.3071C21.9231 30.3989 22.0605 30.6657 22.3528 30.7896C22.433 30.8237 22.4585 30.6575 22.4804 30.654C22.7013 30.6238 22.447 30.8021 22.5299 30.8849C22.7629 31.118 23.0842 31.2723 23.3827 31.394C23.4921 31.4381 23.4518 31.2174 23.5482 31.2583C24.1201 31.4962 24.7073 31.7498 25.2513 32.0348C25.3541 32.0888 25.2423 32.1992 25.2551 32.237C25.3462 32.5022 25.6714 32.2818 25.7314 32.2688C26.0103 32.2116 26.072 32.3559 26.2944 32.3888C27.3747 32.5506 28.6881 32.8004 29.724 32.8638C29.827 32.8708 29.9286 32.8771 30.0291 32.8828C31.2324 32.9459 32.2411 32.9466 33.4042 32.6603C33.4839 32.6403 33.3625 32.4771 33.43 32.4575C34.2985 32.2134 35.1703 32.0073 35.9836 31.6028C36.0501 31.5699 35.8831 31.4498 35.9864 31.3917C36.1978 31.2714 36.4763 31.1527 36.7207 31.0936C36.8399 31.0644 36.7635 31.2718 36.8829 31.239C37.1616 31.1623 37.4373 31.0278 37.6759 30.857C37.7767 30.7841 37.5253 30.7218 37.6621 30.6395C38.5918 30.0715 39.4203 29.421 40.3934 28.842C40.4597 28.8025 40.7603 29.024 40.8319 28.8581C40.7704 28.7762 40.6869 28.6904 40.6154 28.6084C41.7229 27.4608 42.7892 26.2682 43.5722 24.8527C43.6047 24.7934 43.3788 24.8044 43.4403 24.6901C43.7954 24.0236 44.0364 23.3431 44.4753 22.6778C44.5182 22.6114 44.829 22.7615 44.8538 22.5249C44.8587 22.4834 44.9208 22.1369 44.8739 22.0306C44.8666 22.016 44.6961 22.0301 44.7228 21.9234C44.8804 21.3014 45.0618 20.6611 45.2586 20.0393C45.2906 19.9386 45.4412 20.075 45.4654 20.0029C45.6364 19.4892 45.5652 18.9012 45.7437 18.3983C45.8626 18.0613 46.15 18.1989 46.4445 18.0182C46.4864 17.9925 46.4964 17.7703 46.6643 17.7598C47.0873 17.7323 47.549 17.8509 48 17.8091C48.0978 17.8002 47.994 17.4719 48.2281 17.6668C48.2441 17.6804 48.3196 17.9204 48.3975 17.9815C48.4516 18.024 48.6242 17.9524 48.6927 18.0393C48.761 18.1267 48.6153 18.2161 48.6924 18.36C48.7699 18.5051 48.9684 18.4492 48.9753 18.7393ZM22.2288 3.31435C21.9776 3.2663 22.2463 3.80152 22.3577 3.57638C22.3628 3.5649 22.2415 3.31655 22.2288 3.31435ZM43.3543 8.09036C43.4174 7.72543 42.9995 7.81716 42.9429 8.08206C42.8832 8.34366 43.3339 8.19965 43.3543 8.09036ZM44.8931 10.2852C44.9421 9.91772 44.1673 10.2664 44.4614 10.4698C44.4782 10.4817 44.8901 10.3064 44.8931 10.2852ZM46.4815 18.9049C46.4898 18.9029 46.5092 18.7436 46.5014 18.7392C46.3179 18.6422 46.2798 18.9569 46.4815 18.9049ZM46.0766 12.7046C46.159 12.5791 45.9474 12.3546 45.8482 12.5123C45.7686 12.6374 45.9744 12.859 46.0766 12.7046ZM14.7625 10.3098C14.753 10.3087 14.6953 10.4115 14.742 10.4308C14.8922 10.4925 14.9203 10.3271 14.7625 10.3098ZM46.8093 17.2298C46.8231 16.5602 47.486 16.0755 47.451 16.8511C47.443 16.9891 47.2137 16.5649 47.1591 16.7431C47.059 17.0622 47.5044 17.2663 47.2695 17.5991C47.2271 17.6563 46.8079 17.266 46.8083 17.2287C46.8086 17.2291 46.809 17.2294 46.8093 17.2298ZM21.7811 2.74072C21.7736 2.73561 21.6272 2.80938 21.6278 2.8183C21.6454 3.02637 21.9369 2.87962 21.7811 2.74072ZM12.7568 16.9084C12.7386 16.9165 12.7119 17.3022 12.7283 17.3153C13.0334 17.5181 13.0869 16.7531 12.7568 16.9084ZM32.4854 0.342843C32.6921 0.178801 32.9199 0.192435 33.0223 0.453902C32.8454 0.410307 32.6638 0.379866 32.4854 0.342843Z" fill="black"/>
</svg>
