<svg width="86" height="132" viewBox="0 0 86 132" fill="none" xmlns="http://www.w3.org/2000/svg">
<path d="M34.5807 42.2792C-27.2305 47.6893 14.2069 102.596 34.5807 127.5C38.0616 119.123 32.5333 99.6063 47.0333 98.5001C56.6162 97.769 68.5712 118.513 68.3664 127.5C77.4783 95.5898 112.033 35.5 34.5807 42.2792Z" fill="white"/>
<path d="M31.1579 126.429C30.0312 125.12 28.6065 123.244 27.5874 121.819C27.2624 121.365 27.52 121.522 27.2988 121.205C26.8606 120.577 26.4141 120.086 26.0003 119.468C25.8648 119.265 26.1831 119.403 26.0379 119.192C25.2332 118.024 24.4072 117.006 23.5825 115.843C19.5277 110.114 15.663 104.432 12.088 98.2913C10.9059 96.2629 9.64156 93.7005 8.47979 91.5919C8.34381 91.3459 8.2895 91.5619 8.25411 91.5198C7.69955 90.8462 8.09389 90.9628 7.87965 90.4507C7.03745 88.4319 6.02558 86.2061 5.17685 84.2911C4.81091 83.4612 4.88118 84.4129 4.6928 83.5055C4.67974 83.4428 4.90989 83.5974 4.83383 83.3614C4.65933 82.8265 4.25939 81.8513 4.12666 81.4457C3.86756 80.6566 3.81603 80.5132 3.56507 79.7636C3.22466 78.7352 2.92938 77.501 2.59417 76.3726C2.52305 76.1345 2.45128 76.4938 2.32465 76.1167C2.195 75.7365 1.96845 74.7295 1.93126 74.3695C1.89154 74.0087 2.04784 74.1327 2.06262 74.0644C2.18738 73.5041 1.63839 72.3772 1.60823 72.2232C1.00535 69.4202 1.04555 66.9078 1.27631 64.2212C1.45129 62.1731 1.87648 59.9746 2.61262 58.1323C3.49058 55.9371 4.63763 54.2334 6.08201 52.5095C6.23928 52.325 5.90957 52.4172 6.10423 52.1906C8.15469 49.8142 10.7877 47.9645 13.54 46.6827C13.8173 46.554 13.5437 46.8813 13.8249 46.7625C15.6239 45.9701 18.332 45.2957 19.2539 44.251C20.4526 43.8844 21.8865 43.5125 23.0613 43.3755C23.814 43.2899 23.1419 43.6344 24.0296 43.3481C24.2166 43.2879 23.9358 43.1895 24.2135 43.1126C25.3815 42.7897 26.7411 42.5784 28.0061 42.2878C28.2635 42.2284 28.1701 42.1004 28.2401 42.0632C28.8687 41.7511 29.8448 41.9565 30.0685 41.9517C31.6961 41.9155 32.9097 41.7121 34.5188 41.5721C34.5324 41.571 34.546 41.5698 34.5596 41.5687C34.9357 41.5372 34.4749 41.3861 34.8362 41.3492C36.7088 41.1615 38.5844 41.0534 40.2967 41.0572C40.6772 41.0586 40.3358 41.2367 40.5177 41.2458C41.3168 41.2856 41.4681 40.9731 42.3061 41.0116C42.4799 41.0197 42.3864 41.1614 42.4186 41.1757C42.9192 41.3995 43.3328 41.0513 43.4583 41.0411C45.0378 40.9067 46.0192 41.2577 47.4577 41.2269C47.6294 41.2232 47.2451 41.0414 47.7277 41.0423C51.2287 41.0552 54.7237 41.356 57.9775 41.9897C58.4684 42.0866 58.0955 42.1629 58.1243 42.1837C58.5798 42.5107 58.9848 42.2347 59.1639 42.2523C60.5557 42.3968 61.6987 42.9371 62.6472 42.7492C68.1023 44.2006 73.6522 46.3422 77.4711 50.7126C77.519 50.7671 77.3089 50.7927 77.4043 50.9005C78.5198 52.2172 78.4581 51.7867 79.4435 52.4964C79.6951 52.6812 79.903 53.6287 79.9178 53.7071C79.9914 53.9983 79.6208 53.8982 79.6573 53.9871C79.9504 54.7127 80.5809 54.1505 81.128 55.0764C81.1435 55.106 80.942 55.0604 80.9736 55.1454C81.0709 55.4089 81.2563 55.6203 81.3369 55.8844C81.5163 56.4934 81.2556 56.8517 81.8456 57.6093C81.9178 57.7074 82.287 57.3487 82.6201 58.2388C82.7626 58.5872 83.3104 60.1806 83.3957 60.6478C83.4912 61.1024 83.2603 60.8357 83.2631 60.8695C83.3884 62.1206 83.1848 61.6865 83.0391 62.3529C82.8833 63.0155 83.5311 62.7049 83.6595 62.941C83.7904 63.1794 83.7868 64.1156 83.7595 64.3375C83.7362 64.5648 83.6003 64.3067 83.5975 64.5054C83.5677 65.8231 84.0205 65.0274 84.1864 65.4457C84.5689 66.4497 84.1108 67.3071 84.1022 68.2268C84.0993 68.4793 84.209 68.2685 84.229 68.4932C84.3024 69.3809 84.1475 69.9505 84.2815 70.9498C84.3042 71.1125 84.5958 71.9434 84.3391 72.4697C84.3023 72.5437 84.1839 72.3229 84.1355 72.7032C84.0641 73.2747 83.9616 74.2959 83.9476 74.8982C83.9375 75.3476 84.1994 74.8552 84.0782 75.4129C84.0233 75.6607 83.9465 75.1837 83.8532 75.6497C83.7631 76.1086 83.62 77.3286 83.5608 77.7703C83.5031 78.2186 83.6973 77.9962 83.7032 78.0338C83.7358 78.2613 83.6825 79.1398 83.669 79.2172C83.0724 83.1076 81.9837 86.5576 81.0755 90.249C81.0034 90.5386 81.2205 90.392 81.2112 90.4367C81.0081 91.4425 80.7857 90.5439 80.4477 91.1907C80.8089 91.1848 80.636 91.5741 80.4727 92.2796C80.3947 92.6173 80.5758 92.4734 80.5802 92.5076C80.6335 93.0572 80.2791 93.3268 80.2015 93.3996C79.9154 93.6693 80.0336 94.0908 79.8399 94.2747C79.6472 94.4582 79.6147 93.8926 79.4177 94.5527C79.4801 94.7739 79.9393 94.3775 79.8371 94.8946C79.4566 96.8525 78.0694 100.28 77.53 101.776C76.9965 103.267 76.8504 103.755 76.5045 104.617C75.879 106.167 76.3071 105.668 76.0689 106.68C75.8292 107.692 75.4381 107.02 75.2688 107.118C75.1006 107.213 75.1698 107.41 75.0429 107.559C74.9161 107.708 74.9664 107.306 74.7984 107.702C74.6303 108.099 74.4518 109.276 74.5265 109.463C74.6849 109.858 75.1393 109.464 74.6637 110.489C74.6361 110.547 74.56 110.298 74.4621 110.525C73.679 112.364 72.9909 114.261 72.2248 116.113C72.1205 116.365 72.038 116.078 71.9755 116.224C71.3263 117.735 71.8005 117.267 71.8082 118.229C71.4693 117.891 71.0486 118.29 70.6397 119.474C70.3953 120.183 70.6158 120.121 70.5874 120.619C70.5784 120.77 70.292 121.216 70.3427 121.344C70.5159 121.741 70.9803 121.367 70.4505 122.559C70.4269 122.611 70.3327 122.39 70.2623 122.573C69.8077 123.764 70.0646 123.95 69.6853 125.29C69.5082 125.921 69.1765 126.81 68.8784 127.646L67.8342 127.488C67.8849 126.936 67.8807 126.357 67.8394 125.886C68.3321 125.857 68.0614 124.714 67.636 124.348C67.4956 123.573 67.2676 122.766 67.0992 122.037C67.0396 121.783 67.2231 121.906 67.2283 121.871C67.3063 121.305 66.8916 121.092 66.8257 120.934C66.1239 119.241 65.7734 117.76 64.8112 116.273C64.7762 116.22 64.4316 116.275 64.4484 115.746C64.4501 115.712 64.8427 116.166 64.4907 115.419C64.1429 114.678 63.5705 113.205 62.8562 112.296C62.6841 112.073 62.0945 111.613 61.9798 111.025C61.9649 110.946 62.0903 110.965 62.0787 110.845C62.0378 110.456 61.6481 110.477 61.6671 109.974C61.6859 109.473 61.3878 108.62 60.5406 107.789C60.5138 107.762 60.1338 107.696 59.92 107.403C59.5793 106.932 59.1137 106.245 58.7227 105.775C58.5353 105.55 58.5258 105.802 58.4911 105.764C57.1625 104.334 56.3294 103.213 54.7758 101.798C54.4932 101.538 53.4997 101.043 52.973 100.486C52.3883 99.8943 53.5868 99.5882 51.7406 98.8213C50.9465 98.5323 49.7425 99.1124 48.5113 98.389C48.011 98.3456 47.5112 98.3385 47.024 98.378C44.9206 98.547 42.789 98.9783 41.1182 100.462C41.0236 100.544 40.922 101.002 40.7204 101.187C40.4188 101.46 40.1682 101.531 39.964 101.748C39.1135 102.662 38.6423 103.726 38.1634 104.809C37.9839 105.229 37.9115 105.023 37.7145 105.534C37.523 106.054 37.5916 106.442 37.3147 107.132C37.1099 107.646 36.6135 108.114 36.4324 108.847C36.7954 108.947 36.6894 109.439 36.6601 110.351C36.6553 110.524 36.8096 110.359 36.814 110.442C36.8351 110.778 36.6898 111.07 36.7257 111.394C36.7342 111.473 36.8608 111.49 36.8752 111.554C37.001 112.099 36.6361 112.946 36.5744 113.093C36.3367 113.655 36.4828 113.939 36.3771 114.377C36.2722 114.816 36.224 114.146 36.1437 114.661C35.9777 115.732 35.9268 117.114 35.859 118.206C35.8326 118.64 36.0197 118.354 36.0199 118.416C36.0117 119.323 35.7691 120.221 36.0678 120.741C35.1391 121.302 36.1188 121.285 35.8034 122.566C35.7774 122.666 35.3513 122.743 35.334 122.354C35.3168 121.961 35.502 121.395 35.4506 120.846C35.4401 120.712 35.1051 119.965 35.0878 119.862C34.9565 119.071 35.5798 119.002 35.6169 118.962C36.013 118.511 35.6439 117.597 35.6281 117.357C35.5548 116.272 35.6929 115.356 35.6602 114.443C35.6403 113.846 35.2398 113.758 35.2895 113.289C35.4648 111.726 36.0805 111.256 35.8105 109.717C35.7598 109.384 35.2571 109.628 35.8099 108.543C35.844 108.471 36.3245 107.701 36.2527 107.169C36.2431 107.102 36.117 107.072 36.127 106.989C36.198 106.433 36.4022 106.091 36.5486 105.495C36.699 104.89 36.9075 104.155 37.2669 103.524C37.4832 103.136 37.972 102.767 38.1302 102.626C38.5747 102.219 38.7248 101.552 39.1222 101.398C39.5131 101.26 39.3032 101.971 40.0044 101.386C39.781 101.132 39.5855 100.837 39.3842 100.559C40.9229 98.9683 43.0049 98.0932 45.0543 97.6705C45.314 97.6166 45.0108 97.4913 45.2935 97.4305C45.8652 97.312 46.3766 97.2724 46.938 97.2504C47.5737 97.2258 48.2044 97.2752 48.8795 97.3575C49.8744 97.4738 50.9974 97.6576 51.9352 98.0563C52.3477 98.664 53.6571 99.2769 54.4804 99.9447C54.7658 100.172 54.6838 100.24 54.8686 100.426C55.553 101.13 55.4066 100.582 55.6491 100.711C56.6821 101.297 56.2341 101.926 57.1811 102.837C57.2285 102.879 58.1275 103.223 58.222 103.292C58.853 103.733 58.2016 103.479 58.4945 103.847C59.0292 104.529 59.3321 105.037 60.0481 105.744C60.2559 105.948 60.8925 106.353 61.0673 106.926C61.0906 107.001 60.9569 107.048 60.9859 107.101C61.5157 108.056 61.8704 107.832 62.344 108.266C62.8173 108.701 63.0897 109.67 63.1199 109.879C63.2049 110.426 62.833 109.6 62.7985 109.589C62.4083 109.456 62.8232 110.015 63.0817 110.477C62.7679 110.762 63.169 111.376 63.3497 110.956C63.3691 110.909 63.1216 110.577 63.0817 110.477C63.674 110.655 64.1493 111.34 64.2561 112.312C64.3024 112.766 63.936 112.519 64.6054 113.601C64.904 114.093 65.0566 113.764 65.3614 114.185C66.0557 115.144 66.4639 116.653 66.9617 117.748C67.1447 118.151 67.1262 117.693 67.2557 117.967C67.5952 118.687 67.7382 119.397 68.0581 120.138C68.0875 120.206 68.1847 119.981 68.2691 120.221C68.8951 122.036 69.2489 123.676 69.4909 125.737C69.5424 126.206 69.6119 126.86 69.615 127.529L67.1655 127.157C67.3319 126.494 67.5164 125.8 67.6784 125.302C68.2149 123.639 69.0683 121.808 69.4805 120.407C69.7417 119.519 69.5216 119.657 69.5444 119.242C69.5865 118.444 70.4176 117.244 70.5297 117.107C70.534 117.101 70.3064 117.871 70.5281 117.492C70.7754 117.319 70.5274 117.116 70.5297 117.107C70.6044 117.01 71.1701 115.514 71.2489 115.199C71.2909 115.029 71.1111 115.069 71.1358 114.981C71.7232 112.904 72.417 110.854 73.2075 108.851C73.2233 108.816 73.3686 108.929 73.4037 108.846C73.8975 107.69 73.9701 106.844 74.1906 105.835C74.4132 104.819 74.7232 104.057 75.2075 103.574C75.4289 102.819 75.9139 101.809 76.1966 101.223C76.479 100.638 76.1846 100.444 76.1963 100.388C76.5524 98.642 77.0538 97.736 77.6329 96.0002C77.9095 95.1756 78.3667 93.5076 78.5926 92.5982C78.7715 91.8805 78.9723 91.4691 79.1087 90.7952C79.1272 90.7041 78.9561 90.7535 78.9581 90.7247C78.9887 89.9408 79.2465 90.3932 79.3525 90.2588C79.7357 89.7719 79.9543 89.4624 80.0919 88.492C80.1232 88.2711 79.7726 87.4956 79.8411 87.0913C79.9315 86.5641 80.069 86.805 80.156 86.2523C80.1634 86.2051 80.047 86.1869 80.1318 85.8547C80.5201 84.3281 80.9606 82.6128 81.2439 81.0088C81.2831 80.7894 81.0479 81.0363 81.1009 80.7194C81.3574 79.1862 81.6062 77.5922 81.8648 76.1059C81.9281 75.7455 82.0323 75.9875 82.0798 75.913C82.369 75.4525 82.0936 74.7355 82.0964 74.6248C82.1625 71.9331 82.5307 69.8572 82.198 67.1814C82.1818 67.0281 81.7145 65.9332 81.9574 65.4032C81.9743 65.3681 82.2283 64.8275 81.9415 64.4308C81.9234 64.4069 81.8094 64.7328 81.7402 64.2062C81.6685 63.6679 81.3927 62.8384 81.3912 62.0878C81.3907 61.8494 81.5673 61.2364 81.1123 60.6337C81.0836 60.5855 80.2039 59.7706 80.4377 59.2866C80.4752 59.2082 80.9012 59.1078 80.3837 58.4281C80.2828 58.2997 80.31 58.5983 80.091 58.2423C79.7554 57.7015 79.4855 56.8991 78.9365 56.3259C78.8396 56.2222 78.3118 55.8917 78.2459 55.3986C78.2352 55.3206 78.4281 55.3562 78.3076 55.1466C77.7284 54.1434 76.9012 53.2667 76.1593 52.3596C75.8914 52.0366 76.2058 52.0291 75.9313 51.6733C75.6476 51.3065 75.0408 50.6859 74.6132 50.4744C74.1899 50.2658 74.3539 50.8593 73.8004 50.4608C71.392 48.7585 68.8372 47.2507 65.936 46.2077C65.5202 46.0606 65.8276 46.2998 65.2051 46.0969C62.847 45.2874 58.5523 44.5631 56.5451 44.0559C54.8495 43.619 57.0476 43.7235 55.7304 43.4707C55.0885 43.3506 54.3265 43.6993 54.1653 43.6975C52.5748 43.6841 51.665 43.4391 50.2579 43.4284C49.9717 43.4274 50.2443 43.6107 50.0008 43.6083C49.1797 43.602 48.2378 43.4995 47.474 43.502C47.1352 43.5037 47.1961 43.6352 46.8827 43.6218C46.1311 43.5922 45.4541 43.5381 44.6916 43.4241C44.6218 43.4138 45.089 43.2459 44.5096 43.2467C43.5817 43.2486 42.3386 43.16 41.2702 43.329C40.9646 43.3794 40.9683 43.6769 40.2933 43.5025C40.1507 43.4667 40.3142 43.0982 39.546 43.4488C39.4178 43.506 38.1158 44.0003 37.4281 43.7801C37.2479 43.7214 36.7756 43.461 36.3839 43.5373C36.331 43.5488 36.5575 43.6921 36.2318 43.7329C35.7423 43.7933 35.237 43.8447 34.7223 43.8974C34.0316 43.9682 33.3473 44.0423 32.6871 44.1438C32.3808 44.1916 32.8566 44.3055 32.4012 44.3718C31.1191 44.5589 29.745 44.7032 28.4269 44.8685C27.9668 44.9254 28.2598 44.7373 28.2241 44.728C27.6479 44.5781 27.3955 44.9584 27.2265 45.0086C26.1708 45.3198 25.3729 45.3284 24.433 45.5858C24.1549 45.6615 24.3894 45.7678 24.3368 45.7944C23.7946 46.0627 24.1564 45.6877 23.7873 45.7447C22.7553 45.9047 21.6814 46.2138 20.7612 46.5213C20.4239 46.6347 20.8588 46.6886 20.5574 46.7884C18.6019 47.4442 16.8484 48.1168 15.0485 48.9123C14.7249 49.0557 14.8592 48.8304 14.7789 48.8356C14.2183 48.8702 13.7313 49.4935 13.6086 49.6C12.9863 50.1176 12.6604 50.1791 12.1062 50.5774C9.37813 52.4832 6.62637 55.4752 5.38837 58.2921C3.7454 61.9226 3.34387 65.2178 3.68921 69.181C3.71399 69.4329 3.87596 69.1621 3.90023 69.3782C4.2157 72.1847 4.76131 74.9247 5.66357 77.677C5.73667 77.8989 5.80501 77.5253 5.9285 77.8792C6.18281 78.6035 6.49183 79.5464 6.71073 80.314C6.8147 80.6797 6.49836 80.2527 6.60669 80.6207C6.85996 81.4783 7.20114 82.3892 7.58682 83.2503C7.75171 83.6165 7.6866 82.9883 7.88836 83.469C9.24723 86.6775 10.8239 89.7838 12.3416 93.0228C12.446 93.245 12.2329 93.6178 12.5481 94.0359C12.656 94.0203 12.7592 93.9598 12.8624 93.9214C15.4425 98.3862 18.1062 102.769 21.0534 107.057C21.1783 107.239 21.1208 106.815 21.3635 107.166C22.7645 109.185 24.2075 111.097 25.5449 113.224C25.68 113.437 25.3288 113.538 25.8134 114.102C25.8993 114.202 26.6021 115.063 26.8327 115.244C26.865 115.268 26.8711 115.012 27.0887 115.292C28.3668 116.942 29.6543 118.665 30.8785 120.375C31.0725 120.647 30.7192 120.474 30.8562 120.668C31.8086 122.021 33.0925 123.418 33.9864 124.766C34.5988 125.686 34.1138 125.553 34.2538 126.183C34.2741 126.273 34.6878 126.79 34.5785 126.922C34.3065 127.257 33.7459 127.303 33.4798 127.689C33.4233 127.774 34.0587 128.386 33.5489 128.133C33.5144 128.115 33.0488 127.668 32.8855 127.594C32.7725 127.542 32.7668 127.806 32.5686 127.674C32.3701 127.542 32.3228 127.257 32.0165 127.011C31.7085 126.764 31.6662 127.021 31.1579 126.429ZM77.4535 98.5801C77.7937 98.0627 77.2517 97.7948 77.1883 98.4522C77.1859 98.4843 77.4363 98.6069 77.4535 98.5801ZM43.1803 98.7075C44.0192 98.6616 44.4801 98.1531 43.841 98.1257C43.1955 98.1147 42.9101 98.7329 43.1803 98.7075ZM37.5818 104.842C38.1365 104.061 37.439 103.554 37.1784 104.589C37.1637 104.651 37.5504 104.888 37.5818 104.842ZM32.5006 124.149C32.4997 124.16 32.7917 124.535 32.8047 124.539C33.1111 124.616 32.5277 123.868 32.5006 124.149ZM36.1576 112.847C36.2951 112.574 36.2469 111.737 36.069 112.078C35.9241 112.354 35.9841 113.19 36.1576 112.847ZM83.8116 68.2647C83.8205 68.2548 83.8118 67.9105 83.7615 67.9202C83.6013 67.9518 83.6689 68.4264 83.8116 68.2647ZM34.7468 126.393C35.3117 124.503 36.1537 123.344 35.6491 125.546C35.5468 125.939 35.6188 124.638 35.4472 125.133C35.1382 126.005 35.3923 126.757 34.8094 127.576C34.7145 127.722 34.7308 126.486 34.7469 126.39C34.7468 126.391 34.7468 126.392 34.7468 126.393ZM78.2433 98.4751C78.2546 98.4662 78.4097 98.0113 78.4057 97.9979C78.3049 97.6922 77.9928 98.6079 78.2433 98.4751ZM76.4068 49.9239C76.4047 49.8907 75.5677 49.1542 75.5234 49.1465C74.8911 49.0155 76.5625 50.4814 76.4068 49.9239ZM67.8501 125.866C67.6055 125.389 67.4801 124.787 67.6362 124.35C67.721 124.838 67.8057 125.367 67.8501 125.866Z" fill="black"/>
<circle cx="38.0333" cy="19" r="17" fill="white"/>
<path d="M56.9796 20.1342C56.9952 20.8058 56.8371 21.6738 56.643 22.314C56.5829 22.5143 56.4973 22.3917 56.4503 22.5276C56.3581 22.7914 56.3544 23.0579 56.2435 23.314C56.2062 23.3984 56.0689 23.25 56.0336 23.3387C55.8407 23.8226 55.7486 24.3032 55.5507 24.7896C54.5757 27.1731 53.2371 29.3328 51.4625 31.1789C50.8772 31.7909 50.0356 32.3815 49.4071 32.9754C49.3337 33.0453 49.4732 33.1219 49.4659 33.1434C49.3444 33.4794 49.2376 33.1834 49.0584 33.2732C48.3456 33.6292 47.6277 34.0929 47.0077 34.5162C46.7436 34.6959 47.1666 34.7924 46.804 34.8078C46.7792 34.809 46.7737 34.6329 46.6893 34.6607C46.4986 34.7246 46.1809 34.9227 46.0378 34.9796C45.7625 35.0889 45.7196 35.111 45.4663 35.2264C45.1178 35.3826 44.6725 35.4851 44.3038 35.6613C44.2248 35.6994 44.39 35.8091 44.2679 35.8836C44.146 35.9588 43.7905 36.0683 43.6594 36.0705C43.5287 36.0735 43.5405 35.9369 43.5107 35.9162C43.2659 35.7406 42.9618 36.183 42.9081 36.2057C41.9779 36.6144 41.0835 36.5913 40.1601 36.7034C39.4601 36.7884 38.7112 36.8932 38.0333 36.8849C38.0277 36.8848 38.0221 36.8848 38.0165 36.8847C37.2045 36.871 36.5317 36.7396 35.7534 36.657C35.6713 36.6477 35.7434 36.8474 35.6422 36.8362C34.5669 36.7158 33.509 36.4548 32.529 36.0037C32.4309 35.9582 32.6132 35.8434 32.5192 35.7887C31.9341 35.4607 31.1466 34.7809 30.4933 35.266C30.1005 35.0539 29.6311 34.7784 29.3584 34.4569C29.1836 34.25 29.4867 34.2161 29.1807 34.1277C29.1118 34.1071 29.1102 34.2896 29.0123 34.2478C28.5989 34.0704 28.2184 33.7632 27.8105 33.5758C27.7272 33.5379 27.6654 33.6675 27.6297 33.6734C27.3311 33.7159 27.2442 33.224 27.1997 33.1577C26.8444 32.6505 26.4738 32.4322 26.0701 32.0582C25.977 31.971 25.9594 32.2134 25.8646 32.1338C25.3749 31.7176 24.9204 31.2238 24.5734 30.6955C24.4968 30.5777 24.703 30.5684 24.6731 30.5069C24.5422 30.2385 24.2656 30.3843 24.1398 30.1233C24.1134 30.0686 24.2426 30.0081 24.2478 29.9902C24.3312 29.7114 23.9763 29.8055 23.9433 29.7747C23.5278 29.397 23.6155 28.9057 23.2903 28.4975C23.2509 28.448 23.1803 28.663 23.0783 28.517C22.3976 27.544 21.8696 26.3817 21.5894 25.2418C21.5456 25.0645 21.7147 25.1395 21.7258 25.1229C21.8993 24.8624 21.5409 24.8685 21.5088 24.8162C21.266 24.4046 21.416 23.9119 20.9417 23.7151C20.6276 22.152 20.2964 20.584 20.4303 19C20.4633 18.6095 20.5245 18.2289 20.6211 17.8482C20.6269 17.8239 20.7912 17.8788 20.8021 17.8305C20.9399 17.252 20.6729 17.3491 20.3994 16.9153C20.3312 16.8039 20.7526 16.5525 20.7845 16.5321C20.901 16.4516 21.1336 16.5856 21.1581 16.5567C21.3526 16.323 20.5299 16.2379 20.5928 15.873C20.5962 15.862 20.7372 15.9358 20.7574 15.9083C20.8206 15.8232 20.7786 15.7197 20.8476 15.6386C21.0076 15.4531 21.4129 15.4652 21.256 15.1043C21.2362 15.058 20.7641 15.0136 20.8639 14.6996C20.9019 14.5752 21.048 14.0126 21.1263 13.868C21.2024 13.7225 21.3141 13.8728 21.3237 13.8636C21.6426 13.5125 21.673 13.6937 22.0189 13.5872C22.364 13.4857 21.6832 13.3113 21.6384 13.2024C21.5935 13.0931 21.8573 12.8538 21.9386 12.8039C22.0195 12.7532 22.0745 12.8764 22.1291 12.8251C22.4896 12.4887 21.8787 12.5129 21.832 12.3315C21.7263 11.8978 22.3177 11.8496 22.4996 11.5864C22.5495 11.5142 22.412 11.5268 22.4359 11.4519C22.5339 11.1549 22.7611 11.0661 22.7972 10.688C22.8023 10.6273 22.6705 10.2214 22.9634 10.1768C23.0051 10.1711 23.0794 10.3 23.171 10.2021C23.3074 10.056 23.5166 9.77314 23.5957 9.57458C23.6542 9.42746 23.3776 9.45862 23.5418 9.33134C23.6149 9.27544 23.6289 9.4785 23.7573 9.36873C23.8843 9.25915 24.1178 8.91969 24.2088 8.79163C24.2987 8.66329 24.118 8.63512 24.1167 8.61848C24.1121 8.51889 24.2369 8.2286 24.2544 8.20762C25.0896 7.11574 26.1669 6.41704 27.1249 5.52189C27.201 5.4516 27.0403 5.36188 27.0508 5.34979C27.2856 5.07122 27.3484 5.6007 27.6336 5.57032C27.3933 5.31856 27.5455 5.27791 27.7223 5.09904C27.8075 5.01279 27.6756 4.9436 27.6761 4.92605C27.7008 4.65476 27.958 4.79544 28.0145 4.82138C28.2245 4.91531 28.1962 4.65054 28.3375 4.7146C28.4769 4.77895 28.4363 5.04132 28.6286 4.90875C28.615 4.7687 28.2874 4.59757 28.4097 4.45293C28.8732 3.89266 30.1371 3.48506 30.6464 3.28746C31.1556 3.07958 31.313 2.99318 31.6258 2.91471C32.193 2.78102 31.9102 2.63323 32.2152 2.40627C32.5254 2.18276 32.5463 2.80205 32.6359 2.90569C32.7233 3.01051 32.7335 2.86925 32.8141 2.9166C32.8939 2.96427 32.7947 3.08708 32.9392 3.06817C33.0824 3.04848 33.3927 2.72118 33.4088 2.57958C33.4394 2.27907 33.1827 2.04085 33.5943 2.03862C33.6178 2.03886 33.5859 2.20796 33.6738 2.20133C34.3659 2.14545 35.0653 2.01707 35.7508 2.03301C35.8449 2.03554 35.7852 2.21798 35.8397 2.22152C36.4065 2.26427 36.174 1.99927 36.4547 1.64584C36.4251 2.08271 36.6165 2.32567 37.0336 2.30264C37.2862 2.29032 37.2317 2.105 37.3919 1.96553C37.4404 1.9234 37.6248 2.04759 37.6556 1.95852C37.759 1.6676 37.5784 1.34332 38.0333 1.46939C38.0335 1.46945 38.0337 1.4695 38.0339 1.46955C38.0409 1.47172 38.0376 1.49282 38.0333 1.51967C38.0277 1.55498 38.0207 1.60023 38.0333 1.62535C38.0383 1.63531 38.0464 1.64211 38.059 1.64389C38.4978 1.71017 38.5554 1.40778 39.0393 1.39525C39.4214 1.38528 40.0706 1.63247 40.4849 1.724C40.4104 2.20261 40.8088 2.14935 41.0274 1.84918C41.2965 1.90958 41.5911 1.94898 41.8414 2.05252C41.9272 2.08798 41.8375 2.21176 41.8455 2.2291C41.9621 2.49963 42.1505 2.21111 42.2118 2.21313C42.8685 2.2499 43.2925 2.63775 43.9476 2.61669C43.9705 2.61586 44.1206 2.31117 44.1907 2.60009C44.1943 2.61963 43.9512 2.69181 44.2169 2.80478C44.4848 2.91822 44.9101 3.28999 45.3349 3.3178C45.4368 3.32352 45.7806 3.1845 45.8618 3.46534C45.8721 3.50308 45.803 3.57642 45.8122 3.64137C45.8416 3.84859 46.0581 3.57709 46.0486 3.89957C46.0389 4.22233 46.1825 4.54496 46.6179 4.5721C46.6313 4.57336 46.85 4.38928 46.9549 4.45877C47.1216 4.56907 47.3286 4.76888 47.5011 4.88311C47.5838 4.93776 47.6251 4.76344 47.6411 4.77054C48.2525 5.07424 48.5517 5.48608 49.0569 5.99608C49.1484 6.08859 49.5875 6.16873 49.6523 6.47689C49.7195 6.81285 48.9545 7.21369 49.5273 7.50132C49.7508 7.6142 50.7427 7.13562 50.6508 7.84728C51.3466 8.43411 51.6232 9.25826 52.2644 9.9025C52.293 9.93134 52.6083 9.88426 52.656 9.96919C52.7261 10.0949 52.6497 10.2323 52.6936 10.3237C52.8741 10.709 53.1622 10.9949 53.3306 11.3717C53.394 11.5145 53.244 11.5278 53.3169 11.6973C53.3887 11.866 53.6099 11.901 53.6297 12.1679C53.6439 12.3706 53.3669 12.6886 53.4152 12.9306C53.7658 12.8017 53.8233 12.9631 54.0206 13.2174C54.0586 13.2663 54.1595 13.1627 54.1839 13.1837C54.2859 13.269 54.219 13.4047 54.3229 13.4841C54.348 13.5036 54.4694 13.4641 54.4968 13.478C54.7357 13.5964 54.5533 13.9787 54.5192 14.0411C54.3942 14.286 54.5786 14.3289 54.5471 14.4969C54.5145 14.6633 54.3654 14.4687 54.3673 14.6509C54.3707 15.026 54.4942 15.4752 54.5563 15.8378C54.5819 15.9823 54.731 15.8528 54.7385 15.8727C54.8378 16.1683 54.7048 16.501 55.0641 16.6227C54.2219 16.9507 55.1762 16.7944 55.049 17.2595C55.0384 17.2958 54.6297 17.3789 54.5559 17.2559C54.482 17.1334 54.5881 16.9218 54.4697 16.7558C54.4421 16.715 54.0227 16.534 53.9942 16.5067C53.7731 16.2863 54.3767 16.1465 54.4081 16.1262C54.7437 15.9058 54.2739 15.687 54.2295 15.6188C54.0266 15.2955 54.0403 14.9844 53.8712 14.7199C53.7609 14.5477 53.3647 14.6414 53.3355 14.4963C53.2355 14.0196 53.7119 13.659 53.0882 13.3852C52.9539 13.3276 52.577 13.5791 52.773 13.1233C52.7861 13.0957 52.9811 12.7268 52.7331 12.6639C52.7021 12.6563 52.5836 12.7083 52.5636 12.6895C52.4318 12.5634 52.4797 12.4186 52.3569 12.2731C52.2342 12.1282 52.0715 11.964 52.0145 11.7593C51.9805 11.6363 52.1159 11.3794 52.1377 11.2965C52.2028 11.0609 51.8677 11.0371 51.9914 10.8411C52.1135 10.6409 52.4968 10.6705 52.4601 10.3475C52.1662 10.5112 51.8579 10.6683 51.5601 10.8293C51.2537 10.3005 50.9997 9.73877 50.6079 9.2577C50.5591 9.19858 50.4645 9.37121 50.4089 9.31144C50.1754 9.06075 50.0816 8.74709 49.8055 8.51383C49.5911 8.33387 49.2459 8.24612 49.0124 8.07998C49.1632 7.68445 48.7608 7.47666 48.553 7.24533C48.4798 7.16369 48.5532 7.09166 48.5165 7.01479C48.3742 6.72711 48.2571 7.07616 48.1619 7.06484C47.7556 7.02209 48.2219 6.40759 47.8786 6.16475C47.8597 6.15048 47.4003 6.31798 47.3572 6.31873C47.0741 6.31811 47.4111 6.18091 47.3116 6.07142C47.1291 5.87268 47.0293 5.68455 46.7023 5.61482C46.6057 5.59427 46.2892 5.69584 46.2429 5.4368C46.2366 5.40271 46.3177 5.29333 46.3058 5.27684C46.0813 4.9882 45.8574 5.35327 45.6231 5.38656C45.3897 5.42046 45.2718 5.02634 45.255 4.92292C45.214 4.6555 45.406 4.89513 45.4232 4.88042C45.6323 4.70119 45.4178 4.63728 45.2766 4.5426C45.4428 4.1581 45.2136 4.07362 45.129 4.44634C45.1199 4.48699 45.2549 4.51018 45.2766 4.5426C44.9591 4.84177 44.72 4.78298 44.6182 4.31746C44.5692 4.0998 44.771 3.9567 44.3605 3.86531C44.1745 3.82558 44.1318 4.11902 43.953 4.13163C43.5477 4.16163 43.1919 3.75036 42.8107 3.67685C42.6746 3.65084 42.7562 3.84074 42.6622 3.82858C42.4143 3.79786 42.2349 3.62491 41.9773 3.62134C41.9542 3.62132 41.9662 3.79442 41.8917 3.77767C41.326 3.65569 40.8488 3.45327 40.2439 3.36437C39.9518 3.32015 39.4194 3.3559 39.1181 3.31909C38.7787 3.27586 38.3962 3.15582 38.0333 3.09836C37.8336 3.06641 37.6442 3.05321 37.4828 3.07946C37.1872 3.12798 37.2612 3.29102 37.1414 3.4096C36.9147 3.63868 36.4618 3.28828 36.3944 3.23555C36.3924 3.23332 36.6419 3.17059 36.4986 3.09914C36.4023 2.93122 36.397 3.23454 36.3944 3.23555C36.352 3.19869 35.8392 3.22262 35.7443 3.27048C35.6925 3.2954 35.7454 3.44554 35.7183 3.45562C35.0701 3.69281 34.4342 3.8695 33.7602 3.98471C33.7478 3.98495 33.7175 3.81192 33.6888 3.81468C33.2845 3.85024 33.1032 4.1349 32.8431 4.36096C32.5822 4.58814 32.3358 4.64047 32.0427 4.43666C31.8299 4.56422 31.4528 4.58724 31.2321 4.60356C31.0109 4.61972 31.1349 4.93896 31.1221 4.95249C30.7231 5.3923 30.356 5.37174 29.8444 5.64705C29.6009 5.77649 29.1738 6.11875 28.9566 6.32313C28.7848 6.48375 28.6241 6.50465 28.4844 6.67712C28.4655 6.70037 28.5817 6.80191 28.5782 6.81195C28.5032 7.1008 28.3638 6.74004 28.2837 6.719C27.9928 6.64387 27.8189 6.61844 27.6527 6.90936C27.6129 6.97736 27.8081 7.51483 27.7365 7.62227C27.6408 7.76302 27.5574 7.57997 27.461 7.73319C27.4527 7.74623 27.5354 7.82984 27.4544 7.89975C27.0794 8.22537 26.6534 8.57331 26.3245 8.97598C26.2794 9.03052 26.4801 9.08324 26.4181 9.16345C26.1274 9.53972 25.8073 9.94539 25.4708 10.2768C25.3874 10.3582 25.3206 10.2249 25.2744 10.2234C24.9916 10.2185 25.1544 10.5925 25.1414 10.6249C24.8207 11.425 24.2346 11.8511 24.0047 12.7117C23.9912 12.7607 24.1852 13.2331 23.8355 13.2631C23.8124 13.2644 23.4525 13.2976 23.6065 13.5111C23.6164 13.524 23.8061 13.4898 23.7289 13.6466C23.6513 13.805 23.6634 14.101 23.4171 14.2734C23.3397 14.3268 22.9769 14.4083 23.1585 14.7011C23.1697 14.7237 23.6351 15.2076 23.22 15.227C23.152 15.2301 22.746 15.1068 22.8923 15.4254C22.9213 15.4858 23.0342 15.4155 23.0607 15.5617C23.1024 15.7845 22.9353 16.0341 23.0758 16.3186C23.1004 16.3694 23.3513 16.5991 23.1143 16.714C23.0772 16.7322 22.9445 16.6666 22.9171 16.7435C22.7862 17.1111 22.8359 17.5216 22.7116 17.902C22.6681 18.0381 22.4453 17.9519 22.3756 18.0957C22.3057 18.2398 22.2356 18.5355 22.3374 18.6928C22.439 18.8485 22.8038 18.6876 22.8307 18.9133C22.8343 18.9422 22.8377 18.9711 22.8408 19C22.9443 19.9403 22.8282 20.8853 22.973 21.8296C22.9955 21.9726 23.1 21.831 23.1437 22.0378C23.2964 22.8119 23.8065 24.0466 23.8205 24.7772C23.8285 25.3714 23.4032 24.7915 23.4868 25.2217C23.5303 25.433 24.0081 25.4616 24.0403 25.4989C24.3648 25.8736 24.3519 26.2521 24.6155 26.6027C24.6699 26.6742 24.7752 26.5138 24.8197 26.5749C24.9725 26.7815 25.0475 27.0509 25.1925 27.2501C25.2578 27.3389 25.3561 27.2505 25.4029 27.3397C25.5167 27.5523 25.5927 27.7579 25.6333 28.0216C25.6372 28.0459 25.4189 28.0224 25.5214 28.173C25.6872 28.4152 25.8201 28.7823 26.135 28.9632C26.2291 29.0165 26.4571 28.8252 26.4416 29.1217C26.4388 29.1834 26.1317 29.379 26.5312 29.3609C26.5994 29.3614 27.1845 29.3793 27.1347 29.7104C27.1214 29.7981 27.0127 30.1049 27.1327 30.1576C27.1496 30.1638 27.2148 30.0035 27.2972 30.0618C27.5853 30.2688 27.846 30.5282 28.1533 30.7217C28.2353 30.7728 28.2335 30.5547 28.3516 30.6337C28.6755 30.8503 29.0324 31.1765 29.3149 31.4372C29.4188 31.5336 29.2608 31.5908 29.2604 31.6089C29.259 31.9043 29.527 31.6882 29.5821 31.702C29.9274 31.7938 30.0648 32.0606 30.357 32.1845C30.4373 32.2186 30.4628 32.0524 30.4847 32.0489C30.7055 32.0187 30.4513 32.197 30.5341 32.2798C30.7672 32.5129 31.0885 32.6672 31.387 32.7889C31.4964 32.833 31.4561 32.6123 31.5525 32.6532C32.1244 32.8911 32.7116 33.1447 33.2556 33.4297C33.3583 33.4837 33.2465 33.5941 33.2594 33.6319C33.3505 33.8971 33.6756 33.6767 33.7356 33.6637C34.0146 33.6065 34.0762 33.7508 34.2987 33.7837C35.379 33.9455 36.6923 34.1953 37.7283 34.2587C37.8313 34.2657 37.9329 34.272 38.0333 34.2777C39.2367 34.3408 40.2454 34.3415 41.4084 34.0552C41.4882 34.0352 41.3667 33.872 41.4343 33.8524C42.3027 33.6083 43.1745 33.4022 43.9878 32.9977C44.0544 32.9648 43.8874 32.8447 43.9907 32.7866C44.2021 32.6663 44.4805 32.5476 44.725 32.4885C44.8442 32.4593 44.7678 32.6667 44.8872 32.6339C45.1658 32.5572 45.4416 32.4227 45.6801 32.2519C45.781 32.1789 45.5296 32.1167 45.6664 32.0344C46.5961 31.4664 47.4246 30.8159 48.3977 30.2369C48.464 30.1974 48.7646 30.4189 48.8361 30.253C48.7746 30.1711 48.6912 30.0853 48.6197 30.0033C49.7271 28.8557 50.7935 27.6631 51.5764 26.2476C51.609 26.1883 51.3831 26.1993 51.4446 26.085C51.7997 25.4185 52.0406 24.738 52.4796 24.0727C52.5225 24.0063 52.8332 24.1564 52.8581 23.9198C52.8629 23.8783 52.9251 23.5318 52.8782 23.4255C52.8708 23.4109 52.7004 23.425 52.7271 23.3183C52.8847 22.6963 53.0661 22.056 53.2629 21.4342C53.2949 21.3335 53.4454 21.4699 53.4697 21.3977C53.6406 20.8841 53.5695 20.2961 53.748 19.7932C53.8669 19.4561 54.1543 19.5938 54.4488 19.4131C54.4906 19.3874 54.5007 19.1652 54.6685 19.1547C55.0916 19.1272 55.5532 19.2458 56.0043 19.204C56.1021 19.1951 55.9982 18.8668 56.2324 19.0617C56.2484 19.0753 56.3239 19.3153 56.4018 19.3764C56.4559 19.4189 56.6285 19.3473 56.697 19.4342C56.7653 19.5216 56.6196 19.611 56.6967 19.7549C56.7742 19.9 56.9727 19.8441 56.9796 20.1342ZM30.2331 4.70924C29.9819 4.66119 30.2506 5.19642 30.362 4.97128C30.367 4.9598 30.2457 4.71145 30.2331 4.70924ZM51.3586 9.48525C51.4217 9.12033 51.0037 9.21205 50.9472 9.47695C50.8875 9.73855 51.3382 9.59455 51.3586 9.48525ZM52.8974 11.6801C52.9464 11.3126 52.1716 11.6613 52.4657 11.8646C52.4824 11.8766 52.8943 11.7013 52.8974 11.6801ZM54.4858 20.2998C54.4941 20.2978 54.5135 20.1385 54.5057 20.1341C54.3222 20.0371 54.2841 20.3518 54.4858 20.2998ZM54.0808 14.0995C54.1632 13.974 53.9517 13.7495 53.8525 13.9071C53.7729 14.0323 53.9787 14.2539 54.0808 14.0995ZM22.7667 11.7047C22.7572 11.7036 22.6996 11.8064 22.7463 11.8257C22.8964 11.8874 22.9246 11.722 22.7667 11.7047ZM54.8136 18.6247C54.8274 17.9551 55.4902 17.4704 55.4552 18.246C55.4473 18.384 55.218 17.9598 55.1633 18.138C55.0633 18.4571 55.5086 18.6612 55.2737 18.994C55.2314 19.0512 54.8122 18.6609 54.8126 18.6236C54.8129 18.624 54.8132 18.6243 54.8136 18.6247ZM29.7854 4.13562C29.7779 4.13051 29.6315 4.20428 29.6321 4.2132C29.6497 4.42127 29.9411 4.27452 29.7854 4.13562ZM20.7611 18.3033C20.7428 18.3114 20.7162 18.6971 20.7326 18.7102C21.0376 18.913 21.0912 18.148 20.7611 18.3033ZM40.4897 1.73774C40.6964 1.5737 40.9242 1.58733 41.0266 1.8488C40.8497 1.8052 40.6681 1.77476 40.4897 1.73774Z" fill="black"/>
</svg>
