<svg width="61" height="128" viewBox="0 0 61 128" fill="none" xmlns="http://www.w3.org/2000/svg">
<path d="M23.144 41.7677C-2.39333 50.9938 12.8858 55.7391 3.56282 87.7392C-5.76017 119.739 8.91292 131.026 14.2399 124.739C12.7399 103.739 21.7468 106.604 27.5628 110.239C35.5628 115.239 41.0887 120.57 45.2399 126.739C59.7398 125.239 49.7399 117.739 49.7399 87.7391C76.2399 58.2391 37.0628 36.7392 23.144 41.7677Z" fill="white"/>
<path d="M0.426881 84.2351C0.70351 82.7878 1.24189 80.9921 1.68373 79.5907C1.81983 79.1619 1.98245 79.4258 2.08445 79.1326C2.28028 78.5721 2.29185 77.9481 2.49161 77.3801C2.5592 77.1894 2.84711 77.4922 2.91033 77.2905C3.24811 76.217 3.33823 75.0608 3.5561 73.9302C4.72998 68.193 4.54921 62.6237 5.00974 56.1834C5.20468 54.0443 6.06631 51.2325 7.37839 49.0813C7.52775 48.8265 7.18631 48.8088 7.19744 48.7481C7.39949 47.8103 7.71721 48.3967 8.12839 48.0023C9.7865 46.4627 11.6365 45.2107 13.243 44.1401C13.9127 43.6996 12.9185 43.5891 13.8004 43.4733C13.8616 43.4651 13.8294 43.8398 14.043 43.7608C14.5555 43.5636 15.312 43.1173 15.6885 42.9641C16.4061 42.6737 16.481 42.6371 17.1134 42.3553C18.0118 41.9613 19.0479 41.6981 19.993 41.25C20.1946 41.1535 19.8012 40.9629 20.1149 40.7816C20.4021 40.6098 21.2417 40.3201 21.5618 40.283C21.878 40.2465 21.8422 40.5289 21.9135 40.5641C22.1508 40.6852 22.4172 40.5966 22.6651 40.4421C23.0497 40.2043 23.4285 39.8441 23.5165 39.8105C26.1813 38.8365 28.5118 39.2989 30.8763 39.5707C32.6836 39.7898 34.6167 40.1016 36.2514 40.6158C38.2175 41.2391 39.7406 42.0227 41.5466 42.831C41.7348 42.9166 41.676 42.4714 41.9077 42.5766C44.3851 43.7079 46.7044 45.1498 48.7157 46.9788C48.9162 47.1624 48.4391 47.2172 48.6257 47.4157C49.8009 48.6225 51.2072 50.7918 52.9127 50.504C53.6696 51.3542 54.5333 52.439 54.9213 53.4195C55.1673 54.0489 54.5019 53.7648 55.0957 54.3048C55.2283 54.4285 55.3469 54.0539 55.5274 54.2561C56.2924 55.1169 56.8705 56.2273 57.5518 57.1554C57.6911 57.3441 57.9116 57.1565 57.9879 57.1916C58.6229 57.5022 58.4063 58.655 58.4355 58.8534C58.7071 60.4062 59.1907 61.3944 59.5294 62.7902C59.6038 63.1114 59.8836 62.6421 59.9682 62.9525C60.4016 64.5741 60.5642 66.3442 60.3907 67.9759C60.3506 68.336 60.0284 68.0032 59.9922 68.1735C59.8293 68.915 60.4322 69.1125 60.2433 69.8478C60.2033 69.9966 59.9343 69.8871 59.9016 69.9119C59.3888 70.2866 60.0163 70.7261 60.0163 70.8435C60.0236 72.3071 59.1449 73.023 58.8809 74.3462C58.8475 74.5077 59.289 74.2461 59.1723 74.6978C58.4087 77.6449 56.8711 80.5045 55.0098 82.8371C54.7218 83.1979 54.6812 82.7788 54.6371 82.7871C53.9686 82.8792 54.367 83.5 54.3042 83.6366C53.8088 84.6835 52.6372 85.2779 52.8126 86.3565C52.1459 87.1012 51.4631 87.8663 50.7477 88.6444L51.0946 87.7391C51.0471 91.5384 51.3784 95.3049 51.1407 99.1142C51.1377 99.1751 50.7942 99.0971 50.7898 99.2186C50.7346 100.661 51.2318 100.365 51.9642 101.247C52.1485 101.471 51.4639 102.266 51.4167 102.345C51.2383 102.61 50.7139 102.417 50.6834 102.502C50.4483 103.209 52.0721 102.909 52.1814 103.777C52.1821 103.804 51.8666 103.729 51.8459 103.805C51.7807 104.044 51.9285 104.246 51.8557 104.494C51.6854 105.047 50.9168 105.347 51.4881 106.055C51.5625 106.145 52.4642 105.854 52.5373 106.658C52.5645 106.979 52.7909 108.344 52.7961 108.75C52.7982 109.145 52.4581 108.928 52.4497 108.958C52.2227 110.048 51.9977 109.691 51.5031 110.317C51.0115 110.943 52.3698 110.564 52.5597 110.75C52.7477 110.928 52.5557 111.76 52.4756 111.969C52.3952 112.177 52.1661 111.974 52.131 112.152C51.9028 113.323 52.8979 112.507 53.1815 112.844C53.8514 113.635 52.9409 114.48 52.9677 115.283C52.9743 115.497 53.1807 115.289 53.2323 115.471C53.4399 116.246 53.1865 116.726 53.5944 117.569C53.6588 117.683 54.3701 118.377 53.9485 118.868C53.8879 118.941 53.6146 118.767 53.5837 119.117C53.5388 119.63 53.5126 120.518 53.565 121.07C53.6031 121.484 54.0642 121.041 53.8889 121.554C53.8065 121.776 53.6029 121.334 53.4665 121.744C53.3445 122.174 53.0906 123.217 52.8792 123.611C52.6962 123.992 53.083 123.941 53.0884 123.981C53.1179 124.243 52.6785 125.088 52.604 125.137C50.3029 127.369 47.683 127.145 45.3081 127.399L44.933 127.449L44.6898 127.109C44.2439 126.393 43.7552 125.698 43.2014 125.039C43.0382 124.845 42.8669 125.185 42.8392 125.158C42.2041 124.559 43.3401 124.55 43.2061 123.879C42.7127 124.375 42.594 124.013 42.1505 123.584C41.9362 123.378 41.829 123.673 41.7907 123.669C41.2017 123.591 41.4143 123.026 41.4452 122.896C41.5609 122.418 41.0002 122.483 41.0711 122.161C41.1389 121.839 41.7346 121.928 41.3392 121.484C41.044 121.525 40.8452 122.279 40.4729 122.017C39.0914 121.021 37.2395 118.486 36.2421 117.556C35.2675 116.623 34.8983 116.385 34.3472 115.816C33.3404 114.798 33.4443 115.5 32.6191 115.138C31.7876 114.781 32.8396 114.096 32.8916 113.816C32.9435 113.536 32.6757 113.663 32.6324 113.456C32.5891 113.25 32.9663 113.315 32.6999 113.052C32.4329 112.787 31.3453 112.564 31.0848 112.707C30.5354 113.011 30.5664 113.751 29.8948 113.032C29.8561 112.991 30.1813 112.837 30.0238 112.69C29.1962 111.93 28.2703 111.252 27.3506 110.579C26.8814 110.235 26.401 109.896 25.9299 109.563C25.7386 109.428 26.0847 109.219 25.9735 109.137C24.7951 108.294 24.9795 109.046 24.0447 109.343C24.5327 108.621 24.3591 107.932 23.2762 107.583C22.6283 107.39 22.6331 107.789 22.1748 107.957C22.0383 108.007 21.6328 107.677 21.5243 107.844C21.193 108.397 21.5029 109.043 20.5861 108.751C20.5437 108.738 20.6797 108.421 20.531 108.402C19.5514 108.328 19.5137 108.95 18.782 109.354C18.2201 109.639 17.0337 110.349 16.5508 111.208C15.7024 110.714 15.4586 111.739 15.9724 112.327C15.7298 112.908 15.5832 113.585 15.3578 114.197C15.2803 114.411 15.0361 114.208 15.0004 114.23C14.4491 114.543 15.0392 114.961 15.0412 115.105C15.0423 116.659 14.4675 117.896 14.9112 119.429C14.9277 119.487 15.5986 119.572 15.1023 119.956C15.0683 119.982 14.7658 119.489 14.7364 120.186C14.706 120.906 14.3724 122.241 14.7371 123.215C14.8235 123.445 15.4026 124.005 15.0112 124.531C14.9579 124.602 14.76 124.542 14.6595 124.646C14.6374 124.669 14.6201 124.691 14.6069 124.713L14.6209 124.851L14.5206 124.977C14.1914 125.058 14.4497 125.59 13.8265 125.424C13.1286 125.251 12.4967 125.246 11.7608 125.853C11.7424 125.869 11.6444 126.457 11.3078 126.49C10.791 126.547 10.0716 126.385 9.56695 126.261C9.32462 126.204 9.39557 126.566 9.35159 126.562C7.54197 126.23 6.6196 125.165 5.47658 123.767C5.26667 123.515 4.2761 123.024 4.22031 122.282C4.16669 121.466 5.89624 121.185 4.8286 120.109C4.42481 119.694 2.14296 119.798 2.72159 118.286C1.66583 116.242 1.74811 114.069 1.07616 111.892C1.04504 111.786 0.428122 111.547 0.409425 111.303C0.383078 110.945 0.6354 110.72 0.630015 110.461C0.616426 109.375 0.337561 108.402 0.357542 107.37C0.365913 106.979 0.648112 107.114 0.662866 106.645C0.679333 106.179 0.311746 105.839 0.50832 105.226C0.65928 104.753 1.43573 104.312 1.56225 103.679C0.818323 103.605 0.855133 103.192 0.721891 102.402C0.69616 102.25 0.423459 102.388 0.397943 102.315C0.288571 102.014 0.528032 101.764 0.410097 101.471C0.381896 101.4 0.128139 101.371 0.0908832 101.311C-0.237459 100.805 0.421282 100.119 0.537554 99.9996C0.976292 99.5469 0.678968 99.2684 0.881667 98.8979C1.08486 98.5308 1.18805 99.1315 1.34125 98.7015C1.65281 97.8461 1.81617 96.6227 1.99978 95.7261C2.07202 95.3639 1.69008 95.5472 1.69263 95.4939C1.75229 94.7213 2.27153 94.0185 1.70363 93.4399C3.53322 93.3005 1.63148 92.9589 2.23062 91.9507C2.27897 91.8711 3.11138 91.9587 3.15268 92.3111C3.19419 92.6627 2.82842 93.0928 2.91684 93.5747C2.93732 93.6856 3.56274 94.4776 3.5929 94.5668C3.81778 95.2937 2.58624 95.1388 2.51171 95.1616C1.71001 95.4182 2.39696 96.3063 2.41799 96.522C2.51354 97.4939 2.22199 98.2254 2.30315 98.9972C2.35297 99.5223 3.15286 99.6768 3.07848 100.06C2.84201 101.308 1.666 101.674 2.54935 102.966C2.74047 103.241 3.64026 103.038 2.88682 103.911C2.83869 103.965 2.16359 104.636 2.55519 105.046C2.60442 105.097 2.86315 105.104 2.88277 105.17C3.00994 105.606 2.79748 105.882 2.89236 106.372C2.98772 106.857 3.13997 107.409 3.06823 107.945C3.02507 108.277 2.56246 108.718 2.45313 108.882C2.1366 109.349 2.72559 109.761 2.33926 110.083C1.95153 110.402 1.27444 109.893 1.07686 110.674C1.74898 110.638 2.44206 110.634 3.11925 110.609C3.2485 112.148 3.2879 113.718 3.70183 115.203C3.75442 115.388 4.05473 115.108 4.11995 115.3C4.38986 116.084 4.37292 116.884 4.78395 117.66C5.10131 118.254 5.75083 118.76 6.13744 119.277C5.64903 120.01 6.39403 120.752 6.75749 121.33C6.88878 121.541 6.71761 121.655 6.77632 121.833C7.00793 122.492 7.32905 121.814 7.52111 121.872C8.33117 122.058 7.29908 123.226 8.07063 123.768C8.12331 123.811 9.01865 123.413 9.08817 123.386C9.60523 123.287 9.01196 123.673 9.22224 123.848C9.61551 124.155 9.91893 124.463 10.4564 124.284C10.6302 124.231 10.8769 123.728 11.1414 124.077C11.1805 124.122 11.214 124.392 11.2443 124.402C11.8272 124.534 11.5404 123.691 11.5522 123.361C11.5406 123.047 12.1619 123.268 12.3733 123.282C12.8738 123.379 12.3777 123.558 12.3998 123.587C12.591 123.983 12.7654 123.854 12.9571 123.652L12.5628 124.859C12.56 124.771 12.5574 124.682 12.5593 124.598C13.3874 124.471 13.2974 123.833 12.5694 124.111C12.4897 124.143 12.5907 124.5 12.5593 124.598C11.713 124.237 11.5637 123.529 12.2975 122.717C12.6431 122.33 13.0676 122.653 12.8859 121.559C12.8073 121.065 12.2353 121.284 12.0735 120.818C11.7052 119.769 12.2729 118.443 12.2691 117.36C12.2682 116.962 11.9248 117.324 11.9142 117.05C11.8852 116.346 12.1948 115.692 12.18 114.979C12.179 114.911 11.8269 115.031 11.8597 114.791C12.1142 113.034 12.6652 111.495 13.6352 109.628C14.066 108.726 15.1982 106.975 16.3759 106.325C18.3698 105.042 21.0639 105.53 22.4701 105.739C23.4438 105.871 23.3154 105.52 23.7869 105.415C24.7376 105.226 25.7392 106.498 25.8276 106.68C25.8328 106.683 25.0808 106.444 25.3986 106.765C25.4775 107.183 25.8174 106.677 25.8276 106.68C25.9148 106.79 27.2474 107.545 27.5274 107.645C27.6866 107.695 27.7606 107.378 27.8413 107.41C28.2392 107.569 28.6301 107.745 29.0051 107.931C30.3714 108.603 31.6601 109.425 32.8527 110.411C32.8771 110.436 32.633 110.691 32.6926 110.747C33.5152 111.523 34.344 111.607 35.2424 111.978C36.1383 112.348 36.6721 112.891 36.7144 113.704C37.3055 114.093 37.9013 114.957 38.2224 115.462C38.5461 115.968 39.0614 115.521 39.1091 115.546C40.5844 116.321 40.9867 117.26 42.0885 118.51C42.6138 119.105 43.7332 120.218 44.3387 120.838C44.8207 121.325 44.9534 121.746 45.4196 122.178C45.4827 122.236 45.6689 121.983 45.6941 121.996C46.4135 122.335 45.6177 122.516 45.6009 122.711C45.5344 123.42 45.5183 123.821 46.2171 124.409C46.3766 124.543 47.5956 124.425 47.8624 124.709C47.9287 124.779 47.9663 124.839 47.9866 124.891L44.8992 123.446C45.1071 123.476 45.1015 123.714 45.4511 123.597C45.4869 123.585 45.4546 123.353 45.716 123.329C46.9365 123.22 48.2606 123.069 48.9593 122.693C49.0511 122.645 48.7727 122.367 48.8876 122.297C49.1425 122.135 49.2237 122.034 49.2767 121.997C49.3303 121.957 49.4423 121.867 49.593 121.577C49.6655 121.436 49.9049 121.576 49.9879 121.555C50.5005 121.378 49.8488 120.88 49.8361 120.814C49.5536 119.09 49.8498 117.192 49.1724 114.872C49.1348 114.75 48.2439 113.883 48.7841 113.317C48.8202 113.28 49.3793 112.738 48.8777 112.412C48.8463 112.391 48.5685 112.73 48.5174 112.23C48.4654 111.725 48.1192 111.004 48.3638 110.247C48.4426 110.02 48.9952 109.426 48.388 108.855C48.3438 108.807 47.0516 108.014 47.7872 107.534C47.9085 107.455 48.7518 107.399 48.2103 106.678C48.1068 106.547 47.9576 106.834 47.7873 106.472C47.5263 105.924 47.638 105.068 47.175 104.403C47.093 104.287 46.4566 103.815 46.8356 103.317C46.895 103.24 47.1903 103.339 47.194 103.1C47.2167 101.999 46.9045 100.824 46.9998 99.7207C47.0324 99.3203 47.504 99.4818 47.5895 99.0588C47.6743 98.6311 47.7248 97.7914 47.487 97.3859C47.2484 96.9721 46.5577 97.4961 46.4543 96.8499C46.0086 94.0485 46.3332 91.1759 46.3829 88.39C46.3904 87.9769 46.1455 88.301 46.1269 87.7391L46.171 86.2491L47.0521 85.3247C47.0615 85.3134 47.0715 85.3019 47.082 85.2899C48.5338 83.6866 50.3824 80.829 51.7442 79.5946C52.8473 78.6139 52.2257 80.3146 52.9347 79.4707C53.279 79.0519 52.7904 78.1792 52.8301 78.047C53.1733 76.8144 53.8213 76.2912 54.1267 75.2105C54.1848 74.9944 53.7876 75.0738 53.839 74.8937C54.0113 74.2738 54.3496 73.743 54.4949 73.1372C54.556 72.873 54.2907 72.8517 54.3729 72.6221C54.565 72.0658 54.7736 71.6303 55.1175 71.0952C55.1487 71.0458 55.4067 71.4574 55.4948 71.0214C55.6336 70.3183 55.9712 69.4821 55.7526 68.6421C55.6851 68.3968 55.0929 68.3801 55.5058 67.8822C55.5897 67.7776 56.3147 67.9027 55.6779 67.3181C55.576 67.203 54.6837 66.3056 55.1506 65.7836C55.2765 65.6472 55.8103 65.2273 55.6687 64.953C55.6475 64.9175 55.3584 65.1244 55.2865 64.8975C55.0378 64.1028 54.8559 63.2533 54.4899 62.4767C54.3915 62.2717 54.1849 62.6937 54.0486 62.39C53.6745 61.5567 53.2886 60.4806 52.9424 59.6254C52.8157 59.31 53.1681 59.3831 53.183 59.3476C53.4145 58.7567 52.7188 58.8721 52.6203 58.7807C52.0042 58.1964 51.909 57.503 51.3846 56.9258C51.2406 56.7679 51.0791 57.0759 51.0316 57.0587C50.5537 56.8771 51.1974 56.7962 51.0778 56.5374C50.7399 55.8088 50.1437 55.1475 49.5643 54.5882C49.3508 54.3833 49.3135 54.8731 49.1261 54.6887C48.014 53.6082 46.8225 52.5072 45.7101 51.4071C45.5006 51.1996 45.8157 51.0879 45.8055 51C45.7334 50.3835 44.8627 50.5103 44.7154 50.4791C44.0329 50.3266 43.9624 49.9836 43.4543 49.711C40.9854 48.3794 37.9263 46.7582 35.4399 45.8596C32.2379 44.7049 29.5609 43.9618 26.6117 44.2389C26.4322 44.2591 26.6457 44.6129 26.496 44.6355C25.6913 44.751 24.9583 44.9053 24.3535 45.1156C22.9221 45.6199 21.5671 46.1137 20.2949 46.7213C20.1202 46.8043 20.5244 47.0155 20.2319 47.1673C19.619 47.4876 18.9339 47.775 18.2828 47.9637C17.9729 48.0533 18.2252 47.5948 17.9155 47.6913C17.2106 47.9084 16.4983 48.2537 15.9145 48.6592C15.6725 48.8296 16.2349 48.9175 15.9126 49.1123C13.5604 50.5846 12.2728 51.8404 11.2024 53.6547C11.1277 53.7839 10.3807 53.708 10.428 54.0943C10.6189 54.1694 10.8517 54.2249 11.0603 54.2874C10.4197 57.5864 10.5857 62.4269 10.3148 67.034C10.3056 67.2283 10.7071 66.9065 10.6909 67.2847C10.5942 69.5059 10.5356 71.6917 9.88448 73.9017C9.81958 74.1229 9.15751 73.922 9.1756 74.6011C9.17877 74.7355 9.13888 75.7079 9.24663 75.9864C9.26366 76.0244 9.60575 75.8898 9.56827 76.2097C9.33824 78.1057 8.91451 80.0098 8.33411 81.7782C8.23866 82.0683 7.97507 81.6805 7.90413 81.8861C7.40664 83.3313 7.26185 85.0036 6.59724 86.288C6.14804 87.1536 5.67323 86.659 4.98116 86.9925C4.88396 87.0391 4.70864 87.6097 4.37638 87.5471C3.54226 87.3889 2.73087 86.8596 1.83229 86.7241C1.63991 86.6932 1.62215 87.5042 1.30109 86.9278C1.28054 86.8872 1.286 86.3034 1.1692 86.1296C1.08907 86.0083 0.713699 86.08 0.630383 85.856C0.54683 85.6328 0.879792 85.5059 0.803103 85.1584C0.72329 84.8122 0.313805 84.841 0.426881 84.2351ZM39.6256 117.758C39.7725 118.361 40.6733 117.57 40.0591 117.366C40.0283 117.357 39.6173 117.727 39.6256 117.758ZM2.44222 113.865C2.05409 114.617 2.91216 114.861 3.21186 114.342C3.51613 113.833 2.56181 113.641 2.44222 113.865ZM1.40507 107.146C1.00055 107.922 2.69988 107.99 2.34324 107.202C2.3233 107.156 1.42877 107.101 1.40507 107.146ZM5.42244 84.7045C5.4059 84.7061 5.28143 85.1279 5.29605 85.1333C5.60671 85.4507 5.85102 84.6247 5.42244 84.7045ZM1.38257 100.283C1.12434 100.5 1.31299 101.217 1.62898 100.951C1.88169 100.741 1.70192 100.018 1.38257 100.283ZM52.3946 115.397C52.4111 115.387 52.3797 115.094 52.2811 115.116C51.9643 115.189 52.1196 115.575 52.3946 115.397ZM3.70989 88.794C3.18408 90.4503 1.577 91.108 2.20935 89.3209C2.32584 88.9967 2.45005 90.1509 2.68463 89.7619C3.11177 89.0552 2.40894 88.2985 3.09687 87.6195C3.22051 87.5004 3.74077 88.7035 3.71094 88.7975C3.71059 88.7963 3.71024 88.7951 3.70989 88.794ZM38.8321 118.993C38.8281 119.011 39.1114 119.315 39.1291 119.311C39.5585 119.203 38.9847 118.587 38.8321 118.993ZM50.7204 98.0323C50.7507 97.9983 50.711 97.0659 50.6783 97.033C50.0212 96.5849 50.1014 98.5008 50.7204 98.0323ZM16.5211 111.208C16.6681 111.748 16.5435 112.162 15.9735 112.325C16.1452 111.931 16.3101 111.56 16.5211 111.208Z" fill="black"/>
<circle cx="26.5629" cy="18.2391" r="17" fill="white"/>
<path d="M47.4854 19.4901C47.5492 20.2343 47.3244 21.1922 47.043 21.8842C46.9559 22.1009 46.7679 21.9488 46.6977 22.094C46.5602 22.375 46.6022 22.6763 46.4377 22.9461C46.3821 23.0346 46.0838 22.8378 46.0332 22.931C45.7585 23.4378 45.6971 23.9666 45.4521 24.4819C44.2466 26.9997 42.7669 29.2619 40.8282 31.1767C40.1869 31.8131 39.2015 32.3298 38.5798 33.004C38.5071 33.0835 38.7419 33.2725 38.7414 33.3043C38.7202 33.7982 38.433 33.2655 38.2209 33.3307C37.3776 33.5902 36.6247 34.0606 35.9995 34.5529C35.7332 34.7622 36.3159 35.1047 35.8559 34.9864C35.8246 34.9784 35.7467 34.6635 35.6503 34.6789C35.433 34.7146 35.1126 34.9458 34.9569 34.995C34.6578 35.0886 34.6138 35.1129 34.3476 35.2323C33.9804 35.393 33.487 35.4312 33.1144 35.6468C33.0344 35.6939 33.2614 35.9518 33.1416 36.0546C33.0219 36.1581 32.6414 36.2618 32.4922 36.2302C32.3432 36.1993 32.319 35.9418 32.2792 35.894C31.954 35.4879 31.7332 36.2581 31.6767 36.2903C30.7324 36.8508 29.749 36.6489 28.7875 36.7658C28.056 36.8555 27.2745 37.0248 26.5629 37.0089C26.557 37.0088 26.5511 37.0087 26.5452 37.0085C25.6925 36.9837 24.995 36.7634 24.1812 36.6913C24.0951 36.683 24.1478 37.0704 24.0409 37.0605C22.9041 36.9543 21.7827 36.6573 20.7914 36.0686C20.6925 36.0092 20.9319 35.7388 20.8409 35.661C20.2662 35.1926 19.6064 34.2116 18.6335 35.3436C18.232 35.0965 17.7497 34.7815 17.5341 34.3253C17.3968 34.0319 17.7974 33.846 17.4447 33.8195C17.3652 33.8126 17.2863 34.133 17.1779 34.1009C16.7185 33.9635 16.3492 33.6025 15.879 33.4711C15.7827 33.4448 15.6399 33.6905 15.5883 33.7165C15.1585 33.9191 15.257 33.1396 15.2266 33.0528C14.9639 32.3833 14.5384 32.2137 14.1201 31.8205C14.024 31.7289 13.8824 32.1158 13.7793 32.0362C13.2474 31.6183 12.7783 31.0857 12.4759 30.4799C12.4097 30.3448 12.7422 30.2337 12.7237 30.1589C12.644 29.8348 12.1304 30.1742 12.0474 29.8609C12.0299 29.7957 12.2685 29.6498 12.2853 29.622C12.5529 29.1908 11.9286 29.4904 11.8879 29.4618C11.375 29.1248 11.7438 28.418 11.3701 28.027C11.3241 27.979 11.1091 28.2938 10.9971 28.1456C10.2491 27.1579 9.73516 25.9145 9.5728 24.6883C9.54711 24.4978 9.84124 24.5306 9.86736 24.5078C10.2776 24.1555 9.599 24.2767 9.55384 24.2258C9.21806 23.8275 9.63898 23.2452 8.77155 23.1469C8.55034 21.4985 8.08931 19.8842 8.35673 18.2391C8.4228 17.8356 8.53308 17.444 8.70197 17.0581C8.71201 17.0335 9.04348 17.1002 9.06206 17.0516C9.29434 16.4713 8.7672 16.5525 8.17904 16.0667C8.03202 15.9399 8.83622 15.7272 8.89596 15.712C9.11554 15.6441 9.59468 15.8154 9.63913 15.7889C9.98985 15.579 8.35213 15.3686 8.41769 14.9866C8.42246 14.9754 8.71259 15.0775 8.74784 15.0516C8.85819 14.9721 8.75739 14.8547 8.87822 14.7807C9.15838 14.6109 9.95499 14.7087 9.57129 14.2939C9.52222 14.2399 8.59384 14.0925 8.71847 13.7702C8.76645 13.6431 8.911 13.0561 9.02021 12.9144C9.12704 12.7719 9.38146 12.9707 9.39751 12.9628C9.90975 12.6612 10.0175 12.8717 10.6433 12.8584C11.2658 12.8543 9.92263 12.4502 9.8048 12.3131C9.68715 12.1753 10.108 11.9856 10.2427 11.9562C10.3773 11.9252 10.5212 12.0838 10.6061 12.0439C11.1632 11.7853 10.0332 11.601 9.88491 11.3742C9.54133 10.8263 10.6135 10.9767 10.8414 10.7357C10.9041 10.6685 10.6595 10.6308 10.674 10.5498C10.7372 10.2277 11.1091 10.212 11.0173 9.75798C11.0007 9.68622 10.6019 9.11747 11.0961 9.18305C11.1666 9.19374 11.352 9.38918 11.4696 9.30429C11.6451 9.17752 11.8801 8.90697 11.9245 8.68238C11.9575 8.51567 11.5009 8.43206 11.7229 8.33755C11.8216 8.29666 11.9379 8.57143 12.105 8.48499C12.2707 8.39901 12.5018 8.05342 12.5904 7.92134C12.6777 7.78907 12.3668 7.66459 12.3568 7.64139C12.3029 7.50345 12.371 7.15883 12.3893 7.13717C13.2392 5.99572 14.527 5.47332 15.4411 4.4978C15.5145 4.42091 15.2457 4.19906 15.2546 4.18458C15.4528 3.84367 15.7929 4.73275 16.1725 4.82147C15.7193 4.29625 15.9116 4.3039 16.069 4.09209C16.1449 3.98964 15.9324 3.81307 15.925 3.78438C15.8337 3.34537 16.2487 3.69682 16.3361 3.76685C16.6618 4.02162 16.5015 3.56359 16.719 3.73596C16.9326 3.90876 17.0013 4.33231 17.1917 4.19807C17.1099 3.95443 16.5993 3.51568 16.696 3.32502C17.069 2.58592 18.4986 2.37729 19.0232 2.20242C19.5536 2.01383 19.7054 1.90507 20.0406 1.8659C20.6462 1.80421 20.2737 1.43324 20.553 1.09853C20.8398 0.766668 21.0436 1.94884 21.1748 2.17267C21.3022 2.39816 21.271 2.13275 21.3731 2.24661C21.4738 2.36096 21.403 2.5655 21.5534 2.57226C21.701 2.57871 21.9415 2.03609 21.9235 1.7659C21.8794 1.19368 21.5397 0.671488 21.9904 0.766392C22.016 0.772464 22.0217 1.09252 22.1154 1.10066C22.8495 1.15758 23.5591 1.03524 24.2648 1.15533C24.3614 1.17247 24.3238 1.52658 24.3796 1.54063C24.9566 1.69368 24.6891 1.1388 24.9462 0.461945C24.9553 1.32853 25.1708 1.83447 25.5792 1.81456C25.8277 1.80416 25.7643 1.43057 25.9198 1.15838C25.9672 1.07623 26.1555 1.32975 26.1841 1.15208C26.2826 0.571648 26.0928 -0.0767674 26.5629 0.177923C26.5631 0.17803 26.5633 0.178136 26.5634 0.178243C26.5707 0.182571 26.5672 0.224783 26.5629 0.278476C26.5571 0.349105 26.5499 0.439599 26.5629 0.489842C26.568 0.509754 26.5763 0.523346 26.589 0.526894C27.035 0.656104 27.1001 0.0506623 27.6044 0.00239646C28.0036 -0.0355175 28.6581 0.397911 29.0767 0.520539C28.9365 1.47981 29.3459 1.31582 29.6265 0.686907C29.8994 0.76184 30.2049 0.784159 30.451 0.934111C30.5352 0.985372 30.4132 1.24585 30.4181 1.27805C30.4825 1.78084 30.7459 1.17572 30.8124 1.16585C31.5151 1.0865 31.8721 1.71153 32.6175 1.46689C32.6433 1.45789 32.9111 0.83742 32.9007 1.35889C32.8981 1.39422 32.5979 1.6087 32.8646 1.73473C33.1357 1.86217 33.4942 2.40172 33.9889 2.28994C34.1068 2.26159 34.5776 1.88011 34.568 2.35454C34.5657 2.41842 34.4526 2.57779 34.4379 2.69094C34.3899 3.05102 34.7649 2.47804 34.6216 3.05707C34.4784 3.6366 34.5065 4.14304 35.0379 3.99498C35.0538 3.991 35.411 3.57518 35.5146 3.64888C35.6784 3.76569 35.8553 4.01297 36.0284 4.12554C36.1116 4.1794 36.2468 3.86624 36.2646 3.87082C36.9358 4.1016 37.1538 4.63953 37.6171 5.19915C37.6995 5.29994 38.2941 5.21241 38.2383 5.65524C38.1703 6.13555 36.8439 7.13857 37.5324 7.26507C37.7971 7.30795 39.552 6.11665 39.0604 7.19258C39.8563 7.69089 39.9056 8.67292 40.6999 9.20185C40.7352 9.22539 41.2969 9.02282 41.3423 9.11136C41.4078 9.24199 41.215 9.4502 41.2512 9.54622C41.3962 9.95192 41.7869 10.1826 41.9406 10.5706C41.9986 10.7171 41.7221 10.7925 41.7876 10.9646C41.8518 11.1352 42.2418 11.0937 42.1802 11.3978C42.1325 11.6294 41.5049 12.0915 41.5089 12.3418C42.2071 12.0752 42.2567 12.2376 42.5466 12.4578C42.6026 12.5003 42.8259 12.3524 42.8652 12.3681C43.0308 12.4322 42.8624 12.6044 43.0358 12.6612C43.0776 12.6753 43.32 12.5951 43.368 12.6026C43.7869 12.6666 43.3332 13.1438 43.251 13.2195C42.9444 13.5203 43.2883 13.517 43.1852 13.7065C43.0806 13.8928 42.8412 13.7227 42.7991 13.916C42.7111 14.3126 42.8531 14.7502 42.9088 15.1107C42.9326 15.2539 43.2494 15.0943 43.2606 15.1133C43.4027 15.4028 43.0899 15.7594 43.7856 15.8353C42.0734 16.2802 43.9821 15.9962 43.6813 16.4882C43.6565 16.5267 42.8346 16.6487 42.7005 16.5352C42.5665 16.4227 42.8019 16.1999 42.5898 16.0503C42.5401 16.012 41.7371 15.8961 41.6858 15.8756C41.2853 15.6995 42.5006 15.4567 42.5655 15.4302C43.2635 15.1478 42.3823 15.0085 42.3105 14.9511C41.9801 14.6661 42.0812 14.3454 41.8232 14.1147C41.6555 13.9648 40.8689 14.171 40.8544 14.0323C40.8053 13.5811 41.8175 13.0353 40.74 12.9519C40.5095 12.9359 39.7158 13.3414 40.2469 12.7837C40.2817 12.7511 40.7775 12.2739 40.3472 12.2982C40.2932 12.3018 40.0559 12.4052 40.0267 12.3925C39.8357 12.3064 39.981 12.127 39.8191 12.0144C39.6575 11.9026 39.4371 11.788 39.427 11.5782C39.4212 11.4528 39.7746 11.0919 39.8495 10.9832C40.0677 10.6732 39.4955 10.7964 39.8004 10.5023C40.103 10.2006 40.7551 10.0674 40.8354 9.67934C40.2533 10.0163 39.6499 10.3524 39.0635 10.6897C38.7922 10.1958 38.6519 9.60717 38.2733 9.1674C38.2261 9.11383 37.9853 9.393 37.9282 9.34268C37.6901 9.13262 37.7101 8.75411 37.4132 8.57472C37.1822 8.43694 36.7153 8.49933 36.4678 8.38748C36.9026 7.73196 36.4296 7.63752 36.2648 7.39749C36.206 7.31243 36.3472 7.16304 36.3365 7.06444C36.2899 6.69564 35.9445 7.29668 35.8195 7.33035C35.2911 7.48324 36.2473 6.27512 35.9058 6.05773C35.886 6.04376 35.1933 6.54915 35.1389 6.57321C34.7725 6.71808 35.2796 6.322 35.206 6.19388C35.0711 5.96107 35.0336 5.69692 34.6576 5.73868C34.5454 5.75049 34.1083 6.07841 34.1768 5.65766C34.1854 5.60228 34.336 5.37644 34.3292 5.35376C34.189 4.96139 33.7507 5.69449 33.4615 5.86249C33.1744 6.03173 33.2197 5.3911 33.244 5.21344C33.3128 4.75588 33.4306 5.09859 33.4571 5.06443C33.7801 4.65574 33.5559 4.63658 33.4323 4.52647C33.7874 3.76939 33.5519 3.70971 33.3019 4.41558C33.2745 4.4925 33.4206 4.47775 33.4323 4.52647C32.9364 5.19485 32.7029 5.19701 32.7738 4.38911C32.8047 4.01052 33.0853 3.67351 32.6582 3.6583C32.4653 3.65313 32.3107 4.21155 32.112 4.30068C31.6653 4.50685 31.432 3.85438 31.0566 3.82677C30.924 3.81791 30.9511 4.15578 30.8587 4.16075C30.6164 4.17639 30.4838 3.89384 30.2275 3.95309C30.2047 3.95901 30.1716 4.29071 30.1027 4.27756C29.5808 4.18624 29.1651 3.88829 28.6055 3.80281C28.335 3.76044 27.8351 3.89101 27.5605 3.83755C27.2507 3.77655 26.902 3.55109 26.5629 3.43586C26.3766 3.37198 26.1987 3.34151 26.0486 3.38811C25.7741 3.47314 25.8517 3.80096 25.7486 4.03113C25.559 4.47633 25.1144 3.7336 25.0415 3.62059C25.0392 3.61641 25.2675 3.51665 25.1255 3.36008C25.0168 3.01621 25.0436 3.61887 25.0415 3.62059C24.9985 3.5447 24.5155 3.52737 24.4318 3.60529C24.3862 3.6467 24.4596 3.95171 24.4356 3.96741C23.8625 4.33498 23.3052 4.53571 22.6703 4.56375C22.658 4.56067 22.5786 4.21999 22.5504 4.21711C22.1528 4.16992 22.0523 4.65307 21.8648 4.98815C21.6755 5.32455 21.4442 5.3252 21.051 4.83822C20.8717 4.9929 20.4678 4.88261 20.2244 4.82055C19.9804 4.75848 20.256 5.3821 20.2478 5.40087C19.9903 6.01058 19.5628 5.80111 19.0749 6.02643C18.8433 6.13117 18.4815 6.48935 18.3081 6.70793C18.1713 6.88023 17.9727 6.82989 17.8792 7.03109C17.8666 7.05808 18.0735 7.28085 18.0743 7.29499C18.1306 7.71108 17.7526 7.06704 17.6347 6.99149C17.2062 6.7186 16.9534 6.5924 16.8762 6.95602C16.8555 7.04178 17.4158 7.96817 17.3769 8.08801C17.3211 8.24587 17.1034 7.92676 17.0511 8.10212C17.0465 8.1169 17.2097 8.28667 17.1335 8.34477C16.7824 8.6165 16.3448 8.87702 16.0588 9.24764C16.0195 9.29731 16.3559 9.47902 16.3051 9.55342C16.0668 9.90224 15.7805 10.2524 15.4018 10.4911C15.3075 10.5495 15.1283 10.3484 15.0516 10.3226C14.5827 10.1735 15.0402 10.7212 15.0356 10.7526C14.9062 11.5586 14.0831 11.7743 14.0218 12.6188C14.0172 12.6695 14.5664 13.2435 13.9331 13.1366C13.8915 13.1277 13.2383 13.0289 13.6023 13.3084C13.6255 13.3252 13.9657 13.3607 13.8798 13.4928C13.793 13.6279 13.9212 13.9272 13.5102 14.0177C13.3813 14.0439 12.7165 14.0175 13.1493 14.3617C13.1771 14.3917 14.2119 14.9847 13.4146 14.8888C13.2836 14.8731 12.4678 14.65 12.8301 14.9956C12.9011 15.0606 13.1033 15.0214 13.1904 15.1667C13.3257 15.3862 13.0538 15.5852 13.3844 15.8743C13.4425 15.927 13.9803 16.1778 13.5315 16.2397C13.4611 16.25 13.1884 16.1683 13.1467 16.234C12.9471 16.5498 13.0953 16.9258 12.8768 17.2565C12.8001 17.3757 12.3496 17.2816 12.2198 17.4095C12.0897 17.5373 11.9618 17.8099 12.1678 17.9569C12.3737 18.1009 13.1012 17.9622 13.1574 18.1624C13.1647 18.188 13.1715 18.2136 13.1778 18.2391C13.3847 19.0642 13.0569 19.9082 13.1534 20.7607C13.1683 20.8889 13.403 20.7364 13.4441 20.9178C13.5913 21.6036 14.1627 22.6269 13.8899 23.3897C13.6723 24.0173 13.1171 23.5629 13.104 23.995C13.1028 24.2109 13.9569 24.0477 13.9983 24.0734C14.4229 24.3437 14.2267 24.775 14.5196 25.0611C14.5798 25.1187 14.8383 24.8816 14.8857 24.9311C15.049 25.0965 15.0424 25.3789 15.1843 25.5475C15.2486 25.6223 15.4575 25.4643 15.489 25.5488C15.5676 25.7493 15.5831 25.9641 15.5096 26.279C15.5034 26.3084 15.162 26.3919 15.2493 26.532C15.3901 26.7558 15.4091 27.1733 15.7998 27.2505C15.917 27.273 16.3709 26.8864 16.1845 27.3005C16.1458 27.3866 15.5745 27.8244 16.1895 27.5826C16.2958 27.5482 17.1511 27.2431 16.8906 27.7442C16.8219 27.8767 16.4965 28.3816 16.6417 28.3944C16.6625 28.3941 16.8446 28.1238 16.9306 28.1639C17.229 28.3078 17.4496 28.5539 17.76 28.6844C17.8427 28.718 17.9603 28.3836 18.075 28.44C18.3891 28.5936 18.6706 28.9153 18.8864 29.1929C18.9655 29.2957 18.7385 29.4724 18.7285 29.5019C18.5748 29.9879 19.0202 29.4954 19.0799 29.4892C19.4548 29.4631 19.4836 29.8439 19.7669 29.9153C19.844 29.9351 19.9542 29.6369 19.9813 29.6204C20.2504 29.4605 19.8707 29.891 19.9267 29.9943C20.0851 30.2859 20.38 30.4122 20.6545 30.5C20.7552 30.5316 20.8073 30.1539 20.8941 30.1849C21.4095 30.3611 21.9086 30.5984 22.352 30.9557C22.4358 31.0236 22.2888 31.2696 22.2891 31.3369C22.296 31.8096 22.6889 31.2914 22.7492 31.2482C23.0366 31.0555 23.053 31.3157 23.2569 31.32C24.2396 31.3376 25.3686 31.6465 26.2918 31.7598C26.3832 31.7715 26.4735 31.7832 26.5629 31.7945C27.6312 31.927 28.5565 32.0493 29.5951 31.7574C29.666 31.7373 29.5124 31.3906 29.5712 31.3688C30.3241 31.1053 31.1187 31.0003 31.8148 30.5875C31.8714 30.5544 31.6475 30.2668 31.7316 30.2034C31.9028 30.0712 32.1469 29.9791 32.3879 29.9846C32.5056 29.9864 32.5145 30.3203 32.6321 30.3156C32.9072 30.3042 33.1608 30.1959 33.357 30.0169C33.4393 29.9404 33.1165 29.711 33.2352 29.637C34.0409 29.1202 34.7275 28.5377 35.7654 28.2171C35.8358 28.1956 36.3823 28.6888 36.3953 28.4817C36.2626 28.3271 36.0962 28.1551 35.9489 27.9951C36.882 26.9343 37.9364 25.9686 38.6582 24.7101C38.6879 24.6579 38.2972 24.5653 38.3517 24.465C38.6678 23.878 38.8197 23.2676 39.4111 22.7507C39.469 22.6987 40.1037 22.9571 40.0732 22.723C40.0679 22.6818 40.0772 22.3514 39.9566 22.2328C39.9382 22.2162 39.6169 22.1782 39.6357 22.0819C39.7498 21.5215 39.9494 20.9673 40.2322 20.4261C40.2784 20.3384 40.5985 20.4901 40.6344 20.4268C40.8876 19.9701 40.6831 19.4211 41.0134 18.9697C41.2348 18.6638 41.816 18.803 42.3991 18.638C42.4816 18.6142 42.498 18.3996 42.834 18.3905C43.6798 18.3661 44.6042 18.4918 45.5059 18.454C45.7007 18.4457 45.4924 18.0978 45.961 18.3048C45.9928 18.3192 46.146 18.5757 46.3033 18.6431C46.4123 18.6901 46.7559 18.6157 46.8947 18.7115C47.0332 18.8084 46.744 18.9016 46.9033 19.0608C47.0639 19.2221 47.4571 19.1687 47.4854 19.4901ZM19.1092 4.582C18.7856 4.38743 19.3491 5.44312 19.3788 5.0996C19.3796 5.08178 19.1253 4.59146 19.1092 4.582ZM39.3776 9.08963C39.6589 8.57632 38.9335 8.90463 38.7081 9.28391C38.477 9.65605 39.2896 9.24204 39.3776 9.08963ZM41.0367 11.1118C41.2739 10.6556 39.7469 11.3966 40.1853 11.505C40.2102 11.5115 41.0226 11.1378 41.0367 11.1118ZM42.5197 19.5004C42.5359 19.4991 42.5626 19.345 42.547 19.3401C42.1738 19.2338 42.1212 19.5342 42.5197 19.5004ZM42.3948 13.4044C42.5871 13.246 42.2502 13.0645 42.0148 13.2644C41.8249 13.4219 42.1552 13.5977 42.3948 13.4044ZM11.3719 10.98C11.3543 10.9751 11.2897 11.074 11.382 11.1147C11.679 11.2455 11.6646 11.0628 11.3719 10.98ZM43.1275 17.8686C43.1739 17.2152 44.5351 16.6649 44.4223 17.4665C44.4001 17.6074 43.9616 17.1854 43.844 17.3696C43.629 17.6935 44.5143 17.8918 44.0437 18.233C43.9582 18.2889 43.1227 17.902 43.1255 17.8675C43.1262 17.8678 43.1269 17.8682 43.1275 17.8686ZM18.3167 3.37801C18.3054 3.36598 18.1553 3.43326 18.1597 3.449C18.2721 3.82163 18.5678 3.68996 18.3167 3.37801ZM9.00475 17.5311C8.96968 17.5385 8.92709 17.9307 8.95898 17.9444C9.57457 18.1521 9.66091 17.3888 9.00475 17.5311ZM29.0799 0.547119C29.3175 0.194479 29.561 0.187835 29.6258 0.68628C29.4468 0.629401 29.261 0.596408 29.0799 0.547119Z" fill="black"/>
</svg>
