<svg width="53" height="127" viewBox="0 0 53 127" fill="none" xmlns="http://www.w3.org/2000/svg">
<path d="M11.8848 126.105C11.8848 92.1052 -16.9563 47.8744 18.582 40.8843C82.5238 28.3075 35.3232 74.2289 23.842 109.147C23.4017 115.038 21.9821 121.84 21.8849 126.105C20.9163 121.039 21.8315 115.262 23.842 109.147C24.3292 102.626 23.6165 97.221 18.582 97.6051C4.08199 98.7114 18.582 123.105 11.8848 126.105Z" fill="white"/>
<path d="M9.84926 123.498C9.73744 121.968 9.63111 119.93 9.53694 118.397C9.50731 117.913 9.63978 118.145 9.62275 117.809C9.58832 117.153 9.4589 116.543 9.42122 115.9C9.4089 115.685 9.61145 115.927 9.59453 115.702C9.49989 114.47 9.27482 113.3 9.10045 112.061C8.22845 105.91 6.83735 99.9128 5.37976 93.7377C4.8982 91.6997 4.42489 89.1915 3.84435 87.1029C3.77663 86.86 3.66925 87.041 3.64603 86.9973C3.28656 86.3104 3.63603 86.4867 3.5569 85.9942C3.24439 84.0478 2.75851 81.922 2.30021 80.1004C2.10564 79.3266 1.99074 80.1745 1.97844 79.3426C1.97735 79.2849 2.1737 79.4529 2.14319 79.2321C2.07305 78.731 1.85156 77.8081 1.78765 77.4287C1.66478 76.6974 1.63965 76.5786 1.50565 75.8761C1.32386 74.9106 1.20294 73.804 0.996581 72.7606C0.952734 72.5413 0.841682 72.8592 0.757843 72.5116C0.672907 72.1628 0.545995 71.2352 0.540672 70.9212C0.534192 70.6062 0.677924 70.7207 0.698807 70.6619C0.874882 70.1763 0.402551 69.1282 0.379907 68.9922C-0.0547467 66.494 -0.0131278 64.2368 0.0177997 61.8575C0.0418805 60.0014 0.149123 58.0376 0.489411 56.3051C0.902956 54.2313 1.51929 52.5436 2.42928 50.6756C2.52673 50.4803 2.24178 50.6234 2.36269 50.3835C3.65055 47.8251 5.64259 45.6305 8.04082 44.1248C8.27676 43.977 8.07683 44.3164 8.31739 44.1785C9.81241 43.2739 12.3607 42.4709 13.0281 41.4772C14.0942 41.0981 15.5092 40.7044 16.4935 40.6116C17.1542 40.5457 16.5723 40.87 17.3457 40.6099C17.5222 40.5524 17.252 40.4511 17.5212 40.3768C17.8152 40.2964 18.1226 40.2241 18.439 40.1573C19.3524 39.9643 20.2736 39.8039 21.0958 39.5947C21.3213 39.537 21.2339 39.4089 21.294 39.3722C21.8035 39.0709 22.7451 39.2572 22.9375 39.2509C24.4013 39.1963 25.4271 38.9659 26.9094 38.7711C27.2417 38.7282 26.8244 38.5914 27.1429 38.5438C28.8493 38.2958 30.2223 38.1618 32.0122 38.1091C32.3839 38.101 32.0556 38.2876 32.2332 38.2922C33.0094 38.3133 33.1581 37.9981 33.8749 38.0285C34.0248 38.035 33.9471 38.1775 33.975 38.1915C34.4093 38.4107 34.754 38.0608 34.8608 38.05C36.0953 37.9105 37.2643 38.2622 38.555 38.2716C38.7147 38.2731 38.3639 38.0797 38.8121 38.0954C41.8299 38.2184 45.224 38.76 47.8689 40.5514C48.2637 40.8291 47.9015 40.754 47.9193 40.7843C48.1842 41.2589 48.5996 41.1572 48.7471 41.2571C49.8588 42.03 50.2872 43.1095 51.0532 43.7012C53.3388 48.8994 51.4076 54.3141 49.3638 58.8046C49.3369 58.8606 49.2225 58.6953 49.1695 58.8073C48.5168 60.1623 48.8622 59.9958 48.7462 61.0686C48.7166 61.3388 48.0333 61.9227 47.9811 61.9674C47.7857 62.1464 47.6634 61.813 47.6113 61.879C47.1865 62.4276 47.9842 62.6703 47.586 63.517C47.5723 63.5428 47.4877 63.3668 47.4405 63.4313C47.2933 63.6316 47.2429 63.8772 47.0911 64.0722C46.7419 64.5174 46.2945 64.5237 46.127 65.3866C46.1074 65.4931 46.5997 65.5575 46.2093 66.2854C46.0559 66.5734 45.3891 67.8925 45.1652 68.2531C44.9444 68.6112 44.944 68.286 44.9244 68.3095C44.2221 69.2212 44.3469 68.804 43.8295 69.1521C43.313 69.4987 44.0029 69.6936 43.9664 69.9289C43.9298 70.1642 43.4004 70.8031 43.2542 70.9531C43.1086 71.1026 43.1432 70.8368 43.0299 70.9785C42.2793 71.9214 43.0877 71.6027 42.9983 72.0008C42.7803 72.9527 41.9908 73.3098 41.5412 74.0191C41.4197 74.2106 41.6127 74.1061 41.5248 74.288C41.1745 75.0087 40.7979 75.3526 40.4795 76.2294C40.4252 76.3768 40.3422 77.1668 39.9104 77.4687C39.8488 77.5112 39.8289 77.2812 39.6377 77.5635C39.3521 77.9849 38.8784 78.7724 38.6469 79.2738C38.4762 79.644 38.8903 79.3419 38.5821 79.7559C38.445 79.94 38.5424 79.5109 38.2938 79.8619C38.0439 80.2151 37.5239 81.1544 37.3269 81.5156C37.1306 81.8754 37.3815 81.7587 37.3748 81.7929C37.3315 81.9982 37.0154 82.7241 36.9813 82.785C35.2841 85.8678 33.483 88.5714 31.9745 91.6399C31.8564 91.88 32.0904 91.8014 32.0739 91.8388C31.7138 92.6825 31.645 91.833 31.2149 92.3302C31.5656 92.4071 31.3333 92.7165 31.0703 93.3114C30.944 93.5981 31.1412 93.5078 31.1404 93.5394C31.1105 94.0444 30.7307 94.2116 30.6451 94.2613C30.3297 94.445 30.389 94.8476 30.1776 94.9738C29.9671 95.1008 30.007 94.5856 29.732 95.1408C29.7656 95.3513 30.2604 95.0857 30.0982 95.5287C29.4794 97.1966 27.8428 100.075 27.2468 101.385C26.6461 102.687 26.4951 103.116 26.1395 103.858C25.507 105.199 25.9286 104.801 25.692 105.706C25.4599 106.618 25.0703 105.984 24.903 106.065C24.7372 106.144 24.8089 106.325 24.6861 106.454C24.5636 106.583 24.6059 106.221 24.4474 106.573C24.2864 106.927 24.1509 107.985 24.2352 108.154C24.4097 108.515 24.8397 108.161 24.4137 109.102C24.3892 109.156 24.302 108.924 24.2158 109.134C23.5376 110.803 23.0299 112.543 22.5321 114.27C22.4645 114.504 22.343 114.254 22.3018 114.391C21.8858 115.812 22.2874 115.335 22.4541 116.201C22.0658 115.94 21.7079 116.351 21.5427 117.48C21.4489 118.155 21.6531 118.063 21.7347 118.508C21.7591 118.641 21.5835 119.096 21.6649 119.188C21.9317 119.495 22.2806 119.07 22.0742 120.219C22.0652 120.269 21.9162 120.098 21.8965 120.273C21.7819 121.404 22.0794 121.548 22.1462 122.721C22.1947 123.565 22.1872 124.989 22.3391 126.018L21.4226 126.095C21.4324 125.96 21.442 125.829 21.4503 125.704C21.9307 125.74 21.8738 124.715 21.582 124.248C21.6541 123.546 21.7193 122.767 21.8482 122.082C21.892 121.851 22.013 122.021 22.0316 121.993C22.3225 121.572 22.0412 121.213 22.0479 121.062C22.1413 119.391 22.5848 118.078 22.568 116.471C22.5672 116.414 22.2463 116.277 22.5488 115.891C22.5694 115.866 22.6487 116.407 22.7637 115.668C22.879 114.929 23.2466 113.556 23.2128 112.507C23.2056 112.252 23.0061 111.595 23.271 111.111C23.3068 111.047 23.3953 111.13 23.4589 111.039C23.6616 110.74 23.3394 110.539 23.662 110.192C23.9833 109.849 24.2717 109.083 24.1284 108.022C24.1243 107.987 23.8684 107.723 23.8853 107.397C23.9137 106.874 23.9831 106.135 23.9722 105.576C23.967 105.313 23.8021 105.485 23.7983 105.439C23.6454 103.696 23.7332 102.418 23.1694 100.615C23.0608 100.268 22.4516 99.5091 22.135 98.9249C21.9631 98.5965 22.1264 98.4154 22.1686 98.1749C22.2018 97.9552 22.1102 97.5579 21.125 97.2235C20.4016 97.0067 19.5383 97.6435 18.5804 97.5842C18.4154 97.5754 18.2451 97.5472 18.0655 97.4944C15.7611 97.8327 13.2856 98.9151 12.5208 101.344C12.4836 101.45 12.6316 101.868 12.5536 102.103C12.4376 102.447 12.258 102.608 12.1886 102.871C11.9081 103.954 11.9598 105.009 11.9443 106.076C11.9422 106.493 11.7975 106.344 11.8052 106.836C11.8175 107.33 12.0204 107.642 11.9875 108.31C11.9642 108.822 11.639 109.353 11.6807 110.033C12.0554 110.011 12.1025 110.464 12.3201 111.257C12.3621 111.408 12.4661 111.224 12.4926 111.294C12.6033 111.58 12.5396 111.871 12.6568 112.142C12.6851 112.207 12.8117 112.19 12.8419 112.243C13.1037 112.688 12.9529 113.517 12.9269 113.661C12.8282 114.211 13.0337 114.424 13.0277 114.83C13.0226 115.241 12.8281 114.661 12.8633 115.134C12.9352 116.104 13.1636 117.336 13.2917 118.305C13.3435 118.693 13.476 118.406 13.4873 118.46C13.6428 119.27 13.5427 120.105 13.9102 120.519C13.0645 121.158 14.0508 120.99 13.8615 122.196C13.8438 122.287 13.4272 122.381 13.375 122.043C13.3221 121.695 13.4413 121.185 13.3141 120.7C13.2862 120.577 12.846 119.984 12.8115 119.894C12.5574 119.222 13.1565 119.063 13.1866 119.018C13.5004 118.546 12.9705 117.813 12.9086 117.606C12.6311 116.669 12.5769 115.844 12.3451 115.053C12.1944 114.539 11.7852 114.558 11.7263 114.141C11.5321 112.754 12.0092 112.186 11.3317 110.945C11.1894 110.677 10.7827 111.019 10.9975 109.954C11.0101 109.884 11.2372 109.091 10.9963 108.672C10.9656 108.618 10.8369 108.632 10.8192 108.559C10.7044 108.065 10.7829 107.742 10.7052 107.19C10.6289 106.649 10.5411 105.981 10.6049 105.348C10.6409 104.969 10.9178 104.479 10.9942 104.309C11.2068 103.826 11.0211 103.212 11.2873 102.94C11.5575 102.667 11.7284 103.331 12.0438 102.561C11.725 102.45 11.4089 102.293 11.0963 102.154C11.5766 100.263 12.95 98.3949 14.8117 97.4762C15.0326 97.3628 14.7217 97.3143 14.9645 97.1893C16.0554 96.657 17.0228 96.5801 18.134 96.4055C18.2488 96.3884 18.3662 96.3701 18.4863 96.3513C19.3328 96.2238 20.2691 96.1236 21.2544 96.4436C21.7868 96.9845 23.2018 97.853 23.7188 98.8608C23.9093 99.1969 23.8049 99.2312 23.8933 99.4723C24.1913 100.402 24.3075 99.8677 24.4611 100.09C25.0614 101.109 24.3381 101.416 24.5657 102.597C24.5818 102.665 25.0872 103.39 25.1199 103.506C25.3494 104.2 24.9905 103.64 24.9942 104.07C24.9922 104.86 24.9098 105.399 25.0245 106.307C25.0587 106.567 25.3003 107.22 25.0787 107.718C25.0498 107.784 24.916 107.74 24.9056 107.794C24.7233 108.767 25.1421 108.806 25.2451 109.382C25.3478 109.947 24.9725 110.784 24.8705 110.943C24.6069 111.372 24.8118 110.59 24.792 110.561C24.5642 110.249 24.5508 110.872 24.4789 111.341C24.0569 111.366 24.0093 112.026 24.4053 111.829C24.4488 111.806 24.4502 111.434 24.4789 111.341C24.8429 111.8 24.8139 112.535 24.3342 113.286C24.1088 113.636 23.9482 113.258 23.8765 114.396C23.8427 114.913 24.1542 114.753 24.1707 115.216C24.2072 116.275 23.7501 117.569 23.6414 118.636C23.6026 119.02 23.8111 118.671 23.79 118.933C23.7336 119.638 23.5321 120.229 23.4994 120.936C23.4968 120.999 23.6803 120.868 23.6541 121.083C23.463 122.717 23.1806 124.131 23.1059 125.796C23.1017 125.901 23.0995 126.014 23.0994 126.133L20.6917 126.333C20.4992 125.457 20.2841 124.169 20.2591 123.358C20.1864 121.781 20.5193 119.824 20.6096 118.526C20.669 117.67 20.4878 117.835 20.4248 117.45C20.3006 116.707 20.9202 115.47 21.011 115.339C21.0138 115.327 20.915 116.076 21.0714 115.694C21.2874 115.497 21.0099 115.349 21.011 115.339C21.0639 115.24 21.4041 113.816 21.4481 113.52C21.4683 113.361 21.2957 113.411 21.3093 113.329C21.6511 111.31 22.1676 109.474 22.9067 107.566C22.9211 107.534 23.0689 107.641 23.1006 107.566C23.5493 106.521 23.6077 105.757 23.8365 104.815C24.0701 103.866 24.393 103.193 24.8839 102.794C25.1212 102.124 25.6505 101.233 25.9652 100.722C26.2794 100.212 26.0047 99.9968 26.0199 99.946C26.4854 98.3931 27.0578 97.6322 27.821 96.1268C28.1839 95.4113 28.836 93.992 29.197 93.2044C29.4798 92.5835 29.7392 92.254 29.984 91.6715C30.0168 91.5935 29.8432 91.5993 29.8499 91.5738C30.0108 90.8721 30.1846 91.3403 30.3096 91.2434C30.7643 90.8928 31.0262 90.668 31.3446 89.8264C31.4181 89.6326 31.2303 88.8516 31.3811 88.5047C31.5779 88.0546 31.6586 88.3078 31.8611 87.8346C31.8786 87.7943 31.7705 87.7462 31.9256 87.4704C32.6426 86.1921 33.4719 84.8252 34.1974 83.493C34.2975 83.3102 34.0044 83.4531 34.1463 83.1875C34.8126 81.9414 35.5714 80.5995 36.3125 79.456C36.4978 79.1707 36.5079 79.4203 36.5779 79.375C37.0042 79.0954 37.0186 78.371 37.0643 78.2761C38.141 76.0187 39.3593 74.4789 40.4436 72.2001C40.4985 72.0826 40.6943 70.9619 41.1981 70.6912C41.232 70.6724 41.7405 70.4092 41.7437 69.9395C41.7437 69.9104 41.4598 70.089 41.716 69.6483C41.9732 69.2056 42.2534 68.4458 42.7389 67.913C42.8948 67.7396 43.4283 67.4138 43.5062 66.7059C43.5119 66.6573 43.4617 65.4895 43.977 65.3517C44.0611 65.33 44.4135 65.5718 44.5649 64.7849C44.5929 64.6346 44.3898 64.8318 44.5096 64.4587C44.7057 63.8601 45.1645 63.1768 45.3098 62.4293C45.3354 62.2979 45.3076 61.6845 45.6836 61.3859C45.7426 61.3389 45.8174 61.5139 45.9262 61.3142C46.456 60.3385 46.8466 59.2025 47.3385 58.2415C47.5142 57.8954 47.6476 58.1764 47.8589 57.8067C48.0745 57.4279 48.4266 56.6539 48.4687 56.2174C48.5109 55.7816 48.0184 56.0962 48.1939 55.4951C48.9551 52.8172 49.8032 50.2967 49.6911 47.7579C49.6671 47.4015 49.571 47.7248 49.5076 47.1858C49.4149 45.1394 47.4558 42.9069 45.893 42.0234C44.7042 41.2438 46.3553 41.7903 45.4342 41.2933C44.9778 41.0573 44.2781 41.2782 44.1504 41.2546C42.7694 40.9937 42.1226 40.7002 40.8554 40.5865C40.5991 40.5671 40.8287 40.7671 40.6107 40.7495C39.8035 40.6867 39.1847 40.5665 38.4933 40.5459C38.1893 40.5386 38.2402 40.6715 37.957 40.6511C37.2751 40.6056 36.6429 40.5445 35.9085 40.4308C35.8489 40.4204 36.2658 40.2526 35.756 40.2532C34.9907 40.2549 33.985 40.1712 33.0111 40.3582C32.7209 40.4148 32.7352 40.7111 32.08 40.5534C31.9405 40.5216 32.0905 40.1476 31.3519 40.5206C31.16 40.5874 30.147 41.1016 29.5308 40.8998C29.3736 40.8455 28.954 40.5971 28.6175 40.6836C28.5722 40.6964 28.7763 40.8335 28.4956 40.8828C27.5102 41.0536 26.397 41.1873 25.328 41.3993C25.0737 41.4516 25.4806 41.5578 25.1004 41.6308C24.0558 41.8318 22.6805 42.0184 21.5541 42.169C21.139 42.2241 21.399 42.0375 21.3665 42.0282C20.8397 41.8763 20.6076 42.2539 20.4484 42.3031C19.9075 42.4678 19.4157 42.545 18.9232 42.6193C18.5333 42.6772 18.154 42.7353 17.7617 42.8447C17.5248 42.9108 17.7302 43.0239 17.6858 43.0486C17.23 43.2973 17.5271 42.9369 17.2121 42.9819C16.3476 43.1048 15.3944 43.3951 14.5519 43.7122C14.248 43.8276 14.6516 43.877 14.3809 43.9786C12.8145 44.5731 11.2026 45.3273 9.79059 46.1649C9.52964 46.3195 9.60777 46.0972 9.53741 46.1066C9.05091 46.1665 8.70616 46.8188 8.61358 46.9345C8.17545 47.4656 7.90837 47.5438 7.50766 47.966C5.48424 50.0305 3.85075 53.2448 3.22826 56.0131C2.39459 59.5973 2.27758 62.6143 2.5749 66.2706C2.5957 66.5048 2.762 66.2536 2.78257 66.455C3.04161 69.0321 3.34887 71.6047 3.87202 74.1876C3.91476 74.3992 4.03224 74.0616 4.10693 74.3999C4.26066 75.0901 4.4282 76.0033 4.51356 76.7062C4.55664 77.0546 4.31476 76.6243 4.36142 76.9749C4.46972 77.7897 4.64518 78.675 4.85541 79.4989C4.94488 79.8473 5.00417 79.2789 5.10693 79.7346C5.82012 82.87 6.60144 85.9202 7.1664 89.1576C7.20473 89.378 6.89639 89.6565 7.07976 90.1011C7.18713 90.1112 7.30274 90.0804 7.41201 90.0692C8.60934 94.626 9.63283 99.1983 10.6329 103.854C10.675 104.051 10.7906 103.67 10.8731 104.05C11.3482 106.248 11.8364 108.387 12.0504 110.705C12.0714 110.934 11.7158 110.877 11.8808 111.533C11.9112 111.649 12.1217 112.639 12.2355 112.889C12.2522 112.923 12.3804 112.713 12.4367 113.039C12.7599 114.929 12.9886 116.924 13.0809 118.836C13.0952 119.143 12.8941 118.834 12.9027 119.053C12.9659 120.618 13.2103 122.288 13.1087 123.799C13.037 124.804 12.731 124.441 12.4538 124.973C12.4152 125.048 12.4161 125.658 12.2475 125.69C11.8254 125.772 11.3602 125.485 10.9106 125.608C10.8149 125.634 10.9207 126.426 10.6855 125.957C10.6703 125.925 10.5883 125.352 10.5059 125.211C10.4493 125.114 10.2812 125.293 10.2076 125.094C10.1338 124.895 10.2728 124.672 10.1806 124.341C10.0863 124.009 9.89866 124.163 9.84926 123.498ZM27.3868 98.4674C27.7645 98.0465 27.2579 97.7185 27.1377 98.3114C27.1326 98.3404 27.3678 98.4893 27.3868 98.4674ZM13.4479 99.0329C14.1779 98.6835 14.4048 98.1033 13.8276 98.2634C13.2179 98.4781 13.2209 99.156 13.4479 99.0329ZM11.4214 106.31C11.6254 105.465 10.7809 105.308 10.9518 106.241C10.9621 106.296 11.4102 106.36 11.4214 106.31ZM12.2827 122.537C12.2755 122.545 12.29 122.981 12.2981 122.993C12.4997 123.218 12.4707 122.34 12.2827 122.537ZM12.4649 113.548C12.5345 113.276 12.2824 112.564 12.1941 112.904C12.1228 113.178 12.3778 113.888 12.4649 113.548ZM41.2746 73.8977C41.2866 73.8945 41.4441 73.6258 41.3969 73.607C41.2447 73.547 41.0753 73.9486 41.2746 73.8977ZM12.5497 125.384C13.1352 124.801 13.4725 124.099 13.7022 123.9C13.9035 123.679 14.1105 123.946 13.6322 124.951C13.4636 125.299 13.7481 124.101 13.5043 124.529C13.1007 125.236 12.9967 126.089 11.9991 126.317C11.9096 126.333 12.1004 126.131 12.2493 125.902C12.4025 125.676 12.5179 125.416 12.5511 125.381C12.5506 125.382 12.5502 125.383 12.5497 125.384ZM28.1695 98.4906C28.1811 98.4842 28.373 98.0954 28.3705 98.0826C28.2994 97.7887 27.912 98.573 28.1695 98.4906ZM49.64 57.6382C49.6677 57.6193 50.03 56.6683 50.0227 56.6343C49.9093 56.0362 49.1833 57.944 49.64 57.6382ZM21.4639 125.687C21.2923 125.184 21.3092 124.625 21.5816 124.251C21.5282 124.739 21.4956 125.194 21.4639 125.687Z" fill="black"/>
<circle cx="22.0347" cy="17.6051" r="17" fill="white"/>
<path d="M40.9809 18.7393C40.9965 19.4109 40.8384 20.2789 40.6443 20.9191C40.5842 21.1194 40.4987 20.9968 40.4517 21.1327C40.3594 21.3965 40.3557 21.663 40.2449 21.9191C40.2076 22.0035 40.0703 21.8551 40.035 21.9438C39.8421 22.4277 39.75 22.9083 39.5521 23.3947C38.5771 25.7782 37.2384 27.9379 35.4639 29.784C34.8785 30.396 34.037 30.9866 33.4085 31.5805C33.3351 31.6504 33.4746 31.727 33.4672 31.7486C33.3458 32.0845 33.239 31.7885 33.0597 31.8783C32.3469 32.2343 31.629 32.698 31.0091 33.1213C30.7449 33.301 31.1679 33.3975 30.8054 33.4129C30.7805 33.4141 30.7751 33.238 30.6907 33.2658C30.4999 33.3297 30.1823 33.5278 30.0391 33.5847C29.7638 33.694 29.721 33.7161 29.4676 33.8315C29.1192 33.9877 28.6738 34.0902 28.3051 34.2664C28.2262 34.3045 28.3913 34.4142 28.2692 34.4887C28.1473 34.5639 27.7918 34.6734 27.6608 34.6756C27.53 34.6786 27.5419 34.542 27.512 34.5213C27.2673 34.3457 26.9631 34.7881 26.9094 34.8108C25.9793 35.2195 25.0849 35.1964 24.1614 35.3085C23.4614 35.3936 22.7125 35.4983 22.0347 35.49C22.0291 35.4899 22.0234 35.4899 22.0178 35.4898C21.2058 35.4761 20.533 35.3447 19.7547 35.2621C19.6726 35.2528 19.7447 35.4525 19.6436 35.4413C18.5682 35.3209 17.5104 35.0599 16.5303 34.6088C16.4323 34.5633 16.6146 34.4485 16.5205 34.3938C15.9355 34.0658 15.148 33.386 14.4946 33.8711C14.1019 33.659 13.6324 33.3835 13.3597 33.062C13.185 32.8551 13.488 32.8212 13.182 32.7328C13.1131 32.7122 13.1115 32.8947 13.0137 32.8529C12.6003 32.6755 12.2198 32.3683 11.8118 32.1809C11.7285 32.143 11.6668 32.2726 11.631 32.2785C11.3324 32.321 11.2455 31.8291 11.201 31.7628C10.8458 31.2556 10.4751 31.0373 10.0715 30.6633C9.97839 30.5761 9.9607 30.8185 9.86598 30.7389C9.37622 30.3227 8.92175 29.8289 8.57479 29.3006C8.49818 29.1828 8.70439 29.1735 8.6744 29.1121C8.54351 28.8436 8.26694 28.9894 8.14115 28.7284C8.11472 28.6737 8.24397 28.6132 8.24914 28.5953C8.3325 28.3165 7.97764 28.4106 7.94463 28.3798C7.52917 28.0021 7.61681 27.5108 7.29163 27.1026C7.25224 27.0531 7.18169 27.2681 7.07964 27.1221C6.39893 26.1491 5.87094 24.9868 5.5907 23.8469C5.54693 23.6696 5.71606 23.7446 5.72716 23.728C5.90065 23.4675 5.54222 23.4736 5.51011 23.4213C5.26731 23.0097 5.4173 22.517 4.94308 22.3202C4.62899 20.7571 4.29779 19.1891 4.4316 17.6051C4.46467 17.2146 4.5258 16.834 4.62245 16.4533C4.62827 16.429 4.79258 16.4839 4.80346 16.4356C4.9412 15.8571 4.67423 15.9542 4.40078 15.5204C4.33251 15.409 4.75391 15.1576 4.78587 15.1372C4.90233 15.0567 5.13498 15.1907 5.15943 15.1618C5.35397 14.9281 4.53127 14.843 4.59415 14.4781C4.5975 14.4671 4.73851 14.5409 4.75872 14.5134C4.82196 14.4283 4.77991 14.3248 4.8489 14.2437C5.00894 14.0582 5.4142 14.0703 5.25734 13.7094C5.23753 13.6631 4.76545 13.6187 4.86528 13.3047C4.90321 13.1803 5.04935 12.6177 5.12768 12.4731C5.20379 12.3276 5.31542 12.478 5.32505 12.4687C5.64398 12.1176 5.67434 12.2988 6.02022 12.1923C6.36537 12.0908 5.68454 11.9164 5.63975 11.8075C5.5948 11.6982 5.85864 11.4589 5.93994 11.409C6.02086 11.3583 6.07584 11.4816 6.13042 11.4302C6.49092 11.0938 5.88005 11.118 5.83339 10.9366C5.72763 10.5029 6.31903 10.4547 6.50097 10.1915C6.55087 10.1193 6.41338 10.1319 6.43727 10.057C6.53529 9.75997 6.76246 9.67116 6.79856 9.29313C6.8036 9.23243 6.67187 8.82649 6.96475 8.78187C7.00648 8.77624 7.08077 8.90511 7.1723 8.80723C7.30873 8.66108 7.51797 8.37824 7.59709 8.17969C7.65555 8.03257 7.37896 8.06372 7.54311 7.93644C7.61625 7.88054 7.63028 8.0836 7.75861 7.97383C7.88564 7.86425 8.11918 7.5248 8.21016 7.39673C8.30002 7.26839 8.11929 7.24022 8.11802 7.22358C8.11346 7.12399 8.23827 6.8337 8.25579 6.81272C9.09099 5.72084 10.1683 5.02214 11.1262 4.12699C11.2023 4.0567 11.0417 3.96699 11.0522 3.95489C11.2869 3.67632 11.3498 4.20581 11.6349 4.17542C11.3946 3.92366 11.5469 3.88301 11.7236 3.70415C11.8089 3.61789 11.6769 3.5487 11.6775 3.53115C11.7021 3.25986 11.9594 3.40054 12.0158 3.42648C12.2258 3.52042 12.1975 3.25564 12.3389 3.3197C12.4783 3.38406 12.4376 3.64643 12.63 3.51386C12.6164 3.3738 12.2887 3.20267 12.4111 3.05803C12.8745 2.49776 14.1385 2.09016 14.6477 1.89256C15.157 1.68468 15.3144 1.59828 15.6272 1.51982C16.1943 1.38612 15.9116 1.23834 16.2165 1.01137C16.5268 0.78786 16.5477 1.40716 16.6372 1.51079C16.7246 1.61562 16.7348 1.47435 16.8154 1.5217C16.8952 1.56937 16.7961 1.69218 16.9405 1.67328C17.0838 1.65358 17.394 1.32628 17.4102 1.18468C17.4407 0.88417 17.184 0.645949 17.5956 0.643719C17.6192 0.643959 17.5872 0.813058 17.6752 0.806431C18.3672 0.75055 19.0666 0.622172 19.7522 0.638113C19.8462 0.640647 19.7865 0.823082 19.8411 0.826626C20.4078 0.869369 20.1753 0.604373 20.456 0.250942C20.4264 0.687809 20.6179 0.930773 21.0349 0.907741C21.2875 0.895425 21.233 0.710101 21.3933 0.57063C21.4417 0.528506 21.6262 0.652689 21.6569 0.563622C21.7603 0.272701 21.5798 -0.0515798 22.0347 0.0744962C22.0349 0.0745495 22.035 0.0746028 22.0352 0.0746564C22.0423 0.0768207 22.0389 0.0979265 22.0347 0.124772C22.0291 0.160087 22.022 0.205335 22.0347 0.230456C22.0397 0.240412 22.0478 0.247208 22.0603 0.248991C22.4991 0.315269 22.5567 0.0128817 23.0406 0.00034833C23.4228 -0.00962049 24.0719 0.237577 24.4862 0.329099C24.4118 0.80771 24.8101 0.754454 25.0287 0.454285C25.2978 0.51468 25.5924 0.554085 25.8428 0.657622C25.9286 0.693083 25.8389 0.816865 25.8468 0.834202C25.9634 1.10473 26.1518 0.816215 26.2132 0.818231C26.8699 0.855006 27.2939 1.24286 27.9489 1.22179C27.9718 1.22096 28.1219 0.916271 28.1921 1.2052C28.1956 1.22473 27.9526 1.29692 28.2183 1.40989C28.4862 1.52333 28.9115 1.89509 29.3362 1.92291C29.4381 1.92862 29.7819 1.7896 29.8631 2.07045C29.8734 2.10818 29.8043 2.18152 29.8135 2.24647C29.8429 2.45369 30.0595 2.1822 30.0499 2.50467C30.0402 2.82743 30.1838 3.15006 30.6193 3.1772C30.6327 3.17846 30.8514 2.99438 30.9562 3.06387C31.1229 3.17417 31.33 3.37398 31.5024 3.48821C31.5852 3.54286 31.6264 3.36854 31.6425 3.37565C32.2538 3.67934 32.553 4.09118 33.0583 4.60118C33.1498 4.69369 33.5889 4.77383 33.6537 5.082C33.7209 5.41795 32.9558 5.81879 33.5286 6.10642C33.7522 6.2193 34.744 5.74072 34.6522 6.45239C35.348 7.03922 35.6245 7.86336 36.2657 8.5076C36.2944 8.53644 36.6096 8.48937 36.6574 8.57429C36.7274 8.69998 36.651 8.83736 36.695 8.92884C36.8755 9.31406 37.1636 9.59997 37.3319 9.97679C37.3954 10.1196 37.2453 10.1329 37.3183 10.3024C37.3901 10.4711 37.6113 10.5061 37.631 10.773C37.6453 10.9757 37.3683 11.2937 37.4165 11.5357C37.7672 11.4068 37.8246 11.5682 38.0219 11.8225C38.0599 11.8714 38.1609 11.7678 38.1852 11.7888C38.2872 11.8741 38.2203 12.0098 38.3243 12.0892C38.3494 12.1087 38.4708 12.0692 38.4982 12.0831C38.737 12.2015 38.5546 12.5838 38.5206 12.6462C38.3956 12.8911 38.58 12.934 38.5484 13.102C38.5159 13.2684 38.3668 13.0738 38.3686 13.256C38.3721 13.6311 38.4956 14.0803 38.5577 14.4429C38.5833 14.5875 38.7323 14.4579 38.7399 14.4778C38.8392 14.7734 38.7062 15.1061 39.0654 15.2278C38.2232 15.5558 39.1775 15.3995 39.0504 15.8646C39.0397 15.9009 38.6311 15.984 38.5572 15.861C38.4834 15.7385 38.5895 15.5269 38.471 15.3609C38.4435 15.3201 38.0241 15.1391 37.9956 15.1118C37.7745 14.8914 38.3781 14.7516 38.4095 14.7313C38.745 14.5109 38.2752 14.2921 38.2308 14.2239C38.028 13.9006 38.0417 13.5895 37.8726 13.325C37.7622 13.1528 37.3661 13.2465 37.3368 13.1014C37.2369 12.6247 37.7133 12.2641 37.0895 11.9903C36.9553 11.9327 36.5784 12.1842 36.7743 11.7284C36.7875 11.7008 36.9824 11.3319 36.7345 11.269C36.7034 11.2614 36.5849 11.3134 36.5649 11.2946C36.4331 11.1685 36.481 11.0237 36.3582 10.8782C36.2356 10.7333 36.0728 10.5691 36.0159 10.3644C35.9818 10.2414 36.1173 9.98449 36.139 9.90158C36.2041 9.66597 35.869 9.64221 35.9927 9.44619C36.1149 9.24603 36.4981 9.27563 36.4615 8.95258C36.1676 9.11629 35.8593 9.27339 35.5614 9.43439C35.255 8.90557 35.0011 8.34387 34.6092 7.86281C34.5605 7.80368 34.4659 7.97631 34.4103 7.91654C34.1768 7.66586 34.0829 7.3522 33.8068 7.11893C33.5924 6.93898 33.2472 6.85122 33.0137 6.68508C33.1645 6.28956 32.7621 6.08177 32.5543 5.85043C32.4811 5.7688 32.5546 5.69676 32.5179 5.61989C32.3755 5.33221 32.2585 5.68126 32.1632 5.66994C31.757 5.62719 32.2233 5.01269 31.88 4.76985C31.8611 4.75558 31.4016 4.92308 31.3586 4.92383C31.0754 4.92321 31.4125 4.78601 31.3129 4.67652C31.1304 4.47779 31.0306 4.28965 30.7037 4.21992C30.6071 4.19937 30.2905 4.30094 30.2442 4.0419C30.2379 4.00781 30.3191 3.89843 30.3071 3.88194C30.0826 3.59331 29.8587 3.95837 29.6245 3.99166C29.391 4.02556 29.2731 3.63144 29.2563 3.52802C29.2154 3.2606 29.4074 3.50023 29.4245 3.48553C29.6336 3.30629 29.4191 3.24239 29.278 3.14771C29.4442 2.7632 29.215 2.67872 29.1303 3.05144C29.1213 3.09209 29.2563 3.11528 29.278 3.14771C28.9604 3.44687 28.7214 3.38808 28.6195 2.92256C28.5705 2.7049 28.7724 2.5618 28.3618 2.47041C28.1758 2.43068 28.1332 2.72412 27.9544 2.73673C27.5491 2.76673 27.1932 2.35546 26.8121 2.28196C26.6759 2.25594 26.7575 2.44584 26.6636 2.43369C26.4156 2.40296 26.2363 2.23002 25.9786 2.22644C25.9556 2.22643 25.9676 2.39953 25.893 2.38277C25.3274 2.2608 24.8501 2.05838 24.2452 1.96947C23.9532 1.92526 23.4208 1.961 23.1194 1.92419C22.78 1.88097 22.3976 1.76092 22.0347 1.70347C21.8349 1.67151 21.6456 1.65831 21.4841 1.68456C21.1886 1.73309 21.2625 1.89612 21.1427 2.0147C20.916 2.24378 20.4631 1.89338 20.3957 1.84065C20.3937 1.83843 20.6433 1.77569 20.4999 1.70424C20.4036 1.53632 20.3983 1.83964 20.3957 1.84065C20.3534 1.80379 19.8406 1.82772 19.7456 1.87558C19.6938 1.9005 19.7467 2.05064 19.7196 2.06072C19.0714 2.29791 18.4355 2.47461 17.7616 2.58981C17.7492 2.59005 17.7189 2.41702 17.6901 2.41978C17.2859 2.45534 17.1045 2.74 16.8444 2.96606C16.5836 3.19325 16.3371 3.24557 16.0441 3.04176C15.8313 3.16932 15.4541 3.19235 15.2334 3.20866C15.0122 3.22482 15.1362 3.54406 15.1234 3.55759C14.7245 3.9974 14.3574 3.97684 13.8458 4.25215C13.6023 4.38159 13.1751 4.72385 12.958 4.92824C12.7862 5.08885 12.6255 5.10976 12.4857 5.28223C12.4669 5.30547 12.583 5.40701 12.5796 5.41705C12.5045 5.7059 12.3652 5.34515 12.285 5.3241C11.9941 5.24897 11.8203 5.22355 11.654 5.51446C11.6142 5.58246 11.8095 6.11993 11.7378 6.22737C11.6421 6.36812 11.5587 6.18507 11.4623 6.3383C11.454 6.35134 11.5368 6.43494 11.4557 6.50485C11.0807 6.83048 10.6548 7.17841 10.3258 7.58108C10.2807 7.63563 10.4814 7.68834 10.4194 7.76855C10.1287 8.14482 9.80864 8.55049 9.47213 8.8819C9.38877 8.96331 9.3219 8.83004 9.27571 8.82848C8.99294 8.8236 9.15574 9.1976 9.14275 9.22996C8.82207 10.0302 8.23591 10.4562 8.00601 11.3168C7.9925 11.3658 8.18649 11.8382 7.83687 11.8682C7.81373 11.8695 7.45382 11.9027 7.60789 12.1162C7.61775 12.1292 7.80749 12.0949 7.73026 12.2517C7.65261 12.4101 7.66478 12.7061 7.41847 12.8785C7.34103 12.9319 6.97826 13.0134 7.15983 13.3062C7.17104 13.3288 7.63639 13.8127 7.22139 13.8321C7.15332 13.8352 6.74732 13.7119 6.89366 14.0305C6.92265 14.0909 7.0355 14.0206 7.06205 14.1669C7.10375 14.3896 6.93661 14.6392 7.07717 14.9237C7.10178 14.9745 7.35268 15.2042 7.11567 15.3191C7.0785 15.3373 6.94586 15.2717 6.91845 15.3486C6.78752 15.7162 6.83728 16.1267 6.71295 16.5071C6.66941 16.6432 6.44667 16.557 6.37698 16.7008C6.30702 16.8449 6.23696 17.1406 6.3387 17.2979C6.44038 17.4536 6.80515 17.2927 6.83209 17.5184C6.83565 17.5473 6.839 17.5762 6.84215 17.6051C6.94565 18.5454 6.82955 19.4904 6.97439 20.4347C6.99688 20.5777 7.10135 20.4361 7.14501 20.6429C7.29774 21.417 7.80781 22.6517 7.82189 23.3823C7.82987 23.9765 7.40456 23.3966 7.48816 23.8268C7.53167 24.0381 8.00943 24.0667 8.04163 24.104C8.36619 24.4787 8.3532 24.8572 8.61679 25.2078C8.67125 25.2793 8.77657 25.1189 8.82104 25.18C8.97384 25.3866 9.04883 25.656 9.1938 25.8552C9.25918 25.944 9.35749 25.8556 9.40424 25.9448C9.518 26.1575 9.59405 26.363 9.6346 26.6267C9.63858 26.651 9.42028 26.6275 9.52277 26.7781C9.68859 27.0204 9.8214 27.3874 10.1363 27.5683C10.2305 27.6216 10.4584 27.4303 10.443 27.7268C10.4401 27.7885 10.133 27.9841 10.5326 27.9661C10.6008 27.9665 11.1858 27.9844 11.136 28.3155C11.1227 28.4032 11.014 28.71 11.1341 28.7627C11.1509 28.7689 11.2162 28.6086 11.2985 28.6669C11.5866 28.8739 11.8473 29.1333 12.1547 29.3268C12.2367 29.3779 12.2348 29.1598 12.3529 29.2388C12.6768 29.4554 13.0338 29.7816 13.3162 30.0423C13.4201 30.1387 13.2621 30.1959 13.2618 30.214C13.2604 30.5094 13.5283 30.2933 13.5834 30.3071C13.9287 30.3989 14.0661 30.6657 14.3584 30.7896C14.4386 30.8237 14.4642 30.6575 14.486 30.654C14.7069 30.6238 14.4527 30.8021 14.5355 30.8849C14.7685 31.118 15.0898 31.2723 15.3883 31.394C15.4977 31.4381 15.4574 31.2174 15.5538 31.2583C16.1258 31.4962 16.7129 31.7498 17.2569 32.0348C17.3597 32.0888 17.2479 32.1992 17.2607 32.237C17.3519 32.5022 17.677 32.2818 17.737 32.2688C18.0159 32.2116 18.0776 32.3559 18.3 32.3888C19.3803 32.5506 20.6937 32.8004 21.7297 32.8638C21.8326 32.8708 21.9342 32.8771 22.0347 32.8828C23.2381 32.9459 24.2467 32.9466 25.4098 32.6603C25.4895 32.6403 25.3681 32.4771 25.4356 32.4575C26.3041 32.2134 27.1759 32.0073 27.9892 31.6028C28.0557 31.5699 27.8887 31.4498 27.992 31.3917C28.2034 31.2714 28.4819 31.1527 28.7264 31.0936C28.8455 31.0644 28.7691 31.2718 28.8885 31.239C29.1672 31.1623 29.4429 31.0278 29.6815 30.857C29.7823 30.7841 29.5309 30.7218 29.6677 30.6395C30.5974 30.0715 31.4259 29.421 32.399 28.842C32.4653 28.8025 32.7659 29.024 32.8375 28.8581C32.776 28.7762 32.6925 28.6904 32.621 28.6084C33.7285 27.4608 34.7948 26.2682 35.5778 24.8527C35.6104 24.7934 35.3844 24.8044 35.4459 24.6901C35.8011 24.0236 36.042 23.3431 36.4809 22.6778C36.5238 22.6114 36.8346 22.7615 36.8594 22.5249C36.8643 22.4834 36.9265 22.1369 36.8795 22.0306C36.8722 22.016 36.7018 22.0301 36.7284 21.9234C36.8861 21.3014 37.0674 20.6611 37.2642 20.0393C37.2962 19.9386 37.4468 20.075 37.471 20.0029C37.642 19.4892 37.5708 18.9012 37.7494 18.3983C37.8682 18.0613 38.1556 18.1989 38.4502 18.0182C38.492 17.9925 38.502 17.7703 38.6699 17.7598C39.0929 17.7323 39.5546 17.8509 40.0056 17.8091C40.1034 17.8002 39.9996 17.4719 40.2337 17.6668C40.2497 17.6804 40.3252 17.9204 40.4031 17.9815C40.4573 18.024 40.6298 17.9524 40.6983 18.0393C40.7667 18.1267 40.6209 18.2161 40.6981 18.36C40.7755 18.5051 40.974 18.4492 40.9809 18.7393ZM14.2344 3.31435C13.9832 3.2663 14.2519 3.80152 14.3633 3.57638C14.3684 3.5649 14.2471 3.31655 14.2344 3.31435ZM35.36 8.09036C35.423 7.72543 35.0051 7.81716 34.9486 8.08206C34.8888 8.34366 35.3395 8.19965 35.36 8.09036ZM36.8987 10.2852C36.9477 9.91772 36.1729 10.2664 36.467 10.4698C36.4838 10.4817 36.8957 10.3064 36.8987 10.2852ZM38.4871 18.9049C38.4954 18.9029 38.5148 18.7436 38.507 18.7392C38.3236 18.6422 38.2854 18.9569 38.4871 18.9049ZM38.0822 12.7046C38.1646 12.5791 37.953 12.3546 37.8538 12.5123C37.7742 12.6374 37.98 12.859 38.0822 12.7046ZM6.76807 10.3098C6.75858 10.3087 6.70095 10.4115 6.74766 10.4308C6.89777 10.4925 6.92594 10.3271 6.76807 10.3098ZM38.8149 17.2298C38.8287 16.5602 39.4916 16.0755 39.4566 16.8511C39.4486 16.9891 39.2193 16.5649 39.1647 16.7431C39.0646 17.0622 39.51 17.2663 39.2751 17.5991C39.2327 17.6563 38.8135 17.266 38.8139 17.2287C38.8142 17.2291 38.8146 17.2294 38.8149 17.2298ZM13.7867 2.74072C13.7792 2.73561 13.6329 2.80938 13.6334 2.8183C13.651 3.02637 13.9425 2.87962 13.7867 2.74072ZM4.76239 16.9084C4.74418 16.9165 4.71754 17.3022 4.73389 17.3153C5.03897 17.5181 5.09256 16.7531 4.76239 16.9084ZM24.491 0.342843C24.6977 0.178801 24.9255 0.192435 25.0279 0.453902C24.8511 0.410307 24.6694 0.379866 24.491 0.342843Z" fill="black"/>
</svg>
