<svg width="62" height="128" viewBox="0 0 62 128" fill="none" xmlns="http://www.w3.org/2000/svg">
<path d="M24.8634 41.7677C-20.8356 41.7677 13.5604 97.9887 23.6417 126.989C25.481 122.562 30.3149 131.026 35.6419 124.739C34.1419 103.739 27.4662 98.6041 33.2823 102.239C41.2822 107.239 34.9906 116.07 39.1418 122.239C43.6447 126.739 47.6418 124.489 53.1418 122.239C44.1418 88.7391 89.6414 41.7677 24.8634 41.7677Z" fill="white"/>
<path d="M19.0009 125.795C18.3664 124.389 17.6946 122.38 17.2442 120.868C17.0995 120.386 17.3916 120.541 17.2994 120.203C17.1139 119.531 16.7852 119.007 16.6207 118.355C16.5671 118.138 16.9826 118.263 16.9192 118.039C16.5669 116.805 16.015 115.716 15.5787 114.505C13.4042 108.483 10.9915 102.653 8.6904 96.5424C7.92985 94.5262 7.26258 91.9885 6.35622 89.9383C6.25041 89.7001 6.0284 89.9484 5.98832 89.9105C5.36884 89.3112 6.01687 89.3464 5.91636 88.8446C5.51318 86.8427 4.80962 84.7469 4.09276 82.9138C3.79055 82.1422 3.48829 83.1112 3.54602 82.2175C3.54961 82.1558 3.91149 82.2596 3.87447 82.0342C3.78902 81.5226 3.45004 80.6202 3.35569 80.2208C3.17913 79.465 3.14017 79.3438 2.94125 78.6452C2.67534 77.6979 2.50947 76.5041 2.17756 75.4844C2.10592 75.2672 1.86889 75.6392 1.72679 75.299C1.58274 74.9547 1.38751 74.0288 1.38613 73.6808C1.38541 73.3402 1.6632 73.422 1.70644 73.352C2.07329 72.7766 1.18098 71.8285 1.13728 71.6891C0.335335 69.1689 0.369942 66.8168 0.185821 64.354C0.0420196 62.4347 -0.0953239 60.3818 0.08831 58.5441C0.316545 56.3274 0.856717 54.4914 1.58021 52.4359C1.66069 52.2148 1.20896 52.3407 1.3095 52.0668C2.35339 49.1869 4.34854 46.509 6.92647 44.859C7.18535 44.6923 7.07544 45.1941 7.34331 45.047C8.99034 44.0868 11.6949 43.5441 12.1983 41.854C13.4385 41.4509 14.795 41.1403 15.9441 41.1888C16.6781 41.225 16.0719 41.7162 16.8991 41.3961C17.0844 41.3265 16.7875 41.0601 17.0539 40.983C18.1597 40.6622 19.4798 40.5938 20.7058 40.3292C20.9306 40.2766 20.8464 39.9995 20.9076 39.9435C21.4266 39.486 22.414 40.1182 22.6205 40.161C23.4342 40.3166 24.1462 40.3589 24.8634 40.3678C25.5367 40.3765 26.1889 40.3487 26.9041 40.3643C27.2435 40.3721 26.8485 39.985 27.1756 39.9792C28.903 39.9569 30.4322 40.0469 32.1993 40.3291C32.5698 40.392 32.2057 40.6927 32.3809 40.7394C33.1474 40.9427 33.3638 40.3457 34.0818 40.5388C34.2322 40.579 34.1221 40.8479 34.1473 40.8807C34.538 41.3947 34.9689 40.7559 35.0812 40.7519C36.4424 40.682 37.4502 41.5171 38.7926 41.6183C38.9574 41.6307 38.6427 41.2271 39.1034 41.2838C42.1617 41.656 45.5709 42.5523 48.3143 43.9315C48.7773 44.16 48.338 44.2705 48.3569 44.3127C48.6492 44.9748 49.2055 44.4752 49.3681 44.5176C50.626 44.8639 51.333 45.8844 52.5291 45.6564C57.1236 48.5083 60.9689 53.6203 60.9377 59.0771C60.9397 59.1444 60.5903 59.0785 60.5954 59.2114C60.6258 60.8097 61.0931 60.4678 61.8104 61.483C61.9903 61.748 61.2523 62.6043 61.1952 62.6737C60.9933 62.9413 60.4889 62.68 60.4506 62.7684C60.1448 63.4805 61.7978 63.3759 61.781 64.353C61.7775 64.3833 61.4771 64.2483 61.445 64.3292C61.3443 64.5795 61.4564 64.8355 61.3412 65.0809C61.0727 65.6432 60.2649 65.7945 60.6628 66.6886C60.713 66.8012 61.6647 66.7086 61.5392 67.57C61.4938 67.9066 61.3248 69.4651 61.2008 69.8743C61.0818 70.2849 60.824 69.9546 60.8069 69.9828C60.2482 71.0499 60.1461 70.5989 59.4756 71.0671C58.8044 71.532 60.2122 71.606 60.3276 71.8649C60.4427 72.1265 59.9703 72.9023 59.8209 73.0749C59.6714 73.2535 59.5294 72.9698 59.4327 73.135C58.7941 74.2308 60.0175 73.7834 60.1602 74.2175C60.4936 75.2491 59.3192 75.7772 59.0399 76.5771C58.9634 76.7969 59.2353 76.6635 59.2124 76.8697C59.1177 77.6865 58.6905 78.1003 58.7661 79.0808C58.7792 79.2379 59.2142 80.1124 58.6531 80.4796C58.5726 80.5312 58.3669 80.2797 58.2284 80.6051C58.0218 81.0883 57.7385 82.0018 57.6892 82.5576C57.652 82.9718 58.1803 82.6178 57.9262 83.0882C57.8129 83.2973 57.6741 82.8226 57.4814 83.2204C57.2896 83.6155 57.0301 84.6903 56.9348 85.1024C56.8401 85.5134 57.2106 85.369 57.2234 85.4073C57.2938 85.639 57.2497 86.4512 57.2318 86.5206C56.3924 90.0083 55.0645 93.0725 54.5174 96.5162C54.4743 96.786 54.8461 96.6787 54.8429 96.7206C54.7922 97.6616 54.0533 96.7562 53.6234 97.3358C54.3215 97.3824 54.1198 97.7347 54.0675 98.3935C54.0431 98.7109 54.3397 98.5932 54.3611 98.6269C54.6719 99.1621 54.095 99.3839 53.9734 99.4477C53.5264 99.6817 53.9261 100.1 53.6283 100.261C53.3324 100.424 53.0343 99.8733 52.9287 100.499C53.1425 100.716 53.8615 100.368 53.883 100.856C53.9522 102.683 53.0095 105.919 52.8484 107.37C52.6747 108.8 52.7023 109.26 52.5744 110.1C52.361 111.612 52.8612 111.071 53.0702 112C53.2907 112.924 52.1083 112.485 51.8539 112.621C51.6008 112.759 51.8644 112.905 51.7277 113.075C51.5912 113.247 51.4109 112.884 51.3666 113.283C51.3194 113.687 51.8204 114.752 52.0969 114.87C52.6786 115.126 53.2331 114.618 53.099 115.638C53.0913 115.697 52.7661 115.533 52.7525 115.758C52.6581 117.572 52.9178 119.414 53.1269 121.216C53.1556 121.465 52.7673 121.329 52.7807 121.475C52.818 121.876 52.8817 122.126 52.9651 122.287L53.0725 122.07C52.6515 122.362 52.9478 122.719 52.5676 123.396C52.407 122.528 51.78 122.219 50.7194 122.655C50.0833 122.913 50.338 123.216 50.0192 123.629C49.9243 123.754 49.3734 123.69 49.3546 123.885C49.2796 124.528 49.9562 124.986 48.7025 125.148C48.6473 125.153 48.7097 124.798 48.5267 124.839C47.3426 125.074 47.3824 125.723 45.9888 126.018C44.8846 126.278 42.791 125.732 41.6976 125.117C42.0766 124.238 41.0779 124.003 40.3134 124.271C39.6992 123.83 39.068 123.329 38.6156 122.766L38.5242 122.655C38.5074 122.623 38.4912 122.592 38.4756 122.56C38.3581 122.32 38.69 122.317 38.6972 122.272C38.8468 121.619 38.1401 121.649 38.0377 121.5C37.0169 119.91 37.2995 118.338 36.7454 116.71C36.7265 116.653 36.0458 116.57 36.5306 116.107C36.5646 116.079 36.8773 116.623 36.8925 115.84C36.9068 115.055 37.3277 113.62 37.0485 112.559C36.9813 112.299 36.4508 111.656 36.8752 111.154C36.9329 111.086 37.1266 111.16 37.2335 111.06C37.5729 110.733 36.8893 110.582 37.4513 110.185C38.0095 109.797 38.4088 108.894 37.791 107.867C37.7716 107.832 37.1935 107.695 37.1155 107.379C36.9957 106.866 36.8294 106.111 36.559 105.618C36.4298 105.381 36.2174 105.695 36.19 105.657C35.2531 104.369 34.5871 103.398 33.2162 102.345C33.1022 102.261 32.9906 102.18 32.8815 102.102C32.5998 101.918 31.461 101.668 31.146 101.336C30.7104 101.45 28.9269 101.56 29.8265 103.226C30.1941 103.878 32.4602 104.047 31.8097 105.581C32.7953 107.815 32.8394 110.146 33.7154 112.412C33.7546 112.513 34.3968 112.734 34.4423 112.998C34.5062 113.377 34.2777 113.628 34.3124 113.902C34.4502 115.053 34.8543 116.038 34.9854 117.139C35.0355 117.561 34.7369 117.465 34.7911 117.951C34.8445 118.437 35.2596 118.731 35.1672 119.426C35.0942 119.941 34.4028 120.543 34.3874 121.224C35.1332 121.17 35.1684 121.618 35.4439 122.435C35.4971 122.592 35.7401 122.395 35.7786 122.469C35.9418 122.774 35.751 123.064 35.921 123.341C35.9619 123.409 36.2166 123.391 36.2644 123.445C36.5763 123.789 36.3677 124.367 36.2046 124.699L36.2258 124.912L36.0723 125.104C35.9514 125.15 35.8562 125.176 35.813 125.187C35.1687 125.338 35.2141 125.753 34.8042 125.915C34.3827 126.076 34.7408 125.532 34.3145 125.768C33.4629 126.238 32.3985 126.763 31.4475 126.791C31.0767 126.805 31.3394 127.134 31.287 127.144C30.4302 127.257 29.7179 126.703 29.0798 127.221C29.0565 125.373 28.5347 127.241 27.5268 126.473C27.4496 126.412 27.6455 125.597 28.0199 125.613C28.3948 125.629 28.7991 126.064 29.3005 126.019C29.4335 126.02 30.1913 125.412 30.2516 125.37C30.8256 125.105 30.7734 126.319 30.8163 126.395C30.979 126.776 31.2944 126.754 31.5349 126.606C31.7854 126.458 31.9475 126.194 32.0276 126.146C32.7178 125.715 33.3727 125.504 33.8029 124.902C34.0686 124.509 33.5359 123.883 33.7708 123.674C33.8716 123.581 33.9791 123.5 34.0907 123.425L33.614 124.884C33.7931 123.797 34.5128 123.253 33.5426 122.161C33.3055 121.903 32.4526 122.264 33.0422 121.21C33.0795 121.141 33.6292 120.312 33.1752 119.939C33.1181 119.892 32.8614 119.926 32.8312 119.859C32.6349 119.422 32.7944 119.051 32.6261 118.557C32.4586 118.07 32.2189 117.457 32.2132 116.868C32.2109 116.52 32.6083 115.977 32.695 115.787C32.9467 115.244 32.3077 114.853 32.654 114.469C33.0029 114.09 33.7345 114.563 33.8437 113.719C33.178 113.819 32.4878 113.887 31.8154 113.973C31.5031 112.275 31.3299 110.576 30.8452 108.913C30.7827 108.702 30.4935 109.013 30.418 108.792C30.1103 107.896 30.1086 106.988 29.707 106.06C29.3934 105.334 28.7613 104.66 28.3937 103.825C28.6801 103.43 28.6532 103.025 28.5305 102.195C28.5149 102.074 28.5029 101.978 28.4895 101.803C28.4772 101.614 28.4678 101.42 28.5008 101.122C28.5235 100.932 28.5655 100.709 28.6602 100.452C28.7081 100.323 28.7675 100.19 28.8498 100.046C28.9487 99.8722 29.0772 99.6938 29.234 99.5293C29.9331 98.8103 30.7272 98.7034 31.1946 98.7023C31.9786 98.7304 32.2247 98.888 32.4576 98.9656C32.7145 99.0715 32.8278 99.1341 32.9805 99.2208C33.356 99.4453 33.195 99.596 33.4096 99.7954C34.0726 100.477 34.0566 99.6793 34.3203 99.7133C34.5043 99.738 34.644 99.8002 34.7517 99.8879C35.3782 100.4 34.9813 101.394 35.8585 102.113C35.911 102.144 37.1517 102.216 37.2911 102.31C38.1129 102.751 37.1703 102.598 37.4645 103.052C37.9697 103.89 38.1517 104.547 38.8117 105.476C39.0032 105.736 39.7651 106.354 39.5258 107.068C39.4948 107.159 39.2205 107.179 39.2199 107.245C39.2021 108.414 40.0167 108.299 40.3857 108.938C40.7478 109.585 40.189 110.594 40.0198 110.776C39.5886 111.28 39.8264 110.399 39.7792 110.37C39.2558 110.071 39.3716 110.749 39.3261 111.254C38.4924 111.329 38.5342 112.013 39.281 111.774C39.3631 111.747 39.2886 111.355 39.3261 111.254C40.1477 111.698 40.236 112.501 39.4405 113.288C39.0688 113.656 38.6605 113.288 38.7766 114.436C38.8316 114.953 39.4113 114.771 39.5602 115.215C39.8985 116.221 39.4033 117.466 39.6526 118.371C39.7419 118.691 39.9934 118.32 40.0656 118.529C40.26 119.064 40.1744 119.598 40.4994 120.044C40.5288 120.082 40.7848 119.847 40.8524 119.987C40.9934 120.271 41.1325 120.534 41.2873 120.795L40.9698 120.41C41.6177 121.12 42.2327 121.736 43.0168 122.075C43.5441 122.324 44.484 122.288 45.1053 122.259C46.1426 122.276 47.9381 122.184 49.0681 121.604C49.8044 121.231 49.5154 120.989 49.7576 120.647C50.2219 119.985 51.6964 120.211 51.9032 120.257C51.9097 120.259 51.2476 120.618 51.6813 120.621C52.0321 120.857 51.8954 120.262 51.9032 120.257C51.9426 120.266 52.0924 120.229 52.2941 120.167L50.9793 122.82C50.8847 122.303 50.7149 121.474 50.626 121.268C50.556 121.11 50.2711 121.269 50.2404 121.184C49.5184 119.166 49.1706 117.037 49.1989 114.909C49.2032 114.871 49.5551 114.908 49.5608 114.82C49.6531 113.599 49.2156 112.818 48.9668 111.814C48.7207 110.804 48.8388 109.994 49.4674 109.432C49.4281 108.67 49.7706 107.625 49.9872 107.026C50.2028 106.429 49.5367 106.277 49.5284 106.221C49.2759 104.48 49.7896 103.561 50.115 101.84C50.2688 101.029 50.4525 99.3969 50.5497 98.5024C50.623 97.7982 50.8619 97.4141 50.8916 96.7586C50.8959 96.67 50.5814 96.696 50.5754 96.6674C50.3671 95.8834 51.0218 96.3755 51.1815 96.2563C51.7632 95.8258 52.0816 95.555 52.0584 94.6094C52.0531 94.3922 51.1481 93.5547 51.1743 93.1614C51.21 92.6519 51.5395 92.9231 51.5685 92.3888C51.5714 92.3432 51.3395 92.2987 51.4238 91.9843C51.8129 90.5224 52.3364 88.9652 52.6911 87.4507C52.7405 87.2435 52.3115 87.4176 52.377 87.1168C52.685 85.7051 53.0832 84.1944 53.5929 82.8842C53.719 82.5636 53.9208 82.8351 54.0142 82.7821C54.5815 82.4545 54.0737 81.6663 54.0863 81.5613C54.3784 79.0169 55.4353 77.2802 55.6706 74.7515C55.6844 74.6074 55.1804 73.4213 55.8838 73.0855C55.9308 73.0631 56.6508 72.7256 56.2915 72.2466C56.2688 72.2172 55.8927 72.4365 56.0145 71.9553C56.1382 71.4621 56.0574 70.6228 56.518 70.0076C56.6638 69.8097 57.373 69.4092 56.9508 68.6879C56.9238 68.6327 55.8941 67.52 56.7186 67.2641C56.8536 67.223 57.6929 67.3593 57.3282 66.57C57.2563 66.4212 57.048 66.6613 56.9609 66.2809C56.8273 65.6806 57.0976 64.9189 56.7372 64.223C56.6741 64.097 56.1105 63.6019 56.5402 63.1854C56.6075 63.1203 56.891 63.2403 56.9195 63.0213C57.0547 61.978 56.794 60.9554 56.8411 59.9328C56.8557 59.5732 57.3347 59.6821 57.3924 59.291C57.454 58.9104 57.4017 58.1094 57.0974 57.7895C56.795 57.4725 56.2068 58.0575 55.9993 57.5503C55.0881 55.3833 54.319 53.3179 52.5964 51.6514C52.3456 51.4143 52.3899 51.7961 52.0015 51.4698C50.5891 50.2072 47.3997 48.8817 45.8123 47.7959C44.5615 46.9034 46.4422 47.1823 45.4076 46.647C44.893 46.388 44.0439 47.021 43.9041 47.0095C42.5543 46.912 41.8213 46.3601 40.5574 46.2216C40.299 46.1949 40.4819 46.5793 40.2632 46.5535C39.4677 46.4603 38.8573 46.2026 38.1541 46.1228C37.8467 46.0897 37.8649 46.3566 37.5847 46.2955C36.9108 46.1533 36.3046 45.9653 35.6227 45.642C35.5599 45.6125 36.0352 45.3388 35.4944 45.2662C34.6995 45.1594 33.7175 44.8248 32.7194 45.0013C32.4228 45.0551 32.3747 45.6488 31.77 45.1964C31.6418 45.1024 31.8594 44.3956 31.0719 44.9708C30.9095 45.0633 29.7023 45.8396 29.1508 45.2825C29.0043 45.1352 28.6304 44.5352 28.281 44.6177C28.2338 44.6311 28.4121 44.9568 28.1253 44.9802C27.114 45.0574 26.0236 45.0081 24.9181 45.1082C24.896 45.1102 24.878 45.114 24.8634 45.1192C24.6911 45.184 25.0219 45.4692 24.6335 45.4983C23.4791 45.5847 22.1341 45.559 21.1369 45.5408C20.7323 45.5366 20.9853 45.2389 20.9542 45.2115C20.4293 44.7693 20.2192 45.4543 20.0735 45.509C19.1538 45.8455 18.4645 45.6397 17.6569 45.876C17.4238 45.9435 17.6525 46.218 17.6109 46.2546C17.1872 46.6185 17.4305 45.9948 17.1146 45.9977C16.2163 46.011 15.3987 46.2553 14.5934 46.5675C14.3044 46.6818 14.7493 46.9133 14.494 47.0113C13.0267 47.5883 11.6451 48.2492 10.3938 48.9363C10.1562 49.0674 10.1214 48.7436 10.0376 48.727C9.43873 48.6185 9.39723 49.4668 9.35405 49.5892C9.11152 50.1797 8.78387 50.1689 8.48088 50.5863C7.00552 52.5611 5.7813 55.559 5.39289 58.2538C4.87553 61.7339 4.86522 64.7177 5.50121 68.3089C5.54323 68.5381 5.87174 68.2457 5.91283 68.4418C6.43034 70.9723 6.87011 73.4857 7.68163 76.0287C7.74646 76.2325 8.00411 75.842 8.11973 76.1651C8.35933 76.8273 8.59203 77.6967 8.69526 78.4267C8.74635 78.7827 8.31825 78.4133 8.37609 78.7709C8.5126 79.61 8.75037 80.4468 9.07119 81.2482C9.2081 81.5873 9.37988 80.9524 9.53122 81.4012C10.571 84.4502 11.7183 87.4088 12.4723 90.6509C12.5238 90.8725 11.9122 91.3231 12.2186 91.7208C12.4213 91.6804 12.6434 91.5913 12.8516 91.5268C14.6923 95.9057 16.2946 100.36 18.1491 104.803C18.2275 104.99 18.4467 104.515 18.6003 104.877C19.4846 106.962 20.4606 108.96 21.0223 111.266C21.0788 111.495 20.4039 111.654 20.7666 112.244C20.8317 112.348 21.3156 113.257 21.5541 113.441C21.5886 113.466 21.8102 113.17 21.9464 113.469C22.7518 115.255 23.4548 117.136 24.0043 119.025C24.0905 119.325 23.652 119.145 23.7105 119.359C24.1242 120.874 24.9983 122.407 25.2391 123.949C25.4007 124.989 24.7167 124.831 24.3558 125.532C24.3054 125.632 24.4996 126.216 24.1921 126.357C23.4212 126.713 22.4511 126.746 21.6412 127.159C21.4677 127.248 21.9244 127.923 21.3281 127.637C21.2883 127.618 20.9505 127.128 20.7519 127.046C20.6148 126.989 20.3531 127.273 20.1523 127.13C19.9515 126.987 20.1453 126.679 19.8722 126.414C19.5964 126.149 19.2856 126.428 19.0009 125.795ZM50.9993 104.372C51.395 103.86 50.2205 103.618 50.4252 104.262C50.4366 104.293 50.9798 104.399 50.9993 104.372ZM32.1864 110.369C32.5317 109.567 31.6498 109.271 31.3838 109.867C31.1103 110.438 32.082 110.615 32.1864 110.369ZM33.9811 117.524C34.2654 116.624 32.5698 116.765 33.0432 117.59C33.0701 117.639 33.9646 117.576 33.9811 117.524ZM23.3356 123.251C23.3237 123.264 23.4647 123.68 23.4829 123.684C23.9214 123.769 23.6386 122.935 23.3356 123.251ZM35.2831 124.465C35.2926 124.464 35.3021 124.462 35.3115 124.459L35.21 124.77C35.3867 124.468 35.0738 123.782 34.8219 124.121C34.696 124.29 34.7633 124.627 34.8933 124.793L35.0693 124.254C35.0579 124.386 35.1137 124.489 35.2831 124.465ZM58.4645 76.4745C58.4839 76.4698 58.5671 76.1638 58.4671 76.1488C58.1456 76.1008 58.141 76.5499 58.4645 76.4745ZM23.8668 125.82C24.2765 125.396 24.9051 125.326 25.2584 125.467C25.6252 125.598 25.8294 125.834 25.9071 126.022C25.9886 126.215 25.9472 126.372 25.8019 126.451C25.664 126.535 25.3948 126.532 25.1589 126.533C25.0786 126.536 25.121 126.404 25.2429 126.272C25.3568 126.141 25.5305 126.016 25.3285 125.946C24.9473 125.828 24.6841 126.121 24.6003 126.381C24.5005 126.652 24.4638 126.89 24.0916 127.159C24.0239 127.213 23.8875 126.922 23.8148 126.604C23.7467 126.263 23.8127 125.863 23.8682 125.815C23.8677 125.817 23.8673 125.818 23.8668 125.82ZM52.4655 104.24C52.4823 104.231 52.5562 103.795 52.5424 103.783C52.1984 103.492 52.0484 104.375 52.4655 104.24ZM60.3954 57.9404C60.4293 57.9066 60.2109 56.866 60.1656 56.8436C59.4396 56.4849 59.8676 58.5184 60.3954 57.9404ZM41.6898 125.086C41.0389 125.228 40.395 124.909 40.3151 124.273C40.7387 124.587 41.2027 124.851 41.6898 125.086Z" fill="black"/>
<circle cx="28.2817" cy="18.2391" r="17" fill="white"/>
<path d="M49.2042 19.4901C49.2681 20.2343 49.0433 21.1922 48.7619 21.8842C48.6747 22.1009 48.4868 21.9488 48.4166 22.094C48.279 22.375 48.3211 22.6763 48.1566 22.9461C48.101 23.0346 47.8026 22.8378 47.7521 22.931C47.4773 23.4378 47.416 23.9666 47.171 24.4819C45.9655 26.9997 44.4857 29.2619 42.5471 31.1767C41.9057 31.8131 40.9204 32.3298 40.2987 33.004C40.2259 33.0835 40.4608 33.2725 40.4602 33.3043C40.4391 33.7982 40.1518 33.2655 39.9398 33.3307C39.0965 33.5902 38.3436 34.0606 37.7184 34.5529C37.4521 34.7622 38.0348 35.1047 37.5747 34.9864C37.5435 34.9784 37.4656 34.6635 37.3692 34.6789C37.1519 34.7146 36.8314 34.9458 36.6758 34.995C36.3767 35.0886 36.3327 35.1129 36.0665 35.2323C35.6993 35.393 35.2059 35.4312 34.8332 35.6468C34.7533 35.6939 34.9803 35.9518 34.8605 36.0546C34.7407 36.1581 34.3603 36.2618 34.2111 36.2302C34.0621 36.1993 34.0379 35.9418 33.9981 35.894C33.6729 35.4879 33.4521 36.2581 33.3956 36.2903C32.4512 36.8508 31.4679 36.6489 30.5064 36.7658C29.7749 36.8555 28.9933 37.0248 28.2817 37.0089C28.2759 37.0088 28.27 37.0087 28.2641 37.0085C27.4114 36.9837 26.7139 36.7634 25.9001 36.6913C25.814 36.683 25.8667 37.0704 25.7598 37.0605C24.6229 36.9543 23.5016 36.6573 22.5103 36.0686C22.4114 36.0092 22.6508 35.7388 22.5598 35.661C21.9851 35.1926 21.3253 34.2116 20.3524 35.3436C19.9509 35.0965 19.4686 34.7815 19.253 34.3253C19.1157 34.0319 19.5162 33.846 19.1636 33.8195C19.0841 33.8126 19.0052 34.133 18.8967 34.1009C18.4374 33.9635 18.0681 33.6025 17.5979 33.4711C17.5016 33.4448 17.3587 33.6905 17.3071 33.7165C16.8773 33.9191 16.9758 33.1396 16.9454 33.0528C16.6828 32.3833 16.2572 32.2137 15.839 31.8205C15.7428 31.7289 15.6012 32.1158 15.4982 32.0362C14.9663 31.6183 14.4972 31.0857 14.1948 30.4799C14.1286 30.3448 14.461 30.2337 14.4426 30.1589C14.3628 29.8348 13.8493 30.1742 13.7663 29.8609C13.7488 29.7957 13.9874 29.6498 14.0042 29.622C14.2717 29.1908 13.6475 29.4904 13.6068 29.4618C13.0939 29.1248 13.4626 28.418 13.0889 28.027C13.043 27.979 12.8279 28.2938 12.716 28.1456C11.968 27.1579 11.454 25.9145 11.2917 24.6883C11.266 24.4978 11.5601 24.5306 11.5862 24.5078C11.9965 24.1555 11.3179 24.2767 11.2727 24.2258C10.9369 23.8275 11.3579 23.2452 10.4904 23.1469C10.2692 21.4985 9.80818 19.8842 10.0756 18.2391C10.1417 17.8356 10.252 17.444 10.4208 17.0581C10.4309 17.0335 10.7624 17.1002 10.7809 17.0516C11.0132 16.4713 10.4861 16.5525 9.89791 16.0667C9.7509 15.9399 10.5551 15.7272 10.6148 15.712C10.8344 15.6441 11.3136 15.8154 11.358 15.7889C11.7087 15.579 10.071 15.3686 10.1366 14.9866C10.1413 14.9754 10.4315 15.0775 10.4667 15.0516C10.5771 14.9721 10.4763 14.8547 10.5971 14.7807C10.8773 14.6109 11.6739 14.7087 11.2902 14.2939C11.2411 14.2399 10.3127 14.0925 10.4373 13.7702C10.4853 13.6431 10.6299 13.0561 10.7391 12.9144C10.8459 12.7719 11.1003 12.9707 11.1164 12.9628C11.6286 12.6612 11.7364 12.8717 12.3622 12.8584C12.9847 12.8543 11.6415 12.4502 11.5237 12.3131C11.406 12.1753 11.8268 11.9856 11.9615 11.9562C12.0961 11.9252 12.2401 12.0838 12.325 12.0439C12.8821 11.7853 11.7521 11.601 11.6038 11.3742C11.2602 10.8263 12.3323 10.9767 12.5602 10.7357C12.623 10.6685 12.3783 10.6308 12.3929 10.5498C12.4561 10.2277 12.828 10.212 12.7361 9.75798C12.7196 9.68622 12.3208 9.11747 12.815 9.18305C12.8855 9.19374 13.0709 9.38918 13.1885 9.30429C13.364 9.17752 13.599 8.90697 13.6434 8.68238C13.6764 8.51567 13.2198 8.43206 13.4417 8.33755C13.5405 8.29666 13.6568 8.57143 13.8239 8.48499C13.9895 8.39901 14.2207 8.05342 14.3093 7.92134C14.3966 7.78907 14.0857 7.66459 14.0757 7.64139C14.0217 7.50345 14.0898 7.15883 14.1081 7.13717C14.9581 5.99572 16.2459 5.47332 17.16 4.4978C17.2333 4.42091 16.9645 4.19906 16.9735 4.18458C17.1717 3.84367 17.5118 4.73275 17.8913 4.82147C17.4382 4.29625 17.6305 4.3039 17.7879 4.09209C17.8637 3.98964 17.6513 3.81307 17.6439 3.78438C17.5526 3.34537 17.9676 3.69682 18.055 3.76685C18.3806 4.02162 18.2203 3.56359 18.4378 3.73596C18.6515 3.90876 18.7202 4.33231 18.9106 4.19807C18.8288 3.95443 18.3182 3.51568 18.4148 3.32502C18.7878 2.58592 20.2174 2.37729 20.7421 2.20242C21.2724 2.01383 21.4243 1.90507 21.7594 1.8659C22.3651 1.80421 21.9926 1.43324 22.2719 1.09853C22.5587 0.766668 22.7624 1.94884 22.8937 2.17267C23.0211 2.39816 22.9899 2.13275 23.092 2.24661C23.1926 2.36096 23.1219 2.5655 23.2722 2.57226C23.4199 2.57871 23.6604 2.03609 23.6424 1.7659C23.5983 1.19368 23.2586 0.671488 23.7092 0.766392C23.7349 0.772464 23.7406 1.09252 23.8343 1.10066C24.5684 1.15758 25.278 1.03524 25.9837 1.15533C26.0802 1.17247 26.0427 1.52658 26.0985 1.54063C26.6755 1.69368 26.408 1.1388 26.6651 0.461945C26.6741 1.32853 26.8897 1.83447 27.2981 1.81456C27.5466 1.80416 27.4832 1.43057 27.6386 1.15838C27.6861 1.07623 27.8744 1.32975 27.903 1.15208C28.0015 0.571648 27.8116 -0.0767674 28.2817 0.177923C28.2819 0.17803 28.2821 0.178136 28.2823 0.178243C28.2896 0.182571 28.2861 0.224783 28.2817 0.278476C28.276 0.349105 28.2688 0.439599 28.2817 0.489842C28.2869 0.509754 28.2951 0.523346 28.3079 0.526894C28.7539 0.656104 28.8189 0.0506623 29.3232 0.00239646C29.7225 -0.0355175 30.377 0.397911 30.7956 0.520539C30.6554 1.47981 31.0648 1.31582 31.3454 0.686907C31.6183 0.76184 31.9238 0.784159 32.1699 0.934111C32.254 0.985372 32.1321 1.24585 32.1369 1.27805C32.2013 1.78084 32.4648 1.17572 32.5313 1.16585C33.2339 1.0865 33.591 1.71153 34.3364 1.46689C34.3622 1.45789 34.63 0.83742 34.6196 1.35889C34.6169 1.39422 34.3167 1.6087 34.5835 1.73473C34.8545 1.86217 35.2131 2.40172 35.7078 2.28994C35.8257 2.26159 36.2965 1.88011 36.2869 2.35454C36.2846 2.41842 36.1715 2.57779 36.1568 2.69094C36.1087 3.05102 36.4837 2.47804 36.3404 3.05707C36.1972 3.6366 36.2253 4.14304 36.7568 3.99498C36.7727 3.991 37.1299 3.57518 37.2335 3.64888C37.3973 3.76569 37.5741 4.01297 37.7472 4.12554C37.8305 4.1794 37.9657 3.86624 37.9835 3.87082C38.6547 4.1016 38.8727 4.63953 39.336 5.19915C39.4183 5.29994 40.0129 5.21241 39.9572 5.65524C39.8892 6.13555 38.5628 7.13857 39.2513 7.26507C39.516 7.30795 41.2709 6.11665 40.7792 7.19258C41.5752 7.69089 41.6245 8.67292 42.4188 9.20185C42.4541 9.22539 43.0158 9.02282 43.0611 9.11136C43.1267 9.24199 42.9339 9.4502 42.9701 9.54622C43.1151 9.95192 43.5058 10.1826 43.6595 10.5706C43.7175 10.7171 43.441 10.7925 43.5065 10.9646C43.5706 11.1352 43.9607 11.0937 43.8991 11.3978C43.8514 11.6294 43.2237 12.0915 43.2277 12.3418C43.926 12.0752 43.9756 12.2376 44.2655 12.4578C44.3215 12.5003 44.5448 12.3524 44.584 12.3681C44.7496 12.4322 44.5813 12.6044 44.7547 12.6612C44.7965 12.6753 45.0389 12.5951 45.0868 12.6026C45.5058 12.6666 45.0521 13.1438 44.9698 13.2195C44.6633 13.5203 45.0072 13.517 44.904 13.7065C44.7994 13.8928 44.5601 13.7227 44.518 13.916C44.43 14.3126 44.5719 14.7502 44.6277 15.1107C44.6515 15.2539 44.9683 15.0943 44.9794 15.1133C45.1215 15.4028 44.8088 15.7594 45.5044 15.8353C43.7923 16.2802 45.701 15.9962 45.4001 16.4882C45.3754 16.5267 44.5535 16.6487 44.4193 16.5352C44.2853 16.4227 44.5208 16.1999 44.3087 16.0503C44.259 16.012 43.456 15.8961 43.4047 15.8756C43.0041 15.6995 44.2195 15.4567 44.2844 15.4302C44.9823 15.1478 44.1011 15.0085 44.0294 14.9511C43.699 14.6661 43.8001 14.3454 43.542 14.1147C43.3743 13.9648 42.5877 14.171 42.5733 14.0323C42.5242 13.5811 43.5363 13.0353 42.4588 12.9519C42.2283 12.9359 41.4347 13.3414 41.9658 12.7837C42.0006 12.7511 42.4964 12.2739 42.0661 12.2982C42.0121 12.3018 41.7748 12.4052 41.7456 12.3925C41.5545 12.3064 41.6999 12.127 41.538 12.0144C41.3764 11.9026 41.1559 11.788 41.1459 11.5782C41.1401 11.4528 41.4935 11.0919 41.5684 10.9832C41.7866 10.6732 41.2144 10.7964 41.5193 10.5023C41.8219 10.2006 42.474 10.0674 42.5543 9.67934C41.9722 10.0163 41.3688 10.3524 40.7824 10.6897C40.5111 10.1958 40.3707 9.60717 39.9921 9.1674C39.9449 9.11383 39.7042 9.393 39.6471 9.34268C39.409 9.13262 39.4289 8.75411 39.132 8.57472C38.9011 8.43694 38.4342 8.49933 38.1867 8.38748C38.6215 7.73196 38.1485 7.63752 37.9837 7.39749C37.9249 7.31243 38.066 7.16304 38.0554 7.06444C38.0088 6.69564 37.6633 7.29668 37.5383 7.33035C37.01 7.48324 37.9662 6.27512 37.6247 6.05773C37.6049 6.04376 36.9122 6.54915 36.8578 6.57321C36.4914 6.71808 36.9985 6.322 36.9249 6.19388C36.7899 5.96107 36.7524 5.69692 36.3765 5.73868C36.2643 5.75049 35.8272 6.07841 35.8957 5.65766C35.9043 5.60228 36.0549 5.37644 36.048 5.35376C35.9079 4.96139 35.4696 5.69449 35.1804 5.86249C34.8933 6.03173 34.9386 5.3911 34.9628 5.21344C35.0317 4.75588 35.1495 5.09859 35.176 5.06443C35.499 4.65574 35.2748 4.63658 35.1511 4.52647C35.5063 3.76939 35.2707 3.70971 35.0207 4.41558C34.9934 4.4925 35.1395 4.47775 35.1511 4.52647C34.6553 5.19485 34.4217 5.19701 34.4926 4.38911C34.5236 4.01052 34.8042 3.67351 34.3771 3.6583C34.1842 3.65313 34.0295 4.21155 33.8309 4.30068C33.3842 4.50685 33.1509 3.85438 32.7755 3.82677C32.6429 3.81791 32.6699 4.15578 32.5776 4.16075C32.3353 4.17639 32.2026 3.89384 31.9464 3.95309C31.9236 3.95901 31.8905 4.29071 31.8216 4.27756C31.2996 4.18624 30.884 3.88829 30.3244 3.80281C30.0539 3.76044 29.554 3.89101 29.2794 3.83755C28.9695 3.77655 28.6208 3.55109 28.2817 3.43586C28.0955 3.37198 27.9175 3.34151 27.7675 3.38811C27.4929 3.47314 27.5705 3.80096 27.4675 4.03113C27.2779 4.47633 26.8333 3.7336 26.7604 3.62059C26.7581 3.61641 26.9864 3.51665 26.8443 3.36008C26.7357 3.01621 26.7624 3.61887 26.7604 3.62059C26.7174 3.5447 26.2343 3.52737 26.1507 3.60529C26.1051 3.6467 26.1785 3.95171 26.1545 3.96741C25.5814 4.33498 25.0241 4.53571 24.3892 4.56375C24.3769 4.56067 24.2974 4.21999 24.2693 4.21711C23.8717 4.16992 23.7712 4.65307 23.5836 4.98815C23.3944 5.32455 23.163 5.3252 22.7699 4.83822C22.5906 4.9929 22.1867 4.88261 21.9433 4.82055C21.6993 4.75848 21.9748 5.3821 21.9667 5.40087C21.7092 6.01058 21.2817 5.80111 20.7937 6.02643C20.5622 6.13117 20.2004 6.48935 20.0269 6.70793C19.8902 6.88023 19.6916 6.82989 19.598 7.03109C19.5855 7.05808 19.7924 7.28085 19.7932 7.29499C19.8494 7.71108 19.4714 7.06704 19.3536 6.99149C18.9251 6.7186 18.6723 6.5924 18.5951 6.95602C18.5744 7.04178 19.1346 7.96817 19.0957 8.08801C19.04 8.24587 18.8223 7.92676 18.77 8.10212C18.7654 8.1169 18.9286 8.28667 18.8524 8.34477C18.5013 8.6165 18.0637 8.87702 17.7777 9.24764C17.7383 9.29731 18.0747 9.47902 18.0239 9.55342C17.7857 9.90224 17.4994 10.2524 17.1206 10.4911C17.0263 10.5495 16.8472 10.3484 16.7705 10.3226C16.3016 10.1735 16.7591 10.7212 16.7545 10.7526C16.6251 11.5586 15.8019 11.7743 15.7407 12.6188C15.7361 12.6695 16.2852 13.2435 15.652 13.1366C15.6104 13.1277 14.9571 13.0289 15.3212 13.3084C15.3443 13.3252 15.6846 13.3607 15.5987 13.4928C15.5119 13.6279 15.6401 13.9272 15.2291 14.0177C15.1002 14.0439 14.4354 14.0175 14.8681 14.3617C14.8959 14.3917 15.9307 14.9847 15.1335 14.8888C15.0024 14.8731 14.1866 14.65 14.5489 14.9956C14.6199 15.0606 14.8222 15.0214 14.9093 15.1667C15.0446 15.3862 14.7726 15.5852 15.1032 15.8743C15.1613 15.927 15.6992 16.1778 15.2504 16.2397C15.18 16.25 14.9073 16.1683 14.8656 16.234C14.666 16.5498 14.8142 16.9258 14.5957 17.2565C14.5189 17.3757 14.0685 17.2816 13.9386 17.4095C13.8086 17.5373 13.6806 17.8099 13.8866 17.9569C14.0926 18.1009 14.8201 17.9622 14.8763 18.1624C14.8836 18.188 14.8904 18.2136 14.8967 18.2391C15.1036 19.0642 14.7757 19.9082 14.8722 20.7607C14.8872 20.8889 15.1218 20.7364 15.163 20.9178C15.3102 21.6036 15.8815 22.6269 15.6088 23.3897C15.3912 24.0173 14.836 23.5629 14.8228 23.995C14.8217 24.2109 15.6757 24.0477 15.7171 24.0734C16.1418 24.3437 15.9455 24.775 16.2385 25.0611C16.2987 25.1187 16.5572 24.8816 16.6045 24.9311C16.7679 25.0965 16.7613 25.3789 16.9032 25.5475C16.9674 25.6223 17.1764 25.4643 17.2078 25.5488C17.2865 25.7493 17.302 25.9641 17.2284 26.279C17.2222 26.3084 16.8809 26.3919 16.9682 26.532C17.109 26.7558 17.128 27.1733 17.5187 27.2505C17.6359 27.273 18.0898 26.8864 17.9034 27.3005C17.8647 27.3866 17.2933 27.8244 17.9084 27.5826C18.0146 27.5482 18.87 27.2431 18.6095 27.7442C18.5408 27.8767 18.2154 28.3816 18.3606 28.3944C18.3814 28.3941 18.5635 28.1238 18.6494 28.1639C18.9479 28.3078 19.1684 28.5539 19.4789 28.6844C19.5616 28.718 19.6792 28.3836 19.7939 28.44C20.1079 28.5936 20.3894 28.9153 20.6053 29.1929C20.6844 29.2957 20.4573 29.4724 20.4473 29.5019C20.2937 29.9879 20.7391 29.4954 20.7987 29.4892C21.1737 29.4631 21.2024 29.8439 21.4857 29.9153C21.5628 29.9351 21.6731 29.6369 21.7002 29.6204C21.9693 29.4605 21.5895 29.891 21.6456 29.9943C21.804 30.2859 22.0989 30.4122 22.3734 30.5C22.4741 30.5316 22.5262 30.1539 22.613 30.1849C23.1284 30.3611 23.6275 30.5984 24.0709 30.9557C24.1546 31.0236 24.0076 31.2696 24.008 31.3369C24.0149 31.8096 24.4078 31.2914 24.4681 31.2482C24.7555 31.0555 24.7719 31.3157 24.9757 31.32C25.9585 31.3376 27.0875 31.6465 28.0107 31.7598C28.1021 31.7715 28.1924 31.7832 28.2817 31.7945C29.3501 31.927 30.2754 32.0493 31.3139 31.7574C31.3849 31.7373 31.2313 31.3906 31.29 31.3688C32.043 31.1053 32.8375 31.0003 33.5336 30.5875C33.5903 30.5544 33.3664 30.2668 33.4504 30.2034C33.6217 30.0712 33.8657 29.9791 34.1068 29.9846C34.2245 29.9864 34.2334 30.3203 34.3509 30.3156C34.626 30.3042 34.8797 30.1959 35.0759 30.0169C35.1582 29.9404 34.8354 29.711 34.9541 29.637C35.7598 29.1202 36.4463 28.5377 37.4842 28.2171C37.5547 28.1956 38.1012 28.6888 38.1142 28.4817C37.9815 28.3271 37.8151 28.1551 37.6677 27.9951C38.6009 26.9343 39.6553 25.9686 40.3771 24.7101C40.4068 24.6579 40.016 24.5653 40.0706 24.465C40.3867 23.878 40.5386 23.2676 41.1299 22.7507C41.1879 22.6987 41.8226 22.9571 41.7921 22.723C41.7868 22.6818 41.796 22.3514 41.6755 22.2328C41.6571 22.2162 41.3358 22.1782 41.3545 22.0819C41.4687 21.5215 41.6683 20.9673 41.9511 20.4261C41.9973 20.3384 42.3173 20.4901 42.3533 20.4268C42.6064 19.9701 42.402 19.4211 42.7323 18.9697C42.9537 18.6638 43.5349 18.803 44.118 18.638C44.2005 18.6142 44.2169 18.3996 44.5529 18.3905C45.3986 18.3661 46.3231 18.4918 47.2247 18.454C47.4196 18.4457 47.2113 18.0978 47.6799 18.3048C47.7116 18.3192 47.8648 18.5757 48.0222 18.6431C48.1312 18.6901 48.4748 18.6157 48.6136 18.7115C48.7521 18.8084 48.4629 18.9016 48.6222 19.0608C48.7828 19.2221 49.176 19.1687 49.2042 19.4901ZM20.8281 4.582C20.5044 4.38743 21.068 5.44312 21.0977 5.0996C21.0985 5.08178 20.8442 4.59146 20.8281 4.582ZM41.0965 9.08963C41.3777 8.57632 40.6524 8.90463 40.427 9.28391C40.1958 9.65605 41.0085 9.24204 41.0965 9.08963ZM42.7556 11.1118C42.9928 10.6556 41.4658 11.3966 41.9042 11.505C41.929 11.5115 42.7415 11.1378 42.7556 11.1118ZM44.2385 19.5004C44.2548 19.4991 44.2815 19.345 44.2659 19.3401C43.8926 19.2338 43.8401 19.5342 44.2385 19.5004ZM44.1136 13.4044C44.306 13.246 43.9691 13.0645 43.7336 13.2644C43.5438 13.4219 43.8741 13.5977 44.1136 13.4044ZM13.0907 10.98C13.0732 10.9751 13.0085 11.074 13.1008 11.1147C13.3978 11.2455 13.3835 11.0628 13.0907 10.98ZM44.8464 17.8686C44.8928 17.2152 46.254 16.6649 46.1412 17.4665C46.119 17.6074 45.6805 17.1854 45.5629 17.3696C45.3479 17.6935 46.2332 17.8918 45.7626 18.233C45.677 18.2889 44.8416 17.902 44.8444 17.8675C44.8451 17.8678 44.8457 17.8682 44.8464 17.8686ZM20.0356 3.37801C20.0243 3.36598 19.8741 3.43326 19.8786 3.449C19.991 3.82163 20.2867 3.68996 20.0356 3.37801ZM10.7236 17.5311C10.6886 17.5385 10.646 17.9307 10.6779 17.9444C11.2934 18.1521 11.3798 17.3888 10.7236 17.5311ZM30.7987 0.547119C31.0364 0.194479 31.2799 0.187835 31.3446 0.68628C31.1657 0.629401 30.9799 0.596408 30.7987 0.547119Z" fill="black"/>
</svg>
