<svg width="85" height="129" viewBox="0 0 85 129" fill="none" xmlns="http://www.w3.org/2000/svg">
<path d="M34.3572 41.5183C-27.454 46.9284 13.9833 101.836 34.3572 126.739C37.8381 118.362 32.3098 98.8455 46.8098 97.7392C56.3927 97.0081 68.3477 117.753 68.1429 126.739C77.2548 94.829 111.81 34.7391 34.3572 41.5183Z" fill="white"/>
<path d="M29.3947 126.913C28.2229 125.63 26.8338 123.71 25.869 122.23C25.5607 121.759 25.9028 121.852 25.697 121.52C25.2889 120.864 24.7993 120.402 24.4219 119.751C24.2988 119.537 24.7512 119.574 24.6161 119.353C23.8661 118.134 23.0023 117.138 22.2016 115.947C18.2663 110.084 14.4319 104.335 10.8943 98.108C9.724 96.0503 8.58237 93.3954 7.35189 91.2988C7.20767 91.0542 7.02305 91.3391 6.97662 91.3022C6.25219 90.7049 6.91288 90.6887 6.73161 90.1542C6.01937 88.0463 5.01211 85.7983 4.10126 83.8819C3.70839 83.0513 3.51171 84.1238 3.47092 83.1429C3.46788 83.0753 3.84446 83.1745 3.7828 82.9296C3.64078 82.3748 3.21019 81.3977 3.08717 80.9824C2.84764 80.1749 2.79404 80.0304 2.54133 79.27C2.19964 78.2258 1.97382 76.9527 1.59983 75.8164C1.51991 75.5764 1.29449 75.9824 1.1395 75.6048C0.981466 75.224 0.762911 74.1919 0.761092 73.8163C0.756719 73.44 1.03707 73.5409 1.07986 73.4653C1.44187 72.8482 0.557573 71.7661 0.518099 71.6069C-0.236389 68.7583 -0.0108923 66.1521 0.22709 63.3863C0.406461 61.2739 0.787539 58.9734 1.56478 57.0503C2.49278 54.7587 3.76143 53.0252 5.24953 51.2272C5.41214 51.0344 4.93151 51.0126 5.13386 50.774C7.26678 48.2693 10.0333 46.3573 12.9165 45.1516C13.2067 45.0309 13.0007 45.5097 13.2981 45.4082C15.2057 44.7145 18.0255 44.3484 18.742 42.6117C19.9731 42.2641 21.4413 41.9131 22.6653 41.9137C23.4489 41.9169 22.8107 42.4388 23.689 42.0756C23.8739 41.9983 23.5554 41.7464 23.8333 41.6553C25.0033 41.2726 26.3874 41.109 27.652 40.7357C27.9095 40.6591 27.7927 40.3914 27.8595 40.3289C28.4656 39.8113 29.5045 40.3525 29.7324 40.3722C31.3998 40.5157 32.6115 40.2421 34.2334 40.1042C34.247 40.1031 34.2607 40.102 34.2744 40.1008C34.6524 40.0703 34.173 39.7299 34.5357 39.6872C36.4166 39.4714 38.3067 39.3787 40.0339 39.4663C40.4176 39.4868 40.0816 39.8269 40.2653 39.8534C41.0711 39.968 41.2114 39.3497 42.0574 39.4541C42.2328 39.4757 42.143 39.7561 42.1757 39.7855C42.6856 40.2483 43.092 39.5614 43.2186 39.5437C44.8078 39.3068 45.7973 40.0116 47.2422 39.9307C47.4151 39.9208 47.0309 39.5634 47.517 39.5573C51.0441 39.522 54.5768 39.8738 57.8411 40.6513C58.3334 40.7702 57.937 40.9763 57.9638 41.0132C58.3827 41.5915 58.8434 40.9798 59.0273 40.9853C60.4511 41.0418 61.5409 41.8624 62.5934 41.2827C68.0682 42.876 73.8903 44.8953 77.5672 49.6355C77.613 49.6938 77.2824 49.8359 77.3736 49.9503C78.4347 51.3467 78.5572 50.7305 79.8162 51.2722C80.1398 51.4191 80.052 52.6143 80.042 52.7065C80.0326 53.0604 79.4537 53.0973 79.4742 53.1986C79.6351 54.0108 80.9574 52.9988 81.5249 53.9586C81.5396 53.9896 81.2048 54.0166 81.2245 54.1111C81.2838 54.4037 81.5252 54.5916 81.5626 54.8859C81.6429 55.5664 81.0187 56.0933 81.8238 56.7608C81.9244 56.8486 82.7209 56.2989 83.0444 57.2242C83.1827 57.5858 83.7525 59.2196 83.8113 59.7059C83.8805 60.1793 83.5023 59.945 83.4991 59.9816C83.4366 61.3022 83.1508 60.8807 82.7178 61.6139C82.274 62.3351 83.6079 61.8805 83.8137 62.1049C84.0221 62.3324 83.8587 63.3094 83.7748 63.54C83.6951 63.7772 83.4644 63.5321 83.4297 63.7362C83.1906 65.0832 84.1979 64.2142 84.4748 64.6241C85.1215 65.6186 84.1463 66.5353 84.0867 67.4566C84.07 67.711 84.298 67.494 84.3292 67.72C84.4451 68.6148 84.1281 69.1876 84.4107 70.1951C84.4577 70.3575 85.0614 71.2089 84.5752 71.7308C84.5053 71.8037 84.2576 71.5756 84.1801 71.9564C84.0651 72.5288 83.9341 73.5507 83.963 74.1593C83.9846 74.6137 84.4593 74.1388 84.2717 74.6938C84.1872 74.9401 83.9864 74.4484 83.848 74.9116C83.7127 75.3675 83.5747 76.5909 83.5196 77.0344C83.4661 77.4845 83.8207 77.2841 83.8374 77.3233C83.9318 77.5603 83.9549 78.4561 83.941 78.5341C83.3589 82.4576 82.0013 85.8567 81.1788 89.5773C81.1132 89.8694 81.4951 89.7674 81.4885 89.8129C81.3534 90.8411 80.694 89.8195 80.2095 90.4257C80.9045 90.5132 80.671 90.8863 80.5438 91.6035C80.4835 91.947 80.7935 91.84 80.8112 91.8781C81.0597 92.4861 80.4523 92.6831 80.3231 92.7406C79.8469 92.9546 80.1892 93.4435 79.8686 93.5898C79.55 93.7355 79.331 93.1137 79.1364 93.7743C79.3175 94.0317 80.0871 93.7286 80.0348 94.262C79.8425 96.2841 78.2104 99.6423 77.6459 101.129C77.0869 102.614 76.9623 103.11 76.5739 103.958C75.8715 105.482 76.5268 105.062 76.392 106.111C76.2558 107.161 75.3069 106.292 75.0176 106.347C74.7295 106.4 74.9221 106.64 74.7293 106.766C74.5366 106.892 74.5054 106.461 74.3127 106.849C74.1199 107.237 74.1547 108.489 74.3547 108.72C74.7785 109.21 75.5116 108.915 74.9379 109.905C74.9046 109.962 74.6819 109.66 74.5692 109.882C73.6732 111.681 72.9783 113.576 72.1124 115.392C71.9941 115.638 71.7484 115.294 71.6759 115.436C70.9222 116.911 71.6717 116.54 71.9858 117.608C71.2395 117.128 70.5695 117.44 70.1576 118.625C69.9115 119.334 70.3104 119.333 70.4078 119.873C70.4367 120.037 70.0277 120.441 70.1625 120.597C70.6104 121.087 71.3822 120.815 70.7309 121.964C70.7015 122.014 70.4565 121.743 70.3772 121.923C69.8635 123.093 70.4088 123.372 70.0665 124.717C69.907 125.349 69.5188 126.215 69.1668 127.032L67.0784 126.715C67.166 126.196 67.1997 125.633 67.1717 125.175C68.1473 125.097 67.7643 123.956 67.013 123.667C66.8889 122.903 66.6459 122.114 66.5244 121.381C66.4808 121.124 66.7982 121.206 66.818 121.166C67.1242 120.532 66.3994 120.417 66.3223 120.266C65.5101 118.634 65.3901 117.065 64.2136 115.688C64.1708 115.639 63.5228 115.841 63.7635 115.21C63.7805 115.168 64.3093 115.552 63.9704 114.805C63.6367 114.065 63.2252 112.51 62.3779 111.683C62.1733 111.479 61.3532 111.167 61.4232 110.471C61.4333 110.377 61.6405 110.345 61.6748 110.196C61.7794 109.717 61.1032 109.922 61.3661 109.264C61.629 108.607 61.504 107.623 60.4904 106.903C60.4586 106.879 59.8601 106.971 59.6504 106.676C59.3159 106.203 58.8948 105.481 58.5023 105.012C58.3141 104.787 58.1757 105.146 58.1386 105.111C56.7448 103.749 56.0322 102.537 54.5219 101.073C54.244 100.802 53.1225 100.497 52.7036 99.7944C52.2239 99.0361 53.8831 98.0423 51.8451 97.3952C50.9351 97.1413 49.4215 98.7177 48.3095 97.4694C47.7955 97.4494 47.2874 97.4529 46.7912 97.4951C44.689 97.669 42.4429 97.9754 40.8264 99.6128C40.733 99.7049 40.8188 100.387 40.6221 100.561C40.3236 100.822 39.9761 100.797 39.765 101.008C38.8825 101.897 38.5131 103.019 38.0228 104.083C37.8384 104.498 37.6348 104.241 37.4296 104.751C37.2293 105.273 37.476 105.713 37.1133 106.377C36.8433 106.871 35.9753 107.262 35.7481 108.001C36.4786 108.17 36.3646 108.663 36.4329 109.589C36.447 109.765 36.7302 109.619 36.7503 109.703C36.8381 110.047 36.5859 110.324 36.6944 110.655C36.7204 110.736 36.9738 110.768 37.0097 110.834C37.323 111.394 36.6728 112.206 36.5613 112.35C36.1344 112.895 36.4461 113.192 36.2658 113.624C36.0864 114.057 35.9449 113.381 35.8193 113.894C35.5596 114.96 35.5292 116.344 35.4555 117.435C35.4276 117.868 35.7848 117.592 35.7887 117.655C35.8237 118.566 35.4004 119.448 36.0375 119.996C34.2339 120.485 36.1734 120.546 35.6824 121.817C35.6422 121.916 34.8041 121.942 34.7258 121.551C34.6476 121.156 34.9615 120.605 34.8153 120.052C34.7825 119.916 34.0592 119.146 34.0183 119.043C33.7027 118.247 34.9452 118.217 35.0163 118.178C35.7794 117.75 34.9919 116.812 34.9472 116.571C34.7414 115.479 34.9667 114.566 34.8399 113.642C34.7591 113.037 33.9535 112.918 34.0161 112.443C34.2351 110.854 35.4129 110.453 34.6611 108.813C34.5082 108.456 33.5654 108.637 34.47 107.569C34.5268 107.496 35.3248 106.766 35.0614 106.168C35.0277 106.092 34.7761 106.031 34.7766 105.941C34.7868 105.339 35.0959 105.005 35.2072 104.357C35.3229 103.7 35.4852 102.88 35.9132 102.209C36.1715 101.794 36.8955 101.501 37.1112 101.379C37.7196 101.029 37.6756 100.156 38.2552 100.105C38.8179 100.084 38.834 101.015 39.6494 100.502C39.1804 100.019 38.7378 99.4824 38.2987 98.9637C40.0335 97.1851 42.4103 96.3028 44.611 95.8382C44.8914 95.7779 44.5305 95.4797 44.8374 95.4071C45.4586 95.2655 46.0155 95.2436 46.6191 95.24C47.3608 95.2307 48.0832 95.3068 48.8542 95.3777C49.9872 95.4746 51.3029 95.5238 52.3657 95.9289C52.6745 96.9123 54.1271 97.4606 54.984 98.1971C55.2795 98.447 55.1339 98.5961 55.3084 98.8161C55.9505 99.6457 56.0023 98.8205 56.2904 98.9176C57.5243 99.3749 56.5626 100.578 57.5435 101.496C57.591 101.537 58.8049 101.617 58.9225 101.673C59.6948 102.021 58.8002 101.96 59.0805 102.359C59.5917 103.099 59.8267 103.678 60.6516 104.329C60.8908 104.514 61.7438 104.781 61.7685 105.484C61.772 105.576 61.5285 105.703 61.5518 105.761C61.9867 106.811 62.689 106.341 63.2923 106.709C63.896 107.079 63.9366 108.231 63.8964 108.488C63.8014 109.161 63.5261 108.252 63.473 108.252C62.8642 108.253 63.3227 108.798 63.5671 109.278C62.8988 109.784 63.3239 110.389 63.8219 109.775C63.8758 109.707 63.5917 109.39 63.5671 109.278C64.5114 109.246 65.047 109.93 64.8279 111.103C64.7209 111.652 64.1688 111.501 64.912 112.558C65.2443 113.04 65.6505 112.575 66.0294 112.969C66.8945 113.869 67.0741 115.522 67.6189 116.621C67.8197 117.027 67.9432 116.5 68.0902 116.774C68.4772 117.499 68.5163 118.267 68.9007 119.009C68.9363 119.078 69.1874 118.793 69.2765 119.041C69.9421 120.917 70.2149 122.642 70.4711 124.843C70.5256 125.347 70.6195 126.051 70.6401 126.796L65.7411 126.053C65.8888 125.376 66.0553 124.668 66.2281 124.168C66.7996 122.496 67.8843 120.728 68.243 119.304C68.4702 118.4 68.0938 118.486 68.0109 118.033C67.8484 117.16 69.0497 116.082 69.2188 115.966C69.225 115.96 69.0333 116.746 69.3354 116.394C69.7494 116.278 69.2173 115.975 69.2188 115.966C69.3305 115.881 69.9326 114.395 69.9819 114.069C70.0076 113.893 69.6806 113.88 69.6996 113.791C70.1566 111.663 70.8133 109.599 71.6718 107.623C71.6905 107.589 72.0005 107.76 72.0404 107.679C72.607 106.55 72.4778 105.635 72.5777 104.586C72.6798 103.53 73.0287 102.785 73.7959 102.402C73.9808 101.637 74.5899 100.674 74.9481 100.116C75.3061 99.5581 74.6891 99.2566 74.6944 99.199C74.8436 97.393 75.5277 96.5545 76.1325 94.8383C76.4217 94.0232 76.8282 92.3524 77.0161 91.4405C77.1644 90.7206 77.4407 90.3349 77.5264 89.6534C77.5381 89.5613 77.2214 89.5688 77.2178 89.5387C77.0715 88.7143 77.6872 89.2619 77.8565 89.1465C78.47 88.7288 78.8119 88.4536 78.8382 87.462C78.8442 87.2355 77.9755 86.3343 78.0122 85.9288C78.0624 85.3993 78.3861 85.6833 78.4264 85.1268C78.43 85.0794 78.199 85.0332 78.2877 84.7072C78.6924 83.2091 79.1939 81.5359 79.4601 79.9596C79.4974 79.7442 79.0793 79.9516 79.1264 79.6406C79.3551 78.1359 79.6043 76.5849 79.9452 75.1496C80.0294 74.8015 80.2643 75.052 80.3503 74.9839C80.872 74.5596 80.2551 73.8245 80.251 73.7178C80.1467 71.097 80.8199 69.0985 80.3484 66.5424C80.3234 66.392 79.4974 65.3969 80.0562 64.8573C80.0942 64.8231 80.6693 64.2596 80.1687 63.9173C80.1373 63.8973 79.857 64.2316 79.8094 63.7327C79.7589 63.2204 79.3864 62.4709 79.573 61.723C79.6325 61.4881 80.1241 60.814 79.4366 60.3247C79.3889 60.277 77.9902 59.7322 78.6097 59.1396C78.7107 59.0429 79.5269 58.7837 78.8289 58.2332C78.6938 58.1313 78.626 58.4476 78.3654 58.1435C77.9677 57.6859 77.8262 56.8895 77.1472 56.4669C77.0258 56.3877 76.284 56.2576 76.4261 55.6852C76.4475 55.5941 76.7515 55.5423 76.6558 55.3414C76.1927 54.3765 75.3591 53.6411 74.7561 52.7376C74.5363 52.4148 75.0013 52.2358 74.7899 51.8564C74.5704 51.4672 74.0365 50.833 73.5636 50.7188C73.097 50.609 73.005 51.4628 72.477 51.1212C70.1939 49.6741 67.9292 48.0637 65.162 47.0333C64.7668 46.8884 65.0161 47.2451 64.4229 47.0544C62.1739 46.2927 58.0221 45.7181 56.1034 44.9431C54.4769 44.2922 56.6474 44.2236 55.3675 43.8848C54.7405 43.7233 53.9488 44.493 53.791 44.5049C52.2241 44.6293 51.3472 44.199 49.9618 44.2467C49.6803 44.2578 49.94 44.6118 49.7009 44.6178C48.8957 44.6419 47.9741 44.4636 47.2234 44.4803C46.8904 44.4887 46.9486 44.7508 46.6413 44.7274C45.9039 44.6753 45.2393 44.5662 44.487 44.3297C44.418 44.3082 44.877 43.9779 44.3054 43.9725C43.3906 43.965 42.158 43.7553 41.1068 44.0485C40.806 44.1362 40.8236 44.7319 40.1475 44.3512C40.0048 44.2722 40.1479 43.5458 39.4044 44.2053C39.2792 44.3139 38.021 45.2242 37.3238 44.7346C37.141 44.6051 36.652 44.0518 36.2673 44.1738C36.2155 44.1926 36.452 44.496 36.1309 44.5521C35.6483 44.6343 35.1491 44.6949 34.6404 44.7548C33.9622 44.8349 33.2904 44.9144 32.6459 45.0432C32.347 45.104 32.8319 45.3838 32.3877 45.4641C31.138 45.6898 29.7921 45.7876 28.4986 45.8962C28.0469 45.932 28.309 45.6097 28.2718 45.5855C27.6666 45.1938 27.4774 45.8963 27.3171 45.9644C26.3114 46.3829 25.5056 46.2357 24.6024 46.5266C24.3353 46.6109 24.5993 46.8711 24.5516 46.9108C24.0607 47.3072 24.3429 46.6621 23.9781 46.6861C22.9571 46.7531 21.9202 47.0652 21.0408 47.381C20.7186 47.4976 21.1928 47.7294 20.9054 47.8298C19.0421 48.4891 17.3797 49.1085 15.64 49.7614C15.3267 49.8781 15.3851 49.5345 15.2941 49.5093C14.6529 49.3343 14.345 50.2065 14.2484 50.3313C13.7385 50.9367 13.3684 50.88 12.8667 51.2709C10.4077 53.1469 7.92206 55.7337 6.7512 58.2421C5.2105 61.4642 4.66691 64.5141 5.03437 68.2818C5.06002 68.5208 5.40842 68.2463 5.43569 68.4501C5.77989 71.093 6.22643 73.7392 7.15316 76.3876C7.22785 76.6009 7.46806 76.1862 7.59948 76.5235C7.87117 77.2136 8.16001 78.1268 8.31778 78.8911C8.39243 79.2555 7.93887 78.8939 8.02086 79.2603C8.21266 80.115 8.5341 81.01 8.93783 81.8407C9.11066 82.1936 9.21769 81.5098 9.41646 81.9778C10.7594 85.1014 12.3299 88.1281 13.6184 91.4347C13.7069 91.6614 13.1721 92.2098 13.546 92.589C13.7424 92.5231 13.95 92.404 14.1477 92.3122C16.7435 96.6856 19.2709 101.093 22.18 105.36C22.3033 105.541 22.4071 105.009 22.6473 105.357C24.0343 107.362 25.509 109.225 26.6816 111.454C26.8006 111.677 26.1756 111.983 26.6995 112.512C26.7925 112.606 27.5284 113.435 27.8173 113.57C27.8583 113.588 27.9924 113.236 28.2125 113.512C29.5025 115.137 30.7537 116.873 31.8956 118.637C32.0762 118.918 31.5904 118.85 31.7167 119.052C32.5947 120.456 33.9752 121.767 34.7464 123.208C35.2763 124.191 34.5642 124.245 34.4795 125.057C34.4682 125.172 34.8765 125.693 34.637 125.931C34.0376 126.534 33.1184 126.872 32.5033 127.543C32.3716 127.689 33.089 128.236 32.397 128.131C32.3504 128.123 31.8236 127.725 31.5983 127.7C31.4425 127.683 31.3046 128.055 31.0514 127.967C30.7979 127.879 30.8612 127.502 30.4899 127.308C30.116 127.112 29.9231 127.493 29.3947 126.913ZM76.5434 97.5952C77.0384 97.1298 75.9271 96.6781 76.0008 97.377C76.0057 97.4113 76.5186 97.6194 76.5434 97.5952ZM42.7253 97.3631C43.6904 97.5506 44.0682 96.6643 43.331 96.4532C42.5671 96.2663 42.4058 97.3224 42.7253 97.3631ZM36.9546 103.919C37.7072 103.203 36.2491 102.318 36.118 103.487C36.1107 103.556 36.9113 103.962 36.9546 103.919ZM32.6643 123.076C32.6573 123.093 32.9429 123.472 32.962 123.471C33.416 123.428 32.8455 122.671 32.6643 123.076ZM35.7095 112.066C35.9614 111.803 35.7816 110.95 35.4616 111.278C35.2023 111.546 35.3937 112.399 35.7095 112.066ZM83.5044 67.5076C83.5221 67.4973 83.5215 67.1531 83.4209 67.1655C83.0987 67.2056 83.2118 67.6748 83.5044 67.5076ZM34.317 125.569C34.9007 123.737 36.4456 122.644 35.8521 124.884C35.7346 125.28 35.6068 123.915 35.3716 124.404C34.9515 125.247 35.6233 126.141 34.808 126.907C34.6757 127.03 34.3014 125.651 34.3162 125.566C34.3165 125.567 34.3167 125.568 34.317 125.569ZM78.0162 97.7131C78.0351 97.7066 78.1973 97.254 78.1858 97.2382C77.9043 96.8744 77.5779 97.7847 78.0162 97.7131ZM76.3746 48.9503C76.3838 48.9045 75.5455 48.1462 75.4909 48.1503C74.6632 48.2606 76.3119 49.7502 76.3746 48.9503ZM67.1953 125.154C66.7624 124.713 66.6201 124.147 67.013 123.669C67.0834 124.151 67.1642 124.668 67.1953 125.154Z" fill="black"/>
<circle cx="37.8098" cy="18.2391" r="17" fill="white"/>
<path d="M58.7323 19.4901C58.7962 20.2343 58.5713 21.1922 58.29 21.8842C58.2028 22.1009 58.0149 21.9488 57.9446 22.094C57.8071 22.375 57.8491 22.6763 57.6846 22.9461C57.6291 23.0346 57.3307 22.8378 57.2802 22.931C57.0054 23.4378 56.944 23.9666 56.699 24.4819C55.4935 26.9997 54.0138 29.2619 52.0752 31.1767C51.4338 31.8131 50.4485 32.3298 49.8268 33.004C49.754 33.0835 49.9889 33.2725 49.9883 33.3043C49.9672 33.7982 49.6799 33.2655 49.4678 33.3307C48.6245 33.5902 47.8717 34.0606 47.2464 34.5529C46.9802 34.7622 47.5629 35.1047 47.1028 34.9864C47.0715 34.9784 46.9937 34.6635 46.8973 34.6789C46.6799 34.7146 46.3595 34.9458 46.2038 34.995C45.9047 35.0886 45.8607 35.1129 45.5946 35.2323C45.2273 35.393 44.734 35.4312 44.3613 35.6468C44.2813 35.6939 44.5083 35.9518 44.3886 36.0546C44.2688 36.1581 43.8883 36.2618 43.7391 36.2302C43.5902 36.1993 43.566 35.9418 43.5261 35.894C43.201 35.4879 42.9802 36.2581 42.9236 36.2903C41.9793 36.8508 40.996 36.6489 40.0345 36.7658C39.303 36.8555 38.5214 37.0248 37.8098 37.0089C37.8039 37.0088 37.798 37.0087 37.7922 37.0085C36.9395 36.9837 36.242 36.7634 35.4282 36.6913C35.3421 36.683 35.3947 37.0704 35.2878 37.0605C34.151 36.9543 33.0297 36.6573 32.0384 36.0686C31.9395 36.0092 32.1788 35.7388 32.0878 35.661C31.5132 35.1926 30.8533 34.2116 29.8805 35.3436C29.4789 35.0965 28.9967 34.7815 28.7811 34.3253C28.6437 34.0319 29.0443 33.846 28.6917 33.8195C28.6122 33.8126 28.5333 34.133 28.4248 34.1009C27.9655 33.9635 27.5962 33.6025 27.126 33.4711C27.0296 33.4448 26.8868 33.6905 26.8352 33.7165C26.4054 33.9191 26.5039 33.1396 26.4735 33.0528C26.2109 32.3833 25.7853 32.2137 25.3671 31.8205C25.2709 31.7289 25.1293 32.1158 25.0263 32.0362C24.4944 31.6183 24.0252 31.0857 23.7229 30.4799C23.6567 30.3448 23.9891 30.2337 23.9707 30.1589C23.8909 29.8348 23.3774 30.1742 23.2944 29.8609C23.2769 29.7957 23.5155 29.6498 23.5323 29.622C23.7998 29.1908 23.1756 29.4904 23.1349 29.4618C22.622 29.1248 22.9907 28.418 22.617 28.027C22.5711 27.979 22.356 28.2938 22.2441 28.1456C21.4961 27.1579 20.9821 25.9145 20.8197 24.6883C20.7941 24.4978 21.0882 24.5306 21.1143 24.5078C21.5246 24.1555 20.846 24.2767 20.8008 24.2258C20.465 23.8275 20.8859 23.2452 20.0185 23.1469C19.7973 21.4985 19.3363 19.8842 19.6037 18.2391C19.6698 17.8356 19.78 17.444 19.9489 17.0581C19.959 17.0335 20.2904 17.1002 20.309 17.0516C20.5413 16.4713 20.0142 16.5525 19.426 16.0667C19.279 15.9399 20.0832 15.7272 20.1429 15.712C20.3625 15.6441 20.8416 15.8154 20.8861 15.7889C21.2368 15.579 19.5991 15.3686 19.6646 14.9866C19.6694 14.9754 19.9595 15.0775 19.9948 15.0516C20.1051 14.9721 20.0043 14.8547 20.1252 14.7807C20.4053 14.6109 21.2019 14.7087 20.8182 14.2939C20.7692 14.2399 19.8408 14.0925 19.9654 13.7702C20.0134 13.6431 20.1579 13.0561 20.2672 12.9144C20.374 12.7719 20.6284 12.9707 20.6445 12.9628C21.1567 12.6612 21.2645 12.8717 21.8903 12.8584C22.5128 12.8543 21.1696 12.4502 21.0518 12.3131C20.9341 12.1753 21.3549 11.9856 21.4896 11.9562C21.6242 11.9252 21.7682 12.0838 21.8531 12.0439C22.4102 11.7853 21.2802 11.601 21.1319 11.3742C20.7883 10.8263 21.8604 10.9767 22.0883 10.7357C22.1511 10.6685 21.9064 10.6308 21.921 10.5498C21.9842 10.2277 22.3561 10.212 22.2642 9.75798C22.2477 9.68622 21.8488 9.11747 22.343 9.18305C22.4135 9.19374 22.599 9.38918 22.7165 9.30429C22.8921 9.17752 23.1271 8.90697 23.1715 8.68238C23.2045 8.51567 22.7478 8.43206 22.9698 8.33755C23.0686 8.29666 23.1849 8.57143 23.352 8.48499C23.5176 8.39901 23.7488 8.05342 23.8374 7.92134C23.9247 7.78907 23.6138 7.66459 23.6038 7.64139C23.5498 7.50345 23.6179 7.15883 23.6362 7.13717C24.4861 5.99572 25.774 5.47332 26.6881 4.4978C26.7614 4.42091 26.4926 4.19906 26.5016 4.18458C26.6998 3.84367 27.0399 4.73275 27.4194 4.82147C26.9663 4.29625 27.1586 4.3039 27.3159 4.09209C27.3918 3.98964 27.1794 3.81307 27.1719 3.78438C27.0806 3.34537 27.4957 3.69682 27.5831 3.76685C27.9087 4.02162 27.7484 3.56359 27.9659 3.73596C28.1795 3.90876 28.2483 4.33231 28.4387 4.19807C28.3568 3.95443 27.8463 3.51568 27.9429 3.32502C28.3159 2.58592 29.7455 2.37729 30.2702 2.20242C30.8005 2.01383 30.9524 1.90507 31.2875 1.8659C31.8932 1.80421 31.5207 1.43324 31.8 1.09853C32.0867 0.766668 32.2905 1.94884 32.4217 2.17267C32.5492 2.39816 32.518 2.13275 32.62 2.24661C32.7207 2.36096 32.65 2.5655 32.8003 2.57226C32.9479 2.57871 33.1885 2.03609 33.1705 1.7659C33.1263 1.19368 32.7866 0.671488 33.2373 0.766392C33.2629 0.772464 33.2687 1.09252 33.3624 1.10066C34.0964 1.15758 34.8061 1.03524 35.5118 1.15533C35.6083 1.17247 35.5707 1.52658 35.6266 1.54063C36.2035 1.69368 35.9361 1.1388 36.1932 0.461945C36.2022 1.32853 36.4177 1.83447 36.8261 1.81456C37.0747 1.80416 37.0113 1.43057 37.1667 1.15838C37.2142 1.07623 37.4025 1.32975 37.4311 1.15208C37.5296 0.571648 37.3397 -0.0767674 37.8098 0.177923C37.81 0.17803 37.8102 0.178136 37.8104 0.178243C37.8176 0.182571 37.8142 0.224783 37.8098 0.278476C37.8041 0.349105 37.7969 0.439599 37.8098 0.489842C37.8149 0.509754 37.8232 0.523346 37.836 0.526894C38.2819 0.656104 38.347 0.0506623 38.8513 0.00239646C39.2506 -0.0355175 39.905 0.397911 40.3236 0.520539C40.1835 1.47981 40.5929 1.31582 40.8735 0.686907C41.1463 0.76184 41.4519 0.784159 41.6979 0.934111C41.7821 0.985372 41.6602 1.24585 41.665 1.27805C41.7294 1.78084 41.9929 1.17572 42.0594 1.16585C42.762 1.0865 43.1191 1.71153 43.8645 1.46689C43.8903 1.45789 44.1581 0.83742 44.1476 1.35889C44.145 1.39422 43.8448 1.6087 44.1115 1.73473C44.3826 1.86217 44.7411 2.40172 45.2359 2.28994C45.3538 2.26159 45.8246 1.88011 45.815 2.35454C45.8127 2.41842 45.6995 2.57779 45.6849 2.69094C45.6368 3.05102 46.0118 2.47804 45.8685 3.05707C45.7253 3.6366 45.7534 4.14304 46.2849 3.99498C46.3008 3.991 46.658 3.57518 46.7615 3.64888C46.9254 3.76569 47.1022 4.01297 47.2753 4.12554C47.3586 4.1794 47.4938 3.86624 47.5115 3.87082C48.1828 4.1016 48.4007 4.63953 48.864 5.19915C48.9464 5.29994 49.541 5.21241 49.4852 5.65524C49.4173 6.13555 48.0908 7.13857 48.7794 7.26507C49.0441 7.30795 50.799 6.11665 50.3073 7.19258C51.1033 7.69089 51.1525 8.67292 51.9469 9.20185C51.9822 9.22539 52.5439 9.02282 52.5892 9.11136C52.6547 9.24199 52.462 9.4502 52.4982 9.54622C52.6432 9.95192 53.0339 10.1826 53.1876 10.5706C53.2455 10.7171 52.9691 10.7925 53.0346 10.9646C53.0987 11.1352 53.4888 11.0937 53.4271 11.3978C53.3795 11.6294 52.7518 12.0915 52.7558 12.3418C53.454 12.0752 53.5037 12.2376 53.7936 12.4578C53.8496 12.5003 54.0729 12.3524 54.1121 12.3681C54.2777 12.4322 54.1094 12.6044 54.2827 12.6612C54.3245 12.6753 54.5669 12.5951 54.6149 12.6026C55.0338 12.6666 54.5802 13.1438 54.4979 13.2195C54.1914 13.5203 54.5353 13.517 54.4321 13.7065C54.3275 13.8928 54.0881 13.7227 54.046 13.916C53.958 14.3126 54.1 14.7502 54.1558 15.1107C54.1795 15.2539 54.4963 15.0943 54.5075 15.1133C54.6496 15.4028 54.3369 15.7594 55.0325 15.8353C53.3204 16.2802 55.2291 15.9962 54.9282 16.4882C54.9035 16.5267 54.0816 16.6487 53.9474 16.5352C53.8134 16.4227 54.0488 16.1999 53.8368 16.0503C53.787 16.012 52.984 15.8961 52.9327 15.8756C52.5322 15.6995 53.7476 15.4567 53.8125 15.4302C54.5104 15.1478 53.6292 15.0085 53.5575 14.9511C53.2271 14.6661 53.3282 14.3454 53.0701 14.1147C52.9024 13.9648 52.1158 14.171 52.1014 14.0323C52.0522 13.5811 53.0644 13.0353 51.9869 12.9519C51.7564 12.9359 50.9628 13.3414 51.4939 12.7837C51.5287 12.7511 52.0244 12.2739 51.5941 12.2982C51.5402 12.3018 51.3029 12.4052 51.2737 12.3925C51.0826 12.3064 51.228 12.127 51.0661 12.0144C50.9044 11.9026 50.684 11.788 50.6739 11.5782C50.6682 11.4528 51.0215 11.0919 51.0965 10.9832C51.3147 10.6732 50.7425 10.7964 51.0474 10.5023C51.35 10.2006 52.0021 10.0674 52.0823 9.67934C51.5002 10.0163 50.8969 10.3524 50.3105 10.6897C50.0391 10.1958 49.8988 9.60717 49.5202 9.1674C49.473 9.11383 49.2323 9.393 49.1752 9.34268C48.9371 9.13262 48.957 8.75411 48.6601 8.57472C48.4291 8.43694 47.9623 8.49933 47.7148 8.38748C48.1496 7.73196 47.6765 7.63752 47.5118 7.39749C47.453 7.31243 47.5941 7.16304 47.5835 7.06444C47.5368 6.69564 47.1914 7.29668 47.0664 7.33035C46.538 7.48324 47.4942 6.27512 47.1528 6.05773C47.133 6.04376 46.4403 6.54915 46.3858 6.57321C46.0195 6.71808 46.5265 6.322 46.4529 6.19388C46.318 5.96107 46.2805 5.69692 45.9046 5.73868C45.7924 5.75049 45.3553 6.07841 45.4238 5.65766C45.4323 5.60228 45.5829 5.37644 45.5761 5.35376C45.436 4.96139 44.9976 5.69449 44.7085 5.86249C44.4214 6.03173 44.4666 5.3911 44.4909 5.21344C44.5598 4.75588 44.6776 5.09859 44.704 5.06443C45.0271 4.65574 44.8029 4.63658 44.6792 4.52647C45.0344 3.76939 44.7988 3.70971 44.5488 4.41558C44.5214 4.4925 44.6676 4.47775 44.6792 4.52647C44.1834 5.19485 43.9498 5.19701 44.0207 4.38911C44.0516 4.01052 44.3322 3.67351 43.9051 3.6583C43.7123 3.65313 43.5576 4.21155 43.3589 4.30068C42.9123 4.50685 42.679 3.85438 42.3036 3.82677C42.1709 3.81791 42.198 4.15578 42.1057 4.16075C41.8634 4.17639 41.7307 3.89384 41.4745 3.95309C41.4517 3.95901 41.4186 4.29071 41.3497 4.27756C40.8277 4.18624 40.4121 3.88829 39.8525 3.80281C39.582 3.76044 39.0821 3.89101 38.8075 3.83755C38.4976 3.77655 38.1489 3.55109 37.8098 3.43586C37.6236 3.37198 37.4456 3.34151 37.2955 3.38811C37.021 3.47314 37.0986 3.80096 36.9956 4.03113C36.806 4.47633 36.3613 3.7336 36.2885 3.62059C36.2861 3.61641 36.5145 3.51665 36.3724 3.36008C36.2638 3.01621 36.2905 3.61887 36.2885 3.62059C36.2455 3.5447 35.7624 3.52737 35.6787 3.60529C35.6332 3.6467 35.7066 3.95171 35.6825 3.96741C35.1095 4.33498 34.5522 4.53571 33.9172 4.56375C33.905 4.56067 33.8255 4.21999 33.7974 4.21711C33.3998 4.16992 33.2992 4.65307 33.1117 4.98815C32.9225 5.32455 32.6911 5.3252 32.298 4.83822C32.1186 4.9929 31.7148 4.88261 31.4714 4.82055C31.2273 4.75848 31.5029 5.3821 31.4948 5.40087C31.2373 6.01058 30.8098 5.80111 30.3218 6.02643C30.0903 6.13117 29.7284 6.48935 29.555 6.70793C29.4182 6.88023 29.2197 6.82989 29.1261 7.03109C29.1136 7.05808 29.3204 7.28085 29.3213 7.29499C29.3775 7.71108 28.9995 7.06704 28.8817 6.99149C28.4531 6.7186 28.2004 6.5924 28.1232 6.95602C28.1025 7.04178 28.6627 7.96817 28.6238 8.08801C28.5681 8.24587 28.3504 7.92676 28.2981 8.10212C28.2935 8.1169 28.4567 8.28667 28.3805 8.34477C28.0294 8.6165 27.5918 8.87702 27.3058 9.24764C27.2664 9.29731 27.6028 9.47902 27.552 9.55342C27.3138 9.90224 27.0275 10.2524 26.6487 10.4911C26.5544 10.5495 26.3753 10.3484 26.2986 10.3226C25.8297 10.1735 26.2871 10.7212 26.2826 10.7526C26.1532 11.5586 25.33 11.7743 25.2688 12.6188C25.2641 12.6695 25.8133 13.2435 25.1801 13.1366C25.1385 13.1277 24.4852 13.0289 24.8493 13.3084C24.8724 13.3252 25.2127 13.3607 25.1267 13.4928C25.04 13.6279 25.1681 13.9272 24.7572 14.0177C24.6283 14.0439 23.9635 14.0175 24.3962 14.3617C24.424 14.3917 25.4588 14.9847 24.6616 14.8888C24.5305 14.8731 23.7147 14.65 24.077 14.9956C24.148 15.0606 24.3503 15.0214 24.4373 15.1667C24.5727 15.3862 24.3007 15.5852 24.6313 15.8743C24.6894 15.927 25.2273 16.1778 24.7784 16.2397C24.708 16.25 24.4354 16.1683 24.3937 16.234C24.194 16.5498 24.3423 16.9258 24.1237 17.2565C24.047 17.3757 23.5966 17.2816 23.4667 17.4095C23.3366 17.5373 23.2087 17.8099 23.4147 17.9569C23.6207 18.1009 24.3482 17.9622 24.4044 18.1624C24.4117 18.188 24.4185 18.2136 24.4248 18.2391C24.6317 19.0642 24.3038 19.9082 24.4003 20.7607C24.4152 20.8889 24.6499 20.7364 24.6911 20.9178C24.8383 21.6036 25.4096 22.6269 25.1368 23.3897C24.9193 24.0173 24.3641 23.5629 24.3509 23.995C24.3498 24.2109 25.2038 24.0477 25.2452 24.0734C25.6699 24.3437 25.4736 24.775 25.7666 25.0611C25.8268 25.1187 26.0853 24.8816 26.1326 24.9311C26.296 25.0965 26.2894 25.3789 26.4313 25.5475C26.4955 25.6223 26.7044 25.4643 26.7359 25.5488C26.8146 25.7493 26.8301 25.9641 26.7565 26.279C26.7503 26.3084 26.409 26.3919 26.4963 26.532C26.637 26.7558 26.6561 27.1733 27.0468 27.2505C27.164 27.273 27.6178 26.8864 27.4314 27.3005C27.3927 27.3866 26.8214 27.8244 27.4364 27.5826C27.5427 27.5482 28.3981 27.2431 28.1376 27.7442C28.0689 27.8767 27.7434 28.3816 27.8887 28.3944C27.9095 28.3941 28.0915 28.1238 28.1775 28.1639C28.4759 28.3078 28.6965 28.5539 29.007 28.6844C29.0897 28.718 29.2073 28.3836 29.322 28.44C29.636 28.5936 29.9175 28.9153 30.1334 29.1929C30.2125 29.2957 29.9854 29.4724 29.9754 29.5019C29.8217 29.9879 30.2671 29.4954 30.3268 29.4892C30.7018 29.4631 30.7305 29.8439 31.0138 29.9153C31.0909 29.9351 31.2011 29.6369 31.2283 29.6204C31.4974 29.4605 31.1176 29.891 31.1737 29.9943C31.332 30.2859 31.6269 30.4122 31.9015 30.5C32.0021 30.5316 32.0543 30.1539 32.1411 30.1849C32.6565 30.3611 33.1556 30.5984 33.599 30.9557C33.6827 31.0236 33.5357 31.2696 33.5361 31.3369C33.543 31.8096 33.9358 31.2914 33.9962 31.2482C34.2836 31.0555 34.2999 31.3157 34.5038 31.32C35.4865 31.3376 36.6155 31.6465 37.5388 31.7598C37.6302 31.7715 37.7204 31.7832 37.8098 31.7945C38.8782 31.927 39.8034 32.0493 40.842 31.7574C40.913 31.7373 40.7594 31.3906 40.8181 31.3688C41.571 31.1053 42.3656 31.0003 43.0617 30.5875C43.1183 30.5544 42.8944 30.2668 42.9785 30.2034C43.1497 30.0712 43.3938 29.9791 43.6349 29.9846C43.7526 29.9864 43.7615 30.3203 43.879 30.3156C44.1541 30.3042 44.4077 30.1959 44.604 30.0169C44.6863 29.9404 44.3635 29.711 44.4821 29.637C45.2879 29.1202 45.9744 28.5377 47.0123 28.2171C47.0827 28.1956 47.6292 28.6888 47.6423 28.4817C47.5095 28.3271 47.3432 28.1551 47.1958 27.9951C48.129 26.9343 49.1833 25.9686 49.9052 24.7101C49.9349 24.6579 49.5441 24.5653 49.5987 24.465C49.9148 23.878 50.0667 23.2676 50.658 22.7507C50.7159 22.6987 51.3507 22.9571 51.3201 22.723C51.3149 22.6818 51.3241 22.3514 51.2036 22.2328C51.1851 22.2162 50.8639 22.1782 50.8826 22.0819C50.9968 21.5215 51.1964 20.9673 51.4792 20.4261C51.5254 20.3384 51.8454 20.4901 51.8813 20.4268C52.1345 19.9701 51.93 19.4211 52.2604 18.9697C52.4818 18.6638 53.063 18.803 53.6461 18.638C53.7286 18.6142 53.745 18.3996 54.081 18.3905C54.9267 18.3661 55.8512 18.4918 56.7528 18.454C56.9477 18.4457 56.7393 18.0978 57.208 18.3048C57.2397 18.3192 57.3929 18.5757 57.5502 18.6431C57.6593 18.6901 58.0029 18.6157 58.1417 18.7115C58.2801 18.8084 57.991 18.9016 58.1503 19.0608C58.3108 19.2221 58.7041 19.1687 58.7323 19.4901ZM30.3562 4.582C30.0325 4.38743 30.5961 5.44312 30.6258 5.0996C30.6266 5.08178 30.3723 4.59146 30.3562 4.582ZM50.6245 9.08963C50.9058 8.57632 50.1805 8.90463 49.9551 9.28391C49.7239 9.65605 50.5366 9.24204 50.6245 9.08963ZM52.2836 11.1118C52.5209 10.6556 50.9939 11.3966 51.4323 11.505C51.4571 11.5115 52.2696 11.1378 52.2836 11.1118ZM53.7666 19.5004C53.7828 19.4991 53.8096 19.345 53.794 19.3401C53.4207 19.2338 53.3682 19.5342 53.7666 19.5004ZM53.6417 13.4044C53.834 13.246 53.4972 13.0645 53.2617 13.2644C53.0719 13.4219 53.4022 13.5977 53.6417 13.4044ZM22.6188 10.98C22.6013 10.9751 22.5366 11.074 22.6289 11.1147C22.9259 11.2455 22.9116 11.0628 22.6188 10.98ZM54.3745 17.8686C54.4209 17.2152 55.7821 16.6649 55.6692 17.4665C55.6471 17.6074 55.2085 17.1854 55.0909 17.3696C54.8759 17.6935 55.7613 17.8918 55.2906 18.233C55.2051 18.2889 54.3697 17.902 54.3725 17.8675C54.3731 17.8678 54.3738 17.8682 54.3745 17.8686ZM29.5637 3.37801C29.5524 3.36598 29.4022 3.43326 29.4067 3.449C29.5191 3.82163 29.8148 3.68996 29.5637 3.37801ZM20.2517 17.5311C20.2166 17.5385 20.174 17.9307 20.2059 17.9444C20.8215 18.1521 20.9079 17.3888 20.2517 17.5311ZM40.3268 0.547119C40.5645 0.194479 40.808 0.187835 40.8727 0.68628C40.6938 0.629401 40.508 0.596408 40.3268 0.547119Z" fill="black"/>
</svg>
