<svg width="69" height="128" viewBox="0 0 69 128" fill="none" xmlns="http://www.w3.org/2000/svg">
<path d="M4.60224 126.739C4.60226 92.7392 -7.85475 48.5085 27.6835 41.5184C100.503 27.1953 48.7453 88.7418 51.3974 123.503C51.6942 124.684 51.8441 125.776 51.8221 126.739C51.6215 125.69 51.4819 124.61 51.3974 123.503C48.9235 113.655 36.2397 97.5863 27.6835 98.2391C13.1835 99.3454 8.0832 118.362 4.60224 126.739Z" fill="white"/>
<path d="M0.616486 123.979C0.484116 122.359 0.521107 120.203 0.598112 118.565C0.62185 118.049 0.845693 118.3 0.871105 117.942C0.919981 117.24 0.782854 116.602 0.843375 115.911C0.864405 115.681 1.21536 115.946 1.22967 115.706C1.30521 114.387 1.14383 113.149 1.12901 111.815C1.05587 105.227 0.641235 98.736 0.469928 91.9877C0.412902 89.7693 0.622935 87.0578 0.46244 84.7465C0.443289 84.478 0.150481 84.6417 0.125565 84.5908C-0.254736 83.7916 0.34321 84.0527 0.419023 83.5308C0.719439 81.4346 0.787063 79.121 0.769465 77.1157C0.762766 76.2542 0.133638 77.0871 0.508205 76.234C0.533742 76.1749 0.834103 76.4109 0.880654 76.1766C0.984486 75.645 0.99731 74.6341 1.05518 74.2274C1.16727 73.4437 1.17697 73.2989 1.25264 72.5478C1.36034 71.5207 1.6584 70.3225 1.74956 69.2088C1.76808 68.9718 1.40451 69.2365 1.40628 68.853C1.40665 68.4688 1.59588 67.4848 1.73382 67.1549C1.86905 66.8306 2.09145 67.02 2.15909 66.9708C2.72433 66.5728 2.29306 65.3123 2.3116 65.1605C2.62689 62.3934 3.67183 60.2305 4.65969 57.8105C5.40403 55.9864 6.27975 54.0154 7.34539 52.4221C8.61933 50.5241 9.99579 49.1384 11.5765 47.5906C11.7444 47.4288 11.2855 47.3416 11.4932 47.1419C13.7263 45.0038 16.3677 43.3639 19.2089 42.3596C19.4925 42.2603 19.2775 42.72 19.5671 42.6404C21.3837 42.1006 24.2081 41.9034 24.8658 40.2634C25.6228 40.1033 26.5051 39.9388 27.3593 39.8696C27.8488 39.8298 28.3156 39.8168 28.7318 39.8465C29.4642 39.9004 28.8551 40.3799 29.6773 40.0724C29.862 40.004 29.5573 39.7379 29.8388 39.659C31.0244 39.3273 32.3178 39.2159 33.4147 38.8836C33.6378 38.8153 33.5331 38.5449 33.5902 38.4846C34.021 38.0005 35.2084 38.5228 35.4077 38.5471C37.0968 38.694 38.2204 38.4213 39.6347 38.2978C39.9613 38.2702 39.5409 37.9264 39.8543 37.8866C41.6348 37.6713 43.5087 37.6 45.1109 37.7421C45.4692 37.7747 45.1458 38.1039 45.3164 38.1363C46.1231 38.2771 46.3409 37.6652 47.1262 37.8086C47.2918 37.8386 47.1929 38.1143 47.2226 38.1453C47.6808 38.6323 48.0958 37.9697 48.2167 37.9594C48.9677 37.8865 49.5551 38.05 50.1139 38.234C50.7532 38.4252 51.3674 38.64 52.0989 38.6869C52.2746 38.698 51.9282 38.296 52.4209 38.3497C55.6081 38.6899 59.2759 39.8187 61.8833 42.0471C62.2853 42.3922 61.8235 42.3826 61.8325 42.429C61.9482 43.1439 62.6157 42.8211 62.7662 42.9145C63.9593 43.6911 64.2964 45.0047 65.4835 45.3205C68.5681 50.4967 68.6413 56.4822 67.1907 61.6549C67.1721 61.722 66.8591 61.55 66.8234 61.6836C66.3764 63.2975 66.9436 63.02 67.3699 64.2154C67.4763 64.5162 66.5547 65.1862 66.4834 65.2458C66.2244 65.4674 65.7944 65.0904 65.7364 65.1704C65.2715 65.8314 66.91 66.0663 66.6899 67.0297C66.6803 67.0592 66.4138 66.8644 66.3658 66.9382C66.2156 67.1668 66.2741 67.4434 66.1132 67.6655C65.7409 68.1747 64.9168 68.1765 65.146 69.1584C65.1768 69.2787 66.1229 69.3658 65.8563 70.2008C65.752 70.5311 65.3522 72.0406 65.1693 72.4513C64.9895 72.8595 64.7833 72.4846 64.7621 72.5114C64.0495 73.5427 64.0128 73.0722 63.284 73.4597C62.5562 73.8464 63.9451 74.0933 64.0269 74.3662C64.1085 74.6393 63.5439 75.3662 63.3719 75.5352C63.2004 75.7039 63.0949 75.3953 62.9778 75.556C62.2047 76.6242 63.4801 76.2867 63.5695 76.7483C63.7772 77.8492 62.5647 78.2282 62.1953 79.0418C62.0956 79.2611 62.381 79.148 62.3364 79.3578C62.1569 80.1864 61.6863 80.582 61.6705 81.5811C61.668 81.7441 62.0189 82.6747 61.4249 83.0071C61.3397 83.0538 61.1576 82.7803 60.9891 83.1032C60.7373 83.5851 60.3764 84.4878 60.2743 85.0662C60.2005 85.4889 60.7597 85.1629 60.4645 85.6276C60.333 85.8341 60.2357 85.3373 60.0084 85.732C59.7819 86.1242 59.4313 87.2067 59.3021 87.6209C59.1734 88.0342 59.5556 87.912 59.5652 87.9521C59.6167 88.1924 59.5022 89.03 59.4787 89.0996C58.3503 92.6177 56.7753 95.6813 55.922 99.1862C55.8551 99.4601 56.2359 99.3771 56.2291 99.4199C56.0948 100.382 55.4374 99.3987 54.9567 99.9601C55.6495 100.06 55.417 100.406 55.3054 101.076C55.2521 101.4 55.5587 101.302 55.577 101.338C55.8362 101.919 55.2392 102.103 55.1119 102.159C54.6437 102.365 55.0029 102.827 54.6904 102.968C54.3796 103.111 54.1346 102.522 53.9697 103.155C54.1622 103.396 54.913 103.097 54.8875 103.6C54.7866 105.474 53.5039 108.726 53.1756 110.206C52.8388 111.667 52.8129 112.132 52.5867 112.972C52.1889 114.519 52.7522 114.014 52.8442 114.999C52.9474 115.977 51.8289 115.378 51.5594 115.487C51.2911 115.596 51.5347 115.774 51.3778 115.929C51.221 116.084 51.0873 115.698 50.9935 116.093C50.8972 116.485 51.2545 117.668 51.5137 117.821C52.0572 118.16 52.6732 117.711 52.4076 118.742C52.3923 118.802 52.0912 118.591 52.0484 118.82C51.7204 120.628 51.7303 122.577 51.7212 124.451C51.7199 124.711 51.3504 124.52 51.3463 124.672C51.3244 126.262 51.8375 125.632 52.6106 126.333C52.1428 126.319 51.7975 126.461 51.6124 126.779L52.0357 126.744C52.2546 126.513 52.3701 126.054 52.3134 125.489C52.2294 124.745 51.8646 124.922 51.5267 124.523C51.4266 124.409 51.5702 123.844 51.3769 123.805C50.7398 123.653 50.2417 124.256 50.1796 123.067C50.1771 123.015 50.527 123.081 50.4959 122.907C50.2709 121.756 49.6495 121.822 49.1263 120.703C48.7128 119.82 48.2973 118.085 47.8041 117.057C48.6746 116.622 47.9485 115.759 47.1501 115.724C46.8003 115.065 46.3563 114.413 46.0466 113.759C45.9405 113.536 46.2637 113.519 46.2725 113.477C46.4121 112.815 45.6859 112.901 45.5764 112.783C44.4073 111.491 43.9555 110.054 42.5399 109.066C42.4887 109.031 41.9092 109.384 42.0101 108.734C42.0174 108.69 42.6025 108.914 42.1241 108.302C41.6482 107.691 40.9386 106.34 39.9587 105.78C39.7187 105.638 38.8812 105.566 38.7981 104.892C38.7877 104.801 38.9779 104.716 38.9787 104.568C38.9751 104.089 38.3786 104.462 38.4889 103.776C38.5915 103.085 38.2601 102.193 37.1281 101.795C37.0905 101.78 36.5592 102.045 36.2852 101.824C35.855 101.473 35.2845 100.925 34.797 100.612C34.5663 100.464 34.5312 100.841 34.4881 100.821C32.8477 100.015 31.8483 99.1213 29.9464 98.518C29.5883 98.4036 28.5488 98.7034 27.8698 98.3937C27.7976 98.3601 27.7373 98.316 27.6854 98.2634C27.1657 97.7729 27.5576 96.3572 25.856 96.9728C25.0528 97.2782 24.7238 99.4762 23.1761 98.8942C20.9131 100.02 18.5973 100.919 16.9875 102.965C16.9143 103.057 17.0642 103.723 16.8765 103.903C16.596 104.169 16.2513 104.139 16.0466 104.335C15.1868 105.152 14.6931 106.145 14.0023 107.039C13.7415 107.381 13.5979 107.095 13.2894 107.513C12.9844 107.932 13.1038 108.421 12.5815 108.914C12.188 109.286 11.2608 109.353 10.8276 109.933C11.4638 110.328 11.2059 110.739 10.9755 111.587C10.932 111.75 11.2444 111.717 11.2358 111.801C11.2068 112.14 10.8809 112.299 10.8745 112.632C10.8727 112.713 11.0986 112.832 11.1103 112.904C11.2184 113.517 10.3426 114.008 10.1907 114.096C9.61265 114.426 9.80408 114.804 9.49364 115.123C9.18355 115.445 9.27346 114.794 8.98752 115.205C8.39203 116.065 7.91576 117.292 7.5124 118.256C7.35378 118.639 7.77602 118.505 7.76063 118.563C7.51975 119.388 6.86776 120.062 7.32876 120.753C5.47978 120.669 7.29878 121.3 6.53944 122.31C6.4781 122.391 5.65817 122.212 5.67672 121.819C5.69089 121.439 6.13995 120.989 6.14456 120.45C6.14503 120.324 5.67787 119.378 5.66828 119.275C5.5995 118.443 6.79553 118.797 6.8727 118.787C7.72041 118.644 7.2674 117.538 7.30233 117.305C7.45397 116.249 7.96783 115.505 8.15442 114.635C8.27878 114.067 7.56759 113.67 7.78329 113.27C8.51402 111.932 9.75152 111.996 9.56168 110.278C9.5268 109.91 8.59631 109.741 9.75592 109.116C9.82965 109.074 10.7922 108.692 10.6988 108.079C10.6869 108.001 10.4658 107.866 10.4894 107.787C10.6529 107.259 11.0205 107.068 11.2636 106.529C11.5075 105.989 11.7998 105.32 12.2802 104.831C12.57 104.533 13.2731 104.424 13.4853 104.351C14.0895 104.145 14.0495 103.341 14.5856 103.362C15.1179 103.393 15.1496 104.286 15.9255 103.84C15.4565 103.357 15.0058 102.829 14.5535 102.323C15.964 100.876 17.6496 99.737 19.407 98.647C19.626 98.5116 19.2133 98.3355 19.4482 98.1814C20.4538 97.5347 21.5084 97.3196 22.6275 96.8065C23.4965 96.4077 24.4291 95.7569 25.4302 95.4779C25.9413 95.9004 26.6903 95.8432 27.4963 95.7847C27.9757 95.748 28.4703 95.7392 28.8846 95.7931C29.3086 95.8516 29.2577 96.0565 29.5413 96.1605C30.5799 96.5812 30.1941 95.8362 30.5204 95.7895C31.9401 95.6707 31.5895 97.1806 32.8227 97.6546C32.8888 97.6759 34.0404 97.3169 34.1809 97.3383C35.0421 97.4174 34.166 97.6506 34.5679 97.9389C35.2723 98.4631 35.6699 98.9417 36.6336 99.3193C36.9132 99.4267 37.7853 99.4288 37.9963 100.099C38.022 100.185 37.8226 100.373 37.8587 100.422C38.5169 101.286 39.0875 100.665 39.7423 100.847C40.4057 101.038 40.7082 102.125 40.7238 102.376C40.7817 103.038 40.3185 102.249 40.2685 102.264C39.6903 102.426 40.2435 102.816 40.584 103.21C40.0588 103.863 40.5889 104.319 40.9342 103.614C40.9711 103.535 40.6332 103.311 40.584 103.21C41.4791 102.937 42.1393 103.447 42.1763 104.609C42.1894 105.153 41.628 105.149 42.5602 105.956C42.9783 106.325 43.2692 105.784 43.7132 106.058C44.7318 106.689 45.2391 108.179 45.9983 109.059C46.2757 109.38 46.2822 108.861 46.4808 109.075C47.0085 109.646 47.2105 110.339 47.7449 110.909C47.7938 110.961 47.9699 110.633 48.109 110.831C49.1695 112.338 49.8307 113.816 50.7405 115.516C51.18 116.326 52.0899 117.772 52.4361 118.691C53.0664 120.291 53.2941 122.461 53.6902 123.949C53.9433 124.919 54.2236 124.674 54.5071 125.103C54.78 125.518 54.7357 126.237 54.5588 126.802L49.1335 127.253C49.1986 126.768 49.3548 126.354 49.3991 126.254C49.4 126.249 49.6143 127.038 49.7074 126.582C50.0132 126.277 49.4023 126.263 49.3991 126.254C49.4465 126.122 49.3123 124.491 49.2312 124.166C49.181 123.992 48.8787 124.119 48.8585 124.026C48.393 121.884 48.3332 119.636 48.6346 117.487C48.6436 117.449 48.988 117.532 49.0049 117.442C49.256 116.181 48.916 115.377 48.7933 114.316C48.6724 113.264 48.8902 112.426 49.5777 111.944C49.6252 111.182 50.0855 110.148 50.3676 109.557C50.6489 108.967 50.0027 108.743 50.0006 108.685C49.9349 106.899 50.5393 106.018 51.0363 104.28C51.2679 103.474 51.6041 101.827 51.7831 100.918C51.9229 100.196 52.1938 99.8287 52.2809 99.1629C52.2929 99.0729 51.9768 99.0753 51.9732 99.0458C51.8335 98.2318 52.4442 98.7823 52.614 98.6729C53.2322 98.2769 53.5735 98.0246 53.6327 97.0506C53.6464 96.8267 52.8149 95.9017 52.873 95.5045C52.9509 94.9872 53.2576 95.2873 53.3309 94.7431C53.3376 94.6967 53.1096 94.6353 53.22 94.3193C53.73 92.851 54.3825 91.2839 54.8619 89.754C54.9283 89.5451 54.4852 89.695 54.5754 89.3911C54.9985 87.9672 55.5287 86.4247 56.1507 85.1172C56.3049 84.7957 56.4828 85.0891 56.5809 85.0409C57.1767 84.7426 56.7394 83.8954 56.7625 83.7852C57.2875 81.1757 58.5085 79.4691 59.0359 76.8506C59.0634 76.7088 58.6982 75.4356 59.4466 75.1424C59.4966 75.1226 60.2575 74.8404 59.964 74.2972C59.9455 74.2637 59.5403 74.4576 59.7276 73.9597C59.9159 73.4583 59.9436 72.598 60.4973 71.9972C60.6724 71.8059 61.444 71.4495 61.1379 70.6485C61.1176 70.5918 60.2828 69.2757 61.1463 69.1289C61.2886 69.1028 62.0874 69.3912 61.8766 68.4881C61.8351 68.3137 61.5812 68.5439 61.5714 68.112C61.5544 67.4521 61.9739 66.6981 61.7772 65.8804C61.7436 65.7313 61.3036 65.0883 61.8263 64.7263C61.9081 64.6703 62.1547 64.8637 62.2366 64.6326C62.6285 63.5217 62.6522 62.3841 63.0217 61.2745C63.1508 60.8818 63.5707 61.1555 63.7524 60.7511C63.935 60.3466 64.1552 59.5215 63.9893 59.0783C63.824 58.6322 63.0573 59.0371 63.0587 58.3806C63.0429 55.6329 63.3828 52.9832 62.7483 50.6866C62.6502 50.3482 62.4952 50.6978 62.3262 50.2277C61.7473 48.4005 59.7708 46.4868 58.556 45.236C57.6191 44.1994 59.2492 44.7207 58.4268 44.0651C58.0035 43.7435 57.1232 44.2821 57.0022 44.2614C55.6885 44.0179 55.1228 43.4708 53.8739 43.2949C53.622 43.2633 53.79 43.6506 53.5778 43.6212C52.8539 43.5269 52.2406 43.2692 51.5415 43.2022C51.2337 43.1748 51.2577 43.4413 50.9754 43.387C50.2986 43.2616 49.6426 43.0962 49.0453 42.8135C48.9869 42.7876 49.4082 42.4881 48.9137 42.4455C48.1137 42.3787 47.0607 42.1043 46.0202 42.3578C45.7204 42.4344 45.6728 43.0301 45.0919 42.628C44.9654 42.5451 45.1119 41.822 44.424 42.4612C44.3078 42.5655 43.1519 43.4467 42.5031 42.9497C42.3339 42.8177 41.876 42.259 41.5103 42.3786C41.4612 42.397 41.6856 42.7018 41.3815 42.7559C40.226 42.9494 39.3328 43.0025 38.2573 43.224C37.979 43.2834 38.4357 43.5651 38.0199 43.6434C36.9082 43.8543 35.2605 43.9946 34.1998 44.0538C33.7931 44.0769 34.0282 43.7627 33.9946 43.7375C33.4482 43.3295 33.2659 44.0244 33.1141 44.0877C32.1624 44.4744 31.3373 44.3043 30.3932 44.5592C30.1322 44.629 30.3766 44.9027 30.3289 44.9398C29.831 45.3092 30.1371 44.6806 29.777 44.6845C29.3124 44.6894 28.8257 44.7437 28.3342 44.8262C27.8034 44.9137 27.289 45.0441 26.816 45.1799C26.4961 45.2731 26.9439 45.5377 26.659 45.6172C25.0025 46.0902 23.3 46.613 21.6661 47.1156C21.364 47.2077 21.4301 46.8726 21.344 46.8409C20.7355 46.6219 20.4162 47.4587 20.3034 47.583C19.803 48.1388 19.4572 48.0499 18.961 48.3946C16.5263 50.0576 13.8368 52.3772 12.1774 54.6399C10.0168 57.5558 8.63211 60.2325 7.69388 63.8035C7.63633 64.0292 8.05683 63.901 8.01252 64.0958C7.42183 66.6349 6.83514 69.151 6.63043 71.8439C6.61375 72.0614 6.9995 71.7897 6.98509 72.1392C6.95827 72.8547 6.85176 73.7726 6.68166 74.498C6.59964 74.8482 6.33531 74.3481 6.25911 74.7026C6.08156 75.5289 6.00009 76.4415 6.015 77.3235C6.02267 77.6926 6.4085 77.1547 6.39085 77.6323C6.28179 80.9215 6.35496 84.1577 5.98599 87.5581C5.96077 87.7901 5.23399 88.0162 5.39115 88.5074C5.59573 88.5379 5.83481 88.5277 6.05267 88.5365C6.33721 93.4095 6.41569 98.2881 6.7261 103.248C6.7393 103.457 7.10118 103.068 7.12873 103.473C7.28856 105.815 7.56026 108.092 7.33502 110.529C7.31315 110.771 6.62356 110.693 6.77264 111.392C6.7998 111.515 6.95843 112.571 7.12312 112.837C7.14775 112.872 7.45411 112.659 7.4845 113.001C7.65593 114.996 7.6976 117.095 7.58708 119.109C7.56852 119.433 7.2149 119.104 7.19866 119.334C7.08614 120.97 7.39797 122.74 7.11397 124.318C6.92138 125.372 6.32849 124.99 5.75615 125.548C5.67563 125.627 5.66619 126.268 5.32973 126.302C4.48459 126.388 3.55776 126.085 2.65706 126.214C2.46359 126.242 2.67326 127.078 2.20387 126.583C2.17274 126.549 2.01506 125.943 1.85456 125.795C1.74383 125.691 1.40324 125.881 1.26089 125.67C1.11856 125.46 1.40313 125.224 1.23317 124.873C1.06071 124.522 0.674924 124.684 0.616486 123.979ZM51.6597 106.953C52.1071 106.467 50.962 106.11 51.0995 106.785C51.1076 106.818 51.6375 106.978 51.6597 106.953ZM18.2444 100.551C19.1801 100.512 19.205 99.5779 18.5018 99.5588C17.7846 99.5587 17.9521 100.572 18.2444 100.551ZM13.01 106.621C13.8627 106.149 12.5938 105.014 12.2917 106.013C12.2739 106.072 12.9601 106.649 13.01 106.621ZM5.55019 122.988C5.53464 122.996 5.52943 123.455 5.54526 123.466C5.93059 123.703 5.94083 122.782 5.55019 122.988ZM9.48945 113.539C9.81293 113.393 9.92481 112.572 9.51846 112.749C9.18881 112.894 9.08392 113.723 9.48945 113.539ZM61.6322 78.8852C61.652 78.882 61.7682 78.5739 61.6702 78.5493C61.3545 78.4711 61.3012 78.9346 61.6322 78.8852ZM4.59574 125.606C5.34833 123.858 7.07064 123.245 6.17463 125.154C6.01246 125.497 6.0501 124.231 5.75904 124.638C5.23384 125.363 5.83114 126.259 5.05244 126.909C4.91063 127.03 4.55533 125.696 4.59515 125.602C4.59535 125.603 4.59554 125.604 4.59574 125.606ZM53.1339 106.955C53.1516 106.948 53.2707 106.507 53.2582 106.492C52.9455 106.163 52.7044 107.055 53.1339 106.955ZM67.036 60.3784C67.0758 60.3558 67.225 59.311 67.1942 59.2761C66.6363 58.6762 66.3388 60.7547 67.036 60.3784ZM47.8185 117.029C47.25 116.777 46.9317 116.304 47.1508 115.726C47.3722 116.159 47.6072 116.586 47.8185 117.029Z" fill="black"/>
<circle cx="31.1362" cy="18.2391" r="17" fill="white"/>
<path d="M52.0587 19.4901C52.1226 20.2343 51.8978 21.1922 51.6164 21.8842C51.5292 22.1009 51.3413 21.9488 51.2711 22.094C51.1335 22.375 51.1756 22.6763 51.0111 22.9461C50.9555 23.0346 50.6571 22.8378 50.6066 22.931C50.3318 23.4378 50.2705 23.9666 50.0255 24.4819C48.82 26.9997 47.3402 29.2619 45.4016 31.1767C44.7602 31.8131 43.7749 32.3298 43.1532 33.004C43.0804 33.0835 43.3153 33.2725 43.3147 33.3043C43.2936 33.7982 43.0063 33.2655 42.7943 33.3307C41.951 33.5902 41.1981 34.0606 40.5729 34.5529C40.3066 34.7622 40.8893 35.1047 40.4292 34.9864C40.3979 34.9784 40.3201 34.6635 40.2237 34.6789C40.0063 34.7146 39.6859 34.9458 39.5302 34.995C39.2311 35.0886 39.1872 35.1129 38.921 35.2323C38.5538 35.393 38.0604 35.4312 37.6877 35.6468C37.6077 35.6939 37.8348 35.9518 37.715 36.0546C37.5952 36.1581 37.2148 36.2618 37.0656 36.2302C36.9166 36.1993 36.8924 35.9418 36.8525 35.894C36.5274 35.4879 36.3066 36.2581 36.2501 36.2903C35.3057 36.8508 34.3224 36.6489 33.3609 36.7658C32.6294 36.8555 31.8478 37.0248 31.1362 37.0089C31.1303 37.0088 31.1245 37.0087 31.1186 37.0085C30.2659 36.9837 29.5684 36.7634 28.7546 36.6913C28.6685 36.683 28.7211 37.0704 28.6143 37.0605C27.4774 36.9543 26.3561 36.6573 25.3648 36.0686C25.2659 36.0092 25.5053 35.7388 25.4143 35.661C24.8396 35.1926 24.1798 34.2116 23.2069 35.3436C22.8054 35.0965 22.3231 34.7815 22.1075 34.3253C21.9702 34.0319 22.3707 33.846 22.0181 33.8195C21.9386 33.8126 21.8597 34.133 21.7512 34.1009C21.2919 33.9635 20.9226 33.6025 20.4524 33.4711C20.356 33.4448 20.2132 33.6905 20.1616 33.7165C19.7318 33.9191 19.8303 33.1396 19.7999 33.0528C19.5373 32.3833 19.1117 32.2137 18.6935 31.8205C18.5973 31.7289 18.4557 32.1158 18.3527 32.0362C17.8208 31.6183 17.3517 31.0857 17.0493 30.4799C16.9831 30.3448 17.3155 30.2337 17.2971 30.1589C17.2173 29.8348 16.7038 30.1742 16.6208 29.8609C16.6033 29.7957 16.8419 29.6498 16.8587 29.622C17.1262 29.1908 16.502 29.4904 16.4613 29.4618C15.9484 29.1248 16.3171 28.418 15.9434 28.027C15.8975 27.979 15.6824 28.2938 15.5705 28.1456C14.8225 27.1579 14.3085 25.9145 14.1462 24.6883C14.1205 24.4978 14.4146 24.5306 14.4407 24.5078C14.851 24.1555 14.1724 24.2767 14.1272 24.2258C13.7914 23.8275 14.2123 23.2452 13.3449 23.1469C13.1237 21.4985 12.6627 19.8842 12.9301 18.2391C12.9962 17.8356 13.1064 17.444 13.2753 17.0581C13.2854 17.0335 13.6168 17.1002 13.6354 17.0516C13.8677 16.4713 13.3406 16.5525 12.7524 16.0667C12.6054 15.9399 13.4096 15.7272 13.4693 15.712C13.6889 15.6441 14.168 15.8154 14.2125 15.7889C14.5632 15.579 12.9255 15.3686 12.9911 14.9866C12.9958 14.9754 13.286 15.0775 13.3212 15.0516C13.4316 14.9721 13.3308 14.8547 13.4516 14.7807C13.7317 14.6109 14.5284 14.7087 14.1447 14.2939C14.0956 14.2399 13.1672 14.0925 13.2918 13.7702C13.3398 13.6431 13.4844 13.0561 13.5936 12.9144C13.7004 12.7719 13.9548 12.9707 13.9709 12.9628C14.4831 12.6612 14.5909 12.8717 15.2167 12.8584C15.8392 12.8543 14.496 12.4502 14.3782 12.3131C14.2605 12.1753 14.6813 11.9856 14.816 11.9562C14.9506 11.9252 15.0946 12.0838 15.1795 12.0439C15.7366 11.7853 14.6066 11.601 14.4583 11.3742C14.1147 10.8263 15.1868 10.9767 15.4147 10.7357C15.4775 10.6685 15.2328 10.6308 15.2474 10.5498C15.3106 10.2277 15.6825 10.212 15.5906 9.75798C15.5741 9.68622 15.1753 9.11747 15.6694 9.18305C15.74 9.19374 15.9254 9.38918 16.043 9.30429C16.2185 9.17752 16.4535 8.90697 16.4979 8.68238C16.5309 8.51567 16.0742 8.43206 16.2962 8.33755C16.395 8.29666 16.5113 8.57143 16.6784 8.48499C16.844 8.39901 17.0752 8.05342 17.1638 7.92134C17.2511 7.78907 16.9402 7.66459 16.9302 7.64139C16.8762 7.50345 16.9443 7.15883 16.9626 7.13717C17.8126 5.99572 19.1004 5.47332 20.0145 4.4978C20.0878 4.42091 19.819 4.19906 19.828 4.18458C20.0262 3.84367 20.3663 4.73275 20.7458 4.82147C20.2927 4.29625 20.485 4.3039 20.6424 4.09209C20.7182 3.98964 20.5058 3.81307 20.4984 3.78438C20.4071 3.34537 20.8221 3.69682 20.9095 3.76685C21.2351 4.02162 21.0748 3.56359 21.2923 3.73596C21.506 3.90876 21.5747 4.33231 21.7651 4.19807C21.6833 3.95443 21.1727 3.51568 21.2693 3.32502C21.6423 2.58592 23.0719 2.37729 23.5966 2.20242C24.1269 2.01383 24.2788 1.90507 24.6139 1.8659C25.2196 1.80421 24.8471 1.43324 25.1264 1.09853C25.4131 0.766668 25.6169 1.94884 25.7481 2.17267C25.8756 2.39816 25.8444 2.13275 25.9464 2.24661C26.0471 2.36096 25.9764 2.5655 26.1267 2.57226C26.2743 2.57871 26.5149 2.03609 26.4969 1.7659C26.4528 1.19368 26.1131 0.671488 26.5637 0.766392C26.5893 0.772464 26.5951 1.09252 26.6888 1.10066C27.4229 1.15758 28.1325 1.03524 28.8382 1.15533C28.9347 1.17247 28.8972 1.52658 28.953 1.54063C29.53 1.69368 29.2625 1.1388 29.5196 0.461945C29.5286 1.32853 29.7441 1.83447 30.1525 1.81456C30.4011 1.80416 30.3377 1.43057 30.4931 1.15838C30.5406 1.07623 30.7289 1.32975 30.7575 1.15208C30.856 0.571648 30.6661 -0.0767674 31.1362 0.177923C31.1364 0.17803 31.1366 0.178136 31.1368 0.178243C31.144 0.182571 31.1406 0.224783 31.1362 0.278476C31.1305 0.349105 31.1233 0.439599 31.1362 0.489842C31.1414 0.509754 31.1496 0.523346 31.1624 0.526894C31.6084 0.656104 31.6734 0.0506623 32.1777 0.00239646C32.577 -0.0355175 33.2314 0.397911 33.6501 0.520539C33.5099 1.47981 33.9193 1.31582 34.1999 0.686907C34.4727 0.76184 34.7783 0.784159 35.0243 0.934111C35.1085 0.985372 34.9866 1.24585 34.9914 1.27805C35.0558 1.78084 35.3193 1.17572 35.3858 1.16585C36.0884 1.0865 36.4455 1.71153 37.1909 1.46689C37.2167 1.45789 37.4845 0.83742 37.4741 1.35889C37.4714 1.39422 37.1712 1.6087 37.438 1.73473C37.709 1.86217 38.0675 2.40172 38.5623 2.28994C38.6802 2.26159 39.151 1.88011 39.1414 2.35454C39.1391 2.41842 39.026 2.57779 39.0113 2.69094C38.9632 3.05102 39.3382 2.47804 39.1949 3.05707C39.0517 3.6366 39.0798 4.14304 39.6113 3.99498C39.6272 3.991 39.9844 3.57518 40.0879 3.64888C40.2518 3.76569 40.4286 4.01297 40.6017 4.12554C40.685 4.1794 40.8202 3.86624 40.838 3.87082C41.5092 4.1016 41.7271 4.63953 42.1904 5.19915C42.2728 5.29994 42.8674 5.21241 42.8117 5.65524C42.7437 6.13555 41.4172 7.13857 42.1058 7.26507C42.3705 7.30795 44.1254 6.11665 43.6337 7.19258C44.4297 7.69089 44.479 8.67292 45.2733 9.20185C45.3086 9.22539 45.8703 9.02282 45.9156 9.11136C45.9812 9.24199 45.7884 9.4502 45.8246 9.54622C45.9696 9.95192 46.3603 10.1826 46.514 10.5706C46.572 10.7171 46.2955 10.7925 46.361 10.9646C46.4251 11.1352 46.8152 11.0937 46.7536 11.3978C46.7059 11.6294 46.0782 12.0915 46.0822 12.3418C46.7804 12.0752 46.8301 12.2376 47.12 12.4578C47.176 12.5003 47.3993 12.3524 47.4385 12.3681C47.6041 12.4322 47.4358 12.6044 47.6092 12.6612C47.651 12.6753 47.8934 12.5951 47.9413 12.6026C48.3603 12.6666 47.9066 13.1438 47.8243 13.2195C47.5178 13.5203 47.8617 13.517 47.7585 13.7065C47.6539 13.8928 47.4146 13.7227 47.3725 13.916C47.2845 14.3126 47.4264 14.7502 47.4822 15.1107C47.5059 15.2539 47.8227 15.0943 47.8339 15.1133C47.976 15.4028 47.6633 15.7594 48.3589 15.8353C46.6468 16.2802 48.5555 15.9962 48.2546 16.4882C48.2299 16.5267 47.408 16.6487 47.2738 16.5352C47.1398 16.4227 47.3753 16.1999 47.1632 16.0503C47.1134 16.012 46.3105 15.8961 46.2591 15.8756C45.8586 15.6995 47.074 15.4567 47.1389 15.4302C47.8368 15.1478 46.9556 15.0085 46.8839 14.9511C46.5535 14.6661 46.6546 14.3454 46.3965 14.1147C46.2288 13.9648 45.4422 14.171 45.4278 14.0323C45.3786 13.5811 46.3908 13.0353 45.3133 12.9519C45.0828 12.9359 44.2892 13.3414 44.8203 12.7837C44.8551 12.7511 45.3509 12.2739 44.9205 12.2982C44.8666 12.3018 44.6293 12.4052 44.6001 12.3925C44.409 12.3064 44.5544 12.127 44.3925 12.0144C44.2309 11.9026 44.0104 11.788 44.0003 11.5782C43.9946 11.4528 44.3479 11.0919 44.4229 10.9832C44.6411 10.6732 44.0689 10.7964 44.3738 10.5023C44.6764 10.2006 45.3285 10.0674 45.4087 9.67934C44.8267 10.0163 44.2233 10.3524 43.6369 10.6897C43.3656 10.1958 43.2252 9.60717 42.8466 9.1674C42.7994 9.11383 42.5587 9.393 42.5016 9.34268C42.2635 9.13262 42.2834 8.75411 41.9865 8.57472C41.7556 8.43694 41.2887 8.49933 41.0412 8.38748C41.476 7.73196 41.0029 7.63752 40.8382 7.39749C40.7794 7.31243 40.9205 7.16304 40.9099 7.06444C40.8633 6.69564 40.5178 7.29668 40.3928 7.33035C39.8645 7.48324 40.8207 6.27512 40.4792 6.05773C40.4594 6.04376 39.7667 6.54915 39.7123 6.57321C39.3459 6.71808 39.853 6.322 39.7793 6.19388C39.6444 5.96107 39.6069 5.69692 39.231 5.73868C39.1188 5.75049 38.6817 6.07841 38.7502 5.65766C38.7587 5.60228 38.9093 5.37644 38.9025 5.35376C38.7624 4.96139 38.324 5.69449 38.0349 5.86249C37.7478 6.03173 37.793 5.3911 37.8173 5.21344C37.8862 4.75588 38.004 5.09859 38.0305 5.06443C38.3535 4.65574 38.1293 4.63658 38.0056 4.52647C38.3608 3.76939 38.1252 3.70971 37.8752 4.41558C37.8479 4.4925 37.994 4.47775 38.0056 4.52647C37.5098 5.19485 37.2762 5.19701 37.3471 4.38911C37.378 4.01052 37.6587 3.67351 37.2316 3.6583C37.0387 3.65313 36.884 4.21155 36.6854 4.30068C36.2387 4.50685 36.0054 3.85438 35.63 3.82677C35.4974 3.81791 35.5244 4.15578 35.4321 4.16075C35.1898 4.17639 35.0571 3.89384 34.8009 3.95309C34.7781 3.95901 34.745 4.29071 34.6761 4.27756C34.1541 4.18624 33.7385 3.88829 33.1789 3.80281C32.9084 3.76044 32.4085 3.89101 32.1339 3.83755C31.824 3.77655 31.4753 3.55109 31.1362 3.43586C30.95 3.37198 30.772 3.34151 30.6219 3.38811C30.3474 3.47314 30.425 3.80096 30.322 4.03113C30.1324 4.47633 29.6878 3.7336 29.6149 3.62059C29.6126 3.61641 29.8409 3.51665 29.6988 3.36008C29.5902 3.01621 29.6169 3.61887 29.6149 3.62059C29.5719 3.5447 29.0888 3.52737 29.0051 3.60529C28.9596 3.6467 29.033 3.95171 29.0089 3.96741C28.4359 4.33498 27.8786 4.53571 27.2437 4.56375C27.2314 4.56067 27.1519 4.21999 27.1238 4.21711C26.7262 4.16992 26.6256 4.65307 26.4381 4.98815C26.2489 5.32455 26.0175 5.3252 25.6244 4.83822C25.4451 4.9929 25.0412 4.88261 24.7978 4.82055C24.5538 4.75848 24.8293 5.3821 24.8212 5.40087C24.5637 6.01058 24.1362 5.80111 23.6482 6.02643C23.4167 6.13117 23.0549 6.48935 22.8814 6.70793C22.7447 6.88023 22.5461 6.82989 22.4525 7.03109C22.44 7.05808 22.6469 7.28085 22.6477 7.29499C22.7039 7.71108 22.3259 7.06704 22.2081 6.99149C21.7796 6.7186 21.5268 6.5924 21.4496 6.95602C21.4289 7.04178 21.9891 7.96817 21.9502 8.08801C21.8945 8.24587 21.6768 7.92676 21.6245 8.10212C21.6199 8.1169 21.7831 8.28667 21.7069 8.34477C21.3558 8.6165 20.9182 8.87702 20.6322 9.24764C20.5928 9.29731 20.9292 9.47902 20.8784 9.55342C20.6402 9.90224 20.3539 10.2524 19.9751 10.4911C19.8808 10.5495 19.7017 10.3484 19.625 10.3226C19.1561 10.1735 19.6136 10.7212 19.609 10.7526C19.4796 11.5586 18.6564 11.7743 18.5952 12.6188C18.5906 12.6695 19.1397 13.2435 18.5065 13.1366C18.4649 13.1277 17.8116 13.0289 18.1757 13.3084C18.1988 13.3252 18.5391 13.3607 18.4532 13.4928C18.3664 13.6279 18.4945 13.9272 18.0836 14.0177C17.9547 14.0439 17.2899 14.0175 17.7226 14.3617C17.7504 14.3917 18.7852 14.9847 17.988 14.8888C17.8569 14.8731 17.0411 14.65 17.4034 14.9956C17.4744 15.0606 17.6767 15.0214 17.7638 15.1667C17.8991 15.3862 17.6271 15.5852 17.9577 15.8743C18.0158 15.927 18.5537 16.1778 18.1048 16.2397C18.0344 16.25 17.7618 16.1683 17.7201 16.234C17.5204 16.5498 17.6687 16.9258 17.4502 17.2565C17.3734 17.3757 16.923 17.2816 16.7931 17.4095C16.663 17.5373 16.5351 17.8099 16.7411 17.9569C16.9471 18.1009 17.6746 17.9622 17.7308 18.1624C17.7381 18.188 17.7449 18.2136 17.7512 18.2391C17.9581 19.0642 17.6302 19.9082 17.7267 20.7607C17.7416 20.8889 17.9763 20.7364 18.0175 20.9178C18.1647 21.6036 18.736 22.6269 18.4633 23.3897C18.2457 24.0173 17.6905 23.5629 17.6773 23.995C17.6762 24.2109 18.5302 24.0477 18.5716 24.0734C18.9963 24.3437 18.8 24.775 19.093 25.0611C19.1532 25.1187 19.4117 24.8816 19.459 24.9311C19.6224 25.0965 19.6158 25.3789 19.7577 25.5475C19.8219 25.6223 20.0308 25.4643 20.0623 25.5488C20.141 25.7493 20.1565 25.9641 20.0829 26.279C20.0767 26.3084 19.7354 26.3919 19.8227 26.532C19.9635 26.7558 19.9825 27.1733 20.3732 27.2505C20.4904 27.273 20.9443 26.8864 20.7579 27.3005C20.7191 27.3866 20.1478 27.8244 20.7628 27.5826C20.8691 27.5482 21.7245 27.2431 21.464 27.7442C21.3953 27.8767 21.0699 28.3816 21.2151 28.3944C21.2359 28.3941 21.4179 28.1238 21.5039 28.1639C21.8024 28.3078 22.0229 28.5539 22.3334 28.6844C22.4161 28.718 22.5337 28.3836 22.6484 28.44C22.9624 28.5936 23.2439 28.9153 23.4598 29.1929C23.5389 29.2957 23.3118 29.4724 23.3018 29.5019C23.1482 29.9879 23.5935 29.4954 23.6532 29.4892C24.0282 29.4631 24.0569 29.8439 24.3402 29.9153C24.4173 29.9351 24.5275 29.6369 24.5547 29.6204C24.8238 29.4605 24.444 29.891 24.5001 29.9943C24.6585 30.2859 24.9534 30.4122 25.2279 30.5C25.3286 30.5316 25.3807 30.1539 25.4675 30.1849C25.9829 30.3611 26.482 30.5984 26.9254 30.9557C27.0091 31.0236 26.8621 31.2696 26.8625 31.3369C26.8694 31.8096 27.2622 31.2914 27.3226 31.2482C27.61 31.0555 27.6263 31.3157 27.8302 31.32C28.813 31.3376 29.9419 31.6465 30.8652 31.7598C30.9566 31.7715 31.0469 31.7832 31.1362 31.7945C32.2046 31.927 33.1299 32.0493 34.1684 31.7574C34.2394 31.7373 34.0858 31.3906 34.1445 31.3688C34.8975 31.1053 35.692 31.0003 36.3881 30.5875C36.4448 30.5544 36.2208 30.2668 36.3049 30.2034C36.4761 30.0712 36.7202 29.9791 36.9613 29.9846C37.079 29.9864 37.0879 30.3203 37.2054 30.3156C37.4805 30.3042 37.7341 30.1959 37.9304 30.0169C38.0127 29.9404 37.6899 29.711 37.8085 29.637C38.6143 29.1202 39.3008 28.5377 40.3387 28.2171C40.4091 28.1956 40.9557 28.6888 40.9687 28.4817C40.8359 28.3271 40.6696 28.1551 40.5222 27.9951C41.4554 26.9343 42.5097 25.9686 43.2316 24.7101C43.2613 24.6579 42.8705 24.5653 42.9251 24.465C43.2412 23.878 43.3931 23.2676 43.9844 22.7507C44.0424 22.6987 44.6771 22.9571 44.6465 22.723C44.6413 22.6818 44.6505 22.3514 44.53 22.2328C44.5116 22.2162 44.1903 22.1782 44.209 22.0819C44.3232 21.5215 44.5228 20.9673 44.8056 20.4261C44.8518 20.3384 45.1718 20.4901 45.2078 20.4268C45.4609 19.9701 45.2564 19.4211 45.5868 18.9697C45.8082 18.6638 46.3894 18.803 46.9725 18.638C47.055 18.6142 47.0714 18.3996 47.4074 18.3905C48.2531 18.3661 49.1776 18.4918 50.0792 18.454C50.2741 18.4457 50.0658 18.0978 50.5344 18.3048C50.5661 18.3192 50.7193 18.5757 50.8766 18.6431C50.9857 18.6901 51.3293 18.6157 51.4681 18.7115C51.6065 18.8084 51.3174 18.9016 51.4767 19.0608C51.6373 19.2221 52.0305 19.1687 52.0587 19.4901ZM23.6826 4.582C23.3589 4.38743 23.9225 5.44312 23.9522 5.0996C23.953 5.08178 23.6987 4.59146 23.6826 4.582ZM43.951 9.08963C44.2322 8.57632 43.5069 8.90463 43.2815 9.28391C43.0503 9.65605 43.863 9.24204 43.951 9.08963ZM45.6101 11.1118C45.8473 10.6556 44.3203 11.3966 44.7587 11.505C44.7835 11.5115 45.596 11.1378 45.6101 11.1118ZM47.093 19.5004C47.1093 19.4991 47.136 19.345 47.1204 19.3401C46.7471 19.2338 46.6946 19.5342 47.093 19.5004ZM46.9681 13.4044C47.1604 13.246 46.8236 13.0645 46.5881 13.2644C46.3983 13.4219 46.7286 13.5977 46.9681 13.4044ZM15.9452 10.98C15.9277 10.9751 15.863 11.074 15.9553 11.1147C16.2523 11.2455 16.238 11.0628 15.9452 10.98ZM47.7009 17.8686C47.7473 17.2152 49.1085 16.6649 48.9957 17.4665C48.9735 17.6074 48.535 17.1854 48.4174 17.3696C48.2024 17.6935 49.0877 17.8918 48.617 18.233C48.5315 18.2889 47.6961 17.902 47.6989 17.8675C47.6996 17.8678 47.7002 17.8682 47.7009 17.8686ZM22.8901 3.37801C22.8788 3.36598 22.7286 3.43326 22.7331 3.449C22.8455 3.82163 23.1412 3.68996 22.8901 3.37801ZM13.5781 17.5311C13.543 17.5385 13.5005 17.9307 13.5323 17.9444C14.1479 18.1521 14.2343 17.3888 13.5781 17.5311ZM33.6532 0.547119C33.8909 0.194479 34.1344 0.187835 34.1991 0.68628C34.0202 0.629401 33.8344 0.596408 33.6532 0.547119Z" fill="black"/>
</svg>
