<svg width="62" height="131" viewBox="0 0 62 131" fill="none" xmlns="http://www.w3.org/2000/svg">
<path d="M30.5343 41.9706C-16.5774 50.739 14.7457 52.739 5.42269 84.7391C-3.9003 116.739 -1.5774 130.739 21.6302 124.942C20.1302 103.942 29.1371 106.807 34.9531 110.442C42.9531 115.442 47.2714 123.07 51.4226 129.239C75.4226 124.942 46.9226 117.739 46.9226 87.7391C61.9226 45.239 45.0837 39.2626 30.5343 41.9706Z" fill="white"/>
<path d="M2.26832 81.1732C2.5176 79.6802 2.95684 77.8174 3.2612 76.3987C3.35589 75.9623 3.54295 76.2097 3.6171 75.891C3.75999 75.2628 3.69622 74.6804 3.82144 74.0911C3.86364 73.8954 4.18859 74.1561 4.22489 73.9491C4.42121 72.7365 4.3251 71.6526 4.32373 70.4485C4.32668 67.5153 3.843 64.5676 3.07591 61.614C2.52063 58.5669 0.511336 55.6649 1.91637 50.7962C3.24757 47.5659 6.39669 46.4991 8.42383 45.4355C8.68435 45.3075 8.41098 45.1035 8.45254 45.0594C9.10504 44.3877 9.03784 45.0599 9.55855 44.9417C11.7024 44.4602 13.7425 43.9013 15.69 43.2702C16.4732 43.0157 15.5354 42.6531 16.3983 42.7712C16.458 42.779 16.3383 43.1323 16.5592 43.1107C17.0556 43.0614 17.9987 42.7738 18.4131 42.7019C19.226 42.561 19.271 42.5479 19.9761 42.3911C20.8991 42.1892 22.2168 42.063 23.1452 41.7968C23.357 41.7361 23.0057 41.4816 23.3391 41.3563C23.6704 41.2312 24.6138 41.0659 24.9553 41.0747C25.2942 41.0836 25.2061 41.3587 25.2748 41.4038C25.8702 41.7815 26.7727 40.9153 26.9057 40.8727C27.9939 40.5291 29.0844 40.3304 30.1994 40.1713C31.5409 39.9811 32.8656 39.9193 34.2551 39.8246C36.1783 39.6897 38.2879 39.6242 40.1627 39.9554C42.3898 40.3566 44.2181 41.1323 46.1748 42.2297C46.3814 42.3489 46.3319 41.8797 46.5888 42.0294C49.3397 43.6189 51.4601 46.2821 52.4494 49.1382C52.5502 49.4256 52.0891 49.2061 52.1691 49.4981C52.7035 51.2907 52.6713 54.0639 54.2335 54.8755C54.3758 56.0898 54.4456 57.5906 54.194 58.63C54.0318 59.3222 53.6513 58.6647 53.8265 59.5058C53.8642 59.6978 54.1762 59.4404 54.2081 59.7317C54.3415 60.8871 54.1939 62.2562 54.2787 63.3894C54.2963 63.629 54.583 63.5847 54.6291 63.6562C55.0022 64.2578 54.2271 65.1889 54.1577 65.3599C53.628 66.8474 53.6066 68.022 53.3621 69.4326C53.3031 69.7667 53.7457 69.4342 53.7016 69.7598C53.4657 71.4537 53.0778 73.1545 52.5448 74.6908C52.4252 75.0317 52.1853 74.636 52.112 74.7949C51.7908 75.4966 52.3444 75.8082 52.033 76.503C51.9678 76.6499 51.7209 76.4949 51.6843 76.5154C51.1081 76.8405 51.6693 77.3699 51.6555 77.4808C51.4954 78.8827 50.5494 79.6293 50.2585 80.9643C50.2245 81.1229 50.6654 80.8729 50.5487 81.3137C49.9403 83.6037 49.143 85.9062 48.1822 88.1837L48.2583 87.7391C48.2128 88.4679 48.1743 89.178 48.1406 89.8674C48.1199 90.3223 47.8406 90.0129 47.8095 90.0427C47.3258 90.5315 48.0284 90.8177 48.0644 90.9627C48.333 92.1393 47.8974 93.2905 48.8179 93.9877C49.2492 98.9635 51.3022 103.56 53.0016 108.283C53.0243 108.343 52.6742 108.399 52.721 108.519C53.2853 109.958 53.6123 109.459 54.665 110.01C54.9276 110.145 54.6626 111.198 54.6559 111.293C54.6113 111.619 54.0479 111.653 54.0581 111.747C54.1629 112.52 55.4967 111.546 55.997 112.332C56.0108 112.359 55.6875 112.416 55.7053 112.5C55.7601 112.762 55.9944 112.902 56.0377 113.16C56.1335 113.748 55.5731 114.355 56.4378 114.806C56.5471 114.859 57.2348 114.209 57.6623 114.917C57.8474 115.223 58.6944 116.427 58.8923 116.824C59.0792 117.205 58.6676 117.137 58.6738 117.169C58.971 118.315 58.6094 118.077 58.4306 118.871C58.2486 119.661 59.3284 118.753 59.59 118.867C59.8619 118.995 60.0243 119.872 60.0314 120.112C60.0429 120.355 59.7423 120.224 59.7828 120.42C60.0162 121.677 60.65 120.535 61.0464 120.795C61.9942 121.481 61.3752 122.657 61.4101 123.571C61.4141 123.82 61.6259 123.582 61.6713 123.825C61.7974 124.817 61.3578 125.371 60.9067 126.394C60.8681 126.552 60.5634 127.692 59.8061 127.605C59.7033 127.59 59.753 127.258 59.3871 127.412C58.9077 127.607 57.9748 127.961 57.4735 128.229C57.0784 128.438 57.7087 128.67 57.1195 128.733C56.8904 128.747 57.2001 128.381 56.7779 128.425C56.3793 128.468 55.2249 128.801 54.8672 128.893C54.4669 129.001 54.7627 129.261 54.7358 129.29C54.5749 129.461 53.7666 129.803 53.6956 129.816C53.0355 129.966 52.3344 130.088 51.5932 130.192L51.0018 130.315L50.6195 129.78C49.1442 127.38 47.993 124.949 46.2764 122.76C46.1092 122.547 45.934 122.891 45.9056 122.861C45.2531 122.188 46.4176 122.258 46.2844 121.551C45.7769 122.033 45.656 121.646 45.2061 121.166C44.9881 120.935 44.8754 121.233 44.8362 121.227C44.2338 121.101 44.4567 120.527 44.491 120.395C44.6174 119.908 44.0395 119.929 44.118 119.602C44.1926 119.274 44.8022 119.413 44.4034 118.921C44.0997 118.939 43.8848 119.707 43.5061 119.404C42.1072 118.253 40.2296 115.517 39.1704 114.535C38.1429 113.546 37.7473 113.302 37.148 112.721C36.0436 111.69 36.1944 112.406 35.3197 112.064C34.4356 111.737 35.4533 110.997 35.4811 110.709C35.5065 110.422 35.2406 110.562 35.1731 110.355C35.1083 110.158 35.4639 110.191 35.2427 109.979C35.2297 109.966 35.2146 109.953 35.1973 109.939C34.8873 109.676 33.71 109.524 33.4656 109.701C32.9436 110.064 33.0811 110.792 32.2984 110.165C32.2524 110.128 32.5566 109.931 32.3725 109.806C30.8997 108.836 29.1427 108.202 27.3985 108.156C27.1573 108.153 27.3323 107.785 27.1847 107.781C25.6073 107.868 26.2533 108.375 25.9004 109.228C25.6755 108.401 24.9397 108.042 23.9823 108.93C23.4445 109.486 23.8432 109.631 23.7798 110.149C23.7644 110.299 23.2915 110.558 23.3982 110.735C23.7634 111.283 24.5164 111.18 23.8311 112.023C23.8015 112.06 23.5703 111.797 23.4883 111.937C22.9614 112.906 23.501 113.235 23.3038 114.356C23.1499 115.234 22.5628 116.859 22.4414 117.945C21.4712 117.871 21.6352 118.91 22.2959 119.366C22.2482 120.079 22.2851 120.849 22.2057 121.541C22.1787 121.774 21.8949 121.627 21.8651 121.657C21.3986 122.123 22.0608 122.425 22.0919 122.581C22.2448 123.421 22.229 124.12 22.2515 124.898L22.3015 125.401L21.7811 125.546C20.9812 125.711 20.2497 125.871 19.4796 126.279C19.4257 126.308 19.4579 126.99 18.924 126.592C18.8906 126.563 19.3686 126.161 18.6006 126.282C17.8514 126.401 16.3491 126.271 15.3204 126.677C15.0655 126.779 14.4347 127.38 13.8903 126.976C13.8142 126.922 13.8851 126.725 13.7756 126.622C13.4285 126.293 13.2607 126.98 12.8699 126.405C12.4927 125.828 11.7287 125.399 10.6905 125.694C10.6573 125.702 10.3404 126.213 10.003 126.156C9.47958 126.071 8.73633 125.807 8.21144 125.66C7.95919 125.59 8.02665 125.958 7.98105 125.951C6.15209 125.585 5.00197 124.66 3.71822 123.213C3.4894 122.965 2.44117 122.435 2.37517 121.627C2.3333 120.765 4.08052 120.62 3.08082 119.438C2.71574 119 0.403933 118.775 1.17145 117.271C0.394028 114.97 0.861789 112.691 0.559566 110.283C0.546279 110.174 -0.0217246 109.8 0.000587881 109.533C0.0343245 109.143 0.319211 108.965 0.355932 108.693C0.519845 107.544 0.392493 106.512 0.570339 105.388C0.636654 104.975 0.896002 105.16 0.977864 104.674C1.06098 104.187 0.741177 103.803 1.02531 103.145C1.23827 102.671 2.06705 102.302 2.27169 101.651C1.53924 101.501 1.63832 101.018 1.59453 100.192C1.58642 100.03 1.29912 100.147 1.28213 100.068C1.20754 99.7435 1.47373 99.5061 1.38795 99.1897C1.36756 99.1127 1.11785 99.0593 1.08717 98.9932C0.817969 98.4195 1.54632 97.7477 1.673 97.6355C2.15515 97.1972 1.88453 96.8821 2.12044 96.5102C2.35673 96.1388 2.40394 96.7835 2.59824 96.3317C2.99857 95.4049 3.24631 94.1816 3.50362 93.1942C3.60129 92.8138 3.20596 92.9915 3.21224 92.9352C3.325 92.123 3.88658 91.3979 3.3481 90.7739C5.19671 90.6469 3.30682 90.2531 3.95424 89.1989C4.00613 89.116 4.83796 89.2197 4.86293 89.5949C4.88723 89.9724 4.50168 90.4106 4.55832 90.9441C4.57045 91.0723 5.15336 91.9231 5.17691 92.022C5.35611 92.8058 4.13082 92.5961 4.05504 92.6169C3.2376 92.8492 3.85513 93.8465 3.85956 94.0757C3.88042 95.1159 3.53227 95.8438 3.53084 96.7161C3.53189 97.2742 4.31506 97.4982 4.20236 97.901C3.83971 99.2054 2.61795 99.53 3.34647 100.973C3.50326 101.282 4.42363 101.168 3.55928 102.042C3.50455 102.097 2.74779 102.728 3.081 103.208C3.12294 103.268 3.37879 103.307 3.38937 103.379C3.45418 103.869 3.20069 104.165 3.2261 104.687C3.25177 105.21 3.31912 105.827 3.16343 106.41C3.07018 106.755 2.54431 107.149 2.41062 107.304C2.02578 107.732 2.53595 108.322 2.10419 108.578C1.66981 108.848 1.08373 108.211 0.762386 108.987C1.43156 109.06 2.11621 109.17 2.78847 109.256C2.66142 110.958 2.42887 112.567 2.5983 114.224C2.62008 114.42 2.96209 114.188 2.99517 114.395C3.14041 115.297 3.00065 116.099 3.30206 116.946C3.54119 117.613 4.12182 118.183 4.45895 118.728C3.8945 119.394 4.59124 120.189 4.93928 120.739C5.06139 120.939 4.8939 121.056 4.95327 121.233C5.20304 121.891 5.50003 121.194 5.69007 121.242C6.48996 121.375 5.5241 122.6 6.39312 123.12C6.45185 123.16 7.36526 122.724 7.45022 122.702C8.04823 122.611 7.40394 122.998 7.68327 123.187C8.18706 123.515 8.57938 123.851 9.37207 123.784C9.62348 123.768 10.1911 123.355 10.5764 123.8C10.6279 123.859 10.5628 124.124 10.6086 124.145C11.4524 124.503 11.5299 123.64 12.0251 123.375C12.5176 123.108 13.2467 123.682 13.4309 123.844C13.8731 124.267 13.11 124.043 13.0924 124.083C12.8318 124.599 13.4119 124.505 13.8719 124.523C13.9734 125.357 14.6107 125.265 14.3292 124.538C14.2975 124.459 13.9603 124.558 13.8719 124.523C14.2076 123.686 14.8506 123.537 15.6987 124.209C16.095 124.521 15.7975 124.991 16.8933 124.68C17.395 124.533 17.1159 123.994 17.5123 123.769C18.4254 123.254 19.8138 123.511 20.8382 123.172C21.2117 123.049 20.7655 122.834 21.0177 122.739C21.0367 122.732 21.0557 122.725 21.0747 122.718L19.3442 125.105C19.226 124.369 19.4096 123.735 19.2617 123.029C19.2475 122.959 18.9251 123.144 18.9111 122.904C18.806 121.136 19.0076 119.568 19.135 117.692C19.1912 116.773 19.1974 115.115 19.4401 114.119C19.816 112.428 20.9707 110.434 21.8601 108.996C22.4778 108.028 22.0881 108.039 22.2929 107.477C22.712 106.314 24.9728 105.976 25.2035 106.086C25.2034 106.071 24.2547 106.606 24.8484 106.51C25.2851 106.696 25.1876 106.095 25.2035 106.086C25.3855 106.019 27.4475 105.672 27.8268 105.68C28.039 105.643 27.9187 105.332 28.0332 105.32C30.8038 105.097 33.0774 106.045 34.9628 107.219C34.9941 107.243 34.775 107.522 34.8497 107.575C35.3596 107.943 35.8259 108.149 36.2899 108.303C36.7748 108.466 37.2579 108.573 37.7698 108.767C38.7709 109.147 39.3915 109.73 39.4929 110.575C40.1486 110.994 40.8198 111.92 41.1716 112.461C41.5268 113.003 42.0524 112.57 42.1036 112.598C43.6675 113.498 44.0928 114.515 45.215 115.898C45.7512 116.557 46.8788 117.799 47.4834 118.481C47.9654 119.018 48.092 119.459 48.5597 119.933C48.6227 119.997 48.8159 119.747 48.8412 119.762C49.5641 120.148 48.7556 120.292 48.7356 120.491C48.6593 121.216 48.6402 121.632 49.3483 122.266C49.5103 122.41 50.7425 122.328 51.0104 122.617C51.3576 122.994 50.9334 123.046 51.3019 123.434C51.333 123.467 51.5248 123.329 51.6949 123.605C52.4701 124.857 53.2184 126.255 54.0544 127.468L50.8635 126.117C50.896 126.11 50.9283 126.104 50.9604 126.098C51.1694 126.058 50.8359 125.738 51.1333 125.674C52.4918 125.379 53.8607 125.096 55.0935 124.914C55.3885 124.871 55.2876 125.175 55.3716 125.231C55.8798 125.57 56.1941 124.734 56.26 124.693C57.1192 124.216 57.8172 123.818 57.8714 123.824C57.9043 123.824 57.834 124.06 57.8538 124.124C57.8665 124.194 57.8509 123.994 57.6573 123.689C57.6224 123.618 56.6865 123.306 57.0341 122.654C57.063 122.619 57.4239 121.945 56.8417 121.835C56.806 121.83 56.6577 122.221 56.4525 121.822C56.2384 121.409 55.6318 120.885 55.5333 120.091C55.4986 119.835 55.7518 119.067 54.9344 118.779C54.8747 118.755 53.3437 118.568 53.7766 117.787C53.8505 117.662 54.5795 117.235 53.7671 116.807C53.6095 116.723 53.614 117.067 53.2835 116.786C52.7654 116.341 52.4992 115.53 51.7414 115.042C51.604 114.951 50.8091 114.769 50.9226 114.125C50.9408 114.025 51.2558 113.999 51.1491 113.765C50.6437 112.655 49.839 111.642 49.4327 110.471C49.2864 110.051 49.7937 110.036 49.6898 109.575C49.5815 109.106 49.2925 108.266 48.8979 107.918C48.5042 107.573 48.0719 108.362 47.7106 107.724C46.1557 104.958 45.4973 101.808 44.8306 98.7267C44.7347 98.2755 44.5668 98.71 44.4114 98.0404C43.7902 95.5584 43.0653 91.1261 43.612 88.9366C44.0258 87.1609 44.3931 89.376 44.5571 88.0319C44.5694 87.935 44.5611 87.8368 44.5382 87.7391L44.6741 86.9455C44.7266 86.4057 44.3072 85.7407 44.3259 85.617C44.536 84.1769 45.1688 83.4546 45.4563 82.1781C45.5136 81.9192 45.1093 82.0622 45.1613 81.8438C45.3353 81.098 45.7115 80.392 45.8845 79.7127C45.9612 79.4077 45.6937 79.3911 45.7945 79.1195C46.0427 78.4324 46.3203 77.8553 46.7377 77.2593C46.7758 77.2048 46.9777 77.6978 47.1269 77.1985C47.3624 76.407 47.8664 75.4313 47.8551 74.4184C47.8498 74.1203 47.2732 73.9698 47.813 73.4726C47.9249 73.3696 48.59 73.684 48.1407 72.8636C48.0689 72.7218 47.5155 71.3398 48.1535 70.8838C48.3228 70.7613 48.9749 70.4881 48.9465 70.1409C48.9404 70.0938 48.5918 70.212 48.612 69.9351C48.6977 68.9083 48.9018 67.8836 48.941 66.882C48.9524 66.6013 48.5669 66.9663 48.5932 66.5524C48.6646 65.4177 48.8866 64.106 49.0615 63.032C49.1257 62.6469 49.3825 62.9322 49.4143 62.9061C49.9292 62.4765 49.2845 62.1861 49.2535 62.0271C49.066 61.0358 49.3815 60.3875 49.283 59.5042C49.2557 59.2646 48.9467 59.4427 48.9176 59.3957C48.6308 58.9182 49.204 59.2625 49.2552 58.9525C49.4003 58.1108 49.2949 57.1158 49.1458 56.3139C49.0899 56.0162 48.7775 56.4084 48.7292 56.1314C48.4382 54.5258 48.07 52.966 47.6806 51.5684C47.6058 51.3022 47.9304 51.3463 47.9655 51.2677C48.2089 50.7086 47.3912 50.4621 47.2783 50.3842C46.7606 50.0083 46.8552 49.7023 46.522 49.3119C44.9658 47.4369 42.5152 45.8508 40.0087 45.263C37.0271 44.5419 34.2524 44.4714 31.1089 45.0576C30.8519 45.1072 30.5948 45.1585 30.3373 45.2116C30.0918 45.2619 30.4086 45.5808 30.1985 45.6287C27.5468 46.2206 24.9369 46.5893 22.3384 47.2673C22.121 47.3233 22.5114 47.5986 22.1669 47.6999C21.4515 47.9123 20.6255 48.0803 19.8815 48.1403C19.5083 48.1728 19.922 47.7639 19.5483 47.8027C18.6756 47.8936 17.8369 48.076 17.061 48.3377C16.7007 48.4581 17.3433 48.6617 16.8715 48.7905C13.8896 49.6284 10.8128 50.6277 8.56366 51.4864C8.40791 51.5489 7.85518 51.0318 7.67444 51.3468C7.78014 51.5223 7.92877 51.7099 8.05535 51.8869C7.47877 52.3869 7.35205 52.6461 7.26602 52.9174C7.16809 53.1964 7.1523 53.9288 7.33255 54.8738C7.68848 56.7778 8.48003 59.2155 9.09195 61.6659C9.14357 61.8699 9.42734 61.418 9.52947 61.8156C10.1303 64.1589 10.6931 66.5876 10.5215 69.1461C10.5043 69.4069 9.81742 69.3342 9.96848 70.0413C9.9988 70.1624 10.1423 71.2616 10.2935 71.558C10.3167 71.5976 10.6311 71.3814 10.6484 71.7494C10.7414 73.7958 10.5316 76.0576 10.0726 78.0317C9.99736 78.3558 9.70722 77.9618 9.65045 78.1912C9.24394 79.86 9.1572 81.6313 8.48427 83.0877C8.03367 84.0407 7.55572 83.5255 6.85875 83.9057C6.7613 83.9585 6.57786 84.5752 6.24421 84.5161C5.40821 84.3659 4.59905 83.8236 3.69787 83.6995C3.50584 83.6705 3.47798 84.5191 3.16281 83.9209C3.14317 83.8785 3.15283 83.2705 3.03509 83.0933C2.95469 82.9694 2.5786 83.0502 2.49465 82.8211C2.41014 82.5934 2.7433 82.4558 2.6623 82.1016C2.57723 81.75 2.16931 81.7892 2.26832 81.1732ZM42.6734 114.93C42.8267 115.565 43.7595 114.811 43.1212 114.554C43.0892 114.542 42.6646 114.897 42.6734 114.93ZM1.57594 112.591C1.06632 113.283 1.87574 113.747 2.25555 113.232C2.63926 112.732 1.73169 112.387 1.57594 112.591ZM1.64066 105.299C1.12248 106.079 2.79193 106.41 2.56149 105.488C2.54857 105.436 1.67072 105.255 1.64066 105.299ZM7.28707 81.4324C7.27051 81.4364 7.15516 81.8878 7.1674 81.9027C7.48408 82.2305 7.71676 81.3198 7.28707 81.4324ZM2.48747 98.0028C2.20998 98.2022 2.3164 99.0003 2.66215 98.7359C2.94045 98.5193 2.83254 97.7515 2.48747 98.0028ZM60.8351 123.675C60.8547 123.667 60.8167 123.364 60.7169 123.391C60.4095 123.483 60.5565 123.837 60.8351 123.675ZM5.54965 85.8523C4.9778 87.6196 3.33715 88.3034 4.02894 86.419C4.1554 86.0763 4.24615 87.2954 4.49333 86.884C4.94424 86.133 4.2555 85.342 4.9565 84.6202C5.08345 84.4917 5.58418 85.7544 5.55062 85.8561C5.5503 85.8548 5.54997 85.8536 5.54965 85.8523ZM41.8537 116.153C41.8502 116.172 42.1396 116.504 42.1582 116.502C42.6015 116.421 42.0127 115.744 41.8537 116.153ZM52.1766 107.397C52.1947 107.363 51.7795 106.441 51.7386 106.421C50.9431 106.206 51.792 108.1 52.1766 107.397ZM22.4144 117.961C22.7635 118.467 22.7868 118.984 22.2965 119.364C22.3358 118.878 22.3593 118.441 22.4144 117.961Z" fill="black"/>
<circle cx="33.9531" cy="18.2391" r="17" fill="white"/>
<path d="M54.8756 19.4901C54.9395 20.2343 54.7147 21.1922 54.4333 21.8842C54.3461 22.1009 54.1582 21.9488 54.088 22.094C53.9504 22.375 53.9925 22.6763 53.8279 22.9461C53.7724 23.0346 53.474 22.8378 53.4235 22.931C53.1487 23.4378 53.0874 23.9666 52.8424 24.4819C51.6368 26.9997 50.1571 29.2619 48.2185 31.1767C47.5771 31.8131 46.5918 32.3298 45.9701 33.004C45.8973 33.0835 46.1322 33.2725 46.1316 33.3043C46.1105 33.7982 45.8232 33.2655 45.6112 33.3307C44.7678 33.5902 44.015 34.0606 43.3898 34.5529C43.1235 34.7622 43.7062 35.1047 43.2461 34.9864C43.2148 34.9784 43.137 34.6635 43.0406 34.6789C42.8232 34.7146 42.5028 34.9458 42.3471 34.995C42.048 35.0886 42.0041 35.1129 41.7379 35.2323C41.3707 35.393 40.8773 35.4312 40.5046 35.6468C40.4246 35.6939 40.6517 35.9518 40.5319 36.0546C40.4121 36.1581 40.0317 36.2618 39.8825 36.2302C39.7335 36.1993 39.7093 35.9418 39.6694 35.894C39.3443 35.4879 39.1235 36.2581 39.0669 36.2903C38.1226 36.8508 37.1393 36.6489 36.1778 36.7658C35.4463 36.8555 34.6647 37.0248 33.9531 37.0089C33.9472 37.0088 33.9414 37.0087 33.9355 37.0085C33.0828 36.9837 32.3853 36.7634 31.5715 36.6913C31.4854 36.683 31.538 37.0704 31.4312 37.0605C30.2943 36.9543 29.173 36.6573 28.1817 36.0686C28.0828 36.0092 28.3222 35.7388 28.2312 35.661C27.6565 35.1926 26.9966 34.2116 26.0238 35.3436C25.6223 35.0965 25.14 34.7815 24.9244 34.3253C24.787 34.0319 25.1876 33.846 24.835 33.8195C24.7555 33.8126 24.6766 34.133 24.5681 34.1009C24.1088 33.9635 23.7395 33.6025 23.2693 33.4711C23.1729 33.4448 23.0301 33.6905 22.9785 33.7165C22.5487 33.9191 22.6472 33.1396 22.6168 33.0528C22.3542 32.3833 21.9286 32.2137 21.5104 31.8205C21.4142 31.7289 21.2726 32.1158 21.1696 32.0362C20.6377 31.6183 20.1685 31.0857 19.8662 30.4799C19.8 30.3448 20.1324 30.2337 20.114 30.1589C20.0342 29.8348 19.5207 30.1742 19.4377 29.8609C19.4202 29.7957 19.6588 29.6498 19.6756 29.622C19.9431 29.1908 19.3189 29.4904 19.2782 29.4618C18.7653 29.1248 19.134 28.418 18.7603 28.027C18.7144 27.979 18.4993 28.2938 18.3874 28.1456C17.6394 27.1579 17.1254 25.9145 16.9631 24.6883C16.9374 24.4978 17.2315 24.5306 17.2576 24.5078C17.6679 24.1555 16.9893 24.2767 16.9441 24.2258C16.6083 23.8275 17.0292 23.2452 16.1618 23.1469C15.9406 21.4985 15.4796 19.8842 15.747 18.2391C15.8131 17.8356 15.9233 17.444 16.0922 17.0581C16.1023 17.0335 16.4337 17.1002 16.4523 17.0516C16.6846 16.4713 16.1575 16.5525 15.5693 16.0667C15.4223 15.9399 16.2265 15.7272 16.2862 15.712C16.5058 15.6441 16.9849 15.8154 17.0294 15.7889C17.3801 15.579 15.7424 15.3686 15.808 14.9866C15.8127 14.9754 16.1028 15.0775 16.1381 15.0516C16.2485 14.9721 16.1477 14.8547 16.2685 14.7807C16.5486 14.6109 17.3453 14.7087 16.9615 14.2939C16.9125 14.2399 15.9841 14.0925 16.1087 13.7702C16.1567 13.6431 16.3013 13.0561 16.4105 12.9144C16.5173 12.7719 16.7717 12.9707 16.7878 12.9628C17.3 12.6612 17.4078 12.8717 18.0336 12.8584C18.6561 12.8543 17.3129 12.4502 17.1951 12.3131C17.0774 12.1753 17.4982 11.9856 17.6329 11.9562C17.7675 11.9252 17.9115 12.0838 17.9964 12.0439C18.5535 11.7853 17.4235 11.601 17.2752 11.3742C16.9316 10.8263 18.0037 10.9767 18.2316 10.7357C18.2944 10.6685 18.0497 10.6308 18.0643 10.5498C18.1275 10.2277 18.4994 10.212 18.4075 9.75798C18.391 9.68622 17.9921 9.11747 18.4863 9.18305C18.5568 9.19374 18.7423 9.38918 18.8599 9.30429C19.0354 9.17752 19.2704 8.90697 19.3148 8.68238C19.3478 8.51567 18.8911 8.43206 19.1131 8.33755C19.2119 8.29666 19.3282 8.57143 19.4953 8.48499C19.6609 8.39901 19.8921 8.05342 19.9807 7.92134C20.068 7.78907 19.7571 7.66459 19.7471 7.64139C19.6931 7.50345 19.7612 7.15883 19.7795 7.13717C20.6295 5.99572 21.9173 5.47332 22.8314 4.4978C22.9047 4.42091 22.6359 4.19906 22.6449 4.18458C22.8431 3.84367 23.1832 4.73275 23.5627 4.82147C23.1096 4.29625 23.3019 4.3039 23.4592 4.09209C23.5351 3.98964 23.3227 3.81307 23.3152 3.78438C23.224 3.34537 23.639 3.69682 23.7264 3.76685C24.052 4.02162 23.8917 3.56359 24.1092 3.73596C24.3228 3.90876 24.3916 4.33231 24.582 4.19807C24.5002 3.95443 23.9896 3.51568 24.0862 3.32502C24.4592 2.58592 25.8888 2.37729 26.4135 2.20242C26.9438 2.01383 27.0957 1.90507 27.4308 1.8659C28.0365 1.80421 27.664 1.43324 27.9433 1.09853C28.23 0.766668 28.4338 1.94884 28.565 2.17267C28.6925 2.39816 28.6613 2.13275 28.7633 2.24661C28.864 2.36096 28.7933 2.5655 28.9436 2.57226C29.0912 2.57871 29.3318 2.03609 29.3138 1.7659C29.2697 1.19368 28.9299 0.671488 29.3806 0.766392C29.4062 0.772464 29.412 1.09252 29.5057 1.10066C30.2398 1.15758 30.9494 1.03524 31.6551 1.15533C31.7516 1.17247 31.7141 1.52658 31.7699 1.54063C32.3469 1.69368 32.0794 1.1388 32.3365 0.461945C32.3455 1.32853 32.561 1.83447 32.9694 1.81456C33.218 1.80416 33.1546 1.43057 33.31 1.15838C33.3575 1.07623 33.5458 1.32975 33.5744 1.15208C33.6729 0.571648 33.483 -0.0767674 33.9531 0.177923C33.9533 0.17803 33.9535 0.178136 33.9537 0.178243C33.9609 0.182571 33.9575 0.224783 33.9531 0.278476C33.9474 0.349105 33.9402 0.439599 33.9531 0.489842C33.9582 0.509754 33.9665 0.523346 33.9793 0.526894C34.4253 0.656104 34.4903 0.0506623 34.9946 0.00239646C35.3939 -0.0355175 36.0483 0.397911 36.4669 0.520539C36.3268 1.47981 36.7362 1.31582 37.0168 0.686907C37.2896 0.76184 37.5952 0.784159 37.8412 0.934111C37.9254 0.985372 37.8035 1.24585 37.8083 1.27805C37.8727 1.78084 38.1362 1.17572 38.2027 1.16585C38.9053 1.0865 39.2624 1.71153 40.0078 1.46689C40.0336 1.45789 40.3014 0.83742 40.291 1.35889C40.2883 1.39422 39.9881 1.6087 40.2549 1.73473C40.5259 1.86217 40.8844 2.40172 41.3792 2.28994C41.4971 2.26159 41.9679 1.88011 41.9583 2.35454C41.956 2.41842 41.8429 2.57779 41.8282 2.69094C41.7801 3.05102 42.1551 2.47804 42.0118 3.05707C41.8686 3.6366 41.8967 4.14304 42.4282 3.99498C42.4441 3.991 42.8013 3.57518 42.9048 3.64888C43.0687 3.76569 43.2455 4.01297 43.4186 4.12554C43.5019 4.1794 43.6371 3.86624 43.6549 3.87082C44.3261 4.1016 44.544 4.63953 45.0073 5.19915C45.0897 5.29994 45.6843 5.21241 45.6285 5.65524C45.5606 6.13555 44.2341 7.13857 44.9227 7.26507C45.1874 7.30795 46.9423 6.11665 46.4506 7.19258C47.2466 7.69089 47.2958 8.67292 48.0902 9.20185C48.1255 9.22539 48.6872 9.02282 48.7325 9.11136C48.798 9.24199 48.6053 9.4502 48.6415 9.54622C48.7865 9.95192 49.1772 10.1826 49.3309 10.5706C49.3889 10.7171 49.1124 10.7925 49.1779 10.9646C49.242 11.1352 49.6321 11.0937 49.5704 11.3978C49.5228 11.6294 48.8951 12.0915 48.8991 12.3418C49.5973 12.0752 49.647 12.2376 49.9369 12.4578C49.9929 12.5003 50.2162 12.3524 50.2554 12.3681C50.421 12.4322 50.2527 12.6044 50.4261 12.6612C50.4679 12.6753 50.7103 12.5951 50.7582 12.6026C51.1771 12.6666 50.7235 13.1438 50.6412 13.2195C50.3347 13.5203 50.6786 13.517 50.5754 13.7065C50.4708 13.8928 50.2315 13.7227 50.1893 13.916C50.1014 14.3126 50.2433 14.7502 50.2991 15.1107C50.3228 15.2539 50.6396 15.0943 50.6508 15.1133C50.7929 15.4028 50.4802 15.7594 51.1758 15.8353C49.4637 16.2802 51.3724 15.9962 51.0715 16.4882C51.0468 16.5267 50.2249 16.6487 50.0907 16.5352C49.9567 16.4227 50.1922 16.1999 49.9801 16.0503C49.9303 16.012 49.1273 15.8961 49.076 15.8756C48.6755 15.6995 49.8909 15.4567 49.9558 15.4302C50.6537 15.1478 49.7725 15.0085 49.7008 14.9511C49.3704 14.6661 49.4715 14.3454 49.2134 14.1147C49.0457 13.9648 48.2591 14.171 48.2447 14.0323C48.1955 13.5811 49.2077 13.0353 48.1302 12.9519C47.8997 12.9359 47.1061 13.3414 47.6372 12.7837C47.672 12.7511 48.1678 12.2739 47.7374 12.2982C47.6835 12.3018 47.4462 12.4052 47.417 12.3925C47.2259 12.3064 47.3713 12.127 47.2094 12.0144C47.0477 11.9026 46.8273 11.788 46.8172 11.5782C46.8115 11.4528 47.1648 11.0919 47.2398 10.9832C47.458 10.6732 46.8858 10.7964 47.1907 10.5023C47.4933 10.2006 48.1454 10.0674 48.2256 9.67934C47.6436 10.0163 47.0402 10.3524 46.4538 10.6897C46.1825 10.1958 46.0421 9.60717 45.6635 9.1674C45.6163 9.11383 45.3756 9.393 45.3185 9.34268C45.0804 9.13262 45.1003 8.75411 44.8034 8.57472C44.5725 8.43694 44.1056 8.49933 43.8581 8.38748C44.2929 7.73196 43.8198 7.63752 43.6551 7.39749C43.5963 7.31243 43.7374 7.16304 43.7268 7.06444C43.6802 6.69564 43.3347 7.29668 43.2097 7.33035C42.6814 7.48324 43.6376 6.27512 43.2961 6.05773C43.2763 6.04376 42.5836 6.54915 42.5291 6.57321C42.1628 6.71808 42.6699 6.322 42.5962 6.19388C42.4613 5.96107 42.4238 5.69692 42.0479 5.73868C41.9357 5.75049 41.4986 6.07841 41.5671 5.65766C41.5756 5.60228 41.7262 5.37644 41.7194 5.35376C41.5793 4.96139 41.1409 5.69449 40.8518 5.86249C40.5647 6.03173 40.6099 5.3911 40.6342 5.21344C40.7031 4.75588 40.8209 5.09859 40.8474 5.06443C41.1704 4.65574 40.9462 4.63658 40.8225 4.52647C41.1777 3.76939 40.9421 3.70971 40.6921 4.41558C40.6648 4.4925 40.8109 4.47775 40.8225 4.52647C40.3267 5.19485 40.0931 5.19701 40.164 4.38911C40.1949 4.01052 40.4755 3.67351 40.0485 3.6583C39.8556 3.65313 39.7009 4.21155 39.5023 4.30068C39.0556 4.50685 38.8223 3.85438 38.4469 3.82677C38.3142 3.81791 38.3413 4.15578 38.249 4.16075C38.0067 4.17639 37.874 3.89384 37.6178 3.95309C37.595 3.95901 37.5619 4.29071 37.493 4.27756C36.971 4.18624 36.5554 3.88829 35.9958 3.80281C35.7253 3.76044 35.2254 3.89101 34.9508 3.83755C34.6409 3.77655 34.2922 3.55109 33.9531 3.43586C33.7669 3.37198 33.5889 3.34151 33.4388 3.38811C33.1643 3.47314 33.2419 3.80096 33.1389 4.03113C32.9493 4.47633 32.5046 3.7336 32.4318 3.62059C32.4295 3.61641 32.6578 3.51665 32.5157 3.36008C32.4071 3.01621 32.4338 3.61887 32.4318 3.62059C32.3888 3.5447 31.9057 3.52737 31.822 3.60529C31.7765 3.6467 31.8499 3.95171 31.8258 3.96741C31.2528 4.33498 30.6955 4.53571 30.0606 4.56375C30.0483 4.56067 29.9688 4.21999 29.9407 4.21711C29.5431 4.16992 29.4425 4.65307 29.255 4.98815C29.0658 5.32455 28.8344 5.3252 28.4413 4.83822C28.262 4.9929 27.8581 4.88261 27.6147 4.82055C27.3707 4.75848 27.6462 5.3821 27.6381 5.40087C27.3806 6.01058 26.9531 5.80111 26.4651 6.02643C26.2336 6.13117 25.8718 6.48935 25.6983 6.70793C25.5616 6.88023 25.363 6.82989 25.2694 7.03109C25.2569 7.05808 25.4638 7.28085 25.4646 7.29499C25.5208 7.71108 25.1428 7.06704 25.025 6.99149C24.5965 6.7186 24.3437 6.5924 24.2665 6.95602C24.2458 7.04178 24.806 7.96817 24.7671 8.08801C24.7114 8.24587 24.4937 7.92676 24.4414 8.10212C24.4368 8.1169 24.6 8.28667 24.5238 8.34477C24.1727 8.6165 23.7351 8.87702 23.4491 9.24764C23.4097 9.29731 23.7461 9.47902 23.6953 9.55342C23.4571 9.90224 23.1708 10.2524 22.792 10.4911C22.6977 10.5495 22.5186 10.3484 22.4419 10.3226C21.973 10.1735 22.4305 10.7212 22.4259 10.7526C22.2965 11.5586 21.4733 11.7743 21.4121 12.6188C21.4074 12.6695 21.9566 13.2435 21.3234 13.1366C21.2818 13.1277 20.6285 13.0289 20.9926 13.3084C21.0157 13.3252 21.356 13.3607 21.2701 13.4928C21.1833 13.6279 21.3114 13.9272 20.9005 14.0177C20.7716 14.0439 20.1068 14.0175 20.5395 14.3617C20.5673 14.3917 21.6021 14.9847 20.8049 14.8888C20.6738 14.8731 19.858 14.65 20.2203 14.9956C20.2913 15.0606 20.4936 15.0214 20.5807 15.1667C20.716 15.3862 20.444 15.5852 20.7746 15.8743C20.8327 15.927 21.3706 16.1778 20.9217 16.2397C20.8513 16.25 20.5787 16.1683 20.537 16.234C20.3373 16.5498 20.4856 16.9258 20.2671 17.2565C20.1903 17.3757 19.7399 17.2816 19.61 17.4095C19.4799 17.5373 19.352 17.8099 19.558 17.9569C19.764 18.1009 20.4915 17.9622 20.5477 18.1624C20.555 18.188 20.5618 18.2136 20.5681 18.2391C20.775 19.0642 20.4471 19.9082 20.5436 20.7607C20.5585 20.8889 20.7932 20.7364 20.8344 20.9178C20.9816 21.6036 21.5529 22.6269 21.2802 23.3897C21.0626 24.0173 20.5074 23.5629 20.4942 23.995C20.4931 24.2109 21.3471 24.0477 21.3885 24.0734C21.8132 24.3437 21.6169 24.775 21.9099 25.0611C21.9701 25.1187 22.2286 24.8816 22.2759 24.9311C22.4393 25.0965 22.4327 25.3789 22.5746 25.5475C22.6388 25.6223 22.8477 25.4643 22.8792 25.5488C22.9579 25.7493 22.9734 25.9641 22.8998 26.279C22.8936 26.3084 22.5523 26.3919 22.6396 26.532C22.7803 26.7558 22.7994 27.1733 23.1901 27.2505C23.3073 27.273 23.7611 26.8864 23.5748 27.3005C23.536 27.3866 22.9647 27.8244 23.5797 27.5826C23.686 27.5482 24.5414 27.2431 24.2809 27.7442C24.2122 27.8767 23.8868 28.3816 24.032 28.3944C24.0528 28.3941 24.2348 28.1238 24.3208 28.1639C24.6193 28.3078 24.8398 28.5539 25.1503 28.6844C25.233 28.718 25.3506 28.3836 25.4653 28.44C25.7793 28.5936 26.0608 28.9153 26.2767 29.1929C26.3558 29.2957 26.1287 29.4724 26.1187 29.5019C25.9651 29.9879 26.4104 29.4954 26.4701 29.4892C26.8451 29.4631 26.8738 29.8439 27.1571 29.9153C27.2342 29.9351 27.3444 29.6369 27.3716 29.6204C27.6407 29.4605 27.2609 29.891 27.317 29.9943C27.4753 30.2859 27.7702 30.4122 28.0448 30.5C28.1455 30.5316 28.1976 30.1539 28.2844 30.1849C28.7998 30.3611 29.2989 30.5984 29.7423 30.9557C29.826 31.0236 29.679 31.2696 29.6794 31.3369C29.6863 31.8096 30.0791 31.2914 30.1395 31.2482C30.4269 31.0555 30.4432 31.3157 30.6471 31.32C31.6299 31.3376 32.7588 31.6465 33.6821 31.7598C33.7735 31.7715 33.8638 31.7832 33.9531 31.7945C35.0215 31.927 35.9468 32.0493 36.9853 31.7574C37.0563 31.7373 36.9027 31.3906 36.9614 31.3688C37.7144 31.1053 38.5089 31.0003 39.205 30.5875C39.2617 30.5544 39.0377 30.2668 39.1218 30.2034C39.293 30.0712 39.5371 29.9791 39.7782 29.9846C39.8959 29.9864 39.9048 30.3203 40.0223 30.3156C40.2974 30.3042 40.551 30.1959 40.7473 30.0169C40.8296 29.9404 40.5068 29.711 40.6254 29.637C41.4312 29.1202 42.1177 28.5377 43.1556 28.2171C43.226 28.1956 43.7725 28.6888 43.7856 28.4817C43.6528 28.3271 43.4865 28.1551 43.3391 27.9951C44.2723 26.9343 45.3266 25.9686 46.0485 24.7101C46.0782 24.6579 45.6874 24.5653 45.742 24.465C46.0581 23.878 46.21 23.2676 46.8013 22.7507C46.8593 22.6987 47.494 22.9571 47.4634 22.723C47.4582 22.6818 47.4674 22.3514 47.3469 22.2328C47.3285 22.2162 47.0072 22.1782 47.0259 22.0819C47.1401 21.5215 47.3397 20.9673 47.6225 20.4261C47.6687 20.3384 47.9887 20.4901 48.0247 20.4268C48.2778 19.9701 48.0733 19.4211 48.4037 18.9697C48.6251 18.6638 49.2063 18.803 49.7894 18.638C49.8719 18.6142 49.8883 18.3996 50.2243 18.3905C51.07 18.3661 51.9945 18.4918 52.8961 18.454C53.091 18.4457 52.8827 18.0978 53.3513 18.3048C53.383 18.3192 53.5362 18.5757 53.6935 18.6431C53.8026 18.6901 54.1462 18.6157 54.285 18.7115C54.4234 18.8084 54.1343 18.9016 54.2936 19.0608C54.4542 19.2221 54.8474 19.1687 54.8756 19.4901ZM26.4995 4.582C26.1758 4.38743 26.7394 5.44312 26.7691 5.0996C26.7699 5.08178 26.5156 4.59146 26.4995 4.582ZM46.7678 9.08963C47.0491 8.57632 46.3238 8.90463 46.0984 9.28391C45.8672 9.65605 46.6799 9.24204 46.7678 9.08963ZM48.427 11.1118C48.6642 10.6556 47.1372 11.3966 47.5756 11.505C47.6004 11.5115 48.4129 11.1378 48.427 11.1118ZM49.9099 19.5004C49.9262 19.4991 49.9529 19.345 49.9373 19.3401C49.564 19.2338 49.5115 19.5342 49.9099 19.5004ZM49.785 13.4044C49.9773 13.246 49.6405 13.0645 49.405 13.2644C49.2152 13.4219 49.5455 13.5977 49.785 13.4044ZM18.7621 10.98C18.7446 10.9751 18.6799 11.074 18.7722 11.1147C19.0692 11.2455 19.0549 11.0628 18.7621 10.98ZM50.5178 17.8686C50.5642 17.2152 51.9254 16.6649 51.8125 17.4665C51.7904 17.6074 51.3519 17.1854 51.2342 17.3696C51.0192 17.6935 51.9046 17.8918 51.4339 18.233C51.3484 18.2889 50.513 17.902 50.5158 17.8675C50.5165 17.8678 50.5171 17.8682 50.5178 17.8686ZM25.707 3.37801C25.6957 3.36598 25.5455 3.43326 25.55 3.449C25.6624 3.82163 25.9581 3.68996 25.707 3.37801ZM16.395 17.5311C16.3599 17.5385 16.3173 17.9307 16.3492 17.9444C16.9648 18.1521 17.0512 17.3888 16.395 17.5311ZM36.4701 0.547119C36.7078 0.194479 36.9513 0.187835 37.016 0.68628C36.8371 0.629401 36.6513 0.596408 36.4701 0.547119Z" fill="black"/>
</svg>
