<svg width="67" height="127" viewBox="0 0 67 127" fill="none" xmlns="http://www.w3.org/2000/svg">
<path d="M3.35591 126.105C3.35592 92.1052 -9.10109 47.8744 26.4372 40.8843C99.2566 26.5613 47.499 88.1078 50.1511 122.869C50.4479 124.05 50.5977 125.142 50.5758 126.105C50.3752 125.056 50.2355 123.976 50.1511 122.869C47.6772 113.021 34.9934 96.9523 26.4372 97.6051C11.9372 98.7114 6.83687 117.728 3.35591 126.105Z" fill="white"/>
<path d="M1.34947 123.308C1.26884 121.667 1.24933 119.491 1.24939 117.845C1.24926 117.326 1.36729 117.583 1.37147 117.224C1.37896 116.52 1.29356 115.875 1.30485 115.183C1.30905 114.954 1.4924 115.229 1.49291 114.988C1.49402 113.667 1.37508 112.423 1.3244 111.087C1.07434 104.495 0.597732 98.0174 0.351386 91.2999C0.269762 89.0924 0.327947 86.3981 0.234259 84.0996C0.223059 83.8327 0.0776286 83.9936 0.0648642 83.9429C-0.129399 83.148 0.170968 83.41 0.207268 82.8917C0.351641 80.8105 0.405517 78.5096 0.443909 76.525C0.461423 75.6726 0.125116 76.5122 0.335081 75.6597C0.3495 75.6007 0.493689 75.8259 0.52345 75.5928C0.589541 75.0638 0.629644 74.0641 0.674803 73.6607C0.761656 72.8829 0.772807 72.7395 0.845948 71.9962C0.948748 70.9801 1.16806 69.7854 1.29246 68.6895C1.31849 68.4567 1.11432 68.7403 1.14227 68.3664C1.1688 67.9918 1.3419 67.0221 1.44157 66.6912C1.53856 66.3657 1.63733 66.53 1.67636 66.4765C2.00086 66.039 1.89826 64.8578 1.92394 64.7125C2.36746 62.0251 3.2123 59.8624 4.17988 57.4922C4.90871 55.7086 5.81456 53.8192 6.84015 52.2713C8.06537 50.4271 9.33708 49.0313 10.8811 47.5389C11.0446 47.3831 10.7217 47.4271 10.9231 47.2362C13.088 45.1927 15.6081 43.6027 18.3207 42.5161C18.5917 42.4083 18.3175 42.7129 18.5917 42.6152C20.3047 41.9713 23.0333 41.4605 23.8516 40.5243C24.5869 40.3513 25.4459 40.1733 26.2751 40.06C26.7568 39.9934 27.2143 39.944 27.6188 39.9219C28.3309 39.8844 27.6918 40.1859 28.5249 39.9547C28.712 39.9033 28.4366 39.7926 28.7191 39.7275C29.9088 39.4538 31.187 39.2928 32.2894 39.0423C32.5136 38.991 32.4304 38.8605 32.4908 38.8256C32.9477 38.5464 34.0766 38.7322 34.2721 38.732C35.9252 38.697 37.0518 38.4972 38.4536 38.3704C38.7773 38.342 38.3776 38.1873 38.6884 38.1534C40.4531 37.967 42.3002 37.8808 43.8793 37.9389C44.2326 37.9523 43.9109 38.1195 44.0792 38.1344C44.8777 38.2002 45.0926 37.8944 45.8662 37.9715C46.0295 37.9879 45.9347 38.125 45.9642 38.1408C46.4229 38.3885 46.8243 38.0645 46.942 38.0616C47.6796 38.0392 48.2591 38.1393 48.8148 38.2534C49.4493 38.3746 50.064 38.5132 50.7816 38.5834C50.9534 38.6004 50.5913 38.3734 51.073 38.4328C54.1923 38.8139 57.7247 39.8588 60.2979 41.8887C60.6955 42.204 60.3243 42.0972 60.3413 42.1294C60.5996 42.634 61.0523 42.5746 61.1864 42.6712C62.2679 43.471 62.8046 44.5806 63.6357 45.0927C66.6776 49.945 66.5947 55.7889 65.4996 60.9542C65.4853 61.0215 65.3379 60.875 65.3099 61.0091C64.9571 62.6301 65.2666 62.3143 65.3821 63.4386C65.4108 63.7199 64.8676 64.4588 64.8238 64.525C64.6667 64.7667 64.4803 64.4424 64.4421 64.5263C64.1316 65.2208 64.9645 65.2799 64.7463 66.234C64.7381 66.2635 64.6193 66.1039 64.586 66.1806C64.4823 66.4184 64.4825 66.6797 64.3727 66.9125C64.1188 67.4464 63.6831 67.5464 63.6867 68.4694C63.6883 68.5817 64.1815 68.5527 63.9377 69.3877C63.8428 69.7184 63.4375 71.2176 63.2843 71.6349C63.1341 72.0495 63.0724 71.7175 63.0575 71.7459C62.5372 72.8293 62.5795 72.3832 62.1337 72.8541C61.6875 73.3251 62.4046 73.3716 62.4116 73.6215C62.4186 73.8715 62.012 74.6444 61.8946 74.8302C61.7778 75.0155 61.7638 74.7353 61.6776 74.9054C61.1065 76.0361 61.8476 75.5327 61.8311 75.9604C61.7882 76.9799 61.0718 77.5145 60.7508 78.3438C60.6642 78.5672 60.837 78.4178 60.7819 78.6241C60.5625 79.4387 60.2461 79.8846 60.0892 80.8366C60.0636 80.9921 60.118 81.8238 59.7419 82.2281C59.6881 82.2851 59.6289 82.0526 59.488 82.3844C59.2776 82.8799 58.9436 83.7915 58.8004 84.3561C58.6963 84.7686 59.053 84.375 58.8207 84.8607C58.7172 85.0766 58.7384 84.6194 58.554 85.0284C58.3703 85.4349 58.0145 86.5157 57.8813 86.9286C57.7483 87.3405 57.977 87.1671 57.9762 87.2037C57.9684 87.4242 57.7797 88.2374 57.7564 88.3072C56.6083 91.8219 55.292 94.9723 54.3509 98.4558C54.2773 98.7282 54.4944 98.5965 54.4849 98.6385C54.2812 99.5832 54.0598 98.7261 53.725 99.3303C54.0851 99.3336 53.9126 99.6978 53.7642 100.358C53.6928 100.677 53.8704 100.543 53.8755 100.575C53.9381 101.102 53.5942 101.358 53.5188 101.429C53.2414 101.688 53.3747 102.089 53.1898 102.266C53.0059 102.443 52.9489 101.905 52.7817 102.537C52.8543 102.746 53.2922 102.362 53.2156 102.853C52.9206 104.683 51.8806 108.014 51.5776 109.503C51.2656 110.976 51.2167 111.438 51.0341 112.29C50.7155 113.856 51.0412 113.313 51.0229 114.293C51.0155 115.268 50.4855 114.732 50.3422 114.856C50.2003 114.979 50.3138 115.143 50.2264 115.305C50.1392 115.467 50.0913 115.091 50.0239 115.487C49.954 115.878 50.0863 117.037 50.2126 117.183C50.4749 117.505 50.796 117.032 50.6334 118.082C50.6243 118.142 50.4786 117.937 50.4515 118.169C50.2424 119.995 50.2605 121.958 50.3577 123.83C50.3712 124.089 50.1737 123.878 50.18 124.029C50.2675 125.6 50.4906 125.007 50.9463 125.775C50.7036 125.718 50.5378 125.831 50.4709 126.125L50.6826 126.108C50.7948 125.877 50.8517 125.434 50.7953 124.883C50.7116 124.156 50.5333 124.304 50.3259 123.881C50.2648 123.758 50.2818 123.219 50.175 123.161C49.819 122.94 49.6382 123.472 49.4423 122.284C49.4337 122.233 49.6322 122.347 49.5911 122.172C49.3013 121.024 48.9658 120.989 48.4658 119.83C48.0699 118.913 47.4753 117.232 46.9515 116.211C47.3937 116.004 46.7676 115.093 46.2562 114.885C45.8915 114.228 45.4602 113.56 45.1087 112.927C44.9883 112.711 45.1941 112.772 45.19 112.737C45.1294 112.204 44.6751 112.111 44.5751 111.984C43.5007 110.611 42.8484 109.317 41.6149 108.172C41.5705 108.131 41.2508 108.27 41.1588 107.772C41.1531 107.739 41.6222 108.064 41.1315 107.455C40.6417 106.846 39.7953 105.613 38.9244 104.942C38.7116 104.774 38.0614 104.502 37.8245 103.976C37.7934 103.906 37.9168 103.891 37.8799 103.78C37.7573 103.425 37.393 103.549 37.3052 103.074C37.2091 102.594 36.7461 101.875 35.7479 101.328C35.7144 101.309 35.3519 101.363 35.0739 101.144C34.6381 100.798 34.0344 100.296 33.5485 99.9815C33.3184 99.8326 33.3743 100.069 33.3328 100.046C31.7287 99.1513 30.6319 98.3775 28.7103 97.8378C28.3591 97.7363 27.3128 97.8052 26.6194 97.6768C26.5472 97.6618 26.488 97.6417 26.4381 97.6172C25.943 97.3975 26.3845 96.6416 24.7364 97.0696C23.9789 97.2857 23.3678 98.4779 21.9855 98.4104C19.6786 99.4123 17.5353 100.526 15.8181 102.412C15.7403 102.497 15.6865 102.954 15.499 103.139C15.2206 103.413 14.9743 103.477 14.7762 103.679C13.9471 104.523 13.3621 105.443 12.683 106.352C12.4267 106.699 12.3983 106.494 12.0969 106.916C11.7993 107.338 11.7631 107.726 11.3158 108.268C10.9792 108.677 10.3787 108.937 9.98815 109.531C10.3 109.74 10.0496 110.154 9.7325 110.955C9.67203 111.109 9.86974 111.015 9.84712 111.091C9.75827 111.4 9.52755 111.61 9.45586 111.91C9.43829 111.983 9.5505 112.044 9.54277 112.107C9.48116 112.639 8.8602 113.262 8.75385 113.371C8.34679 113.784 8.3879 114.091 8.14496 114.443C7.90281 114.795 8.07781 114.183 7.83338 114.613C7.32417 115.51 6.83049 116.725 6.43304 117.69C6.2761 118.073 6.54018 117.875 6.52138 117.931C6.24019 118.741 5.75737 119.481 5.90169 120.049C4.87167 120.281 5.79218 120.566 5.19661 121.639C5.14853 121.726 4.7168 121.693 4.79221 121.323C4.86315 120.964 5.19076 120.469 5.28367 119.964C5.30502 119.846 5.19945 119.044 5.21142 118.95C5.31218 118.19 5.93155 118.316 5.97717 118.293C6.48332 118.014 6.41824 117.067 6.47904 116.847C6.7511 115.846 7.18252 115.073 7.4528 114.248C7.63114 113.709 7.28799 113.485 7.48933 113.086C8.17032 111.756 8.90466 111.559 9.1374 110.094C9.19194 109.78 8.65231 109.823 9.49442 109.049C9.54738 108.999 10.2273 108.468 10.301 107.968C10.31 107.905 10.199 107.839 10.2306 107.767C10.4458 107.289 10.7211 107.051 10.9957 106.554C11.2709 106.056 11.608 105.45 12.0378 104.956C12.2967 104.655 12.7991 104.411 12.9624 104.305C13.4262 104.002 13.5855 103.394 13.9599 103.287C14.3339 103.184 14.1379 103.86 14.8104 103.329C14.5865 103.077 14.3856 102.787 14.1767 102.516C15.5143 101.127 17.0546 99.9706 18.7236 98.9508C18.9311 98.8248 18.6243 98.7961 18.8473 98.6571C19.7973 98.0755 20.7351 97.7733 21.7972 97.3352C22.6223 96.9953 23.5286 96.5507 24.4553 96.3343C24.8877 96.5128 25.5889 96.4332 26.3436 96.3779C26.7572 96.346 27.1873 96.3433 27.5517 96.3817C27.9251 96.4239 27.8891 96.5265 28.1469 96.5935C29.1015 96.8749 28.7024 96.4715 28.9841 96.4706C30.1981 96.5364 30.0697 97.3051 31.2431 97.7748C31.3091 97.7972 32.2377 97.7864 32.3556 97.8246C33.0938 98.027 32.3995 98.0066 32.7924 98.2555C33.4835 98.7085 33.9175 99.094 34.7813 99.5486C35.033 99.68 35.7268 99.8685 36.0418 100.369C36.0814 100.433 35.967 100.515 36.0065 100.556C36.7244 101.299 37.0236 101.006 37.5652 101.281C38.114 101.564 38.5903 102.41 38.6624 102.599C38.8624 103.093 38.3287 102.41 38.2942 102.41C37.8958 102.389 38.408 102.802 38.7564 103.173C38.5211 103.525 39.0295 103.996 39.1139 103.555C39.1226 103.506 38.8175 103.259 38.7564 103.173C39.3601 103.188 39.9588 103.711 40.2636 104.599C40.4031 105.015 39.9994 104.873 40.8652 105.721C41.2531 106.108 41.3296 105.759 41.7081 106.076C42.5748 106.805 43.2722 108.104 43.9878 108.996C44.2486 109.32 44.1331 108.901 44.3156 109.12C44.7991 109.703 45.0899 110.318 45.566 110.909C45.6093 110.963 45.6513 110.731 45.7855 110.926C46.8058 112.407 47.5374 113.798 48.427 115.454C48.857 116.244 49.6629 117.685 50.0115 118.563C50.6443 120.091 51.0714 122.109 51.3938 123.521C51.5988 124.435 51.7184 124.225 51.8852 124.627C52.0431 125.013 52.0387 125.643 51.9441 126.136L49.2315 126.362C49.2245 125.913 49.275 125.532 49.2905 125.44C49.2895 125.435 49.4603 126.2 49.4728 125.774C49.6061 125.507 49.2929 125.449 49.2905 125.44C49.3007 125.32 49.1365 123.749 49.0873 123.432C49.0548 123.262 48.9078 123.372 48.8939 123.282C48.5749 121.209 48.5534 119.049 48.7775 116.952C48.7834 116.915 48.9536 116.984 48.9652 116.896C49.1366 115.658 49.0078 114.889 49.0078 113.869C49.0096 112.857 49.1818 112.036 49.5717 111.515C49.6542 110.773 49.9809 109.732 50.1826 109.133C50.3835 108.535 50.0703 108.379 50.0745 108.324C50.214 106.609 50.6247 105.7 51.0877 103.973C51.3026 103.172 51.6823 101.554 51.8948 100.663C52.0617 99.9551 52.2549 99.5697 52.3896 98.923C52.4079 98.8356 52.2374 98.8797 52.2394 98.8519C52.2717 98.095 52.5281 98.5384 52.6341 98.4115C53.0206 97.9513 53.2389 97.6632 53.405 96.7264C53.4434 96.5107 53.1203 95.7456 53.2073 95.3606C53.3219 94.8582 53.4466 95.1003 53.5632 94.5729C53.5734 94.5279 53.4579 94.5017 53.5627 94.1861C54.0483 92.7199 54.6334 91.1385 55.1226 89.6165C55.1899 89.4086 54.9246 89.6162 55.0191 89.3147C55.4617 87.9021 55.9845 86.36 56.5235 85.0248C56.6567 84.6963 56.7105 84.9482 56.7717 84.8877C57.1444 84.5148 57.0313 83.7756 57.0606 83.6673C57.7423 81.1072 58.6714 79.2985 59.3432 76.7118C59.3791 76.5724 59.3656 75.4016 59.8154 75.0108C59.8456 74.9844 60.3003 74.6043 60.2179 74.1225C60.2126 74.0927 59.9648 74.3377 60.1374 73.8304C60.3108 73.3199 60.447 72.4828 60.8284 71.8232C60.9493 71.6129 61.414 71.164 61.3558 70.4253C61.3524 70.3745 61.0791 69.1963 61.5592 68.9394C61.6385 68.8952 62.0292 69.0764 62.0302 68.2182C62.0299 68.0522 61.866 68.3103 61.9147 67.8868C61.9882 67.2391 62.3012 66.4449 62.2911 65.6544C62.2905 65.5107 62.1329 64.9171 62.446 64.4962C62.4948 64.4313 62.6031 64.5981 62.6708 64.3581C62.9943 63.2055 63.1166 62.0544 63.3957 60.8914C63.493 60.4805 63.6867 60.7267 63.8098 60.3021C63.9337 59.8771 64.0983 59.0234 64.0373 58.577C63.9771 58.126 63.5697 58.5864 63.6029 57.9011C63.7226 55.0208 63.8638 52.1526 63.1075 49.5605C62.9897 49.1757 62.9726 49.5271 62.7791 48.9792C62.1587 46.871 59.7439 44.2791 58.1632 43.1754C56.968 42.2465 58.6891 43.0113 57.7306 42.3836C57.2532 42.0815 56.4986 42.2148 56.3664 42.175C54.9713 41.7528 54.2899 41.3691 52.9744 41.1185C52.7082 41.0716 52.9301 41.2955 52.7041 41.2547C51.932 41.1198 51.2643 40.9307 50.5283 40.8445C50.2042 40.8083 50.2477 40.9456 49.9475 40.8993C49.2286 40.7917 48.5334 40.6783 47.903 40.5162C47.8419 40.5013 48.2677 40.3649 47.7547 40.3272C46.9236 40.2678 45.8377 40.1134 44.7697 40.2422C44.4622 40.2814 44.4083 40.5786 43.814 40.3829C43.6847 40.3431 43.8442 39.9783 43.131 40.3083C43.0126 40.3611 41.8027 40.8264 41.1531 40.5992C40.9837 40.5383 40.5365 40.2728 40.1613 40.3469C40.1106 40.358 40.3274 40.5026 40.0158 40.5416C38.832 40.6847 37.9235 40.7565 36.8234 40.9303C36.5384 40.9766 36.9842 41.0926 36.5585 41.1568C35.4196 41.3285 33.748 41.5148 32.6798 41.6278C32.27 41.671 32.5303 41.492 32.4985 41.4817C31.9833 41.315 31.7466 41.686 31.5891 41.7308C30.605 42.0067 29.7954 41.9904 28.8331 42.2072C28.567 42.2669 28.7853 42.3861 28.7345 42.4097C28.2045 42.6462 28.5671 42.2931 28.2086 42.3283C27.7461 42.3738 27.2578 42.4479 26.7625 42.5382C26.2109 42.6383 25.6719 42.7652 25.1739 42.8959C24.8367 42.9854 25.2595 43.0692 24.9584 43.1479C23.2056 43.6122 21.393 44.1885 19.6925 44.8301C19.3786 44.9484 19.5141 44.7354 19.4372 44.7347C18.8975 44.7295 18.4139 45.3076 18.2752 45.4126C17.6694 45.8735 17.3634 45.904 16.8179 46.251C14.126 47.9258 11.2339 50.5488 9.5071 53.0088C7.24539 56.1897 5.93977 59.0573 4.92919 62.7517C4.86734 62.9855 5.11085 62.7994 5.06036 63.0011C4.39714 65.6382 3.86917 68.2496 3.60314 71.0042C3.58175 71.227 3.7933 70.9266 3.76539 71.2846C3.70962 72.0175 3.61025 72.9617 3.4949 73.709C3.43927 74.0697 3.32662 73.5707 3.27395 73.9348C3.1516 74.7831 3.08168 75.7127 3.06763 76.6087C3.0626 76.9838 3.26876 76.4273 3.24862 76.9139C3.11894 80.264 3.16187 83.5497 3.02718 86.9742C3.01806 87.2079 2.65765 87.4242 2.74467 87.9208C2.8476 87.955 2.96711 87.9489 3.07632 87.9615C3.30384 92.8781 3.51082 97.7686 3.84096 102.729C3.85495 102.939 4.02311 102.564 4.05121 102.969C4.214 105.312 4.43181 107.589 4.39872 110.007C4.39564 110.247 4.04697 110.147 4.14438 110.848C4.16211 110.971 4.27509 112.027 4.3657 112.296C4.37915 112.333 4.5264 112.13 4.55208 112.47C4.69887 114.46 4.77621 116.544 4.76249 118.541C4.75985 118.862 4.57599 118.528 4.57256 118.757C4.54975 120.38 4.73215 122.141 4.6021 123.704C4.51319 124.749 4.21386 124.366 3.93041 124.919C3.89065 124.997 3.88766 125.636 3.71931 125.669C3.29689 125.754 2.83293 125.449 2.38281 125.577C2.28639 125.604 2.39154 126.446 2.15667 125.948C2.14124 125.913 2.06138 125.302 1.98044 125.151C1.9247 125.047 1.75509 125.237 1.68313 125.024C1.61112 124.81 1.75237 124.573 1.66509 124.217C1.57631 123.861 1.38504 124.022 1.34947 123.308ZM51.1174 106.48C51.4048 105.96 50.8419 105.741 50.8414 106.378C50.8422 106.409 51.103 106.507 51.1174 106.48ZM17.3741 100.42C18.1395 100.178 18.3672 99.5751 17.7979 99.7115C17.2235 99.8601 17.1379 100.499 17.3741 100.42ZM12.1184 106.239C12.7984 105.651 12.2049 105.029 11.781 105.904C11.7564 105.956 12.0787 106.274 12.1184 106.239ZM3.80686 122.365C3.79924 122.374 3.80175 122.831 3.8097 122.842C4.00507 123.082 4.00005 122.166 3.80686 122.365ZM8.4462 113.003C8.66614 112.807 8.89576 112.047 8.61776 112.286C8.39201 112.48 8.17022 113.247 8.4462 113.003ZM60.4656 78.2769C60.4769 78.271 60.5855 77.9603 60.5354 77.9512C60.3742 77.9227 60.2773 78.3725 60.4656 78.2769ZM3.54992 125.051C4.27492 123.286 5.33992 122.43 4.51964 124.363C4.37106 124.71 4.60318 123.521 4.37141 123.949C3.9534 124.717 4.14224 125.449 3.58406 126.183C3.48163 126.322 3.51195 125.144 3.55024 125.048C3.55013 125.049 3.55003 125.05 3.54992 125.051ZM51.8912 106.322C51.9012 106.313 52.013 105.87 52.0082 105.857C51.8801 105.572 51.6542 106.466 51.8912 106.322ZM65.5058 59.709C65.5288 59.6842 65.6616 58.6451 65.6462 58.612C65.3973 58.0427 65.1323 60.1257 65.5058 59.709ZM46.9544 116.189C46.552 115.843 46.2473 115.348 46.2572 114.887C46.4917 115.317 46.7305 115.748 46.9544 116.189Z" fill="black"/>
<circle cx="29.8899" cy="17.6051" r="17" fill="white"/>
<path d="M48.8362 18.7393C48.8517 19.4109 48.6937 20.2789 48.4996 20.9191C48.4394 21.1194 48.3539 20.9968 48.3069 21.1327C48.2146 21.3965 48.2109 21.663 48.1001 21.9191C48.0628 22.0035 47.9255 21.8551 47.8902 21.9438C47.6973 22.4277 47.6052 22.9083 47.4073 23.3947C46.4323 25.7782 45.0936 27.9379 43.3191 29.784C42.7337 30.396 41.8922 30.9866 41.2637 31.5805C41.1903 31.6504 41.3298 31.727 41.3225 31.7486C41.201 32.0845 41.0942 31.7885 40.9149 31.8783C40.2021 32.2343 39.4842 32.698 38.8643 33.1213C38.6002 33.301 39.0232 33.3975 38.6606 33.4129C38.6357 33.4141 38.6303 33.238 38.5459 33.2658C38.3551 33.3297 38.0375 33.5278 37.8943 33.5847C37.6191 33.694 37.5762 33.7161 37.3229 33.8315C36.9744 33.9877 36.5291 34.0902 36.1603 34.2664C36.0814 34.3045 36.2465 34.4142 36.1244 34.4887C36.0026 34.5639 35.647 34.6734 35.516 34.6756C35.3853 34.6786 35.3971 34.542 35.3672 34.5213C35.1225 34.3457 34.8183 34.7881 34.7646 34.8108C33.8345 35.2195 32.9401 35.1964 32.0166 35.3085C31.3166 35.3936 30.5677 35.4983 29.8899 35.49C29.8843 35.4899 29.8787 35.4899 29.8731 35.4898C29.061 35.4761 28.3882 35.3447 27.6099 35.2621C27.5278 35.2528 27.5999 35.4525 27.4988 35.4413C26.4235 35.3209 25.3656 35.0599 24.3856 34.6088C24.2875 34.5633 24.4698 34.4485 24.3758 34.3938C23.7907 34.0658 23.0032 33.386 22.3499 33.8711C21.9571 33.659 21.4876 33.3835 21.215 33.062C21.0402 32.8551 21.3432 32.8212 21.0372 32.7328C20.9684 32.7122 20.9668 32.8947 20.8689 32.8529C20.4555 32.6755 20.075 32.3683 19.6671 32.1809C19.5838 32.143 19.522 32.2726 19.4862 32.2785C19.1876 32.321 19.1007 31.8291 19.0562 31.7628C18.701 31.2556 18.3304 31.0373 17.9267 30.6633C17.8336 30.5761 17.8159 30.8185 17.7212 30.7389C17.2314 30.3227 16.777 29.8289 16.43 29.3006C16.3534 29.1828 16.5596 29.1735 16.5296 29.1121C16.3987 28.8436 16.1222 28.9894 15.9964 28.7284C15.9699 28.6737 16.0992 28.6132 16.1044 28.5953C16.1877 28.3165 15.8329 28.4106 15.7999 28.3798C15.3844 28.0021 15.472 27.5108 15.1469 27.1026C15.1075 27.0531 15.0369 27.2681 14.9349 27.1221C14.2542 26.1491 13.7262 24.9868 13.4459 23.8469C13.4022 23.6696 13.5713 23.7446 13.5824 23.728C13.7559 23.4675 13.3974 23.4736 13.3653 23.4213C13.1225 23.0097 13.2725 22.517 12.7983 22.3202C12.4842 20.7571 12.153 19.1891 12.2868 17.6051C12.3199 17.2146 12.381 16.834 12.4777 16.4533C12.4835 16.429 12.6478 16.4839 12.6587 16.4356C12.7964 15.8571 12.5294 15.9542 12.256 15.5204C12.1877 15.409 12.6091 15.1576 12.6411 15.1372C12.7576 15.0567 12.9902 15.1907 13.0147 15.1618C13.2092 14.9281 12.3865 14.843 12.4494 14.4781C12.4527 14.4671 12.5937 14.5409 12.6139 14.5134C12.6772 14.4283 12.6351 14.3248 12.7041 14.2437C12.8642 14.0582 13.2694 14.0703 13.1126 13.7094C13.0927 13.6631 12.6207 13.6187 12.7205 13.3047C12.7584 13.1803 12.9046 12.6177 12.9829 12.4731C13.059 12.3276 13.1706 12.478 13.1803 12.4687C13.4992 12.1176 13.5296 12.2988 13.8754 12.1923C14.2206 12.0908 13.5398 11.9164 13.495 11.8075C13.45 11.6982 13.7139 11.4589 13.7952 11.409C13.8761 11.3583 13.9311 11.4816 13.9856 11.4302C14.3461 11.0938 13.7353 11.118 13.6886 10.9366C13.5828 10.5029 14.1743 10.4547 14.3562 10.1915C14.4061 10.1193 14.2686 10.1319 14.2925 10.057C14.3905 9.75997 14.6177 9.67116 14.6538 9.29313C14.6588 9.23243 14.5271 8.82649 14.82 8.78187C14.8617 8.77624 14.936 8.90511 15.0275 8.80723C15.164 8.66108 15.3732 8.37824 15.4523 8.17969C15.5108 8.03257 15.2342 8.06372 15.3983 7.93644C15.4715 7.88054 15.4855 8.0836 15.6138 7.97383C15.7409 7.86425 15.9744 7.5248 16.0654 7.39673C16.1552 7.26839 15.9745 7.24022 15.9732 7.22358C15.9687 7.12399 16.0935 6.8337 16.111 6.81272C16.9462 5.72084 18.0235 5.02214 18.9815 4.12699C19.0575 4.0567 18.8969 3.96699 18.9074 3.95489C19.1421 3.67632 19.205 4.20581 19.4902 4.17542C19.2498 3.92366 19.4021 3.88301 19.5788 3.70415C19.6641 3.61789 19.5321 3.5487 19.5327 3.53115C19.5573 3.25986 19.8146 3.40054 19.871 3.42648C20.0811 3.52042 20.0527 3.25564 20.1941 3.3197C20.3335 3.38406 20.2928 3.64643 20.4852 3.51386C20.4716 3.3738 20.144 3.20267 20.2663 3.05803C20.7297 2.49776 21.9937 2.09016 22.5029 1.89256C23.0122 1.68468 23.1696 1.59828 23.4824 1.51982C24.0495 1.38612 23.7668 1.23834 24.0718 1.01137C24.382 0.78786 24.4029 1.40716 24.4925 1.51079C24.5798 1.61562 24.5901 1.47435 24.6706 1.5217C24.7504 1.56937 24.6513 1.69218 24.7958 1.67328C24.939 1.65358 25.2492 1.32628 25.2654 1.18468C25.2959 0.88417 25.0392 0.645949 25.4508 0.643719C25.4744 0.643959 25.4424 0.813058 25.5304 0.806431C26.2224 0.75055 26.9219 0.622172 27.6074 0.638113C27.7015 0.640647 27.6417 0.823082 27.6963 0.826626C28.263 0.869369 28.0306 0.604373 28.3112 0.250942C28.2817 0.687809 28.4731 0.930773 28.8901 0.907741C29.1428 0.895425 29.0882 0.710101 29.2485 0.57063C29.2969 0.528506 29.4814 0.652689 29.5121 0.563622C29.6156 0.272701 29.435 -0.0515798 29.8899 0.0744962C29.8901 0.0745495 29.8903 0.0746028 29.8905 0.0746564C29.8975 0.0768207 29.8941 0.0979265 29.8899 0.124772C29.8843 0.160087 29.8772 0.205335 29.8899 0.230456C29.8949 0.240412 29.903 0.247208 29.9155 0.248991C30.3543 0.315269 30.412 0.0128817 30.8958 0.00034833C31.278 -0.00962049 31.9271 0.237577 32.3415 0.329099C32.267 0.80771 32.6653 0.754454 32.884 0.454285C33.1531 0.51468 33.4477 0.554085 33.698 0.657622C33.7838 0.693083 33.6941 0.816865 33.702 0.834202C33.8187 1.10473 34.007 0.816215 34.0684 0.818231C34.7251 0.855006 35.1491 1.24286 35.8041 1.22179C35.827 1.22096 35.9771 0.916271 36.0473 1.2052C36.0508 1.22473 35.8078 1.29692 36.0735 1.40989C36.3414 1.52333 36.7667 1.89509 37.1914 1.92291C37.2934 1.92862 37.6372 1.7896 37.7183 2.07045C37.7287 2.10818 37.6596 2.18152 37.6688 2.24647C37.6981 2.45369 37.9147 2.1822 37.9052 2.50467C37.8954 2.82743 38.039 3.15006 38.4745 3.1772C38.4879 3.17846 38.7066 2.99438 38.8115 3.06387C38.9781 3.17417 39.1852 3.37398 39.3576 3.48821C39.4404 3.54286 39.4817 3.36854 39.4977 3.37565C40.109 3.67934 40.4082 4.09118 40.9135 4.60118C41.005 4.69369 41.4441 4.77383 41.5089 5.082C41.5761 5.41795 40.8111 5.81879 41.3838 6.10642C41.6074 6.2193 42.5993 5.74072 42.5074 6.45239C43.2032 7.03922 43.4797 7.86336 44.121 8.5076C44.1496 8.53644 44.4649 8.48937 44.5126 8.57429C44.5827 8.69998 44.5062 8.83736 44.5502 8.92884C44.7307 9.31406 45.0188 9.59997 45.1871 9.97679C45.2506 10.1196 45.1005 10.1329 45.1735 10.3024C45.2453 10.4711 45.4665 10.5061 45.4863 10.773C45.5005 10.9757 45.2235 11.2937 45.2717 11.5357C45.6224 11.4068 45.6799 11.5682 45.8771 11.8225C45.9152 11.8714 46.0161 11.7678 46.0404 11.7888C46.1424 11.8741 46.0755 12.0098 46.1795 12.0892C46.2046 12.1087 46.326 12.0692 46.3534 12.0831C46.5922 12.2015 46.4098 12.5838 46.3758 12.6462C46.2508 12.8911 46.4352 12.934 46.4037 13.102C46.3711 13.2684 46.222 13.0738 46.2239 13.256C46.2273 13.6311 46.3508 14.0803 46.4129 14.4429C46.4385 14.5875 46.5875 14.4579 46.5951 14.4778C46.6944 14.7734 46.5614 15.1061 46.9206 15.2278C46.0784 15.5558 47.0327 15.3995 46.9056 15.8646C46.8949 15.9009 46.4863 15.984 46.4124 15.861C46.3386 15.7385 46.4447 15.5269 46.3263 15.3609C46.2987 15.3201 45.8793 15.1391 45.8508 15.1118C45.6297 14.8914 46.2333 14.7516 46.2647 14.7313C46.6003 14.5109 46.1304 14.2921 46.0861 14.2239C45.8832 13.9006 45.8969 13.5895 45.7278 13.325C45.6175 13.1528 45.2213 13.2465 45.192 13.1014C45.0921 12.6247 45.5685 12.2641 44.9447 11.9903C44.8105 11.9327 44.4336 12.1842 44.6296 11.7284C44.6427 11.7008 44.8376 11.3319 44.5897 11.269C44.5587 11.2614 44.4401 11.3134 44.4201 11.2946C44.2883 11.1685 44.3362 11.0237 44.2134 10.8782C44.0908 10.7333 43.928 10.5691 43.8711 10.3644C43.8371 10.2414 43.9725 9.98449 43.9943 9.90158C44.0593 9.66597 43.7243 9.64221 43.8479 9.44619C43.9701 9.24603 44.3534 9.27563 44.3167 8.95258C44.0228 9.11629 43.7145 9.27339 43.4167 9.43439C43.1102 8.90557 42.8563 8.34387 42.4645 7.86281C42.4157 7.80368 42.3211 7.97631 42.2655 7.91654C42.032 7.66586 41.9382 7.3522 41.662 7.11893C41.4476 6.93898 41.1024 6.85122 40.8689 6.68508C41.0198 6.28956 40.6173 6.08177 40.4095 5.85043C40.3363 5.7688 40.4098 5.69676 40.3731 5.61989C40.2308 5.33221 40.1137 5.68126 40.0184 5.66994C39.6122 5.62719 40.0785 5.01269 39.7352 4.76985C39.7163 4.75558 39.2569 4.92308 39.2138 4.92383C38.9307 4.92321 39.2677 4.78601 39.1681 4.67652C38.9856 4.47779 38.8858 4.28965 38.5589 4.21992C38.4623 4.19937 38.1457 4.30094 38.0994 4.0419C38.0931 4.00781 38.1743 3.89843 38.1624 3.88194C37.9378 3.59331 37.7139 3.95837 37.4797 3.99166C37.2462 4.02556 37.1284 3.63144 37.1115 3.52802C37.0706 3.2606 37.2626 3.50023 37.2797 3.48553C37.4889 3.30629 37.2744 3.24239 37.1332 3.14771C37.2994 2.7632 37.0702 2.67872 36.9856 3.05144C36.9765 3.09209 37.1115 3.11528 37.1332 3.14771C36.8156 3.44687 36.5766 3.38808 36.4748 2.92256C36.4257 2.7049 36.6276 2.5618 36.217 2.47041C36.0311 2.43068 35.9884 2.72412 35.8096 2.73673C35.4043 2.76673 35.0485 2.35546 34.6673 2.28196C34.5311 2.25594 34.6127 2.44584 34.5188 2.43369C34.2708 2.40296 34.0915 2.23002 33.8339 2.22644C33.8108 2.22643 33.8228 2.39953 33.7482 2.38277C33.1826 2.2608 32.7054 2.05838 32.1004 1.96947C31.8084 1.92526 31.276 1.961 30.9747 1.92419C30.6352 1.88097 30.2528 1.76092 29.8899 1.70347C29.6901 1.67151 29.5008 1.65831 29.3393 1.68456C29.0438 1.73309 29.1177 1.89612 28.9979 2.0147C28.7713 2.24378 28.3183 1.89338 28.2509 1.84065C28.2489 1.83843 28.4985 1.77569 28.3552 1.70424C28.2588 1.53632 28.2535 1.83964 28.2509 1.84065C28.2086 1.80379 27.6958 1.82772 27.6009 1.87558C27.549 1.9005 27.602 2.05064 27.5748 2.06072C26.9266 2.29791 26.2908 2.47461 25.6168 2.58981C25.6044 2.59005 25.5741 2.41702 25.5453 2.41978C25.1411 2.45534 24.9598 2.74 24.6996 2.96606C24.4388 3.19325 24.1924 3.24557 23.8993 3.04176C23.6865 3.16932 23.3094 3.19235 23.0886 3.20866C22.8674 3.22482 22.9914 3.54406 22.9787 3.55759C22.5797 3.9974 22.2126 3.97684 21.701 4.25215C21.4575 4.38159 21.0303 4.72385 20.8132 4.92824C20.6414 5.08885 20.4807 5.10976 20.3409 5.28223C20.3221 5.30547 20.4382 5.40701 20.4348 5.41705C20.3597 5.7059 20.2204 5.34515 20.1402 5.3241C19.8494 5.24897 19.6755 5.22355 19.5093 5.51446C19.4694 5.58246 19.6647 6.11993 19.5931 6.22737C19.4974 6.36812 19.414 6.18507 19.3175 6.3383C19.3093 6.35134 19.392 6.43494 19.3109 6.50485C18.936 6.83048 18.51 7.17841 18.181 7.58108C18.136 7.63563 18.3367 7.68834 18.2747 7.76855C17.984 8.14482 17.6639 8.55049 17.3274 8.8819C17.244 8.96331 17.1771 8.83004 17.1309 8.82848C16.8482 8.8236 17.011 9.1976 16.998 9.22996C16.6773 10.0302 16.0911 10.4562 15.8612 11.3168C15.8477 11.3658 16.0417 11.8382 15.6921 11.8682C15.669 11.8695 15.309 11.9027 15.4631 12.1162C15.473 12.1292 15.6627 12.0949 15.5855 12.2517C15.5078 12.4101 15.52 12.7061 15.2737 12.8785C15.1963 12.9319 14.8335 13.0134 15.0151 13.3062C15.0263 13.3288 15.4916 13.8127 15.0766 13.8321C15.0085 13.8352 14.6025 13.7119 14.7489 14.0305C14.7779 14.0909 14.8907 14.0206 14.9173 14.1669C14.959 14.3896 14.7918 14.6392 14.9324 14.9237C14.957 14.9745 15.2079 15.2042 14.9709 15.3191C14.9337 15.3373 14.8011 15.2717 14.7737 15.3486C14.6427 15.7162 14.6925 16.1267 14.5682 16.5071C14.5246 16.6432 14.3019 16.557 14.2322 16.7008C14.1622 16.8449 14.0922 17.1406 14.1939 17.2979C14.2956 17.4536 14.6604 17.2927 14.6873 17.5184C14.6909 17.5473 14.6942 17.5762 14.6974 17.6051C14.8009 18.5454 14.6848 19.4904 14.8296 20.4347C14.8521 20.5777 14.9566 20.4361 15.0002 20.6429C15.153 21.417 15.663 22.6517 15.6771 23.3823C15.6851 23.9765 15.2598 23.3966 15.3434 23.8268C15.3869 24.0381 15.8647 24.0667 15.8969 24.104C16.2214 24.4787 16.2084 24.8572 16.472 25.2078C16.5265 25.2793 16.6318 25.1189 16.6763 25.18C16.8291 25.3866 16.9041 25.656 17.049 25.8552C17.1144 25.944 17.2127 25.8556 17.2595 25.9448C17.3732 26.1575 17.4493 26.363 17.4898 26.6267C17.4938 26.651 17.2755 26.6275 17.378 26.7781C17.5438 27.0204 17.6766 27.3874 17.9915 27.5683C18.0857 27.6216 18.3136 27.4303 18.2982 27.7268C18.2954 27.7885 17.9882 27.9841 18.3878 27.9661C18.456 27.9665 19.0411 27.9844 18.9913 28.3155C18.978 28.4032 18.8692 28.71 18.9893 28.7627C19.0062 28.7689 19.0714 28.6086 19.1537 28.6669C19.4419 28.8739 19.7026 29.1333 20.0099 29.3268C20.0919 29.3779 20.0901 29.1598 20.2082 29.2388C20.532 29.4554 20.889 29.7816 21.1714 30.0423C21.2753 30.1387 21.1173 30.1959 21.117 30.214C21.1156 30.5094 21.3835 30.2933 21.4387 30.3071C21.7839 30.3989 21.9214 30.6657 22.2136 30.7896C22.2938 30.8237 22.3194 30.6575 22.3412 30.654C22.5621 30.6238 22.3079 30.8021 22.3907 30.8849C22.6238 31.118 22.9451 31.2723 23.2436 31.394C23.353 31.4381 23.3126 31.2174 23.4091 31.2583C23.981 31.4962 24.5681 31.7498 25.1122 32.0348C25.2149 32.0888 25.1031 32.1992 25.116 32.237C25.2071 32.5022 25.5322 32.2818 25.5922 32.2688C25.8712 32.2116 25.9328 32.3559 26.1552 32.3888C27.2355 32.5506 28.5489 32.8004 29.5849 32.8638C29.6879 32.8708 29.7895 32.8771 29.8899 32.8828C31.0933 32.9459 32.1019 32.9466 33.265 32.6603C33.3448 32.6403 33.2233 32.4771 33.2908 32.4575C34.1593 32.2134 35.0311 32.0073 35.8444 31.6028C35.9109 31.5699 35.7439 31.4498 35.8473 31.3917C36.0586 31.2714 36.3371 31.1527 36.5816 31.0936C36.7007 31.0644 36.6243 31.2718 36.7437 31.239C37.0224 31.1623 37.2981 31.0278 37.5367 30.857C37.6375 30.7841 37.3862 30.7218 37.523 30.6395C38.4527 30.0715 39.2812 29.421 40.2543 28.842C40.3205 28.8025 40.6212 29.024 40.6927 28.8581C40.6312 28.7762 40.5478 28.6904 40.4762 28.6084C41.5837 27.4608 42.65 26.2682 43.433 24.8527C43.4656 24.7934 43.2396 24.8044 43.3011 24.6901C43.6563 24.0236 43.8972 23.3431 44.3361 22.6778C44.3791 22.6114 44.6898 22.7615 44.7146 22.5249C44.7195 22.4834 44.7817 22.1369 44.7347 22.0306C44.7274 22.016 44.557 22.0301 44.5837 21.9234C44.7413 21.3014 44.9226 20.6611 45.1194 20.0393C45.1514 19.9386 45.302 20.075 45.3263 20.0029C45.4972 19.4892 45.4261 18.9012 45.6046 18.3983C45.7235 18.0613 46.0109 18.1989 46.3054 18.0182C46.3472 17.9925 46.3573 17.7703 46.5251 17.7598C46.9481 17.7323 47.4098 17.8509 47.8609 17.8091C47.9586 17.8002 47.8548 17.4719 48.0889 17.6668C48.1049 17.6804 48.1804 17.9204 48.2584 17.9815C48.3125 18.024 48.485 17.9524 48.5536 18.0393C48.6219 18.1267 48.4762 18.2161 48.5533 18.36C48.6307 18.5051 48.8292 18.4492 48.8362 18.7393ZM22.0896 3.31435C21.8385 3.2663 22.1071 3.80152 22.2185 3.57638C22.2236 3.5649 22.1023 3.31655 22.0896 3.31435ZM43.2152 8.09036C43.2782 7.72543 42.8603 7.81716 42.8038 8.08206C42.744 8.34366 43.1947 8.19965 43.2152 8.09036ZM44.7539 10.2852C44.8029 9.91772 44.0282 10.2664 44.3223 10.4698C44.339 10.4817 44.7509 10.3064 44.7539 10.2852ZM46.3423 18.9049C46.3507 18.9029 46.37 18.7436 46.3622 18.7392C46.1788 18.6422 46.1406 18.9569 46.3423 18.9049ZM45.9374 12.7046C46.0198 12.5791 45.8082 12.3546 45.7091 12.5123C45.6294 12.6374 45.8352 12.859 45.9374 12.7046ZM14.6233 10.3098C14.6138 10.3087 14.5562 10.4115 14.6029 10.4308C14.753 10.4925 14.7812 10.3271 14.6233 10.3098ZM46.6701 17.2298C46.6839 16.5602 47.3468 16.0755 47.3118 16.8511C47.3038 16.9891 47.0746 16.5649 47.0199 16.7431C46.9198 17.0622 47.3652 17.2663 47.1303 17.5991C47.0879 17.6563 46.6688 17.266 46.6691 17.2287C46.6695 17.2291 46.6698 17.2294 46.6701 17.2298ZM21.642 2.74072C21.6345 2.73561 21.4881 2.80938 21.4886 2.8183C21.5062 3.02637 21.7977 2.87962 21.642 2.74072ZM12.6176 16.9084C12.5994 16.9165 12.5728 17.3022 12.5891 17.3153C12.8942 17.5181 12.9478 16.7531 12.6176 16.9084ZM32.3463 0.342843C32.5529 0.178801 32.7808 0.192435 32.8832 0.453902C32.7063 0.410307 32.5247 0.379866 32.3463 0.342843Z" fill="black"/>
</svg>
