<svg width="63" height="127" viewBox="0 0 63 127" fill="none" xmlns="http://www.w3.org/2000/svg">
<path d="M37.7091 41.9706C-33.0157 41.9706 22.9842 51.7391 22.9842 82.7391C22.9842 113.739 14.5016 130.739 37.7092 124.942C36.2092 103.942 36.3119 106.807 42.1279 110.442C50.1279 115.442 37.9767 118.773 42.1279 124.942C63.4842 128.239 54.0974 117.739 54.0974 87.7391C69.0974 45.2391 52.5084 41.9706 37.7091 41.9706Z" fill="white"/>
<path d="M18.9021 80.4369C18.6634 79.0885 18.4029 77.3432 18.1216 75.9821C18.035 75.5587 18.3035 75.6989 18.247 75.3975C18.1321 74.805 17.8374 74.3223 17.7017 73.7406C17.6568 73.5466 18.0616 73.6429 18.0063 73.4407C17.6908 72.3186 17.1291 71.3781 16.607 70.3043C14.0229 64.9936 9.8852 60.5252 5.45103 55.8275C4.00695 54.2379 2.35061 52.2617 0.844079 50.0418C0.673064 49.7749 0.509692 50.0824 0.458378 50.0414C0.0630133 49.7093 0.0343683 49.4957 0.0767369 49.3171C0.123028 49.1387 0.236959 48.9929 0.153713 48.6315C0.00721943 47.9773 -0.115002 46.9605 0.183705 46.0284C0.492769 45.0321 1.09452 44.3617 1.74319 43.8501C2.30132 43.4156 2.9316 43.0864 3.4771 42.8388C3.97473 42.6116 4.52124 42.3991 5.07166 42.2065C5.84681 41.9356 4.88446 41.5918 5.80166 41.6893C5.86552 41.6961 5.73062 42.053 5.96752 42.0277C6.50208 41.9659 7.55913 41.6952 7.90302 41.6622C8.66039 41.5788 8.79025 41.5555 9.56574 41.4456C10.5607 41.3113 11.6563 41.3405 12.8089 41.159C13.0453 41.1205 12.7182 40.8289 13.0645 40.7417C13.3886 40.6558 14.3089 40.6054 14.6391 40.6566C14.9655 40.7074 14.8484 40.9695 14.9095 41.0228C15.4046 41.4732 16.517 40.7218 16.6723 40.6964C19.0529 40.2628 21.4533 40.5529 23.7759 40.4839C25.7198 40.4259 27.5048 40.2641 29.2835 40.256C31.4832 40.2475 33.0574 40.4099 35.1009 40.3719C35.3151 40.3683 35.0624 39.9919 35.3247 39.9868C36.1045 39.9719 36.8991 39.965 37.7091 39.9689C39.7144 39.9791 41.7474 40.1087 43.7719 40.4984C44.0534 40.5535 43.6541 40.845 43.9313 40.92C45.6586 41.3499 48.1076 42.5242 49.5398 41.4883C50.697 41.8908 52.1029 42.5307 52.9377 43.3209C53.4718 43.8319 52.6953 43.8007 53.5145 44.1059C53.6985 44.1791 53.647 43.7747 53.9142 43.9094C55.0455 44.4821 56.0658 45.4552 57.0333 46.2754C57.2327 46.4438 57.3962 46.2039 57.4844 46.2259C58.2376 46.4386 58.3184 47.7012 58.3937 47.9129C59.0164 49.5044 59.6546 50.5525 60.1489 51.9765C60.2623 52.3176 60.4861 51.7901 60.6084 52.1203C61.2184 53.7856 61.5259 55.6793 61.5124 57.3356C61.5096 57.7179 61.1546 57.3996 61.1362 57.5828C61.0541 58.4024 61.6714 58.4997 61.571 59.265C61.5495 59.425 61.2691 59.3447 61.2397 59.3747C60.7769 59.8363 61.4575 60.223 61.4733 60.3463C61.6818 61.7674 60.929 62.7318 60.9244 64.0847C60.9233 64.2531 61.3047 63.9025 61.2793 64.377C61.1096 67.5067 60.4364 70.7498 59.4782 73.6889C59.3291 74.1466 59.1484 73.7544 59.1096 73.7787C58.5101 74.1199 59.1006 74.575 59.0899 74.7298C58.9918 75.9334 58.1301 76.9685 58.7085 77.9285C57.5527 81.4221 56.6501 84.7583 55.3109 88.1674L55.3842 87.7391C55.3278 89.2911 55.2406 90.7844 55.0695 92.3207C55.0631 92.3845 54.7245 92.2812 54.7132 92.4085C54.5775 93.9339 55.0906 93.6538 55.7717 94.6297C55.9431 94.8786 55.214 95.6734 55.1624 95.7558C54.9689 96.0233 54.4566 95.7847 54.4211 95.8728C54.1455 96.6007 55.7843 96.394 55.8431 97.323C55.8423 97.3522 55.5316 97.2497 55.5064 97.3295C55.4275 97.5784 55.5635 97.8067 55.4754 98.0507C55.2729 98.6247 54.4876 98.886 55.0166 99.6848C55.0854 99.7855 56.004 99.552 56.0268 100.382C56.0356 100.733 56.1793 102.194 56.1583 102.609C56.1373 103.036 55.8103 102.775 55.8001 102.806C55.51 103.972 55.3053 103.558 54.7724 104.173C54.2423 104.786 55.6216 104.485 55.8006 104.702C55.9794 104.922 55.7371 105.779 55.6443 105.988C55.5514 106.199 55.3349 105.971 55.2891 106.154C54.9918 107.366 56.0359 106.6 56.2987 106.967C56.9222 107.843 55.9646 108.652 55.9554 109.519C55.9524 109.749 56.168 109.539 56.2116 109.738C56.3785 110.504 56.1134 111.077 56.4976 111.933C56.5616 112.084 57.2579 112.787 56.8419 113.298C56.7818 113.371 56.5072 113.203 56.4788 113.547C56.44 114.101 56.4503 114.989 56.5684 115.571C56.6544 115.981 57.0567 115.486 56.9498 116.011C56.9008 116.241 56.6329 115.833 56.5609 116.261C56.4931 116.711 56.5205 117.789 56.5126 118.233C56.5093 118.653 56.8393 118.434 56.8603 118.469C56.984 118.664 57.0816 119.538 57.0691 119.608C56.9285 121.435 56.2148 123.559 54.5275 124.724C52.8497 125.879 51.0193 126.002 49.2457 126.185C48.9582 126.209 49.1611 126.544 49.1174 126.551C48.1292 126.714 48.8892 125.795 48.2433 125.492C48.3334 126.185 47.9496 126.064 47.2577 126.11C46.948 126.133 47.1019 126.409 47.0728 126.435C46.5842 126.819 46.2719 126.266 46.1955 126.153C45.8993 125.733 45.5212 126.169 45.3425 125.885C45.1618 125.603 45.6743 125.264 45.0601 125.206C44.8583 125.434 45.2589 126.129 44.767 126.182C43.9668 126.258 43.0403 126.149 41.9742 125.938L41.5646 125.886L41.292 125.504C40.3038 124.062 40.33 122.007 40.6608 121.106C41.1589 119.543 41.4794 119.159 42.0003 118.456C42.9957 117.257 42.297 117.457 42.6367 116.567C42.9497 115.701 43.7007 116.703 43.9884 116.73C44.2766 116.75 44.1293 116.492 44.3365 116.415C44.5436 116.337 44.5049 116.751 44.755 116.42C45.0367 116.09 45.0317 114.814 44.7516 114.654C44.2282 114.304 43.6502 114.546 43.8588 113.931C43.8671 113.889 44.1908 113.998 44.2053 113.831C44.2793 112.689 43.1018 111.582 41.9492 110.728C41.6626 110.515 41.3985 110.304 41.1344 110.08C40.9472 109.919 41.3214 109.753 41.2162 109.657C40.1011 108.629 40.209 109.402 39.1727 109.48C39.7851 108.875 39.8185 108.159 38.6705 107.555C37.8992 107.245 37.7263 107.687 37.54 108.078C37.5166 108.141 37.397 108.198 37.3023 108.309C37.2051 108.419 37.1418 108.553 37.2145 108.618C37.4522 108.834 37.7624 108.871 37.9442 108.975C38.1326 109.073 38.1886 109.177 38.0092 109.684C37.9926 109.732 37.6906 109.549 37.6567 109.712C37.4622 110.779 38.0816 110.952 38.1755 112.145C38.2539 113.088 37.9744 114.824 37.9832 115.932C37.0126 115.962 37.3009 117.014 37.9958 117.38C38.0176 118.129 38.1048 118.849 38.0634 119.587C38.048 119.821 37.7572 119.688 37.729 119.719C37.2852 120.199 37.9566 120.469 37.9931 120.624C38.3295 122.159 38.0241 123.434 38.4337 124.89L38.4921 125.477L37.8852 125.647C37.7577 125.707 37.631 125.772 37.5051 125.844C37.4527 125.874 37.5104 126.555 36.9673 126.176C36.9332 126.149 37.3887 125.729 36.6357 125.878C35.9149 126.02 34.4016 125.956 33.4025 126.406C33.1503 126.519 32.5538 127.146 31.9982 126.764C31.9191 126.713 31.9827 126.514 31.8681 126.416C31.5064 126.101 31.3646 126.794 30.9569 126.233C30.5683 125.668 29.8014 125.272 28.7798 125.574C28.7481 125.583 28.4346 126.096 28.1038 126.037C27.5997 125.951 26.8575 125.66 26.3463 125.465C26.0945 125.37 26.1318 125.743 26.0856 125.732C24.2641 125.187 23.3273 123.861 22.6435 122.098C22.5114 121.786 21.7149 120.955 21.9038 120.167C22.1316 119.36 23.8565 119.736 23.2154 118.261C22.972 117.674 20.7959 116.962 21.8256 115.659C21.4689 113.266 22.1209 111.055 21.8751 108.628C21.8644 108.519 21.3031 108.141 21.3273 107.882C21.3643 107.495 21.6497 107.305 21.6851 107.041C21.8413 105.922 21.6842 104.864 21.8007 103.772C21.8445 103.356 22.1155 103.511 22.1671 103.026C22.2185 102.54 21.8729 102.186 22.1013 101.524C22.2757 101.013 23.0675 100.581 23.204 99.9138C22.4599 99.8354 22.509 99.3727 22.3695 98.5312C22.3421 98.3735 22.0709 98.5218 22.0445 98.4463C21.9314 98.1387 22.1655 97.8753 22.0391 97.5783C22.0088 97.5061 21.7542 97.4857 21.7151 97.4257C21.3723 96.9185 21.998 96.1333 22.1057 96.011C22.5173 95.514 22.2006 95.2474 22.3739 94.8512C22.5469 94.4541 22.6981 95.0723 22.8163 94.6027C23.0622 93.6083 23.0848 92.3829 23.1419 91.3646C23.163 90.9609 22.8102 91.2214 22.8053 91.1633C22.755 90.3472 23.1482 89.5303 22.4853 89.0465C24.2586 88.5298 22.3338 88.5368 22.7165 87.3848C22.7473 87.2935 23.5803 87.1965 23.6929 87.5551C23.8052 87.915 23.5304 88.4355 23.7032 88.9478C23.7441 89.0677 24.4973 89.7715 24.5406 89.8651C24.881 90.5995 23.6364 90.6468 23.5669 90.6818C22.8153 91.0661 23.614 91.9434 23.6611 92.16C23.8783 93.1635 23.6587 93.9815 23.799 94.8294C23.8893 95.3774 24.6971 95.4787 24.6464 95.8987C24.4758 97.3083 23.311 97.7255 24.1994 99.1164C24.3883 99.4178 25.2945 99.2009 24.5248 100.172C24.476 100.237 23.7856 100.926 24.1557 101.403C24.2024 101.462 24.4607 101.479 24.477 101.554C24.5812 102.055 24.3516 102.364 24.4115 102.893C24.4724 103.409 24.5705 104.08 24.4398 104.667C24.3611 105.025 23.848 105.439 23.7177 105.608C23.3429 106.084 23.8634 106.645 23.4326 106.916C22.9995 107.19 22.411 106.56 22.0923 107.331C22.7614 107.404 23.446 107.514 24.1179 107.606C23.9813 109.371 23.6732 111.033 23.6696 112.764C23.6703 112.971 24.0353 112.766 24.0457 112.987C24.0895 113.962 23.836 114.774 23.9801 115.734C24.0941 116.477 24.5356 117.22 24.7305 117.93C24.0213 118.464 24.4661 119.487 24.6235 120.173C24.676 120.411 24.4748 120.455 24.474 120.648C24.4915 121.364 25.0029 120.8 25.1651 120.908C25.8578 121.265 24.5295 122.101 25.1517 122.774C25.1959 122.829 26.1181 122.563 26.1817 122.536C26.6827 122.492 26.0586 122.805 26.2395 123.002C26.5883 123.355 26.8854 123.709 27.5897 123.66C27.8056 123.648 28.3475 123.245 28.6793 123.683C28.7258 123.741 28.6627 124.006 28.7051 124.027C29.5274 124.379 29.5671 123.509 30.0348 123.232C30.5109 122.952 31.2158 123.5 31.4121 123.653C31.8665 124.059 31.1027 123.864 31.0893 123.905C30.8545 124.43 31.4155 124.316 31.8786 124.315C32.0117 125.143 32.6338 125.025 32.3254 124.311C32.2905 124.233 31.9654 124.346 31.8786 124.315C32.1653 123.465 32.7956 123.29 33.6705 123.924C34.0756 124.219 33.7973 124.701 34.8743 124.344C35.3659 124.177 35.0823 123.647 35.4577 123.409C35.926 123.113 36.5499 123.038 37.2151 122.964L35.6756 125.087C35.7106 124.502 35.7637 123.937 35.6901 123.454C35.6323 123.077 35.3446 123.469 35.2944 123.212C35.1561 122.476 35.3495 121.866 35.1775 121.15C35.1615 121.085 34.8441 121.27 34.8238 121.043C34.6695 119.394 34.7737 117.866 34.6717 116.104C34.6216 115.253 34.3562 113.728 34.3631 112.801C34.3677 112.008 34.48 111.125 34.6258 110.196C34.7006 109.727 34.7821 109.251 34.8936 108.743C35.0435 108.219 35.04 107.637 35.7924 106.663C36.331 106.005 37.1963 105.721 37.619 105.663C38.0381 105.59 38.2882 105.585 38.4462 105.55C38.7483 105.487 38.9689 105.402 39.3554 105.432C40.9257 105.646 41.3372 107.025 41.4425 107.214C41.4443 107.219 40.7811 106.858 41.0178 107.225C41.0057 107.645 41.4347 107.21 41.4425 107.214C41.4969 107.348 42.6171 108.208 42.8792 108.296C43.0199 108.346 43.121 108.039 43.1908 108.07C43.2995 108.118 43.409 108.166 43.5193 108.216C44.5066 108.707 45.5154 109.309 46.4662 110.456C47.4567 111.527 48.1027 113.852 47.5409 115.448C47.5205 115.504 47.2025 115.337 47.1592 115.465C46.4849 117.175 46.2884 117.989 45.9346 119.016C45.5655 119.994 45.1483 120.444 44.4045 120.522C44.1589 121.061 43.6678 121.536 43.453 121.817C43.2312 122.118 43.9261 122.194 43.9351 122.209C44.2509 122.589 44.1761 122.781 44.4261 123.396L42.5506 122.204C42.9036 122.299 43.2732 122.392 43.6789 122.463C44.3998 122.597 45.9046 122.668 46.7301 122.643C47.3453 122.622 47.7219 122.797 48.2789 122.701C48.3525 122.687 48.2801 122.384 48.3025 122.373C48.8848 122.009 48.6076 122.749 48.7323 122.881C49.2281 123.348 49.5131 123.605 50.2673 123.289C50.45 123.215 50.7199 122.09 50.9161 121.973C51.178 121.822 51.1766 122.223 51.435 122.038C51.4534 122.022 51.3769 121.802 51.5145 121.757C52.1347 121.505 52.3819 121.484 52.6701 120.568C52.7012 120.45 52.3004 120.497 52.3358 120.33C52.5072 119.536 52.5887 118.222 52.7291 116.985C52.7652 116.673 53.032 116.86 53.1078 116.789C53.5658 116.338 52.8518 115.794 52.8322 115.688C52.3566 113.326 52.7469 111.353 52.1812 108.823C52.1498 108.694 51.306 107.704 51.8778 107.137C51.9148 107.089 52.5055 106.565 52.0243 106.188C51.9943 106.164 51.6961 106.497 51.6756 105.973C51.6543 105.441 51.3496 104.626 51.6427 103.874C51.7354 103.642 52.3189 103.009 51.751 102.401C51.7114 102.365 50.4674 101.413 51.2308 100.959C51.3571 100.89 52.2007 100.867 51.7064 100.107C51.6107 99.9591 51.4448 100.254 51.2961 99.8563C51.0676 99.2513 51.2305 98.3636 50.8075 97.6362C50.7324 97.5074 50.1245 96.9664 50.5319 96.4705C50.5957 96.3931 50.8848 96.5169 50.9024 96.2672C50.9884 95.101 50.7448 93.8799 50.9008 92.6987C50.9559 92.2821 51.4177 92.48 51.5267 92.0435C51.6356 91.6111 51.732 90.7076 51.517 90.268C51.3016 89.822 50.583 90.3273 50.5154 89.6484C50.4538 89.0204 50.4265 88.3838 50.4241 87.7391L50.6335 86.5166C51.3941 84.3324 52.3364 82.3632 53.0402 80.2241C53.169 79.8316 52.8223 80.0819 52.9911 79.503C53.6575 77.2592 54.385 73.494 55.3228 71.6717C56.0781 70.2279 56.0035 72.2289 56.4239 71.0906C56.6246 70.5403 55.9079 69.7877 55.9096 69.6317C55.8974 68.2057 56.3994 67.421 56.4506 66.1578C56.4587 65.9071 56.0886 66.106 56.0987 65.8949C56.1284 65.1821 56.3574 64.4623 56.3861 63.7649C56.3972 63.459 56.1323 63.4953 56.1721 63.2221C56.2616 62.5857 56.4003 61.9829 56.6592 61.345C56.6827 61.2861 56.9993 61.6921 57.0215 61.2003C57.0556 60.4434 57.2801 59.3768 56.9708 58.5368C56.8762 58.2723 56.2839 58.3038 56.6404 57.7049C56.7131 57.5827 57.4462 57.6425 56.7534 57.0735C56.6438 56.9853 55.6577 56.0296 56.0777 55.4605C56.1924 55.3155 56.6818 54.8143 56.5145 54.5404C56.4899 54.5049 56.2209 54.7423 56.1275 54.5111C55.8088 53.7213 55.5421 52.8661 55.0848 52.148C54.9645 51.9635 54.8074 52.3963 54.6399 52.126C54.1763 51.3772 53.6672 50.4844 53.1803 49.8112C53.0024 49.5636 53.3443 49.527 53.3519 49.491C53.4469 48.8837 52.8172 49.1976 52.7088 49.1496C52.0137 48.8283 51.7423 48.2506 51.0838 47.9443C50.9037 47.8621 50.8641 48.2031 50.8165 48.2072C50.3389 48.2463 50.8753 47.9053 50.6796 47.7248C50.126 47.2183 49.3228 46.8973 48.56 46.6806C48.2805 46.6023 48.4723 47.0495 48.2259 46.9776C46.7642 46.5626 45.1238 46.2217 43.5046 45.8445C43.1992 45.7731 43.423 45.516 43.3649 45.4456C42.9554 44.9521 42.2328 45.5065 42.0773 45.5545C41.3602 45.7707 41.1042 45.5109 40.4737 45.5311C39.6074 45.5623 38.6732 45.5806 37.7091 45.5932C34.9695 45.625 32.5451 45.5341 30.2361 45.4899C26.2247 45.4131 23.198 45.2148 19.3913 45.461C19.1498 45.4767 19.4111 45.8364 19.2041 45.8548C16.6515 46.0727 14.0654 46.0938 11.4325 46.5179C11.233 46.5506 11.5629 46.8651 11.2479 46.9294C10.6727 47.0537 9.67238 47.1787 9.04761 47.1772C8.73152 47.1785 9.08929 46.8069 8.77212 46.8149C8.11944 46.8149 7.12717 47.0089 6.59073 47.2315C6.31201 47.3412 6.85771 47.5523 6.47554 47.6739C6.15952 47.7782 5.90576 47.8797 5.71605 47.9674C5.51559 48.0578 5.3354 48.1666 5.3013 48.1955C5.24563 48.2352 5.34735 48.1843 5.49062 47.9566C5.66021 47.7073 5.77034 47.2408 5.74438 47.0007C5.668 46.4873 5.65294 46.8972 5.90127 47.3453C6.12501 47.8104 6.51398 48.4389 6.88111 49.041C6.98768 49.2128 6.55655 49.8354 6.97958 50.0931C7.15198 49.9803 7.32781 49.818 7.49806 49.682C10.6198 52.8765 14.0779 56.4465 17.2031 60.3626C17.3367 60.529 17.4043 59.9966 17.6654 60.3196C19.1672 62.1851 20.6579 64.0623 21.6159 66.4285C21.7096 66.663 21.0594 66.8965 21.5084 67.4748C21.5903 67.5736 22.198 68.4989 22.4557 68.6855C22.4934 68.7103 22.6844 68.383 22.8561 68.6987C23.8496 70.5398 24.6277 72.6602 25.016 74.747C25.0778 75.0844 24.6528 74.8271 24.6929 75.0664C24.9805 76.7603 25.5654 78.5497 25.4019 80.2123C25.2821 81.3054 24.6622 80.9488 24.1159 81.5322C24.04 81.6133 24.0462 82.2604 23.7087 82.2986C22.8649 82.3924 21.9337 82.1173 21.0351 82.2553C20.8441 82.2827 21.0562 83.0486 20.5855 82.597C20.5554 82.5645 20.3899 82.0209 20.2242 81.8969C20.1108 81.8101 19.7755 81.9852 19.6275 81.8081C19.4792 81.6334 19.7557 81.4176 19.5692 81.1295C19.3785 80.8456 19.0057 81.0042 18.9021 80.4369ZM42.9179 123.393C42.7945 123.909 43.8714 123.379 43.4638 123.185C43.4437 123.177 42.9252 123.369 42.9179 123.393ZM22.7902 110.994C22.235 111.671 22.998 112.197 23.4204 111.706C23.844 111.209 22.9586 110.795 22.7902 110.994ZM22.865 103.621C22.3883 104.431 24.0708 104.684 23.7946 103.762C23.7791 103.709 22.8927 103.573 22.865 103.621ZM23.7167 79.0168C23.703 79.0266 23.7482 79.4868 23.7643 79.4962C24.1739 79.6975 24.0822 78.7631 23.7167 79.0168ZM22.9652 96.2539C22.7196 96.5054 22.9346 97.2769 23.2406 96.9698C23.4871 96.7216 23.2707 95.9465 22.9652 96.2539ZM55.3772 109.604C55.3941 109.594 55.3761 109.277 55.2765 109.294C54.9563 109.351 55.0943 109.778 55.3772 109.604ZM23.4124 83.7658C23.3346 85.6196 21.9091 86.6818 22.0971 84.7066C22.1301 84.347 22.5342 85.4873 22.6664 85.0313C22.9071 84.1933 22.0313 83.6263 22.5034 82.7552C22.5903 82.5967 23.4207 83.6601 23.4143 83.7691C23.4137 83.768 23.4131 83.7669 23.4124 83.7658ZM41.7246 124.237C41.7144 124.261 41.907 124.644 41.93 124.645C42.3627 124.643 41.9947 123.913 41.7246 124.237ZM54.7102 91.1625C54.7424 91.1366 54.7535 90.1136 54.7229 90.0888C54.0913 89.5668 54.0664 91.6296 54.7102 91.1625ZM37.9585 115.951C38.3689 116.406 38.4504 116.973 37.9962 117.378C37.9911 116.912 37.9641 116.429 37.9585 115.951Z" fill="black"/>
<circle cx="41.1279" cy="18.2391" r="17" fill="white"/>
<path d="M62.0504 19.4901C62.1143 20.2343 61.8895 21.1922 61.6081 21.8842C61.5209 22.1009 61.333 21.9488 61.2628 22.094C61.1252 22.375 61.1673 22.6763 61.0028 22.9461C60.9472 23.0346 60.6488 22.8378 60.5983 22.931C60.3235 23.4378 60.2622 23.9666 60.0172 24.4819C58.8117 26.9997 57.3319 29.2619 55.3933 31.1767C54.7519 31.8131 53.7666 32.3298 53.1449 33.004C53.0721 33.0835 53.307 33.2725 53.3064 33.3043C53.2853 33.7982 52.998 33.2655 52.786 33.3307C51.9426 33.5902 51.1898 34.0606 50.5646 34.5529C50.2983 34.7622 50.881 35.1047 50.4209 34.9864C50.3896 34.9784 50.3118 34.6635 50.2154 34.6789C49.998 34.7146 49.6776 34.9458 49.5219 34.995C49.2228 35.0886 49.1789 35.1129 48.9127 35.2323C48.5455 35.393 48.0521 35.4312 47.6794 35.6468C47.5994 35.6939 47.8265 35.9518 47.7067 36.0546C47.5869 36.1581 47.2065 36.2618 47.0573 36.2302C46.9083 36.1993 46.8841 35.9418 46.8442 35.894C46.5191 35.4879 46.2983 36.2581 46.2418 36.2903C45.2974 36.8508 44.3141 36.6489 43.3526 36.7658C42.6211 36.8555 41.8395 37.0248 41.1279 37.0089C41.122 37.0088 41.1162 37.0087 41.1103 37.0085C40.2576 36.9837 39.5601 36.7634 38.7463 36.6913C38.6602 36.683 38.7128 37.0704 38.606 37.0605C37.4691 36.9543 36.3478 36.6573 35.3565 36.0686C35.2576 36.0092 35.497 35.7388 35.406 35.661C34.8313 35.1926 34.1715 34.2116 33.1986 35.3436C32.7971 35.0965 32.3148 34.7815 32.0992 34.3253C31.9619 34.0319 32.3624 33.846 32.0098 33.8195C31.9303 33.8126 31.8514 34.133 31.7429 34.1009C31.2836 33.9635 30.9143 33.6025 30.4441 33.4711C30.3477 33.4448 30.2049 33.6905 30.1533 33.7165C29.7235 33.9191 29.822 33.1396 29.7916 33.0528C29.529 32.3833 29.1034 32.2137 28.6852 31.8205C28.589 31.7289 28.4474 32.1158 28.3444 32.0362C27.8125 31.6183 27.3434 31.0857 27.041 30.4799C26.9748 30.3448 27.3072 30.2337 27.2888 30.1589C27.209 29.8348 26.6955 30.1742 26.6125 29.8609C26.595 29.7957 26.8336 29.6498 26.8504 29.622C27.1179 29.1908 26.4937 29.4904 26.453 29.4618C25.9401 29.1248 26.3088 28.418 25.9351 28.027C25.8892 27.979 25.6741 28.2938 25.5622 28.1456C24.8142 27.1579 24.3002 25.9145 24.1379 24.6883C24.1122 24.4978 24.4063 24.5306 24.4324 24.5078C24.8427 24.1555 24.1641 24.2767 24.1189 24.2258C23.7831 23.8275 24.204 23.2452 23.3366 23.1469C23.1154 21.4985 22.6544 19.8842 22.9218 18.2391C22.9879 17.8356 23.0981 17.444 23.267 17.0581C23.2771 17.0335 23.6085 17.1002 23.6271 17.0516C23.8594 16.4713 23.3323 16.5525 22.7441 16.0667C22.5971 15.9399 23.4013 15.7272 23.461 15.712C23.6806 15.6441 24.1597 15.8154 24.2042 15.7889C24.5549 15.579 22.9172 15.3686 22.9828 14.9866C22.9875 14.9754 23.2777 15.0775 23.3129 15.0516C23.4233 14.9721 23.3225 14.8547 23.4433 14.7807C23.7234 14.6109 24.5201 14.7087 24.1364 14.2939C24.0873 14.2399 23.1589 14.0925 23.2835 13.7702C23.3315 13.6431 23.4761 13.0561 23.5853 12.9144C23.6921 12.7719 23.9465 12.9707 23.9626 12.9628C24.4748 12.6612 24.5826 12.8717 25.2084 12.8584C25.8309 12.8543 24.4877 12.4502 24.3699 12.3131C24.2522 12.1753 24.673 11.9856 24.8077 11.9562C24.9423 11.9252 25.0863 12.0838 25.1712 12.0439C25.7283 11.7853 24.5983 11.601 24.45 11.3742C24.1064 10.8263 25.1785 10.9767 25.4064 10.7357C25.4692 10.6685 25.2245 10.6308 25.2391 10.5498C25.3023 10.2277 25.6742 10.212 25.5823 9.75798C25.5658 9.68622 25.167 9.11747 25.6611 9.18305C25.7316 9.19374 25.9171 9.38918 26.0347 9.30429C26.2102 9.17752 26.4452 8.90697 26.4896 8.68238C26.5226 8.51567 26.0659 8.43206 26.2879 8.33755C26.3867 8.29666 26.503 8.57143 26.6701 8.48499C26.8357 8.39901 27.0669 8.05342 27.1555 7.92134C27.2428 7.78907 26.9319 7.66459 26.9219 7.64139C26.8679 7.50345 26.936 7.15883 26.9543 7.13717C27.8043 5.99572 29.0921 5.47332 30.0062 4.4978C30.0795 4.42091 29.8107 4.19906 29.8197 4.18458C30.0179 3.84367 30.358 4.73275 30.7375 4.82147C30.2844 4.29625 30.4767 4.3039 30.6341 4.09209C30.7099 3.98964 30.4975 3.81307 30.4901 3.78438C30.3988 3.34537 30.8138 3.69682 30.9012 3.76685C31.2268 4.02162 31.0665 3.56359 31.284 3.73596C31.4977 3.90876 31.5664 4.33231 31.7568 4.19807C31.675 3.95443 31.1644 3.51568 31.261 3.32502C31.634 2.58592 33.0636 2.37729 33.5883 2.20242C34.1186 2.01383 34.2705 1.90507 34.6056 1.8659C35.2113 1.80421 34.8388 1.43324 35.1181 1.09853C35.4048 0.766668 35.6086 1.94884 35.7398 2.17267C35.8673 2.39816 35.8361 2.13275 35.9381 2.24661C36.0388 2.36096 35.9681 2.5655 36.1184 2.57226C36.266 2.57871 36.5066 2.03609 36.4886 1.7659C36.4445 1.19368 36.1047 0.671488 36.5554 0.766392C36.581 0.772464 36.5868 1.09252 36.6805 1.10066C37.4146 1.15758 38.1242 1.03524 38.8299 1.15533C38.9264 1.17247 38.8889 1.52658 38.9447 1.54063C39.5217 1.69368 39.2542 1.1388 39.5113 0.461945C39.5203 1.32853 39.7358 1.83447 40.1442 1.81456C40.3928 1.80416 40.3294 1.43057 40.4848 1.15838C40.5323 1.07623 40.7206 1.32975 40.7492 1.15208C40.8477 0.571648 40.6578 -0.0767674 41.1279 0.177923C41.1281 0.17803 41.1283 0.178136 41.1285 0.178243C41.1357 0.182571 41.1323 0.224783 41.1279 0.278476C41.1222 0.349105 41.115 0.439599 41.1279 0.489842C41.1331 0.509754 41.1413 0.523346 41.1541 0.526894C41.6001 0.656104 41.6651 0.0506623 42.1694 0.00239646C42.5687 -0.0355175 43.2231 0.397911 43.6418 0.520539C43.5016 1.47981 43.911 1.31582 44.1916 0.686907C44.4644 0.76184 44.77 0.784159 45.016 0.934111C45.1002 0.985372 44.9783 1.24585 44.9831 1.27805C45.0475 1.78084 45.311 1.17572 45.3775 1.16585C46.0801 1.0865 46.4372 1.71153 47.1826 1.46689C47.2084 1.45789 47.4762 0.83742 47.4658 1.35889C47.4631 1.39422 47.1629 1.6087 47.4297 1.73473C47.7007 1.86217 48.0592 2.40172 48.554 2.28994C48.6719 2.26159 49.1427 1.88011 49.1331 2.35454C49.1308 2.41842 49.0177 2.57779 49.003 2.69094C48.9549 3.05102 49.3299 2.47804 49.1866 3.05707C49.0434 3.6366 49.0715 4.14304 49.603 3.99498C49.6189 3.991 49.9761 3.57518 50.0796 3.64888C50.2435 3.76569 50.4203 4.01297 50.5934 4.12554C50.6767 4.1794 50.8119 3.86624 50.8297 3.87082C51.5009 4.1016 51.7188 4.63953 52.1821 5.19915C52.2645 5.29994 52.8591 5.21241 52.8034 5.65524C52.7354 6.13555 51.4089 7.13857 52.0975 7.26507C52.3622 7.30795 54.1171 6.11665 53.6254 7.19258C54.4214 7.69089 54.4707 8.67292 55.265 9.20185C55.3003 9.22539 55.862 9.02282 55.9073 9.11136C55.9729 9.24199 55.7801 9.4502 55.8163 9.54622C55.9613 9.95192 56.352 10.1826 56.5057 10.5706C56.5637 10.7171 56.2872 10.7925 56.3527 10.9646C56.4168 11.1352 56.8069 11.0937 56.7453 11.3978C56.6976 11.6294 56.0699 12.0915 56.0739 12.3418C56.7721 12.0752 56.8218 12.2376 57.1117 12.4578C57.1677 12.5003 57.391 12.3524 57.4302 12.3681C57.5958 12.4322 57.4275 12.6044 57.6009 12.6612C57.6427 12.6753 57.8851 12.5951 57.933 12.6026C58.352 12.6666 57.8983 13.1438 57.816 13.2195C57.5095 13.5203 57.8534 13.517 57.7502 13.7065C57.6456 13.8928 57.4063 13.7227 57.3642 13.916C57.2762 14.3126 57.4181 14.7502 57.4739 15.1107C57.4976 15.2539 57.8144 15.0943 57.8256 15.1133C57.9677 15.4028 57.655 15.7594 58.3506 15.8353C56.6385 16.2802 58.5472 15.9962 58.2463 16.4882C58.2216 16.5267 57.3997 16.6487 57.2655 16.5352C57.1315 16.4227 57.367 16.1999 57.1549 16.0503C57.1051 16.012 56.3022 15.8961 56.2508 15.8756C55.8503 15.6995 57.0657 15.4567 57.1306 15.4302C57.8285 15.1478 56.9473 15.0085 56.8756 14.9511C56.5452 14.6661 56.6463 14.3454 56.3882 14.1147C56.2205 13.9648 55.4339 14.171 55.4195 14.0323C55.3703 13.5811 56.3825 13.0353 55.305 12.9519C55.0745 12.9359 54.2809 13.3414 54.812 12.7837C54.8468 12.7511 55.3426 12.2739 54.9122 12.2982C54.8583 12.3018 54.621 12.4052 54.5918 12.3925C54.4007 12.3064 54.5461 12.127 54.3842 12.0144C54.2226 11.9026 54.0021 11.788 53.992 11.5782C53.9863 11.4528 54.3396 11.0919 54.4146 10.9832C54.6328 10.6732 54.0606 10.7964 54.3655 10.5023C54.6681 10.2006 55.3202 10.0674 55.4004 9.67934C54.8184 10.0163 54.215 10.3524 53.6286 10.6897C53.3573 10.1958 53.2169 9.60717 52.8383 9.1674C52.7911 9.11383 52.5504 9.393 52.4933 9.34268C52.2552 9.13262 52.2751 8.75411 51.9782 8.57472C51.7473 8.43694 51.2804 8.49933 51.0329 8.38748C51.4677 7.73196 50.9946 7.63752 50.8299 7.39749C50.7711 7.31243 50.9122 7.16304 50.9016 7.06444C50.855 6.69564 50.5095 7.29668 50.3845 7.33035C49.8562 7.48324 50.8124 6.27512 50.4709 6.05773C50.4511 6.04376 49.7584 6.54915 49.704 6.57321C49.3376 6.71808 49.8447 6.322 49.771 6.19388C49.6361 5.96107 49.5986 5.69692 49.2227 5.73868C49.1105 5.75049 48.6734 6.07841 48.7419 5.65766C48.7504 5.60228 48.901 5.37644 48.8942 5.35376C48.7541 4.96139 48.3157 5.69449 48.0266 5.86249C47.7395 6.03173 47.7847 5.3911 47.809 5.21344C47.8779 4.75588 47.9957 5.09859 48.0222 5.06443C48.3452 4.65574 48.121 4.63658 47.9973 4.52647C48.3525 3.76939 48.1169 3.70971 47.8669 4.41558C47.8396 4.4925 47.9857 4.47775 47.9973 4.52647C47.5015 5.19485 47.2679 5.19701 47.3388 4.38911C47.3697 4.01052 47.6504 3.67351 47.2233 3.6583C47.0304 3.65313 46.8757 4.21155 46.6771 4.30068C46.2304 4.50685 45.9971 3.85438 45.6217 3.82677C45.4891 3.81791 45.5161 4.15578 45.4238 4.16075C45.1815 4.17639 45.0488 3.89384 44.7926 3.95309C44.7698 3.95901 44.7367 4.29071 44.6678 4.27756C44.1458 4.18624 43.7302 3.88829 43.1706 3.80281C42.9001 3.76044 42.4002 3.89101 42.1256 3.83755C41.8157 3.77655 41.467 3.55109 41.1279 3.43586C40.9417 3.37198 40.7637 3.34151 40.6136 3.38811C40.3391 3.47314 40.4167 3.80096 40.3137 4.03113C40.1241 4.47633 39.6795 3.7336 39.6066 3.62059C39.6043 3.61641 39.8326 3.51665 39.6905 3.36008C39.5819 3.01621 39.6086 3.61887 39.6066 3.62059C39.5636 3.5447 39.0805 3.52737 38.9968 3.60529C38.9513 3.6467 39.0247 3.95171 39.0006 3.96741C38.4276 4.33498 37.8703 4.53571 37.2354 4.56375C37.2231 4.56067 37.1436 4.21999 37.1155 4.21711C36.7179 4.16992 36.6173 4.65307 36.4298 4.98815C36.2406 5.32455 36.0092 5.3252 35.6161 4.83822C35.4368 4.9929 35.0329 4.88261 34.7895 4.82055C34.5455 4.75848 34.821 5.3821 34.8129 5.40087C34.5554 6.01058 34.1279 5.80111 33.6399 6.02643C33.4084 6.13117 33.0466 6.48935 32.8731 6.70793C32.7364 6.88023 32.5378 6.82989 32.4442 7.03109C32.4317 7.05808 32.6386 7.28085 32.6394 7.29499C32.6956 7.71108 32.3176 7.06704 32.1998 6.99149C31.7713 6.7186 31.5185 6.5924 31.4413 6.95602C31.4206 7.04178 31.9808 7.96817 31.9419 8.08801C31.8862 8.24587 31.6685 7.92676 31.6162 8.10212C31.6116 8.1169 31.7748 8.28667 31.6986 8.34477C31.3475 8.6165 30.9099 8.87702 30.6239 9.24764C30.5845 9.29731 30.9209 9.47902 30.8701 9.55342C30.6319 9.90224 30.3456 10.2524 29.9668 10.4911C29.8725 10.5495 29.6934 10.3484 29.6167 10.3226C29.1478 10.1735 29.6053 10.7212 29.6007 10.7526C29.4713 11.5586 28.6481 11.7743 28.5869 12.6188C28.5823 12.6695 29.1314 13.2435 28.4982 13.1366C28.4566 13.1277 27.8033 13.0289 28.1674 13.3084C28.1905 13.3252 28.5308 13.3607 28.4449 13.4928C28.3581 13.6279 28.4862 13.9272 28.0753 14.0177C27.9464 14.0439 27.2816 14.0175 27.7143 14.3617C27.7421 14.3917 28.7769 14.9847 27.9797 14.8888C27.8486 14.8731 27.0328 14.65 27.3951 14.9956C27.4661 15.0606 27.6684 15.0214 27.7555 15.1667C27.8908 15.3862 27.6188 15.5852 27.9494 15.8743C28.0075 15.927 28.5454 16.1778 28.0965 16.2397C28.0261 16.25 27.7535 16.1683 27.7118 16.234C27.5121 16.5498 27.6604 16.9258 27.4419 17.2565C27.3651 17.3757 26.9147 17.2816 26.7848 17.4095C26.6547 17.5373 26.5268 17.8099 26.7328 17.9569C26.9388 18.1009 27.6663 17.9622 27.7225 18.1624C27.7298 18.188 27.7366 18.2136 27.7429 18.2391C27.9498 19.0642 27.6219 19.9082 27.7184 20.7607C27.7333 20.8889 27.968 20.7364 28.0092 20.9178C28.1564 21.6036 28.7277 22.6269 28.455 23.3897C28.2374 24.0173 27.6822 23.5629 27.669 23.995C27.6679 24.2109 28.5219 24.0477 28.5633 24.0734C28.988 24.3437 28.7917 24.775 29.0847 25.0611C29.1449 25.1187 29.4034 24.8816 29.4507 24.9311C29.6141 25.0965 29.6075 25.3789 29.7494 25.5475C29.8136 25.6223 30.0225 25.4643 30.054 25.5488C30.1327 25.7493 30.1482 25.9641 30.0746 26.279C30.0684 26.3084 29.7271 26.3919 29.8144 26.532C29.9552 26.7558 29.9742 27.1733 30.3649 27.2505C30.4821 27.273 30.936 26.8864 30.7496 27.3005C30.7108 27.3866 30.1395 27.8244 30.7545 27.5826C30.8608 27.5482 31.7162 27.2431 31.4557 27.7442C31.387 27.8767 31.0616 28.3816 31.2068 28.3944C31.2276 28.3941 31.4096 28.1238 31.4956 28.1639C31.7941 28.3078 32.0146 28.5539 32.3251 28.6844C32.4078 28.718 32.5254 28.3836 32.6401 28.44C32.9541 28.5936 33.2356 28.9153 33.4515 29.1929C33.5306 29.2957 33.3035 29.4724 33.2935 29.5019C33.1399 29.9879 33.5852 29.4954 33.6449 29.4892C34.0199 29.4631 34.0486 29.8439 34.3319 29.9153C34.409 29.9351 34.5192 29.6369 34.5464 29.6204C34.8155 29.4605 34.4357 29.891 34.4918 29.9943C34.6502 30.2859 34.945 30.4122 35.2196 30.5C35.3203 30.5316 35.3724 30.1539 35.4592 30.1849C35.9746 30.3611 36.4737 30.5984 36.9171 30.9557C37.0008 31.0236 36.8538 31.2696 36.8542 31.3369C36.8611 31.8096 37.2539 31.2914 37.3143 31.2482C37.6017 31.0555 37.618 31.3157 37.8219 31.32C38.8047 31.3376 39.9336 31.6465 40.8569 31.7598C40.9483 31.7715 41.0386 31.7832 41.1279 31.7945C42.1963 31.927 43.1216 32.0493 44.1601 31.7574C44.2311 31.7373 44.0775 31.3906 44.1362 31.3688C44.8892 31.1053 45.6837 31.0003 46.3798 30.5875C46.4365 30.5544 46.2125 30.2668 46.2966 30.2034C46.4678 30.0712 46.7119 29.9791 46.953 29.9846C47.0707 29.9864 47.0796 30.3203 47.1971 30.3156C47.4722 30.3042 47.7258 30.1959 47.9221 30.0169C48.0044 29.9404 47.6816 29.711 47.8002 29.637C48.606 29.1202 49.2925 28.5377 50.3304 28.2171C50.4008 28.1956 50.9473 28.6888 50.9604 28.4817C50.8276 28.3271 50.6613 28.1551 50.5139 27.9951C51.4471 26.9343 52.5014 25.9686 53.2233 24.7101C53.253 24.6579 52.8622 24.5653 52.9168 24.465C53.2329 23.878 53.3848 23.2676 53.9761 22.7507C54.0341 22.6987 54.6688 22.9571 54.6382 22.723C54.633 22.6818 54.6422 22.3514 54.5217 22.2328C54.5033 22.2162 54.182 22.1782 54.2007 22.0819C54.3149 21.5215 54.5145 20.9673 54.7973 20.4261C54.8435 20.3384 55.1635 20.4901 55.1995 20.4268C55.4526 19.9701 55.2481 19.4211 55.5785 18.9697C55.7999 18.6638 56.3811 18.803 56.9642 18.638C57.0467 18.6142 57.0631 18.3996 57.3991 18.3905C58.2448 18.3661 59.1693 18.4918 60.0709 18.454C60.2658 18.4457 60.0575 18.0978 60.5261 18.3048C60.5578 18.3192 60.711 18.5757 60.8683 18.6431C60.9774 18.6901 61.321 18.6157 61.4598 18.7115C61.5982 18.8084 61.3091 18.9016 61.4684 19.0608C61.629 19.2221 62.0222 19.1687 62.0504 19.4901ZM33.6743 4.582C33.3506 4.38743 33.9142 5.44312 33.9439 5.0996C33.9447 5.08178 33.6904 4.59146 33.6743 4.582ZM53.9426 9.08963C54.2239 8.57632 53.4986 8.90463 53.2732 9.28391C53.042 9.65605 53.8547 9.24204 53.9426 9.08963ZM55.6018 11.1118C55.839 10.6556 54.312 11.3966 54.7504 11.505C54.7752 11.5115 55.5877 11.1378 55.6018 11.1118ZM57.0847 19.5004C57.101 19.4991 57.1277 19.345 57.1121 19.3401C56.7388 19.2338 56.6863 19.5342 57.0847 19.5004ZM56.9598 13.4044C57.1521 13.246 56.8153 13.0645 56.5798 13.2644C56.39 13.4219 56.7203 13.5977 56.9598 13.4044ZM25.9369 10.98C25.9194 10.9751 25.8547 11.074 25.947 11.1147C26.244 11.2455 26.2297 11.0628 25.9369 10.98ZM57.6926 17.8686C57.739 17.2152 59.1002 16.6649 58.9874 17.4665C58.9652 17.6074 58.5267 17.1854 58.409 17.3696C58.194 17.6935 59.0794 17.8918 58.6087 18.233C58.5232 18.2889 57.6878 17.902 57.6906 17.8675C57.6913 17.8678 57.6919 17.8682 57.6926 17.8686ZM32.8818 3.37801C32.8705 3.36598 32.7203 3.43326 32.7248 3.449C32.8372 3.82163 33.1329 3.68996 32.8818 3.37801ZM23.5698 17.5311C23.5347 17.5385 23.4922 17.9307 23.524 17.9444C24.1396 18.1521 24.226 17.3888 23.5698 17.5311ZM43.6449 0.547119C43.8826 0.194479 44.1261 0.187835 44.1908 0.68628C44.0119 0.629401 43.8261 0.596408 43.6449 0.547119Z" fill="black"/>
</svg>
