<svg width="88" height="71" viewBox="0 0 88 71" fill="none" xmlns="http://www.w3.org/2000/svg">
<path d="M69.057 43.093C70.9903 43.093 72.5368 41.4496 72.5368 39.6132C72.5368 37.68 70.9903 36.1339 69.057 36.1339C67.1242 36.1339 65.5777 37.68 65.5777 39.6132C65.5777 41.5465 67.1242 43.093 69.057 43.093ZM51.9078 43.093C53.8407 43.093 55.3872 41.4496 55.3872 39.6132C55.3872 37.68 53.8407 36.1339 51.9078 36.1339C49.9746 36.1339 48.4281 37.68 48.4281 39.6132C48.4281 41.5465 49.9746 43.093 51.9078 43.093ZM77.3561 62.6238C76.8803 62.9093 76.5947 63.3856 76.69 64.0521C76.69 64.2423 76.69 64.433 76.7849 64.6233C77.1659 66.2422 77.9269 68.8137 77.9269 68.909C77.9269 69.1946 78.0222 69.3849 78.0222 69.5755C78.0222 70.0517 77.6417 70.4327 77.1659 70.4327C76.9752 70.4327 76.8803 70.3373 76.69 70.242L71.0751 67.0041C70.6942 66.8138 70.2184 66.6231 69.7425 66.6231C69.4573 66.6231 69.1717 66.6231 68.9815 66.7185C66.3166 67.4803 63.5569 67.8612 60.6068 67.8612C46.4266 67.8612 35.0068 58.338 35.0068 46.5297C35.0068 34.721 46.4266 25.1978 60.6068 25.1978C74.7866 25.1978 86.2066 34.721 86.2066 46.5297C86.2066 52.9099 82.7803 58.7189 77.3561 62.6238ZM61.6883 21.3394C61.3291 21.3284 60.9687 21.3228 60.6068 21.3228C44.4299 21.3228 31.1318 32.4065 31.1318 46.5297C31.1318 48.6749 31.4386 50.75 32.0158 52.7266H31.6703C28.2365 52.7266 24.8026 52.1562 21.6549 51.301C21.3688 51.2057 21.0826 51.2057 20.7965 51.2057C20.2242 51.2057 19.6519 51.3959 19.1749 51.6811L12.4027 55.5782C12.2119 55.6736 12.0211 55.7685 11.8303 55.7685C11.258 55.7685 10.7811 55.2934 10.7811 54.723C10.7811 54.4378 10.8765 54.2476 10.9719 53.9624C11.0673 53.8674 11.9257 50.7306 12.4027 48.8295C12.4027 48.6393 12.498 48.3541 12.498 48.1642C12.498 47.4035 12.1165 46.8331 11.6396 46.453C5.05807 41.7952 0.956543 34.8563 0.956543 27.1565C0.956543 12.9931 14.7873 1.5863 31.7657 1.5863C46.3511 1.5863 58.6135 9.98947 61.6883 21.3394ZM41.7174 22.961C43.937 22.961 45.6943 21.1113 45.6943 18.9843C45.6943 16.7647 43.937 15.0076 41.7174 15.0076C39.4978 15.0076 37.7408 16.7647 37.7408 18.9843C37.7408 21.2038 39.4978 22.961 41.7174 22.961ZM21.337 22.961C23.5566 22.961 25.3137 21.1113 25.3137 18.9843C25.3137 16.7647 23.5566 15.0076 21.337 15.0076C19.1175 15.0076 17.3603 16.7647 17.3603 18.9843C17.3603 21.2038 19.1175 22.961 21.337 22.961Z" fill="white"/>
<path d="M70.4291 40.619L72.1781 41.589L70.4291 40.619ZM70.5251 40.4458L68.7761 39.4758L70.5251 40.4458ZM68.9617 37.7699L69.2236 35.7872L68.9617 37.7699ZM68.748 37.7417L68.4861 39.7245L68.748 37.7417ZM68.5343 37.7135L68.2724 39.6963L68.5343 37.7135ZM67.0955 39.8665L68.8449 38.8972L67.0955 39.8665ZM67.3063 40.2471L65.5569 41.2163L67.3063 40.2471ZM68.8698 42.9229L67.5253 44.4036L68.8698 42.9229ZM68.882 42.9341L70.2265 41.4534L68.882 42.9341ZM68.8943 42.9452L67.5498 44.4259L68.8943 42.9452ZM70.333 40.7922L68.584 39.8222L70.333 40.7922ZM53.6884 40.4013L55.3565 41.5047L53.6884 40.4013ZM53.8131 40.2128L52.145 39.1094L53.8131 40.2128ZM52.4126 37.6473L52.3719 39.6469L52.4126 37.6473ZM51.9525 37.6379L51.9932 35.6383L51.9525 37.6379ZM50.1213 40.1093L51.9218 39.2386L50.1213 40.1093ZM50.3058 40.4907L48.5052 41.3614L50.3058 40.4907ZM51.7062 43.0562L52.0648 41.0886V41.0886L51.7062 43.0562ZM51.7194 43.0586L51.3609 45.0262L51.7194 43.0586ZM51.7326 43.061L52.0911 41.0934L51.7326 43.061ZM53.5638 40.5897L51.8957 39.4862L53.5638 40.5897ZM77.9243 65.9384L75.9531 66.2763L77.9243 65.9384ZM77.9641 66.1704L79.9353 65.8325L77.9641 66.1704ZM75.6574 68.4497L75.1122 70.3739L75.6574 68.4497ZM75.2307 68.3287L75.7759 66.4045L75.2307 68.3287ZM69.1612 67.3794L69.0711 69.3774L69.1612 67.3794ZM68.9178 67.3685L69.0079 65.3705L68.9178 67.3685ZM68.6744 67.3575L68.5842 69.3554L68.6744 67.3575ZM62.1466 67.3837L62.0422 65.3864L62.1466 67.3837ZM61.8987 67.3966L62.0031 69.3939L61.8987 67.3966ZM61.6508 67.4096L61.5464 65.4123L61.6508 67.4096ZM55.2098 66.6706L55.7658 64.7495L55.2098 66.6706ZM54.7359 66.5335L54.1799 68.4546L54.7359 66.5335ZM48.5037 64.5199L49.1769 62.6365L48.5037 64.5199ZM48.0394 64.3539L47.3662 66.2372L48.0394 64.3539ZM42.3228 61.2043L43.5506 59.6256L42.3228 61.2043ZM42.1247 61.0503L40.8968 62.629L42.1247 61.0503ZM41.9266 60.8962L43.1544 59.3175L41.9266 60.8962ZM38.1286 55.7563L40.0001 55.0508L38.1286 55.7563ZM37.9531 55.2907L36.0817 55.9961L37.9531 55.2907ZM36.1234 49.0544L38.0802 48.6412L36.1234 49.0544ZM36.0734 48.8178L34.1166 49.2311L36.0734 48.8178ZM36.0234 48.5812L37.9803 48.168L36.0234 48.5812ZM35.7118 42.064L33.7226 41.8564L35.7118 42.064ZM35.7648 41.5561L37.754 41.7637L35.7648 41.5561ZM38.6881 35.9539L39.998 37.4653L38.6881 35.9539ZM38.8817 35.7862L37.5718 34.2748L38.8817 35.7862ZM39.0752 35.6185L40.385 37.1299L39.0752 35.6185ZM44.1904 31.4281L45.4118 33.0118L44.1904 31.4281ZM44.5733 31.1327L43.3519 29.549L44.5733 31.1327ZM50.1438 28.0151L49.4304 26.1466L50.1438 28.0151ZM50.3716 27.9281L51.085 29.7965L50.3716 27.9281ZM50.5994 27.8411L49.886 25.9727L50.5994 27.8411ZM56.8525 25.6371L57.4706 27.5392L56.8525 25.6371ZM57.3382 25.4792L56.7201 23.5771L57.3382 25.4792ZM63.8374 25.2892L64.3448 23.3547L63.8374 25.2892ZM64.0837 25.3538L63.5762 27.2884L64.0837 25.3538ZM64.33 25.4184L64.8375 23.4839L64.33 25.4184ZM70.7208 27.3574L70.0659 29.2472V29.2472L70.7208 27.3574ZM70.9555 27.4388L71.6103 25.549L70.9555 27.4388ZM71.1902 27.5201L70.5353 29.4099L71.1902 27.5201ZM76.9733 30.5518L75.7918 32.1655L76.9733 30.5518ZM77.3744 30.8456L78.5559 29.2318L77.3744 30.8456ZM81.8352 35.5283L83.5064 34.4297L81.8352 35.5283ZM81.9704 35.7339L80.2991 36.8326L81.9704 35.7339ZM82.1055 35.9395L83.7767 34.8409L82.1055 35.9395ZM84.6208 41.7926L86.5697 41.3434L84.6208 41.7926ZM84.7291 42.2625L82.7802 42.7118L84.7291 42.2625ZM85.6518 48.7472L83.6554 48.8678L85.6518 48.7472ZM85.6671 49.0003L83.6707 49.1209L85.6671 49.0003ZM85.6824 49.2535L87.6787 49.1329L85.6824 49.2535ZM84.1054 55.526L85.8114 56.5698L84.1054 55.526ZM83.9714 55.7449L82.2654 54.7011L83.9714 55.7449ZM83.8374 55.9639L82.1314 54.9201L83.8374 55.9639ZM79.7915 60.5063L78.622 58.8839L79.7915 60.5063ZM79.6209 60.6293L80.7903 62.2518L79.6209 60.6293ZM79.4503 60.7522L78.2809 59.1297L79.4503 60.7522ZM77.2643 62.4962L75.6411 63.6647L77.2643 62.4962ZM77.2703 62.5045L78.8934 61.336L77.2703 62.5045ZM77.2763 62.5129L75.6531 63.6814L77.2763 62.5129ZM77.8845 65.7064L79.8558 65.3684L77.8845 65.7064ZM58.0886 21.3993L58.1219 23.399L58.0886 21.3993ZM57.8366 21.4035L57.8033 19.4038L57.8366 21.4035ZM51.2062 22.2703L50.7265 20.3286L51.2062 22.2703ZM50.9591 22.3313L51.4388 24.2729L50.9591 22.3313ZM50.712 22.3923L50.2323 20.4507L50.712 22.3923ZM44.6265 25.0861L43.5113 23.4258L44.6265 25.0861ZM44.4155 25.2278L45.5307 26.888L44.4155 25.2278ZM44.2046 25.3695L43.0894 23.7093L44.2046 25.3695ZM39.2049 29.7214L37.7107 28.392L39.2049 29.7214ZM39.0395 29.9073L37.5453 28.5779L39.0395 29.9073ZM38.8742 30.0931L40.3684 31.4225L38.8742 30.0931ZM35.0083 35.3519L36.7245 36.3788L35.0083 35.3519ZM34.8826 35.5618L36.5989 36.5887L34.8826 35.5618ZM34.757 35.7718L33.0408 34.7449L34.757 35.7718ZM32.3186 41.7319L30.375 41.2603L32.3186 41.7319ZM32.2607 41.9706L34.2043 42.4422L32.2607 41.9706ZM32.2028 42.2092L30.2592 41.7376L32.2028 42.2092ZM32.0492 48.5629L34.0128 48.1831L32.0492 48.5629ZM32.0955 48.8025L30.1319 49.1823L32.0955 48.8025ZM32.1419 49.0421L34.1055 48.6623L32.1419 49.0421ZM29.29 51.8624L29.498 49.8733L29.29 51.8624ZM29.0289 51.8351L29.237 49.846L29.0289 51.8351ZM28.7679 51.8078L28.5599 53.797L28.7679 51.8078ZM21.8565 51.4212L21.8703 49.4212L21.8565 51.4212ZM21.338 51.4176L21.3242 53.4175L21.338 51.4176ZM15.2487 53.5079L16.4973 55.0702L15.2487 53.5079ZM15.0495 53.667L13.801 52.1046L15.0495 53.667ZM12.5614 53.1332L10.5774 52.8813L12.5614 53.1332ZM12.5883 52.922L14.5723 53.1739L12.5883 52.922ZM12.6151 52.7107L10.631 52.4587L12.6151 52.7107ZM10.8021 47.1569L12.3716 45.9173L10.8021 47.1569ZM10.6503 46.9646L9.08079 48.2043L10.6503 46.9646ZM6.87914 41.5876L5.18031 42.6431L6.87914 41.5876ZM6.74716 41.3752L8.446 40.3198L6.74716 41.3752ZM6.61517 41.1627L4.91633 42.2182L6.61517 41.1627ZM3.5514 35.3905L1.7236 36.2024L3.5514 35.3905ZM3.45278 35.1685L5.28058 34.3566L3.45278 35.1685ZM3.35417 34.9465L5.18196 34.1346L3.35417 34.9465ZM2.00741 28.7871L0.00754035 28.8099L2.00741 28.7871ZM2.00466 28.5455L4.00453 28.5228L2.00466 28.5455ZM2.00191 28.3039L0.00203931 28.3267L2.00191 28.3039ZM2.60936 21.9424L4.56887 22.3427L2.60936 21.9424ZM2.65783 21.7051L0.698313 21.3048L2.65783 21.7051ZM2.7063 21.4679L4.66582 21.8683L2.7063 21.4679ZM4.78425 15.2892L2.97683 14.4329L4.78425 15.2892ZM5.00012 14.8336L6.80755 15.6898L5.00012 14.8336ZM9.33068 10.098L10.3469 11.8206L9.33068 10.098ZM9.5487 9.96941L8.53252 8.2468L9.5487 9.96941ZM9.76673 9.84079L10.7829 11.5634L9.76673 9.84079ZM15.3689 6.23574L14.221 4.59796L15.3689 6.23574ZM15.5726 6.09301L16.7205 7.73079L15.5726 6.09301ZM15.7762 5.95027L16.9241 7.58806L15.7762 5.95027ZM21.6912 3.19888L22.2061 5.13146L21.6912 3.19888ZM21.9328 3.13452L21.4179 1.20193L21.9328 3.13452ZM22.1744 3.07016L22.6893 5.00274L22.1744 3.07016ZM29.1883 2.05679L29.1052 0.0585167L29.1883 2.05679ZM35.8075 2.11506L35.9256 0.118551L35.8075 2.11506ZM36.0568 2.12981L35.9388 4.12632L36.0568 2.12981ZM36.3062 2.14455L36.4242 0.148033L36.3062 2.14455ZM42.636 3.70936L41.8097 5.53069L42.636 3.70936ZM42.8631 3.8124L43.6894 1.99108L42.8631 3.8124ZM43.0902 3.91544L43.9165 2.09412L43.0902 3.91544ZM49.0915 6.68976L49.9437 4.8804L49.0915 6.68976ZM49.3161 6.79554L48.464 8.6049L49.3161 6.79554ZM49.5407 6.90132L50.3929 5.09196L49.5407 6.90132ZM54.6387 10.825L56.1705 9.53907L54.6387 10.825ZM54.7978 11.0145L53.266 12.3005L54.7978 11.0145ZM54.9569 11.2041L56.4887 9.91817L54.9569 11.2041ZM58.716 16.5022L56.9948 17.5208L58.716 16.5022ZM58.9636 16.9207L60.6848 15.9022L58.9636 16.9207ZM61.1106 20.4626L62.7807 19.3622L61.1106 20.4626ZM61.1484 20.52L59.4783 21.6203L61.1484 20.52ZM61.1862 20.5773L62.8563 19.477L61.1862 20.5773ZM58.3406 21.3951L58.3073 19.3954L58.3406 21.3951ZM43.3438 20.5862L41.6937 19.4561L43.3438 20.5862ZM43.4577 20.42L45.1078 21.5502L43.4577 20.42ZM42.7546 17.1502L43.6186 15.3465L42.7546 17.1502ZM42.5878 17.0703L41.7238 18.8741L42.5878 17.0703ZM42.4211 16.9904L41.5571 18.7942L42.4211 16.9904ZM39.6204 18.403L37.6741 17.9428L39.6204 18.403ZM39.5764 18.5892L41.5227 19.0494L39.5764 18.5892ZM39.5323 18.7754L37.586 18.3152L39.5323 18.7754ZM40.2354 22.0452L39.1841 23.7466L40.2354 22.0452ZM40.3324 22.1051L41.3837 20.4037L40.3324 22.1051ZM40.4293 22.165L39.378 23.8664L40.4293 22.165ZM43.23 20.7525L41.5799 19.6223L43.23 20.7525ZM22.9374 20.5921L24.5947 21.7118L22.9374 20.5921ZM23.0495 20.4263L21.3923 19.3066L23.0495 20.4263ZM22.2192 17.1539L23.0568 15.3377L22.2192 17.1539ZM22.0569 17.079L21.2193 18.8951L22.0569 17.079ZM20.0316 21.9015L21.2919 20.3486L20.0316 21.9015ZM20.117 21.9708L18.8566 23.5237L20.117 21.9708ZM20.2024 22.0401L21.4627 20.4872L20.2024 22.0401ZM22.8254 20.7579L21.1682 19.6383L22.8254 20.7579ZM70.4291 40.619L72.1781 41.589L72.2742 41.4158L70.5251 40.4458L68.7761 39.4758L68.6801 39.649L70.4291 40.619ZM70.5251 40.4458L72.2742 41.4158C72.7971 40.4728 73.3124 39.0093 72.4991 37.6175C71.7427 36.3229 70.2949 35.9287 69.2236 35.7872L68.9617 37.7699L68.6998 39.7527C68.8675 39.7749 68.9975 39.8012 69.0952 39.8271C69.1937 39.8532 69.2478 39.8757 69.269 39.8857C69.3122 39.9062 69.1705 39.8495 69.0454 39.6354C68.9848 39.5315 68.9481 39.4232 68.9315 39.3249C68.9155 39.2303 68.9214 39.1665 68.9241 39.1465C68.9266 39.1283 68.9262 39.1468 68.9039 39.2072C68.8818 39.2672 68.8425 39.3561 68.7761 39.4758L70.5251 40.4458ZM68.9617 37.7699L69.2236 35.7872L69.0099 35.7589L68.748 37.7417L68.4861 39.7245L68.6998 39.7527L68.9617 37.7699ZM68.748 37.7417L69.0099 35.7589L68.7962 35.7307L68.5343 37.7135L68.2724 39.6963L68.4861 39.7245L68.748 37.7417ZM68.5343 37.7135L68.7962 35.7307C68.217 35.6542 67.5899 35.6275 66.9928 35.7452C66.3869 35.8646 65.6089 36.1794 65.092 36.953C64.5782 37.7218 64.5817 38.5563 64.695 39.1553C64.8073 39.75 65.0616 40.3223 65.346 40.8358L67.0955 39.8665L68.8449 38.8972C68.7592 38.7425 68.7028 38.6222 68.6672 38.5337C68.6308 38.4433 68.624 38.4054 68.6254 38.4125C68.6265 38.4185 68.6423 38.5022 68.6242 38.6396C68.6048 38.7867 68.548 38.9805 68.4177 39.1755C68.1406 39.5902 67.7791 39.6671 67.7663 39.6697C67.7624 39.6704 67.9051 39.6478 68.2724 39.6963L68.5343 37.7135ZM67.0955 39.8665L65.346 40.8358L65.4515 41.026L67.2009 40.0568L68.9503 39.0875L68.8449 38.8972L67.0955 39.8665ZM67.2009 40.0568L65.4515 41.026L65.5569 41.2163L67.3063 40.2471L69.0558 39.2778L68.9503 39.0875L67.2009 40.0568ZM67.3063 40.2471L65.5569 41.2163C66.026 42.0631 66.3985 42.7231 66.6707 43.189C66.8056 43.42 66.9247 43.6183 67.0232 43.7732C67.0716 43.8494 67.1257 43.932 67.1812 44.0098C67.2041 44.042 67.3343 44.2302 67.5253 44.4036L68.8698 42.9229L70.2142 41.4422C70.3182 41.5367 70.384 41.6182 70.3989 41.6365C70.4229 41.6662 70.4369 41.6859 70.4382 41.6877C70.4408 41.6913 70.4291 41.6749 70.3988 41.6273C70.3399 41.5346 70.2499 41.386 70.1244 41.1711C69.8754 40.745 69.5204 40.1164 69.0558 39.2778L67.3063 40.2471ZM68.8698 42.9229L67.5253 44.4036L67.5375 44.4147L68.882 42.9341L70.2265 41.4534L70.2142 41.4422L68.8698 42.9229ZM68.882 42.9341L67.5375 44.4147L67.5498 44.4259L68.8943 42.9452L70.2387 41.4645L70.2265 41.4534L68.882 42.9341ZM68.8943 42.9452L67.5498 44.4259C68.5057 45.2938 69.5881 44.8687 69.8809 44.7152C70.2028 44.5465 70.4158 44.3271 70.4953 44.2435C70.6914 44.037 70.8653 43.7909 70.9982 43.5921C71.286 43.1614 71.6513 42.5389 72.0821 41.7622L70.333 40.7922L68.584 39.8222C68.1641 40.5793 67.8643 41.0826 67.6725 41.3696C67.5656 41.5296 67.546 41.5403 67.5951 41.4886C67.6011 41.4823 67.7522 41.3148 68.0238 41.1725C68.1666 41.0976 68.4656 40.9638 68.8739 40.9546C69.3445 40.944 69.8427 41.1049 70.2387 41.4645L68.8943 42.9452ZM70.333 40.7922L72.0821 41.7622L72.1781 41.589L70.4291 40.619L68.6801 39.649L68.584 39.8222L70.333 40.7922ZM53.6884 40.4013L55.3565 41.5047L55.4811 41.3163L53.8131 40.2128L52.145 39.1094L52.0204 39.2978L53.6884 40.4013ZM53.8131 40.2128L55.4811 41.3163C55.822 40.801 56.1296 40.2217 56.2857 39.6033C56.4464 38.9667 56.4762 38.1488 56.0464 37.3615C55.6208 36.5818 54.9254 36.1646 54.3205 35.948C53.7259 35.7352 53.0765 35.6604 52.4533 35.6477L52.4126 37.6473L52.3719 39.6469C52.5598 39.6507 52.7032 39.6635 52.8086 39.6792C52.9154 39.6951 52.9648 39.7113 52.9721 39.7139C52.9933 39.7215 52.7277 39.6302 52.5355 39.2781C52.4441 39.1107 52.4063 38.947 52.3973 38.8183C52.3888 38.6977 52.4066 38.6272 52.4074 38.6243C52.4081 38.6215 52.3977 38.6623 52.3542 38.7519C52.3114 38.84 52.2448 38.9586 52.145 39.1094L53.8131 40.2128ZM52.4126 37.6473L52.4533 35.6477L52.2233 35.643L52.1826 37.6426L52.1418 39.6422L52.3719 39.6469L52.4126 37.6473ZM52.1826 37.6426L52.2233 35.643L51.9932 35.6383L51.9525 37.6379L51.9118 39.6375L52.1418 39.6422L52.1826 37.6426ZM51.9525 37.6379L51.9932 35.6383C50.9145 35.6164 49.3019 35.7622 48.3595 37.034C47.3345 38.4173 47.8601 40.0273 48.3208 40.98L50.1213 40.1093L51.9218 39.2386C51.8538 39.0979 51.8136 38.9927 51.7909 38.9202C51.768 38.8467 51.7681 38.8228 51.7696 38.841C51.7712 38.8607 51.7748 38.9362 51.7476 39.0479C51.719 39.1652 51.6628 39.2947 51.5734 39.4153C51.3909 39.6617 51.2011 39.7041 51.2585 39.6871C51.2839 39.6796 51.348 39.6641 51.4622 39.6522C51.5754 39.6404 51.7235 39.6337 51.9118 39.6375L51.9525 37.6379ZM50.1213 40.1093L48.3208 40.98L48.413 41.1707L50.2135 40.3L52.014 39.4293L51.9218 39.2386L50.1213 40.1093ZM50.2135 40.3L48.413 41.1707L48.5052 41.3614L50.3058 40.4907L52.1063 39.62L52.014 39.4293L50.2135 40.3ZM50.3058 40.4907L48.5052 41.3614C48.9175 42.2138 49.2555 42.8854 49.513 43.3572C49.6385 43.5871 49.7664 43.8094 49.8883 43.9924C49.9456 44.0785 50.0359 44.2082 50.1515 44.3382C50.2083 44.4021 50.3088 44.509 50.4485 44.6181C50.5547 44.7012 50.8697 44.9367 51.3477 45.0238L51.7062 43.0562L52.0648 41.0886C52.5281 41.1731 52.8258 41.3994 52.912 41.4668C53.0316 41.5603 53.1093 41.6449 53.1405 41.6801C53.2051 41.7527 53.2334 41.7989 53.2177 41.7754C53.1937 41.7393 53.1319 41.6383 53.024 41.4406C52.8147 41.0572 52.5109 40.4566 52.1063 39.62L50.3058 40.4907ZM51.7062 43.0562L51.3477 45.0238L51.3609 45.0262L51.7194 43.0586L52.078 41.091L52.0648 41.0886L51.7062 43.0562ZM51.7194 43.0586L51.3609 45.0262L51.3741 45.0286L51.7326 43.061L52.0911 41.0934L52.078 41.091L51.7194 43.0586ZM51.7326 43.061L51.3741 45.0286C51.9847 45.1399 52.4527 44.94 52.6147 44.8634C52.8168 44.768 52.9636 44.6587 53.0402 44.5981C53.1983 44.473 53.3223 44.3415 53.3948 44.2616C53.5529 44.0871 53.7212 43.8709 53.885 43.6499C54.2227 43.194 54.675 42.535 55.2319 41.6931L53.5638 40.5897L51.8957 39.4862C51.3487 40.3132 50.9437 40.9006 50.6711 41.2685C50.5297 41.4593 50.4545 41.5494 50.4307 41.5756C50.4123 41.5959 50.4608 41.5383 50.5589 41.4607C50.6055 41.4239 50.7261 41.3318 50.9059 41.2468C51.0456 41.1808 51.4951 40.9848 52.0911 41.0934L51.7326 43.061ZM53.5638 40.5897L55.2319 41.6931L55.3565 41.5047L53.6884 40.4013L52.0204 39.2978L51.8957 39.4862L53.5638 40.5897ZM77.9243 65.9384L75.9531 66.2763L75.9928 66.5083L77.9641 66.1704L79.9353 65.8325L79.8956 65.6005L77.9243 65.9384ZM77.9641 66.1704L75.9928 66.5083C76.0252 66.6973 76.0406 66.8475 76.0454 66.9634C76.0502 67.0803 76.0438 67.1479 76.0396 67.176C76.0355 67.2039 76.0361 67.176 76.0642 67.1138C76.0941 67.0474 76.1505 66.9532 76.2459 66.8589C76.3425 66.7634 76.4487 66.6981 76.5434 66.6588C76.6332 66.6215 76.6918 66.616 76.6967 66.6155C76.7003 66.6152 76.663 66.6185 76.5745 66.6069C76.4868 66.5953 76.3643 66.5712 76.2027 66.5254L75.6574 68.4497L75.1122 70.3739C76.1839 70.6776 77.8471 70.9001 79.0574 69.7042C80.2006 68.5745 80.1259 66.9443 79.9353 65.8325L77.9641 66.1704ZM75.6574 68.4497L76.2027 66.5254L75.9893 66.465L75.4441 68.3892L74.8988 70.3134L75.1122 70.3739L75.6574 68.4497ZM75.4441 68.3892L75.9893 66.465L75.7759 66.4045L75.2307 68.3287L74.6854 70.253L74.8988 70.3134L75.4441 68.3892ZM75.2307 68.3287L75.7759 66.4045C73.7237 65.823 71.5467 65.485 69.2514 65.3815L69.1612 67.3794L69.0711 69.3774C71.0883 69.4684 72.9575 69.7633 74.6854 70.253L75.2307 68.3287ZM69.1612 67.3794L69.2514 65.3815L69.0079 65.3705L68.9178 67.3685L68.8277 69.3664L69.0711 69.3774L69.1612 67.3794ZM68.9178 67.3685L69.0079 65.3705L68.7645 65.3595L68.6744 67.3575L68.5842 69.3554L68.8277 69.3664L68.9178 67.3685ZM68.6744 67.3575L68.7645 65.3595C66.5423 65.2592 64.3014 65.2683 62.0422 65.3864L62.1466 67.3837L62.251 69.381C64.383 69.2695 66.494 69.2611 68.5842 69.3554L68.6744 67.3575ZM62.1466 67.3837L62.0422 65.3864L61.7943 65.3994L61.8987 67.3966L62.0031 69.3939L62.251 69.381L62.1466 67.3837ZM61.8987 67.3966L61.7943 65.3994L61.5464 65.4123L61.6508 67.4096L61.7552 69.4069L62.0031 69.3939L61.8987 67.3966ZM61.6508 67.4096L61.5464 65.4123C59.5722 65.5155 57.6485 65.2944 55.7658 64.7495L55.2098 66.6706L54.6537 68.5918C56.9679 69.2616 59.3382 69.5332 61.7552 69.4069L61.6508 67.4096ZM55.2098 66.6706L55.7658 64.7495L55.5289 64.6809L54.9728 66.6021L54.4168 68.5232L54.6537 68.5918L55.2098 66.6706ZM54.9728 66.6021L55.5289 64.6809L55.292 64.6123L54.7359 66.5335L54.1799 68.4546L54.4168 68.5232L54.9728 66.6021ZM54.7359 66.5335L55.292 64.6123C53.233 64.0163 51.1946 63.3578 49.1769 62.6365L48.5037 64.5199L47.8305 66.4032C49.9256 67.152 52.042 67.8358 54.1799 68.4546L54.7359 66.5335ZM48.5037 64.5199L49.1769 62.6365L48.9447 62.5536L48.2715 64.4369L47.5984 66.3202L47.8305 66.4032L48.5037 64.5199ZM48.2715 64.4369L48.9447 62.5536L48.7125 62.4706L48.0394 64.3539L47.3662 66.2372L47.5984 66.3202L48.2715 64.4369ZM48.0394 64.3539L48.7125 62.4706C46.8596 61.8083 45.1407 60.8623 43.5506 59.6256L42.3228 61.2043L41.0949 62.7831C43.0141 64.2757 45.1063 65.4294 47.3662 66.2372L48.0394 64.3539ZM42.3228 61.2043L43.5506 59.6256L43.3525 59.4715L42.1247 61.0503L40.8968 62.629L41.0949 62.7831L42.3228 61.2043ZM42.1247 61.0503L43.3525 59.4715L43.1544 59.3175L41.9266 60.8962L40.6987 62.4749L40.8968 62.629L42.1247 61.0503ZM41.9266 60.8962L43.1544 59.3175C41.6879 58.1769 40.6462 56.7647 40.0001 55.0508L38.1286 55.7563L36.2572 56.4617C37.1657 58.8717 38.6559 60.8861 40.6987 62.4749L41.9266 60.8962ZM38.1286 55.7563L40.0001 55.0508L39.9123 54.818L38.0409 55.5235L36.1694 56.2289L36.2572 56.4617L38.1286 55.7563ZM38.0409 55.5235L39.9123 54.818L39.8246 54.5852L37.9531 55.2907L36.0817 55.9961L36.1694 56.2289L38.0409 55.5235ZM37.9531 55.2907L39.8246 54.5852C39.0821 52.6156 38.5011 50.6345 38.0802 48.6412L36.1234 49.0544L34.1665 49.4676C34.6307 51.6655 35.2696 53.8418 36.0817 55.9961L37.9531 55.2907ZM36.1234 49.0544L38.0802 48.6412L38.0302 48.4046L36.0734 48.8178L34.1166 49.2311L34.1665 49.4676L36.1234 49.0544ZM36.0734 48.8178L38.0302 48.4046L37.9803 48.168L36.0234 48.5812L34.0666 48.9945L34.1166 49.2311L36.0734 48.8178ZM36.0234 48.5812L37.9803 48.168C37.5832 46.2876 37.4866 44.3251 37.701 42.2716L35.7118 42.064L33.7226 41.8564C33.4674 44.3014 33.5786 46.6838 34.0666 48.9945L36.0234 48.5812ZM35.7118 42.064L37.701 42.2716L37.7275 42.0177L35.7383 41.81L33.7491 41.6024L33.7226 41.8564L35.7118 42.064ZM35.7383 41.81L37.7275 42.0177L37.754 41.7637L35.7648 41.5561L33.7756 41.3485L33.7491 41.6024L35.7383 41.81ZM35.7648 41.5561L37.754 41.7637C37.9359 40.0212 38.6663 38.6194 39.998 37.4653L38.6881 35.9539L37.3783 34.4425C35.2817 36.2595 34.0633 38.5924 33.7756 41.3485L35.7648 41.5561ZM38.6881 35.9539L39.998 37.4653L40.1915 37.2976L38.8817 35.7862L37.5718 34.2748L37.3783 34.4425L38.6881 35.9539ZM38.8817 35.7862L40.1915 37.2976L40.385 37.1299L39.0752 35.6185L37.7654 34.1071L37.5718 34.2748L38.8817 35.7862ZM39.0752 35.6185L40.385 37.1299C42.0721 35.6678 43.7477 34.2953 45.4118 33.0118L44.1904 31.4281L42.9689 29.8444C41.2411 31.177 39.5066 32.598 37.7654 34.1071L39.0752 35.6185ZM44.1904 31.4281L45.4118 33.0118L45.6033 32.8641L44.3819 31.2804L43.1604 29.6967L42.9689 29.8444L44.1904 31.4281ZM44.3819 31.2804L45.6033 32.8641L45.7948 32.7164L44.5733 31.1327L43.3519 29.549L43.1604 29.6967L44.3819 31.2804ZM44.5733 31.1327L45.7948 32.7164C47.3349 31.5286 49.0203 30.5849 50.8572 29.8835L50.1438 28.0151L49.4304 26.1466C47.232 26.986 45.2037 28.1208 43.3519 29.549L44.5733 31.1327ZM50.1438 28.0151L50.8572 29.8835L51.085 29.7965L50.3716 27.9281L49.6582 26.0596L49.4304 26.1466L50.1438 28.0151ZM50.3716 27.9281L51.085 29.7965L51.3128 29.7095L50.5994 27.8411L49.886 25.9727L49.6582 26.0596L50.3716 27.9281ZM50.5994 27.8411L51.3128 29.7095C53.2976 28.9517 55.3501 28.2282 57.4706 27.5392L56.8525 25.6371L56.2344 23.735C54.0528 24.4439 51.9366 25.1897 49.886 25.9727L50.5994 27.8411ZM56.8525 25.6371L57.4706 27.5392L57.7134 27.4602L57.0954 25.5581L56.4773 23.6561L56.2344 23.735L56.8525 25.6371ZM57.0954 25.5581L57.7134 27.4602L57.9563 27.3813L57.3382 25.4792L56.7201 23.5771L56.4773 23.6561L57.0954 25.5581ZM57.3382 25.4792L57.9563 27.3813C59.7441 26.8004 61.5198 26.7489 63.3299 27.2238L63.8374 25.2892L64.3448 23.3547C61.7915 22.6849 59.2344 22.7601 56.7201 23.5771L57.3382 25.4792ZM63.8374 25.2892L63.3299 27.2238L63.5762 27.2884L64.0837 25.3538L64.5912 23.4193L64.3448 23.3547L63.8374 25.2892ZM64.0837 25.3538L63.5762 27.2884L63.8226 27.353L64.33 25.4184L64.8375 23.4839L64.5912 23.4193L64.0837 25.3538ZM64.33 25.4184L63.8226 27.353C65.9559 27.9126 68.0369 28.5441 70.0659 29.2472L70.7208 27.3574L71.3756 25.4677C69.2471 24.7301 67.0677 24.0689 64.8375 23.4839L64.33 25.4184ZM70.7208 27.3574L70.0659 29.2472L70.3006 29.3285L70.9555 27.4388L71.6103 25.549L71.3756 25.4677L70.7208 27.3574ZM70.9555 27.4388L70.3006 29.3285L70.5353 29.4099L71.1902 27.5201L71.845 25.6304L71.6103 25.549L70.9555 27.4388ZM71.1902 27.5201L70.5353 29.4099C72.4256 30.0649 74.1758 30.9824 75.7918 32.1655L76.9733 30.5518L78.1547 28.9381C76.2174 27.5197 74.1122 26.416 71.845 25.6304L71.1902 27.5201ZM76.9733 30.5518L75.7918 32.1655L75.9924 32.3124L77.1739 30.6987L78.3553 29.085L78.1547 28.9381L76.9733 30.5518ZM77.1739 30.6987L75.9924 32.3124L76.193 32.4593L77.3744 30.8456L78.5559 29.2318L78.3553 29.085L77.1739 30.6987ZM77.3744 30.8456L76.193 32.4593C77.779 33.6205 79.0994 35.0076 80.164 36.627L81.8352 35.5283L83.5064 34.4297C82.1767 32.407 80.5232 30.6722 78.5559 29.2318L77.3744 30.8456ZM81.8352 35.5283L80.164 36.627L80.2991 36.8326L81.9704 35.7339L83.6416 34.6353L83.5064 34.4297L81.8352 35.5283ZM81.9704 35.7339L80.2991 36.8326L80.4343 37.0382L82.1055 35.9395L83.7767 34.8409L83.6416 34.6353L81.9704 35.7339ZM82.1055 35.9395L80.4343 37.0382C81.5039 38.6651 82.2466 40.3969 82.6719 42.2419L84.6208 41.7926L86.5697 41.3434C86.0356 39.0264 85.1015 36.8561 83.7767 34.8409L82.1055 35.9395ZM84.6208 41.7926L82.6719 42.2419L82.7261 42.4768L84.675 42.0276L86.6239 41.5783L86.5697 41.3434L84.6208 41.7926ZM84.675 42.0276L82.7261 42.4768L82.7802 42.7118L84.7291 42.2625L86.678 41.8133L86.6239 41.5783L84.675 42.0276ZM84.7291 42.2625L82.7802 42.7118C83.2338 44.6793 83.5263 46.7306 83.6554 48.8678L85.6518 48.7472L87.6481 48.6266C87.5064 46.2795 87.1839 44.0077 86.678 41.8133L84.7291 42.2625ZM85.6518 48.7472L83.6554 48.8678L83.6707 49.1209L85.6671 49.0003L87.6634 48.8798L87.6481 48.6266L85.6518 48.7472ZM85.6671 49.0003L83.6707 49.1209L83.686 49.3741L85.6824 49.2535L87.6787 49.1329L87.6634 48.8798L85.6671 49.0003ZM85.6824 49.2535L83.686 49.3741C83.7964 51.2021 83.3752 52.8873 82.3994 54.4821L84.1054 55.526L85.8114 56.5698C87.209 54.2856 87.8391 51.7891 87.6787 49.1329L85.6824 49.2535ZM84.1054 55.526L82.3994 54.4821L82.2654 54.7011L83.9714 55.7449L85.6774 56.7888L85.8114 56.5698L84.1054 55.526ZM83.9714 55.7449L82.2654 54.7011L82.1314 54.9201L83.8374 55.9639L85.5434 57.0078L85.6774 56.7888L83.9714 55.7449ZM83.8374 55.9639L82.1314 54.9201C81.0535 56.6818 79.8751 57.9807 78.622 58.8839L79.7915 60.5063L80.9609 62.1288C82.729 60.8545 84.2479 59.1251 85.5434 57.0078L83.8374 55.9639ZM79.7915 60.5063L78.622 58.8839L78.4515 59.0068L79.6209 60.6293L80.7903 62.2518L80.9609 62.1288L79.7915 60.5063ZM79.6209 60.6293L78.4515 59.0068L78.2809 59.1297L79.4503 60.7522L80.6198 62.3747L80.7903 62.2518L79.6209 60.6293ZM79.4503 60.7522L78.2809 59.1297C77.5197 59.6783 76.9276 60.1191 76.5236 60.4413C76.3297 60.596 76.1347 60.7585 75.9784 60.9101C75.9123 60.9742 75.7757 61.1098 75.6491 61.2884C75.5933 61.3672 75.4549 61.5698 75.361 61.8596C75.2787 62.1134 75.0894 62.8982 75.6411 63.6647L77.2643 62.4962L78.8874 61.3277C79.4325 62.0849 79.2427 62.8565 79.166 63.0932C79.0776 63.3658 78.9509 63.5473 78.9128 63.601C78.8595 63.6763 78.8146 63.7267 78.7972 63.7459C78.7766 63.7685 78.7638 63.7809 78.7635 63.7812C78.7624 63.7822 78.7673 63.7775 78.7797 63.7663C78.7919 63.7554 78.809 63.7404 78.8316 63.7211C78.8775 63.682 78.9389 63.6315 79.0182 63.5682C79.3429 63.3091 79.8704 62.9148 80.6198 62.3747L79.4503 60.7522ZM77.2643 62.4962L75.6411 63.6647L75.6471 63.673L77.2703 62.5045L78.8934 61.336L78.8874 61.3277L77.2643 62.4962ZM77.2703 62.5045L75.6471 63.673L75.6531 63.6814L77.2763 62.5129L78.8995 61.3444L78.8934 61.336L77.2703 62.5045ZM77.2763 62.5129L75.6531 63.6814C75.5476 63.5348 75.4874 63.4077 75.4651 63.3594C75.4368 63.2979 75.4181 63.2485 75.4084 63.2218C75.3892 63.169 75.3792 63.1328 75.3782 63.1294C75.3753 63.1192 75.38 63.1349 75.393 63.1928C75.4177 63.3027 75.4542 63.4814 75.5036 63.7409C75.6014 64.2546 75.7377 65.02 75.9133 66.0443L77.8845 65.7064L79.8558 65.3684C79.6791 64.3377 79.5378 63.5432 79.433 62.9925C79.381 62.7197 79.3348 62.49 79.2955 62.3153C79.2766 62.2309 79.2539 62.1353 79.2283 62.0447C79.216 62.0011 79.1958 61.9324 79.1676 61.8549C79.1606 61.8357 79.0792 61.5941 78.8995 61.3444L77.2763 62.5129ZM77.8845 65.7064L75.9133 66.0443L75.9531 66.2763L77.9243 65.9384L79.8956 65.6005L79.8558 65.3684L77.8845 65.7064ZM58.0886 21.3993L58.0553 19.3996L57.8033 19.4038L57.8366 21.4035L57.8699 23.4032L58.1219 23.399L58.0886 21.3993ZM57.8366 21.4035L57.8033 19.4038C55.4195 19.4435 53.0596 19.7522 50.7265 20.3286L51.2062 22.2703L51.6859 24.2119C53.7296 23.7069 55.7901 23.4379 57.8699 23.4032L57.8366 21.4035ZM51.2062 22.2703L50.7265 20.3286L50.4794 20.3897L50.9591 22.3313L51.4388 24.2729L51.6859 24.2119L51.2062 22.2703ZM50.9591 22.3313L50.4794 20.3897L50.2323 20.4507L50.712 22.3923L51.1917 24.334L51.4388 24.2729L50.9591 22.3313ZM50.712 22.3923L50.2323 20.4507C47.8176 21.0473 45.5739 22.0403 43.5113 23.4258L44.6265 25.0861L45.7417 26.7463C47.4162 25.6215 49.2295 24.8187 51.1917 24.334L50.712 22.3923ZM44.6265 25.0861L43.5113 23.4258L43.3003 23.5676L44.4155 25.2278L45.5307 26.888L45.7417 26.7463L44.6265 25.0861ZM44.4155 25.2278L43.3003 23.5676L43.0894 23.7093L44.2046 25.3695L45.3198 27.0297L45.5307 26.888L44.4155 25.2278ZM44.2046 25.3695L43.0894 23.7093C41.0841 25.0562 39.2896 26.6174 37.7107 28.392L39.2049 29.7214L40.6991 31.0508C42.0494 29.5332 43.5879 28.193 45.3198 27.0297L44.2046 25.3695ZM39.2049 29.7214L37.7107 28.392L37.5453 28.5779L39.0395 29.9073L40.5338 31.2367L40.6991 31.0508L39.2049 29.7214ZM39.0395 29.9073L37.5453 28.5779L37.38 28.7637L38.8742 30.0931L40.3684 31.4225L40.5338 31.2367L39.0395 29.9073ZM38.8742 30.0931L37.38 28.7637C35.8335 30.502 34.4702 32.3559 33.292 34.325L35.0083 35.3519L36.7245 36.3788C37.7718 34.6285 38.9858 32.9766 40.3684 31.4225L38.8742 30.0931ZM35.0083 35.3519L33.292 34.325L33.1664 34.5349L34.8826 35.5618L36.5989 36.5887L36.7245 36.3788L35.0083 35.3519ZM34.8826 35.5618L33.1664 34.5349L33.0408 34.7449L34.757 35.7718L36.4732 36.7987L36.5989 36.5887L34.8826 35.5618ZM34.757 35.7718L33.0408 34.7449C31.8244 36.7778 30.9351 38.9518 30.375 41.2603L32.3186 41.7319L34.2622 42.2035C34.7278 40.2845 35.4642 38.4851 36.4732 36.7987L34.757 35.7718ZM32.3186 41.7319L30.375 41.2603L30.3171 41.499L32.2607 41.9706L34.2043 42.4422L34.2622 42.2035L32.3186 41.7319ZM32.2607 41.9706L30.3171 41.499L30.2592 41.7376L32.2028 42.2092L34.1464 42.6808L34.2043 42.4422L32.2607 41.9706ZM32.2028 42.2092L30.2592 41.7376C29.679 44.1286 29.6202 46.5369 30.0856 48.9427L32.0492 48.5629L34.0128 48.1831C33.6572 46.3448 33.7008 44.5173 34.1464 42.6808L32.2028 42.2092ZM32.0492 48.5629L30.0856 48.9427L30.1319 49.1823L32.0955 48.8025L34.0591 48.4227L34.0128 48.1831L32.0492 48.5629ZM32.0955 48.8025L30.1319 49.1823L30.1783 49.4219L32.1419 49.0421L34.1055 48.6623L34.0591 48.4227L32.0955 48.8025ZM32.1419 49.0421L30.1783 49.4219C30.2513 49.7993 30.2369 49.9966 30.2249 50.0646C30.2173 50.108 30.2277 50.0182 30.3304 49.9167C30.4244 49.8237 30.4767 49.8394 30.35 49.8665C30.2113 49.8962 29.9425 49.9198 29.498 49.8733L29.29 51.8624L29.0819 53.8516C30.4123 53.9908 32.0118 53.8795 33.1431 52.7608C34.3307 51.5863 34.3574 49.9646 34.1055 48.6623L32.1419 49.0421ZM29.29 51.8624L29.498 49.8733L29.237 49.846L29.0289 51.8351L28.8209 53.8243L29.0819 53.8516L29.29 51.8624ZM29.0289 51.8351L29.237 49.846L28.976 49.8187L28.7679 51.8078L28.5599 53.797L28.8209 53.8243L29.0289 51.8351ZM28.7679 51.8078L28.976 49.8187C26.6005 49.5702 24.2319 49.4376 21.8703 49.4212L21.8565 51.4212L21.8426 53.4211C24.0728 53.4366 26.3118 53.5618 28.5599 53.797L28.7679 51.8078ZM21.8565 51.4212L21.8703 49.4212L21.6111 49.4194L21.5972 51.4194L21.5834 53.4193L21.8426 53.4211L21.8565 51.4212ZM21.5972 51.4194L21.6111 49.4194L21.3519 49.4176L21.338 51.4176L21.3242 53.4175L21.5834 53.4193L21.5972 51.4194ZM21.338 51.4176L21.3519 49.4176C18.6059 49.3986 16.1285 50.2445 14.0001 51.9455L15.2487 53.5079L16.4973 55.0702C17.8961 53.9523 19.4783 53.4047 21.3242 53.4175L21.338 51.4176ZM15.2487 53.5079L14.0001 51.9455L13.801 52.1046L15.0495 53.667L16.2981 55.2294L16.4973 55.0702L15.2487 53.5079ZM15.0495 53.667L13.801 52.1046L13.6018 52.2637L14.8504 53.8261L16.099 55.3885L16.2981 55.2294L15.0495 53.667ZM14.8504 53.8261L13.6018 52.2637C13.2187 52.57 12.9813 52.7111 12.8699 52.7631C12.8182 52.7872 12.8465 52.7668 12.9402 52.7502C13.0359 52.7333 13.2552 52.7111 13.5349 52.7957C13.8387 52.8877 14.0974 53.0714 14.278 53.2971C14.4413 53.5013 14.4955 53.6818 14.5111 53.7443C14.5345 53.8377 14.4977 53.7617 14.5455 53.3852L12.5614 53.1332L10.5774 52.8813C10.5063 53.4404 10.4758 54.0951 10.6305 54.714C10.7979 55.3842 11.2785 56.292 12.376 56.6242C13.2826 56.8986 14.103 56.6016 14.5607 56.3882C15.081 56.1455 15.6004 55.787 16.099 55.3885L14.8504 53.8261ZM12.5614 53.1332L14.5455 53.3852L14.5723 53.1739L12.5883 52.922L10.6042 52.67L10.5774 52.8813L12.5614 53.1332ZM12.5883 52.922L14.5723 53.1739L14.5992 52.9627L12.6151 52.7107L10.631 52.4587L10.6042 52.67L12.5883 52.922ZM12.6151 52.7107L14.5992 52.9627C14.9148 50.4774 14.1469 48.165 12.5235 46.1095L10.954 47.3492L9.38452 48.5888C10.4512 49.9393 10.7907 51.2013 10.631 52.4587L12.6151 52.7107ZM10.954 47.3492L12.5235 46.1095L12.3716 45.9173L10.8021 47.1569L9.23265 48.3965L9.38452 48.5888L10.954 47.3492ZM10.8021 47.1569L12.3716 45.9173L12.2198 45.725L10.6503 46.9646L9.08079 48.2043L9.23265 48.3965L10.8021 47.1569ZM10.6503 46.9646L12.2198 45.725C10.9222 44.0822 9.70822 42.3514 8.57798 40.5322L6.87914 41.5876L5.18031 42.6431C6.38814 44.5872 7.68824 46.4412 9.08079 48.2043L10.6503 46.9646ZM6.87914 41.5876L8.57798 40.5322L8.446 40.3198L6.74716 41.3752L5.04832 42.4306L5.18031 42.6431L6.87914 41.5876ZM6.74716 41.3752L8.446 40.3198L8.31401 40.1073L6.61517 41.1627L4.91633 42.2182L5.04832 42.4306L6.74716 41.3752ZM6.61517 41.1627L8.31401 40.1073C7.19208 38.3014 6.21425 36.4586 5.3792 34.5786L3.5514 35.3905L1.7236 36.2024C2.6355 38.2554 3.70019 40.2607 4.91633 42.2182L6.61517 41.1627ZM3.5514 35.3905L5.3792 34.5786L5.28058 34.3566L3.45278 35.1685L1.62499 35.9804L1.7236 36.2024L3.5514 35.3905ZM3.45278 35.1685L5.28058 34.3566L5.18196 34.1346L3.35417 34.9465L1.52637 35.7584L1.62499 35.9804L3.45278 35.1685ZM3.35417 34.9465L5.18196 34.1346C4.41829 32.4153 4.02853 30.6306 4.00728 28.7643L2.00741 28.7871L0.00754035 28.8099C0.0350165 31.2232 0.543095 33.5447 1.52637 35.7584L3.35417 34.9465ZM2.00741 28.7871L4.00728 28.7643L4.00453 28.5228L2.00466 28.5455L0.00478983 28.5683L0.00754035 28.8099L2.00741 28.7871ZM2.00466 28.5455L4.00453 28.5228L4.00178 28.2812L2.00191 28.3039L0.00203931 28.3267L0.00478983 28.5683L2.00466 28.5455ZM2.00191 28.3039L4.00178 28.2812C3.97904 26.2838 4.16793 24.3051 4.56887 22.3427L2.60936 21.9424L0.649841 21.542C0.192133 23.7821 -0.0239438 26.0445 0.00203931 28.3267L2.00191 28.3039ZM2.60936 21.9424L4.56887 22.3427L4.61735 22.1055L2.65783 21.7051L0.698313 21.3048L0.649841 21.542L2.60936 21.9424ZM2.65783 21.7051L4.61735 22.1055L4.66582 21.8683L2.7063 21.4679L0.746786 21.0675L0.698313 21.3048L2.65783 21.7051ZM2.7063 21.4679L4.66582 21.8683C5.06166 19.9309 5.70171 18.024 6.59168 16.1455L4.78425 15.2892L2.97683 14.4329C1.95485 16.5901 1.2096 18.8024 0.746786 21.0675L2.7063 21.4679ZM4.78425 15.2892L6.59168 16.1455L6.69961 15.9177L4.89219 15.0614L3.08476 14.2051L2.97683 14.4329L4.78425 15.2892ZM4.89219 15.0614L6.69961 15.9177L6.80755 15.6898L5.00012 14.8336L3.19269 13.9773L3.08476 14.2051L4.89219 15.0614ZM5.00012 14.8336L6.80755 15.6898C7.59156 14.0349 8.75871 12.7575 10.3469 11.8206L9.33068 10.098L8.3145 8.37542C6.04051 9.71686 4.32062 11.5964 3.19269 13.9773L5.00012 14.8336ZM9.33068 10.098L10.3469 11.8206L10.5649 11.692L9.5487 9.96941L8.53252 8.2468L8.3145 8.37542L9.33068 10.098ZM9.5487 9.96941L10.5649 11.692L10.7829 11.5634L9.76673 9.84079L8.75054 8.11819L8.53252 8.2468L9.5487 9.96941ZM9.76673 9.84079L10.7829 11.5634C12.7582 10.3982 14.6696 9.16825 16.5168 7.87353L15.3689 6.23574L14.221 4.59796C12.4608 5.83166 10.6374 7.0051 8.75054 8.11819L9.76673 9.84079ZM15.3689 6.23574L16.5168 7.87353L16.7205 7.73079L15.5726 6.09301L14.4247 4.45522L14.221 4.59796L15.3689 6.23574ZM15.5726 6.09301L16.7205 7.73079L16.9241 7.58806L15.7762 5.95027L14.6283 4.31249L14.4247 4.45522L15.5726 6.09301ZM15.7762 5.95027L16.9241 7.58806C18.5348 6.45919 20.292 5.64145 22.2061 5.13146L21.6912 3.19888L21.1763 1.26629C18.8113 1.89641 16.6252 2.91293 14.6283 4.31249L15.7762 5.95027ZM21.6912 3.19888L22.2061 5.13146L22.4477 5.0671L21.9328 3.13452L21.4179 1.20193L21.1763 1.26629L21.6912 3.19888ZM21.9328 3.13452L22.4477 5.0671L22.6893 5.00274L22.1744 3.07016L21.6595 1.13757L21.4179 1.20193L21.9328 3.13452ZM22.1744 3.07016L22.6893 5.00274C24.6883 4.47014 26.7156 4.1614 28.7737 4.07577L28.6905 2.0775L28.6074 0.079227C26.2565 0.177035 23.9396 0.53006 21.6595 1.13757L22.1744 3.07016ZM28.6905 2.0775L28.7737 4.07577L29.0226 4.06541L28.9394 2.06714L28.8563 0.0688719L28.6074 0.079227L28.6905 2.0775ZM28.9394 2.06714L29.0226 4.06541L29.2715 4.05506L29.1883 2.05679L29.1052 0.0585167L28.8563 0.0688719L28.9394 2.06714ZM29.1883 2.05679L29.2715 4.05506C31.4088 3.96614 33.548 3.98496 35.6895 4.11158L35.8075 2.11506L35.9256 0.118551C33.6505 -0.0159671 31.377 -0.0359966 29.1052 0.0585167L29.1883 2.05679ZM35.8075 2.11506L35.6895 4.11158L35.9388 4.12632L36.0568 2.12981L36.1749 0.133292L35.9256 0.118551L35.8075 2.11506ZM36.0568 2.12981L35.9388 4.12632L36.1881 4.14106L36.3062 2.14455L36.4242 0.148033L36.1749 0.133292L36.0568 2.12981ZM36.3062 2.14455L36.1881 4.14106C38.1519 4.25717 40.0217 4.71952 41.8097 5.53069L42.636 3.70936L43.4623 1.88804C41.227 0.873918 38.8769 0.293056 36.4242 0.148033L36.3062 2.14455ZM42.636 3.70936L41.8097 5.53069L42.0368 5.63373L42.8631 3.8124L43.6894 1.99108L43.4623 1.88804L42.636 3.70936ZM42.8631 3.8124L42.0368 5.63373L42.2639 5.73677L43.0902 3.91544L43.9165 2.09412L43.6894 1.99108L42.8631 3.8124ZM43.0902 3.91544L42.2639 5.73677C44.267 6.6455 46.2588 7.56628 48.2394 8.49912L49.0915 6.68976L49.9437 4.8804C47.9459 3.93943 45.9368 3.01067 43.9165 2.09412L43.0902 3.91544ZM49.0915 6.68976L48.2394 8.49912L48.464 8.6049L49.3161 6.79554L50.1683 4.98618L49.9437 4.8804L49.0915 6.68976ZM49.3161 6.79554L48.464 8.6049L48.6885 8.71068L49.5407 6.90132L50.3929 5.09196L50.1683 4.98618L49.3161 6.79554ZM49.5407 6.90132L48.6885 8.71068C50.4169 9.5247 51.8841 10.6543 53.1069 12.1109L54.6387 10.825L56.1705 9.53907C54.5745 7.6379 52.643 6.15174 50.3929 5.09196L49.5407 6.90132ZM54.6387 10.825L53.1069 12.1109L53.266 12.3005L54.7978 11.0145L56.3296 9.72862L56.1705 9.53907L54.6387 10.825ZM54.7978 11.0145L53.266 12.3005L53.4251 12.49L54.9569 11.2041L56.4887 9.91817L56.3296 9.72862L54.7978 11.0145ZM54.9569 11.2041L53.4251 12.49C54.7655 14.0866 55.9549 15.7634 56.9948 17.5208L58.716 16.5022L60.4372 15.4837C59.2839 13.5347 57.9672 11.6794 56.4887 9.91817L54.9569 11.2041ZM58.716 16.5022L56.9948 17.5208L57.1186 17.73L58.8398 16.7115L60.561 15.693L60.4372 15.4837L58.716 16.5022ZM58.8398 16.7115L57.1186 17.73L57.2424 17.9392L58.9636 16.9207L60.6848 15.9022L60.561 15.693L58.8398 16.7115ZM58.9636 16.9207L57.2424 17.9392C58.3319 19.7805 59.0738 21.0064 59.4406 21.563L61.1106 20.4626L62.7807 19.3622C62.478 18.9027 61.7885 17.7674 60.6848 15.9022L58.9636 16.9207ZM61.1106 20.4626L59.4406 21.563L59.4783 21.6203L61.1484 20.52L62.8185 19.4196L62.7807 19.3622L61.1106 20.4626ZM61.1484 20.52L59.4783 21.6203L59.5161 21.6777L61.1862 20.5773L62.8563 19.477L62.8185 19.4196L61.1484 20.52ZM61.1862 20.5773L59.5161 21.6777C59.424 21.5379 59.2657 21.2414 59.2526 20.8187C59.2382 20.3554 59.4051 19.957 59.6245 19.678C59.8169 19.4333 60.0168 19.3183 60.0875 19.281C60.1674 19.2388 60.207 19.231 60.1735 19.2406C59.9747 19.2977 59.4116 19.377 58.3073 19.3954L58.3406 21.3951L58.3739 23.3948C59.5014 23.3761 60.5285 23.3005 61.2783 23.085C61.586 22.9966 62.2791 22.7733 62.7689 22.1504C63.065 21.7738 63.2685 21.2705 63.2506 20.6949C63.2341 20.1599 63.0321 19.7437 62.8563 19.477L61.1862 20.5773ZM58.3406 21.3951L58.3073 19.3954L58.0553 19.3996L58.0886 21.3993L58.1219 23.399L58.3739 23.3948L58.3406 21.3951ZM43.3438 20.5862L44.9939 21.7164L45.1078 21.5502L43.4577 20.42L41.8076 19.2899L41.6937 19.4561L43.3438 20.5862ZM43.4577 20.42L45.1078 21.5502C45.7414 20.625 46.2795 19.4079 45.9935 18.0779C45.6938 16.6838 44.6432 15.8372 43.6186 15.3465L42.7546 17.1502L41.8906 18.9539C41.9954 19.0042 42.0682 19.0478 42.116 19.0807C42.1637 19.1136 42.1815 19.1322 42.181 19.1317C42.1797 19.1303 42.1608 19.11 42.1383 19.0689C42.115 19.0265 42.095 18.9748 42.0829 18.9187C42.0573 18.7998 42.0848 18.7481 42.0664 18.8091C42.045 18.8799 41.9799 19.0383 41.8076 19.2899L43.4577 20.42ZM42.7546 17.1502L43.6186 15.3465L43.4518 15.2666L42.5878 17.0703L41.7238 18.8741L41.8906 18.9539L42.7546 17.1502ZM42.5878 17.0703L43.4518 15.2666L43.2851 15.1867L42.4211 16.9904L41.5571 18.7942L41.7238 18.8741L42.5878 17.0703ZM42.4211 16.9904L43.2851 15.1867C42.3082 14.7188 40.9875 14.3841 39.7124 15.0272C38.4646 15.6565 37.9219 16.8945 37.6741 17.9428L39.6204 18.403L41.5667 18.8632C41.5977 18.7323 41.6291 18.6343 41.6566 18.5635C41.6841 18.4926 41.7047 18.4568 41.7113 18.4461C41.7176 18.4361 41.7073 18.4551 41.6732 18.4878C41.6562 18.5041 41.6341 18.523 41.6067 18.5426C41.5792 18.5622 41.548 18.5813 41.5137 18.5986C41.4793 18.616 41.4442 18.6303 41.4093 18.6416C41.3745 18.6528 41.3422 18.6603 41.3138 18.665C41.2567 18.6744 41.2225 18.6714 41.2197 18.6711C41.218 18.671 41.2448 18.6735 41.3041 18.6918C41.3633 18.71 41.4471 18.7415 41.5571 18.7942L42.4211 16.9904ZM39.6204 18.403L37.6741 17.9428L37.63 18.129L39.5764 18.5892L41.5227 19.0494L41.5667 18.8632L39.6204 18.403ZM39.5764 18.5892L37.63 18.129L37.586 18.3152L39.5323 18.7754L41.4787 19.2356L41.5227 19.0494L39.5764 18.5892ZM39.5323 18.7754L37.586 18.3152C37.151 20.155 37.1532 22.4916 39.1841 23.7466L40.2354 22.0452L41.2868 20.3438C41.3053 20.3553 41.3393 20.3836 41.3665 20.424C41.3912 20.4606 41.3834 20.4672 41.3709 20.4094C41.3402 20.2665 41.3198 19.9076 41.4787 19.2356L39.5323 18.7754ZM40.2354 22.0452L39.1841 23.7466L39.281 23.8065L40.3324 22.1051L41.3837 20.4037L41.2868 20.3438L40.2354 22.0452ZM40.3324 22.1051L39.281 23.8065L39.378 23.8664L40.4293 22.165L41.4807 20.4637L41.3837 20.4037L40.3324 22.1051ZM40.4293 22.165L39.378 23.8664C40.4244 24.513 41.6134 24.5306 42.6742 23.9956C43.5852 23.5361 44.3031 22.7251 44.88 21.8826L43.23 20.7525L41.5799 19.6223C41.378 19.9172 41.2074 20.1207 41.073 20.2552C40.9364 20.3919 40.8672 20.427 40.8728 20.4241C40.8889 20.416 40.991 20.3709 41.154 20.3763C41.3207 20.3819 41.4367 20.4365 41.4807 20.4637L40.4293 22.165ZM43.23 20.7525L44.88 21.8826L44.9939 21.7164L43.3438 20.5862L41.6937 19.4561L41.5799 19.6223L43.23 20.7525ZM22.9374 20.5921L24.5947 21.7118L24.7067 21.546L23.0495 20.4263L21.3923 19.3066L21.2802 19.4725L22.9374 20.5921ZM23.0495 20.4263L24.7067 21.546C25.3232 20.6335 25.8587 19.4295 25.5844 18.1164C25.2922 16.7176 24.2385 15.8827 23.2191 15.4126L22.3815 17.2287L21.5439 19.0449C21.7453 19.1378 21.8005 19.1984 21.7893 19.1868C21.7812 19.1783 21.7569 19.1507 21.7304 19.1022C21.7033 19.0525 21.6816 18.9948 21.669 18.9344C21.6426 18.8084 21.6718 18.7546 21.6522 18.8192C21.6299 18.8925 21.5637 19.0529 21.3923 19.3066L23.0495 20.4263ZM22.3815 17.2287L23.2191 15.4126L23.0568 15.3377L22.2192 17.1539L21.3816 18.97L21.5439 19.0449L22.3815 17.2287ZM22.2192 17.1539L23.0568 15.3377L22.8945 15.2629L22.0569 17.079L21.2193 18.8951L21.3816 18.97L22.2192 17.1539ZM22.0569 17.079L22.8945 15.2629C21.9676 14.8354 20.6849 14.4992 19.4446 15.1054C18.1863 15.7205 17.6805 16.955 17.4746 17.9596L19.4338 18.3612L21.3931 18.7627C21.4156 18.6528 21.4386 18.5757 21.4569 18.5254C21.4752 18.475 21.4858 18.4596 21.4806 18.4681C21.4749 18.4775 21.4512 18.5138 21.4022 18.5606C21.3516 18.6088 21.284 18.6586 21.2012 18.6991C21.1187 18.7394 21.041 18.7608 20.9787 18.7703C20.9185 18.7794 20.8833 18.7761 20.8815 18.7759C20.8805 18.7758 20.908 18.7786 20.9676 18.7966C21.0271 18.8145 21.1104 18.8449 21.2193 18.8951L22.0569 17.079ZM19.4338 18.3612L17.4746 17.9596L17.4394 18.1309L19.3987 18.5325L21.358 18.9341L21.3931 18.7627L19.4338 18.3612ZM19.3987 18.5325L17.4394 18.1309L17.4043 18.3023L19.3636 18.7039L21.3228 19.1055L21.358 18.9341L19.3987 18.5325ZM19.3636 18.7039L17.4043 18.3023C17.039 20.0846 17.1412 22.1314 18.7712 23.4544L20.0316 21.9015L21.2919 20.3486C21.2899 20.3469 21.2927 20.35 21.2922 20.3492C21.2903 20.3458 21.2719 20.3137 21.255 20.2327C21.2178 20.0548 21.2007 19.7016 21.3228 19.1055L19.3636 18.7039ZM20.0316 21.9015L18.7712 23.4544L18.8566 23.5237L20.117 21.9708L21.3773 20.4179L21.2919 20.3486L20.0316 21.9015ZM20.117 21.9708L18.8566 23.5237L18.942 23.593L20.2024 22.0401L21.4627 20.4872L21.3773 20.4179L20.117 21.9708ZM20.2024 22.0401L18.942 23.593C19.371 23.9411 19.9161 24.2182 20.5645 24.2923C21.2131 24.3665 21.8069 24.2197 22.3037 23.9768C23.2196 23.5291 23.9277 22.6989 24.4826 21.8776L22.8254 20.7579L21.1682 19.6383C20.9676 19.9352 20.8027 20.1345 20.6781 20.2611C20.5493 20.3919 20.5031 20.4047 20.5471 20.3832C20.6068 20.354 20.7782 20.2907 21.0191 20.3182C21.2598 20.3458 21.412 20.446 21.4627 20.4872L20.2024 22.0401ZM22.8254 20.7579L24.4826 21.8776L24.5947 21.7118L22.9374 20.5921L21.2802 19.4725L21.1682 19.6383L22.8254 20.7579Z" fill="black"/>
</svg>
