<svg width="86" height="72" viewBox="0 0 86 72" fill="none" xmlns="http://www.w3.org/2000/svg">
<path d="M64.4201 3.72156H72.3141L42.3141 35.2216L17.3141 69.3354H7.81409L64.4201 3.72156Z" fill="black"/>
<path d="M67.044 4.69726L66.4979 1.74739L67.044 4.69726ZM64.409 5.18511L64.9552 8.13498L64.409 5.18511ZM57.388 12.884L59.9512 14.443L57.388 12.884ZM53.7898 17.1098L51.843 14.8272L53.7898 17.1098ZM49.5174 20.7538L51.4642 23.0363L49.5174 20.7538ZM45.4342 24.5611L47.5761 26.6617L45.4342 24.5611ZM43.4872 26.5464L41.3453 24.4459L43.4872 26.5464ZM41.5403 28.5317L43.6822 30.6323L41.5403 28.5317ZM38.0397 32.8416L40.5339 34.5086L38.0397 32.8416ZM34.9324 37.4909L37.4266 39.1579L34.9324 37.4909ZM31.5775 41.9266L33.8597 43.8737L31.5775 41.9266ZM27.9752 46.1487L25.693 44.2015L27.9752 46.1487ZM24.1221 50.1545L26.1574 52.3586L24.1221 50.1545ZM20.0183 53.9441L17.9831 51.74L20.0183 53.9441ZM16.2476 58.021L13.8909 56.1647L16.2476 58.021ZM14.5288 60.2032L16.8856 62.0594L14.5288 60.2032ZM12.8101 62.3853L15.1668 64.2416L12.8101 62.3853ZM11.6093 65.3971L9.06456 66.9859L11.6093 65.3971ZM12.6453 67.0564L15.19 65.4675L12.6453 67.0564ZM15.5188 67.0602L14.5263 64.2291L15.5188 67.0602ZM17.8743 66.2345L16.8818 63.4034L17.8743 66.2345ZM20.2298 65.4087L21.2223 68.2398L20.2298 65.4087ZM24.0378 62.2069L26.5974 63.7715L24.0378 62.2069ZM25.4902 59.8309L22.9305 58.2662L25.4902 59.8309ZM26.9426 57.4549L29.5022 59.0195L26.9426 57.4549ZM32.1398 50.9424L29.9158 48.929L32.1398 50.9424ZM34.0122 48.8742L36.2362 50.8877V50.8877L34.0122 48.8742ZM37.0918 44.2503L34.3792 42.969L37.0918 44.2503ZM39.5062 39.1389L42.2188 40.4202L39.5062 39.1389ZM42.6914 34.6191L40.5776 32.4903L42.6914 34.6191ZM44.6693 32.655L46.7832 34.7838L44.6693 32.655ZM46.6473 30.691L48.7611 32.8198L46.6473 30.691ZM50.6417 26.8152L52.7057 28.9923L50.6417 26.8152ZM60.9144 17.438L62.8736 19.7099L60.9144 17.438ZM67.8383 8.70362L70.4887 10.1092L67.8383 8.70362ZM71.4265 3.66644L71.6124 0.672209L71.4265 3.66644ZM71.8703 3.694L71.6844 6.68823L71.8703 3.694ZM67.044 4.69726L67.5902 7.64713L64.9552 8.13498L64.409 5.18511L63.8629 2.23525L66.4979 1.74739L67.044 4.69726ZM64.409 5.18511L64.9552 8.13498C64.0844 8.29619 63.4311 8.7215 62.8751 9.63562L60.312 8.07666L57.7489 6.5177C59.1422 4.2269 61.2203 2.7245 63.8629 2.23525L64.409 5.18511ZM60.312 8.07666L62.8751 9.63562L61.4132 12.0393L58.85 10.4804L56.2869 8.92139L57.7489 6.5177L60.312 8.07666ZM58.85 10.4804L61.4132 12.0393L59.9512 14.443L57.388 12.884L54.8249 11.3251L56.2869 8.92139L58.85 10.4804ZM57.388 12.884L59.9512 14.443C58.8112 16.3173 57.4039 17.9703 55.7366 19.3923L53.7898 17.1098L51.843 14.8272C53.0241 13.8199 54.0156 12.6557 54.8249 11.3251L57.388 12.884ZM53.7898 17.1098L55.7366 19.3923L53.6004 21.2143L51.6536 18.9318L49.7068 16.6493L51.843 14.8272L53.7898 17.1098ZM51.6536 18.9318L53.6004 21.2143L51.4642 23.0363L49.5174 20.7538L47.5706 18.4713L49.7068 16.6493L51.6536 18.9318ZM49.5174 20.7538L51.4642 23.0363C50.1071 24.1938 48.8112 25.4023 47.5761 26.6617L45.4342 24.5611L43.2923 22.4606C44.6532 21.0729 46.0794 19.7431 47.5706 18.4713L49.5174 20.7538ZM45.4342 24.5611L47.5761 26.6617L45.6291 28.647L43.4872 26.5464L41.3453 24.4459L43.2923 22.4606L45.4342 24.5611ZM43.4872 26.5464L45.6291 28.647L43.6822 30.6323L41.5403 28.5317L39.3984 26.4312L41.3453 24.4459L43.4872 26.5464ZM41.5403 28.5317L43.6822 30.6323C42.5156 31.8218 41.4665 33.1132 40.5339 34.5086L38.0397 32.8416L35.5454 31.1746C36.6843 29.4706 37.969 27.8887 39.3984 26.4312L41.5403 28.5317ZM38.0397 32.8416L40.5339 34.5086L38.9802 36.8333L36.486 35.1663L33.9918 33.4993L35.5454 31.1746L38.0397 32.8416ZM36.486 35.1663L38.9802 36.8333L37.4266 39.1579L34.9324 37.4909L32.4381 35.8239L33.9918 33.4993L36.486 35.1663ZM34.9324 37.4909L37.4266 39.1579C36.3262 40.8043 35.1372 42.3765 33.8597 43.8737L31.5775 41.9266L29.2953 39.9794C30.4194 38.6618 31.467 37.2769 32.4381 35.8239L34.9324 37.4909ZM31.5775 41.9266L33.8597 43.8737L32.0586 45.9848L29.7764 44.0376L27.4941 42.0904L29.2953 39.9794L31.5775 41.9266ZM29.7764 44.0376L32.0586 45.9848L30.2574 48.0959L27.9752 46.1487L25.693 44.2015L27.4941 42.0904L29.7764 44.0376ZM27.9752 46.1487L30.2574 48.0959C28.979 49.5943 27.6121 51.0153 26.1574 52.3586L24.1221 50.1545L22.0869 47.9505C23.368 46.7675 24.5699 45.5179 25.693 44.2015L27.9752 46.1487ZM24.1221 50.1545L26.1574 52.3586L24.1054 54.2533L22.0702 52.0493L20.035 49.8453L22.0869 47.9505L24.1221 50.1545ZM22.0702 52.0493L24.1054 54.2533L22.0535 56.1481L20.0183 53.9441L17.9831 51.74L20.035 49.8453L22.0702 52.0493ZM20.0183 53.9441L22.0535 56.1481C20.8011 57.3046 19.6518 58.5474 18.6044 59.8773L16.2476 58.021L13.8909 56.1647C15.1351 54.585 16.4996 53.1099 17.9831 51.74L20.0183 53.9441ZM16.2476 58.021L18.6044 59.8773L16.8856 62.0594L14.5288 60.2032L12.1721 58.3469L13.8909 56.1647L16.2476 58.021ZM14.5288 60.2032L16.8856 62.0594L15.1668 64.2416L12.8101 62.3853L10.4533 60.529L12.1721 58.3469L14.5288 60.2032ZM12.8101 62.3853L15.1668 64.2416C14.929 64.5435 14.7542 64.7915 14.6301 64.9888C14.503 65.1909 14.4513 65.3048 14.4372 65.3404C14.419 65.3858 14.4792 65.2587 14.4882 65.0035C14.4982 64.7191 14.4417 64.269 14.154 63.8083L11.6093 65.3971L9.06456 66.9859C8.12723 65.4847 8.54183 63.9258 8.86379 63.1183C9.22018 62.2244 9.80973 61.3461 10.4533 60.529L12.8101 62.3853ZM11.6093 65.3971L14.154 63.8083L14.672 64.6379L12.1273 66.2267L9.58256 67.8156L9.06456 66.9859L11.6093 65.3971ZM12.1273 66.2267L14.672 64.6379L15.19 65.4675L12.6453 67.0564L10.1006 68.6452L9.58256 67.8156L12.1273 66.2267ZM12.6453 67.0564L15.19 65.4675C14.9222 65.0387 14.5456 64.7569 14.1935 64.6071C13.8805 64.474 13.6559 64.4722 13.6267 64.4721C13.5907 64.4721 13.6455 64.4757 13.819 64.438C13.9862 64.4017 14.219 64.3369 14.5263 64.2291L15.5188 67.0602L16.5113 69.8913C15.6057 70.2088 14.5984 70.4735 13.6186 70.4721C12.6298 70.4708 11.0498 70.1656 10.1006 68.6452L12.6453 67.0564ZM15.5188 67.0602L14.5263 64.2291L16.8818 63.4034L17.8743 66.2345L18.8668 69.0655L16.5113 69.8913L15.5188 67.0602ZM17.8743 66.2345L16.8818 63.4034L19.2374 62.5776L20.2298 65.4087L21.2223 68.2398L18.8668 69.0655L17.8743 66.2345ZM20.2298 65.4087L19.2374 62.5776C20.079 62.2826 20.8263 61.7086 21.4781 60.6422L24.0378 62.2069L26.5974 63.7715C25.3127 65.8732 23.5214 67.4338 21.2223 68.2398L20.2298 65.4087ZM24.0378 62.2069L21.4781 60.6422L22.9305 58.2662L25.4902 59.8309L28.0498 61.3955L26.5974 63.7715L24.0378 62.2069ZM25.4902 59.8309L22.9305 58.2662L24.3829 55.8902L26.9426 57.4549L29.5022 59.0195L28.0498 61.3955L25.4902 59.8309ZM26.9426 57.4549L24.3829 55.8902C25.449 54.1462 26.6697 52.5145 28.0434 50.9972L30.2674 53.0106L32.4913 55.0241C31.3685 56.2643 30.3727 57.5955 29.5022 59.0195L26.9426 57.4549ZM30.2674 53.0106L28.0434 50.9972L29.9158 48.929L32.1398 50.9424L34.3638 52.9559L32.4913 55.0241L30.2674 53.0106ZM32.1398 50.9424L29.9158 48.929L31.7882 46.8608L34.0122 48.8742L36.2362 50.8877L34.3638 52.9559L32.1398 50.9424ZM34.0122 48.8742L31.7882 46.8608C32.8359 45.7035 33.6987 44.4096 34.3792 42.969L37.0918 44.2503L39.8044 45.5316C38.8753 47.4986 37.6851 49.2873 36.2362 50.8877L34.0122 48.8742ZM37.0918 44.2503L34.3792 42.969L35.5864 40.4133L38.299 41.6946L41.0116 42.9759L39.8044 45.5316L37.0918 44.2503ZM38.299 41.6946L35.5864 40.4133L36.7936 37.8576L39.5062 39.1389L42.2188 40.4202L41.0116 42.9759L38.299 41.6946ZM39.5062 39.1389L36.7936 37.8576C37.7451 35.8432 39.0081 34.0488 40.5776 32.4903L42.6914 34.6191L44.8052 36.7479C43.7374 37.8082 42.8769 39.027 42.2188 40.4202L39.5062 39.1389ZM42.6914 34.6191L40.5776 32.4903L42.5555 30.5263L44.6693 32.655L46.7832 34.7838L44.8052 36.7479L42.6914 34.6191ZM44.6693 32.655L42.5555 30.5263L44.5335 28.5622L46.6473 30.691L48.7611 32.8198L46.7832 34.7838L44.6693 32.655ZM46.6473 30.691L44.5335 28.5622C45.8685 27.2366 47.2165 25.9285 48.5777 24.6381L50.6417 26.8152L52.7057 28.9923C51.3783 30.2508 50.0634 31.5266 48.7611 32.8198L46.6473 30.691ZM50.6417 26.8152L48.5777 24.6381L50.5941 22.7264L52.6581 24.9035L54.7222 27.0805L52.7057 28.9923L50.6417 26.8152ZM52.6581 24.9035L50.5941 22.7264L52.6105 20.8146L54.6746 22.9917L56.7386 25.1688L54.7222 27.0805L52.6581 24.9035ZM54.6746 22.9917L52.6105 20.8146C53.9891 19.5076 55.4001 18.2318 56.8435 16.9871L58.8027 19.259L60.7619 21.5309C59.3897 22.7142 58.0486 23.9269 56.7386 25.1688L54.6746 22.9917ZM58.8027 19.259L56.8435 16.9871L58.9552 15.166L60.9144 17.438L62.8736 19.7099L60.7619 21.5309L58.8027 19.259ZM60.9144 17.438L58.9552 15.166L61.0668 13.345L63.026 15.6169L64.9852 17.8888L62.8736 19.7099L60.9144 17.438ZM63.026 15.6169L61.0668 13.345C62.1829 12.3825 63.1061 11.2237 63.8377 9.8442L66.488 11.2498L69.1384 12.6553C68.0696 14.6707 66.6847 16.4233 64.9852 17.8888L63.026 15.6169ZM66.488 11.2498L63.8377 9.8442L65.188 7.29805L67.8383 8.70362L70.4887 10.1092L69.1384 12.6553L66.488 11.2498ZM67.8383 8.70362L65.188 7.29805L66.5383 4.75191L69.1886 6.15747L71.839 7.56304L70.4887 10.1092L67.8383 8.70362ZM69.1886 6.15747L66.5383 4.75191C67.007 3.86796 67.4544 3.09596 67.8688 2.51419C68.0682 2.23437 68.339 1.88493 68.6746 1.57666C68.8439 1.42114 69.1064 1.20436 69.4568 1.0193C69.7976 0.839388 70.398 0.5968 71.1686 0.644651L70.9827 3.63888L70.7968 6.63312C71.4934 6.67638 72.0104 6.456 72.2583 6.32512C72.516 6.18908 72.6761 6.04814 72.7337 5.99526C72.8458 5.89229 72.8554 5.85537 72.7557 5.99532C72.5721 6.25307 72.2704 6.74955 71.839 7.56304L69.1886 6.15747ZM70.9827 3.63888L71.1686 0.644651L71.6124 0.672209L71.4265 3.66644L71.2406 6.66067L70.7968 6.63312L70.9827 3.63888ZM71.4265 3.66644L71.6124 0.672209L72.0562 0.699767L71.8703 3.694L71.6844 6.68823L71.2406 6.66067L71.4265 3.66644ZM71.8703 3.694L72.0562 0.699767C72.137 0.704782 72.3328 0.718756 72.5697 0.771836C72.6859 0.797867 72.9091 0.854195 73.1705 0.97334C73.3812 1.06935 73.9509 1.35252 74.3993 1.99984C74.9778 2.83499 75.0781 3.87225 74.7431 4.76637C74.4832 5.46014 74.0415 5.86127 73.8754 6.00294C73.5179 6.30791 73.1684 6.45604 73.1025 6.48488C72.7531 6.63779 72.358 6.72712 72.2313 6.75693C71.789 6.86095 71.1043 6.99652 70.2252 7.15928L69.6791 4.20941L69.1329 1.25954C70.0105 1.09706 70.5693 0.984111 70.8575 0.916328C71.0959 0.86024 70.9377 0.882849 70.697 0.988218C70.6583 1.00516 70.3279 1.14261 69.9815 1.4381C69.821 1.57502 69.3829 1.9717 69.1245 2.66133C68.7911 3.5513 68.8909 4.58472 69.467 5.41632C69.9129 6.0601 70.4781 6.34003 70.6823 6.43308C70.9373 6.54928 71.1521 6.60297 71.2578 6.62665C71.4737 6.67504 71.6406 6.68551 71.6844 6.68823L71.8703 3.694ZM69.6791 4.20941L70.2252 7.15928L67.5902 7.64713L67.044 4.69726L66.4979 1.74739L69.1329 1.25954L69.6791 4.20941Z" fill="black"/>
<path d="M34.4728 3.72156H3.81409L56.0297 66.2446L83.8141 67.7216L34.4728 3.72156Z" fill="white"/>
<path d="M22.4591 4.70266L22.5619 7.7009L22.4591 4.70266ZM29.2391 5.30219L28.8543 8.27741L29.2391 5.30219ZM40.6943 13.719L38.7718 16.0221L40.6943 13.719ZM42.0272 14.8317L40.1047 17.1347L42.0272 14.8317ZM43.3601 15.9443L45.2826 13.6413L43.3601 15.9443ZM45.5364 18.547L42.9256 20.0247L45.5364 18.547ZM47.2231 21.5271L49.8339 20.0494L47.2231 21.5271ZM49.3501 24.1678L47.3477 26.4017L49.3501 24.1678ZM51.9174 26.469L53.9198 24.2351L51.9174 26.469ZM53.9923 29.1499L51.3274 30.5277L53.9923 29.1499ZM55.5747 32.2105L58.2396 30.8326L55.5747 32.2105ZM57.3262 35.1406L54.8524 36.8377L57.3262 35.1406ZM58.2865 36.5405L60.7604 34.8433L58.2865 36.5405ZM61.3583 40.5931L59.149 42.6227L61.3583 40.5931ZM63.6603 43.0988L65.8695 41.0692L63.6603 43.0988ZM65.7408 45.7753L68.2528 44.1353L65.7408 45.7753ZM67.5997 48.6227L70.1117 46.9827L67.5997 48.6227ZM70.0316 51.0283L71.6728 48.517L70.0316 51.0283ZM73.0366 52.9921L74.6778 50.4808L73.0366 52.9921ZM75.4374 55.4216L77.9865 53.8397L75.4374 55.4216ZM76.3358 56.8693L73.7868 58.4512L76.3358 56.8693ZM77.2342 58.3169L74.6852 59.8988L77.2342 58.3169ZM79.3334 60.979L77.2001 63.0883L79.3334 60.979ZM81.735 63.408L79.6017 65.5173L81.735 63.408ZM82.2232 65.0869L80.5851 62.5736L82.2232 65.0869ZM81.5106 65.5514L83.1486 68.0647L81.5106 65.5514ZM80.7979 66.0159L79.1599 63.5025L80.7979 66.0159ZM78.3665 66.883L77.6822 63.9621L78.3665 66.883ZM74.9289 67.6884L74.2446 64.7674L74.9289 67.6884ZM71.5095 68.151L71.4038 65.1529L71.5095 68.151ZM68.1084 68.2709L68.2141 71.2691L68.1084 68.2709ZM64.7254 68.0493L65.2206 65.0905L64.7254 68.0493ZM63.043 67.7677L62.5477 70.7265L63.043 67.7677ZM61.3605 67.4861L60.8653 70.4449L61.3605 67.4861ZM54.4495 65.5508L53.5448 68.4111L54.4495 65.5508ZM52.0864 63.3091L49.27 64.3425L52.0864 63.3091ZM51.4662 61.6187L54.2826 60.5854L51.4662 61.6187ZM50.846 59.9284L48.0296 60.9617L50.846 59.9284ZM48.6646 57.3334L47.1606 59.9292L48.6646 57.3334ZM45.5422 55.5243L47.0462 52.9286L45.5422 55.5243ZM43.3486 52.9395L46.1564 51.8829L43.3486 52.9395ZM42.7163 51.2593L39.9085 52.316L42.7163 51.2593ZM40.0904 46.8272L41.9461 44.47L40.0904 46.8272ZM38.7292 45.7556L36.8735 48.1128L38.7292 45.7556ZM37.3681 44.684L35.5124 47.0412L37.3681 44.684ZM34.9706 42.2695L37.3457 40.4367L34.9706 42.2695ZM32.8981 39.5837L30.523 41.4164L32.8981 39.5837ZM29.4496 35.8386L31.5664 33.7128L29.4496 35.8386ZM26.3455 31.8058L23.5838 32.9776L26.3455 31.8058ZM22.9429 25.814L21.0283 28.1236L22.9429 25.814ZM20.2889 23.6138L22.2036 21.3042L20.2889 23.6138ZM17.8891 21.2013L15.5664 23.1L17.8891 21.2013ZM13.568 15.9765L11.2893 17.9277L13.568 15.9765ZM12.4655 14.6889L10.1867 16.6401L12.4655 14.6889ZM11.363 13.4013L13.6417 11.4501L11.363 13.4013ZM9.55693 10.4929L6.80498 11.6874L9.55693 10.4929ZM7.20409 3.28439L7.58778 6.25975L9.28278 6.04117L8.89909 3.06581L8.51539 0.0904448L6.82039 0.309029L7.20409 3.28439ZM8.89909 3.06581L9.28278 6.04117C9.98073 5.95116 10.6871 6.00663 11.4287 6.22864L12.2891 3.35468L13.1495 0.480711C11.6311 0.0261159 10.0774 -0.110994 8.51539 0.0904448L8.89909 3.06581ZM12.2891 3.35468L11.4287 6.22864L13.1237 6.7361L13.9841 3.86213L14.8445 0.988166L13.1495 0.480711L12.2891 3.35468ZM13.9841 3.86213L13.1237 6.7361L14.8187 7.24355L15.6791 4.36959L16.5395 1.49562L14.8445 0.988166L13.9841 3.86213ZM15.6791 4.36959L14.8187 7.24355C16.2472 7.67124 17.7023 7.86755 19.1719 7.81715L19.0691 4.81891L18.9663 1.82068C18.1759 1.84778 17.3709 1.74453 16.5395 1.49562L15.6791 4.36959ZM19.0691 4.81891L19.1719 7.81715L20.8669 7.75902L20.7641 4.76079L20.6613 1.76255L18.9663 1.82068L19.0691 4.81891ZM20.7641 4.76079L20.8669 7.75902L22.5619 7.7009L22.4591 4.70266L22.3563 1.70442L20.6613 1.76255L20.7641 4.76079ZM22.4591 4.70266L22.5619 7.7009C23.5278 7.66778 24.4947 7.71357 25.4643 7.83897L25.8491 4.86375L26.2339 1.88853C24.9435 1.72164 23.6504 1.66004 22.3563 1.70442L22.4591 4.70266ZM25.8491 4.86375L25.4643 7.83897L27.1593 8.05819L27.5441 5.08297L27.9289 2.10775L26.2339 1.88853L25.8491 4.86375ZM27.5441 5.08297L27.1593 8.05819L28.8543 8.27741L29.2391 5.30219L29.6239 2.32697L27.9289 2.10775L27.5441 5.08297ZM29.2391 5.30219L28.8543 8.27741C30.0365 8.43031 31.1613 8.54375 32.2272 8.61613L32.4305 5.62303L32.6337 2.62992C31.7045 2.56682 30.7017 2.46637 29.6239 2.32697L29.2391 5.30219ZM32.4305 5.62303L32.2272 8.61613L33.7236 8.71775L33.9269 5.72464L34.1301 2.73153L32.6337 2.62992L32.4305 5.62303ZM33.9269 5.72464L33.7236 8.71775L35.22 8.81936L35.4233 5.82626L35.6265 2.83315L34.1301 2.73153L33.9269 5.72464ZM35.4233 5.82626L35.22 8.81936C35.197 8.8178 35.1281 8.80956 35.0329 8.77269C34.9352 8.73485 34.8433 8.67976 34.7676 8.61618C34.6169 8.48945 34.6377 8.4231 34.7125 8.62765L37.5301 7.5975L40.3477 6.56736C40.0155 5.65882 39.4817 4.74072 38.6287 4.02357C37.7461 3.28154 36.7002 2.90606 35.6265 2.83315L35.4233 5.82626ZM37.5301 7.5975L34.7125 8.62765L35.323 10.2973L38.1405 9.26713L40.9581 8.23699L40.3477 6.56736L37.5301 7.5975ZM38.1405 9.26713L35.323 10.2973L35.9334 11.9669L38.751 10.9368L41.5686 9.90662L40.9581 8.23699L38.1405 9.26713ZM38.751 10.9368L35.9334 11.9669C36.517 13.5632 37.4681 14.9338 38.7718 16.0221L40.6943 13.719L42.6168 11.416C42.1433 11.0208 41.7988 10.5365 41.5686 9.90662L38.751 10.9368ZM40.6943 13.719L38.7718 16.0221L40.1047 17.1347L42.0272 14.8317L43.9497 12.5286L42.6168 11.416L40.6943 13.719ZM42.0272 14.8317L40.1047 17.1347L41.4376 18.2474L43.3601 15.9443L45.2826 13.6413L43.9497 12.5286L42.0272 14.8317ZM43.3601 15.9443L41.4376 18.2474C42.053 18.761 42.5438 19.3501 42.9256 20.0247L45.5364 18.547L48.1472 17.0693C47.4045 15.7571 46.4445 14.6111 45.2826 13.6413L43.3601 15.9443ZM45.5364 18.547L42.9256 20.0247L43.7689 21.5148L46.3797 20.0371L48.9906 18.5594L48.1472 17.0693L45.5364 18.547ZM46.3797 20.0371L43.7689 21.5148L44.6123 23.0048L47.2231 21.5271L49.8339 20.0494L48.9906 18.5594L46.3797 20.0371ZM47.2231 21.5271L44.6123 23.0048C45.3361 24.2836 46.2511 25.4188 47.3477 26.4017L49.3501 24.1678L51.3525 21.9339C50.7376 21.3827 50.2346 20.7574 49.8339 20.0494L47.2231 21.5271ZM49.3501 24.1678L47.3477 26.4017L48.6314 27.5523L50.6338 25.3184L52.6362 23.0845L51.3525 21.9339L49.3501 24.1678ZM50.6338 25.3184L48.6314 27.5523L49.9151 28.7029L51.9174 26.469L53.9198 24.2351L52.6362 23.0845L50.6338 25.3184ZM51.9174 26.469L49.9151 28.7029C50.5001 29.2273 50.9671 29.8309 51.3274 30.5277L53.9923 29.1499L56.6572 27.7721C55.9625 26.4285 55.0463 25.2448 53.9198 24.2351L51.9174 26.469ZM53.9923 29.1499L51.3274 30.5277L52.1186 32.058L54.7835 30.6802L57.4484 29.3024L56.6572 27.7721L53.9923 29.1499ZM54.7835 30.6802L52.1186 32.058L52.9098 33.5883L55.5747 32.2105L58.2396 30.8326L57.4484 29.3024L54.7835 30.6802ZM55.5747 32.2105L52.9098 33.5883C53.4934 34.7171 54.1409 35.8006 54.8524 36.8377L57.3262 35.1406L59.8 33.4435C59.2311 32.6141 58.7108 31.7442 58.2396 30.8326L55.5747 32.2105ZM57.3262 35.1406L54.8524 36.8377L55.8127 38.2376L58.2865 36.5405L60.7604 34.8433L59.8 33.4435L57.3262 35.1406ZM58.2865 36.5405L55.8127 38.2376L56.7731 39.6374L59.2469 37.9403L61.7207 36.2432L60.7604 34.8433L58.2865 36.5405ZM59.2469 37.9403L56.7731 39.6374C57.4937 40.6879 58.286 41.6832 59.149 42.6227L61.3583 40.5931L63.5675 38.5634C62.8959 37.8324 62.2805 37.0592 61.7207 36.2432L59.2469 37.9403ZM61.3583 40.5931L59.149 42.6227L60.3001 43.8755L62.5093 41.8459L64.7185 39.8163L63.5675 38.5634L61.3583 40.5931ZM62.5093 41.8459L60.3001 43.8755L61.4511 45.1284L63.6603 43.0988L65.8695 41.0692L64.7185 39.8163L62.5093 41.8459ZM63.6603 43.0988L61.4511 45.1284C62.107 45.8424 62.6992 46.6043 63.2287 47.4154L65.7408 45.7753L68.2528 44.1353C67.543 43.0482 66.7482 42.0257 65.8695 41.0692L63.6603 43.0988ZM65.7408 45.7753L63.2287 47.4154L64.1582 48.839L66.6702 47.199L69.1823 45.559L68.2528 44.1353L65.7408 45.7753ZM66.6702 47.199L64.1582 48.839L65.0877 50.2627L67.5997 48.6227L70.1117 46.9827L69.1823 45.559L66.6702 47.199ZM67.5997 48.6227L65.0877 50.2627C65.9467 51.5785 67.0611 52.6708 68.3904 53.5396L70.0316 51.0283L71.6728 48.517C70.9989 48.0766 70.492 47.5651 70.1117 46.9827L67.5997 48.6227ZM70.0316 51.0283L68.3904 53.5396L69.8929 54.5215L71.5341 52.0102L73.1753 49.4989L71.6728 48.517L70.0316 51.0283ZM71.5341 52.0102L69.8929 54.5215L71.3954 55.5034L73.0366 52.9921L74.6778 50.4808L73.1753 49.4989L71.5341 52.0102ZM73.0366 52.9921L71.3954 55.5034C72.0502 55.9313 72.5329 56.4307 72.8884 57.0035L75.4374 55.4216L77.9865 53.8397C77.1441 52.4824 76.0262 51.3621 74.6778 50.4808L73.0366 52.9921ZM75.4374 55.4216L72.8884 57.0035L73.7868 58.4512L76.3358 56.8693L78.8849 55.2874L77.9865 53.8397L75.4374 55.4216ZM76.3358 56.8693L73.7868 58.4512L74.6852 59.8988L77.2342 58.3169L79.7833 56.735L78.8849 55.2874L76.3358 56.8693ZM77.2342 58.3169L74.6852 59.8988C75.4028 61.0551 76.2421 62.1193 77.2001 63.0883L79.3334 60.979L81.4667 58.8698C80.8237 58.2194 80.2635 57.5088 79.7833 56.735L77.2342 58.3169ZM79.3334 60.979L77.2001 63.0883L78.4009 64.3028L80.5342 62.1935L82.6675 60.0843L81.4667 58.8698L79.3334 60.979ZM80.5342 62.1935L78.4009 64.3028L79.6017 65.5173L81.735 63.408L83.8683 61.2987L82.6675 60.0843L80.5342 62.1935ZM81.735 63.408L79.6017 65.5173C79.7233 65.6402 79.7649 65.6984 79.7621 65.6945C79.759 65.69 79.735 65.6557 79.7025 65.5929C79.6705 65.531 79.6205 65.4229 79.5767 65.2726C79.4873 64.9651 79.4112 64.4206 79.6366 63.7934C79.8652 63.1572 80.2836 62.7701 80.5851 62.5736L82.2232 65.0869L83.8612 67.6003C84.4003 67.2489 84.9765 66.6758 85.2832 65.8223C85.5866 64.9777 85.5089 64.1847 85.3381 63.5974C85.0385 62.5668 84.3447 61.7806 83.8683 61.2987L81.735 63.408ZM82.2232 65.0869L80.5851 62.5736L79.8725 63.0381L81.5106 65.5514L83.1486 68.0647L83.8612 67.6003L82.2232 65.0869ZM81.5106 65.5514L79.8725 63.0381L79.1599 63.5025L80.7979 66.0159L82.436 68.5292L83.1486 68.0647L81.5106 65.5514ZM80.7979 66.0159L79.1599 63.5025C79.1929 63.481 79.1111 63.5375 78.826 63.6392C78.5572 63.7351 78.1824 63.8449 77.6822 63.9621L78.3665 66.883L79.0508 69.8039C80.2514 69.5226 81.4971 69.1411 82.436 68.5292L80.7979 66.0159ZM78.3665 66.883L77.6822 63.9621L75.9634 64.3648L76.6477 67.2857L77.332 70.2066L79.0508 69.8039L78.3665 66.883ZM76.6477 67.2857L75.9634 64.3648L74.2446 64.7674L74.9289 67.6884L75.6132 70.6093L77.332 70.2066L76.6477 67.2857ZM74.9289 67.6884L74.2446 64.7674C73.2815 64.9931 72.3355 65.12 71.4038 65.1529L71.5095 68.151L71.6153 71.1491C72.951 71.102 74.2846 70.9206 75.6132 70.6093L74.9289 67.6884ZM71.5095 68.151L71.4038 65.1529L69.7033 65.2128L69.809 68.211L69.9147 71.2091L71.6153 71.1491L71.5095 68.151ZM69.809 68.211L69.7033 65.2128L68.0027 65.2728L68.1084 68.2709L68.2141 71.2691L69.9147 71.2091L69.809 68.211ZM68.1084 68.2709L68.0027 65.2728C67.0706 65.3057 66.1442 65.245 65.2206 65.0905L64.7254 68.0493L64.2301 71.0081C65.5498 71.229 66.8787 71.3161 68.2141 71.2691L68.1084 68.2709ZM64.7254 68.0493L65.2206 65.0905L63.5382 64.8089L63.043 67.7677L62.5477 70.7265L64.2301 71.0081L64.7254 68.0493ZM63.043 67.7677L63.5382 64.8089L61.8558 64.5273L61.3605 67.4861L60.8653 70.4449L62.5477 70.7265L63.043 67.7677ZM61.3605 67.4861L61.8558 64.5273C60.8822 64.3643 59.8773 64.121 58.8399 63.7929L57.9352 66.6533L57.0305 69.5136C58.317 69.9205 59.5956 70.2324 60.8653 70.4449L61.3605 67.4861ZM57.9352 66.6533L58.8399 63.7929L57.0971 63.2417L56.1924 66.102L55.2877 68.9623L57.0305 69.5136L57.9352 66.6533ZM56.1924 66.102L57.0971 63.2417L55.3542 62.6904L54.4495 65.5508L53.5448 68.4111L55.2877 68.9623L56.1924 66.102ZM54.4495 65.5508L55.3542 62.6904C55.1532 62.6269 55.0775 62.5625 55.0519 62.5382C55.0275 62.515 54.9674 62.4518 54.9028 62.2757L52.0864 63.3091L49.27 64.3425C50.0092 66.357 51.513 67.7684 53.5448 68.4111L54.4495 65.5508ZM52.0864 63.3091L54.9028 62.2757L54.2826 60.5854L51.4662 61.6187L48.6498 62.6521L49.27 64.3425L52.0864 63.3091ZM51.4662 61.6187L54.2826 60.5854L53.6624 58.895L50.846 59.9284L48.0296 60.9617L48.6498 62.6521L51.4662 61.6187ZM50.846 59.9284L53.6624 58.895C53.0069 57.1084 51.8145 55.6913 50.1685 54.7377L48.6646 57.3334L47.1606 59.9292C47.5961 60.1816 47.8581 60.4945 48.0296 60.9617L50.846 59.9284ZM48.6646 57.3334L50.1685 54.7377L48.6073 53.8331L47.1034 56.4289L45.5994 59.0247L47.1606 59.9292L48.6646 57.3334ZM47.1034 56.4289L48.6073 53.8331L47.0462 52.9286L45.5422 55.5243L44.0382 58.1201L45.5994 59.0247L47.1034 56.4289ZM45.5422 55.5243L47.0462 52.9286C46.6013 52.6708 46.3327 52.3514 46.1564 51.8829L43.3486 52.9395L40.5409 53.9962C41.2077 55.7681 42.4015 57.1718 44.0382 58.1201L45.5422 55.5243ZM43.3486 52.9395L46.1564 51.8829L45.524 50.2026L42.7163 51.2593L39.9085 52.316L40.5409 53.9962L43.3486 52.9395ZM42.7163 51.2593L45.524 50.2026L44.8917 48.5224L42.0839 49.579L39.2762 50.6357L39.9085 52.316L42.7163 51.2593ZM42.0839 49.579L44.8917 48.5224C44.2847 46.9095 43.2997 45.5356 41.9461 44.47L40.0904 46.8272L38.2347 49.1844C38.696 49.5476 39.04 50.0083 39.2762 50.6357L42.0839 49.579ZM40.0904 46.8272L41.9461 44.47L40.585 43.3984L38.7292 45.7556L36.8735 48.1128L38.2347 49.1844L40.0904 46.8272ZM38.7292 45.7556L40.585 43.3984L39.2238 42.3268L37.3681 44.684L35.5124 47.0412L36.8735 48.1128L38.7292 45.7556ZM37.3681 44.684L39.2238 42.3268C38.5063 41.7619 37.8825 41.1323 37.3457 40.4367L34.9706 42.2695L32.5956 44.1022C33.4405 45.1972 34.415 46.1773 35.5124 47.0412L37.3681 44.684ZM34.9706 42.2695L37.3457 40.4367L36.3094 39.0938L33.9344 40.9266L31.5593 42.7593L32.5956 44.1022L34.9706 42.2695ZM33.9344 40.9266L36.3094 39.0938L35.2731 37.7509L32.8981 39.5837L30.523 41.4164L31.5593 42.7593L33.9344 40.9266ZM32.8981 39.5837L35.2731 37.7509C34.5024 36.7521 33.6686 35.8063 32.7725 34.9139L30.6557 37.0397L28.5388 39.1654C29.2509 39.8745 29.912 40.6247 30.523 41.4164L32.8981 39.5837ZM30.6557 37.0397L32.7725 34.9139L31.5664 33.7128L29.4496 35.8386L27.3327 37.9643L28.5388 39.1654L30.6557 37.0397ZM29.4496 35.8386L31.5664 33.7128L30.3603 32.5117L28.2434 34.6375L26.1266 36.7632L27.3327 37.9643L29.4496 35.8386ZM28.2434 34.6375L30.3603 32.5117C29.8419 31.9955 29.4233 31.3792 29.1072 30.6341L26.3455 31.8058L23.5838 32.9776C24.1901 34.4066 25.0368 35.6781 26.1266 36.7632L28.2434 34.6375ZM26.3455 31.8058L29.1072 30.6341L28.4153 29.0035L25.6536 30.1753L22.8919 31.3471L23.5838 32.9776L26.3455 31.8058ZM25.6536 30.1753L28.4153 29.0035L27.7235 27.3729L24.9618 28.5447L22.2001 29.7165L22.8919 31.3471L25.6536 30.1753ZM24.9618 28.5447L27.7235 27.3729C27.0803 25.857 26.1219 24.5526 24.8576 23.5045L22.9429 25.814L21.0283 28.1236C21.5333 28.5423 21.9208 29.0583 22.2001 29.7165L24.9618 28.5447ZM22.9429 25.814L24.8576 23.5045L23.5306 22.4044L21.6159 24.7139L19.7012 27.0235L21.0283 28.1236L22.9429 25.814ZM21.6159 24.7139L23.5306 22.4044L22.2036 21.3042L20.2889 23.6138L18.3742 25.9233L19.7012 27.0235L21.6159 24.7139ZM20.2889 23.6138L22.2036 21.3042C21.4653 20.6922 20.8025 20.0252 20.2117 19.3026L17.8891 21.2013L15.5664 23.1C16.4061 24.1272 17.3431 25.0686 18.3742 25.9233L20.2889 23.6138ZM17.8891 21.2013L20.2117 19.3026L19.1389 17.9902L16.8162 19.8889L14.4935 21.7876L15.5664 23.1L17.8891 21.2013ZM16.8162 19.8889L19.1389 17.9902L18.0661 16.6778L15.7434 18.5765L13.4207 20.4752L14.4935 21.7876L16.8162 19.8889ZM15.7434 18.5765L18.0661 16.6778C17.3364 15.7852 16.5966 14.901 15.8468 14.0253L13.568 15.9765L11.2893 17.9277C12.0094 18.7688 12.7199 19.618 13.4207 20.4752L15.7434 18.5765ZM13.568 15.9765L15.8468 14.0253L14.7443 12.7377L12.4655 14.6889L10.1867 16.6401L11.2893 17.9277L13.568 15.9765ZM12.4655 14.6889L14.7443 12.7377L13.6417 11.4501L11.363 13.4013L9.08422 15.3526L10.1867 16.6401L12.4655 14.6889ZM11.363 13.4013L13.6417 11.4501C13.1094 10.8284 12.6638 10.1162 12.3089 9.29842L9.55693 10.4929L6.80498 11.6874C7.38804 13.0307 8.1465 14.2574 9.08422 15.3526L11.363 13.4013ZM9.55693 10.4929L12.3089 9.29842L11.6053 7.67761L8.8534 8.8721L6.10146 10.0666L6.80498 11.6874L9.55693 10.4929ZM8.8534 8.8721L11.6053 7.67761L10.9018 6.05679L8.14988 7.25129L5.39794 8.44578L6.10146 10.0666L8.8534 8.8721ZM8.14988 7.25129L10.9018 6.05679C10.2435 4.54012 9.03971 2.91524 6.94467 2.44101L6.28235 5.36699L5.62003 8.29296C5.51782 8.26982 5.42202 8.23133 5.3407 8.18459C5.26137 8.139 5.21589 8.09719 5.20045 8.08162C5.1865 8.06754 5.20293 8.0809 5.24118 8.14076C5.27959 8.20089 5.33412 8.29876 5.39794 8.44578L8.14988 7.25129ZM6.28235 5.36699L6.94467 2.44101L5.78067 2.17753L5.11835 5.1035L4.45602 8.02948L5.62003 8.29296L6.28235 5.36699ZM5.11835 5.1035L5.78067 2.17753L4.61666 1.91404L3.95434 4.84002L3.29202 7.76599L4.45602 8.02948L5.11835 5.1035ZM3.95434 4.84002L4.61666 1.91404C4.23692 1.82808 4.31107 1.81255 4.54095 1.93337C4.62115 1.97552 4.78969 2.07004 4.98407 2.2334C5.16313 2.38386 5.51283 2.71612 5.7551 3.26935C6.03415 3.90657 6.09616 4.67886 5.83016 5.42473C5.59583 6.08181 5.19284 6.4787 4.96928 6.66541L3.04627 4.36279L1.12327 2.06017C0.857054 2.2825 0.426201 2.71554 0.178792 3.40928C-0.100279 4.1918 -0.036556 5.00128 0.259003 5.67619C0.719475 6.72769 1.6081 7.17016 1.74969 7.24457C2.28226 7.52446 2.89576 7.67629 3.29202 7.76599L3.95434 4.84002ZM3.04627 4.36279L4.96928 6.66541L5.22522 6.45166L3.30221 4.14905L1.3792 1.84643L1.12327 2.06017L3.04627 4.36279ZM3.30221 4.14905L5.22522 6.45166L5.48116 6.23792L3.55815 3.9353L1.63514 1.63269L1.3792 1.84643L3.30221 4.14905ZM3.55815 3.9353L5.48116 6.23792C5.36251 6.337 5.2554 6.4095 5.17446 6.45959C5.09233 6.51042 5.02148 6.54782 4.96863 6.57381C4.86658 6.62401 4.792 6.65101 4.76489 6.66048C4.71429 6.67814 4.72182 6.6717 4.82291 6.64929C5.02033 6.60554 5.36397 6.54653 5.89278 6.47834L5.50909 3.50297L5.12539 0.527612C4.5242 0.60514 3.97768 0.691042 3.5248 0.791401C3.30073 0.841054 3.04306 0.906459 2.78723 0.995775C2.60571 1.05915 2.10844 1.23741 1.63514 1.63269L3.55815 3.9353ZM5.50909 3.50297L5.89278 6.47834L7.58778 6.25975L7.20409 3.28439L6.82039 0.309029L5.12539 0.527612L5.50909 3.50297Z" fill="black"/>
</svg>
